<?xml version="1.0" standalone="no"?>
<!DOCTYPE svg PUBLIC "-//W3C//DTD SVG 1.1//EN" "http://www.w3.org/Graphics/SVG/1.1/DTD/svg11.dtd" >
<svg xmlns="http://www.w3.org/2000/svg" xmlns:xlink="http://www.w3.org/1999/xlink" version="1.1">
<metadata></metadata>
<defs>
<font id="butterscotchornamentsregular" horiz-adv-x="718" >
<font-face units-per-em="2048" ascent="1636" descent="-412" />
<missing-glyph horiz-adv-x="500" />
<glyph horiz-adv-x="0" />
<glyph unicode="&#xd;" horiz-adv-x="2048" />
<glyph unicode="0" horiz-adv-x="2553" d="M2343 963q-4 -27 -35 -24t-47 25.5t-16 49.5v14q4 33 26 62q23 25 56 40q20 10 43 11q12 0 24 -2q35 -8 60.5 -33t39 -56.5t15.5 -68.5v-10q0 -31 -10 -60q-25 -66 -85.5 -108.5t-129.5 -59.5q-63 -16 -130 -16q-4 2 -8 2q-70 0 -143 4h-35q-55 0 -108 -4 q-70 -6 -136 -35q23 -29 41.5 -59.5t22.5 -65.5q2 -27 -9.5 -52t-30.5 -39.5t-43 -14.5t-48 24q-20 20 -25.5 49t0.5 58q4 29 17.5 53.5t27.5 48.5q-51 25 -104 33q-29 4 -57 4q-25 0 -52 -4q-55 -8 -105 -30.5t-89 -61.5q-4 -4 -7 -9t-3 -12q-2 -8 10 -24q23 -29 45 -86 t37.5 -126t19.5 -140q2 -20 2 -39q-2 -49 -10 -92q-12 -59 -48 -99.5t-102 -44.5q-31 -2 -54 13.5t-40.5 41t-28 56t-14.5 61.5q-4 39 -4 78q0 80 21 162q29 119 96 217q-25 39 -64 65q-39 25 -84 37q-29 8 -59 9q-16 0 -33 -3q-47 -6 -86 -30q16 -31 29 -64q12 -29 12 -57 q0 -20 -8 -43q-8 -16 -19.5 -29.5t-26.5 -20.5t-34 -5q-33 4 -51 34q-14 25 -14 52v12q4 33 19 61.5t34 57.5q-31 29 -68 39q-31 8 -65 8h-13q-41 -2 -86 -12q-51 -14 -81 -25q-55 -18 -115 -33q-43 -12 -115 -20q-18 -2 -37 -2h-16q-27 -2 -62 6q-57 14 -100 45 q-37 27 -61 65q-23 37 -35 80q-8 27 -10 68q2 12 2 20q4 45 22 84q16 35 58.5 66t94.5 51t107 29q20 2 39 2q31 0 60 -8q45 -12 69 -48q18 -27 19 -67q0 -14 -2 -31q-4 -29 -26 -51.5t-49.5 -31.5t-56 -5t-47.5 27q8 16 15 35q16 -16 36.5 -12.5t38 17t25.5 35t2 43.5 q-14 43 -59 62q-33 14 -68 14l-22 -2q-74 -10 -130.5 -63.5t-72.5 -124.5q-4 -23 -4 -43q0 -51 22 -101q33 -70 97 -106q63 -35 129 -35q12 2 24 2q80 8 164 30.5t170 43.5q51 12 100 14q33 0 66 -6q29 -4 56.5 -11t56.5 -7t54 5t52 9q18 2 39 2q35 0 68 -8q53 -14 98 -49 q10 -8 21.5 -16.5t23.5 -8.5q18 -4 33.5 7.5t29.5 21.5q70 55 158 74q39 8 78 8q47 0 94 -13q29 -8 53.5 -16t53.5 -6q29 0 54 9t52 18q37 8 72 8h14q43 -2 86 -8.5t86 -10.5q25 -2 47 -4l39 2q63 6 120.5 37t98.5 82q23 29 37 64q12 31 12 63q0 43 -22 78q-20 33 -55 45 q-14 4 -29 4q-23 -2 -43 -10q-37 -16 -45 -51q-4 -18 3 -36t19.5 -30t30 -18t33.5 0zM1278 502q-10 12 -21.5 29.5t-25.5 35.5q-16 18 -35 0q-8 -10 -15 -19t-12 -20q-10 -20 -17 -40.5t-17 -43.5q-33 -84 -41 -170q-2 -27 -4 -51q0 -59 12 -121q8 -59 59 -104q27 -18 53 -4 q14 6 23 18q33 45 52.5 94.5t21.5 106.5q2 29 3 56.5t-1 56.5q0 43 -7.5 86t-27.5 90zM1733 621q0 4 -11 14q-6 10 -13 19.5t-21 4.5q-12 -2 -17.5 -11t-9.5 -19q-14 -29 -14 -57.5t14 -55.5q12 -25 39 -12q29 16 39 49q4 12 4 25q0 23 -10 43zM801 485q43 35 43 76 q0 35 -31 74q-20 -8 -26.5 -25.5t-10.5 -34.5q-8 -25 0.5 -46t24.5 -44z" />
<glyph unicode="1" horiz-adv-x="2238" d="M1182 299q-78 16 -130.5 54t-99.5 81q-16 16 -29.5 34.5t-27.5 39.5q-29 37 -46.5 84t-21.5 96v21q0 41 13 86q12 53 49 106q25 35 60.5 58.5t74.5 35.5q27 8 55 9h11h12q37 -2 65 -19q53 -29 78 -83t37 -109q10 -45 14 -91.5t9 -93.5q2 -16 2 -33q0 -35 -7 -67 q-8 -49 -22 -102q-4 -12 -7 -24.5t1 -25.5q23 -4 47 -4q20 0 45 4q53 8 98 25q10 29 20.5 55.5t18.5 55.5q16 53 58.5 95t107.5 58q12 4 27 4q20 -2 41 -10q33 -12 43 -37q8 -23 -2.5 -52.5t-24.5 -53.5q-16 -29 -42 -54.5t-56 -48.5q-12 -8 -24.5 -14t-24.5 -12 q-23 -10 -42.5 -18.5t-41.5 -18.5q-2 -10 -5.5 -18.5t-1.5 -16.5q8 -53 41 -97t82.5 -74t110.5 -42q39 -8 78 -10q25 0 51 4q39 4 89 20.5t95 42t76 61.5t33 79v26q-2 20 -2 39q-4 33 -15 62q-10 20 -33.5 36.5t-54.5 24.5q-23 6 -47 6q-10 -2 -18 -2q-33 -4 -66 -20 q-41 -23 -59 -62q-10 -20 -10 -39q0 -16 8 -28q6 -12 21.5 -19.5t31.5 0.5q4 4 9 7t10 7q14 8 20 2q2 -6 0 -14q-8 -18 -32.5 -28.5t-43.5 -4.5q-20 4 -29.5 19.5t-13.5 32.5q-4 14 -4 28q-2 20 6 41q12 37 47 64q29 23 74 32q31 6 60 7q27 0 45 -4q47 -10 77 -37 q35 -31 50 -70q10 -29 10 -57v-11v-20q-4 -45 -21.5 -92t-49.5 -89t-78 -72t-107 -40q-45 -8 -84 -8q-43 0 -80 8q-74 16 -131 55t-97 94.5t-67 114.5q-4 12 -8 24.5t-8 26.5q-51 -8 -105 -16q-35 -4 -65 -4q-18 0 -35 2q-37 0 -57 -29q-14 -20 -28.5 -37.5t-31.5 -37.5 q-29 -37 -71 -74t-90 -67.5t-99 -55.5t-98 -37q-98 -25 -205 -33q-25 -2 -47 0q-80 0 -156 17q-98 25 -180 82t-131 159q-39 88 -43 187q0 6 -2 10q0 92 51 172q45 78 131 119q72 35 148 37q14 0 30 -2q41 -4 80 -21.5t55 -56.5q10 -20 11 -43q0 -12 -4 -29q-12 -37 -37 -67 q-49 -55 -123 -66q-20 -4 -39 -1t-33 17t-12 36t20 28q4 2 4 -12q-2 -12 8.5 -22.5t22.5 -14.5t25.5 -1t25.5 7q27 8 52.5 22.5t29.5 42.5q6 29 -12 58q-29 43 -78 59q-35 12 -72 12l-26 -2q-78 -10 -140.5 -64t-76.5 -132q-4 -20 -4 -41q0 -45 18 -90q27 -66 62 -119 q82 -123 245 -158q57 -12 117.5 -20t124.5 -8q78 0 156.5 14t150.5 47t132.5 86t103.5 127zM1221 356q16 20 24 40t12 40t7.5 40t7.5 40q10 41 10 78q0 16 -2 31l-12 102q-4 45 -24.5 82t-49.5 70q-25 31 -61 47q-31 14 -70 14h-21q-33 -4 -65.5 -13t-54.5 -40 q-25 -35 -41 -68q-16 -31 -17 -59q0 -39 13 -113q8 -49 36 -92q37 -59 89.5 -105.5t125.5 -74.5q20 -8 42 -15.5t51 -3.5zM1509 389q29 0 57.5 11.5t57.5 25.5q53 23 80 57.5t39 77.5q8 31 -13.5 49.5t-56.5 14.5q-47 -8 -88 -42t-51 -75q-14 -35 -23 -64q-4 -14 -8 -28.5 t6 -26.5z" />
<glyph unicode="2" horiz-adv-x="3196" d="M2927 381q6 4 11 11t9 16q12 -6 13 -13.5t1 -15.5q-2 -16 -16 -23q-12 -6 -23.5 -4t-23.5 6q-37 12 -51 56q-4 10 -4 20q0 16 10 27q14 20 37.5 33.5t52.5 19.5q16 2 31 2h18q39 -8 74 -34.5t45 -67.5q2 -12 4 -23q0 -12 -4 -20q-6 -18 -16.5 -33.5t-26.5 -29t-33 -25.5 q-35 -27 -78 -37q-37 -6 -71 -6h-13q-94 2 -178 33.5t-168 74.5q-41 20 -79 43t-76 41q-33 16 -68 25q-25 8 -51 8h-21q-14 -2 -28.5 -6t-28.5 -6q-4 0 -7 -15.5t-6 -34t-5.5 -35t-2.5 -20.5q-6 -20 -25.5 -44.5t-43.5 -43.5q-27 -18 -53 -22q-4 -2 -9 0q-20 0 -40.5 17 t-20.5 38q0 8 2 14q8 31 33.5 59.5t56.5 52t49 34.5q25 12 30 25.5t3 39.5q-6 47 -40 82t-75 53q-16 6 -38.5 14.5t-45 10.5t-40 -6t-21.5 -33q-2 -12 -5 -23.5t-5 -23.5q-6 -29 -22.5 -50.5t-35.5 -39.5q-14 -14 -36.5 -20.5t-41 -2.5t-28.5 21q-6 8 -6 20q0 8 4 21 q10 35 41 70.5t63 54.5q4 2 7.5 5t7.5 5q20 16 8 37q-6 14 -19 20q-37 35 -77 47q-14 6 -35 4q-27 0 -56 -10q-59 -18 -100 -61q0 -12 2 -15q18 -25 23.5 -52.5t7.5 -57.5q2 -18 -1 -40t-11 -40q-6 -10 -17.5 -20.5t-27 -16.5t-32 -6t-24.5 10q-6 6 -9 14.5t-5 18.5 q-6 20 -6 42.5t6 43.5q10 43 31 82q2 6 4 10t6 10q6 12 -7.5 27.5t-31.5 30t-36.5 26t-27.5 13.5q-29 12 -57 12q-8 -2 -16 -2q-35 -6 -64.5 -24.5t-51 -49.5t-30.5 -67q14 -10 28.5 -18.5t27.5 -18.5q16 -12 33.5 -31t30.5 -40.5t18 -45.5q2 -12 4 -25q0 -10 -2 -20 q-6 -27 -29 -35q-14 -6 -29 -6q-8 0 -14 2q-25 4 -47.5 16.5t-32.5 28.5q-16 25 -27 47q-8 20 -6 43v8v45q-10 6 -19 11.5t-20 7.5q-47 16 -92 16q-16 0 -31 -2q-59 -6 -105 -38t-69 -85q-12 -31 -12 -67q0 -27 6 -58q2 -14 11.5 -26.5t13.5 -26.5q37 12 76 29q31 12 73 18 q8 2 19 2h4h2q27 0 47 -16q27 -25 33 -53q2 -6 2 -13q0 -23 -17 -43q-18 -27 -61 -32q-16 -2 -31 -5q-31 0 -57 11q-39 12 -72 43q-6 4 -10 8l-8 8q-12 12 -31 6q-8 -2 -15 -6t-16 -8q-41 -23 -82 -43q-37 -20 -77 -41q-88 -43 -168 -74q-74 -27 -152 -26h-8h-21 q-41 2 -81.5 15t-67.5 38q-29 25 -37 59q-2 10 -2 21q0 29 16 63q8 20 25.5 38.5t37 32t44.5 19.5q12 2 22 4q10 0 23 -4q33 -6 57 -35q16 -20 19 -47q2 -8 -2 -16q-8 -31 -41 -37q-10 -2 -17.5 0t-21.5 12q2 8 9 7.5t15 1.5q23 4 30 18t-1 33q-16 33 -40.5 33t-48.5 -19.5 t-42 -52.5t-18 -66v-6q0 -31 16 -55q18 -27 66 -33q39 -6 74.5 -6t72.5 10q72 20 138.5 46t127.5 63q31 18 62.5 32.5t60.5 30.5q10 6 21.5 11.5t17.5 17.5q-4 23 -8 44t-8 44q-2 14 0 31q2 27 6 51q10 39 37 76q41 57 95 82.5t122 31.5q8 2 16 2q18 2 33 -4q25 -6 49 -16 q16 -6 23.5 -3t15.5 17q10 16 21.5 33.5t23.5 32.5q20 29 54 46t71 23q16 2 31 2h6q16 0 33 -4q35 -8 61 -28q14 -10 25.5 -21.5t25.5 -21.5q4 -4 8 -8.5t11 -10.5q6 4 12 6t14 7q29 16 72 32.5t92 20.5q16 2 20.5 2h8.5h6q25 0 51 -8q41 -12 64 -56q8 -16 22 -41h26.5h28.5 q35 -2 77 -16t77 -39q39 -27 61 -59q20 -31 21 -68v-4v-12q2 -6 2 -8q10 -8 21.5 -7.5t23.5 2.5q16 2 33 3q33 0 61 -9q45 -12 88 -37q72 -39 144.5 -76.5t146.5 -70.5q35 -14 70 -20.5t69 -12.5q33 -6 68 -8h10q27 0 56 12q43 18 65.5 46t32.5 73q4 20 -3 36.5t-22.5 30 t-34 20.5t-34.5 9h-7q-16 2 -34 -6q-25 -8 -39 -24q-16 -16 -15.5 -34t25.5 -36q17 -10 27 -4zM825 319q41 -45 99 -59q14 -2 28.5 -2h28.5q18 2 27.5 17.5t3.5 31.5q-6 18 -16.5 31.5t-32.5 15.5q-18 2 -36 3t-34 -3q-33 -6 -64 -24zM1157 590q-6 -20 -4 -39v-6 q-2 -16 6 -37q16 -41 47 -57q6 -4 14.5 -6.5t16.5 -2.5q12 -2 20.5 6.5t8.5 18.5q-2 18 -7.5 35.5t-19.5 27.5q-18 14 -38.5 29t-43.5 31zM2114 422q-6 -2 -10.5 -2t-8.5 -2q-25 -16 -43 -37t-37 -43q-6 -8 -10 -20.5t-8 -24.5q-2 -8 3 -14.5t15 -6.5q91 56 99 150z M1499 655q-6 -8 -10 -13t-6 -11q-6 -16 -9.5 -32.5t-7.5 -31.5q-6 -18 -2 -33.5t11 -31.5q6 -12 19 -12.5t19 10.5q16 25 17 49q0 6 -2 14q-4 18 -8 36.5t-9 37.5q-2 4 -5 8t-7 10zM1817 639q-4 4 -7 2q-31 -14 -49 -39q-16 -20 -32 -49q-4 -8 -4.5 -18.5t-0.5 -20.5 q0 -6 7.5 -9t11.5 1q23 18 42 37.5t25 50.5q2 12 7.5 22.5t-0.5 22.5z" />
<glyph unicode="3" horiz-adv-x="1961" d="M1417 422q51 -41 111 -49q29 -4 53 -4h18q25 0 50 2q37 4 73.5 11t69.5 22.5t60.5 40t41.5 63.5q12 35 15 74v6q-2 41 -23 80q-10 16 -27.5 33.5t-38 27.5t-42 10t-41.5 -16q-10 -8 -17.5 -23.5t-8.5 -31t6 -28.5t22 -22q6 -4 13 2.5t15.5 10.5t15.5 5t17 -7 q10 -12 7 -21.5t-13 -14.5t-22.5 -7t-20.5 0q-27 4 -46 18t-26 41q-4 12 -4 25q0 14 6 28q10 25 32 40.5t46 21.5q10 2 27 4q12 0 24 -4q59 -20 88 -55q31 -41 31 -91q0 -68 -22.5 -119t-61.5 -87.5t-93 -60t-116 -36.5q-25 -6 -55 -6h-22h-35q-29 2 -57.5 8t-51.5 19 q-14 6 -28.5 10t-28.5 10q-20 -8 -34.5 -20.5t-29.5 -26.5q-37 -35 -85 -55.5t-101 -28.5q-53 -10 -107 -10h-16q-45 0 -84 4q-55 2 -108.5 15.5t-92.5 50.5q-6 6 -14 11t-14 7t-12.5 -1t-12.5 -5q-88 -41 -182 -60q-74 -14 -150 -14h-18h-25q-31 2 -59.5 5t-56.5 16 q-27 12 -49.5 31.5t-32.5 45.5q-8 20 -8 43v11q2 27 14 52.5t32.5 47t45.5 35.5q18 12 43 18q16 6 32 4h13q25 -2 45 -15t31 -34q6 -12 4 -24q0 -10 -2 -21q-8 -25 -31 -35q-2 14 5 28.5t5 29.5q-4 23 -24 32q-16 8 -31 9q-6 0 -12 -2q-39 -6 -65 -36t-34 -67q-2 -12 -2 -28 q0 -18 4 -37q8 -31 33 -54t56.5 -28.5t64.5 -5.5h14q172 0 332 65q2 2 5 3t5 5t1 9.5t-1 9.5q-8 35 -10 67v9q2 39 20 73q8 16 22.5 31.5t31 25t35 13.5t38.5 2t37 -13.5t27 -27.5t14 -35.5t-2 -38.5q-8 -29 -33.5 -46t-52.5 -32q-12 -6 -23.5 -12t-17.5 -16 q-12 -20 -4 -34.5t27.5 -25t46 -17.5t54.5 -12t49.5 -7.5t31.5 -2.5q31 -2 61 -2h33q49 2 97.5 11.5t91.5 31t73 58.5q6 8 14.5 14t20.5 16q-6 6 -11 9.5t-9 7.5q-61 63 -106.5 135t-59.5 160q-2 14 -2 28q0 29 10 56q16 39 46 64.5t71 33.5q10 2 22 0q31 0 60 -14 q59 -27 84 -88q14 -39 21 -78t7 -78v-8q0 -35 -10 -66q-12 -37 -22 -69q-2 -6 -6.5 -14.5t-8.5 -18.5zM1397 434q14 29 21 54.5t14 52.5q6 20 8 41v12q0 16 -4 33q-2 12 -3 24.5t-3 26.5q-6 39 -21.5 71.5t-44.5 59.5q-27 25 -59 25h-7q-12 0 -22 -3q-41 -10 -70 -40 q-25 -27 -24 -64v-6q4 -45 18 -85t47 -71q18 -18 38 -36.5t38 -36.5q16 -14 35 -28t39 -30zM715 344q43 16 76 37q29 18 43 49q8 16 7 31.5t-7 34.5q-4 10 -12.5 17t-18.5 9q-12 4 -24.5 -1t-24 -13t-20.5 -19.5t-15 -21.5q-2 -2 -6 -23.5t-8 -44.5q-2 -16 -5 -28v-15 q3 -18 15 -12z" />
<glyph unicode="4" horiz-adv-x="2713" d="M2177 238v-2q-16 20 -41 27t-48.5 3t-44 -19.5t-28.5 -39.5q-8 -20 -8 -43q0 -12 4 -25q8 -37 29 -63q23 -27 51.5 -42.5t60.5 -25.5q39 -10 80 -10q29 0 54 4q66 12 121 49t92.5 95.5t44.5 136.5q2 16 2 30q-2 51 -19 97q-20 57 -59 99t-90 72.5t-107 53.5 q-203 78 -416 92q-88 6 -174 6q-125 0 -249 -12q-43 -4 -130.5 -20.5t-200 -37t-241.5 -40t-256 -27.5q-78 -4 -153 -4q-45 2 -91 2q-119 4 -206.5 34.5t-137.5 90.5q-45 53 -45 135v20q4 59 41 103.5t84 73.5q119 74 258 79h17q35 0 67 -6q41 -8 76 -30q35 -20 57 -62 q18 -33 19 -71v-15q-2 -18 -12.5 -39.5t-25.5 -39t-33.5 -25.5t-39.5 2q-12 6 -17 22.5t5 26.5q8 10 20.5 9t24.5 1q18 2 28.5 15.5t14.5 30t0 34.5t-12 33q-16 25 -42 32t-55 9q-33 0 -81 -7.5t-99 -22.5t-97 -39.5t-75 -57.5q-29 -35 -28 -80q0 -43 38 -92 q35 -47 85.5 -68.5t103.5 -32.5q111 -23 219 -22l72 4q145 8 291.5 33.5t294 55.5t294.5 44q88 8 176 8l234 -14q205 -25 403 -90q66 -23 129.5 -52.5t116.5 -76.5t88 -113.5t35 -142.5q0 -78 -41 -142.5t-106 -111.5q-66 -45 -144 -70q-66 -20 -131 -20h-22 q-76 4 -139.5 40t-96.5 107q-18 35 -18 76q2 6 2 14q4 49 24 88q23 41 62 64.5t82 25.5q25 0 48 -9t36 -31q14 -23 6 -51.5t-31 -32.5z" />
<glyph unicode="5" horiz-adv-x="2414" d="M1542 354q4 10 3 19.5t-3 19.5q-8 43 -8 86q2 12 2 25q4 57 23 110q10 31 27.5 59.5t43.5 45.5q27 18 60 18h4q35 0 57 -24q25 -25 25 -62q0 -39 -15 -82q-39 -106 -112 -186q-8 -8 -13.5 -15.5t-9.5 -17.5t0 -20.5t8 -20.5q35 -63 102.5 -89.5t137.5 -37.5 q66 -10 131 -10q2 0 4 -2q63 0 119 33q41 23 69.5 58.5t49.5 76.5q25 57 24 119q0 55 -39 90q-31 27 -73 26h-13q-49 -4 -88 -34q-18 -16 -31.5 -37t-15.5 -43q-2 -25 10.5 -46.5t34.5 -29.5q23 -6 45.5 9.5t20.5 37.5q14 -29 -7.5 -57.5t-52.5 -28.5q-33 0 -56.5 24.5 t-27.5 55.5q-4 33 7.5 62.5t31.5 54.5q43 45 101 65q31 10 63 12q27 0 53 -8q59 -16 97 -69q33 -47 32 -99v-12q-4 -45 -28.5 -84t-57.5 -70q-70 -63 -159 -98q-84 -33 -172 -33h-11q-96 2 -184 39t-154 103q-10 10 -20 18t-23 10q-10 0 -18 -3t-18 -7q-55 -27 -117 -37 q-27 -4 -53 -4q-33 0 -66 6q-59 12 -110.5 49t-73.5 93q-41 -51 -100.5 -80t-125.5 -33q-14 -2 -26 -2q-51 0 -101 14q-63 18 -110 64q2 -4 -21.5 -21.5t-55.5 -38t-58 -39.5q-25 -14 -35 -20q-31 -18 -109 -39q-61 -18 -127 -22h-26q-51 0 -99 12q-59 16 -98 63 q-35 43 -35 101v20q8 68 49 121q27 35 70 57q35 18 74 19h8h8q45 -4 84 -32t51 -73q4 -14 4 -26q0 -31 -16 -60q-23 -45 -67 -55q-14 -4 -30 -1t-27 11t-17 20.5t-2 26.5q12 -16 32.5 -21t41 0t37 18.5t22.5 33.5q4 12 4 25q0 29 -21 53q-29 37 -69 45q-10 2 -23 2 q-29 0 -57 -16q-39 -23 -61 -58q-29 -41 -29 -93t29 -93q20 -29 49 -45q33 -16 65 -23q23 -4 51 -4h19q37 2 69 10q72 16 137.5 47t123.5 76q18 14 22 27q4 16 -5 30.5t-19 26.5q-41 47 -60 109q-12 41 -12 82q0 23 4 43q6 70 51 114q23 23 56.5 31t62.5 -4q39 -16 55.5 -57 t18.5 -82v-23q0 -43 -13 -88q-16 -55 -43 -102q-6 -10 -12 -20.5t-8 -22.5q-2 -23 13.5 -39t33.5 -27q61 -35 133 -35h23q86 6 147 58q41 31 53 74q4 16 2 34.5t-4 36.5q-10 63 -10 142v14q0 72 12 145q12 80 37 154t70 125q20 23 49 35t57 6q29 -6 50.5 -29.5t29.5 -52.5 q10 -29 8 -59.5t-6 -59.5q-20 -123 -71.5 -233.5t-126.5 -206.5q-20 -20 -27 -43q-8 -27 6 -60q20 -47 64.5 -75.5t95.5 -34.5q12 -2 24 -2q39 0 76 10q49 12 99 35q18 8 26 22zM1139 498q31 33 54.5 61.5t39.5 61.5q25 47 46 95t38 99q10 33 19.5 64.5t13.5 66.5 q4 25 3 51.5t-3 53.5q-2 16 -13 32q-14 27 -45 17q-43 -12 -67 -53q-27 -37 -39 -79t-17 -87q-6 -63 -14 -125t-18 -125q-8 -37 -8 -67.5t10 -65.5zM651 449q6 4 10.5 5t4.5 5q23 35 39 69q14 31 22 76q4 23 4 43q0 25 -4 45q-8 41 -37 78q-16 23 -39.5 20.5t-38.5 -24.5 q-4 -12 -6 -16q-14 -35 -14 -70q0 -37 8 -82q6 -39 15 -76.5t36 -72.5zM1608 387q10 10 20 15.5t14 13.5q20 29 39 57.5t35 61.5q10 23 16.5 46t10.5 48q4 14 3 28.5t-11 26.5q-31 6 -52.5 -7t-35.5 -38q-20 -37 -36 -76t-20 -84q-2 -8 -2 -18q1 -35 19 -74zM1182 1047 q0 -4 2 -7l6 7q-2 2 -2 4q-4 -4 -6 -4zM1128 811q-2 0 -2 4l-2 -4q0 -2 2 -4q0 2 1 2t1 2z" />
<glyph unicode="6" horiz-adv-x="2275" d="M1745 782q23 -18 26 -51t-2 -61q-18 -131 -90 -240q-12 -16 -22 -34.5t-12 -41.5q0 -16 6 -31.5t16 -29.5q37 -53 96.5 -78t122.5 -29q16 -2 35 -2l68 6q51 8 90 39q43 33 55 86q4 16 4 33q0 35 -20 62q-16 23 -47 27.5t-43 -19.5q-10 -23 8 -44.5t41 -35.5 q-29 -10 -54.5 8.5t-29.5 46.5q-4 29 14 53.5t47 34.5q29 8 56.5 1t50.5 -25t36 -44t16 -54.5t-3 -56.5t-25 -50q-29 -37 -75 -54.5t-93 -25.5q-45 -6 -94 -6h-22q-61 2 -116.5 17.5t-104 46t-78.5 79.5q-53 -37 -107.5 -69.5t-118.5 -42.5q-18 -4 -39 -4q-43 0 -86 16 q-63 23 -92 80q-43 -57 -119 -84q-41 -14 -79 -15h-11q-29 0 -55 7q-72 16 -129 68t-76 124q2 -12 -16.5 -32.5t-44 -42t-50 -39t-32.5 -23.5q-92 -59 -207 -78q-33 -4 -74 -4h-28q-57 2 -106.5 20.5t-82.5 55.5q-27 31 -26 82v20q6 55 53 94q39 33 84 33q10 0 20 -2 q33 -6 57.5 -29.5t24.5 -56.5q0 -31 -28.5 -53.5t-57.5 -11.5q14 6 26.5 12t22.5 16q14 14 13.5 30.5t-11 29t-27 19.5t-32.5 5q-41 -4 -68 -41q-23 -31 -22 -65q0 -8 2 -15q6 -43 36.5 -74.5t71.5 -45.5q37 -12 72 -13h10q41 2 84 13q156 39 267 155q10 12 20 25.5t12 29.5 q4 12 2 25.5t-6 26.5q-18 66 -31 129q-8 43 -8 88q0 20 2 41q6 66 41 125t97 82q27 10 55.5 8t48.5 -21q14 -12 20.5 -29.5t10.5 -33.5q4 -25 4 -47.5t-4 -46.5q-8 -45 -26.5 -89.5t-43 -87.5t-51.5 -81q-10 -16 -17.5 -32t-11.5 -32q-6 -27 4 -55q14 -55 55.5 -97.5 t96.5 -58.5q29 -8 57 -8q27 0 56 8q57 16 100 55q14 14 25.5 32t11.5 40q2 14 -3 27.5t-10 27.5q-39 106 -55 228q-4 29 -4 59v21q0 78 23 153q10 35 26.5 66.5t44.5 54.5q29 23 66 27q8 0 16 2q29 0 53 -17q16 -10 26.5 -24.5t18.5 -30.5q27 -55 27 -117q0 -66 -16 -131 q-31 -127 -101 -248q-18 -29 -34 -59q-12 -25 -13 -51v-15q4 -47 47 -75q41 -29 86 -29h7q47 2 90 23.5t84 48.5q20 12 37.5 27.5t25.5 37.5q6 16 6 34.5t-2 35.5q-6 49 -6 98v17q0 57 10 112q4 31 11.5 61.5t27.5 53.5q20 25 52 33t59 -9zM1190 391q41 66 74.5 129.5 t54.5 132.5q2 8 3 14.5t1 14.5q4 16 7 34.5t7 35.5q10 31 11 61q0 23 -7 43q-12 49 -41 98q-20 29 -50.5 30t-51.5 -28q-10 -12 -16 -32q-4 -16 -6 -31.5t-2 -32.5q-10 -133 -13 -264q0 -43 4 -86t9 -86q2 -8 16 -33zM717 475q31 20 55.5 55t41.5 76t28.5 84t17.5 78 q4 25 2 49.5t-12 46.5q-10 23 -33.5 34t-46.5 1q-16 -8 -25.5 -23.5t-15.5 -31.5q-10 -31 -13 -62.5t-5 -62.5q-2 -59 -6 -125q0 -10 -3 -21q1 -53 15 -98zM1724 756q-35 -6 -49 -45q-8 -18 -15 -38t-13 -40q-16 -47 -25 -96q-4 -23 -2 -48q0 -27 4 -53q0 -4 3 -8t7 -12 q8 10 14.5 17t10.5 16q14 25 26.5 51t26.5 53q20 35 25.5 74t11.5 78q4 33 -25 51zM1102 670l2 -2v4zM2179 360h4q2 2 1 3.5t1 3.5q-4 0 -5 -1t-3 -1z" />
<glyph unicode="7" horiz-adv-x="3151" d="M821 606q2 18 5 35.5t8 36.5q4 29 20 51.5t41 38.5t53.5 26.5t55.5 14.5q41 8 83 8h21q55 -2 102 -24q31 -14 62 -28.5t61 -29.5q18 2 25.5 12.5t17.5 22.5q25 27 54.5 43t62.5 29q39 14 76 14q20 0 37 -4q55 -10 104 -45q25 -16 46.5 -32.5t45.5 -35.5q18 10 37 20.5 t37 20.5q57 33 119 33q25 0 51 -6q57 -12 88 -55q14 -23 26.5 -44.5t26.5 -45.5q14 -6 31.5 -5.5t34.5 2.5q12 2 22 3q25 0 43 -5q31 -6 66 -16q47 -16 91 -38.5t87 -47.5q39 -23 84 -40t92 -30q49 -10 94 -12q25 -2 33 -2q31 0 60 4q16 2 31.5 6t27.5 13q16 10 27.5 28.5 t18.5 40t9 43t0 39.5q-6 45 -35 62q-20 12 -43 12q-14 0 -30 -4q-29 -8 -45 -27q-12 -14 -13 -31q0 -8 2 -14q8 -23 37 -31q12 -4 25.5 -5t25.5 -1q-14 -4 -29.5 -6t-30.5 -2t-28.5 4t-23.5 14q-14 16 -14.5 41t14.5 43q12 20 35.5 31.5t49 17t52.5 5.5q31 0 49 -4 q29 -8 47 -25q20 -16 28.5 -36.5t8.5 -43.5q0 -27 -12 -53q-23 -49 -63 -83t-89 -50q-39 -12 -75 -15q-8 0 -17 2q-43 4 -92 11q-41 6 -79 12t-77 20.5t-73.5 33t-69.5 37t-71 35.5t-76 28q-25 6 -37.5 11t-25.5 5t-28.5 -3t-42.5 -9q-2 -10 -3 -19.5t-1 -19.5 q0 -49 -35 -88q-27 -27 -54 -51.5t-62 -40.5q-20 -10 -43 -11h-8q-27 2 -48.5 15.5t-29.5 36.5q-2 8 -2 14q0 16 10 37q10 23 32.5 43t48 37.5t53.5 32t50 26.5l10 10q-2 10 -3 21.5t-3 21.5q-12 35 -36.5 56.5t-55.5 29.5q-20 6 -43 6q-10 0 -22 -2q-35 -4 -64 -20 q-6 -4 -13 -8t-16 -6q-25 -12 -34 -30t-11 -36t0 -41q2 -8 0 -18v-25q-4 -31 -14 -65.5t-26.5 -64.5t-41 -50.5t-59.5 -22.5q-23 -2 -38 6.5t-23.5 21.5t-10.5 29.5t0 32.5q2 6 3.5 12.5t5.5 12.5q10 16 19 31.5t18.5 32t20.5 32t26 25.5q6 6 11 12t11 12q4 6 -4 25.5 t-20.5 41t-24.5 42t-16 27.5q-27 31 -64 38q-18 4 -35 7q-20 0 -41 -7q-39 -8 -72.5 -31.5t-52.5 -54.5q-8 -14 -8 -23t10 -20l5 -4q57 -55 65 -121q2 -14 2 -30q0 -51 -20 -105q-6 -20 -20.5 -34.5t-32 -22.5t-37 -7t-37.5 15q-20 16 -30.5 43t-10.5 58v6q0 27 6 53 q6 29 14 49q12 31 19.5 47.5t3.5 27.5t-18.5 20.5t-39.5 25.5q-31 20 -66.5 37.5t-72.5 25.5q-33 8 -67 9h-9q-39 -2 -77 -17q-31 -12 -48.5 -33.5t-27.5 -50.5q-8 -23 -8 -43q0 -16 6 -33q12 0 23.5 -1t23.5 1h6q45 -2 86 -20q41 -20 74 -53q12 -12 21 -30.5t12.5 -37 t-1 -38t-16.5 -36.5q-14 -16 -35 -22q-14 -6 -28 -6h-11q-33 2 -64.5 22.5t-58 48t-47 59.5t-30.5 60q-2 2 -4.5 4t-4.5 6q-10 2 -20 2t-23 -2q-20 -2 -43 -12q-84 -31 -163.5 -65.5t-163.5 -67.5q-35 -14 -69 -23.5t-68 -19.5q-25 -8 -58 -8q-2 2 -6 2q-35 0 -70.5 8 t-66.5 23.5t-51 38.5q-35 37 -35 73q0 39 24.5 69t63.5 40q16 6 35 6q25 0 49 -10q14 -6 26.5 -13.5t18.5 -23.5q8 -12 7 -27.5t-11 -25.5q-2 -2 -4 -5q-8 -2 -8 9q-2 4 -1 7t1 5q2 16 -9.5 28.5t-27.5 16.5q-8 2 -17 4q-16 0 -30 -8q-25 -10 -37 -33q-10 -20 -11 -43 q0 -29 15 -53q25 -37 65 -49q39 -12 80 -15h4q45 0 90 12.5t78 24.5q57 23 113.5 47.5t111.5 49.5q8 4 42 13t69 20.5t63.5 21.5t28.5 16zM891 580q2 -8 2 -12.5t2 -6.5q14 -27 29.5 -53.5t29.5 -52.5q12 -18 27.5 -31.5t38.5 -20.5q14 -4 28.5 -7t28.5 10q12 12 11 28.5 t-3 32.5v4h-2q-20 59 -73 90q-39 23 -84 23q-19 -2 -35 -4zM1339 641q-35 -45 -39 -94q-2 -12 0 -29q0 -35 7 -72q2 -8 6 -15t8 -13q12 -18 33 -19h6q25 2 35 27q14 33 14 66v8q0 16 -2 28q-10 47 -41 93q-6 6 -13.5 10t-13.5 10zM2105 600q-6 0 -9 1t-5 1q-6 0 -10 -4 q-41 -16 -73 -46t-58 -67q-8 -12 -8 -24q0 -6 2 -15q8 -18 36 -22q6 -2 11 -2h4h4q18 0 37 12q27 16 37 45q10 25 17 50.5t15 50.5q2 6 1 10t-1 10zM1724 612q-6 0 -9 1t-7 -1q-31 -27 -51.5 -59.5t-28.5 -75.5q-2 -2 0 -10q2 -14 6 -25.5t15.5 -19.5t23.5 -8q10 0 21 6 q12 25 23.5 47t15.5 47q4 18 4 37v10q-1 24 -13 51zM2152 575l2 3l-2 2v-5z" />
<glyph unicode="A" horiz-adv-x="3569" d="M1503 864q0 27 -16 51q-12 20 -41 23q-6 0 -12 -2q-35 -6 -55.5 -25.5t-28.5 -48.5q-8 -27 -11 -53v-4q0 -31 11 -57q4 -12 14 -14.5t21.5 1.5t22.5 9.5t17 9.5q25 12 43.5 28.5t26.5 42.5q8 21 8 39zM1266 719q2 2 2 10v18.5t-1 19.5t-1 11q2 27 7 50.5t19 45.5 q25 35 62 58.5t78 25.5h6q25 0 43 -10q20 -12 31.5 -32.5t15.5 -45.5q2 -6 0 -10q0 -18 -6 -37q-8 -25 -25.5 -44t-40.5 -31q-14 -8 -28.5 -15.5t-30.5 -11.5q-6 -2 -12.5 -4t-10.5 -8l8 -17q55 -49 130 -77.5t147 -39.5q29 -6 56.5 -6h56.5q178 2 342 41q90 23 177 45.5 t177 36.5q35 6 69 8q14 2 29 0l39 -2q45 -4 93 -19t90 -43t73 -66t43 -85q6 -27 6 -53q0 -33 -10 -67q-18 -59 -57 -109q-23 -31 -49.5 -54.5t-61.5 -31.5q-16 -4 -34.5 -3t-35 7t-30 18.5t-20.5 28t-7 31.5q0 10 4 20q8 27 27 47q16 16 43 19q4 2 6 2q18 0 33 -16 q10 -12 2 -19.5t-19 -9.5q-6 -2 -12 2t-14 2q-18 -6 -27 -29q-2 -8 -2 -14q0 -16 8 -31q12 -25 37 -32q12 -4 23.5 -3.5t23.5 3.5q25 8 43 24t29.5 39t17.5 47q12 43 15 90q0 43 -10.5 88t-35 83t-61.5 65q-14 10 -29.5 16t-31.5 12q-63 23 -131 23h-17q-76 -2 -151 -21 q-90 -20 -178.5 -44.5t-180.5 -41.5q-98 -18 -194 -26q-49 -4 -98.5 -4t-98.5 4q-55 6 -104 14t-103 29q-39 14 -70.5 32.5t-56.5 51.5q-4 4 -4 8q-8 12 -26 12h-48q-20 0 -40.5 -1t-40.5 1h-21q-35 0 -65 -2q-41 -4 -86 -8q-2 0 -15 -2l-133 -31q-43 -10 -79 -36.5 t-58 -63.5q-6 12 -1 24.5t11 22.5q16 18 37.5 31.5t44.5 23.5q57 25 115.5 37t119 17.5t122 6.5t120.5 1q6 0 10.5 1t10.5 3z" />
<glyph unicode="B" horiz-adv-x="841" d="M645 893q25 -53 86 -180q43 -88 74 -187q20 -68 31 -139q6 -47 6 -96q-2 -25 -2 -47q-4 -72 -25.5 -138.5t-64.5 -121.5q-61 -80 -153.5 -132.5t-190.5 -56.5h-11q-43 0 -82 12q-45 12 -82.5 40t-67.5 64t-46 79q-20 51 -23 106v23q0 45 8 88q12 53 38 104t61 95 q27 33 60.5 61.5t72.5 44.5t80 20h12q35 0 70 -14q31 -12 53 -38.5t35.5 -58.5t15.5 -71q-2 -33 -14 -61q-12 -25 -30.5 -44.5t-47.5 -23.5h-8q-20 0 -43 15q-23 16 -23 38q0 18 10.5 28.5t22.5 15t24.5 1t20.5 -13.5q-6 -27 -31 -41q0 -10 13 -10q8 -2 18 4q23 12 37 37 q12 25 12 53v8q0 25 -8 50q-10 29 -31 45q-20 18 -48 27t-56.5 9t-57 -8t-49.5 -24q-47 -33 -74.5 -84.5t-41.5 -108.5q-12 -55 -12.5 -111.5t7.5 -113.5q6 -37 18.5 -74t35.5 -65q31 -39 80 -60q45 -18 88 -18h8q51 2 96 20q43 18 86 49q55 41 98 107q41 59 56 133 q10 53 10 104v31q-4 66 -18 133q-12 61 -27.5 122t-38.5 122q-29 84 -69 165t-76 165q-25 53 -37 121q-10 47 -11 92q0 20 5 41q6 66 36.5 119t96.5 81q20 8 43 9q12 0 26 -4q33 -8 58 -33q18 -18 34.5 -46t20.5 -57q4 -20 -5 -35.5t-21.5 -22.5t-22.5 -4t-10 23 q0 10 3 19.5t5 19.5q4 29 -10.5 48.5t-37 28.5t-49 7t-45.5 -14q-20 -12 -30 -25q-37 -45 -47 -112q-2 -12 -2 -25v-10v-8q0 -33 12 -72q16 -61 45 -113q28 -55 51 -106z" />
<glyph unicode="C" horiz-adv-x="1339" d="M1262 57q12 -4 20 -11t12 -13q14 -25 15 -45q0 -12 -4 -21q-12 -27 -42 -44t-67 -25.5t-63 -10.5q-18 -2 -35 -2l-103 13q-70 20 -121 65q-53 47 -86.5 113.5t-58.5 132.5q-8 16 -15 32.5t-20 28.5q-16 14 -38.5 19.5t-45.5 9.5q-78 16 -152.5 54t-135 93.5t-99.5 125 t-47 149.5q-2 20 -2 43q0 25 4 49q6 45 33 84q29 37 72 57q27 12 53 13l35 -4q20 -6 37.5 -22.5t19.5 -39.5q0 -20 -18.5 -37.5t-40.5 -5.5q-8 4 -12.5 12.5t-12.5 16.5q-16 16 -41 16q-10 0 -20 -2q-37 -8 -56 -37q-20 -27 -22 -61v-21q0 -25 4 -49q14 -80 57 -150.5 t104.5 -123.5t137.5 -86t158 -33q-4 41 -4 80q0 70 14 133q25 104 82 197q23 35 51.5 65.5t67.5 48.5q37 20 77 23h13q35 0 67 -15q37 -20 58.5 -56t27.5 -77q4 -18 2 -34q2 -23 -4 -46q-10 -39 -28 -79q-39 -86 -105.5 -150.5t-157.5 -97.5q-29 -8 -43 -25q-4 -4 -6 -10 q-6 -20 0 -45q14 -53 44 -105.5t69 -94.5t88 -73.5t104 -41.5q16 -4 38 -6.5t42.5 2t34.5 14.5t21 33q2 10 2 25t2 28.5t10.5 21.5t28.5 2zM836 702q-27 -70 -50 -165q-10 -45 -10 -93v-16q0 -31 2 -63q0 -4 12.5 -2t26.5 6t27.5 8t15.5 4q88 37 146.5 115.5t74.5 171.5 q4 18 4 37q0 12 -2 24q-4 29 -18 57q-20 37 -55 50q-12 4 -27 4q-23 0 -47 -15q-35 -20 -60.5 -53t-39.5 -70z" />
<glyph unicode="D" horiz-adv-x="1691" d="M735 297v12q0 31 -12 67t-41 54q-18 10 -33.5 5t-26 -17t-15.5 -29.5t-1 -34.5q6 -45 28.5 -87t55.5 -74q12 -12 20.5 -3t14.5 28.5t8 42t2 36.5zM715 68q-4 -2 -6 -2t0 -3q-20 -12 -37 -27.5t-37 -29.5q-35 -25 -76 -33q-27 -4 -55 -4q-16 0 -33 2q-45 4 -87 19.5 t-73 40.5q-25 20 -43 53t-26 68q-2 12 0 24q2 23 8 45q10 33 43 51q10 4 26.5 7.5t31 -1t26.5 -12.5t12 -24q0 -4 -1 -13.5t-5 -17.5t-10 -13t-13 -5q-12 4 -16 13t-20 5q-14 -4 -20.5 -15.5t-8.5 -27.5t1 -32.5t7 -24.5q18 -53 64.5 -78t99.5 -29h12q49 0 94 25 q49 27 86 67q4 6 8.5 13.5t4.5 15.5q0 10 -5 17.5t-10 15.5q-29 35 -54 71.5t-36 79.5q-4 20 -6 41q0 23 8 47q12 45 49 70q23 12 50 12h8q29 -4 54.5 -18.5t45 -38t27.5 -51.5q6 -25 6 -47q0 -35 -12 -70q-20 -59 -56 -109q47 -51 114 -74.5t138 -25.5h21q57 0 116 12 q70 16 132 45q39 18 76.5 38t70.5 46q61 53 94 128t45 159q6 43 6 86q0 61 -12 125q-20 104 -84 188q-31 43 -73 77t-89 54.5t-100 26.5q-23 4 -45 4q-29 0 -57 -6q-33 -6 -63 -18.5t-52 -34.5q-59 -55 -59 -133q0 -39 18 -76q18 -33 47 -49q12 -8 30.5 -12.5t37 -2t33 11.5 t16.5 27q4 4 -2 11q-4 4 -9.5 4t-11.5 2q-12 4 -15 10t1 14.5t12 16.5t15 10q14 6 36.5 5t30.5 -17.5t8 -32.5q0 -10 -4 -21q-10 -25 -32.5 -43t-53.5 -28q-25 -8 -45 -8h-6q-33 2 -60.5 16t-48 37.5t-33 52.5t-12.5 61q0 70 45.5 128.5t106.5 91.5q53 29 111 39q37 6 77 6 q23 0 43 -2q59 -6 115.5 -28t104.5 -58q47 -37 82.5 -84t60.5 -103q23 -55 33 -114q8 -49 8 -91v-28q-6 -123 -63.5 -229.5t-147.5 -184.5q-84 -70 -184 -113q-119 -47 -246 -49q-25 0 -51 2q-37 4 -74 9.5t-76 19.5q-29 8 -51 20q-12 8 -27 9q-12 0 -24 -4z" />
<glyph unicode="E" horiz-adv-x="4896" d="M2040 598q-274 -78 -457 -80q-229 2 -422 121q-6 4 -13 8t-11 8t-9.5 11.5t-11.5 19.5q-12 20 -19 18t-18 -12q-10 -8 -25.5 -14t-58.5 -31q-20 -12 -50 -26.5t-71 -26.5q-78 -27 -126 -29q-10 -2 -19.5 -1t-17.5 1q-47 0 -76 13q-37 20 -39 53q78 -23 152 -25 q90 0 184 33q100 35 112 123q2 14 3 29v28v19v24q0 147 86 164q8 2 20 2q29 0 41 -16q16 -20 17 -42t-5 -45.5t-17 -48t-18 -51.5q-2 -6 -2 -22q0 -53 50 -101q57 -61 143 -90q141 -51 295 -51h37q86 0 165.5 20.5t157.5 55.5q-61 133 -61 237q0 68 20 121q16 43 51 77 t76 54q41 18 82 19q49 -4 90 -29q55 -37 70 -112q4 -25 4 -50q0 -49 -18 -94q-29 -66 -82.5 -115t-112.5 -88q43 -74 148 -108q63 -20 163 -21q160 0 398 56q94 20 182 45q47 12 182 45q113 27 203 43q92 16 168 20q39 2 57 2h56q260 0 405 -98q74 -53 98 -119 q12 -35 13 -71q0 -113 -115 -230q-45 -47 -90 -72.5t-88 -25.5h-10q-39 0 -76 20q-41 20 -49 62q-4 16 -4 24q0 23 10 41q16 29 37 37q35 12 51 12q8 0 14 -2q18 -8 15 -25.5t-15 -27.5q-4 12 -12 16.5t-18.5 2.5t-21.5 -8.5t-17 -16.5q-12 -16 -4 -38.5t26 -39.5 q25 -20 55 -20h9q14 0 32 4q53 14 96.5 59t63.5 107q10 31 10 61v8q0 29 -6 47q-29 98 -102 166q-127 109 -314 109h-23t-24 -2q-94 -6 -212.5 -29.5t-266.5 -62.5q-295 -78 -459 -113q-84 -18 -148.5 -28.5t-109.5 -12.5q-23 -2 -46 -3t-44 -1q-102 0 -170 20 q-98 27 -143 109zM2021 885v-19q0 -43 12.5 -84t41.5 -75q23 -31 47 -31q4 0 14 4q12 4 21 10q59 37 98 94q37 59 47 117q4 29 6 49q0 86 -55 135q-29 23 -72 31q-8 2 -20 2q-31 0 -56 -12q-57 -27 -71 -88q-12 -51 -13 -103q0 -8 -1 -15t1 -15zM1169 897q4 16 5 35 q0 14 -3 18q0 29 -18 41q-18 8 -31 -4q-23 -20 -22 -55q0 -20 8 -49q2 -4 6 -19.5t9 -33t10.5 -31t9.5 -15.5q6 -2 10 21q4 16 5 35.5t11 56.5z" />
<glyph unicode="F" horiz-adv-x="4667" d="M3148 676q4 0 4 1t4 3q18 20 20 51v14q0 20 -6 43q-4 12 -9 11.5t-12 -4.5t-12.5 -13.5t-5.5 -15.5q-4 -20 -2 -43t11 -41q2 -4 4 -6h4zM1933 735q6 -8 20.5 -12t31 -5t31 -1h24.5q63 0 134 11t138.5 35.5t128 62.5t101.5 89q25 29 41 67t22 75q2 12 2 26q0 25 -8 50 q-10 37 -33 69q-29 35 -65 51q-37 14 -74 19q-10 0 -21 2q-31 0 -61 -8q-41 -8 -80 -21q-80 -29 -148.5 -78t-115.5 -123q-47 -72 -72 -155q-4 -18 -9 -38t-7 -40t3 -40t17 -36zM1948 684h-11q94 -125 234 -203q139 -80 295 -98q43 -4 90 -4h9h9q94 0 199 31q152 45 276 143 q10 8 18.5 17.5t12.5 23.5q6 18 0 36.5t-10 37.5q-4 20 -4 38.5t4 36.5q8 39 33 70q10 12 22.5 19.5t24.5 9.5q16 2 29.5 -6.5t21.5 -22.5t11 -32.5t1 -35.5q-4 -33 -18 -63.5t-17 -63.5v-12q0 -29 11 -51q14 -29 38.5 -52.5t54.5 -40t60 -24.5q74 -27 149 -33t154 -6 q94 0 191.5 11.5t188.5 38t176 72.5t155 114q37 37 63.5 80t43.5 92q18 47 20 100q2 12 0 29q0 37 -8 76q-20 94 -87 160.5t-151 101.5q-53 23 -112 33q-35 4 -68 6q-25 0 -49 -4q-43 -4 -86 -19.5t-78 -40.5q-35 -23 -57 -59q-25 -39 -25 -86q0 -53 35 -94q37 -45 94 -56 q8 -2 19 0q29 0 57 13q8 2 16 8q6 6 9 18q0 12 -9 25q-4 8 -6 17l-4 18q-4 12 -2 32q4 8 8 8.5t13 0.5q8 0 16 -1t16 -8q14 -10 23 -22q4 -8 8 -19.5t4 -21.5t-7 -18.5t-13 -16.5q-4 -4 -9.5 -8t-13.5 -8l-33 -21q-18 -10 -37 -14q-29 -10 -57 -10l-4 2q-33 0 -61 16 q-35 20 -57.5 52t-32.5 69q-6 29 -7 59v19q4 41 19 80q33 74 102.5 116.5t149.5 57.5q39 6 78 6l120 -17q100 -29 181 -96q78 -70 118 -164q37 -86 37 -178v-20q-4 -66 -24.5 -127.5t-55 -116.5t-80 -102t-100.5 -84q-109 -74 -233.5 -108t-257.5 -46q-51 -4 -103 -4 q-39 0 -82 2q-94 6 -183 30.5t-167 69.5t-137 117q-119 -113 -270 -172q-135 -53 -281 -53h-8h-25q-164 4 -312.5 72.5t-258.5 187.5q-23 27 -46.5 52.5t-52.5 43.5q-20 12 -43.5 19.5t-46.5 15.5q-135 43 -272 66q-70 12 -135.5 15t-130.5 17q-27 4 -50.5 6t-46 3.5 t-47.5 1.5q-27 0 -49 -3q-49 -4 -96 -10q-195 -37 -352 -153q-45 -35 -84 -72t-70 -80q-4 16 -4 33q0 20 6 39q8 37 25.5 69.5t44 61.5t55.5 49q51 37 109 57q66 25 120 33q84 12 123 14h37h37h49q414 -12 819 -122q-4 33 -6 65v12v9q0 45 15 98q29 100 75 168 q53 78 128 133t165 78q55 12 113 12q18 -2 35 -2q72 -6 137 -41q61 -39 100 -106q29 -51 29 -105q0 -16 -4 -35q-8 -55 -42 -101t-79 -81q-59 -47 -127 -76.5t-141.5 -48t-150 -29t-152.5 -16.5z" />
<glyph unicode="G" horiz-adv-x="3047" d="M2380 541q-31 -20 -51.5 -52t-26.5 -71q-4 -20 -4 -39q0 -16 4 -35q6 -39 27 -72q20 -31 51 -43q20 -8 41 -8h20q31 6 55.5 28.5t30.5 61.5v21q-2 16 -4 33q-6 29 -20.5 53t-31.5 49t-34 41q-12 12 -25.5 21.5t-31.5 11.5zM2775 90l6 2q37 18 72 45t59 62q27 35 37 75 q4 20 4 41t-6 45q-12 53 -46 99.5t-80 83.5t-100.5 61.5t-105.5 32.5q-23 4 -39 2l-73 -10q-55 -16 -95 -56q45 -43 86 -88t58 -106q6 -23 8 -47v-15q-4 -33 -17.5 -60.5t-35 -47t-53.5 -23.5q-10 -2 -19 -2q-18 -2 -35 4q-27 10 -48 30t-38.5 44.5t-27.5 52.5 q-20 57 -21 121v8q2 68 29 129q-61 14 -119 15l-29 -2q-74 -4 -146.5 -23.5t-142 -53.5t-133.5 -73q-63 -39 -124.5 -83t-123 -89t-124 -87t-127.5 -77q-76 -39 -140 -59q-78 -25 -147 -33q-29 -4 -55 -2h-19q-39 0 -76 4q-74 10 -141 45q-94 49 -167.5 134t-96.5 188 q-6 29 -6 57q0 20 4 41q6 49 26.5 94t51.5 82q37 43 73 66q47 31 109 45q41 10 84 10h14h19q59 -4 115.5 -19.5t109.5 -43.5q39 -20 75 -52t62 -67q27 -37 37 -82q4 -20 4 -43q0 -20 -4 -43q-8 -37 -30.5 -65.5t-53.5 -49t-67 -26.5q-16 -4 -33 -2l-39 4q-29 8 -53 24 q-25 18 -33 45q-4 12 -2 27.5t8 29t16.5 22.5t26.5 11q14 2 26.5 -7t18.5 -21.5t5 -25.5t-9 -23q-29 2 -49 22q-10 -4 -9 -13t7 -18q18 -25 47 -32q20 -4 39 -5q10 2 20 0q29 4 56.5 19.5t42.5 42.5q14 27 18 55q2 12 2 27q0 18 -2 33q-4 29 -20.5 57.5t-36.5 48.5 q-43 43 -101.5 61.5t-120.5 22.5q-14 2 -28 2q-45 0 -92 -8q-59 -10 -117 -33q-37 -12 -72 -30.5t-63 -51.5q-37 -39 -45 -92q-4 -27 -8 -53q0 -29 8 -53q10 -53 39 -99q27 -45 67 -80q57 -53 129 -80.5t150 -31.5h24q61 0 117 14q68 18 137 45q61 25 123 53.5t119 63.5 q98 57 187 122.5t188 125.5q47 29 106.5 55.5t120.5 46.5q63 20 127 31q55 10 104 10h15q12 0 23.5 -1t25.5 -3q23 -4 52.5 -6t68.5 -10q33 23 58.5 38t41.5 23q20 10 37 14q43 12 86 15q23 0 49 -6q70 -12 129.5 -44t112.5 -81q45 -45 86 -103q29 -41 49 -102 q14 -45 14 -90v-8v-17q-4 -55 -32.5 -102t-94.5 -70q-29 -10 -53 -8q-25 0 -45 8z" />
<glyph unicode="H" horiz-adv-x="2916" d="M2738 434l6 -16q8 -18 8.5 -42t-16 -57.5t-55.5 -58t-76 -24.5t-65 8q-135 39 -246 293q-74 -18 -84 -37q-6 -10 -6 -25q0 -12 4 -31q10 -37 10 -78.5t-28.5 -70.5t-53.5 -31h-6q-23 0 -43 25q-25 29 -25 63v4q0 20 9 45q14 39 36.5 66t26.5 43v10q0 27 -18.5 48.5 t-28.5 31.5l-25 25q-111 104 -225.5 182t-277.5 131q-76 27 -158 27h-39q-272 -2 -444 -189q-61 -68 -98.5 -148.5t-37.5 -161.5t19 -138q45 -135 151 -174q18 -8 39 -7q43 0 88 41q43 41 68 107q8 25 8 53.5t-16.5 57t-37 33.5t-37.5 6t-26 14q-10 14 -6 22q12 23 17 29 q18 16 53 16h4q78 0 127 -55q47 -47 47 -111.5t-49 -134.5q-51 -70 -133 -98q-51 -18 -92 -18q-78 0 -142 51q-119 94 -119 258q0 86 40 214t153 216q184 143 434 149q10 0 14 2q240 0 442 -142t258 -192.5t73 -82.5q16 -31 28 -41q8 -6 37 4q23 8 36 11t21 7q-16 0 -57 160 l-10 39q-63 258 -64 385v24q0 104 50 158q53 57 127 62q4 0 22 1t49 -12q29 -12 60 -37q55 -53 57 -137v-14q0 -6 -2 -14q-12 -70 -62 -84q-12 -4 -20 -4q-39 0 -86 40q-10 8 -17.5 29t3.5 37q16 25 28.5 25t21.5 -4.5t13 -18.5t-3 -21.5t-7 -10.5t14.5 -13t27.5 -10t21 6 q25 12 25 39v10q0 66 -46 105.5t-104 42.5q-27 0 -47 -11q-78 -37 -77 -164q0 -53 14 -114l26 -123q16 -70 39 -167t62 -194q2 -2 24.5 -1t36 4.5t21.5 3.5h22q47 0 94 -15q144 -35 201 -131zM2154 352l5 49q2 31 -13 41h-8q-20 -8 -29.5 -32.5t-9.5 -48t17 -37.5 q14 -12 30 4q2 1 8 24zM2679 438q-125 111 -283 111h-20h-25l33 -70q12 -23 27.5 -45t22.5 -32.5t9 -12.5l2 -4q80 -98 140 -98h18q51 0 84 47q20 31 21.5 49t-6 26.5t-6.5 12.5t-17 16z" />
<glyph unicode="I" horiz-adv-x="3733" d="M2304 47q6 -4 18.5 1t23.5 15.5t20.5 20.5t11.5 12q27 35 26 80q0 39 -20 74q-14 23 -35.5 27t-41 -4.5t-36 -27t-18.5 -38.5q-4 -14 -4 -31q2 -29 12 -57q14 -45 43 -72zM961 750q0 -4 12 -2t28.5 6t31 9t18.5 7q49 20 90 54t74.5 78t56 93t31.5 101q4 23 2 47 q-2 12 0 22q-4 35 -19 66q-20 43 -63 55q-14 4 -31 4q-29 0 -53 -16q-78 -49 -115 -139q-37 -94 -57 -189q-12 -57 -13 -115q3 -40 7 -81zM963 684l-5 -10q-4 -12 -3 -25.5t6 -25.5q29 -98 75.5 -188.5t112 -167.5t146.5 -140.5t173 -106.5q92 -45 191.5 -67.5t202.5 -24.5 h16q94 0 186 19q102 20 193 59q-23 29 -35 63.5t-16 71.5q-2 12 -2 15q0 29 8 55q10 33 35 61q20 27 57 37q29 8 55 8h17q37 -4 64.5 -23.5t41.5 -51.5q8 -20 8 -41q0 -16 -6 -33q-10 -37 -32.5 -67.5t-51 -54t-59.5 -46.5q-4 -4 10 -20.5t34.5 -34t41.5 -31.5 q12 -10 24 -18q35 -20 72 -35q41 -12 80 -21q78 -16 172 -16h18l113 8q154 23 285 100q100 59 175 148.5t107 202.5q16 55 19 114v23q0 47 -8 92q-10 55 -35 108.5t-64 96.5q-37 45 -87 75.5t-104 47t-112.5 16.5t-113.5 -20q-53 -20 -97.5 -58.5t-73 -88.5t-40.5 -107 q-4 -27 -4 -54q0 -29 6 -59q12 -57 50 -106.5t93 -69.5q29 -10 59.5 -10t59 10t51.5 28.5t35 45.5q10 20 10 41q2 10 -2 20q-6 33 -33 41q-8 4 -16 4t-17 4q-18 10 -15 32.5t22 31.5q18 8 38.5 2t32.5 -19q23 -20 29 -51q4 -16 4 -31q2 -14 -2 -28q-6 -29 -23.5 -57.5 t-42.5 -49.5q-35 -29 -75 -39q-35 -10 -72 -10q-10 2 -16 2q-43 4 -83 20.5t-71 47.5q-39 43 -55 98q-12 41 -13 84q2 16 3 31q6 59 30.5 115.5t65.5 101.5q43 45 98 76.5t115.5 48t124 16.5t125.5 -18q59 -18 112 -53t94 -82.5t70 -104.5t39 -121q6 -39 6 -76 q0 -78 -24 -157q-39 -115 -121 -203q-78 -90 -182.5 -150.5t-217.5 -93.5q-90 -29 -188 -39q-51 -4 -102 -6q-45 0 -91 4q-94 10 -184 43t-166 95q-10 8 -19 14t-24 10q-12 4 -26.5 -1t-28.5 -11q-70 -29 -145.5 -45.5t-151.5 -22.5q-31 -2 -64 0l-92 2q-78 6 -147 31 q-127 39 -244 109.5t-211 162.5q-172 168 -260 389q-8 18 -15 36t-24 32q-18 18 -42.5 24.5t-51.5 10.5q-90 16 -174 59t-152.5 105.5t-112.5 141.5t-55 171q-4 23 -2 45q0 29 4 60q8 53 37 96t82 65q31 12 64 13l37 -4q23 -8 43 -27t22 -43q0 -27 -21.5 -44.5t-45.5 -4.5 q-8 4 -14.5 13t-14.5 17q-12 12 -31.5 17.5t-37 1.5t-35 -14.5t-29.5 -26.5q-23 -33 -25 -72v-16q0 -31 6 -62q16 -92 63.5 -171.5t117 -140t156.5 -96.5t179 -38q-6 47 -6 92q0 78 17 150q27 119 96 221q27 39 58.5 73.5t72.5 57.5q43 25 92 29h15q41 0 75 -21 q43 -23 66.5 -62.5t30.5 -86.5q4 -18 4 -35q0 -29 -7 -58q-10 -45 -30 -88q-43 -98 -122 -171.5t-177 -110.5q-12 -4 -26.5 -10.5t-24.5 -18.5z" />
<glyph unicode="J" horiz-adv-x="3850" d="M2443 498q2 -4 14.5 -2t27 9t26.5 13l16 8q12 8 22.5 26.5t12.5 38t-6 33t-35 13.5q-29 0 -47 -13.5t-27.5 -34t-9.5 -46t6 -45.5zM3447 694l10 -4q12 -4 26.5 -1t14.5 -11q-16 -20 -41 -19h-6q-29 4 -49 27q-14 20 -15 41v8q4 29 21 56q27 37 65 51q37 12 74 14 q6 -2 12 -2q43 -4 85 -20.5t73 -42.5q59 -53 78 -134q6 -29 6 -55q0 -49 -20.5 -97t-56.5 -87t-78 -70t-91 -53.5t-98 -36.5q-90 -29 -186 -39q-53 -4 -105 -4q-43 0 -86 4q-70 4 -142.5 14.5t-145 29t-140 45t-127.5 65.5q-31 20 -60.5 39.5t-56.5 44.5q-37 -6 -73.5 -12.5 t-73.5 -10.5q-63 -6 -129 -6q-51 0 -100 4q-111 10 -223.5 30.5t-223 44t-225.5 34.5q-143 14 -287 16h-20q-135 0 -269 -20q-76 -12 -162.5 -36t-163.5 -64t-134 -101q-45 -51 -70 -152q-2 -8 -10 0q-6 4 -8 13v18q0 31 8 64q12 41 33.5 76.5t52 66.5t67.5 51 q74 43 158 60.5t166 25.5q178 18 352 19q176 0 352 -21q88 -10 175.5 -26.5t173.5 -33t173 -28.5t175 -14h32q49 0 95 2q61 4 123 18q8 4 8 6q8 8 -2 19q-8 12 -14.5 25.5t-8.5 29.5v8q2 25 15 43q16 23 43 39q27 12 55 19q14 4 28.5 4t26.5 -4q27 -6 45.5 -24.5t24.5 -43.5 t-3.5 -47.5t-35.5 -36.5q-25 -12 -48.5 -23.5t-49.5 -23.5q4 -12 14 -20.5t20 -16.5q164 -98 328 -147q143 -43 311 -43h47q82 2 175.5 24.5t173 67.5t132 114.5t52.5 167.5q0 61 -27.5 118.5t-85.5 82.5q-23 10 -49 10t-50 -9t-40 -27.5t-25 -43.5q-2 -6 -2 -16 q1 -19 17 -33z" />
<glyph unicode="K" horiz-adv-x="2093" d="M1520 430q10 4 12 18.5t2 24.5q-2 33 -9 64.5t-26 56.5q-23 31 -59.5 46t-75.5 17h-17.5t-17.5 -4q-29 -10 -35 -41q-4 -12 -2 -26q0 -16 4 -29q8 -20 24.5 -32.5t33.5 -20.5q49 -35 98 -53q12 -4 31.5 -14.5t32.5 -6.5h2h2zM1589 422q61 6 122 19.5t118 39.5 q55 29 102 71t72 99q20 47 20 101q0 12 -2 22q-4 66 -45 113q-14 18 -35.5 31.5t-45 19.5t-47 3t-44.5 -15q-18 -12 -28.5 -30.5t-3.5 -39.5q2 -10 9 -20.5t17 -12.5t19 8l4 15q4 8 16 8q12 -4 11 -14.5t-5 -16.5q-8 -10 -16 -13t-19 -7q-8 -2 -16 -2q-18 0 -33 14 q-16 12 -18 34.5t6 43.5q8 20 24.5 34.5t34.5 24.5q41 20 88 21h17q55 -4 96 -35q45 -31 68 -80q20 -41 20 -84q0 -8 -2 -16q-4 -43 -23.5 -82t-46.5 -72q-70 -84 -176 -133q-57 -29 -117.5 -41t-121.5 -31q-6 0 -11 -2l-34 -8q-10 -8 -16.5 -16t-12.5 -13l-8 -10 q-53 -53 -109.5 -76.5t-116.5 -29.5q-18 -2 -36 -2q-41 0 -82 8q-59 10 -119 31q-53 18 -102.5 40.5t-99.5 44t-101 39t-105 25.5q-29 4 -55 6q-27 0 -53 -4q-55 -6 -98 -39t-62 -86q-8 -25 -10 -45q0 -29 12 -55q-23 0 -41 18q-16 16 -20 45q-4 25 4 45q12 31 24 45 q45 51 113 76q53 18 106 19h11h18q76 -4 147.5 -26.5t143.5 -51.5t142.5 -57.5t144.5 -43.5q47 -10 96 -10t94 14.5t84 45t60 73.5q-86 25 -170 72q-31 18 -57.5 44t-31.5 63v8q0 23 13 43q14 25 37 39q37 23 79 22q12 0 25 -2q47 -6 88 -29.5t68 -60.5q29 -37 35 -86 q2 -12 0 -23q-1 -34 -13 -67z" />
<glyph unicode="L" horiz-adv-x="3186" d="M2712 915q-23 61 -86 62h-11q-70 -10 -112 -68q-72 -100 -72 -211q2 -76 31 -135q8 -14 18 -22q14 0 43 22q29 29 60.5 54.5t56.5 54.5q61 70 74 104q14 41 14 76q0 31 -14 57q-2 2 -2 6zM1925 545q25 2 23 49q0 18 -9 33q-27 -6 -42 -29t0.5 -38t27.5 -15zM2509 483 q96 -84 237 -108q49 -8 70 -8h29q106 0 178 75q35 39 35 90q0 59 -43 68q-10 2 -24.5 -6t-7.5 -24.5t8 -32t-19 -13.5q-23 0 -29 23q-6 14 -6 26q0 31 35 45q18 6 34 7q27 0 52 -19h2q31 -31 30 -74q-2 -47 -22 -77q-20 -29 -39.5 -41.5t-60.5 -34.5q-63 -35 -139 -35 t-131.5 10.5t-121 44t-116.5 82.5q-4 4 -9.5 11.5t-13.5 3.5l-35 -15q-106 -45 -211 -45h-14q-111 4 -223 43q-8 4 -12 8q-33 20 -52 2q-61 -39 -125 -55q-147 -35 -295 -37q-190 0 -417 52q-188 45 -258 45h-15q-139 0 -237 -52l-72 -41q-4 -4 -13 -10t-20 -14 q-27 -18 -26 -25q0 45 102 103q135 76 293 75q94 -2 237 -34q262 -61 439 -62q309 0 387 72q-31 37 -31 66.5t23 54.5q25 23 51 26q29 2 41 -6q25 -18 18 -57q0 -20 -20 -66q20 -12 45 -16q23 -4 63 -19q51 -18 129 -18l43 2q86 8 103.5 15.5t34.5 15.5q39 20 34 37 q-6 18 -24 47q-37 55 -37 108q0 100 53 172q84 117 195 140q10 2 18 0l60 -13q43 -18 64.5 -60t21.5 -91q0 -86 -93 -189q-12 -12 -24 -22q-16 -10 -33 -31q-25 -29 -62.5 -52.5t-40.5 -24.5t-8 -5q-5 -17 15 -37z" />
<glyph unicode="M" horiz-adv-x="2240" d="M1440 741v11q0 29 -10.5 59.5t-36.5 44.5q-16 10 -29.5 6t-23 -15t-12.5 -26.5t-1 -29.5q4 -37 24.5 -75t47.5 -65q12 -10 19 -2t12.5 24.5t7.5 36t2 31.5zM1413 557q-12 2 -24.5 -17.5t-22.5 -29.5q-143 -150 -338 -240q-53 -25 -109.5 -42t-112.5 -33.5t-113.5 -35 t-112.5 -44.5q-78 -37 -150 -94.5t-119 -135.5q-12 -18 -18 -38.5t-19 -39.5q-8 -12 -12 -12t-8 7.5t-4 18.5v19q4 47 25.5 92t54.5 78q45 45 101 75t118 52q113 43 223.5 79t218.5 83q109 47 208 111.5t173 158.5q12 12 12 25q0 8 -4 14t-8 13q-25 29 -47 61.5t-33 69.5 q-4 18 -4 34q0 20 6 43q12 39 45 60q20 12 46 10t48.5 -14.5t40 -34t23.5 -45.5q4 -20 6 -43q0 -29 -10 -60q-18 -49 -47 -92q41 -45 98.5 -65.5t116.5 -22.5h12q53 0 107 15q59 14 114 36q35 12 68 30t59 42q53 47 82 113q31 70 39 137q4 41 6 78v14v12q0 35 -8 78 q-18 92 -74 164q-55 72 -143 113q-57 27 -115 26h-8q-27 0 -51 -4q-61 -12 -100 -47q-25 -20 -39 -55q-12 -27 -13 -55v-7q0 -29 19 -63q16 -29 39 -45q10 -6 26.5 -10t33 -2t28.5 10t14 24q0 6 -2 9q-4 4 -9 4t-9 2q-12 2 -13.5 8t2 13t9.5 14.5t12 9.5q12 4 31.5 3 t27.5 -15q12 -23 3 -44.5t-28.5 -37t-45 -25.5t-43.5 -8q-57 4 -95 48t-38 97q0 61 37.5 111.5t93.5 79.5q45 23 96 32q31 4 61 7q20 0 41 -4q53 -6 100.5 -23.5t90.5 -50.5q41 -31 72.5 -73t52.5 -89q20 -45 30 -98q6 -37 7 -76v-27q-6 -102 -56.5 -196.5t-128.5 -161.5 q-72 -61 -160 -98q-102 -41 -213 -41h-16q-119 4 -227 53q-15 8 -27 8z" />
<glyph unicode="N" horiz-adv-x="2156" d="M1391 414q-4 53 -22.5 107t-57.5 91q-33 31 -72 31h-20q-41 -4 -64 -41q-12 -20 -8 -41.5t17.5 -40t29.5 -33.5q10 -8 33 -28q29 -27 78 -37q29 -6 55 -8h12.5h18.5zM1473 369v-2q-6 -33 -9 -66q0 -61 21 -119q29 -94 74 -174q16 -29 34.5 -58.5t41 -55t49 -44 t59.5 -28.5q20 -4 41 -6q12 2 22 2q33 4 62.5 19.5t52.5 39t35 53.5q0 16 -9.5 30.5t-23.5 19t-28.5 -7t-10.5 -25.5q-4 -8 -12 -9t-16.5 4t-13.5 13t-3 16q4 20 20.5 30.5t36.5 12.5q8 2 17 2q27 0 47 -12t26.5 -36.5t2.5 -47.5q-6 -23 -21.5 -42t-36.5 -34 q-41 -31 -90 -43q-29 -6 -57 -6q-20 0 -39 4q-57 10 -95 38t-71 73q-70 90 -105.5 195.5t-58.5 213.5q-4 18 -10 35t-21 27q-8 4 -18 6l-20 4q-37 4 -71 17.5t-63.5 33t-51 46t-32.5 61.5q-4 18 -4 34.5t9 32.5q8 18 25.5 30.5t35.5 19.5q27 8 53 8q23 0 47 -6 q53 -12 90 -49t56.5 -84.5t23.5 -100.5q2 -10 2 -19t9 -18q6 -4 14 -6t16 -2q158 0 297 35q45 12 88 29.5t80 50.5q33 31 54.5 68.5t35.5 80.5q12 41 19 86q2 20 0 41q2 25 0 47q-6 45 -22.5 86t-45.5 74q-31 35 -72 57.5t-86 36.5q-109 37 -221 37h-10q-119 -2 -229 -31 q-113 -29 -218.5 -74.5t-213.5 -97.5q-78 -37 -158 -70.5t-168 -45.5q-33 -4 -66 -6q-55 2 -110 14q-86 23 -148 86q-53 59 -67 137q-4 27 -6 51q0 53 22 103q29 63 80 109t111 79q74 39 159 58q29 4 58 4q53 0 106 -21q31 -12 56.5 -32.5t43 -47t25.5 -59.5q4 -20 4 -39 q0 -12 -2 -23q-6 -33 -24.5 -62.5t-42.5 -51.5q-43 -43 -97.5 -67.5t-113.5 -33.5q-25 -4 -49.5 -1t-43.5 18q-14 12 -21 29.5t-7 36t6 37t20 30.5q27 29 62 37q29 6 57 8h19q14 -2 28.5 -6t22.5 -19q8 -12 0 -27.5t-23 -11.5q-10 4 -15 12.5t-11 16.5q-16 18 -42 14 t-46 -16q-23 -14 -41 -39q-12 -14 -13 -31q0 -10 4 -22q8 -20 31 -29.5t45 -13.5h15q25 0 47 6q29 6 57 18q61 23 106.5 75t45.5 118q0 45 -26 85t-64.5 62.5t-84.5 28.5q-14 2 -26 0q-31 0 -64 -8q-53 -12 -97 -44t-83 -73q-37 -43 -65.5 -91t-36.5 -103q-4 -20 -4 -39 q2 -37 12 -74q16 -55 57 -94q53 -47 123 -56q29 -4 57 -4q41 0 80 7q100 16 192.5 55t184.5 83t185 87q94 45 190 67q100 25 199 25h14q57 0 115 -8q76 -10 147.5 -34t130.5 -71q61 -45 101 -110.5t45 -145.5v-8q-2 -49 -19 -98q-20 -53 -53 -96t-79 -80t-97 -60t-105.5 -37 t-110 -21t-111.5 -9t-111 -4z" />
<glyph unicode="O" horiz-adv-x="3041" d="M1341 528q-39 -20 -47 -67q-2 -8 -2 -17q0 -29 23 -43q14 4 25.5 13.5t17.5 27.5q4 23 1.5 44.5t-18.5 41.5zM1956 604q-37 -23 -72 -47.5t-59 -60.5q-20 -29 -25 -68q-2 -8 -2 -16q0 -29 17 -54q14 -23 33.5 -31t39 -3.5t39 18.5t31.5 35q29 43 29 90v20q-6 62 -31 117z M2001 698q18 -2 35.5 5.5t34.5 15.5q164 78 335 92q45 4 93 6q127 0 249 -31q55 -12 107.5 -36.5t97.5 -67.5q25 -23 43.5 -53.5t24.5 -69.5q2 -12 0 -27q0 -23 -6 -45q-10 -37 -27 -65q-18 -29 -45 -49.5t-53 -32.5q-20 -8 -42 -12t-42 0q-51 10 -68 57q-8 23 -5 48.5 t17 43.5q12 18 32 24.5t40 -1.5q16 -6 26.5 -24.5t2.5 -37.5q-12 -25 -37 -20q-20 2 -39 22q-8 -12 -6 -29.5t12 -27.5q18 -18 47 -18q33 2 61.5 23.5t45.5 55.5q14 37 14 79t-18 77q-12 27 -30.5 45.5t-39.5 34.5q-53 39 -108.5 62.5t-115 34.5t-116.5 14h-24q-47 0 -97 -5 q-98 -12 -191 -40.5t-177 -86.5q14 -43 28 -88q8 -29 8 -57q0 -18 -4 -37q-8 -53 -40.5 -92t-73.5 -66q-20 -12 -41 -20t-43 -10h-8q-45 0 -74 39q-20 31 -21 73v9q4 47 25 86q20 37 51 62.5t64 47.5q14 6 18 18.5t2 26.5q-2 10 -10 21q-10 14 -29 20q-18 10 -33 13 q-72 10 -92 10q-4 0 -10 -2q-47 0 -96 -8q-84 -14 -191 -78q-18 -12 -35.5 -20.5t-33.5 -26.5q8 -12 14 -23.5t10 -24.5q10 -20 10 -40q0 -14 -4 -27q-12 -31 -39 -55q-10 -10 -21 -21.5t-24.5 -20t-26 -10.5t-24.5 7q-25 14 -28 41q-2 8 0 14q0 18 6 39q6 29 20 53.5 t23 40.5q4 4 -6.5 16.5t-23.5 24.5t-26.5 20.5t-15.5 10.5q-84 45 -172 45t-176 -15q-182 -31 -359 -108q-61 -29 -117.5 -68t-95.5 -106q-4 -6 -8 -12.5t-10 -2.5t-6 11.5v15.5q10 31 30.5 52.5t43.5 39.5q78 57 160.5 93t170.5 61q74 20 148 36.5t149 20.5q29 2 60 2 q45 0 92 -2q78 -4 147 -47q4 -4 14.5 -11t21.5 -15.5t20.5 -13.5t13.5 -3q10 6 16 15.5t15 17.5q57 57 124.5 88t141.5 41q47 6 98 6q25 0 49 -2q78 -4 146 -43q10 -6 18 -11t21 -10q6 0 8 -2z" />
<glyph unicode="P" horiz-adv-x="2641" d="M2372 205l-25 2q-59 8 -76 61q-6 12 -6 25q0 20 16 39q27 31 50 30h4q27 0 37 -18q8 -16 0 -31q-4 -8 -19 -10q-10 -2 -24.5 -12t-3 -37t44.5 -27q31 0 67 39q53 59 53 148q0 37 -12 69q-57 152 -256 189q-139 25 -283 24h-14q-436 0 -942 -200q-246 -98 -354.5 -157.5 t-179.5 -88.5q-145 -61 -269 -62h-6q-119 0 -211 50q-96 53 -139 124q-20 35 -20.5 55.5t8.5 33.5v-2q0 -12 100 -93q100 -78 166 -94q61 -14 90 -16h29q111 0 376 123q475 209 797 288.5t598 79.5q172 0 304 -24.5t186 -55.5q133 -78 133 -198q0 -80 -71.5 -167t-147.5 -87 z" />
<glyph unicode="Q" horiz-adv-x="3129" d="M1237 653q2 10 2 21q0 20 -6 39q-4 18 -16 22q-8 4 -15 0q-33 -8 -47 -32.5t-18 -55.5q-2 -12 0 -24q0 -18 2 -37q4 -33 12 -58q0 -2 1 -2t1 -2q6 -12 16 -4q4 4 7.5 6t7.5 9q18 29 33.5 57t19.5 61zM1978 618q2 -31 4.5 -60.5t6.5 -57.5l6 -15q4 -16 24 -8q4 4 11 6 q6 0 10 4q31 16 63.5 41t61 52.5t53.5 57.5t43 62q47 78 47 172v27q-2 20 -7 46t-15.5 49.5t-25.5 42t-38 26.5q-14 4 -29 6q-20 0 -36 -10q-31 -16 -58.5 -44t-48 -61.5t-29.5 -58.5q-29 -68 -39 -137q-6 -51 -6 -99q0 -21 2 -41zM1128 446q-86 -61 -190 -81q-29 -4 -53 -5 q-20 0 -35 5q-37 8 -82 38q-74 53 -124 130t-69 165q-8 39 -8 80q0 18 2 37q4 59 23.5 113.5t51.5 104.5t75 89q29 29 69.5 57.5t87 48t91.5 19.5h2q45 -2 84 -30q20 -14 35.5 -38t24.5 -50.5t13 -53.5q2 -12 2 -26.5t-2 -26.5q-4 -29 -16 -52.5t-35 -39.5t-53 -19h-10 q-23 0 -41 9q-27 12 -45 34q-16 20 -19 50q0 14 6 16h7q20 -8 34 -25q12 -20 35 -24q14 -2 17 -2q20 0 32 12q20 16 33 47q8 25 8 51v11q-2 33 -16 49q-29 41 -72 45q-8 0 -16 2q-35 -2 -70 -15q-45 -16 -84 -45.5t-63 -54.5q-70 -68 -101 -158q-25 -72 -24 -147 q0 -20 2 -41q4 -61 23.5 -119.5t58.5 -105.5q74 -88 166 -99q16 -4 32 -4q78 0 156 43q12 6 22.5 13.5t12.5 19.5q4 10 3 21.5t-5 23.5q-12 37 -24.5 76t-12.5 80q0 39 21.5 78t58.5 47q25 4 48.5 -4.5t39.5 -26.5t27 -43q12 -25 12 -49q0 -51 -24.5 -95t-55.5 -83 q-4 -6 -8 -12.5t-6 -14.5q-2 -10 4 -17.5t12 -15.5q70 -72 164 -102q74 -23 149 -23q20 0 45 2q98 8 189.5 40t179.5 75q8 4 16.5 8t10.5 13q6 8 4 28q-6 74 -19.5 142.5t-17.5 142.5v27q0 57 12 114q14 70 60 127q23 29 53 47q29 20 65 29q23 4 47 4h25q37 -4 64 -25 q51 -33 71.5 -91t24.5 -119q2 -14 2 -29q0 -33 -8 -66q-6 -45 -29 -88q-18 -35 -44 -63.5t-56 -52.5q-37 -35 -78 -67t-84 -58q-20 -12 -23 -27q-2 -12 2 -25q35 -102 117 -184q27 -27 57.5 -45t65.5 -27q16 -4 31 -2q20 0 41 7q37 10 63 32q29 23 35 48.5t12 60.5q2 8 3 15 t10 11q6 8 17 8.5t19 -3.5q16 -12 21 -35q6 -25 -1 -47.5t-23.5 -42t-37 -33.5t-41.5 -25q-51 -25 -106 -24h-20q-68 4 -123 37q-63 37 -107.5 97t-68.5 132q-4 6 -6.5 12t-8.5 10q-8 6 -19.5 3t-19.5 -7q-100 -45 -204.5 -80.5t-213.5 -39.5q-12 -2 -26 -3q-41 0 -82 9 q-55 10 -105.5 30.5t-94.5 54t-75 79.5z" />
<glyph unicode="R" horiz-adv-x="2764" d="M2462 784q-150 150 -365 150h-22q-160 0 -394 -123q-109 -57 -208 -128t-161.5 -112t-80.5 -53q-43 -29 -92 -110q-45 -70 -119 -127q-115 -90 -242 -97q-37 0 -71 9q-78 20 -133.5 101t-55.5 191v23q10 125 96 178q35 20 62 21q96 0 131 -89q10 -23 10 -51 q-2 -29 -10 -51q-20 -51 -55 -51q-4 18 6 51q4 14 4 29q0 18 -6 39q-23 66 -68 65q-20 0 -47 -26q-49 -49 -49 -149.5t92 -182.5q59 -53 127 -53q37 0 74 16q111 45 200 154q61 76 62 114q0 16 -12 25q-16 12 -35 22.5t-31 29.5t-19.5 43t-6.5 48.5t14 44.5q27 43 73 47h5 q43 0 61 -32q20 -35 21 -68v-25q0 -61 12 -72.5t33 -0.5q76 39 174 106l149 109q201 143 436 170q57 6 109 6q113 0 188 -25q115 -37 185 -78q66 -41 112 -122q37 -63 37 -138v-8v-24q0 -102 -49 -214t-199 -130h-16q-164 8 -164 139v31q-4 20 12 53q39 76 115 92 q27 8 47 -4q31 -20 29 -43q0 -6 -2 -15q-4 -14 -19.5 -20t-21.5 2q-8 10 -8 14q0 20 -29 19q-37 -4 -53 -53q-8 -23 -8 -37v-17q0 -20 12 -49q35 -70 106 -72h6q49 4 97 37q45 35 61.5 88.5t16.5 98.5q0 88 -48 182q-30 57 -75 102zM1174 608v45q-8 88 -31 97 q-10 4 -23.5 -9.5t-13.5 -33.5q0 -14 8 -35q16 -45 36 -64.5t24 0.5z" />
<glyph unicode="S" horiz-adv-x="2957" d="M1368 571h6q23 0 44.5 -2t43.5 -2q154 0 234 80q4 4 4 9.5t-3 16.5t-6 29.5t-3 49.5q0 102 61 188q31 45 76 57q4 2 18 0q31 0 53 -36q12 -31 15 -48q0 -51 -21.5 -100t-81.5 -111q-12 -12 -10 -32q0 -12 5 -24.5t14 -27.5q61 -102 129 -186q115 -137 284 -188 q51 -16 101 -17q51 0 97 16.5t83 55.5q45 43 65.5 93t20.5 108q0 119 -84 202q-86 51 -127 58q-61 0 -96 -43q-25 -33 -25 -64v-20q10 -41 57 -66q20 -10 15 -20q-2 -6 -15 -6q-37 0 -65 32q-14 16 -21.5 38t-7.5 44.5t6.5 42t16.5 33.5q61 70 157 70q94 0 177 -72 q82 -72 81 -186q0 -115 -65 -205q-53 -70 -133 -102.5t-160 -32.5q-205 0 -428 217q-102 102 -154 172q-10 12 -6 16l-69 -39q-68 -37 -191 -39h-10q-57 0 -221 25l-209 33q-23 4 -40 5t-30 1h-25.5t-29.5 -2q-14 0 -34.5 -5t-39 -14.5t-34 -26t-25.5 -40.5q-10 -25 -10 -43 q4 -51 22 -90q20 -43 51 -72t74 -37l27 -4q31 0 49 23q14 18 14 45.5t-22 38.5q-10 4 -15 2q-33 -4 -39 18v7t2 5q12 25 35 25h13q33 -8 47 -35t14 -43q0 -14 -2 -33.5t-21 -44.5q-37 -43 -88 -47q-4 0 -8 -2l-98 33q-14 10 -31.5 25.5t-33 40t-24.5 56.5t-9 70q0 80 41 124 t90 59q45 12 78 12q0 -2 4 -2q33 0 79 -2q35 -4 84.5 -14.5t101.5 -21.5t100 -19.5t81 -8.5zM1786 750l6 -7l20 29q4 8 9.5 14.5t9.5 12.5q37 53 37 114v19q-2 20 -19 26q-20 4 -37 -10q-33 -29 -32 -104v-13q0 -18 1 -38t5 -43z" />
<glyph unicode="T" horiz-adv-x="1871" d="M946 1085q0 -39 39 -37.5t56.5 39t17.5 69.5t-3 43t-5 17.5t-4 14.5q-61 -37 -99 -113q-4 -8 -3 -16.5t1 -16.5zM621 819q-16 4 -52.5 -4t-52.5 -16q14 -41 53 -67.5t73 -26.5t50 14q18 16 17 35q0 20 -21 41q-14 14 -49 22h-2l-6 2h-10zM453 872l-2 74q0 31 16 88 q55 207 235 289q84 37 177.5 37t175.5 -37q29 -18 45 -11t55 27q182 96 361 97l47 -2q121 -10 209 -63.5t102 -182.5v-4q0 -229 -137 -291q-63 -29 -84 -29h-2h-2q-98 0 -148 86q-20 35 -20 58q0 74 26 108q47 59 90 60l21 -5q49 -20 49 -65q0 -12 -12 -27q-2 -6 -10.5 -6 t-10.5 10q-8 41 -35 41q-6 0 -14 -2q-39 -12 -52 -38.5t-13 -43t8 -41.5q10 -20 41 -41q27 -18 61 -20h4q129 4 174 184q10 39 11 76q0 39 -13 72q-45 113 -217 131q-55 6 -106 6q-227 0 -371 -129q29 -35 32 -62.5t3 -48.5q2 -12 -12 -53q-12 -39 -52 -65q-41 -29 -63 -29 h-6h-2q-72 0 -90 39q-8 16 -7 33q0 25 15 51q37 74 98 114q-55 49 -145 50h-13q-78 -4 -157 -41q-160 -74 -207 -238q-14 -43 -14 -90v-37q0 -8 2 -19.5t4 -25.5q0 18 98 18q129 -10 154 -100q4 -12 4 -24q0 -33 -29 -58q-37 -33 -85 -33t-97 36t-64 79q-8 -6 -15 -11 t-30 -30q-76 -78 -125 -164q-74 -129 -73 -250q0 -80 32 -153q80 -190 264 -285q106 -53 226 -53q121 0 230.5 88t109.5 231v15q0 84 -47 135q-70 53 -121 61q-102 0 -172 -100q-39 -45 -39 -76q0 -8 2 -14q10 -37 43 -53q10 -4 13 -16.5t-7 -22.5t-27.5 -10t-39 28.5 t-21.5 59t8 64.5t55 81q76 78 178.5 78t174.5 -103q51 -80 51 -172q0 -47 -22.5 -108.5t-84.5 -112.5q-102 -86 -264 -86q-4 0 -6 -2l-119 17q-160 39 -276 149l-35 33q-78 98 -111 217q-20 74 -20 135v10q0 31 4 60q23 254 193 377q49 25 49 47z" />
<glyph unicode="U" horiz-adv-x="3735" d="M3678 1022q23 -55 23 -113q0 -18 -2 -37q-12 -109 -83 -193.5t-169 -133.5q-119 -59 -250 -74q-39 -4 -80 -4q-90 0 -178 20q-127 29 -244 84q-145 68 -225 129q-8 6 -16 13q-8 4 -21 4q-8 0 -16.5 -3t-16.5 -5q-78 -33 -162 -41q-16 -2 -32 0q-68 0 -129 18 q-49 14 -96.5 26.5t-96.5 20.5t-98 8h-17q-57 -2 -106 -34q-8 -6 -13 -11.5t-10 -13.5q-4 -10 1.5 -20.5t11.5 -18.5q10 -20 11 -42.5t-4 -43t-17.5 -36t-34.5 -17.5q-20 -4 -36 9t-25 31.5t-10 41t7 41.5q8 18 21 32q12 16 8 37q-4 23 -19 35q-16 14 -34 27 q-88 53 -186.5 96t-201 68.5t-208 25.5t-207.5 -35q-94 -33 -170 -95t-115 -152q-25 -57 -29 -123q0 -10 -2 -21q0 -53 21 -104q12 -35 36.5 -64.5t57.5 -48.5q33 -20 72 -22q8 -2 16 -2q29 0 58 10q35 12 57 47q25 35 24 76v4v4q0 29 -22 57q-27 33 -62 39l-21 7t-13 12 q-2 16 16 26q31 18 64 19q12 2 20 -2q45 -6 78 -41q33 -31 41 -76q2 -14 0 -29q0 -31 -10 -61q-14 -43 -49 -73t-78 -42q-35 -12 -68 -12h-6q-37 0 -73 12t-67.5 32.5t-56.5 49.5q-47 57 -61 135q-4 27 -6 53v13q0 43 10 84q18 74 64 134t108 103q61 43 133 67.5t147 33.5 q66 8 130.5 8t130.5 -6q61 -4 119.5 -28t115.5 -48q176 -74 275 -148l16 -12q4 -2 18 -4q12 -2 23 4q12 4 20 8q74 37 150 43q16 2 31 0q63 0 122 -18q43 -12 83 -20.5t81 -22.5q61 -18 127 -19h6q68 0 125 37q20 12 21 25q4 8 0 16t-8 17q-12 20 -16.5 41.5t-0.5 44.5 t22.5 40t41.5 17q23 2 41 -15.5t26 -39.5q4 -12 2 -23q0 -35 -22 -65q-4 -12 -12 -21q-8 -12 -9 -24q2 -14 15 -25q8 -12 22 -23q70 -45 119 -73q55 -29 127 -60q74 -33 160 -53q94 -23 166 -22h30h17h10q49 0 109 10q82 16 155 55q61 33 115.5 79t87.5 110q33 61 41 133 q2 16 2 32q0 53 -21 107q-18 47 -54 85t-85 52q-20 4 -41 4q-29 -2 -59 -10q-51 -20 -74 -66q-10 -23 -9 -49t11 -49.5t29.5 -40t44.5 -22.5q10 -2 21.5 -4t15.5 -13q4 -12 -7.5 -22.5t-23.5 -12.5q-20 -4 -41 -6q-12 0 -27 2q-33 4 -61.5 20.5t-48.5 41.5q-12 16 -21 57 q-4 20 4.5 43t16.5 39q14 29 41 57q27 25 59 41q39 20 68 25q25 4 43 4l28 -2q70 -10 122 -56t81 -116zM1597 580q6 16 7 32q2 16 -7 35q-29 -27 -32 -45q0 -8 1 -16t3 -19q0 -4 6 -6t8 0q4 4 8 9.5t6 9.5zM2470 797q29 27 31 43q0 10 -1 18t-1 16q0 4 -6.5 6.5t-10.5 0.5 q-4 -4 -7 -9.5t-5 -9.5q-6 -12 -6 -28.5t6 -36.5z" />
<glyph unicode="V" horiz-adv-x="1857" d="M1626 938v-2q-4 -6 -6 -13.5t-8 -15.5q-4 -6 -12.5 -6t-15.5 4t-12 12.5t-3 16.5q4 18 18.5 28.5t32.5 16.5q27 6 51 6q33 0 64 -12q33 -12 57 -37q12 -18 19.5 -37.5t11.5 -40.5q2 -14 2 -31q0 -35 -10 -67q-16 -49 -46 -90q-29 -41 -66.5 -73t-80.5 -56 q-68 -39 -140.5 -63.5t-149.5 -38t-155.5 -18.5t-154.5 -7q-78 -2 -157 -4t-155.5 -8.5t-152.5 -20.5t-149 -39q-37 -12 -72 -33.5t-57 -54.5q-4 -4 -11.5 -18.5t-15.5 -24.5t-15.5 -13t-9.5 17v8q0 20 15 45q16 29 34 45q23 25 52.5 40.5t62.5 27.5q70 27 140.5 39t142 18 t145.5 6h148q72 0 145.5 2.5t146 13.5t142 31.5t133.5 55.5q88 47 143 123q27 41 39 88q6 29 8 55q0 20 -4 37q-4 29 -18 52.5t-39 37.5q-8 4 -18.5 5t-18.5 -7z" />
<glyph unicode="W" horiz-adv-x="2711" d="M1042 604q4 0 7 2q20 8 26 36t4 46q-8 23 -24 31q-8 4 -18.5 3t-14.5 -9q-4 -4 -5 -11.5t-1 -13.5q0 -8 2 -21.5t4 -27.5t7 -23.5t13 -11.5zM1067 543v-8q2 -8 7 -16.5t11 -16.5q18 -18 37 -30.5t39 -27.5q139 -84 287.5 -141t308.5 -74q45 -4 88 -6q35 0 70 4 q82 6 159.5 27.5t147.5 58.5t127 90q70 61 115 147.5t49 180.5v10q0 41 -10 80q-12 45 -37 88t-58.5 75t-76.5 50q-29 12 -58 15q-10 2 -22 2q-20 0 -39 -7q-37 -12 -64.5 -40.5t-44.5 -65.5q-12 -29 -16 -53q-2 -10 -2 -21q0 -16 4 -35q8 -29 27.5 -47t48.5 -22 q18 -4 36.5 0t32.5 -12q8 -10 5 -23.5t-13 -22.5q-8 -10 -20.5 -13t-26.5 -7q-18 -2 -35 0q-20 0 -45 2q-41 6 -74 29q-33 25 -53 59q-18 33 -18 66v12q0 23 8 45.5t18 40.5q23 37 57 67.5t74.5 50t83.5 27.5q25 4 50 4l39 -2q45 -6 84.5 -26.5t72.5 -50t56.5 -66.5 t35.5 -82q8 -33 13 -65q2 -14 0 -29q0 -20 -2 -39q-4 -43 -9.5 -84t-21.5 -78q-35 -94 -107 -160q-74 -68 -159 -112q-125 -66 -281 -92q-59 -10 -119 -11h-18l-158 15q-119 20 -229.5 66t-218.5 98q-51 23 -98.5 50t-86.5 68q-4 6 -10 11.5t-14 7.5q-10 4 -19.5 1t-19.5 -7 q-63 -29 -133 -46.5t-140 -19.5h-10q-63 0 -127 17q-70 16 -127 57q-12 8 -14 18q0 16 20 17q6 0 13.5 -3t13.5 -8q113 -66 242 -67h6q127 0 237 57q8 4 16.5 11.5t12.5 17.5q4 12 0 23.5t-10 21.5q-12 25 -19 51q-4 12 -2 27q0 12 2 24q4 27 21.5 47.5t44.5 26.5q8 2 14 2 q20 0 41 -14q27 -18 35 -45q6 -16 8 -35q0 -10 -4 -23q-6 -29 -22 -55q-8 -12 -17.5 -27.5t-9.5 -29.5z" />
<glyph unicode="X" horiz-adv-x="2353" d="M918 653q-2 14 -5.5 31.5t-9.5 30t-15 14.5t-21.5 -8t-10.5 -25.5t9 -32t17.5 -32t18.5 -21.5q4 -4 9 -1t5 7q3 6 3 37zM420 471q4 -4 5 -7t3 -5q4 -10 4 -21.5t2 -21.5q4 -37 33 -62.5t65 -34.5q20 -4 39 -6l35 6q37 6 70 23q63 29 116.5 77t92.5 107q6 8 6 17 q4 14 -12.5 23t-28.5 18q-37 23 -49 63q-4 14 -4 29q0 23 12 43q10 16 27.5 25.5t37 9.5t38 -7.5t28.5 -23.5q14 -20 14 -49l-2 -10q0 -25 6 -50q4 -12 9 -16q10 -8 28 0q53 20 102.5 49t97.5 59.5t96 60.5t100 54q141 68 295 80q41 4 79 6q113 -2 226 -30q70 -18 130 -51 t97 -91q29 -45 35 -102q2 -20 2 -41q0 -35 -6 -68q-10 -49 -35 -93t-68 -73q-27 -18 -55.5 -24t-58.5 -10h-19q-29 2 -59 8q-39 10 -62 39q-20 27 -24 61v10q0 29 10 54q14 31 43 50t61 25q27 6 50 -6q12 -6 18 -17t0 -24q-4 -12 -17.5 -16t-21.5 6q-6 6 -8 10 q-8 12 -22.5 10t-26.5 -10q-29 -25 -29 -65q0 -51 35 -80q29 -25 70 -25h6q43 4 80 27q45 29 67 78q14 35 15 73q-2 20 -5 39q-10 59 -41 105q-57 92 -155.5 141t-206.5 57q-25 2 -47 3q-84 0 -164 -25q-102 -29 -203 -74q-98 -47 -188 -103.5t-184 -109.5l-36 -20t-34 -25 q-14 -12 -25.5 -28.5t-23.5 -32.5q-59 -74 -140 -119t-176 -55q-14 -2 -28 -2q-25 0 -49 4q-39 8 -69 29.5t-42 54.5q-8 20 -6 45q0 14 2 35q4 8 6 16t10 10q15 6 27 -6z" />
<glyph unicode="Y" horiz-adv-x="1470" d="M721 725q35 29 49 76q4 14 3 29.5t-5 31.5q-4 12 -14.5 17.5t-22.5 -2.5q-25 -16 -33 -48q-4 -16 -4 -32q0 -10 2 -19q4 -27 19 -49q0 -2 6 -4zM1192 322q29 2 55.5 7t38.5 9q70 18 105 70q31 49 30 110v10q-2 29 -8 54q-2 10 -22 49q-18 35 -56 35h-4h-16 q-27 -4 -51.5 -16.5t-42.5 -33.5q-43 -47 -67 -110.5t-36 -122.5q-4 -12 -4 -16q-4 -29 21 -37q20 -8 47 -8h10zM772 694l-29 -28q2 -4 0 -11q23 -45 53.5 -80.5t66.5 -66.5t75 -58.5t78 -54.5q6 -6 24 -12l11 14q20 61 42.5 125t63.5 117q33 45 88 59q25 6 47 9 q31 0 62 -13q59 -25 82 -78q20 -45 20 -94q0 -10 -2 -20q-6 -63 -45 -114.5t-100 -74.5q-43 -12 -90 -16q-12 0 -27 -2q-33 0 -64 4q-4 0 -6 -1t-6 -1q-4 -2 -5 -11.5t-1 -21.5v-22.5v-12.5q0 -37 11.5 -77.5t31.5 -73.5q23 -31 57 -51q20 -12 50 -15q12 0 26 4 q23 4 43.5 16.5t36.5 30.5q4 8 7 18.5t-5 16.5q-4 4 -18 8q-12 8 -13 15q2 4 15 12q12 6 29.5 8t31.5 -6q12 -8 15.5 -22.5t-1.5 -28.5q-6 -27 -26.5 -50.5t-42.5 -35.5q-35 -20 -74 -21h-22q-53 6 -95 33q-61 37 -95 100.5t-36 133.5q-2 23 2 47t-2 47q0 4 -15 13t-20 11 q-12 8 -22 14.5t-23 14.5q-20 14 -40.5 28.5t-41.5 31.5q-41 31 -77.5 65.5t-63.5 77.5q-6 10 -13 19.5t-13 17.5q-6 6 -17 2q-12 -8 -25.5 -15.5t-27.5 -13.5q-61 -27 -131 -37q-37 -4 -72 -4q-33 0 -65 4q-37 6 -72 23.5t-61 44.5q-33 33 -43 72q-4 18 -7 32q0 10 2 21 q4 12 13 18q10 4 15 -3t9 -19.5t7.5 -25.5t5.5 -17q8 -20 21 -41t32 -37q20 -18 48 -26.5t54 -12.5q23 -4 47 -4q47 0 99 12q72 16 129 60q20 14 10 34q-8 16 -14.5 39t-8.5 46.5t1 47t14 39.5q14 27 41 39q20 10 43 11h10q27 -4 48.5 -20.5t31.5 -45.5t7 -50.5t-14.5 -40 t-30 -36t-34.5 -33.5z" />
<glyph unicode="Z" horiz-adv-x="2807" d="M1155 684q18 29 19 57q0 25 -5 58q-2 8 -5 18t-11 14q-6 4 -15.5 -6t-11.5 -24q-4 -20 -2 -23q0 -20 3 -40.5t16 -37.5q2 -4 12 -16zM1110 625q-10 14 -20.5 28.5t-18.5 30.5q-20 33 -22 76v12q0 39 16 68q14 27 47 39q12 6 27 6q18 0 35 -13q18 -12 27 -35.5t9 -50.5 v-16q0 -20 -2 -37q-4 -27 -10 -45l-12 -29q8 -37 41 -63.5t76 -43.5t88 -26q37 -6 63 -6h10q45 4 88 12q43 12 84 21q139 33 276.5 64.5t276.5 62.5q57 12 115.5 18.5t118.5 14.5q33 4 63 4q23 0 45 -2q53 -6 98.5 -27.5t80 -60.5t55.5 -95q14 -41 14 -79q-2 -29 -8 -56 q-16 -66 -60.5 -118t-107.5 -83.5t-131 -33.5h-4q-51 0 -78 37q-18 23 -16 51q0 20 6 41q4 12 14 27.5t23.5 28.5t30 19.5t32.5 2.5q10 -4 16.5 -14.5t2.5 -22.5q-2 -12 -8.5 -17.5t-15.5 -8.5t-17.5 -8t-12.5 -13q-8 -12 -7 -28.5t9.5 -31t21.5 -23.5t28 -9q45 4 80.5 28.5 t56.5 63.5q20 39 28 86q6 35 7 67v25q-4 45 -20.5 88t-49.5 76q-45 45 -105 57q-41 8 -81 8q-20 4 -41 0q-63 -6 -127 -22q-63 -14 -117 -27q-90 -20 -178 -42.5t-176 -45.5q-43 -12 -85 -19.5t-85 -15.5q-27 -6 -51.5 -11t-51.5 -11q-37 -6 -76 -6q-20 0 -41 4 q-55 6 -114 20l-23 6q-53 10 -92 49q-4 4 -10 9.5t-10 7.5l-13 -2q-61 -57 -131 -82q-72 -25 -147 -25h-8q-70 0 -146 17q-78 16 -151 32q-53 12 -104.5 22.5t-104.5 22.5q-68 16 -129 17h-13q-68 -2 -135 -35q-43 -20 -77.5 -51t-53.5 -76l-6 -12q-8 -4 -10 -2q-6 0 -6 6 q-4 14 -2 18q6 25 24 47q27 33 58 58q33 27 69 39q70 25 119 28q23 2 45 2h23q39 0 51 -2q59 -4 118.5 -16t116.5 -27q66 -16 130.5 -30.5t125.5 -18.5q23 -2 47 -2l82 4q61 8 127 37q39 20 68 53q4 4 4 7.5t4 7.5z" />
<glyph unicode="a" horiz-adv-x="1775" d="M618 516q14 6 19 10q20 20 37.5 44t32.5 51q12 20 11 43.5t-7 46.5q-8 16 -25 14l-35 -6q-18 -8 -28 -23q-27 -43 -27 -88v-6q-1 -43 22 -86zM547 432l-8 4q-8 4 -16.5 4t-16.5 -2q-20 -4 -41 -4q-43 0 -86 15q-61 18 -103 75q-20 29 -32 74q-4 18 -4 37q0 25 10 45 q4 12 20.5 26.5t30.5 8.5q12 -4 14 -12.5t2 -19.5t-4 -22.5t-6 -17.5q-6 -29 -6 -54.5t16 -47.5q31 -39 82 -64q31 -12 66 -12l37 4q4 2 10 4t10 6q6 8 6 18.5t-2 18.5q-4 20 -4 41q0 35 10 68q12 51 50 96q18 20 44.5 34.5t51 15.5t45 -13.5t29.5 -50.5q2 -12 2 -25 q0 -14 -2 -31q-6 -27 -20.5 -52.5t-34 -48t-40.5 -40.5q-8 -8 -14 -16q-6 -10 -6 -19q-2 -4 0 -18q23 -72 80 -121t127 -80q72 -29 151 -37q20 -6 66 -6q41 0 78 8q113 18 208 85t150 165t66 213q2 20 0 37q0 94 -33 186q-25 61 -71 114.5t-111 72.5q-23 6 -48 6l-32 -2 q-39 -6 -73 -26.5t-60.5 -50.5t-38.5 -71q-4 -18 -4 -37q2 -6 2 -12q4 -27 15 -50.5t31.5 -38.5t51.5 -15q16 0 31.5 10t19.5 27q2 8 1 14t-1 14q4 14 14.5 22.5t24.5 -1.5q18 -12 21.5 -38t-13.5 -44q-18 -16 -49 -24.5t-55 -8.5h-8q-29 0 -56 10q-29 12 -51 35 q-18 25 -20 51q-2 12 -4 29q0 12 2 25q18 109 102 178q72 55 158 55q20 0 41 -4q51 -8 95 -30.5t85 -55.5q43 -35 79 -75t54 -91q18 -53 18 -104q0 -31 -6 -64q-18 -86 -59 -162q-53 -98 -131 -180q-82 -86 -176 -135q-102 -53 -197 -62q-25 -2 -49 -2h-23q-66 0 -131 13 q-98 23 -188 78t-158 137q-12 14 -16 18z" />
<glyph unicode="b" horiz-adv-x="2580" d="M1790 350q-2 20 -13.5 33.5t-24.5 18t-24.5 -4t-11.5 -32.5q4 -20 8 -35q8 -14 22.5 -28.5t43.5 -20.5q2 18 2 30.5v20.5q0 14 -2 18zM1128 578q29 29 50.5 63.5t29.5 73.5q2 4 4 16t2 24.5t-4 20.5t-14 6q-4 -4 -12 -10q-37 -45 -54 -102q-2 -4 -1 -19.5t2.5 -30 t0 -27.5t-3.5 -15zM389 379q0 27 9.5 50.5t31.5 43.5q23 20 53 29q20 4 37 4q12 0 25 -2q33 -4 49 -27q12 -16 12 -33q0 -12 -6 -24q-8 -12 -23.5 -15.5t-27.5 7.5q-8 6 -10 15t-11 17q-18 18 -43 9q-20 -10 -29.5 -34t-9.5 -40q2 -12 5 -25q10 -27 34.5 -41t57.5 -18 q12 -2 24 -2q20 0 35 4q98 29 191.5 71t183.5 91q8 4 15 8t14 12q8 12 9 26.5t1 29.5v10q2 80 24 160q29 84 95 133q16 12 33.5 20t38 8t39 -10t26.5 -29q6 -20 2 -49q-14 -119 -92 -211q-16 -18 -31.5 -35.5t-22.5 -39.5q-4 -18 -2 -37q4 -18 9 -35q25 -90 91 -160t154 -98 q55 -18 113 -19q37 0 72 7q94 18 168 75q-31 25 -64 64q-25 29 -24 65v4v9q4 37 34 65q27 23 58 23h4h8q37 -4 61 -35q23 -29 23 -64v-8q-4 -16 -7 -31.5t3 -29.5q10 -20 34.5 -25.5t49.5 -1.5q113 14 218 52t189 116q49 45 83 105.5t46 130.5q6 37 7 73q0 33 -9 64 q-8 35 -25.5 64.5t-45.5 49.5q-20 12 -46 15.5t-49 -10.5q-18 -12 -24 -30t-3 -35t15 -32q16 -12 37 -14q10 0 14 -4q6 -4 9 -14q2 -20 -10.5 -28.5t-28 -8.5t-31.5 6t-25 16q-18 23 -26 53q-4 14 -6 27q2 14 6 31q18 59 78 80q23 8 49 5t49 -14q59 -27 96 -77t51 -109 q10 -41 11 -84q0 -20 -2 -39q-6 -63 -37 -117q-33 -61 -86.5 -106t-112.5 -82q-88 -53 -185.5 -91t-199.5 -40q-31 0 -64 2h-8l-53 -8q-37 -10 -70 -31q-41 -23 -65 -35q-70 -35 -156 -35h-8h-16q-94 4 -176 44q-84 37 -148.5 103t-110.5 146q-4 8 -10 16.5t-14 12.5 q-10 4 -20.5 -1t-18.5 -9q-84 -45 -169 -83t-173 -71q-47 -16 -104 -18q-2 0 -7 -2q-53 0 -94 35q-23 18 -34 43.5t-11 56.5z" />
<glyph unicode="c" horiz-adv-x="2746" d="M1255 1130q0 31 -16 58q-12 20 -43 22h-12q-37 -4 -57.5 -25.5t-30.5 -47.5q-8 -27 -9 -56q0 -35 13 -65q4 -12 13 -13.5t21.5 2t22.5 9.5t19 8q25 12 44 29.5t29 44.5q4 8 4 17t2 17zM1012 989q2 2 2 9.5v18.5v20.5v11.5q2 25 7 50t19 46q23 35 62 58.5t82 27.5 q29 2 48 -10.5t31.5 -32t15.5 -45t-5 -49.5q-8 -25 -26.5 -44.5t-41.5 -31.5q-33 -20 -59 -29q-6 -2 -13.5 -3t-11.5 -9q4 -4 6 -8t7 -6q55 -53 129.5 -80t148.5 -41q29 -4 58.5 -5t56.5 -1q90 2 176 12t174 31q90 20 178 43.5t182 38.5q37 4 70 8q16 2 33.5 2t34.5 -2 q45 -4 94 -20.5t92 -45.5t75 -66.5t44 -86.5q6 -27 6 -56q-2 -35 -12 -65q-20 -61 -58 -115q-23 -29 -49 -51.5t-63 -32.5q-12 -4 -27 -4q-20 2 -45 8q-37 12 -49 45q-6 14 -6 31q0 10 2 22q8 29 28 50q18 14 43 18t39 -12q12 -12 4 -20.5t-18 -10.5q-6 -2 -13 2t-18 0 q-18 -8 -24 -27q-8 -25 6 -47t37 -30t48 -2t44 24q18 18 29.5 40t19.5 46q12 45 12 96q0 45 -10 86q-12 45 -36.5 84t-59.5 66q-14 10 -29.5 17.5t-34.5 13.5q-68 23 -135 22h-14q-76 -4 -156 -20q-94 -20 -182 -45t-180 -41q-100 -16 -201 -27q-53 -4 -104 -6l-95 4 q-57 4 -107 14.5t-106 30.5q-39 12 -70.5 30.5t-56.5 53.5q-2 4 -3 5l-3 3q-8 12 -24 15q-12 -2 -24.5 -2h-24.5h-82q-45 0 -88 -3.5t-89 -5.5q-4 0 -16 -4q-33 -8 -66.5 -15t-66.5 -15q-45 -12 -81 -39t-60 -64q-4 12 0 24.5t12 24.5q14 20 35.5 32.5t44.5 23.5 q57 27 118.5 39t123 16t124 5t123.5 3q3 0 19 4z" />
<glyph unicode="d" horiz-adv-x="2504" d="M1163 829q2 12 2 21q0 20 -6 41q-4 18 -18 24q-8 4 -13 0q-35 -10 -51 -35.5t-20 -58.5q-2 -12 -2 -28q0 -20 2 -39q6 -33 14 -58q0 -2 2 -4v0q10 -12 19 -6q4 4 8 7t6 7q18 33 35.5 63.5t21.5 65.5zM1952 791q2 -33 4 -65t8 -60l4 -15q4 -18 27 -10l22 10q33 16 68 42 t65.5 55.5t57 62.5t45.5 66q29 47 39 102q8 43 8 88v25q-2 20 -7 47.5t-15.5 52.5t-27 45t-40.5 29q-14 4 -29 4q-20 0 -39 -10q-33 -16 -61.5 -46t-50 -67t-33.5 -62q-29 -70 -39 -145q-6 -55 -6 -113v-36zM1049 610q-84 -61 -185 -84q-55 -12 -112 -14q-45 0 -90 8 q-102 18 -190.5 75.5t-145.5 145.5q-4 8 -8.5 17.5t1.5 17.5q8 12 23.5 3t26.5 -21q49 -74 121.5 -124t158.5 -73q57 -14 115 -14q29 0 57 4q88 10 168 51q12 6 22.5 14.5t14.5 20.5t2 23.5t-6 23.5q-12 43 -25.5 83t-15.5 81q0 43 22.5 83t65.5 50q27 6 50.5 -3t42 -28.5 t29.5 -44t11 -51.5q0 -53 -25.5 -100t-58.5 -90l-9 -13.5t-5 -15.5q-2 -12 3 -19.5t13 -15.5q70 -76 172 -108q82 -27 164 -27q20 0 43 2q102 8 201.5 43t191.5 82q8 4 16.5 8t14.5 12q6 10 2 33q-6 76 -20.5 148.5t-18.5 152.5v25q0 63 12 127q16 76 64 133q25 29 58.5 49 t68.5 31q20 4 41 4h10h25q37 -4 67 -25q53 -35 76 -97.5t25 -125.5q2 -14 2 -31q0 -35 -6 -69q-8 -49 -31 -95q-20 -37 -48 -67.5t-59 -56.5q-78 -70 -170 -134q-20 -12 -26 -28q-2 -10 2 -25q43 -117 125 -196q59 -59 131 -74q16 -4 33 -4q20 -2 43 4q39 10 63 43 q8 12 11 26.5t-7 24.5q-4 4 -9 5t-9 5q-10 8 -7 21.5t15 21.5q14 10 33.5 9t36 -11t26.5 -25.5t8 -33.5q-4 -23 -17 -42.5t-32 -33.5q-33 -23 -69.5 -33t-75.5 -10t-77 9t-73 30q-70 37 -115.5 101.5t-72.5 138.5q-4 8 -7 16t-9 10q-10 4 -20.5 2t-20.5 -6 q-109 -47 -217.5 -85t-227.5 -44h-16q-53 0 -101 8q-59 10 -111 33t-98.5 57.5t-78.5 81.5h-2z" />
<glyph unicode="e" horiz-adv-x="4368" d="M2009 1028l-8 23q-37 -20 -58.5 -48t-33.5 -61q-4 -6 -4 -13v-16q0 -29 30 -34q6 -2 13 -2q33 0 47 36q16 37 16 78q2 19 -2 37zM2062 1096q-2 0 -4 -2q29 -29 37 -66q4 -14 4 -31q0 -25 -8 -47q-14 -37 -46 -62.5t-69 -33.5q-23 -4 -46 -1t-40 19q-16 20 -14 47t12 52 q16 33 41 57.5t53 48.5q-12 12 -25 18.5t-30 14.5q-47 18 -92 18h-10q-43 0 -88 -12q-94 -27 -170 -92q-29 -20 -39 -45q-6 -12 -9 -26.5t-12 -26.5q-2 -12 -12 -8q-4 4 -6 12v10q0 20 10 41q12 25 31 47q29 33 65.5 55.5t77.5 41t83 30.5t89 14q12 2 21 2q33 0 65 -8 q43 -10 82 -35q12 -8 21 -8q8 0 16 6q63 37 136 66t145 41q53 10 100 10h12h33q74 -4 147 -33l25 -10q25 -10 47 -24q23 -12 43 -37q23 -29 31 -62q6 -25 10 -67q2 -14 2 -27v-12q2 -18 -4 -47q-12 -51 -27 -82q-18 -39 -49 -70q-29 -33 -68.5 -49t-74.5 -16h-8 q-43 2 -80 32q-49 39 -57 101q-2 10 -3 18q-2 20 7 41q6 29 26 53q12 16 27.5 27.5t34.5 15.5q10 4 20 2q29 0 49 -22q12 -14 13.5 -34.5t-13.5 -35.5q-4 -4 -4 -2q-10 -6 -18 12q-2 6 -2 12.5t-2 12.5q-8 8 -19.5 7t-23.5 -3q-18 -8 -31.5 -19.5t-22.5 -27.5 q-8 -18 -4 -37.5t15 -34.5q29 -41 71 -49q12 -2 23 -2q31 0 59 17q47 27 72 70.5t35 92.5q6 29 8 58q-2 29 -8 57q-12 55 -66 92q-35 25 -75.5 36t-81.5 15q-37 4 -76 5q-45 0 -92 -7q-86 -10 -164 -43q-29 -12 -54.5 -31.5t-50.5 -39.5z" />
<glyph unicode="f" horiz-adv-x="2576" d="M686 934l4 8q4 6 11.5 15.5t13.5 19.5t6 14q12 23 10 49v9q-4 31 -18 59q-8 18 -19 22q-12 6 -22 3t-19.5 -13t-15.5 -21.5t-6 -21.5v-16q0 -33 8 -62q14 -36 47 -65zM1364 795q23 18 44.5 36.5t39.5 45.5q20 29 33 65q14 37 14 78q0 37 -12 67q-12 35 -45 60 q-25 20 -54 18h-10q-37 -4 -53 -37q-16 -37 -27 -81q-6 -35 -8 -70q2 -10 2 -19q4 -45 18.5 -87t45.5 -72q2 -2 12 -4zM618 881l5 4q-37 20 -58 57q-25 41 -24 76v12v6v4q0 29 14 58q20 39 51 63q27 18 56 21q20 2 38.5 -6.5t31.5 -22.5t22.5 -32.5t11.5 -39.5q2 -10 2 -18 q0 -29 -12 -59q-14 -37 -35 -72q-4 -8 -10 -19q-6 -12 -2 -20q2 -8 8 -12q49 -61 116.5 -102.5t141.5 -61.5q63 -16 133 -17h22q78 4 152 33q20 8 27 23q4 12 -1 21t-14 18q-37 49 -63.5 104t-30.5 117q0 31 8.5 61.5t24.5 57t39.5 45t54.5 26.5q18 4 33 6q33 0 65 -16 q49 -25 78 -72t29 -102q0 -53 -20.5 -100.5t-55.5 -87t-78 -72.5q-4 -4 12.5 -22.5t38 -41t40 -43t22.5 -24.5q33 -31 69.5 -56.5t75.5 -46.5q160 -86 340 -90h11q82 0 163 25q88 27 152 92q45 47 71.5 107.5t26.5 130.5q0 51 -16.5 99t-53 85t-87.5 47q-16 4 -33 4 q-35 0 -66 -16q-23 -12 -39 -33t-16 -45.5t20.5 -45t44.5 -11.5q-8 -14 -23 -19.5t-31.5 -2.5t-31.5 13q-14 8 -20 24.5t-8 33.5q2 18 8 35q12 31 37 55q35 33 81 50t95 19h8q41 0 82 -12q45 -16 78 -49q35 -35 51 -80q18 -51 19 -100q0 -102 -52 -189q-53 -94 -136 -152.5 t-187 -82.5q-70 -16 -139 -17h-13q-27 0 -53 3q-162 12 -304 87.5t-247 200.5q-8 8 -16 17q-8 6 -19 10q-12 4 -24.5 -2t-22.5 -12q-66 -39 -151 -48q-20 -2 -39 -2h-12.5h-10.5q-45 0 -98 15q-82 23 -148 61q-68 41 -129 94q-10 8 -19 16.5t-24 8.5q-18 4 -33.5 -6 t-29.5 -19q-45 -29 -96 -41q-25 -4 -47 -4q-29 0 -58 6q-20 4 -39.5 16.5t-23.5 33.5q18 8 37.5 0.5t40.5 -13.5q31 -12 61 -12q27 0 51 8q57 17 100 60z" />
<glyph unicode="g" horiz-adv-x="2531" d="M1421 516q-76 -41 -191.5 -41t-370.5 48t-302 48h-2q-51 0 -105.5 -11t-78 -27.5t-33.5 -25.5t-22.5 -8t-17.5 10t3 19q66 90 205 90q102 0 302 -46t270.5 -51t130 -5t129 11.5t130.5 68.5q4 4 5 16l-7 27q-10 37 -10 70q0 127 88 215q37 39 77 39t54.5 -41t14.5 -50v-24 q-8 -88 -107 -197q-18 -16 -9 -43.5t19 -40.5q172 -309 414 -385q59 -18 113 -18q172 0 252 151q31 61 30 103q0 147 -84 233q-63 66 -129 66h-2q-68 -2 -108 -53q-23 -29 -23 -50q0 -70 60 -100q23 -10 17.5 -18.5t-11.5 -8.5h-8q-35 0 -60.5 29t-34.5 80q-2 6 -2 14 q0 45 33 82q57 68 154 68l2 -2q98 0 183 -77t85 -200q2 -20 -2 -39q-12 -94 -68.5 -165.5t-137.5 -106.5t-155 -35q-4 2 -49 2q-180 6 -405 223q-4 4 -17.5 19.5t-35.5 36.5q-10 14 -60.5 74.5t-50.5 66.5q-35 -21 -72 -41zM1561 702l6 -6l22 33q8 12 17 23q39 51 39 105 t-17 63q-20 6 -39 -11q-35 -35 -35 -112v-27q1 -21 7 -68z" />
<glyph unicode="h" horiz-adv-x="1808" d="M1741 358q4 -29 2 -55v-14q0 -29 -4 -60q-10 -66 -37 -123t-72 -104t-110 -76q-29 -14 -58 -20q-20 -4 -41 -6l-16 2q-29 4 -57.5 14t-49.5 33q-12 12 -19 27.5t-7 33.5q2 18 10 32.5t27 18.5q16 4 32.5 -5t16.5 -27q2 -4 1 -9.5t-1 -7.5q-2 -23 16.5 -42t40.5 -21 q12 0 22.5 4t20.5 10q61 29 106.5 78t74 109.5t36.5 128.5q4 35 8 69q0 31 -6 64q-4 27 -10 55.5t-15.5 56t-24.5 52t-34 42.5q-4 4 -12 10.5t-17.5 12.5t-17.5 10t-12 2q-12 -4 -14 -9t-7 -11q-4 -10 -7 -20.5t-9 -20.5q-14 -35 -51 -71t-84 -59.5t-96 -27.5h-13 q-39 0 -69 23q-25 18 -33 45q-8 20 -8 39q0 8 2 16q4 29 17.5 53.5t31.5 42.5q20 20 50 33.5t62.5 23t65.5 11.5h17q25 0 45 -4q12 -4 16 0q10 2 16 10q4 6 4 13.5v13.5q0 25 -2 49t-10 47q-20 59 -44.5 117.5t-63.5 105.5q-43 53 -100.5 75.5t-127.5 27.5h-26 q-80 -2 -158 -19q-92 -20 -176 -61q-29 -14 -66 -35t-69 -49q-33 -27 -52 -58q-16 -27 -16 -57v-4v-10q2 -14 6 -29.5t7 -31t1 -31t-12 -27.5q-12 -12 -30.5 -17.5t-35 -3.5t-28.5 13.5t-12 31.5q0 25 9 48.5t23 44.5q4 10 9 20q4 12 0 20.5t-10.5 12.5t-14.5 6q-16 4 -33 6 q-16 0 -24 -4q-27 -6 -46.5 -23.5t-32.5 -42t-13 -53.5q2 -12 -0.5 -25.5t-14.5 -15.5q-10 -4 -17 6.5t-11 20.5q-4 20 -5 39q0 31 13 61q20 49 67 74q35 18 74 18h6q41 -2 78 -26q12 -10 23.5 -7t21.5 11t18.5 19.5t16.5 19.5q14 14 29.5 27.5t31.5 25.5q33 27 69 46.5 t75 35.5q78 33 155 49q61 12 123 12q20 0 39 -2q55 -4 110.5 -15t102.5 -38q33 -20 63.5 -49t55 -62.5t44 -70.5t30.5 -72q12 -45 16 -90q2 -16 2 -35q0 -29 -4 -57q-6 -23 18 -35q53 -25 88 -67.5t58 -96.5q33 -78 43 -166zM539 791q12 14 7 39.5t-18 39.5 q-12 -12 -13 -28.5t1 -30.5q0 -4 2 -10t4 -11.5t6.5 -5t10.5 6.5zM1343 510q20 18 37 37.5t27 36.5q2 2 10 16t15.5 31.5t13.5 31t2 15.5l-23 8q-20 4 -43 4q-18 0 -34 -2q-43 -4 -79 -21.5t-61.5 -48t-25.5 -73.5q0 -16 5 -32.5t17 -29.5q20 -20 45 -20q12 0 25 6 q36 12 69 41z" />
<glyph unicode="i" horiz-adv-x="2912" d="M2279 692l11 4q16 20 16 41q0 10 -4 21q0 8 -8 8q-4 0 -10 -8l-5 -6q-4 -14 -4 -29t4 -31zM1446 821h2v-18q0 -20 24.5 -20.5t59.5 8.5q92 27 147 100l11 14q23 27 35 57.5t16 63.5q4 12 2 27q0 16 -4 34q-4 35 -41 41q-25 4 -47 0q-20 -4 -38 -11t-36 -17 q-33 -16 -57 -62q-37 -63 -58 -139q-4 -18 -8 -38zM1452 750q2 -20 6 -34t12 -26q45 -70 105.5 -110.5t138.5 -63.5q59 -18 131 -24q27 -2 53 -3l95 7q72 10 136 39.5t107 82.5q4 4 5.5 8.5t3.5 8.5q2 12 -7.5 22.5t-11.5 18.5q-18 35 -18 74q0 35 35 57q18 12 47 12 q31 -4 47 -20q8 -8 10 -19.5t2 -21.5q-4 -45 -29 -82q-14 -23 -1.5 -40.5t35 -29.5t50 -20t43.5 -8q51 -6 103 -11q12 0 24 -2q41 0 82 6q47 8 96.5 26.5t75.5 61.5q6 12 10.5 22.5t10.5 20.5q12 20 37 31v-12q0 -29 -13 -55q-16 -33 -45 -56t-61.5 -36t-65.5 -21 q-70 -16 -147 -16h-17h-40q-106 4 -197 57q-8 6 -19 8q-8 0 -13 -4t-9 -10q-61 -61 -145 -92q-98 -41 -205 -41h-8q-102 0 -203 26q-53 12 -102.5 31.5t-90.5 49.5t-73.5 70t-49.5 95q-12 8 -26 8q-14 -2 -29 -2q-20 -2 -41 0q-51 0 -100 6q-70 8 -136.5 21.5t-133 32 t-136.5 36.5q-88 23 -178 37q-57 10 -119 11q-33 0 -65 -5q-49 -4 -96.5 -14t-92.5 -29q-47 -20 -85 -50.5t-76 -63.5q-14 -14 -33 -17q-10 0 -19.5 4.5t-13.5 14.5t0 21.5t12 19.5q23 29 54.5 45t64.5 31q123 53 252 67q53 4 104 4q78 0 158 -10q84 -12 160 -34.5 t154 -45.5q106 -29 213 -41q25 -2 47 -2h22q8 2 19 2h86q18 0 20 23q4 55 26.5 126.5t61.5 131.5q37 61 94 100q45 29 95 29q16 0 32 -2q43 -8 75 -37t40 -72q4 -20 2 -39q0 -43 -16 -80q-25 -55 -70 -99t-103.5 -70.5t-113.5 -32.5h-17.5t-21.5 -2z" />
<glyph unicode="j" horiz-adv-x="2252" d="M920 528l-23 -6l-41 -14q-41 -14 -51 -35q-4 -10 -4 -22q0 -16 4 -41q4 -20 24 -27q27 -12 45.5 0t36 25.5t33.5 31.5q14 20 8 41l-4 29q-5 14 -28 18zM1026 512q-14 -14 -22 -39q-14 -33 -37 -62.5t-54 -50.5q-29 -18 -67 -20h-10q-33 0 -60 18q-29 20 -39 60 q-4 12 -4 22q0 27 17 45q8 12 20 19.5t27 13.5q31 16 63.5 27.5t65.5 19.5q-2 43 -32 75t-69 46q-25 8 -53 8h-10h-19q-43 -4 -79 -16q-109 -37 -197 -115q-23 -20 -39 -45.5t-41 -44.5q-29 -23 -35 -15.5t13 40.5q27 45 63.5 81.5t80.5 64.5t93 48.5t98 34.5q45 12 93 23 q20 4 45 2q27 0 49 -4q47 -10 85 -43t46 -80q2 -10 2 -20.5t6 -18.5q4 -6 12.5 -10.5t16.5 -6.5q184 -68 383 -67q6 2 14 2q207 4 393 76q86 33 163 85t120 134q37 72 37 155q0 92 -39 174q-18 37 -43 61.5t-58 35.5q-16 4 -32 4q-14 -2 -31 -4q-33 -10 -59 -41 q-12 -14 -22.5 -32.5t-12.5 -39t8 -39t29 -26.5q4 -4 9 -4.5t11 -4.5q10 -10 4 -18q-4 -4 -8 -4q-20 -8 -44 -9t-42 11q-39 23 -47 74q-4 20 2 38.5t14 36.5q25 47 67 77t91 40q20 4 39 2q29 0 59 -8q49 -12 88 -49q37 -33 56.5 -76t25.5 -90q4 -27 4 -53q0 -31 -4 -62 q-10 -57 -33.5 -110.5t-60.5 -101.5t-82 -83q-94 -76 -202.5 -113.5t-227.5 -54.5q-100 -12 -197 -12h-71q-135 6 -269 41q-14 4 -31.5 5t-29.5 -7z" />
<glyph unicode="k" horiz-adv-x="1460" d="M768 829q-59 -12 -108.5 -34.5t-90.5 -59.5q-20 -18 -25 -39.5t1 -44.5q2 -16 16 -24q20 -12 42 -16.5t44 14.5l21 14q23 18 40 42t29 46q12 23 20.5 46t10.5 56zM758 868l8 6q12 12 15 31t1 37q-4 20 -16 37.5t-27 32.5q-43 45 -109.5 74.5t-140.5 35.5q-12 2 -24 0 q-59 0 -113 -20q-66 -25 -104 -86q-14 -20 -15 -47q0 -29 19 -45q6 -6 16.5 -14.5t16.5 -16.5t2 -15.5t-27 -9.5q-12 -2 -27.5 1t-27.5 12q-23 14 -23 39.5t4 46.5q8 45 35 81.5t66 59.5q43 25 94 36t98 15q20 2 43 2q45 -2 99 -8q76 -10 139 -47q57 -35 96 -98.5t45 -126.5 q55 -4 110.5 -8.5t107.5 -16.5t102.5 -33.5t95.5 -60.5q70 -59 98 -139q29 -72 29 -148v-20q-4 -86 -45 -165t-115 -130q-35 -25 -76 -39q-31 -12 -63 -12q-10 0 -23 2q-43 4 -79.5 32.5t-45.5 69.5q-4 20 2.5 43t18.5 40t30.5 28.5t38.5 11.5q12 0 22.5 -4t18.5 -15 q6 -10 1 -22t-17 -14q-4 0 -6 1t-6 1q-14 2 -25.5 -5.5t-19.5 -20.5t-8 -28.5t6 -29.5q12 -29 43 -39q23 -8 43 -8h6h8q68 4 112 39.5t68.5 87t32.5 114.5q4 29 2 53q0 33 -4 62q-12 74 -44 139.5t-89 108.5q-57 45 -128 61.5t-145 24.5q-16 2 -31.5 2t-27.5 -8 q-20 -10 -35 -31l-112 -133q-20 -25 -44 -48.5t-55 -37.5q-29 -16 -61 -17h-4q-33 0 -58.5 22.5t-29.5 59.5q-2 8 -2 17q0 27 10 49q12 31 38.5 54.5t57.5 39.5q27 14 53.5 23.5t53.5 17.5q12 4 24.5 6t22.5 10z" />
<glyph unicode="l" horiz-adv-x="2902" d="M1341 866q-37 -16 -55 -33.5t-31 -46.5q-14 -29 -14 -49v-12q27 8 49.5 21.5t44.5 27.5q14 6 21 25q6 12 6 26q-1 23 -21 41zM815 715q70 -2 134.5 -5t133.5 -5q8 0 16.5 1t16.5 5q12 8 17.5 19t9.5 24q14 45 39.5 86t66.5 65q20 12 45 13.5t47.5 -6t39 -23t22.5 -37.5 q4 -25 -6.5 -50.5t-28.5 -43.5t-40.5 -30.5t-45.5 -22.5q-12 -4 -22.5 -10.5t-18.5 -14.5q-20 -27 -20 -49q0 -29 22 -58q20 -23 51 -44t65 -35.5t64.5 -23.5t46.5 -11q20 -2 41 0h13q45 0 88 10q68 16 137 39q102 29 206.5 52.5t209.5 37.5q100 12 198 12h13q104 0 209 -20 q43 -8 82.5 -22.5t72.5 -43.5t51 -67q12 -25 13 -51q0 -16 -6 -33q-6 -23 -19.5 -42.5t-30.5 -37.5q-33 -37 -69.5 -71t-83.5 -48q-25 -6 -50.5 -3t-47 14.5t-37 29.5t-19.5 43q-2 6 -2 14q0 20 19 33q12 8 26.5 2t12.5 -20q0 -4 -1.5 -7.5t-3.5 -7.5q-6 -23 12.5 -41 t43.5 -22q10 -2 20 -2q18 0 33 6q27 10 47.5 28.5t34.5 44t16 54.5v10q0 51 -30 96q-33 49 -78 80q-47 29 -104.5 40.5t-114.5 15.5q-25 2 -50 0q-127 0 -245 -27q-147 -33 -291 -72q-90 -23 -178 -43q-53 -12 -105 -12h-12q-31 0 -61 4q-94 10 -172 60.5t-109 138.5 q-6 20 -16 33q-8 6 -18.5 7t-20.5 1l-273 6q-33 2 -63 2h-19q-20 0 -39 -2q-59 -2 -120 -14q-86 -20 -160 -70q-6 -4 -16.5 -12.5t-20.5 -17.5t-21.5 -16t-17.5 -5q-14 4 -16 10t3 14t14 16.5t13 14.5q74 57 166 83t185 32q27 2 52 2h54z" />
<glyph unicode="m" horiz-adv-x="2818" d="M2402 668q-10 12 -24.5 16t-28.5 2q-37 -2 -74 -11t-69 -28q-12 -4 -21.5 -14t-17.5 -21q-12 -16 -13 -30q0 -20 29 -39q23 -12 47.5 -12.5t46.5 12.5q37 20 69 47.5t56 64.5q2 4 1 6.5t-1 6.5zM2443 643h-2h-2l-18 -16q-25 -27 -49.5 -51.5t-55.5 -45.5q-31 -18 -67 -26 q-18 -4 -35 -4q-18 0 -35 4q-18 6 -33.5 18.5t-23.5 30.5q-6 14 -6 29q-2 12 4 26q12 29 37 49q53 49 122 62q47 8 97 8h16h31h14t14 4q10 6 17 21q66 119 74 245v27q0 72 -23 143q-27 84 -92 138q-47 37 -107 51q-47 12 -98 12h-20q-61 -4 -119 -22.5t-111 -47.5 q-61 -33 -117.5 -71.5t-99.5 -91.5q-45 -53 -72 -119q-27 -61 -26 -127q0 -41 10 -75t29 -62q29 -43 80 -64q33 -12 63 -12q20 0 39 4q53 12 92 51t49 92q4 20 -2 39q-4 10 -11 16.5t-19 4.5q-8 -2 -14.5 -5.5t-14.5 -5.5q-10 -2 -16.5 3.5t-9.5 14.5t-2 19.5t5 16.5 q12 12 31 14t37 -4q43 -16 65 -59q14 -29 15 -56q0 -16 -4 -33q-12 -35 -39 -58t-60 -42q-57 -29 -118 -37q-14 -2 -29 0q-47 0 -90 21q-37 20 -65.5 50t-45.5 69q-14 37 -20 81q-4 20 -4 46q0 20 2 38q8 78 44 149t91 128t122.5 98t141.5 66q84 29 172 37q14 2 31 0 q70 0 137 -29q88 -37 144.5 -117t74.5 -176q8 -45 8 -88q-2 -51 -10 -100q-20 -94 -65 -181q-4 -6 -7.5 -13t-1.5 -15q2 -4 15 -15q37 -29 72.5 -54t62.5 -62q25 -35 31 -74q4 -16 2 -33q-2 -20 -4 -43q-6 -39 -24.5 -74.5t-39.5 -68.5q-61 -88 -146 -131t-190 -64 q-61 -10 -119 -10h-28q-76 4 -152 20q-70 14 -134 26.5t-130 29.5q-143 37 -275.5 97t-267.5 112q-201 74 -403 73l-49 -2q-119 -4 -213 -49t-160 -147q-37 -59 -51 -135q-8 -37 -8 -74t8 -74q10 -45 35.5 -75.5t62.5 -47.5q29 -12 62 -10h14q41 4 80 29q59 37 75 102 q2 8 3.5 16.5t-5.5 16.5q-10 12 -25.5 14t-31.5 -2t-33.5 -10t-29.5 -6t-19 4q-10 4 -12 15t4 22q4 10 13.5 16t19.5 12q18 8 37.5 12.5t42.5 0.5q20 -4 38.5 -15.5t28.5 -29.5t10 -40t-4 -40q-14 -59 -57 -97q-41 -37 -96 -49q-35 -8 -66 -8h-8q-20 -2 -41 2q-59 6 -106 33 q-47 25 -73 63.5t-34 83.5q-4 27 -4 54q0 18 4 39q6 49 16 92q14 49 38 92t61 78q98 88 223 119q98 27 205.5 26.5t208.5 -12.5q113 -14 220 -51t212.5 -80t211 -85t218.5 -69q61 -14 121.5 -22.5t124.5 -18.5q70 -12 131 -16q18 -2 35 -2q47 0 98 10q80 18 153.5 63.5 t110.5 122.5q14 31 23 70q6 29 6 61v17q-4 39 -18.5 72.5t-47.5 58.5q-8 6 -16 16.5t-19.5 19.5t-23 13t-23.5 0z" />
<glyph unicode="n" horiz-adv-x="2480" d="M1161 1262q4 18 4 30q-4 16 -20 21q-12 0 -25 -8q-39 -23 -75.5 -64t-55.5 -82q-2 -4 -6 -15t-2 -16q4 -4 14.5 3.5t14.5 9.5q20 10 44.5 20t45 23.5t37 32t24.5 45.5zM1327 821q20 -4 22.5 -28.5t-16.5 -44.5q-18 -20 -43.5 -28.5t-48.5 -4.5q-37 4 -62.5 26.5 t-31.5 55.5q-2 12 -2 24q0 25 10 49q12 39 43 74q33 37 82 57q41 16 80 17h8h6q45 -2 82 -17.5t70 -42.5q43 -35 67 -86q18 -33 19 -69q0 -20 -4 -43q-12 -53 -52 -102.5t-94 -82.5q-53 -33 -108.5 -47t-106.5 -18h-20q-68 0 -129 20q-70 23 -124 65t-90 104.5t-42 138.5 q-4 29 -4 56.5t6 57.5q0 4 1 10.5t1 14.5q4 12 9 34.5t13 55.5q-8 4 -20 4q-29 -6 -64 -6h-10q-43 0 -81 6t-65.5 16.5t-29.5 20.5q-2 8 14.5 8t34.5 -4l51 -10q29 -4 58 -6h24q18 2 33 2q27 4 49.5 10t32.5 18q12 14 22.5 27.5t18.5 24.5l16 20q20 31 42 60.5t48 52.5 q29 23 64 35q16 6 31 6q16 0 28 -6q20 -10 27.5 -33t-0.5 -49q-8 -25 -25.5 -46.5t-40.5 -39.5q-20 -14 -42.5 -25.5t-45 -22t-43 -24.5t-37.5 -33q-14 -18 -22 -39.5t-14 -42.5q-10 -45 -11 -88q0 -35 9 -65q12 -72 36 -136q20 -47 69.5 -87t115.5 -58q43 -12 88 -14h10 q18 0 35 2q70 6 131 49q41 29 68.5 72t37.5 86q6 27 7 53q0 16 -2 33q-6 41 -25 73q-25 43 -72 64q-20 10 -43 10q-27 0 -55 -14q-45 -20 -71.5 -64.5t-26.5 -87.5q0 -16 5 -31.5t17 -23.5q12 -10 27.5 -10t32 10t22.5 29.5t-6 27.5q4 2 6 0z" />
<glyph unicode="o" horiz-adv-x="2770" d="M1804 944q0 -25 3 -39t12 -28q4 -4 10 -6.5t8 1.5q49 43 49 101v16q0 18 -18 17h-4q-43 0 -54 -37q-4 -8 -4 -14.5t-2 -10.5zM2484 809v-2q-23 -2 -38 16.5t-11 42.5q8 49 53 66q20 6 39 6q27 0 53 -14q45 -23 70 -64q18 -35 19 -72v-20q-6 -49 -31 -90 q-23 -43 -59.5 -75t-77.5 -58q-84 -49 -166 -56q-16 -2 -33 -2q-68 0 -141 19q-53 12 -108.5 31.5t-105 47t-88 65.5t-63.5 89q-4 10 -10 19.5t-19 13.5q-8 4 -15 1t-15 -5q-143 -53 -296 -67.5t-308.5 -14.5t-311.5 2h-45q-135 0 -264 -16q-102 -12 -200.5 -43t-182.5 -92 v10q0 29 16 55q20 31 52 49q29 18 63.5 26.5t69.5 12.5q160 23 321 23h23q174 -2 346 -4h63q143 0 283 10q172 12 338 59q10 4 19.5 8.5t15.5 14.5q8 12 4 28.5t-10 30.5q-8 23 -9 47v11q4 29 17.5 54t34 45.5t49.5 31.5q12 4 27.5 6t27.5 -4q20 -8 31.5 -31t9.5 -47.5 t-14.5 -44t-25.5 -38t-25.5 -37.5t-14.5 -44q-2 -23 6 -46.5t23 -43.5q37 -57 90 -96t115 -66q45 -20 92 -31.5t96 -11.5h16q43 0 82 8q47 10 90 33q37 20 66 54t46 73t20 82v12q0 37 -15 70q-10 25 -32.5 42t-45.5 3q-18 -12 -16 -37t10 -45z" />
<glyph unicode="p" horiz-adv-x="1984" d="M774 459q-31 0 -20 -31l16 -33q12 -20 43 -8q14 4 10 27q-4 45 -49 45zM1378 934q-23 0 -44 -1t-44 -5q-27 -4 -41 -17q-6 -8 -8 -17t-4 -17q-2 -20 -2 -46q0 -47 8 -92q12 -72 47 -131q35 -57 90 -92q43 -29 105 -31q14 0 28 2q53 4 101.5 32t83.5 69q27 33 43 71 q8 20 8 43v9q0 16 -2 30q-8 37 -36 65t-60 48q-126 76 -273 80zM676 424h-6q-2 0 -11 -4q-80 -29 -112 -107q-14 -37 -15 -71q0 -43 21 -84q-27 12 -41 36.5t-16 53.5q-2 14 -2 28q0 41 16 80q23 53 68 88q18 12 41.5 25.5t35.5 34.5q10 16 11.5 36.5t7.5 39.5 q14 43 40.5 81.5t59.5 71.5q31 33 69 64.5t81 57.5t88 42t92 21q8 2 18.5 5t18.5 5q8 12 9 25.5t3 25.5q10 66 35.5 126t62.5 114q35 49 90.5 88t114.5 53q14 4 31 2h8q23 0 49 -8q47 -12 74 -47q16 -23 16 -52q0 -12 -4 -25t-12 -21.5t-16.5 -9.5t-12.5 7t-2 25q2 6 2 16 q2 25 -18 45q-23 29 -58 37q-14 4 -26 2q-23 0 -47 -10q-37 -12 -64.5 -39t-48 -61.5t-33 -67.5t-21.5 -67.5t-20 -67.5q-4 -6 -4 -13.5t-2 -15.5q-4 -20 2 -27.5t29 -0.5q41 8 80 8h16q35 0 70 -4q49 -6 109.5 -22.5t112.5 -46.5t89 -75q31 -39 31 -94v-14q-4 -61 -33 -123 t-78 -98q-78 -61 -164 -64q-12 2 -22 2q-98 10 -178 80q-70 61 -103.5 141t-50.5 170q-8 51 -31 62q-8 4 -16 4q-20 0 -57 -17q-53 -20 -101.5 -55t-87.5 -78t-66.5 -94t-39.5 -108q-4 -12 0 -17q6 -10 16 -12q27 -10 53.5 -20.5t38.5 -32.5q10 -16 11 -35q0 -12 -5 -27 q-12 -33 -41 -43q-12 -4 -28 -4q-20 0 -45 14q-37 23 -64 54q-4 4 -9 7t-9 5z" />
<glyph unicode="q" horiz-adv-x="1447" d="M991 254h-4q-4 0 -4 -2q-6 0 -8 -6v-4q16 -53 38.5 -108.5t54.5 -104.5t76 -85t103 -50q25 -6 49 -7q14 0 31 2q41 6 68 33q16 16 22 38t3 45.5t-11 44t-23 36.5q-29 37 -67.5 63.5t-82.5 45t-89 30.5q-45 10 -90 21q-18 4 -33 4q-4 2 -7 1t-7 1q-4 0 -9.5 1t-9.5 1z M731 946q-2 -2 -2 -8q0 -4 10 -14q37 -43 67 -90.5t54 -100.5q6 -12 9 -19t5.5 -13.5t4.5 -13.5t6 -19t10 -26.5t6 -27.5q2 -12 -3 -23t3 -22l10 -8q10 -8 8.5 -21.5t0.5 -25.5q4 -10 9 -18.5t7 -20.5q8 -31 12 -62.5t8 -64.5q2 -8 2 -15v-16q2 -10 5 -18q4 -8 4 -14v-2h4 q14 0 30 -9q8 -4 15 -4q6 2 16 0q59 -12 107 -24q49 -12 106 -37q43 -18 98 -57q53 -33 82 -78q20 -33 25 -66q2 -10 0 -20q0 -25 -10 -49l-6 -9q-20 -43 -58.5 -66.5t-85.5 -25.5q-12 -2 -26 -2q-35 0 -66 10l-43 15q-12 4 -16 12q-2 2 -17 16q-4 4 -8 4.5t-8 4.5 q-6 6 -7 11t-12 7q-4 0 -11 1t-15 3q-12 4 -20.5 14.5t-16.5 20.5q-43 53 -66.5 114.5t-46.5 123.5q-4 12 -9 32.5t-11 32.5h-2h-2q-10 2 -14.5 1t-12.5 -1q-74 -12 -144.5 -34.5t-127.5 -71.5q-29 -25 -50.5 -60t-31.5 -74q-8 -29 -8 -57q2 -12 2 -22q4 -39 26 -74 q20 -29 56 -41q18 -6 34 -8q16 0 33 8q18 8 29.5 23.5t3.5 33.5q-4 8 -9 15.5t-5 15.5q2 8 10 13t16 1q16 -4 23 -22q4 -12 4 -23q0 -16 -6 -31q-10 -27 -35 -38q-23 -14 -51 -17h-13q-20 0 -43 4q-27 6 -50 19.5t-42 31.5q-25 27 -35 64q-6 25 -6 49v23q4 37 20.5 71.5 t39.5 61.5q57 63 135 94t160 53q18 6 41 13l20 4q4 2 6 2t6 4l13 2v24q-6 51 -11.5 96.5t-10.5 89.5t-12 88t-20 93q-16 61 -39.5 119.5t-66.5 103.5q-12 18 -31 25q-12 4 -26.5 5t-27.5 1t-25.5 2t-20.5 10q12 18 36.5 20.5t47.5 4.5q6 0 12 1t12 1q49 8 92.5 35.5 t69.5 66.5q29 41 43 90q6 25 6 50v10v12q6 8 4 10q0 4 -6 11q-4 6 -2 10q2 2 4 10t-4 10l-8 10q-10 12 -12 19q0 8 -8 16q-55 55 -97 68q-51 14 -100 14h-18q-102 -4 -197.5 -43t-169.5 -108q-23 -20 -44.5 -47t-29.5 -58q-6 -20 -8 -45v-20q4 -33 29 -56q14 -16 35.5 -23 t44 -7t45 7t43.5 21q20 16 34.5 40t16.5 50q0 27 -17 50q-14 23 -43 26q-18 4 -36.5 -4t-36.5 -8q18 37 57 39h10q35 0 60 -23q29 -23 30 -61v-12q0 -33 -14 -60q-12 -25 -33.5 -42t-48.5 -27q-25 -10 -53 -15q-12 -2 -23 -2q-16 0 -32 4q-39 6 -71 33t-44 64q-4 16 -4 32 q0 12 2 25q6 29 20 55q14 27 35 47.5t43 38.5q94 74 211 109q111 37 223 37h11q37 0 74.5 -6.5t70.5 -20.5t61.5 -36.5t44.5 -55.5q16 -37 17 -74q0 -16 -4 -37q-10 -59 -45 -102q-33 -45 -79 -78t-95 -61q-17 -9 -21 -17z" />
<glyph unicode="r" horiz-adv-x="8435" d="M8180 602q12 -12 17 -26.5t-1 -30.5q-4 -12 -17.5 -18.5t-25.5 -6.5q-12 2 -25.5 9.5t-21.5 15.5q-53 47 -104.5 88t-118.5 69q-61 29 -127 43.5t-133 20.5q-27 2 -52 2h-26q-88 -2 -176 -14q-127 -20 -252 -52q-94 -25 -187.5 -50t-187.5 -44q-94 -20 -190 -30 q-66 -8 -132 -9q-31 0 -61 2q-18 2 -36.5 3t-37.5 -11q-27 -78 -70.5 -133t-102 -95t-126 -66.5t-141.5 -47.5q-141 -37 -287 -37h-6q-147 0 -285 56q-113 45 -200 129q-8 6 -15.5 12t-15.5 6t-13 -3t-14 -7q-61 -35 -130.5 -53.5t-139.5 -24.5q-37 -4 -74 -4l-71 4 q-72 6 -142 20q-47 12 -93 29t-83 49q-29 23 -45 48.5t-29 58.5q-12 -31 -28.5 -56.5t-44.5 -50.5q-37 -29 -83 -47t-93 -31q-68 -14 -140 -20q-37 -4 -73.5 -4t-73.5 4q-72 6 -141.5 24.5t-128.5 53.5q-6 4 -12.5 7t-14.5 3t-15.5 -6t-15.5 -12q-86 -84 -200 -129 q-137 -55 -285 -56h-6q-143 0 -287 37q-74 20 -142.5 47t-126 67t-101.5 96t-70 132q-18 12 -37 11t-37 -3q-31 -2 -61 -2q-66 0 -132 9q-94 10 -189 29.5t-188.5 45t-187.5 49.5q-125 31 -252 52q-88 12 -176 14q-39 0 -78 -2q-70 -4 -133 -19.5t-127 -44.5 q-70 -29 -119 -69.5t-104 -87.5q-10 -8 -20 -17q-12 -8 -27 -8q-16 0 -27 4q-12 8 -16 20.5t0 28.5q6 16 16 29q31 37 76 63.5t88 45.5q170 76 350 92q72 6 142 8q111 0 221 -16q113 -16 219 -49t215 -62q74 -20 147.5 -34.5t149.5 -20.5q53 -4 104 -4q8 2 17 2h121 q29 0 28 30q6 78 38 176.5t85 184.5q55 84 131 135q59 39 133 41q20 0 43 -2q59 -8 102.5 -49t55.5 -101q4 -27 4 -53q0 -59 -22 -115q-33 -78 -96.5 -138t-143.5 -97t-160 -43q-12 -2 -24.5 -2t-28.5 -4q0 -27 6 -45.5t19 -36.5q61 -94 145 -150.5t193 -89.5 q84 -23 184 -32q39 -4 78 -5q63 0 125 11q102 14 190 55t148 115q10 12 10 20q4 14 -7.5 30.5t-19.5 29.5q-12 20 -18 47q-6 23 -6 47q0 29 14 49q12 23 35.5 38t60.5 15h6q39 -2 64 -26q14 -20 14 -50v-10q-4 -31 -12 -60.5t-25 -54.5q-12 -18 -12 -32q0 -12 8 -25 q16 -25 49 -40t70 -24.5t59 -13.5q74 -12 146 -14q12 0 24 -2q61 0 123 12q33 4 68 13.5t66.5 22.5t58 33.5t45.5 49.5q8 14 14 29.5t14 31.5q6 10 19.5 24.5t25.5 14.5q12 -2 24.5 -16t21.5 -23q8 -14 14 -30.5t14 -30.5q18 -29 45 -49.5t58.5 -33.5t66.5 -22.5t68 -13.5 q61 -12 123 -12q12 2 24 2q102 6 146 14q20 4 59 13q37 8 69.5 24.5t49.5 40.5q8 12 8 25q0 14 -12 32q-16 25 -25 54q-10 29 -12 61v10q0 29 14 50q25 25 64 26h6q37 0 61.5 -14.5t34.5 -38.5q12 -25 14 -49q0 -20 -6 -47t-18 -47q-8 -12 -19.5 -29t-7.5 -31q0 -10 10 -20 q59 -74 147.5 -115t190.5 -55q68 -10 125 -11q37 2 78 5q102 10 184 32q109 33 193 89.5t145 150.5q12 18 18.5 36.5t6.5 45.5q-16 4 -28.5 4t-24.5 2q-78 6 -159 43t-144 98q-63 59 -97 137q-23 53 -22 115q0 27 4 53q12 59 55 100.5t103 49.5q23 4 43 2q74 -2 133 -41 q76 -53 130 -137t85 -182.5t39 -176.5q2 -31 28 -30h121q8 0 17 -2q51 0 104 4q76 4 149.5 19.5t147.5 35.5q111 29 215 61.5t219 49.5q111 16 221 16q70 -2 142 -8q180 -16 350 -92q43 -20 88 -46t76 -63zM2216 692q0 -6 -1 -12t1 -12q0 -29 31 -31q47 0 84 12 q63 18 114 51q6 4 90 88q4 4 9 11q2 4 6 8q31 31 47 80q14 43 22 90q2 14 2 31q0 25 -4 53q-8 47 -57 57q-18 4 -33 4q-14 2 -33 -2q-29 -6 -53 -18q-27 -12 -51 -25q-51 -27 -78 -82q-25 -47 -45 -95t-35 -99q-8 -29 -12 -54.5t-10 -54.5h3h3zM3379 520q23 25 25 60 q0 12 -4 24q-4 10 -13 10q-6 0 -14 -8l-3 -6t-1 -6q-4 -18 -6 -37.5t6 -42.5q4 2 5 2t3 2zM5036 514q8 23 7 43.5t-7 36.5q0 4 -1 6l-3 6q-8 8 -14 8q-8 0 -13 -10q-4 -14 -4 -24q0 -35 25 -60l2 -2q0 -2 8 -4zM6189 692h3h3q-6 29 -10 55.5t-12 53.5q-12 51 -34 98t-46 96 q-29 53 -78 82q-25 12 -50.5 24.5t-53.5 18.5q-18 4 -34 3t-32 -5q-47 -12 -57 -57q-4 -29 -4 -53q0 -16 2 -31q8 -47 22 -90t47 -80q4 -4 8.5 -9t6.5 -10q37 -53 89 -86.5t115 -52.5q37 -12 84 -12q31 0 31 31q2 6 1 12t-1 12z" />
<glyph unicode="s" horiz-adv-x="2961" d="M2613 985q53 -39 78 -102q23 -55 23 -113v-14q-4 -66 -36 -125.5t-81 -102.5q-23 -20 -47.5 -34.5t-50.5 -24.5q-66 -27 -138 -27h-8q-76 2 -143 33q-8 4 -17 4q-8 2 -15 -10t-15 -18q-47 -45 -99.5 -84t-113.5 -68q-70 -33 -141.5 -49.5t-141.5 -48.5q-51 -25 -96 -60 t-72 -84q-8 -12 -12 -24.5t-12.5 -24.5t-12.5 -4q-4 -14 -12 4q-8 12 -12 24.5t-11 24.5q-29 49 -73.5 84t-96.5 60q-70 33 -141.5 49t-140.5 49q-123 57 -213 152q-6 6 -13.5 18t-17.5 10q-6 0 -16 -4q-70 -31 -144 -33h-8q-70 0 -135 27q-29 12 -52.5 26.5t-47.5 32.5 q-51 43 -82 102.5t-33 125.5v14q0 57 23 113q27 61 77 102q51 39 121 45q12 2 25 2q53 0 100 -24q33 -18 56.5 -50t25.5 -69q0 -35 -23.5 -62.5t-60.5 -29.5q-12 0 -27.5 5t-28 15t-18.5 24.5t2 28.5q4 8 16.5 9.5t20.5 -2.5t14.5 -14.5t-8.5 -14.5q-4 -2 -6 -1t-6 -1v-6 q2 -12 9 -17.5t17.5 -6.5t20.5 2t19 7q16 10 25 28.5t9 39.5q0 41 -32 74q-12 12 -27.5 19t-34.5 9q-16 4 -33 4q-39 -2 -79 -18q-53 -23 -88 -68q-35 -47 -46 -106q-6 -33 -6 -66q0 -25 2 -49q6 -45 24.5 -86t53.5 -69q18 -16 38 -25.5t42 -19.5q37 -14 72 -25q27 -8 55 -8 h8h10q37 2 75 15t63 40q-20 29 -31 59q-6 18 -4 37q-2 14 2 27q4 16 14.5 29.5t25.5 21.5t30.5 9t29.5 -7q20 -12 27.5 -37.5t1.5 -50.5q-6 -23 -19.5 -43t-29.5 -39q-8 -8 -8 -16t8 -17q47 -57 108.5 -98t130.5 -72q70 -29 139.5 -51t139.5 -49q37 -14 74 -33.5t65 -48.5 q16 -16 28.5 -35.5t16.5 -42.5q12 45 45 78q29 29 66 47q51 25 74 35q70 29 139 49q70 23 139 51q70 29 132.5 71t109.5 99q6 8 6 17q0 10 -8 16q-14 18 -28.5 39t-20.5 43q-6 25 1 49.5t29 38.5q14 8 29.5 7t30 -9t25 -21.5t14.5 -29.5q4 -14 6 -29q-2 -18 -8 -35 q-14 -31 -31 -59q27 -29 62.5 -41t74.5 -14h10q33 0 64 8q37 10 74 25q20 8 40.5 18t38.5 27q33 29 51.5 70.5t24.5 84.5q2 25 2 49q0 33 -6 66q-12 57 -45 106q-33 45 -88 68q-39 16 -80 18q-16 0 -33 -4q-37 -8 -61 -28q-31 -29 -31 -72q0 -23 8.5 -41t24.5 -29 q6 -4 17.5 -7t21.5 -1t17 8t9 15q2 2 0 6q-4 4 -6 3t-6 -1q-12 4 -7 14t13 15q8 4 20.5 3t18.5 -10q8 -14 2 -28.5t-19.5 -24.5t-29.5 -15t-27 -5q-35 4 -59 30.5t-24 61.5q0 37 24.5 68.5t56.5 50.5q47 27 101 26h24q70 -6 123 -49zM741 539q33 33 45 88q4 18 -8 36.5 t-33 6.5q-16 -10 -22 -29.5t-6 -36.5v-8q0 -8 2 -20.5t4 -22.5t7 -15t11 1zM2210 596v8q0 16 -7.5 35.5t-23.5 30.5q-20 12 -32.5 -6.5t-8.5 -36.5q8 -51 45 -88q6 -6 11.5 -1t8.5 15t5 22.5t2 20.5z" />
<glyph unicode="t" horiz-adv-x="8372" d="M8114 862q33 -45 56.5 -104.5t31.5 -120.5q8 -53 8 -94v-33q-4 -66 -22 -127q-25 -80 -63.5 -146.5t-88 -117.5t-105.5 -89t-112 -63q-102 -45 -211 -63q-51 -8 -104 -8h-23q-45 0 -90 4q-80 10 -163 27.5t-164.5 48t-159.5 75.5t-146 109q-37 33 -70.5 66.5t-62.5 78.5 q-43 -12 -85 -22.5t-85 -18.5q-70 -12 -141 -12q-59 0 -119 8q-127 18 -255 52t-255 73t-256 59q-164 25 -327 25h-13l-315 -35q-86 -20 -169 -52t-163 -85q-55 -37 -106.5 -88t-89.5 -121q-18 -33 -34 -72t-28 -79q-4 -20 -6 -47t-10 -46q-6 -20 -11.5 -12t-9.5 27l-8 59 q-4 29 -14.5 53.5t-18.5 46.5q-20 47 -45.5 89.5t-54.5 76.5q-49 55 -105.5 96.5t-115 71t-120 49t-122.5 33.5q-154 37 -307 37l-21 -2q-164 -4 -327 -25q-129 -20 -256 -59t-254 -72q-127 -35 -254 -53q-59 -8 -119 -8q-70 0 -143 12q-43 8 -84 18.5t-84 22.5 q-31 -45 -65 -78.5t-70 -66.5q-70 -63 -147 -108.5t-157.5 -76t-163.5 -48t-163 -27.5q-45 -4 -90 -4q-63 0 -127 8q-109 18 -211 63q-57 25 -112.5 63t-103.5 89t-88 116.5t-65 147.5q-20 61 -22 127v31q0 49 6 98q10 63 32.5 120.5t55.5 102.5q35 45 83 75t97 32h12h4 q39 0 78 -21q45 -27 78 -88q18 -39 20 -88q0 -8 3 -16q0 -39 -17 -74q-10 -20 -24.5 -30.5t-29.5 -11.5t-30.5 6t-25.5 28q0 10 5 13t12 3h15.5h14.5q10 4 12 8q12 12 16 36t0 46q-8 45 -27.5 76t-45 45t-56 14t-57.5 -16q-35 -20 -58.5 -57t-39 -82t-22.5 -97.5t-7 -103.5 v-10q0 -104 27 -187q29 -88 74.5 -156.5t108 -118.5t129 -83t135.5 -50t132 -20q27 -2 51 -2q188 0 357 72q190 82 372 250q12 12 23.5 25.5t17.5 33.5l-112 80q-33 23 -43 62q-6 23 -6 47q0 16 4 33q6 39 27.5 71.5t52.5 42.5q12 4 28.5 5t32.5 -5q37 -12 65.5 -34.5 t49.5 -63.5q14 -29 16 -66v-8v-12q-4 -25 -11 -46.5t-15 -43.5q-4 -8 -5.5 -17.5t0.5 -17.5q4 -4 6.5 -4t6.5 -2q70 -23 141 -31q51 -6 100 -6h39q102 4 201.5 25.5t199 49t198 55.5t198.5 44q197 33 391 33q4 -2 8 -2q199 0 402 -29q94 -12 190 -42t178 -101 q61 -53 108.5 -133t67.5 -179q20 98 65.5 179.5t109.5 132.5q82 70 177 100.5t193 42.5q201 29 402 29q4 0 8 2q195 0 391 -33q100 -16 198.5 -44t197 -55.5t197.5 -49t202 -25.5q20 -2 41 0q51 0 100 6q72 8 141 31l11 6q4 8 3 17.5t-6 17.5q-8 23 -16 44t-10 46v12 q0 41 16 74q20 39 50 64.5t65 33.5q16 4 32.5 5t28.5 -5q29 -12 50.5 -45t27.5 -72q4 -14 4 -30q0 -27 -6 -49q-10 -39 -43 -60l-110 -80q4 -20 15 -33.5t25 -25.5q182 -168 371 -250q166 -72 357 -72q27 0 51 2q61 4 130.5 19.5t137.5 49.5t129 84t109.5 117.5t74.5 157.5 q27 84 27 187v10q0 51 -7 103.5t-22.5 97.5t-39 82t-58.5 57q-27 16 -55 16q-2 0 -4 3h-4q-25 0 -50 -15q-27 -16 -47 -47t-26 -76q-4 -23 -1 -46t17 -36q4 -4 10 -8q6 -2 14.5 -1t16.5 1t13 -4t5 -12q-10 -18 -25.5 -26.5t-30.5 -7.5t-29.5 12.5t-24.5 29.5q-16 35 -17 76 v14q4 49 23 88q31 61 78 88q37 20 78 21h4h12q49 -4 96 -33t82 -74zM1653 367q8 35 8 71q0 45 -12 86q-10 37 -31 59.5t-51 22.5q-29 -2 -41 -24q-8 -20 -8 -43q2 -6 2 -13q4 -33 14 -63.5t25 -44.5q2 -4 17 -14.5t31.5 -21.5t30 -16t15.5 1zM6664 367q2 -8 16.5 -2t31 17 t30.5 21.5t18 14.5q14 14 25 45q10 29 14 63q0 6 2 13q2 23 -8 43q-10 23 -41 24q-33 0 -53 -23.5t-31 -58.5q-12 -39 -12 -86q0 -36 8 -71z" />
<glyph unicode="u" horiz-adv-x="5191" d="M4975 647q2 -23 2 -47q0 -35 -2 -65q-6 -55 -27 -101q-39 -92 -88 -127q-18 -12 -37 -20q-16 -6 -37 0q-41 12 -59 92q-8 29 -8 45q0 4 2 10q2 8 0 19q4 39 16 65q12 29 29 39q12 10 35 -2q14 -8 24 -37q4 -16 4 -35q0 -12 -2 -26q-4 -18 -14 -25.5t-19 -3.5 q-10 4 -19 13.5t-17 19.5q-6 -20 -4.5 -45t10.5 -43q14 -29 37 -27h4q29 2 55.5 35t40.5 88q12 55 12 120.5t-14 117.5q-12 41 -31 71q-31 53 -33 53h-8q-109 0 -139 105q-12 45 -45 47h-4h-19q-45 0 -88 18q-4 2 -20 3q-43 0 -84 -9q-88 -16 -170 -59t-158 -137 q12 -70 25 -137q6 -41 8 -84q0 -29 -2 -60q-8 -84 -37 -144.5t-66 -97.5q-18 -20 -36.5 -32.5t-38.5 -14.5q-18 -2 -37 13q-16 12 -33 47q-12 25 -16 57q-6 35 -7 49v8q2 4 3 13q0 37 6 69.5t16 63.5q20 57 47 95t53 73q12 18 17 31q4 18 2 38.5t-10 34.5q-10 20 -25 33 q-18 12 -27 14q-45 12 -90 12.5t-88 -12.5q-84 -27 -168 -118q-14 -16 -30.5 -32t-30.5 -42l22 -72q10 -33 11 -57v-8q0 -20 -7 -41q-12 -49 -34 -86q-8 -14 -17.5 -30.5t-22 -29t-23.5 -16.5t-21 10q-20 25 -25 64q-2 12 -2 26q0 27 4 56q10 55 21 81q18 47 20 62 q2 10 -8 27q-6 18 -19 36q-18 27 -24 33q-10 16 -12 17q-33 35 -76 51q-29 12 -76 18q-12 2 -24 2l-56 -6q-39 -8 -78 -20q-164 -49 -317 -168q-53 -43 -104.5 -103.5t-83.5 -163.5l-3 -10q-2 -4 -2 -7t-4 -5q-2 -2 -4 -2q-4 0 -4 2q-4 2 -4 5t-2 7l-2 10q-33 102 -84 164 t-104 103q-139 109 -318 168q-39 12 -78 20q-29 4 -59 4l-21 -2q-39 -4 -76.5 -18.5t-74.5 -48.5q-4 -4 -14.5 -18.5t-22.5 -32t-21.5 -36t-5.5 -26.5q8 -25 21 -64q12 -37 20 -79q4 -33 4 -56q0 -12 -2 -26q-4 -39 -24 -64q-12 -12 -22.5 -9t-23 15.5t-21.5 28.5t-17 31 q-20 37 -35 86q-4 20 -6 41q0 27 10 65l23 72q-12 27 -29.5 42t-32.5 32q-84 90 -168 118q-43 12 -88 13q-55 0 -90 -13q-12 -4 -26.5 -14t-24.5 -33q-8 -14 -11 -35.5t3 -37.5q6 -18 16 -31q29 -35 53 -72q29 -41 47 -96q10 -31 16.5 -63.5t6.5 -69.5q0 -4 2 -13 q0 -29 -6 -57q-4 -33 -17 -57q-12 -33 -31.5 -47.5t-37.5 -12.5q-20 2 -39 14.5t-37 32.5q-37 37 -65.5 98.5t-36.5 143.5q-4 29 -2 60q2 43 8 84q12 70 24 137q-76 94 -157.5 137t-169.5 59q-47 8 -72 9h-14q-12 -2 -21 -3q-53 -4 -104 -21t-101.5 -53t-95.5 -96 q-18 -25 -34.5 -54t-28.5 -70q-14 -53 -14.5 -118t12.5 -120q12 -53 38.5 -88t57.5 -35h4q23 0 37 27q8 18 10 43.5t-4 44.5q-8 -12 -17.5 -21.5t-19.5 -11.5q-8 -4 -17.5 3t-15.5 26q-4 12 -2 26q0 18 4 35q8 27 25 37q18 12 34.5 1t28.5 -38q14 -35 17 -65v-19 q0 -29 -6 -55q-16 -72 -60 -92q-18 -8 -37.5 0t-35.5 20q-51 41 -88 127q-16 37 -27 101q-4 25 -2 49v16q0 23 2 47q4 57 19.5 103.5t37.5 85.5q37 66 85 101.5t98 57.5q109 49 219 49q41 0 82 -6q147 -25 299 -145q16 -14 30 -25q20 -16 31 -6q2 2 8 2q10 4 18.5 13.5 t16.5 17.5q57 61 127 68q20 2 43 2q45 0 88 -13q61 -16 123 -61q53 -39 113 -135q8 -12 14 -27.5t14 -23.5q4 -4 11.5 5l17.5 21t19.5 24.5t11.5 16.5q29 31 62.5 48.5t68.5 23.5q31 6 61 6l8 -2q35 0 68 -2q70 -8 133.5 -33t128.5 -57q78 -37 150.5 -92.5t142.5 -145.5 q16 -20 30.5 -47t24.5 -59q10 33 24.5 59.5t31.5 46.5q70 88 142.5 144.5t149.5 93.5q66 33 130.5 57.5t132.5 32.5q18 2 41 2h24q4 0 8 2q31 0 64 -6q35 -6 67.5 -23.5t63.5 -48.5q4 -4 12 -16.5t18.5 -24.5t18.5 -21.5t10 -4.5q8 8 14.5 22t14.5 29q51 90 113 135 q55 43 122 61q25 6 88 13q20 2 43 -2q66 -6 127 -68q6 -10 17 -16q12 -6 18 -15q4 -4 8 -2q16 -4 31 6.5t31 24.5q147 123 299 145q43 6 82 6q111 0 219 -49q49 -23 96 -58.5t86 -100.5q23 -37 38.5 -84.5t19.5 -104.5zM1225 547q-23 59 -53.5 96t-63.5 72q-20 -86 -27 -178 q-2 -18 0 -35q0 -74 25 -140q12 -33 28.5 -53t35 -26.5t35 5t28.5 46.5q12 37 14 86q-2 12 -2 22q-4 60 -20 105zM1692 494q-4 37 -14.5 61.5t-28.5 42.5q-12 -33 -15 -68q0 -12 -2 -22q0 -23 4 -45q4 -29 14.5 -42t22.5 -22q20 27 21 68q0 13 -2 27zM3504 463q4 20 4 45 q-2 12 -2 22q-4 35 -14 68q-18 -18 -29.5 -42t-13.5 -62q-2 -14 -2 -27q0 -41 20 -68q12 8 22.5 21.5t14.5 42.5zM4035 362q25 66 24 138v35q-6 94 -26 180q-31 -35 -63 -72t-54 -96q-20 -47 -23 -105v-22q0 -45 15 -86q12 -35 29.5 -46.5t35 -5t34 27.5t28.5 52z" />
<glyph unicode="v" horiz-adv-x="3653" d="M3324 979q43 -29 63 -76q18 -41 19 -86v-12q-4 -39 -21.5 -76t-46.5 -70q-35 -43 -77 -73.5t-89 -53.5q-53 -25 -111.5 -37t-115.5 -28l-8 -4q-4 -2 -14.5 -3t-20.5 -5q-8 -8 -15.5 -14.5t-11.5 -10.5l-8 -10q-49 -49 -103 -72.5t-110 -30.5q-20 -2 -39 -2q-37 0 -75 9 q-57 10 -111 28q-49 16 -97 38t-95.5 43.5t-95.5 37.5t-101 25q-29 4 -53 6q-25 -2 -48 -6q-53 -6 -94 -35q-25 -14 -47 -55q16 -27 17 -50q0 -6 -3 -14q-4 -29 -28 -47l6 -12q-4 0 -18 4q-16 -4 -21 -4q4 4 6 12q-10 8 -17 21.5t-9 25.5q-4 18 0 33.5t12 30.5 q-16 33 -47 55q-45 29 -94 35q-25 4 -48 6l-53 -6q-53 -8 -101 -24.5t-95.5 -37t-94.5 -43t-96 -39.5q-55 -20 -113 -28q-37 -6 -75 -9q-18 0 -37 2q-55 4 -109.5 29t-103.5 74l-10 10l-25 25l-35 8l-10 4q-57 16 -115.5 28.5t-109.5 36.5q-98 45 -168 127q-27 33 -45.5 70 t-22.5 76q-2 10 0 18q0 41 19 80q23 47 63 76q41 29 94 33h17q43 0 80 -21q18 -10 33.5 -23.5t23.5 -33.5q8 -18 6 -40t-18 -36q-8 -8 -21.5 -10t-25.5 0l-17.5 7t-15.5 11q-4 8 -6 17.5t12 13.5q8 4 14 -8q4 -4 4 -7t2 -8q6 -8 17 -6q10 2 17 11.5t9 17.5q4 20 -5 38.5 t-27 31.5q-27 14 -54 14q-16 0 -32 -2q-45 -12 -76 -51q-37 -45 -43 -107q-2 -12 -2 -22q0 -49 20 -94q23 -53 67 -94.5t97 -65.5q53 -27 110.5 -39t116.5 -19q-12 29 -12 64v22q6 45 33 80q27 37 65.5 58.5t81.5 27.5q12 2 25 2q41 0 74 -20q23 -14 37 -37q12 -18 12 -41 v-8q-4 -33 -30 -57.5t-52 -40.5q-78 -45 -164 -72q18 -43 55 -70.5t82 -40.5q43 -14 88 -14h11q41 0 81 8q70 12 137.5 40t134 55.5t135.5 50t140 26.5h19q47 0 100 -16q59 -18 105 -60q41 43 100 60q51 14 102 16h19q72 -4 140.5 -26.5t136 -50t134 -54.5t138.5 -41 q45 -8 91 -8t89 14q43 12 80 40t55 71q-43 12 -84 29.5t-78 42.5q-29 16 -53 41q-23 23 -29 57q-4 27 8.5 49.5t36.5 36.5q35 20 74 20q12 0 27 -2q45 -4 82.5 -25.5t64.5 -60.5q23 -39 31 -82q2 -12 2 -24q0 -31 -10 -60q57 4 114.5 17.5t112.5 40.5q53 27 97 66.5t67 93.5 q18 45 18 94v22q-4 61 -43 107q-29 37 -78 51q-16 4 -32 4q-29 0 -54 -16q-16 -12 -26 -31q-14 -25 -6 -39q4 -8 10 -16q4 -10 16 -13q8 -2 17 6q4 4 4 8.5t4 6.5q2 12 14 8t10 -12q0 -12 -6 -19q-8 -8 -16 -10q-10 -4 -19 -8q-25 -12 -43 10q-16 12 -19 34.5t5 41.5 q8 20 23.5 33.5t33.5 23.5q39 20 82 21h17q51 -4 92 -33zM680 496q2 -2 4 0q12 -4 30.5 6t28.5 12q25 12 48.5 23.5t46.5 25.5q16 10 31.5 21.5t23.5 29.5q4 12 4 29q0 12 -2 25q-8 29 -35 39q-8 4 -16 4h-17q-37 -2 -70.5 -16.5t-56.5 -43.5q-20 -25 -26 -54.5t-6 -59.5 q0 -8 1 -22.5t11 -18.5zM2863 496q8 4 10 18t2 23q-2 31 -8 60.5t-26 53.5q-23 29 -58 43.5t-67 16.5q-8 0 -16.5 -1t-16.5 -3q-27 -10 -35 -39q-4 -12 -4 -25q0 -14 6 -29q8 -18 23.5 -29.5t29.5 -21.5q23 -14 46.5 -25.5t48.5 -23.5q10 -4 29.5 -13t29.5 -5q4 -2 6 0z" />
<glyph unicode="w" horiz-adv-x="1652" d="M1434 287q-6 -16 -28 -25.5t-40 0.5q-23 10 -35 33.5t-16 50.5q-2 12 -2 25q2 27 10 53q12 39 37 68q27 29 61 45q16 8 39 10q16 0 33 -6q25 -8 44 -23.5t36 -36.5q61 -78 65 -147q0 -10 2 -19q0 -59 -28 -106q-33 -55 -95.5 -94t-136.5 -54q-39 -8 -77 -8q-33 0 -70 6 q-78 12 -139 60q-18 14 -37 26.5t-41 8.5q-16 -2 -29.5 -13.5t-25.5 -21.5q-39 -37 -93 -53q-43 -14 -90 -15q-8 2 -16 2q-53 4 -105.5 24.5t-89.5 61.5q-10 10 -19 19.5t-24 11.5q-14 2 -26.5 -5t-22.5 -18q-43 -35 -94 -62.5t-107 -31.5q-12 -2 -24 -2q-45 2 -88 19 q-49 18 -84 71q-18 29 -19 66v8v6q0 31 19 60q20 33 49 47q16 8 35 6q18 0 39 -6q35 -12 55 -45q16 -29 16 -56v-12q-6 18 -23.5 27.5t-36.5 8.5t-37.5 -11.5t-24.5 -28.5q-6 -14 -7 -27q0 -25 17 -49q25 -37 63 -47q23 -8 47 -8q16 0 33 4q41 8 78 25q35 16 65.5 40.5 t34.5 61.5q2 20 -4 39.5t-14 40.5q-10 25 -21.5 77t-18.5 114.5t-7 129t13 118.5t46 85q27 27 68 27h6h12q29 -2 49.5 -19.5t32.5 -43t18.5 -55.5t6.5 -58q0 -125 -47 -242q-18 -47 -39 -96q-12 -33 -13 -66q0 -18 4 -35q10 -47 46 -80.5t83 -48.5q37 -10 74 -10h21 q47 4 94 18q31 10 58.5 29t31.5 51q4 20 -4 39t-19 37q-53 98 -73 209q-12 66 -13 131q0 45 7 92q4 31 14 64t27.5 59.5t42 44t55.5 17.5q33 0 58.5 -18.5t43 -46.5t27.5 -63.5t12 -68.5q2 -27 2 -51q-2 -74 -14 -144q-16 -94 -57 -184q-10 -23 -19.5 -48.5t0.5 -47.5 q8 -20 29 -37q68 -63 162 -84q39 -8 77 -8q53 0 104.5 16.5t82.5 44.5q29 29 40 69t11 81q-4 47 -21.5 91t-58.5 69q-27 16 -61 16q-14 0 -27 -2q-49 -10 -70 -53q-10 -20 -3 -43t22.5 -40.5t36 -23.5t41.5 4q4 -12 -2 -20zM1040 852q-41 -18 -56 -48t-19 -67q0 -10 -1 -17 t-1 -15q-8 -55 -9 -109q0 -43 4 -86q12 -96 48 -188q4 -14 10 -26.5t22 -19.5q29 33 41.5 56.5t22.5 62.5q12 53 20 107.5t13 111.5v23q0 45 -7 92q-8 41 -27.5 72t-60.5 51zM547 303q16 20 18 25q14 33 26.5 65.5t24.5 67.5q23 66 27 133q2 18 2 39q0 49 -8 96q0 23 -14 41 q-10 16 -18.5 32.5t-31.5 12.5t-33 -21.5t-14 -35.5q-18 -72 -24 -154q-2 -23 -2 -43q0 -37 4 -76q8 -59 20 -118q4 -14 9.5 -27.5t13.5 -36.5z" />
<glyph unicode="x" horiz-adv-x="1525" d="M453 420l6 -2v4l-2 2zM80 254l-2 6q-2 0 -4 -2q2 -2 2 -4h4zM502 426q-31 -43 -31 -80q0 -31 20.5 -55.5t51 -31.5t43.5 24q8 20 10 43q2 10 -2 22q-8 37 -47 62q-10 4 -20.5 8t-24.5 8zM422 442q-16 8 -48 8.5t-62.5 -12t-50 -26t-46.5 -30.5t-59 -54q-59 -68 -60 -146 q0 -33 10 -67q25 -92 105 -113q14 -4 29 -4q72 0 135 92q18 29 18 55q0 18 -8 37q-12 27 -35 19q-31 -10 -31 -27q0 -8 1.5 -22.5t-13 -11.5t-16.5 11.5t1 33t36.5 36.5t59.5 -10.5t32 -51t-2 -57.5q-33 -115 -144 -135q-31 -6 -59 -6q-78 0 -135 49q-49 45 -53 117v12 q0 102 63 178q119 137 287 154q12 0 22.5 2t26.5 2q25 0 31 10q195 207 415 226q39 4 76 4q160 0 307 -58q68 -27 134 -79q76 -61 90 -148q6 -25 6 -51q0 -115 -115 -260q-90 -113 -215 -113q-45 0 -94 14q-14 4 -27 9q-14 2 -35 10q-88 35 -102 125q-2 16 -2 33 q0 57 33 104q43 61 92 90q43 25 86 25q12 0 24 -2q86 -10 123 -90q8 -18 9 -37q0 -27 -19 -49q-29 -41 -74 -41h-4q-41 0 -53 22q-4 6 -4 14.5t4 16.5q10 18 19.5 11t12.5 -13t13 -14.5t25 2.5q14 6 24.5 24.5t10.5 37.5t-16.5 34.5t-37.5 23.5q-31 12 -61 13h-17 q-78 -12 -110 -111q-10 -31 -10 -55q0 -39 24 -72q39 -49 84 -65q31 -8 62 -9q14 0 28 2q94 12 170 84q78 76 78 176q0 18 -2 37q-23 193 -264 275q-39 12 -103 31q-57 16 -143 16h-18q-102 -2 -164 -35q-117 -61 -191 -151q-10 -12 -14 -29q6 -16 18.5 -20.5t22.5 -8.5 q70 -39 70 -108q0 -10 -2 -23q-4 -35 -28 -56.5t-50 -19.5q-59 4 -86 23q-57 37 -58 94q0 18 7 37q4 16 8 30.5t8 30.5z" />
<glyph unicode="y" horiz-adv-x="1748" d="M1092 942q8 4 14 10t14 15q23 29 44.5 59.5t45.5 58.5q-78 23 -153.5 46.5t-153.5 46.5q-53 14 -108.5 28.5t-110.5 24.5t-111 12h-16l-94 -8q-41 -8 -81 -25.5t-63 -52.5q-12 -18 -16 -38.5t-2 -41t12.5 -39t27.5 -29t38 -10.5q8 0 14 2q29 4 47 27q8 10 12.5 24.5 t1.5 27t-12.5 19.5t-27.5 1q4 10 13 16t22 6q18 0 30.5 -17.5t9.5 -35.5q-4 -20 -17 -37.5t-31.5 -30t-45 -19.5t-53.5 -7t-51.5 8t-38.5 31q-29 39 -29 84v12q4 53 43 88q37 37 88.5 50.5t102.5 17.5q23 2 49 2q70 0 139 -13q94 -14 188.5 -37.5t186.5 -52t186 -51.5 q12 -4 21 0q8 2 14 5t10 9q37 37 80 67t92 50q47 23 99 29q25 4 47 4l53 -6q29 -4 59 -21q33 -18 33 -55q0 -27 -20 -47q-23 -23 -49 -35q-70 -33 -148 -41h-49q-70 0 -102 8q-16 4 -31 4q-16 4 -30.5 -4t-18.5 -12q-8 -8 -15 -16q-53 -59 -90 -133q68 -23 129.5 -53.5 t116.5 -73.5q53 -45 90 -107q37 -59 43 -129q2 -12 2 -29q0 -41 -12 -79q-14 -53 -41 -105q-29 -53 -70 -100t-90 -84t-105.5 -61.5t-117.5 -35.5q-35 -6 -68 -6q-10 2 -22 0q-45 4 -88 21q-55 23 -92 74t-43 110q-2 12 -2 25q0 47 20 92q27 57 76 92q31 23 67 33q20 4 39 4 t37 -4q37 -10 63.5 -39t30.5 -66v-8q0 -31 -22 -61q-27 -33 -64 -35q-14 0 -28.5 8t-20.5 21q-4 14 9.5 26t25.5 2q8 -6 12 -17t15 -16q12 -2 24 14.5t14.5 36t-3 38t-18.5 35t-30 24.5q-18 6 -37 6l-53 -14q-45 -27 -67 -70q-35 -53 -39 -119v-10q0 -57 32 -104 q33 -43 87 -62q39 -14 79 -14q12 2 27 2q53 6 102.5 30.5t90.5 57.5q43 35 79.5 76t59.5 94q18 45 23 95t5 100v30q0 29 -2 58q-4 43 -20 84q-29 70 -93.5 113.5t-135.5 66.5q-8 4 -15.5 5t-15.5 1q-16 -4 -27.5 -16.5t-19.5 -24.5q-47 -74 -116 -127t-151 -84 q-29 -10 -59 -14q-16 -4 -30.5 -3t-30.5 3q-29 6 -54.5 25.5t-33.5 47.5q-4 16 -5 29q0 29 19 53q27 41 63 70q76 55 166 78q59 14 121 14q33 0 66 -4q8 0 17 -1t17 3h5zM1071 913q-8 4 -16 5.5t-17 3.5h-30q-53 0 -103 -9q-66 -12 -125 -45q-31 -18 -58.5 -45.5 t-35.5 -66.5q-4 -14 -2 -35q2 -12 2 -25q4 -33 35 -45q14 -4 30.5 -3t32.5 5q37 8 70 21.5t64 38.5q37 29 66.5 63.5t55.5 75.5q10 12 18.5 26.5t12.5 34.5zM1300 1108q4 -4 9 -4q23 -2 43 -4t43 -2q29 2 57 6q20 4 41 2h16q37 0 66 16.5t57 40.5q25 20 25 47q0 23 -21 31 q-41 14 -77 14h-6.5h-6.5h-6h-4h-4q-31 0 -78 -26q-33 -18 -51 -31q-25 -16 -49 -35q-16 -12 -31 -23.5t-23 -31.5z" />
<glyph unicode="z" horiz-adv-x="1953" d="M274 530l2 2t0 11q-2 27 -16 45q-8 12 -24 12q-8 0 -21 -4q-27 -10 -45 -35q-16 -23 -29 -53q-10 -27 -10 -55v-11q0 -31 19 -55q20 -27 58 -39t80 -12t82 11t66 28q23 14 45.5 27.5t42.5 31.5q-6 10 -13 21.5t-15 21.5q-20 25 -21 49q0 27 17 49q12 23 34.5 38.5 t44.5 17.5q6 2 11 0q16 2 32 -8q20 -12 29 -45q4 -16 4 -29q0 -8 -2 -17q-4 -18 -18 -34q-6 -8 -14.5 -15.5t-14.5 -15.5q-4 -6 -8 -11t-6 -10q4 -10 12 -13t16 -5q37 -10 74 -10q2 2 4 0q39 0 78 7t78 17.5t76 22.5q55 14 108 30.5t107.5 33t107.5 30.5q45 12 111 23 q68 10 139 10h18q12 2 41 0q133 -12 197 -29q45 -12 88 -35.5t64 -64.5q12 -25 12 -51q0 -31 -14 -64q-12 -27 -34 -50.5t-50 -35.5q-25 -10 -50 -12h-10q-23 0 -39 10q-25 14 -30 43q-2 6 0 12q0 20 14 33q8 8 16 6q12 0 15.5 -7t4.5 -17.5t1 -21.5v-15q0 -16 7 -22.5 t16.5 -7.5t20.5 2t19 9q23 14 37 37q12 20 16 51q2 8 3 19v4v4q0 33 -21 62q-29 39 -61 59q-39 23 -86.5 35t-87.5 16q-35 4 -68 4q-31 0 -61 -2q-63 -6 -127 -21.5t-126.5 -35t-123.5 -39.5q-63 -20 -125 -38.5t-123.5 -29t-124.5 -12.5h-27q-78 2 -147 27 q-6 -2 -14.5 -6.5t-14.5 -8.5q-20 -16 -43.5 -28.5t-46.5 -24.5q-51 -31 -111 -33h-16q-53 0 -100 13q-47 10 -82 38.5t-49 77.5q-4 16 -4 34t6 34q10 33 31.5 59.5t52 43t65.5 16.5q18 0 37 -5.5t31 -19.5t15 -33.5t-1 -38.5q-2 -12 -6 -23t-12 -20q-12 -12 -24.5 -11 t-21 8.5t-9.5 17.5t14 16q6 4 14 4t14 6zM592 606q-25 -12 -35 -31.5t-12 -44.5q-2 -16 -3 -32.5t11 -32.5q27 12 39 32.5t22 43.5q6 12 2 22q-2 10 -7 22.5t-17 20.5z" />
<glyph unicode="&#x2000;" />
<glyph unicode="&#x2001;" horiz-adv-x="1436" />
<glyph unicode="&#x2002;" />
<glyph unicode="&#x2003;" horiz-adv-x="1436" />
<glyph unicode="&#x2004;" horiz-adv-x="478" />
<glyph unicode="&#x2005;" horiz-adv-x="359" />
<glyph unicode="&#x2006;" horiz-adv-x="239" />
<glyph unicode="&#x2007;" horiz-adv-x="239" />
<glyph unicode="&#x2008;" horiz-adv-x="179" />
<glyph unicode="&#x2009;" horiz-adv-x="287" />
<glyph unicode="&#x200a;" horiz-adv-x="79" />
<glyph unicode="&#x202f;" horiz-adv-x="287" />
<glyph unicode="&#x205f;" horiz-adv-x="359" />
<glyph unicode="&#x25fc;" horiz-adv-x="716" d="M0 717h717v-717h-717v717z" />
</font>
</defs>
</svg>
