<?xml version="1.0" standalone="no"?>
<!DOCTYPE svg PUBLIC "-//W3C//DTD SVG 1.1//EN" "http://www.w3.org/Graphics/SVG/1.1/DTD/svg11.dtd" >
<svg xmlns="http://www.w3.org/2000/svg" xmlns:xlink="http://www.w3.org/1999/xlink" version="1.1">
<metadata></metadata>
<defs>
<font id="butterscotchcatchwordsregular" horiz-adv-x="2048" >
<font-face units-per-em="2048" ascent="1638" descent="-410" />
<missing-glyph horiz-adv-x="500" />
<glyph horiz-adv-x="0" />
<glyph unicode="&#xd;" horiz-adv-x="681" />
<glyph horiz-adv-x="2387" />
<glyph horiz-adv-x="2387" />
<glyph unicode="A" horiz-adv-x="1896" d="M682 737q-37 -33 -66.5 -61.5t-58.5 -57.5q-10 -8 -20.5 -17t-22.5 -17q-18 -12 -31 -13q-16 0 -28.5 16.5t-6 30t20.5 23.5q39 37 78 73t82 68q78 61 155.5 122t159.5 122q12 8 23.5 14.5t26 10.5t28.5 1t20 -24q4 -12 -3 -28.5t-23 -24.5q-33 -20 -64.5 -37.5 t-64.5 -40.5q-23 -16 -45.5 -35.5t-44.5 -40.5q-8 -8 -10.5 -20.5t-4.5 -26.5q-8 -63 -8 -125q0 -74 12 -145q20 -133 54 -266q4 -18 9 -36t7 -34l-2 -10q-16 -8 -33.5 -17.5t-40.5 -21.5q-14 25 -22 49.5t-11.5 50t-6.5 51t-9 49.5q-10 51 -17 100.5t-14 100.5 q-6 53 -10 104.5t-8 112.5zM1219 690q18 -4 35.5 -7t35.5 -7q-8 -12 -11 -20.5t-9 -12.5q-31 -29 -31 -65q0 -12 2 -27q10 -35 16.5 -70t12.5 -67q4 -18 6 -36l4 -36q-18 -12 -34.5 -20.5t-37.5 -20.5q-10 14 -14 30.5t-4 33t-2 33t-6 32.5q-10 31 -14.5 62.5t-10.5 66.5 q-18 -12 -33.5 -21.5t-29.5 -17.5q-23 -14 -36.5 -23.5t-18.5 -21.5t-4 -29.5t7 -44.5q6 -29 11.5 -59.5t11.5 -58.5q-18 -8 -33.5 -16.5t-34.5 -18.5q-6 8 -12 14t-8 14q-4 8 -6 16.5t-2 16.5q-12 104 -24.5 209t-24.5 209v8q0 31 34 39q18 4 28.5 -6t12.5 -23 q8 -31 12.5 -62.5t10.5 -64.5l8 -40q29 16 55.5 30.5t55.5 30.5q-4 53 -8.5 106.5t-8.5 108.5q12 4 19.5 7t13.5 3q29 4 37 -3t10 -36q4 -23 5 -46t5 -48q2 -10 3.5 -20.5t5.5 -20.5zM1315 840q-8 0 -15.5 -1t-15.5 1q-23 4 -32 22.5t5 40.5q6 10 15.5 18.5t19.5 16.5 q86 61 193 90q12 4 28.5 1t38.5 -5q-18 -29 -40.5 -46t-46 -30.5t-47 -26t-40.5 -28.5q12 -47 23.5 -91t25.5 -93q29 12 50.5 24t44.5 25l14 7l14 7q12 6 27.5 11t28.5 -13q10 -18 1.5 -31.5t-18.5 -21.5q-45 -43 -94 -74q-20 -14 -32.5 -25.5t-16.5 -23.5t0 -28.5t14 -41.5 q2 -4 4 -7t6 -11q12 4 25.5 8t26.5 10q27 12 52 25.5t52 28.5q14 8 29.5 10t27.5 -21q-23 -53 -67.5 -79.5t-91.5 -51.5q-12 -6 -27.5 -11t-30.5 -9q-14 -2 -26 -2q-20 0 -35 8q-20 12 -27 47q-12 78 -26.5 152.5t-28.5 152.5q-4 14 -4 30t-4 36zM1425 1434q20 0 38 -14.5 t20 -28.5q2 -18 -11.5 -30.5t-35.5 -19.5q-47 -8 -93.5 -17t-91.5 -19q-47 -12 -94 -25.5t-92 -32.5q-98 -37 -194.5 -74.5t-190.5 -78.5q-47 -20 -90 -46t-86 -51q-25 -12 -50.5 -25.5t-50.5 -25.5q-23 -12 -45 -26.5t-45 -28.5q-12 -8 -27.5 -16.5t-31.5 -12.5 q-20 -8 -37.5 -1t-23.5 26q-6 16 1 32.5t27 26.5q70 35 137 64q88 39 173 77.5t176 75.5q80 35 158.5 69t160.5 64q86 33 173 59.5t173 57.5q14 4 27.5 10.5t25.5 10.5zM1706 303q2 -18 -11.5 -35.5t-29.5 -21.5q-98 -16 -187 -55t-182 -72q-29 -10 -54 -28.5t-52 -31.5 q-45 -25 -92 -48l-94 -46q-6 -4 -13.5 -5t-11.5 -5q-27 -25 -55.5 -44.5t-59 -35.5t-61.5 -33.5t-60 -36.5q-20 -12 -37.5 -8t-27.5 25q-10 18 -3 34.5t32 26.5q90 47 179 96.5t181 96.5q72 37 144.5 68.5t146.5 64.5l250 113l22 11t25 7q20 4 34.5 -7.5t16.5 -29.5z" />
<glyph unicode="B" horiz-adv-x="2117" d="M213 623q-2 16 -2 34q0 39 10 76q16 53 39 107q41 94 94.5 179t126.5 157q53 53 118 88.5t132 68.5q143 72 301 82q45 2 89 7t89 10q20 2 41 2q49 0 95 -13q63 -20 122 -59q29 -20 58 -27q119 -29 182 -135q37 -61 69.5 -124.5t63.5 -129.5q41 -86 53.5 -178t12.5 -184 q-2 -102 -38 -193.5t-91 -173.5q-12 -20 -23.5 -39.5t-23.5 -40.5q-37 -68 -90.5 -116t-116.5 -84q-111 -66 -229.5 -104t-247.5 -38q-160 0 -303.5 51.5t-262.5 159.5q-109 102 -177 225t-79 277q-4 29 -6 57.5t-6 57.5zM1823 594q0 68 -8.5 132.5t-30.5 127.5 q-29 84 -73 157.5t-91 147.5q-20 33 -51 60.5t-68 35.5q-25 6 -44 16.5t-42 18.5q-47 23 -106 41q-45 12 -86 15q-18 0 -37 -3q-61 -8 -121 -16q-117 -12 -223.5 -51t-204.5 -109q-29 -20 -59.5 -38.5t-51.5 -51.5q-31 -49 -64.5 -96t-64.5 -98q-74 -123 -73 -271v-28 q4 -127 52 -234.5t122 -206.5q59 -78 141 -123q84 -49 174 -81.5t193 -36.5q29 -2 57 -4q12 -2 27 0h34q86 10 168 34.5t158 67.5q53 31 106.5 64.5t88.5 89.5q33 51 64.5 102t57 104.5t41 112t15.5 121.5zM1202 369q-20 16 -26.5 37.5t-8.5 45t-7 47t-19 46.5 q-23 -12 -45.5 -24.5t-40.5 -26.5q-8 -8 -12.5 -23.5t-2.5 -28.5q4 -29 9.5 -57.5t7.5 -56.5q-4 -4 -5 -8.5t-5 -4.5q-12 -8 -22.5 -20t-31.5 -4q-18 8 -23 24.5t-7 32.5q-14 96 -28.5 191.5t-29.5 191.5q-4 12 -7 22.5t-7 20.5v8q0 29 31 41q18 4 31.5 -2t19.5 -22 q10 -35 20.5 -70t18.5 -70q4 -14 7 -29.5t5 -35.5q29 10 54.5 18.5l49.5 16.5q10 37 11 71v11q-2 39 -6 80v14q0 23 10 35q12 16 41 14q18 -2 28.5 -11t12.5 -28q2 -29 3 -57.5t5 -57.5q4 -14 8 -28.5t8 -28.5q4 -6 7.5 -13t-1.5 -14q-4 -20 -4 -38q0 -16 2 -33 q8 -35 15 -68q2 -4 2 -6t2 -6q4 -27 4 -42t-8 -25.5t-23.5 -16.5t-42.5 -12zM993 997q-4 -29 -21.5 -40t-35.5 -19q-45 -20 -87 -43t-85 -47q-27 -14 -27 -41v-10q4 -12 6 -25q0 -10 2 -27q23 -113 33 -184q8 -61 8 -127v-20v-41q-2 -23 3.5 -48.5t5.5 -50.5q0 -12 -5.5 -23 t-13.5 -20q-12 -12 -24.5 -10t-20.5 17q-6 12 -11 24t-7 25q-4 37 -6 73.5t-7 73.5q-8 63 -19 127t-22 127q-4 23 -8 47.5t-10 52.5q-37 -20 -69.5 -37.5t-65.5 -33.5q-12 -8 -26.5 -15.5t-30.5 -11.5q-14 -4 -30 -7t-26 17q-6 14 1 34t22 30q31 20 65 39q78 41 157 82 t157 82q39 18 79 28q35 10 72 11h10q8 0 16.5 -2.5t20.5 -6.5zM1470 504q55 6 109 16q14 4 27.5 3t21.5 -19q10 -20 0 -30.5t-22 -18.5q-35 -29 -76 -37q-25 -4 -53 -4h-35q-31 4 -53.5 27.5t-24.5 58.5q-6 84 -12 166t-11 165q0 10 2.5 21.5t10.5 19.5q45 37 97 61.5 t112 29.5q8 0 16 -4.5t16 -6.5v-4v-3v-3q0 -39 -41 -55q-14 -8 -29.5 -15.5t-29.5 -15.5q-23 -14 -36 -26.5t-18 -27t-3 -34.5t12 -51l98 16q23 4 40.5 -4t23.5 -22q4 -14 -7.5 -34t-33.5 -28q-16 -4 -32.5 -7t-33.5 -11q-33 -12 -41 -24.5t-6 -47.5q2 -12 5 -23.5t7 -27.5z " />
<glyph unicode="C" horiz-adv-x="2912" d="M1520 805q-51 -23 -89 -61.5t-71 -81.5q-68 -96 -119 -203t-82 -223q-4 -16 -11 -33t-24 -21q10 111 18.5 219.5t16.5 219.5l-239 -375q-23 -37 -51.5 -72t-73.5 -47q-12 -4 -26.5 -5t-27.5 5q-23 10 -33 33.5t-14 46.5q-12 61 -12 125q0 39 4 78q-43 -53 -73.5 -116 t-63.5 -124t-74 -113.5t-102 -83.5q-31 14 -31 47q78 33 131 96.5t90 135.5q39 72 71 148.5t79 144.5q-47 -4 -91 -21.5t-92 -21.5q-25 -2 -50 6t-45.5 22.5t-33 35t-8.5 42.5q33 -31 74 -47q43 -16 86 -20q16 -2 18 -2q31 2 64 10q41 12 72 39q37 35 55 82t31 96 q4 12 8 23.5t14 19.5q10 10 23.5 8t21.5 -12q6 -10 5 -18.5t-3 -18.5q-10 -33 -17 -63.5t-18 -63.5q174 100 314 229q16 14 29.5 29.5t23.5 36.5q10 23 11 49.5t1 52.5q0 133 31 256q6 25 14.5 51.5t24.5 43.5q10 10 28.5 16t34.5 2q18 -4 24.5 -14.5t6.5 -24.5t-4 -28.5 t-6 -24.5q-4 -29 -10.5 -59.5t-12.5 -61.5q-4 -23 -10 -47.5t-12 -46.5q-2 -6 -5 -20.5t-6.5 -30t-7.5 -27.5t-10 -16q86 53 165 111.5t165 105.5q86 49 184 77q66 18 135 19q35 0 70 -4q33 -4 63.5 -16.5t53.5 -38.5q20 -23 20 -54q0 -41 -33 -53q2 6 2 18q0 29 -22 56 q-29 35 -68 49q-29 10 -57 10h-22q-41 -4 -76 -16q-141 -41 -259 -119t-229 -168q-37 -29 -70.5 -61.5t-54.5 -75.5q-12 -29 -18 -58.5t-10 -58.5q-10 -70 -17.5 -138.5t-11.5 -139.5q61 111 132 216t173 179q16 12 35.5 21.5t42.5 -1.5q23 -10 26 -28.5t-3 -36.5 q-20 -59 -35 -116.5t-17 -121.5q-2 -29 8.5 -58.5t38.5 -33.5q14 0 31 6q45 16 83 44t67 63q2 2 -7.5 22.5t-11.5 24.5q-10 37 -10 74q0 39 8 86q8 41 17.5 82.5t29.5 78.5q14 29 37 49.5t57 22.5q25 0 39 -14q10 -12 15.5 -28.5t6.5 -35t0 -36t-3 -29.5q-4 -35 -14.5 -67 t-26.5 -60q-10 -16 -21.5 -34t-15.5 -40q-6 -20 -1 -42t24 -38q23 -18 52 -14t52 16q59 31 105.5 76t93.5 90q55 51 115.5 96t125.5 84q33 18 68 35.5t70 32.5q27 10 53 21.5t55 15.5t51 -11q39 -23 39 -69q0 -37 -14 -66q-6 -14 -15.5 -26.5t-25.5 -16.5q-14 -6 -31.5 0 t-23.5 23q14 -4 26.5 2t19.5 18.5t7 26.5t-8 27q-18 27 -50 26h-6q-35 -4 -63 -14q-229 -86 -399 -254q-37 -35 -73 -73t-79 -66q-43 -31 -96 -43q-25 -6 -47 -5l-60 9q-12 4 -23.5 7t-23.5 3q-10 -2 -18.5 -7t-16.5 -9q-31 -23 -59.5 -47.5t-65.5 -36.5q-18 -6 -39 -7 q-20 2 -41 7q-45 12 -59 47q-8 18 -8 37.5t2 37.5q4 59 11.5 117t17.5 115zM1147 754q0 8 -6 12q-72 -39 -141.5 -76t-139.5 -76q-14 -8 -27.5 -16t-23.5 -18q-16 -16 -24.5 -36t-14.5 -42q-16 -47 -28.5 -94.5t-16.5 -96.5q-4 -29 1 -60.5t28 -57.5q25 -29 55 -23 q23 6 35 27.5t22 38.5q27 41 54 88q59 102 117.5 203.5t107.5 211.5q2 5 2 15zM1917 975q-29 6 -40 -7.5t-17 -29.5q-12 -29 -22.5 -60.5t-16.5 -64.5q-4 -16 -4 -31q0 -43 28 -94q23 33 35 68t23 69q10 35 14 72q2 16 4 35q0 20 -4 43zM1339 1337q-23 -16 -26.5 -37.5 t-7.5 -39.5q-6 -29 -5.5 -45.5t5.5 -45.5q8 43 22 80q12 31 12 76v12zM2722 1010l4 -4v4h-4z" />
<glyph unicode="D" horiz-adv-x="2197" d="M1616 356q4 2 6 2t6 4q35 47 61.5 96.5t43.5 104.5q6 16 6 37t-2 39q-4 37 -39 47q-14 4 -23.5 -4t-19.5 -18q-6 -8 -13 -17q-4 -4 -10 -18q-27 -55 -39 -113q-6 -29 -6 -61v-17q0 -20 2 -43q2 -14 6.5 -24.5t20.5 -14.5zM754 401q41 61 49 129q6 53 6 109v29q0 4 -3 6 t-5 4q-20 -2 -56 -12.5t-76 -24.5t-77 -28.5t-55 -24.5q-12 -51 -23.5 -102.5t-17.5 -104.5q-4 -39 -4 -78v-24q2 -53 18 -109q37 -10 62.5 0t48.5 33q18 20 34.5 42.5t32.5 45.5q18 29 33 56t33 54zM936 932q-8 -39 -13 -77t-12 -75q4 -4 9 -6q4 6 8 11.5t6 11.5 q27 70 52.5 138.5t49.5 139.5q4 6 3 14.5t-1 16.5q-20 4 -28.5 -5t-14.5 -20q-43 -69 -59 -149zM2185 600v-10q4 -29 -22 -58q-31 -35 -56 -55l-252 -196q-33 -27 -67.5 -51.5t-75.5 -34.5q-27 -8 -53 -9q-16 -2 -33 2q-45 8 -72 39q-63 -41 -137 -65q-43 -14 -84 -15 q-31 0 -61 9q-18 4 -35.5 12t-30.5 25q-18 20 -22 47.5t-2 56.5q4 158 69 307q-10 10 -23.5 6t-23.5 -10q-135 -80 -234.5 -199.5t-152.5 -267.5q-4 -10 -9 -20.5t-15 -16.5q-10 -8 -22.5 -5t-14.5 15q-2 4 2 17q33 104 33 211q0 31 -3 61q-37 -41 -61.5 -90t-58.5 -90 q-33 -43 -86 -68q-29 -14 -56 -14q-25 0 -47 10q-27 12 -43 35t-25.5 50.5t-12.5 58t-5 59.5q-35 -29 -48 -69.5t-30 -81.5q-33 -88 -94 -158q-16 -16 -40.5 -26.5t-39.5 9.5q39 14 69 43t53.5 65t41 76t33.5 79q25 63 45 126.5t25 129.5q-55 -14 -111.5 -28.5t-114.5 -31.5 q-14 -4 -28.5 -5t-26.5 5q-14 6 -17.5 21.5t7.5 23.5q8 4 16 4t17 -2q25 -4 47 -4l67 8q57 14 113 33q33 10 51 27q14 18 21 35q12 31 22 62.5t22.5 62t29 57.5t42.5 45q8 8 21 6q14 -2 16 -17.5t-2 -27.5q-10 -45 -19.5 -88t-19.5 -88q109 18 205 55q25 6 35 21q8 6 10 15 t6 20q16 70 34.5 138t35.5 136q8 33 20.5 64.5t38.5 52.5q20 16 47 16q8 0 17 -2q37 -6 45 -39q4 -20 -6 -53q-25 -76 -48.5 -150.5t-48.5 -150.5q256 53 494 147q27 10 53.5 18.5t54.5 6.5q29 -4 52.5 -22.5t23.5 -47.5q-18 -10 -37.5 0t-38.5 21q-23 8 -45 8 q-10 -2 -18 -2q-33 -4 -66 -15l-368 -110q-29 -8 -56.5 -18.5t-50.5 -26.5q-33 -23 -50 -57.5t-28 -71.5q-6 -20 -8 -40t-4 -42q-2 -12 -1 -24.5t-1 -24.5t-5 -21.5t-5 -21.5q-2 -31 -2 -62.5t-2 -62.5q74 100 163 187t191 159q29 20 66 31q10 2 18 2q25 0 41 -21 q10 -16 11 -34.5t-1 -36.5l-37 -289q-4 -16 -4 -31.5t6 -32.5q10 -27 38 -37t57 -4q27 4 50 18.5t46 30.5q6 4 12 10.5t10 14.5t2 15.5t-4 15.5q-12 53 -12 110q-2 25 2 50q8 82 39 155q14 31 32.5 59.5t47.5 45.5q27 16 59 16h4q35 0 58 -27q18 -16 22 -36q6 -20 4 -52 q0 -68 -28 -127q-33 -63 -74 -123q-10 -16 -19.5 -35.5t-5.5 -39.5q6 -18 24.5 -28.5t39.5 -10.5q29 -2 56.5 12t53.5 31q98 66 188.5 140.5t172.5 158.5z" />
<glyph unicode="E" horiz-adv-x="2295" d="M1718 301q8 29 14.5 58.5t13.5 54t7 53.5t-8 70q-14 35 -33 34q-6 0 -15 -6t-16.5 -10t-9.5 -7t-16.5 -21.5t-14.5 -55.5q0 -113 66 -168q2 -2 12 -2zM989 696l33 162q-27 4 -27 6h-2h-2h-2q-27 0 -241 -71q-45 -14 -56.5 -82t-25 -145t-13.5 -120v-53q2 -16 -2 -33 q-12 -66 -14 -247q-2 -29 18 -43q20 -12 52 -4q82 25 114 71q68 100 90 193q8 29 15.5 58.5t19.5 74.5t27.5 100t15.5 88v45zM1036 928v94q0 47 8 108q16 121 78 121h2q10 0 21 -4q4 -51 4 -129t-16 -180q4 12 108.5 24.5t112.5 12.5q190 33 354 33q317 0 384 -32t77 -42 q14 -14 31.5 -39t11.5 -25l-47 -16q-84 63 -115 78.5t-137 32.5q-102 16 -197 16q-266 0 -526 -72q-47 -10 -68 -37q-20 -33 -32.5 -179t-12.5 -187t4 -45q14 -20 43 10q84 84 211 141q37 16 54.5 16.5t25.5 -3.5q39 -20 39 -78q2 -31 2 -64.5t-15.5 -141.5t-15.5 -146v-58 q0 -117 50 -117q4 0 8 -2h4h4h2q53 0 121 72q14 14 11 28.5t-22.5 83t-19.5 152.5q0 162 55 232q25 35 66 35h4h4q43 -2 66.5 -42t23.5 -84t-13 -88.5t-23.5 -87.5t-10.5 -89t21 -78q49 -78 145 -78h4q98 0 184 51q111 66 111 192q0 23 -6 40.5t-8 23.5t-11.5 14t-28 3 t-29.5 -20.5t-17 -64.5q-23 4 -35 25q-12 23 -8 43q6 41 47 59q23 10 41 11q63 0 92 -62q16 -35 18 -72q0 -74 -63 -157q-106 -147 -256 -187q-39 -10 -79 -10t-81 12q-82 20 -135 82q-33 -10 -88 -43.5t-107 -33.5h-20q-20 0 -56 23.5t-48.5 77.5t-12.5 154.5t14.5 173 t14.5 102.5t-25 40q-6 4 -21.5 4t-49.5 -25q-123 -80 -175 -186q-33 -66 -32 -137l2 -88q0 -82 -64 -115q-16 -8 -31.5 -8t-29.5 8q35 221 57 414q-12 2 -19 -9.5t-17.5 -43t-26.5 -82.5q-59 -201 -183 -250q-27 -8 -52 -8t-67 8t-64.5 46t-27.5 79q-4 43 -4 125v114 q0 94 7 189q-43 -66 -86 -129.5t-94.5 -139t-114 -158.5t-148.5 -145q-31 -20 -44 -20t-17 2q10 20 32 39q63 53 117 117q158 176 285 415l37 80q2 2 14 38t19 38q-195 -27 -351.5 -73t-213 -46t-91.5 18.5t-40 32t0 23.5t15.5 10t38 -18.5t56.5 -18.5h33q168 12 505 111 q51 10 71 34.5t33 75t27.5 111.5t30.5 123h19q55 0 64 -15.5t5 -54.5t-6 -88t-12 -110q167 10 317 90z" />
<glyph unicode="F" horiz-adv-x="1974" d="M623 909q-14 -53 -18.5 -97t-4.5 -87q-2 -70 -6 -136.5t-8 -133.5q0 -14 -1 -29.5t1 -30.5q2 -45 3 -91t3 -93q0 -12 2 -23.5t4 -23.5q20 -8 38.5 -13.5t35.5 -11.5q4 -2 9 -6t5 -6q-4 -6 -7 -13.5t-7 -9.5q-63 -14 -123 -51q-12 -8 -23.5 -1t-21.5 18q4 14 8 30 q2 12 4 33q2 39 2 64v18q0 33 -6 64q-10 57 -10 114v15q2 66 4 133q0 18 1 33.5t1 33.5q-2 37 -2 72v37q2 53 6 104q2 12 1 23.5t-1 25.5q0 12 -10 20.5t-23 8.5h-20q-33 -2 -67 -2t-68 -2q-20 0 -37 -6t-31 -25q-2 -4 -6 -6l-8 -4q-10 -4 -24.5 1t-16.5 15q-2 14 -4 29v29 q0 10 8 18q14 8 18 8h6h4h33h33q59 0 115 7q88 12 176 18q33 4 66.5 13t66.5 20q78 25 150.5 54.5t142.5 72.5q45 29 53 71q2 10 4 21q0 35 -26 65q-12 18 -30 32.5t-34 27.5q-18 12 -36.5 11t-37.5 -11q-37 -20 -49 -58q-8 -16 -1 -32.5t26 -18.5q8 -4 14 -3t14 -1 q14 -2 21.5 -7t3.5 -11t-8 -13.5t-10 -11.5q-25 -12 -46 -12q-33 0 -61 29q-6 8 -11 16t-7 16q-2 14 0 27q0 94 90 137q12 4 23.5 9t23.5 8q18 4 37 2q10 -2 19 -6.5t20 -4.5q61 -12 89.5 -55t41.5 -98q4 -18 4 -35q0 -29 -13 -51q-18 -39 -49 -70q-43 -39 -91 -65.5 t-99 -49.5q-37 -16 -76 -29.5t-80 -23.5q-29 -6 -56 -16.5t-56 -18.5zM1380 836q-4 -12 -8 -18.5t-4 -14.5q-8 -45 -15 -90t-14 -92q-2 -12 7.5 -22.5t21.5 -12.5q18 -4 36.5 -5t37.5 -3q10 -27 -10 -37q-14 -8 -37 -13q-39 -4 -50.5 -16t-13.5 -49q0 -45 -4 -88 q-2 -16 -2 -33q0 -29 4 -57q37 -25 80 -41.5t86 -30.5q12 10 24.5 19.5t24.5 19.5q4 -4 10.5 -8t10.5 -11q4 -10 2 -16q0 -20 -15 -39q-8 -12 -22 -14q-23 -2 -47 4q-43 8 -87 17.5t-85 17.5q-39 10 -62 45q-33 45 -32 104q0 14 2 31q10 70 14 136.5t12 133.5q4 43 9.5 83 t11.5 81q4 25 20 43q20 20 43 36.5t55 18.5q55 8 109.5 20.5t112.5 25.5q25 4 47 -3q31 -4 39 -36q6 -23 9 -43.5t-13 -38.5q-4 -4 -8.5 -9.5t-8.5 -3.5q-16 4 -20 15q-4 8 -5 18t-6 19q-8 25 -30 18q-57 -12 -115 -25t-115 -36zM1729 143q6 0 12 1t8 -1q14 -20 22.5 -43.5 t6.5 -46.5q-2 -53 -58 -88q-106 -66 -221 -65q-45 0 -94 10q-49 12 -99.5 20.5t-97.5 24.5q-94 31 -188 33q-20 2 -39 0q-74 0 -147 -11q-100 -14 -189.5 -53t-157.5 -123q-4 -4 -12 -6t-14 0q-8 4 -13.5 13.5t-3.5 17.5q6 12 13.5 26.5t17.5 22.5q96 96 227 145 q53 18 107 31q39 8 78 8q16 0 33 -2h20q45 4 86 4q74 0 145 -10q115 -12 230 -47q63 -20 129 -20q59 0 119 16q39 12 57 32.5t23 63.5v23.5v23.5zM852 233q20 -4 38.5 -10t35.5 -12q10 -4 10 -12q0 -12 -8 -15q-45 -16 -84 -24q-16 -4 -27 -2q-20 -2 -31 8q-16 12 -20 59 q-2 53 -2 107q0 18 -2 35q0 37 2 71q0 98 1 194.5t3 194.5q0 8 -1 14.5t-1 14.5q0 37 31 41q23 4 40 -5t21 -28q4 -14 3 -28.5t-3 -28.5q-4 -57 -6 -112.5t-6 -110.5q-2 -12 1 -23.5t5 -19.5q18 -12 32.5 -12.5t26.5 -0.5q18 2 35 5.5t35 5.5q23 2 41 -6.5t14 -18.5 q-6 -16 -20.5 -18t-26.5 -7q-29 -6 -54.5 -11t-49.5 -11q-43 -12 -43 -57v-35q2 -27 2 -51q2 -46 8 -91zM1137 244q4 -4 10 -9.5t8 -11.5q4 -4 6 -9t0 -7q-4 -6 -10 -11.5t-12 -5.5q-16 2 -32.5 5.5t-33.5 5.5q-12 27 -14 50t0 48q4 53 6 107q2 23 2 47q0 31 -2 59 q-2 16 0 33q-2 20 0 41q4 37 8 73q4 53 7 102.5t7 100.5q2 12 4.5 23.5t8.5 21.5q4 8 13 14.5t17 6.5q8 -2 15.5 -9.5t9.5 -15.5q4 -29 3 -58.5t-1 -58.5q-4 -109 -10 -214t-8 -214q-2 -29 -2 -57v-57z" />
<glyph unicode="G" horiz-adv-x="2207" d="M948 874v-67q0 -12 -2 -21q0 -23 2 -45q4 -33 39 -39q14 -2 29.5 -2h30.5q55 0 61 52q6 61 11 125.5t11 126.5q0 20 5 45q4 35 39 36q18 4 37.5 -8t21.5 -26q2 -12 4 -22.5t0 -22.5q-16 -98 -20 -162q-2 -41 -3 -82v-41v-41q0 -41 -10 -81t-18 -79q-8 -45 -14.5 -89 t-14.5 -89q-4 -14 -9 -27.5t-13 -25.5q-6 -12 -25 -15q-16 0 -25 13q-20 33 -20 75q0 12 2 25q8 45 15.5 89t15.5 87q4 23 -13.5 40.5t-42.5 12.5q-35 -4 -71.5 -18t-42.5 -55q-6 -37 -6 -74q-2 -2 -2 -6q0 -31 12 -68q6 -18 0 -39q-6 -16 -17 -32q-23 -37 -59 -39 q-16 -4 -31.5 16.5t-19.5 46.5q-4 27 -3 51.5t1 53.5l-10 161q0 8 -2.5 15.5t0.5 13.5q12 37 17 74t5 73.5v73.5t4 74q4 29 8 59.5t9 59.5q4 27 28 37q8 4 19 2q16 0 34 -11q33 -20 37 -61q2 -25 0 -49q-2 -12 0 -27v-74h-4zM575 154q-29 229 -32.5 457.5t-7.5 457.5 q-29 10 -47.5 4t-34.5 -18q-33 -20 -63 -40t-62 -40q-20 -12 -42 -11t-44 9q-16 6 -19 20q-4 4 -2 13.5t6 13.5q14 12 29.5 22.5t32.5 18.5q35 20 70.5 40.5t72.5 39t72 39t67 47.5q29 23 66 35t70 28q61 29 120.5 58.5t120.5 58.5q16 8 33.5 15.5t36.5 11.5q8 2 17 -5.5 t18 -9.5q-4 -6 -5 -13t-6 -9q-18 -12 -37.5 -23.5t-39.5 -19.5q-66 -23 -121 -60q-61 -41 -115 -69q-78 -41 -80 -135q-2 -76 -2 -150v-74q4 -131 16.5 -223t12.5 -190v-13q0 -100 -2 -200q0 -43 -22 -61.5t-77 -24.5zM1960 240q-31 -8 -65.5 -17.5t-71.5 -17.5 q-78 -18 -154 -31.5t-151 -38.5q-68 -23 -133.5 -43t-135.5 -39q-41 -10 -78.5 -21.5t-78.5 -17.5q-135 -23 -259 -70.5t-243 -111.5q-20 -10 -40 -18.5t-42 -16.5q-16 -4 -27.5 4.5t-19.5 22.5q-4 8 -5 20.5t5 20.5q53 84 147 115q45 18 92.5 33.5t92.5 31.5 q262 92 527 157.5t540 116.5q20 4 40.5 12.5t43.5 10.5q10 2 22 -1t19 -11q4 -6 2 -18.5t-7 -20.5q-4 -12 -8 -22.5t-12 -28.5zM1769 1061q-4 -14 -7 -27.5t-9 -15.5q-41 -20 -82 -29q-29 -6 -59.5 -7t-61.5 -5q-20 -4 -31.5 -17.5t-17.5 -31.5q-4 -10 -6 -20.5t-4 -22.5 q-10 -63 -14 -101v-10q2 -27 12 -41q12 -16 48 -18t103 -2q14 2 28.5 -2t29.5 -11q4 -2 4 -11t-4 -13q-20 -25 -48 -32t-59 -11q-25 -4 -50 -6t-50 -9q-29 -8 -42 -32.5t-13 -63.5q2 -29 18 -49t45 -24q20 -4 41 -3h10h11q20 0 41 -2q27 -4 52 -8l50 -8q4 -2 8 -9t6 -13 q0 -6 -4 -14.5t-8 -10.5q-63 -18 -125 -25q-27 -2 -53 0q-37 0 -72 2q-66 6 -98 54q-27 37 -29 90q0 12 2 26q10 98 14.5 193.5t30.5 191.5q4 12 6 26.5t4 31.5q10 39 17.5 60.5t22 31.5t36.5 10q4 0 11 2q20 0 53 -4q20 -4 41 -2q4 2 10 0h18h35q33 -2 67.5 -4t71.5 -4z " />
<glyph unicode="H" horiz-adv-x="2408" d="M2150 236q-287 -4 -557 -80q-94 -25 -186 -50.5t-190 -39.5q-57 -8 -110.5 -29t-111.5 -29q-59 -8 -114.5 -26.5t-108.5 -34.5q-102 -33 -201 -90q-27 -12 -51 -25.5t-51 -26.5q-16 -8 -31.5 -10t-27.5 12t-21.5 34t-1.5 38q31 66 49.5 135.5t33.5 140t29.5 141.5 t37.5 140q12 41 12 76q0 6 -9.5 14.5t-15.5 8.5q-39 -4 -73 -15q-33 -12 -67 -26.5t-67 -24.5q-14 -4 -30.5 -4t-32.5 2q-4 0 -7 6t-5 14q-4 4 2 9q8 6 15 13t15 11q68 23 133.5 46.5t135.5 45.5q25 8 42 24.5t25 47.5q16 59 35 116.5t37 117.5q4 12 5 25t7 22q8 10 19.5 16 t23.5 8q14 4 28.5 -11t14.5 -28q-2 -12 -4 -24.5t-4 -26.5q-10 -31 -22.5 -60.5t-20.5 -60.5q-6 -18 -9 -35.5t-5 -35.5q8 -6 13 -10.5t11 -4.5q29 0 52 6q51 12 80.5 23.5t47 29t27.5 48t25 82.5q14 59 32.5 118.5t32.5 118.5q12 41 20.5 81t16.5 83q12 61 49 96t92 54 q6 4 13 0l15 -7.5t15 -11.5q4 -4 3.5 -12t-3.5 -12q-53 -84 -83.5 -173.5t-61.5 -181.5q-45 -143 -88 -283.5t-94 -279.5q-8 -20 -12 -49q-2 -4 2 -11.5t10 -9.5q4 -2 11 1.5t11 7.5q10 12 18.5 25.5t18.5 27.5q18 29 35.5 54.5t36.5 51.5q18 29 42.5 39t55.5 15 q10 4 22.5 -8.5t10.5 -22.5q-2 -16 -2 -31.5t-6 -32.5q-12 -33 -12.5 -61.5t6.5 -77.5q4 -27 23.5 -36t43.5 3q18 8 25.5 20.5t-0.5 29.5q-20 43 -21 86v14q4 51 11 102q4 23 17 41.5t30 34.5q29 23 60.5 36t68.5 17q12 2 20 2q35 0 53 -18q18 -16 19 -47q0 -10 -2 -23 q-4 -29 -13.5 -56.5t-23.5 -53.5q-12 -27 -27.5 -50.5t-31.5 -48.5q-4 -10 2 -23t18 -16q18 -4 35 -6h16q25 4 49 17q33 12 67 25.5t66 25.5q2 0 5.5 -1t11.5 -5q-94 -74 -195 -115q-33 -12 -65 -12q-31 0 -60 10q-25 8 -46 2t-42 -16q-14 -8 -26.5 -17.5t-26.5 -17.5 q-18 -10 -39 -10q-23 0 -47 16q-55 31 -74 86q-4 14 -8 29.5t-10 27.5q-23 0 -34 -10t-21 -24q-29 -45 -56.5 -88.5t-54.5 -86.5q-29 -47 -80 -63q-4 -2 -10 1t-17 5q-2 23 -2 47.5t2 46.5q4 45 21 95q27 70 46 140t42 142q4 8 1 18.5t-9 14.5q-4 4 -15.5 4t-19.5 -2 q-6 0 -12 -3t-13 -7q-53 -23 -83.5 -38.5t-48 -35.5t-28 -53t-24.5 -90q-10 -37 -17 -76t-14 -76q-12 -74 -29.5 -145.5t-37.5 -143.5q-4 -8 -3 -17t1 -17q14 -16 29.5 -16.5t29.5 3.5q37 12 74 24.5t72 28.5q106 43 216.5 67t219.5 50q80 20 162 34.5t165 33.5 q70 14 138 26q61 10 123 11h18h14q78 0 158 16q86 16 170 43q8 4 18.5 1t14.5 -9t2 -16.5t-4 -18.5q0 -4 -2 -6t-4 -6q-7 -6 -9 -10zM1401 500q29 23 45 50.5t18 65.5q0 4 -8 11q-6 4 -10 0q-31 -20 -49 -49q-12 -18 -11 -43q0 -12 3 -25q0 -2 12 -10z" />
<glyph unicode="I" horiz-adv-x="1153" d="M549 881q-12 -2 -18.5 -2t-12.5 -2q-12 -4 -27.5 -4.5t-25.5 -16.5q-8 -12 5 -24.5t36 -16.5q18 -2 35.5 0t36.5 21q10 12 12 28q0 4 -4 7t-11 6q-8 4 -15 3t-11 1zM637 451q6 12 24.5 18t30.5 -6q16 -12 18.5 -31.5t-8.5 -36.5q-12 -23 -37.5 -35t-50.5 -16 q-12 -2 -24 -2l-33 4q-27 4 -45 19q-29 23 -39 59q-6 20 -6 41q0 16 2 33q8 37 29.5 66.5t50.5 53.5q59 51 131 78q47 16 96 17q25 0 51 -4q74 -12 131.5 -62.5t73.5 -124.5q6 -29 8 -57q0 -35 -10 -70q-16 -66 -47 -121q-39 -70 -93 -133t-128 -102q-37 -20 -76 -28.5 t-80 -22.5q-18 -6 -21 -15.5t-5 -29.5v-33t-2.5 -43.5t-7.5 -41t-19 -26.5q-4 -4 -9 -3t-10 -1q-14 -2 -27 0t-30 4q0 23 -1 48.5t1 50.5q2 16 4 29.5t-4 29.5q-8 33 -31.5 56.5t-50.5 39.5q-16 10 -32.5 20.5t-34.5 20.5q-45 29 -83 62.5t-67 73.5t-45 89q-14 45 -16 93v10 q4 98 46 188t109 160q4 4 19.5 20.5t34 34t35 29.5t22.5 8q-45 35 -62 84q-10 31 -10 58v10q0 18 2 39q10 53 44 95t81 69q18 10 38 20t38 21.5t31.5 25.5t21.5 33q6 18 7 40.5t1 43.5q2 8 3.5 15t7.5 11q4 4 9 3.5t7 1.5q8 0 17.5 1t17.5 1t14 -1t10 -6q6 -4 7.5 -13 t-0.5 -17q-4 -29 -7.5 -54.5t-3.5 -52.5q16 -4 29.5 -11t28.5 -15q29 -14 45 -45q14 -25 14 -52v-10q-4 -33 -23.5 -59.5t-52.5 -36.5q-10 -4 -21 0t-7 14q0 4 6 10q18 18 32.5 40t12.5 49q-2 18 -13.5 31.5t-29 22.5t-36.5 12t-38 1q-57 -12 -101 -53t-75 -92 q-20 -33 -33 -72q-8 -25 -6 -49q0 -12 2 -27q4 -16 12.5 -30.5t24.5 -18.5q14 -2 31 4q27 4 52.5 7t53.5 3q18 0 34.5 -2t27.5 -14q10 -10 11 -22.5t-4 -25.5t-14.5 -24.5t-19.5 -17.5q-29 -18 -63 -19q-2 0 -3 -2q-31 0 -57 17q-12 6 -24.5 13t-24.5 7q-8 -2 -15.5 -6 t-15.5 -10q-47 -37 -78.5 -87t-50.5 -108q-20 -59 -26 -118q-2 -20 -2 -48v-22v-51q4 -37 12 -70q4 -29 22 -65q43 -86 115 -131.5t158 -53.5q16 -2 35 -2q68 0 133 27q82 33 133 106q49 72 61 162q4 27 2 49q0 61 -18 121q-12 41 -38 76t-58.5 53.5t-73.5 20.5h-6 q-37 0 -76 -21q-43 -23 -71.5 -63.5t-47.5 -83.5q-8 -20 -12 -43t0 -40.5t18.5 -29.5t44.5 -14q18 0 44 5t40 21q8 12 1 28.5t-21 12.5q0 9 2 13z" />
<glyph unicode="J" horiz-adv-x="2617" d="M1935 745q12 6 29 3q27 -8 43 -39q10 -20 10 -39q0 -12 -2 -21q-8 -29 -32.5 -50t-53.5 -30q-25 -6 -51 -8h-10q-31 2 -62 10q-39 8 -77.5 25.5t-70.5 43.5t-54.5 58.5t-32.5 71.5q-6 25 -6 49q0 47 20 94q29 66 86.5 116t132.5 77q66 23 133 22h9h10q78 -2 150.5 -29.5 t127.5 -80.5q70 -68 99 -154q20 -68 20 -135q-2 -18 -2 -37q-6 -88 -45 -173t-102 -148q-53 -51 -119 -80t-137 -35q-20 -2 -43 -2q-57 0 -113 12q-78 18 -147 58q-31 16 -62 34.5t-61.5 34t-63.5 26.5t-67 11q2 0 6 -13.5t8 -29.5t8 -31.5t4 -17.5q12 -53 13 -100v-15 q0 -90 -37 -162q-39 -78 -105.5 -133t-152.5 -88t-174 -41q-35 -4 -68 -4q-72 0 -143 17q-109 25 -201 75q-53 29 -102.5 68t-87 87t-63.5 103.5t-32 118.5q-4 29 -3 56.5t3 54.5q6 55 29 108q43 104 130 180t198 101q-20 27 -40 54.5t-34 55.5q-16 29 -23 62q-4 23 -6 45 q0 10 2 20q4 47 33 87t65 69q39 27 84 43q43 16 93 25q74 12 147 12l66 -4q106 -8 209 -43q31 -8 63 -14q6 -2 14 -2q25 0 45 16q23 20 23 50t-10 75q-4 20 -6 41q0 12 2 26q4 37 36 48q20 8 41 -2.5t33 -30.5q12 -18 14.5 -41t0.5 -45q-8 -94 -60.5 -177t-134.5 -135 q-12 -8 -25.5 -13t-27.5 -5q-12 2 -24.5 12.5t-12.5 22.5q-2 14 7 26.5t11 26.5q4 20 -16 37q-23 16 -43 24q-45 16 -89 31t-91 19h-25q-37 -2 -72 -9q-47 -10 -84 -41q-29 -23 -43 -57q-12 -37 -16 -72q0 -10 -2 -12q0 -29 10 -59q10 -37 35 -64t56.5 -42t65.5 -26.5 t70.5 -20.5t69.5 -21q10 -4 18.5 -9.5t12.5 -15.5q4 -12 -5 -23.5t-24 -15.5q-12 -4 -25.5 -1t-25.5 7q-39 8 -80 9l-33 -2q-55 -4 -107 -25t-99 -53q-49 -33 -82 -80q-47 -61 -74 -129q-27 -72 -31 -144v-14q0 -66 23 -127q20 -70 73 -131q63 -74 160 -104q70 -20 144 -21 q33 0 49 2q98 10 190 55q104 53 146 119q4 8 10 15q4 4 10 14q29 43 47 92q14 39 14 78v8v14q-4 53 -32 99q-33 45 -82 57q-25 4 -49.5 0t-47 -15.5t-41 -29.5t-28.5 -39q-10 -18 -12 -40.5t6 -43.5q12 -29 43 -43q14 -6 28.5 -6t28.5 8q10 4 18.5 12.5t16.5 14.5 q23 14 39 2q14 -12 6 -41q-8 -23 -26.5 -40t-42 -26.5t-49 -12.5t-46.5 5q-35 12 -57.5 43t-26.5 66q-4 18 -4 35q0 31 10 57q16 43 47 75.5t72 54t84 34.5q70 16 141 16h29q86 -4 172 -22q16 -4 31.5 -9.5t32.5 -9.5q45 -14 90 -33.5t92 -33.5q45 -16 90 -27q31 -6 70 -6 q12 0 24 2q90 6 155.5 58t102.5 126q33 74 41 158v31q0 66 -20 122q-27 72 -88.5 120t-159.5 48h-6q-66 0 -125 -32q-66 -35 -101 -88q-23 -35 -32 -64q-8 -23 -8 -47v-8v-15q4 -35 22 -65.5t51 -44.5q16 -6 35 -6q16 0 35 6q37 12 51 45q4 6 5 13t7 11z" />
<glyph unicode="K" horiz-adv-x="1447" d="M872 256q-8 12 -15 23.5t-15 27.5q14 2 26.5 3t20.5 -3q12 -4 16 -16t4 -25q-2 -29 -17 -47t-40 -28.5t-51 -10.5h-8q-29 2 -56.5 14.5t-49 34t-32.5 52.5q-12 37 -12 69q0 76 64 135q70 66 149 78q25 4 51 6q55 0 115 -20q39 -12 77 -29.5t70 -40.5q70 -45 99.5 -109.5 t31.5 -144.5v-12q0 -41 -16 -80q-20 -43 -57 -78q-45 -43 -95.5 -78.5t-111.5 -50.5q-29 -8 -49 -26q-57 -49 -125 -73t-144 -30q-27 -2 -51 -2q-51 0 -96 6q-72 12 -143 41q-72 29 -123 77t-86 114q-37 68 -51 137q-6 43 -7 88q0 29 2 61q10 102 58.5 181.5t122.5 144.5 q37 37 79 71t99 54q-12 8 -18.5 14.5t-14.5 10.5q-57 20 -90 61t-45 98q-12 47 -12 93q0 49 16 96q29 86 104 151q29 29 63 50.5t71 44.5q66 37 133 41q25 2 51 4q45 0 92 -7q33 -4 58.5 -24.5t41.5 -46.5q18 -29 19 -58q0 -20 -8 -43q-47 -119 -183 -118q2 4 2 9t5 7 q12 4 22 9t23 7q37 8 62.5 32t39.5 59q8 20 8 36q0 31 -26 54q-53 53 -119 53q-49 0 -95.5 -12.5t-87.5 -40.5q-61 -45 -86 -109q-31 -86 -34 -172v-16q0 -76 32 -152q14 -37 41 -63q14 -18 23.5 -27.5t18 -14.5t20.5 -10.5t31 -13.5q2 -14 -7.5 -21.5t-21.5 -9.5 q-6 -2 -13.5 -2h-15.5q-10 2 -18 2q-25 0 -43 -12q-27 -14 -47 -39q-123 -135 -172 -315q-4 -18 -5.5 -34.5t-3.5 -35.5q-2 -25 0 -50.5t0 -49.5v-23q0 -72 27 -133q33 -70 90 -131q12 -12 25.5 -28.5t29.5 -32.5q82 -29 166 -29h7q82 0 163 25q23 6 44.5 16t37.5 22 q51 37 95.5 81t76.5 98q20 33 38 65.5t28 67.5q8 29 8 59q0 14 -2 31q-6 45 -29 88q-29 53 -69.5 89t-102.5 50q-20 4 -39 4q-12 0 -22 -2q-47 -6 -88 -25.5t-76 -50.5q-29 -27 -39 -59q-6 -20 -6 -39q0 -12 4 -26q6 -33 28.5 -61t55.5 -42q20 -8 37 -8q10 0 18 4 q20 8 49 41zM336 -53q-12 29 -21.5 52.5t-17.5 45.5q-29 86 -29 172v8q2 90 23 183q12 49 31.5 94t50.5 84l18 30q4 6 6 12.5t-8 14.5q-12 -6 -22 -12q-37 -29 -67 -67t-56 -77q-14 -20 -23.5 -42.5t-17.5 -47.5q-20 -59 -23 -116q0 -61 17 -127q14 -57 44.5 -108.5 t77.5 -92.5zM514 1298q-12 -4 -16 -4t-9 -2q-61 -47 -87.5 -109.5t-30.5 -135.5v-11q0 -43 12 -82q12 -43 45 -80q12 -14 28.5 -24t49.5 -12q-33 59 -45 116q-8 45 -8 88v27q4 57 20 113.5t41 115.5zM1153 422q0 -4 -2 -7t0 -7q14 -29 19.5 -56.5t11.5 -58.5q4 -25 4 -47 q0 -45 -17 -84q-18 -39 -35.5 -77t-46.5 -71q-4 -4 -10 -26q45 27 79 53.5t61 60.5q25 33 34 62q10 31 11 59v10q0 20 -2 41q-12 53 -43 99q-12 18 -26.5 31.5t-37.5 17.5z" />
<glyph unicode="L" horiz-adv-x="1624" d="M1137 670q12 -4 14 -11.5t2 -15.5q0 -16 -8 -28.5t-23 -20.5q-16 -12 -35 -10q-10 0 -22 2q-37 10 -54.5 33.5t-23.5 58.5q-2 12 -2 27q0 45 27 79q35 45 92 56q18 4 35 2l57 -8q45 -10 87 -33t78 -55.5t58 -71.5q45 -72 45 -150q0 -74 -30 -143q-29 -70 -82.5 -129 t-116.5 -98q-10 -4 -20.5 -9.5t-22.5 -9.5q-20 -39 -39 -84q-29 -61 -76 -109t-105.5 -80t-125 -48.5t-131.5 -18.5h-13q-104 0 -198 29q-102 33 -191 102q-70 53 -105.5 126t-43.5 151q-2 23 -2 47q0 55 14 112q20 80 62 152q51 86 110.5 132t151.5 73q12 4 25.5 7t25.5 9 q-2 4 -2 7t-2 8q-23 23 -41.5 48t-34.5 52q-6 10 -13 19.5t-16 17.5q-53 55 -75 117q-14 43 -15 88q0 18 4 34q10 59 46 113.5t100 97.5q119 78 250 93q33 4 65 4q100 0 199 -35q74 -23 122 -70t64 -121q2 -6 2 -16q-12 -78 -62 -133t-130 -58h-11q-23 0 -49 7 q-29 8 -57.5 23.5t-52 37t-37.5 47.5q-12 23 -2 47q12 29 33.5 32t42.5 -19q2 -2 1 -5.5t1 -7.5q-8 -2 -16.5 -1t-16.5 -3q-10 -2 -17 -12q-6 -16 9 -25q31 -23 67 -32q31 -8 62 -9l14 2q37 4 72 19.5t59 46.5q12 16 17.5 32.5t11.5 35.5q0 4 -6 20q-8 25 -25 43 q-20 18 -39 33q-37 29 -82 43q-49 14 -98 16h-6q-45 -2 -92 -10q-49 -10 -88 -31q-49 -25 -90.5 -65.5t-69 -89t-39.5 -103.5q-6 -29 -6 -59q0 -27 4 -51q10 -55 42 -99.5t70.5 -83.5t80.5 -75.5t75 -79.5q4 -4 4 -15q0 -4 -6 -8t-12 0q-47 25 -66 37q-33 20 -69 31 q-25 6 -45 6h-9h-18q-37 -4 -72 -33q-49 -37 -79.5 -94t-45.5 -121q-16 -66 -16 -131v-12q0 -61 10 -111q18 -102 70.5 -186t150.5 -127q66 -29 134 -29q4 2 12 2q74 4 145 25q78 25 127 73t80 121q4 6 5 12.5t3 12.5q4 25 -14 24q-45 2 -96.5 22.5t-95.5 55.5t-70 80 q-18 31 -19 66v6q0 12 2 24q6 37 30 68t56.5 50.5t71.5 21.5q8 0 14 2q29 0 58 -13q53 -25 96 -63.5t68 -89.5q12 -25 24 -51q4 -12 2 -29q0 -12 -2 -27q-2 -6 0 -24q0 -2 8 -4q4 0 7 2q23 20 45 38.5t41 38.5q23 25 32 60q23 66 31 135q4 23 0 43q0 45 -8 88 q-14 61 -56 112.5t-114 82.5q-20 10 -41 9t-41 -9q-8 -4 -17.5 -8.5t-17.5 -6.5q-37 -12 -49 -49q-4 -12 -4 -26q0 -23 12 -48q4 -4 6 -9t6 -9q12 -14 29 -14q20 0 39 4q12 2 18 18q4 4 5.5 10.5t3.5 10.5zM825 354q2 -45 14.5 -73.5t39.5 -51.5q59 -49 135 -77 q25 -12 51 -11h14q6 2 11.5 6.5t5.5 12.5q0 6 1 11t-1 11q-12 135 -107 228q-29 29 -61 28q-25 0 -54 -16q-6 -4 -11 -8t-9 -8q-14 -12 -21.5 -27t-7.5 -25z" />
<glyph unicode="M" horiz-adv-x="1859" d="M1221 711q-4 12 -9 18q-70 70 -121 165t-63 193q-4 23 -4 46q0 59 20 108q27 70 84 127q45 47 89 59q20 4 38 5q25 -2 45 -9q39 -12 71 -48t53.5 -81t29.5 -94q4 -23 4 -45q0 -27 -6 -49q-4 -18 -5 -35.5t-5 -34.5q-10 -41 -24.5 -79.5t-37.5 -75.5q-12 -20 -23 -39 t-22 -35q-2 -16 5.5 -25.5t15.5 -17.5q18 -18 33.5 -35.5t33.5 -36.5q45 -47 92.5 -111.5t81.5 -140.5q37 -72 58 -149q18 -68 18 -131v-25q-4 -76 -37.5 -140.5t-107.5 -111.5q-25 -16 -50.5 -30.5t-52.5 -28.5q-45 -25 -98 -29h-16q-55 0 -113 25q-63 29 -108.5 80 t-57.5 116q-4 20 -4 37q0 47 29 97q18 35 53 53t74 24q16 4 35 2q27 0 43 -4q39 -6 64.5 -26.5t33.5 -48.5l2 -15q0 -25 -16 -55q-12 -18 -33 -19h-10q-4 2 -7.5 6.5t-7.5 8.5q12 12 20.5 27.5t8.5 32t-8.5 30.5t-28.5 24q-29 12 -49 13q-12 2 -21 -2q-29 -10 -48 -39 t-27 -70q-6 -31 -7 -63q2 -10 2 -21q4 -43 15 -80q10 -35 35 -55q45 -37 106 -41h6q59 0 108.5 24.5t91.5 64.5t71 89q29 47 43 103q6 29 6 67q0 23 -4 45q-8 55 -33 105.5t-58.5 94.5t-74.5 83t-82 76q-16 12 -30.5 27.5t-31.5 29.5q-4 4 -10 7t-12 7q-4 -4 -9 -8t-10 -10 q-27 -41 -52 -82t-52 -82q-43 -61 -86 -117.5t-90 -109.5t-100.5 -100.5t-114.5 -90.5q-43 -29 -87 -53.5t-91 -40.5q-53 -18 -109 -18q-37 0 -76 10q-92 23 -161 90q-29 27 -40.5 64.5t-11.5 78.5t13 80q12 43 32 70q20 29 56 53q33 20 69 29q16 4 45 6q16 2 31 -2 q37 -4 68 -33q8 -6 12 -15t10 -18q10 -20 10 -39q0 -25 -18 -47q-16 -20 -36.5 -28.5t-49.5 0.5q-14 4 -22.5 8t-12.5 16q-4 4 -2 8.5t2 8.5q2 4 5 4h8l16 -8q8 0 20 -5q8 -2 15 -2q20 0 32 15q12 12 11 28q0 12 -8 25q-6 8 -11.5 16.5t-11.5 16.5q-16 16 -36.5 18t-39.5 -8 q-29 -16 -53.5 -41t-38.5 -54.5t-16 -62.5v-16q0 -27 8 -53q18 -53 55 -82t82 -43q29 -8 62 -8h10q12 2 24 2q51 4 97 20q78 27 149.5 74t136 107.5t116.5 131t89 142.5q8 18 18.5 33.5t18.5 33.5q6 12 13 23.5t12 21.5q12 25 22.5 49.5t22.5 49.5zM1278 856q37 37 65 105 q27 63 33 135q2 18 0 37v18q0 35 -8 86q-12 70 -45 113q-8 8 -16.5 16t-20.5 12q-14 4 -37 -4q-55 -18 -86 -55q-29 -37 -41 -86q-6 -29 -8 -64q0 -18 2 -36q6 -53 27 -99q2 -6 21.5 -36.5t42 -64.5t45 -57.5t26.5 -19.5z" />
<glyph unicode="N" horiz-adv-x="1765" d="M641 932q-47 37 -66 96q-12 37 -14 72q0 20 6 43q10 59 44 109.5t81 86.5q39 31 84 52.5t94 31.5q41 10 82 11h15q49 -2 96 -19q45 -16 85 -47t67.5 -71t39.5 -89q8 -31 9 -63v-33q-20 53 -50 104.5t-73 92.5q-43 39 -99 61q-35 12 -67 12q-20 0 -45 -4 q-45 -10 -81 -37.5t-60.5 -67.5t-38 -88t-17.5 -93v-17q0 -25 4 -51q4 -35 27 -61q20 -29 51 -40.5t64.5 -18.5t69.5 -13t67 -23q12 -4 20 -15t6 -24q-4 -16 -22.5 -17t-34.5 3q-45 12 -92 25.5t-92 19.5q-31 4 -62 4h-28q-45 -4 -88 -22q-45 -20 -79 -55t-57.5 -78 t-40 -92.5t-26.5 -98.5q-14 -72 -19 -147q-2 -25 -2 -49q0 -49 7 -99q10 -72 38.5 -137.5t81.5 -114.5q68 -63 161 -88.5t185 -27.5h35q61 0 125 10q78 12 152 45q74 37 129 97.5t73 137.5q6 29 7 68q0 29 -4 61q-10 76 -37 149t-70 133t-98 85q-29 12 -58 12h-8 q-27 0 -51 -6q-70 -12 -129 -49t-94 -94q-35 -55 -35 -127q0 -78 45 -133q20 -29 51 -44.5t64 -21.5q12 -2 28 -2l41 6q33 6 62 29q18 12 28.5 33.5t6.5 44.5t-27 35t-41 0q-2 20 12.5 30.5t32.5 14.5t37.5 -2.5t30.5 -22.5q12 -20 12 -45q0 -14 -2 -29q-12 -39 -39 -67 q-33 -35 -76 -51.5t-89 -16.5t-90 16.5t-77 49.5q-59 63 -65 151q-2 12 -2 27q0 74 34 139q41 76 112 124t155 71q57 14 116 14q23 0 45 -2q84 -8 158 -41t129 -90t76 -137q12 -43 12 -84q0 -14 -2 -29q-4 -57 -24.5 -112.5t-53 -104.5t-73.5 -92q-113 -119 -267 -180 q-143 -59 -295 -60h-22q-102 4 -200.5 36t-183.5 86t-151.5 128t-101.5 164q-37 90 -39 190q0 98 45 203q27 63 71 119.5t99 99.5t121 71t135 38q-2 2 -3 1t-3 1z" />
<glyph unicode="O" horiz-adv-x="2070" d="M1391 741q-6 12 -9 27q0 12 9 31q12 29 39 37q12 4 22 4q20 0 39 -13q29 -18 43 -49q4 -16 4 -31.5t-4 -31.5q-10 -33 -33 -56q-23 -25 -53 -34q-25 -8 -53 -9q-6 2 -13 2q-33 4 -63.5 15.5t-52.5 36.5q-23 25 -37 55q-12 29 -17 63q-2 16 -2 27q2 20 7 39q6 33 18 61 q29 61 83 102.5t116 61.5q61 23 129 23h4q70 0 131 -29t106 -82t56 -119q4 -23 4 -45q0 -45 -15 -88q-23 -66 -57 -123q-20 -37 -51 -72.5t-64 -62.5q-35 -29 -73 -41q-25 -8 -54 -8q-14 0 -30.5 3t-33 7t-32.5 2q-33 -6 -51.5 -35.5t-30.5 -62.5q-27 -70 -59.5 -138.5 t-73.5 -130t-92 -113.5t-115 -91q-98 -57 -213 -74q-37 -4 -69 -4q-78 0 -154 23q-125 37 -213 123q-86 84 -132 195.5t-46 230.5q0 127 55 245q55 121 156.5 210t228.5 126q-27 16 -53.5 34.5t-49 40t-39 46.5t-22.5 57q-4 16 -6 35q0 37 19 72q27 53 69 92 q41 39 93.5 65.5t107.5 36.5q37 6 72 7q20 0 43 -4q59 -6 112 -25q49 -20 91 -57t59 -88q6 -20 6 -43v-11q-2 -29 -12.5 -53.5t-29 -42.5t-44.5 -27q-12 -4 -25.5 -4t-25.5 4q-27 8 -46.5 25.5t-28.5 42.5t1 49q14 -29 37 -51q18 -20 43 -21h4h8q27 4 43 27q14 20 14 45 q0 29 -16 53q-12 23 -33 39q-45 39 -106 56q-31 8 -64 8q-29 0 -57 -6q-61 -12 -107.5 -53.5t-68.5 -98.5q-10 -25 -12.5 -50.5t8.5 -47.5q12 -29 39.5 -42.5t56.5 -23.5q55 -20 109.5 -39.5t107.5 -40.5q2 0 -20.5 -8t-51 -17t-55.5 -17.5t-31 -10.5q-57 -12 -111.5 -35.5 t-101.5 -60.5q-63 -53 -104 -128t-59 -157q-12 -59 -15 -129q-2 -20 -2 -41q0 -47 8 -96q10 -70 36 -131.5t73 -106.5q39 -37 88 -57t104 -25q20 -2 41 -2q37 0 68 7q55 8 106 26q131 51 225.5 159.5t129.5 246.5q4 14 5 30.5t-7 28.5q-4 12 -14.5 21.5t-24.5 15.5 q-92 49 -197 65q-43 6 -84 7q-61 0 -121 -13q-37 -8 -74.5 -27.5t-67.5 -45t-46 -58.5q-12 -27 -12 -55q0 -8 2 -18q4 -37 29.5 -68t60.5 -43q20 -6 39 -6l37 6q37 12 63 39q10 12 15.5 26.5t5.5 30t-6.5 28.5t-18.5 19t-24.5 8.5t-20.5 14.5q-8 16 7 29.5t34 13.5 q35 0 60.5 -27.5t29.5 -60.5v-15q-2 -29 -12 -53q-12 -33 -37 -57q-25 -27 -57.5 -44.5t-69.5 -23.5q-18 -4 -37 -4q-16 0 -35 4q-35 6 -69 25q-33 18 -54.5 48t-33.5 64q-10 29 -11 64v8q2 37 19 70q20 43 56 71.5t77 47.5q68 33 139 47q53 10 107 10q20 0 39 -2 q47 -4 93 -15.5t92 -25.5t92 -26.5t93 -20.5q45 -10 94 -10h9q47 0 90 10q45 10 87 32.5t70 59.5q39 49 50 113q4 29 4 57v14q0 29 -2 54q-10 61 -43 115.5t-93 70.5q-20 4 -38 6q-8 -2 -15 -2q-27 -4 -53 -8q-61 -14 -116.5 -47t-82.5 -90q-12 -29 -12 -60 q2 -35 15.5 -64.5t35 -49t51.5 -21.5q16 -2 33 2t25 16q12 12 10 30t-14 26t-28.5 -2.5t-10.5 -24.5q-2 4 -6 10z" />
<glyph unicode="P" horiz-adv-x="3051" d="M2421 1180q16 12 29.5 21t25.5 20q39 29 81 45t89 24q45 6 90 10q29 2 60 3h30h20.5t20.5 -5q35 -4 69 -11t68 -13q8 -2 17.5 -6t19.5 -8q-16 -18 -37 -25q-10 -4 -18 -5t-18 -5q-37 -8 -70 -24.5t-66 -33.5q-2 -2 -2 -4t-2 -6q10 -6 21.5 -11t23.5 -9q39 -8 74 -25.5 t70 -34.5q8 -2 24 -14q25 -20 11 -49q-4 -8 -9.5 -13.5t-9.5 -11.5q-8 0 -20 4q-29 10 -58.5 10.5t-58.5 -4.5q-43 -6 -82 -21t-76 -34q-25 -14 -47 -29.5t-45 -31.5q-6 -4 -11 -9.5t-9 -9.5q-27 -29 -51.5 -55.5t-49.5 -54.5q-20 -23 -38.5 -46.5t-41.5 -43.5 q-45 -45 -100 -70q-25 -10 -48.5 -13t-47.5 13q-10 4 -19.5 8t-19.5 8q-29 12 -53.5 29.5t-42.5 42.5q-4 8 -10.5 13t-14.5 14q-6 -6 -11 -10.5t-10 -8.5q-29 -41 -61.5 -78t-64.5 -73q-41 -47 -87.5 -89t-91.5 -83q-35 -35 -75.5 -63t-81.5 -50q-23 -12 -45.5 -19.5 t-44.5 -15.5q-20 -8 -40 -14t-40 -17q-63 -31 -130 -47t-137 -26q-55 -10 -110 -14.5t-111 -6.5q-43 -2 -86 -2q-23 2 -43 2q-66 0 -131 10q-35 6 -67.5 12.5t-65.5 16.5t-61.5 28.5t-47.5 49.5q-8 10 -15 20.5t-15 20.5q-10 16 -9 25.5t17 23.5q12 12 15 27.5t14 27.5 q-6 8 -13.5 7t-15.5 -1q-25 -4 -49.5 -8t-48.5 -6h-17q-27 0 -51 4q-33 8 -65 19q-20 6 -39 13t-35 24q-4 2 -6 4t-7 2q-41 20 -71.5 52t-57.5 71q-10 18 -22 35.5t-23 35.5q-10 16 -15 33.5t-13 36.5q-4 12 8 16q4 2 14 -2q6 -2 15 -10q16 -23 37.5 -36t44.5 -28 q14 -10 28.5 -13t30.5 -5q4 0 8 2t10 4q-6 18 -12 31q-20 35 -25.5 70.5t-7.5 72.5v54q0 10 8 10q6 4 15 0q8 -2 12 -13q23 -37 53.5 -64.5t63.5 -53.5q20 -18 47 -21q66 -12 129 -12h10q59 0 119 12q29 6 56.5 10.5t56.5 8.5q8 2 16 2t16 2q31 8 63 10t62 6q27 4 51.5 8 t49.5 9q16 2 32.5 3t32.5 5q12 2 23 2q25 0 49 -13q33 -16 61 -40q31 -29 31 -66v-51q0 -25 -2 -47q0 -18 2 -37t8 -39q10 2 18.5 2t16.5 4q141 47 264 119q20 14 41 26.5t41 24.5q47 33 87 70t81 77q23 23 44.5 45.5t43.5 45.5q10 14 21.5 27.5t23.5 27.5q72 86 142.5 171 t156.5 159q14 12 28.5 23t33.5 20q4 0 8 4q23 20 49.5 25t54.5 10h9q33 0 57 -15q18 -8 26 -26q10 -20 18.5 -41t18.5 -43q4 -8 8.5 -17.5t8.5 -23.5zM438 264q16 -23 27 -41q39 -61 115 -78q41 -8 79.5 -14t77.5 -14q25 -4 48.5 -6t48.5 -2h84h26q66 4 133.5 10t132.5 16 q57 10 110.5 26.5t106.5 41.5q47 23 91 35q55 16 103 45.5t91 66.5q33 27 62.5 54.5t60.5 56.5q39 37 76 75.5t71 79.5q27 33 53.5 66t57.5 61l20.5 20.5l20.5 20.5q39 43 81 81t85 75q12 10 26.5 18.5t30.5 16.5q14 6 27.5 8t30.5 -4q2 -2 5 -1t5 1q10 10 8 18.5t-6 16.5 q-4 25 -10.5 48t-10.5 48q-10 53 -29.5 101.5t-37.5 97.5q-6 20 -29 20q-27 2 -51.5 0t-46.5 -14q-33 -16 -62.5 -34.5t-56.5 -47.5q-4 -4 -9 -10t-11 -11q-47 -41 -89 -88t-81 -96q-27 -33 -51.5 -65.5t-51.5 -63.5q-53 -63 -111.5 -120.5t-121.5 -110.5 q-10 -8 -20.5 -15.5t-20.5 -15.5q-47 -31 -95.5 -59.5t-101.5 -53.5q-104 -47 -212.5 -77.5t-223.5 -40.5q-18 -2 -37 -3q-31 0 -63 7q-23 4 -46.5 8t-46.5 10q-35 6 -63 21q-20 10 -38.5 23t-39.5 26l-12 8t-15 8q-27 -61 -44 -126t-50 -124zM3023 1018q10 20 -6 33 q-8 6 -15.5 11t-15.5 9q-41 23 -83 38t-87 26q-4 0 -10 2t-10 4q-4 4 -10.5 5t-8.5 11q8 8 12 10q41 20 83 42t89 34q4 2 11.5 4t5.5 15q-4 2 -17 6q-41 12 -80.5 15t-80.5 5h-21q-25 2 -47 -2q-33 -4 -68 -10q-66 -6 -119 -35t-102 -67q-18 -12 -12 -37q10 -37 19.5 -75 t19.5 -75q2 -12 -4 -29q-10 -18 -21.5 -33.5t-23.5 -31.5q-57 -61 -113 -131q-14 -18 -24.5 -39l-20.5 -41q-4 -10 -5 -18.5t-3 -18.5q0 -16 12 -31.5t35 -11.5q8 4 16.5 4t16.5 4q29 16 55.5 34t48.5 42q31 35 60.5 67.5t60.5 67.5q27 29 54.5 56.5t62.5 50.5 q23 16 48 27.5t48 23.5q78 39 156 39q31 0 61 -6q21 -4 33 6zM467 387q16 35 27.5 73t21.5 75q2 4 1 8t-1 8q0 14 14 24q51 35 109 43q16 2 35 5q41 0 84 -17q16 -8 45 -14q8 -4 15 -5t16 -5q25 -10 50 -14.5t52 -6.5q12 -2 25 -2q39 0 75 16q16 6 35 21q18 16 19 37 q0 12 -7 24q-16 37 -45.5 55.5t-68.5 20.5q-23 2 -43.5 0t-40.5 -6q-27 -2 -52.5 -5t-52.5 -7l-104 -13q-41 -6 -83 -13t-83 -13q-90 -12 -178 -12q-33 0 -66 2q-55 2 -94 39q-20 18 -40.5 35.5t-37.5 39.5q-2 2 -10 2q-4 -18 -1 -36.5t7 -36.5q6 -41 27 -70 q10 -16 20 -31.5t23 -32.5q-29 -14 -53.5 -5.5t-47.5 12.5q-25 4 -46 17t-50 22q6 -18 10 -25q10 -14 20.5 -26.5t16.5 -26.5q8 -18 20.5 -32.5t24.5 -27.5q18 -18 40 -31.5t42 -27.5q86 -57 182 -57q31 0 64 6q18 4 38.5 7t45.5 7zM1085 575q-8 -4 -12 -5t-8 -3 q-43 -18 -86 -26q-12 -2 -27 -2q-31 0 -63 12q-4 2 -8 1t-9 1q-20 0 -28 4q-25 8 -48.5 15.5t-45.5 17.5q-37 12 -75 12t-75 -12q-12 -4 -25.5 -10.5t-23.5 -18.5q0 -23 11 -38t28 -27q10 -4 18 -8.5t15 -10.5q47 -35 110 -39q14 0 31 -6q43 -14 92 -14h21q47 4 92 11t90 17 q6 2 11 4.5t11 4.5q0 31 1 59t3 61zM2218 643q4 4 5 6t3 4q14 47 39 86t55 76l93 105q6 6 12 13t4 17q-4 6 -6 6l-8 5q-29 6 -52.5 -2.5t-44.5 -24.5q-25 -16 -46 -35.5t-42 -42.5q-29 -25 -53.5 -51.5t-50.5 -52.5q-6 -6 -15 -23q10 -12 19.5 -23.5t19.5 -23.5 q27 -27 68 -39z" />
<glyph unicode="Q" horiz-adv-x="3270" d="M2359 580q-23 6 -40 16t-31 27q-10 12 -20.5 24t-22.5 27q4 4 8 11t8 11q29 29 55.5 56.5t55.5 56.5q23 23 46 44t48 40q23 18 49.5 27.5t56.5 1.5q2 -2 4 -2t4 -2l7 -7q2 -12 -4.5 -19t-14.5 -15q-25 -29 -49.5 -56.5t-48.5 -56.5q-33 -39 -59.5 -81t-43.5 -91 q-4 -8 -8 -12zM1141 506q0 -35 -1 -65.5t-3 -63.5q-4 -2 -10.5 -4t-12.5 -4q-49 -10 -98 -18.5t-98 -12.5h-23q-51 0 -98 14q-20 8 -35 8q-68 4 -117 41q-8 6 -17.5 10.5t-17.5 10.5q-43 27 -43 70q10 14 24.5 20t29.5 10q41 14 80.5 14.5t78.5 -14.5q25 -10 50.5 -18 t52.5 -17q6 -4 14 -4t16 -2q4 0 9.5 1t9.5 -1q35 -12 67 -12q16 -2 29 2q45 8 90 27q13 4 23 8zM477 305q-27 -4 -48 -7t-44 -7q-35 -6 -70 -6q-102 0 -192 59q-23 16 -45.5 29.5t-42.5 34.5q-14 14 -26.5 28.5t-22.5 34.5q-6 16 -18.5 29.5t-22.5 29.5q-2 4 -4 9.5t-7 15.5 q31 -8 54.5 -22.5t50.5 -18.5t52.5 -13t53.5 5q-12 18 -23 35.5t-22 33.5q-12 16 -18 36t-10 40t-7.5 39t1.5 39q8 0 10 -2q16 -25 38.5 -43t45.5 -37q39 -39 102 -43q33 -2 66 -2q98 0 194 14q47 6 90 13.5t90 13.5q29 4 55.5 7t55.5 7t56.5 7.5t56.5 7.5q23 2 45 4t45 2 q90 -6 125 -82q6 -14 6 -27q0 -23 -20.5 -39t-39.5 -24q-37 -16 -79 -17q-12 0 -27 3q-29 2 -55.5 6t-53.5 16q-10 4 -18 5t-16 5q-12 4 -24.5 8.5t-22.5 8.5q-47 16 -91 16q-18 0 -36 -2q-61 -10 -119 -47q-14 -8 -15 -27v-18q-12 -41 -24.5 -80t-28.5 -78zM3226 983 q-10 -8 -18.5 -8t-16.5 2q-33 6 -66 6q-86 0 -168 -41q-27 -14 -53.5 -26.5t-50.5 -28.5q-37 -25 -66.5 -54.5t-58.5 -62.5q-35 -35 -66.5 -71.5t-64.5 -71.5q-23 -29 -52.5 -47.5t-60.5 -34.5q-8 -4 -16 -5t-19 -3q-25 -4 -38 12t-11 33q0 10 2 20t6 19q10 23 21.5 44 t28.5 42q29 37 58.5 72.5t59.5 70.5q14 16 26.5 32.5t23.5 37.5q8 12 4 28q-10 41 -20.5 81t-20.5 81q-8 25 12 41q53 41 110.5 71.5t129.5 39.5q35 4 71 8q25 4 51 4h21q45 -4 89 -7t85 -16l18 -6q2 -14 -5 -16t-11 -4q-51 -14 -95 -37t-91 -45q-8 -2 -13 -10 q2 -10 8.5 -11.5t12.5 -5.5q8 -4 20 -8q47 -10 92.5 -27.5t90.5 -40.5q10 -4 17 -10t15 -12q19 -12 9 -35zM446 174q35 66 53.5 133.5t47.5 134.5q10 -6 16 -10l12 -8q23 -14 42.5 -28.5t41.5 -24.5q16 -10 34 -14.5l34 -8.5q25 -6 49.5 -10t48.5 -8q29 -6 54.5 -7t54.5 1 q244 25 469 129q57 27 108.5 57.5t104.5 62.5q10 8 21.5 16.5t21.5 18.5q68 55 130 117.5t122 130.5q29 33 54.5 67.5t53.5 69.5q41 53 86 103.5t99 95.5l22 22q27 29 59.5 49.5t67.5 36.5q23 14 50.5 16.5t54.5 0.5q23 0 32 -23q18 -53 40 -104t32 -109q4 -27 11 -51 t12 -51q4 -10 6 -19.5t-8 -19.5q-4 0 -6.5 -1t-6.5 1q-27 12 -61 -4q-16 -8 -32.5 -16.5t-29.5 -20.5q-47 -41 -92 -81t-86 -85q-10 -12 -22.5 -23.5t-22.5 -21.5q-33 -33 -61.5 -67.5t-57.5 -69.5q-37 -45 -76.5 -85t-80.5 -81q-33 -31 -65 -60.5t-66 -58.5 q-47 -41 -99.5 -72.5t-111.5 -48.5q-25 -8 -49.5 -18t-47.5 -21q-55 -27 -113.5 -44t-119.5 -27q-72 -12 -143.5 -19.5t-143.5 -11.5h-26q-23 2 -45.5 2h-45.5q-27 0 -52 1t-52 7q-43 8 -85 15.5t-85 15.5q-80 14 -123 84q-6 10 -13.5 21.5t-15.5 23.5z" />
<glyph unicode="R" horiz-adv-x="3026" d="M682 530l6 197q-23 4 -51 4q-82 0 -218 -28.5t-235 -79.5q-6 -27 29 -43q59 -29 123 -29l123 12q25 0 43 -6t30.5 -3t47 3t82.5 -25q6 -2 20 -2zM2356 1183q-9 5 -72.5 12t-126.5 7h-172q-109 0 -179.5 8.5t-80 8.5t-15.5 -13q4 -57 37 -100q158 -29 344 -29h41 q39 2 84 2q78 0 164 66q2 2 2 5t2 5q-19 23 -28 28zM1942 1225l92 2h149q135 0 151.5 -6.5t37 -13.5t38 -28.5t35.5 -43.5q-16 -33 -16 -50v-22q8 -70 94 -199q33 -4 53.5 -1t39 2t43 -3t51 -3t40 -2t41 2t67.5 9t71.5 11.5t50 13.5t31.5 31q-29 10 -52.5 20t-48 20.5 t-49.5 16.5t-41 12t-25.5 6t-18.5 3.5t-16 7.5t-7 18q72 61 95 104.5t42.5 70t18.5 46t-1 25.5l-10 4q-55 -27 -90 -27q-8 0 -15 2q-31 0 -65 11q-14 -2 -41 -2t-97.5 18t-117.5 27.5t-146.5 40t-300.5 30.5q-270 0 -294 -102q-4 -12 2 -22.5t16 -12.5q41 -4 90.5 -10 t102.5 -6zM825 1204l-104 4q-135 0 -275 -37q-37 -8 -106.5 -23t-216.5 -91q-4 -2 -8 -6t-11 -9q0 -16 -1 -32.5t3 -44.5q25 -135 80 -308q10 2 18.5 3.5t63 24t201.5 49t240 26.5h141q135 0 295 -29t232.5 -39t146 -25.5t121 -17.5t112.5 -20q63 -16 168 -17q102 0 169 5.5 t112 19.5t56 15t40 12q184 66 197 96q2 4 0 10q0 16 -9 53q-12 51 -53 119t-41 135v17q0 4 -4 16q-47 -16 -86 -33q-49 -20 -221 -20h-60q-88 0 -148 9t-92 12t-84 10.5t-122 20.5t-137.5 24.5t-133 19.5t-216 29.5t-189.5 21.5h-78zM2946 984q28 -13 47.5 -13t80.5 10 q31 -14 12.5 -32.5t-39 -44t-66.5 -42t-95.5 -20.5t-74 -6t-48.5 -2l-23 2l-112 4h-23q-33 0 -63 -13q-12 -18 -9 -51v-18q0 -51 -30 -53q-12 -2 -25.5 -4.5t-48.5 -18.5q-39 -18 -173 -54t-259 -36h-31q-111 0 -276 31q-18 4 -37 5t-98.5 16t-94.5 15q-47 10 -96 17.5 t-94 14.5t-87 12.5t-103.5 15.5t-166.5 18q-72 4 -106 4h-25q-29 -4 -57 -8q-14 -41 -14 -61v-29q6 -37 6 -74l4 -82q0 -33 -35 -61q-37 -33 -78 -37q-139 -16 -190 -18h-84q-162 0 -299 -72q-51 -27 -90 -71t-45 -46t-31 0q-16 43 -16 90q0 82 51 172q31 47 35 70 q-14 25 -41 20.5t-50 -4.5l-69 5q-31 0 -51.5 -5.5t-29.5 -3.5t-24 4q6 10 11 19q2 4 26 33q76 88 236 200q31 20 57.5 29.5t42.5 17t35 -3.5q2 -14 -8.5 -16t-37 -10t-67.5 -33q-76 -45 -145 -115l-68 -67q-2 -2 -2 -13q8 -12 40 -13t69 -1q78 0 135 -14q-4 -10 -6 -19.5 t-6 -17.5l-80 -141q-18 -33 -19 -58v-35q2 -6 6.5 -12t8.5 -16q20 10 24 14q16 23 40 36t57.5 32.5t111.5 41t137.5 22.5t109.5 5t93 5t91 6.5t77 27t29 34.5t-19.5 33.5t-103.5 28.5q-72 8 -107 9h-10q-33 -2 -63.5 -8.5t-56 -6.5t-124.5 39q-6 4 -11 10.5t-13 11.5 t-17.5 9t-19.5 10q-4 8 0 13.5t8 17.5q6 25 6 49q0 41 -18 82q-16 45 -22.5 91t-14.5 77q-6 33 -4 45l-2 43q0 35 41 57q47 27 72.5 34t50 17.5t54.5 20.5t66.5 19.5t59 15.5t31 5t59.5 16.5t145 17.5h123q150 0 244 -12.5t169 -21.5t138.5 -19.5t113.5 -20.5t91 -17.5 t68.5 -9.5t44 -5t22.5 -1t15 4q-2 8 -1 15.5t-10 23.5q-10 18 -10 35v25q12 55 35.5 82.5t34.5 42.5q23 23 84 39t84.5 16t40 -3t41 0t63.5 3t98.5 -7.5t108.5 -11.5t174 -41.5t173 -43t72.5 -8.5t43 -4t32 -3t44.5 -2q35 0 83 35q41 29 54 31q2 0 6 -3q12 -12 12 -34 q-2 -39 -35 -109q-20 -45 -41.5 -74.5t-34 -48t-26.5 -37.5q14 -18 59 -30.5t73 -25.5z" />
<glyph unicode="S" horiz-adv-x="3096" d="M2015 920q35 -2 71 -4.5t71 -6.5q78 -4 154.5 -4h154.5q43 0 85 -3t85 -7q27 -4 36 -9t29 -26q-2 -4 -2 -6t-2 -4q-41 -27 -83 -44.5t-95 -17.5h-29q-29 0 -57 -2q-27 -2 -53 -2h-35q-57 2 -112.5 6.5t-110.5 8.5q-27 4 -52.5 7t-50.5 7q-20 23 -28.5 47.5t-12.5 48.5 q8 12 17.5 12.5t19.5 -1.5zM848 174q-49 -31 -100 -33q-47 -4 -92.5 -5t-90.5 -5q-66 -4 -128 -5t-126 -17q-41 -10 -78.5 -21.5t-72.5 -28.5q-25 -12 -49.5 -25.5t-42.5 -33.5q-6 -6 -27 -16q-4 10 -8 16t-6 12q-2 23 2 45.5t16 42.5q23 35 44.5 69t41.5 69q4 6 7 15t7 19 q-18 4 -33.5 6.5t-29.5 4.5q-41 2 -82 3t-82 3h-19.5t-15.5 10q0 10 2 12q70 61 143.5 121t174.5 88h18q10 2 19.5 2t19.5 2h4q4 -10 7 -19t8 -20q14 -33 18 -69q2 -16 0 -30.5t-6 -29.5q-2 -8 -7 -13t-1 -11q10 -6 20 -11.5t21 -9.5q8 -4 13 -10t11 -10q45 -16 90 -29 q25 -8 51 -8q20 0 41 4q45 8 88 8h37q61 -4 125 -10q45 -4 72 -31q31 -26 -4 -51zM856 262q-33 16 -68 21q-16 2 -34 2l-35 -2q-8 0 -14.5 -1t-12.5 1q-29 8 -57 8h-17q-37 -4 -73 -8q-20 -2 -41 -2q-68 0 -129 26q-14 6 -24.5 15.5t-4.5 25.5q49 25 124 46.5t151.5 35.5 t148.5 21q31 2 55 2q35 0 60 -4q-2 -49 -3 -95.5t-3 -93.5q-17 0 -23 2zM2787 453q-47 -23 -96 -38.5t-98 -31.5q-10 -4 -22.5 -5t-22.5 -5q-84 -25 -172 -31q-49 -2 -99 -2q-156 0 -303 29q-20 4 -32 4q-82 4 -162 17t-160 24q-76 10 -149.5 22.5t-149.5 22.5 q-72 8 -141.5 15t-141.5 7q-92 0 -181 -3t-181 -19q-74 -12 -147.5 -27.5t-145.5 -42.5q-8 -4 -17.5 -4t-19.5 -4q-14 45 -26.5 83t-22.5 77q-23 74 -37 147q-4 16 -2 31.5t2 32.5q6 4 10 8t9 6q66 29 131 54.5t137 39.5q41 8 79 16.5t79 16.5q70 12 137 16q37 2 76 2 q31 0 61 -2q27 -2 51 -2h27h26l52 -2q70 -6 137 -13t137 -15q72 -10 140.5 -18.5t140.5 -18.5q76 -10 149.5 -23.5t149.5 -23.5q35 -4 70.5 -7.5t70.5 -7.5q102 -12 201.5 -12t201.5 2q23 2 43.5 6t42.5 10q23 8 44.5 15.5t46.5 17.5q2 -10 4 -15t2 -11q-2 -10 -2 -19 q2 -25 10 -49q12 -33 33 -64q45 -70 63 -139q8 -29 2 -40t-35 -27zM3297 596q-45 -6 -88 -11l-86 -10q-31 -4 -61 0q-39 4 -80 7h-21q-31 0 -61 -4q-10 -2 -22.5 0t-26.5 2q-23 31 -43.5 61.5t-36.5 63.5q-16 35 -21 67v10q0 27 17 58q-18 23 -37.5 43t-50.5 30 q-12 4 -24.5 8.5t-26.5 4.5q-68 2 -134.5 3t-134.5 1q-41 0 -82 -2q-20 0 -39.5 -1t-39.5 1q-45 2 -88.5 6t-88.5 8q-27 4 -18 33q10 43 59 61q45 18 91.5 26.5t93.5 10.5q35 2 69 2h31l125 -6q111 -8 221 -41q51 -14 102.5 -22.5t102.5 -20.5q43 -10 84 -18q27 -4 55 -4 q16 0 33 2q35 -10 70 -11h22q45 4 90 25q-2 0 10 -4v-12q-2 -33 -18 -58q-20 -29 -41 -59q-20 -33 -49 -58.5t-57 -48.5q-2 -14 6 -18t18 -8q10 -2 20.5 -2t20.5 -4q27 -6 51.5 -13.5t51.5 -15.5q27 -10 53 -20.5t55 -20.5q-12 -23 -32.5 -30t-43.5 -11z" />
<glyph unicode="T" horiz-adv-x="3223" d="M2922 526q0 -10 -1 -16t-1 -14q0 -10 -1 -22.5t1 -24.5q0 -33 -14 -53.5t-49 -35.5q-41 -16 -83 -32.5t-79 -38.5q-10 -4 -19.5 -7t-19.5 -8q-51 -23 -103 -39t-112 -22q-41 -16 -85 -24.5t-89 -12.5q-6 0 -12 -2l-12 -4q-45 -10 -89 -16q-33 -4 -67 -4h-23 q-12 2 -25.5 -0.5t-25.5 -4.5q-10 -2 -18 -3t-19 -1q-47 0 -94 -5t-94 -11q-18 -4 -37 0q-35 2 -68 2h-34q-51 -2 -103 -2q-57 -2 -113.5 -2t-113.5 2q-53 0 -107.5 2t-107.5 6q-16 0 -29.5 2t-27.5 6q-41 10 -82 10.5t-82 4.5q-111 16 -219.5 38.5t-212.5 61.5 q-12 4 -25.5 8t-28.5 8q-8 2 -14 5.5t-12 5.5q-4 16 -4 32q0 20 6 43q4 16 4 35t2 39q-10 0 -18.5 2t-16.5 0q-18 -2 -35.5 0t-36.5 4q-53 4 -105 16.5t-106 24.5q-66 16 -128 36t-119 52q-35 20 -67 43t-62 45q2 16 18 17q43 -2 87 -3t87 -3q29 0 56.5 2t56.5 10 q23 6 47 10t49 8q6 2 11 4t14 7q-4 8 -7.5 12t-7.5 8q-27 18 -47 41t-39 47q-8 10 -17 19.5t-20 19.5q-23 23 -39 48.5t-26 55.5q0 4 -4 13q-2 10 6 17t18 3l62 -24q51 -23 102 -31q39 -6 80 -18q25 -8 49.5 -11.5t50.5 -5.5q31 0 60.5 -2t58.5 -4q35 -4 68 -4q8 2 16 2 q41 0 86 6q33 4 64.5 6t64.5 4l209 19q16 2 35 2q20 0 41 -4q37 -4 74 -11q23 -4 44 -10t44 -12q27 -6 43 -21.5t26 -35.5q6 -10 2 -23q-12 -35 -12 -68q0 -10 -2 -22q0 -23 2 -45q0 -16 1 -33.5t1 -36.5q14 -2 25.5 -4t23.5 -2q49 2 99 2q27 -2 51 -2h28q59 0 121 4 q49 2 99.5 8.5t99.5 14.5q47 6 92 11t92 9q47 6 94.5 14.5t94.5 20.5l4 10q-4 27 -8.5 53.5t-10.5 53.5q-4 14 -4 26q0 20 10 41q10 18 22.5 36t35.5 28q45 20 89 35.5t95 19.5t100.5 8t98.5 15q27 4 52.5 4t51.5 2q35 0 72 6q63 6 125 14q49 6 96 6h29q12 0 25.5 2.5 t25.5 6.5q45 8 90 14t92 12q82 12 137 58q2 2 4.5 2t6.5 2q16 -6 8 -19q-4 -8 -7 -15t-7 -15l-99 -154q-10 -12 -19 -24.5t-20 -22.5l-18 -25q8 -10 19.5 -12t21.5 -6l135 -25q37 -6 75 -6t75 6q10 4 22 5t23 3q12 0 16 -8q0 -10 -8 -14q-49 -23 -93 -54.5t-92 -58.5 q-117 -68 -262 -106q-51 -14 -101.5 -28t-103.5 -34zM403 293q31 -12 62 -24.5t61 -22.5q70 -23 141.5 -36t143.5 -30q59 -10 116.5 -13t116.5 -13q16 -2 31 -4.5t31 -4.5q53 -2 108.5 -5t108.5 -3q45 -2 90 -2h45q70 0 137 4q23 0 47.5 1t47.5 -3q18 -2 36 -2l58 4 q47 6 94 11q55 4 111 10q43 4 84 4h26q39 0 72 8q35 8 67.5 13t67.5 10q20 2 38.5 7t37.5 9q23 4 46 12t48 10q35 4 65.5 12.5t59.5 26.5q4 2 10 2t10 2q20 10 41 18.5t43 18.5q10 4 21.5 10.5t23.5 10.5q29 14 57.5 26.5t57.5 26.5q20 8 21 29v80q0 96 -37 186l-37 92 q-4 10 -8 18.5t-8 18.5h-15q-45 -16 -91 -31.5t-93 -25.5q-2 0 -10 -4q-33 -16 -68 -21.5t-72 -9.5q-39 -2 -76.5 -8t-74.5 -15q-23 -6 -43.5 -10t-42.5 -4q-20 0 -41 -6q-39 -6 -78 -12.5t-78 -12.5l-98 -12q-66 -8 -130.5 -16.5t-129.5 -16.5q-33 -4 -66 -6t-67 -6 q-84 -6 -168 -6t-166 6q-66 4 -131.5 11t-130.5 16q-14 2 -27.5 2t-28.5 2q-47 6 -94 11t-94 11q-27 4 -51.5 8t-48.5 15q-16 6 -31.5 9t-32.5 7q-27 8 -37 -16q-8 -16 -13 -32.5t-11 -33.5q-41 -102 -54 -203q-4 -27 -4 -53t4 -55zM3310 1083q-10 -2 -17.5 -2t-13.5 -2 q-25 -8 -49.5 -12t-51.5 -8q-29 -4 -55 -9.5t-55 -9.5q-29 -6 -58.5 -10t-60.5 -4q-35 0 -72 -6q-51 -4 -101 -10t-103 -11q-49 -4 -99.5 -8t-99.5 -12q-35 -6 -66 -6q-39 0 -75.5 -6t-71.5 -15q-10 -4 -20.5 -7t-18.5 -7q-18 -10 -36.5 -20.5t-35.5 -24.5 q-23 -20 -16.5 -42t35.5 -34q57 -25 121 -24q25 0 49 4q10 2 22.5 2h22.5q14 2 26.5 3t24.5 5q57 16 113.5 32.5t111.5 32.5q31 10 62 11q18 0 39 -4q49 -6 65 -54q8 -29 25 -65q18 -47 36.5 -92t24.5 -95q0 -2 8 -14q8 2 15.5 2t13.5 2q14 4 26.5 9.5t26.5 9.5q41 4 78 15 t76 24q164 51 293 143q8 6 26 24q-35 4 -65.5 8.5t-58.5 8.5q-47 6 -94.5 13t-94.5 16q-14 2 -33 10q-4 2 -5 7t3 9q6 8 21 12q37 16 57 46q10 16 21.5 31.5t21.5 31.5q16 25 31 49t31 53zM387 467l19 49q23 53 39 109.5t44 109.5q8 16 18.5 24.5t31.5 12.5q43 4 84 6h20 q31 0 64 -4q41 -4 81 -8l46 -4l36 2q16 2 30.5 1t31.5 1q37 2 72.5 2t72.5 4q27 0 45 8q12 4 24.5 11.5t22.5 15.5q10 6 10.5 15t-5.5 18q-8 12 -27 22q-61 27 -121 35q-57 10 -115 10q-6 -2 -10 -2q-61 0 -126.5 -4t-131 -10t-131.5 -10q-37 -4 -74 -4q-33 0 -69 4 q-74 6 -146 10q-16 0 -32.5 3t-32.5 7q-47 12 -92.5 24.5t-90.5 24.5q-6 2 -12 1t-16 1l7 -21t7 -18q4 -6 7 -13t9 -11q37 -35 69 -75t73 -73l37 -30q-10 -10 -19.5 -18.5t-23.5 -10.5q-43 -8 -85 -17.5t-87 -11.5q-31 -2 -62 -3t-61 3h-18.5t-18.5 -2q-4 0 -17 -8 q25 -31 58 -49q37 -16 73.5 -33.5t75.5 -30.5q74 -23 148 -42t151 -25q29 -10 56.5 -8t60.5 12zM1167 768q-16 -4 -27.5 -7t-23.5 -3q-59 -4 -117 -13q-31 -4 -61 -2q-27 0 -55 2q-10 2 -20.5 0t-20.5 -2q-8 0 -15.5 -1t-15.5 1q-23 2 -46.5 5.5t-45.5 3.5q-37 4 -75 4h-75 q-10 0 -19 -2t-20 -6q-16 -6 -16 -23q0 -14 18 -20q45 -12 89.5 -27.5t93.5 -20.5q37 -4 73.5 -9t73.5 -9q14 -2 28.5 -4t31.5 -2q84 -4 163 -19q18 -4 37 -4t37 8v70q2 18 4 37.5t4 42.5zM2783 842q-8 4 -12 8t-8 6q-23 4 -42.5 5t-39.5 -5q-31 -8 -60.5 -16.5t-58.5 -18.5 q-135 -45 -283 -45h-24q-18 0 -35.5 2t-34.5 10q-10 4 -21.5 8.5t-27.5 0.5v-15q0 -49 23 -94q29 4 56.5 6t53.5 8q84 18 168 25q31 4 61.5 6t59.5 19q25 14 50.5 21t53.5 13q33 8 61.5 22t59.5 34z" />
<glyph unicode="U" horiz-adv-x="2969" d="M2714 778q-33 -20 -62 -34.5t-61 -22.5q-29 -8 -55.5 -16.5t-53.5 -22.5q-29 -16 -59.5 -19.5t-61.5 -7.5q-43 -4 -85 -10t-85 -16q-29 -8 -56.5 -10.5t-55.5 -6.5q-23 49 -23 103v16q16 4 27.5 -1t21.5 -9q33 -12 72 -12h25q68 0 133 8q78 12 153 41q29 10 59.5 19 t61.5 20q20 4 39 4q23 0 43 -6q5 -3 23 -17zM1073 698q-2 -23 -4 -43t-4 -41v-77q-18 -8 -37.5 -7.5t-38.5 5.5q-41 6 -82 11t-84 7q-16 0 -30.5 2t-30.5 6q-37 4 -74 9t-76 10q-47 6 -92 21t-92 30q-18 6 -18 22q0 18 16 23q20 10 41 10h75t74 -4q25 -2 48.5 -4t46.5 -6 q20 0 30 2q10 0 20.5 2t20.5 0q31 -4 60.5 -4t60.5 4q59 8 119 12q10 2 22.5 4t28.5 6zM281 373q-33 -10 -62 -13.5t-57 7.5q-78 8 -153 29.5t-150 45.5q-39 12 -76 32t-74 38q-18 8 -32.5 21.5t-28.5 29.5q6 4 10 7t8 3q18 2 37 0q31 -4 62.5 -3t62.5 3q45 4 88 14.5 t86 18.5q14 2 23.5 11.5l19.5 19.5q-10 10 -18.5 17.5t-18.5 17.5q-41 35 -73.5 78t-69.5 81q-8 8 -17 25q-4 10 -7 20.5t-7 22.5q20 0 29 -2q47 -12 93 -25.5t93 -25.5q16 -4 32.5 -8t33.5 -7q74 0 147 -8q39 -4 78 -4q35 0 68 2q66 6 132 12.5t134 10.5q63 6 126.5 6 t129.5 -10q33 -4 63.5 -14.5t59.5 -24.5q18 -10 26 -23q6 -10 6 -20t-10 -17q-25 -16 -47 -28q-18 -8 -47 -8q-37 -4 -73 -5.5t-72 -3.5q-16 0 -32 1t-32 -1q-18 -2 -37 -2q-23 -2 -47 2q-41 4 -82 11q-33 4 -65 4h-21q-41 -2 -86 -9q-20 -2 -30.5 -12t-18.5 -26 q-29 -57 -46 -118t-40 -120q-4 -14 -9 -26.5t-9 -26.5zM3246 1042q-16 -31 -30.5 -58.5t-30.5 -53.5q-10 -16 -22.5 -33.5t-22.5 -34.5q-18 -31 -58 -49q-14 -4 -20 -14q-4 -2 -3 -8.5t5 -8.5q8 -4 16 -7t19 -5q47 -8 94 -15t94 -16q31 -4 62.5 -9t66.5 -9q-10 -8 -16 -14.5 t-13 -10.5q-66 -53 -140.5 -91t-156.5 -66q-39 -12 -76.5 -24.5t-78.5 -18.5q-14 -2 -26.5 -8.5t-26.5 -10.5q-8 -2 -15.5 -2t-13.5 -2q-8 12 -8 14q-8 53 -26.5 103.5t-37.5 99.5q-16 39 -24 72q-16 51 -66 59q-27 4 -52.5 3t-49.5 -11q-57 -18 -114.5 -36.5t-115.5 -35.5 q-12 -4 -25.5 -5t-25.5 -3h-23.5t-23.5 -2q-27 -4 -53 -4q-61 0 -119 27q-29 14 -35 36.5t17 45.5q31 25 71 49q10 4 19.5 7t19.5 7q37 10 74 16.5t76 6.5q37 0 67 6q51 10 101.5 15t101.5 9q53 4 104.5 10.5t104.5 12.5q16 2 34.5 4t37.5 2q31 0 60.5 4t57.5 10 q29 4 56.5 10.5t56.5 10.5q27 4 52.5 8t49.5 14q6 2 13.5 2t17.5 2zM297 182q-4 33 -3 61.5t5 57.5q6 57 18.5 112.5t34.5 108.5q6 16 11.5 34.5t13.5 37.5q10 25 37 18q16 -4 32.5 -8t32.5 -10q25 -10 50.5 -15.5t50.5 -9.5q92 -14 192 -24q14 -4 27.5 -4t29.5 -2 q66 -8 132.5 -16.5t132.5 -12.5q86 -6 170 -6l170 6q35 4 67.5 7t67.5 7q66 8 132 17.5t132 19.5q25 4 49.5 6t48.5 6q41 6 79 13.5t79 13.5q10 2 20.5 4t20.5 2q23 0 44 5t44 10q39 10 77 17t77 9q37 2 72.5 9.5t68.5 23.5q8 4 10 4q47 12 94 28.5t95 32.5h14q4 -10 8 -19 t8 -19q10 -25 18.5 -49.5t18.5 -51.5q37 -98 37 -203v-86q0 -20 -20 -32l-117 -56q-10 -6 -22.5 -12t-22.5 -12l-86 -37q-4 -4 -10.5 -4t-10.5 -2q-51 -37 -127 -43q-25 -2 -48 -10.5t-46 -14.5q-20 -4 -38.5 -9t-37.5 -7q-37 -4 -70.5 -10.5t-68.5 -14.5q-18 -4 -35.5 -7 t-36.5 -1q-57 0 -112.5 -7t-112.5 -11q-45 -6 -94 -11q-27 -2 -55 -2q-23 0 -43 2q-23 2 -46.5 1t-48.5 -1q-70 0 -138.5 -1t-137.5 -1q-55 2 -110.5 4t-108.5 7q-16 2 -31.5 4t-32.5 4q-59 10 -118.5 13t-118.5 15q-72 16 -144.5 33t-144.5 39q-31 10 -61.5 23.5 t-63.5 25.5z" />
<glyph unicode="V" horiz-adv-x="2992" d="M2757 803l-2 -35q-2 -2 2 -12q16 -10 36 -13q156 -16 287 -92q31 -18 63.5 -32.5t83 -39t81.5 -57.5q-29 -25 -59 -38t-59.5 -28.5t-60 -27.5t-63.5 -27q10 -16 55 -53t74 -63q66 -61 65 -131v-17q-8 -14 -20 -10q-78 29 -149.5 64.5t-199.5 51t-284 15.5t-266 -6l-86 -4 q-8 -2 -15.5 0t-17.5 4q23 117 23 166l-2 82q-8 14 -35 14l-264 14l-111 -4h-23l-114 4h-27q-39 0 -69.5 -7t-51.5 -7h-45q-88 0 -153 -10q-61 -10 -84 -10l-4 2h-7q-25 0 -92 -7q-80 -6 -98 -6h-29q-23 -2 -44 -3t-44 -7q-18 -59 -18 -88l2 -47q0 -14 -2 -38t-11.5 -37 t-36 -17t-51 -5t-45 -3t-87 -2t-238.5 -35q-305 -61 -481 -205q-25 10 -25 39q0 25 20 65q41 84 181 226q12 12 20 24q-10 20 -33.5 15t-42.5 -9q-25 -6 -114 -20q-61 -10 -88 -10h-9h-12q-12 6 -22 10q129 158 356 285q123 72 156.5 76.5t52.5 9.5q8 12 8 43q0 37 -12 98 q8 2 16 6t42 13.5t90.5 22.5t208 49t242.5 44t134 12t92 11q102 12 160 12h55q96 6 150 6h61q82 0 173 -8t186.5 -14.5t173 -16.5t135 -14t112 -14.5t104.5 -22.5t85 -19.5t52 -12.5t28.5 -7t17.5 -8q10 2 19 -8q6 -12 6 -29v-31q0 -8 -2 -16zM424 672q-12 4 -27 4 q-37 0 -78 -21q-197 -92 -311 -196q-37 -33 -58.5 -52.5t-26.5 -27.5t1 -21q20 -10 56 0l159 25l40 4t38 -6q6 -23 -15.5 -44.5t-45 -46t-57 -55t-58.5 -75.5t-31 -63.5t-16 -39.5q14 -6 16 -6q14 8 29 15q14 4 39 20q84 55 239 100q227 63 453 74q59 2 72.5 5t25.5 11 q-12 16 -39 31q-31 10 -61.5 19.5t-60.5 19.5q-72 14 -138 14h-28q-43 0 -88 -2l-39 2q-2 10 -2 25q0 25 8 57q12 53 12 134.5t-8 95.5zM481 381q86 -6 90 -6h17q86 0 152.5 -22.5t92 -30t52.5 -17.5q6 8 10 44t12 106q0 2 -6 14q-31 4 -63.5 -2t-97 -12t-236.5 -56 q-3 0 -23 -18zM1825 1004l-223 6q-90 0 -163 -5.5t-128 -9.5q-53 -2 -99 -6q-340 -31 -471 -76q-68 -8 -169 -36.5t-119 -36.5q-2 -16 -2 -32.5t2 -41.5q4 -51 8 -141q2 -47 2 -78v-27v-26q-8 -35 -14 -84q23 -6 53 4q51 10 100 22q168 41 359 56l182 14q10 2 20 2q2 0 4 -2 q6 0 74 6t150 8q84 4 149 10q109 10 170 11h39q37 -2 64.5 -3t44 -2t45 2t51 3t26.5 2l68 -6q16 -4 41 -5h65q45 0 224 -28q178 -39 221 -42t72 -7l55 -6q4 14 -8.5 55t-12.5 80t5.5 69.5t10.5 96t15 94.5q-10 35 -35.5 40t-123 32.5t-195.5 37.5q-113 10 -252 27t-305 23z M2279 498v-88q4 -20 -3 -41t3 -41q20 -2 35 10t34 20.5t38.5 18.5t47.5 20.5t59.5 19.5t70.5 21q-14 6 -21.5 11.5t-40 14.5t-89 18.5t-87 15.5t-37 3t-10.5 -3zM2361 274l150 5l49 -3q84 -2 166 -7t129 -7t54 -4t44 -10q145 -31 228 -76q10 -8 22 -10h27q-4 14 -4 24.5 t-20.5 45t-47.5 53.5q-8 2 -16 10l-17 16q-41 45 -67.5 56.5t-34.5 16.5t-12 22q10 10 47 16t186 86q4 4 8 9t8 9q-25 31 -63.5 49.5t-69 33t-88 49t-151.5 53.5q-51 10 -86 10q-29 0 -47 -6q-14 -47 -14.5 -94.5t7.5 -88.5q8 -37 11 -67q0 -37 -35 -43h-21q-12 2 -28 2 q-33 0 -74 -6q-66 -8 -95.5 -19.5t-41.5 -15.5q-41 -4 -77 -26.5t-56.5 -36t-25.5 -19.5t1 -22q12 -4 26.5 -4.5t28.5 -0.5z" />
<glyph unicode="W" horiz-adv-x="2547" d="M657 248q-31 -6 -61 -6q-72 -4 -142.5 -12.5t-142.5 -18.5q-92 -14 -181 -40t-179 -58q-84 -31 -160 -80q-16 -8 -30.5 -16.5t-30.5 -16.5l-19 6q10 23 18.5 44.5t18.5 39.5q18 35 40 69t50 62q29 27 53.5 53.5t51.5 55.5q10 10 15 20t1 29q-23 10 -43 8t-43 -6 q-45 -6 -89 -13.5t-89 -15.5q-16 -2 -30.5 -4t-31.5 4q-6 16 0.5 24.5t12.5 14.5q41 39 82 76t84 72q63 49 129.5 88t138.5 71q23 10 44 16.5t44 4.5q4 -2 9 -3t9 -3q6 -10 7 -15q4 -96 4 -133q0 -57 -17 -116q-4 -23 -8 -44.5t4 -48.5q10 0 21.5 -1t21.5 -1q31 -2 64 -2 q16 0 31.5 1t31.5 1q33 0 64 -2q23 0 45 -4t45 -10q35 -10 67.5 -21.5t65.5 -23.5q16 -6 31 -17q4 -2 14 -16q-6 -4 -11.5 -8t-9.5 -4zM702 305q0 -4 -2 -6l-6 -6q-29 10 -57.5 19.5t-56.5 19.5q-59 20 -117 33q-41 8 -82 8h-16h-19q-20 -2 -42.5 1t-53.5 5q12 10 16 15t8 7 q74 20 148 39t149 27q35 4 72 10q23 4 43 4q14 0 29 -2q4 -16 4 -14q-4 -41 -8.5 -80t-8.5 -80zM2058 555h-16q-27 0 -62 4q-37 6 -73 6h-15q-45 0 -86 -6q-18 -2 -36.5 -2h-36.5q-41 0 -84 4q-18 2 -37 2q-25 0 -47 -2q-74 -4 -146.5 -11t-146.5 -9q-61 -2 -123 -7.5 t-125 -9.5h-45q-59 -6 -117.5 -11t-118.5 -11q-61 -8 -122.5 -16.5t-122.5 -18.5q-57 -10 -112.5 -23.5t-113.5 -25.5q-14 -4 -28.5 -7t-30.5 3q4 16 5 32.5t3 32.5q2 10 4 21.5t2 21.5q0 59 -1 116.5t-3 117.5q-2 37 -6 73q-2 16 0 33q0 23 2 43q10 4 20.5 9.5t20.5 9.5 q70 18 137.5 37.5t139.5 29.5q92 31 184 45.5t186 26.5q35 4 68 8t67 8q61 4 123 8.5t123 8.5q49 4 98 6h50.5h50.5q61 0 122.5 -3t123.5 -5q141 0 282 -19q76 -10 151 -18t150 -17q51 -4 101.5 -13t99.5 -21q31 -8 61.5 -16.5t61.5 -16.5q14 -4 30.5 -7t30 -8.5t23.5 -15.5 t14 -31q-4 -14 -6 -27.5t-4 -29.5q-4 -41 -7 -83t-9 -83q-6 -31 -7 -61q0 -12 2 -29q4 -45 17 -90q4 -10 6 -22.5t-2 -28.5l-62 6q-31 4 -61.5 6t-60.5 8q-51 10 -100.5 21.5t-98.5 21.5q-72 14 -142.5 24.5t-144.5 10.5zM2236 412q-4 23 -3 47t1 53q6 2 12.5 5t12.5 1 q63 -10 125.5 -21.5t122.5 -29.5q10 -4 18 -9t25 -14q-41 -14 -78 -24t-72 -25q-23 -8 -46 -20.5t-46 -22.5q-18 -10 -34.5 -23.5t-39.5 -11.5q-10 25 -3 48.5t5 46.5zM3285 127q-10 0 -16.5 -1t-12.5 1q-8 2 -14 5t-12 7q-66 37 -136.5 57.5t-142.5 36.5q-10 2 -19.5 4.5 t-19.5 2.5q-92 6 -183 11t-183 9q-27 0 -53.5 1t-55.5 -1l-110 -4h-33t-31 6q-6 16 0 23.5t12 11.5q39 29 78 54.5t86 31.5q4 0 10.5 2t10.5 4q59 25 120 33q41 6 82 6l41 -2h23q35 6 39 41q0 39 -6 70q-16 61 -17 118q0 51 17 107q31 12 61.5 10t58.5 -8 q59 -12 114.5 -32.5t109.5 -53.5q35 -20 69.5 -37.5t69.5 -34.5q23 -10 41 -23.5t35 -35.5q-4 -4 -8.5 -10.5t-10.5 -10.5q-57 -35 -115.5 -65.5t-123.5 -40.5q-8 -4 -17 -12q4 -18 14.5 -24.5t20.5 -10.5q27 -12 49.5 -31.5t42.5 -42.5l16.5 -16.5t18.5 -14.5 q25 -16 39 -41.5t31 -50.5q4 -10 5 -21.5t5 -27.5z" />
<glyph unicode="X" horiz-adv-x="3631" d="M3383 911q16 6 32.5 13.5t35.5 15.5q-10 14 -18.5 14t-18.5 4q-20 8 -31 11q-10 4 -18 5t-19 3q-10 4 -18 7t-18 7t-17.5 6t-15.5 7l-37 12q-8 4 -16.5 5t-16.5 5t-16 9t-19 14q10 23 23.5 28.5t23.5 16.5q10 12 21.5 22t21.5 21q10 12 22.5 24.5t23.5 24.5 q10 12 21 24.5t22 26.5q10 12 18 25.5t18 27.5l37 56q-4 10 -8 11t-8 -1q-31 -16 -62 -17q-16 0 -30 4q-27 8 -54 9q-10 0 -22 -2q-37 -4 -76 -9q-12 -2 -25.5 -3t-25.5 1q-49 6 -97 13.5t-98 13.5q-47 4 -94 11t-94 9h-33h-28q-57 0 -113 -6q-86 -8 -174 -43 q-14 -6 -26.5 -13t-22.5 -28q4 -4 7 -9t7 -5q41 -6 80 -13t80 -12q29 -2 57 -2h29q43 2 86 2q37 4 69 5h13q27 0 55 -5q27 -2 51.5 -7t50.5 -13q31 -10 37 -53q4 -12 4 -25.5t2 -25.5q2 -72 3.5 -140.5t5.5 -138.5q10 0 14 -2q4 0 5 -1t5 -1q14 6 28.5 1t29.5 -5 q16 0 33.5 -1t33.5 -1q35 0 66 6q18 4 35.5 10t33.5 10t32.5 8.5t33.5 8.5q16 6 31.5 12t31.5 12zM2937 676q16 16 16 43v10q-2 4 -2 8q-2 27 -4 52.5t0 52.5v39v32q0 33 -2 66q-4 70 -8 139q0 29 -23 33q-4 2 -10 2q-41 -8 -81 -8t-79 -21q-35 -16 -67.5 -21t-67.5 -5 q-49 -2 -97 -9.5t-97 -13.5q-25 -4 -49.5 -8t-49.5 2q-27 6 -53.5 8t-54.5 6q-18 2 -37 -1t-39 -3l-203 13q-143 6 -284 18q-37 4 -73 11t-73 12q-63 6 -125.5 10t-126.5 6h-43q-31 -2 -61 -2q-51 -4 -105 -4q-45 -2 -89 -4t-91 -6q-66 -4 -127 -23.5t-123 -44.5 q-10 -4 -20 -9t-21 -9q-23 -6 -41 -20.5t-34 -31.5q-25 -23 -25 -57q0 -8 2 -16q12 -78 17.5 -159t11.5 -161q4 -23 4 -46.5t2 -49.5q8 4 13 4t9 4q82 66 170 103.5t181 60.5q66 14 133 20.5t135 16.5h18q92 -4 182.5 -7t182.5 -20q59 -10 119.5 -24.5t119.5 -24.5 q33 -8 66 -13t65 -12q57 -10 112.5 -21t113.5 -15q68 -4 133 -9q25 -2 51 -2q41 0 82 4q61 6 122.5 9.5t123.5 7.5q14 2 28.5 4t28.5 6q18 4 36.5 7t37.5 7q10 4 19.5 6.5t17.5 6.5q57 23 125 39q0 4 8 12zM1141 420q2 23 2 45v20l-4 62v33.5v33.5q2 33 2 66q-12 4 -19 4 q-16 0 -30.5 -3t-30.5 -3h-27q-43 -2 -88 -10q-57 -12 -110 -23q-66 -12 -129.5 -43t-122.5 -70q-20 -12 -40 -29.5t-40 -45.5q18 -14 20 -15q18 2 36 3t36 6q59 16 117 24q27 4 53 4h18q25 0 47 -2q27 -4 52.5 -5t50.5 -5q47 -4 92 -14.5t90 -26.5q6 -2 11.5 -3t13.5 -3z M1106 336q10 4 17 10t12 23q-8 20 -19.5 28.5t-25.5 12.5q-47 14 -91.5 26.5t-91.5 14.5q-18 0 -35.5 1t-35.5 3q-27 4 -52 4q-18 0 -36 -2q-43 -6 -86 -19q-23 -6 -44.5 -13t-44.5 -11q-25 -6 -48 -3t-46 25q-4 100 -5 154.5t-4 85.5t-7 46t-10 36q-10 -2 -18.5 -3 t-18.5 -5q-68 -27 -131.5 -65t-128.5 -79q-41 -27 -77 -59.5t-75 -63.5q-6 -6 -6 -8q-2 -4 -2 -14q41 -2 84 -2t86 -4q78 -4 109.5 -11.5t56.5 -23.5q-4 -18 -13.5 -27.5t-19.5 -15.5q-41 -29 -72.5 -69t-66.5 -81q-18 -25 -33.5 -56.5t-34.5 -72.5q16 4 23.5 4t15.5 2 q29 10 57.5 19.5t57.5 17.5q53 16 108.5 32.5t110.5 31.5q49 12 99 22.5t102 20.5q63 16 125.5 25.5t128.5 13.5q47 2 93 16.5t93 32.5zM2318 1255v-18q0 -66 13 -131q14 -10 27.5 -11t27.5 1q35 4 68 10q25 4 53 4h16q47 0 100 6q33 2 74 17q43 14 84 26q31 8 62 8 q12 0 22 -2q14 0 29.5 3t34.5 16q-8 8 -12.5 13t-8.5 7q-37 20 -73.5 26.5t-75.5 8.5q-53 0 -106.5 -2t-106.5 -2q-16 0 -35 2t-35 6q-35 4 -68.5 9t-68.5 10q-4 0 -9.5 -2.5t-11.5 -4.5zM3543 981q4 0 9 -6t14 -10q-6 -6 -10.5 -11.5t-8.5 -9.5t-8 -5t-8 -5 q-57 -23 -112.5 -44.5t-113.5 -33.5q-18 -4 -35.5 -9t-33.5 -11q-57 -16 -111 -17h-12q-25 2 -50.5 1t-51.5 1h-7q-4 0 -8 -1t-8 -1q-12 0 -16 4v-32v-37q2 -4 2 -13q-2 -16 0 -35.5t-4 -35.5q-6 -20 -31 -26.5t-39 -12.5q-113 -41 -223 -68q-8 -2 -14.5 -1t-14.5 1 q-25 -2 -49.5 -2t-48.5 -4q-119 -12 -238 -16q-18 0 -37 -2l-200 14q-31 4 -63 10l-64 12q-27 4 -53.5 9.5t-53.5 11.5q-27 4 -52.5 10t-51.5 10q-53 10 -107.5 22.5t-107.5 23.5q-133 25 -265 24q-16 0 -33.5 1t-33.5 1q-23 0 -23 -33t1 -65.5t3 -65.5q2 -20 4.5 -38.5 t4.5 -39.5v-16q0 -82 -58 -117l-12 -6q-49 -16 -99 -28.5t-102 -16.5q-68 -2 -133 -13t-131 -26q-63 -14 -124.5 -27.5t-123.5 -29.5q-59 -16 -117.5 -29.5t-113.5 -40.5q-16 -8 -31.5 -15t-32.5 -18q-8 -4 -15 -6t-15 9q-4 23 1 42t15 42q23 47 52.5 84.5t58.5 76.5 q10 14 22 24.5t23 22.5q10 10 21 19.5t20 28.5q-10 10 -13 10q-72 14 -145 22q-20 2 -41 0l-106 -12q-10 -4 -22.5 -4t-27.5 10q4 6 5.5 12.5t5.5 10.5q12 10 23 22t24 21q20 12 38.5 26.5t34.5 32.5q31 35 66 54.5t70 39.5q59 35 116.5 68t116.5 65q6 4 12.5 10.5 l10.5 10.5q4 25 2 45t-4 43q-4 39 -3 60.5t7 36t18 24.5t33 26q35 27 70.5 40.5t72.5 25.5q68 23 135.5 35t137.5 14q23 2 47 5t47 3q33 4 65 4q8 0 17.5 -1t17.5 -1q33 0 66 4q31 2 61 2q47 0 92 -4q76 -6 154 -12q35 -2 68.5 -8t68.5 -12q18 -2 35.5 -4.5t36.5 -4.5 q121 -10 240.5 -15t242.5 -5q18 -2 37.5 -3t38.5 -1q10 0 31 4q6 23 6 42t-2 40q-2 16 -2 34.5t-2 37.5q-4 31 7 50t27 36q23 14 41 20q35 10 68 19.5t68 13.5q82 14 161 14q66 0 131 -10q55 -8 110.5 -15.5t111.5 -13.5q6 -2 11 -1t9 -1q39 -10 78 -10l53 4q23 2 45 2h31 q37 -4 76 -12q8 -2 18 -2q33 0 60 18q18 12 37.5 17.5t41.5 15.5q4 -6 7.5 -13.5t7.5 -15.5q-61 -86 -122 -170t-134 -149q16 -20 34.5 -27.5t36.5 -13.5q16 -8 32 -11.5t32 -11.5q35 -16 67.5 -16t67.5 -8q10 -2 20.5 4t20.5 8z" />
<glyph unicode="Y" horiz-adv-x="2848" d="M2159 1309q8 2 13 4t11 2q41 -4 82 -10.5t82 -10.5q23 -4 43 -6t43 -2q66 0 128 2t128 2q47 -2 91 -8t87 -29q6 -4 11.5 -9t13.5 -13q-20 -14 -39 -17.5t-37 -3.5q-12 2 -27 2q-39 0 -75 -10q-49 -12 -99 -28q-51 -14 -90 -17q-61 -6 -121 -6h-20l-62 -4q-41 -6 -81 -10 q-16 -4 -34 -2t-34 12q-8 41 -12 80q-2 27 -2 53v29zM698 311q-53 -23 -109.5 -37t-113.5 -18q-78 -4 -153.5 -14.5t-151.5 -26.5q-61 -12 -121.5 -22.5t-122.5 -24.5q-66 -16 -131 -33.5t-131 -36.5q-35 -10 -69.5 -19t-69.5 -20q-8 -2 -17.5 -3t-27.5 -3q23 43 41 77 t41 60q39 45 79 89.5t87 74.5q12 6 24 16.5t17 30.5q-29 16 -68 24.5t-133 14.5q-51 2 -102.5 2t-102.5 2q2 6 1 9.5t1 7.5q4 8 8 10q47 35 91 69.5t94 61.5q76 45 153.5 87t157.5 71q10 4 22.5 5t22.5 3q8 -23 12 -39t7.5 -49t6.5 -92.5t7 -167.5q25 -25 53.5 -29t58.5 4 q27 4 52.5 11.5t52.5 15.5q53 12 106 20q25 4 47 2q29 0 58 -4q43 -6 86 -6q55 -2 109.5 -15t109.5 -28q16 -4 30.5 -13t22.5 -32q-4 -18 -14.5 -24.5t-20.5 -10.5zM741 401q-10 2 -16 3.5t-12 3.5q-53 18 -108.5 29.5t-110.5 15.5q-31 4 -63 5t-62 5q-29 2 -58 2 q-45 -2 -86 -6q-70 -8 -139 -23q-23 -4 -43 -6t-43 -4q-4 0 -10 4t-17 10q25 31 49.5 49.5t47.5 32.5q74 41 149.5 76t155.5 47q68 10 133 27q45 10 92 10h16h29q18 -2 36.5 1t37.5 5q6 0 11 -1t11 -3q0 -37 -2 -74q0 -18 -1 -35.5t1 -33.5q2 -37 6 -70v-22q0 -23 -4 -48z M2904 680l-7 -7t-5 -7q-74 -16 -148 -43q-10 -4 -22 -6.5t-23 -6.5q-23 -4 -45 -8t-45 -8q-16 -4 -33.5 -6t-33.5 -4q-76 -4 -150 -7.5t-147 -11.5q-49 -6 -101 -6l-59 2q-80 6 -160 10q-68 4 -135.5 17.5t-136.5 23.5q-39 6 -78 12.5t-80 12.5q-72 14 -143.5 29.5 t-143.5 25.5q-111 16 -220 20.5t-220 8.5h-23q-80 -12 -160.5 -18.5t-162.5 -22.5q-111 -23 -216.5 -65t-203.5 -111q-6 -4 -27 -8q-2 29 -3 53t-3 49q-10 88 -15 175t-20 173q-2 10 -2 21q0 37 27 59q23 16 44.5 31.5t47.5 23.5q12 4 24.5 9.5t24.5 9.5q74 29 149 49 t152 25q55 4 109.5 6t107.5 6q66 2 127 6h37h37h51q76 -2 151 -6t150 -10q45 -4 88.5 -12.5t88.5 -12.5q86 -8 171 -12t171 -11q61 -4 122.5 -6t122.5 -4q23 -2 45.5 1t44.5 1q35 -4 67 -6t65 -8q29 -6 59.5 -1t58.5 9q59 6 116.5 14.5t117.5 8.5q41 2 81 7t81 23 q47 20 96 20.5t96 8.5q4 2 6 1t6 -1q14 -4 20.5 -11t6.5 -26q6 -76 10 -149q2 -35 2 -72v-35v-43q0 -59 6 -115q0 -6 2 -8v-10q0 -29 -18 -47zM3441 934q-18 -6 -38 -13.5t-38 -11.5q-20 -6 -40 -10l-40 -8t-40.5 -11.5t-43.5 -11.5q-37 -6 -78 -6q-20 -2 -40.5 0t-41.5 2 q-16 -2 -34.5 4t-34.5 -2q-8 4 -13 4q-8 4 -16 0q-4 78 -6 153t-6 151v28.5t-4 28.5q-4 23 -16.5 38t-31.5 19q-29 8 -60.5 14.5t-61.5 8.5q-27 2 -56 2h-26q-41 -2 -84 -2q-51 0 -101 -2h-34q-35 0 -70 2q-47 4 -95 11t-98 15q-4 0 -8 5.5t-10 9.5q12 23 28.5 31t32.5 14 q106 35 209 45q86 8 174 8h35q57 -2 113.5 -9t114.5 -14q59 -6 116.5 -13t116.5 -13q16 -2 30.5 -1t30.5 1q47 4 93 8q14 2 30 2l60 -6q20 -6 41 -6q35 0 69 18q6 2 11.5 1t9.5 -13q-10 -14 -21.5 -28.5t-23.5 -30.5q-10 -16 -21.5 -29.5t-21.5 -28.5q-12 -16 -25.5 -28.5 t-28.5 -26.5q-14 -14 -26 -27.5t-27 -25.5q-12 -12 -25.5 -23.5t-25.5 -21.5q-14 -14 -30.5 -21.5t-26.5 -30.5q12 -8 22 -14t21 -10q10 -4 19 -5t20 -5q10 -4 21 -7.5t22 -7.5q10 -4 19 -7t20 -7q10 -4 21 -7t24 -7q10 -2 21 -3.5t24 -5.5l37 -12q10 -4 21 -4t24 -14 q-23 -10 -42.5 -17.5t-39.5 -15.5z" />
<glyph unicode="Z" horiz-adv-x="3262" d="M667 729q42 6 111.5 6t200.5 -33q6 12 6 17l14 131q-20 4 -28 6l-60 -2q-109 0 -194 -29q-18 -6 -58.5 -16t-126.5 -57q-4 -2 -16 -19q18 -18 49 -18q8 0 17 2q43 6 85 12zM2451 1161l-157 -10q-78 0 -181.5 17.5t-141.5 33t-42 14t-10 1.5q-2 -20 -2 -41v-33 q0 -6 1 -24.5t-11 -49.5q10 -4 35 -10h22h14q37 0 148 -12l90 10q63 4 139 22q41 0 78 21.5t61.5 27t24.5 13.5t-4 12q-33 8 -64 8zM176 721l57 -2q12 0 22.5 -2t22 -1t21.5 -5q-4 -27 -60.5 -61t-93 -90t-52 -90t-17.5 -43t4 -19q12 4 18 8q104 66 215 84q27 4 77 19.5 t113.5 18.5t129.5 3q68 4 117 4q215 0 215 84v2q0 37 -21.5 51t-88.5 24.5t-94.5 10.5t-91 -12.5t-122.5 -12.5q-80 8 -80 72q2 10 3 22.5t4 33t9 50.5q12 59 13 80v21l-25 2q-80 -10 -229 -90q-49 -27 -79 -50.5t-52 -37.5q-16 -14 -34 -26.5t-28 -22t-12 -13.5t-6 -8 q10 -12 21 -9t22 3l47 2h55zM2556 1137l2 -31q-2 -20 -2 -37v-29q10 -84 19.5 -114.5t18.5 -62.5t35.5 -34t83 -15t128.5 -13l49 2q96 10 184 49l131 55q4 2 4 5t2 6q-23 10 -45 19t-76.5 31.5t-88 42t-41 23.5t-11.5 9.5t-6 9.5t-6 10q31 12 59.5 22.5t78.5 31t87 63.5 q-29 6 -51.5 0t-40.5 -6t-75.5 12t-91.5 12t-117 18.5t-419 75.5l-116 19q-33 4 -63.5 5t-64.5 5t-70 4t-70.5 -5t-57.5 -40q-14 -29 8 -39q88 -41 117 -45t48.5 -8t37.5 -6t51 -8.5t77 -6.5t130 11q49 6 80 6q25 0 35 -4q29 -8 47 -43zM2198 649l112 -6h21q33 0 65 6 q80 6 135.5 37t89.5 35v6v4v4v4q0 10 -26 62q-31 59 -51 123q-16 57 -17 170v20q-25 6 -58.5 -12.5t-89 -34.5t-87 -18t-52 -4.5t-40.5 -4.5q-16 -2 -33 -2h-33q-80 6 -106 6h-58q-63 0 -193 30t-158 36t-30 6t-48 16.5t-100.5 26.5t-62.5 10t-23.5 7.5t-37 11.5t-39.5 8 q-20 6 -33 8q-66 12 -90 19q-51 12 -164 12h-20h-18.5h-16.5h-15.5h-13.5q-154 0 -258 -43q-25 -10 -47 -16q-27 -6 -72 -46q0 -20 2.5 -49.5t-2 -62.5t-10.5 -80t-10 -78t-6 -44t-3 -23.5t0 -16.5t1 -16q14 6 27.5 10t37 20.5t65.5 30t49 14.5t57 19t111.5 18t81 -1t40.5 1 q27 2 45 2h26q27 -4 95.5 -6t107.5 -13t74 -16t77 -13.5t82 -16.5t77.5 -14.5t72.5 -18.5t69 -21.5t52 -14.5t44 -12t56.5 -18.5t52 -13.5t54.5 -12q111 -35 242 -35zM2640 795l18 -66q-12 -10 -37 -10q-14 -14 -29.5 -21.5t-54 -32t-73.5 -27.5t-45 -5h-4q-35 -8 -56 -8 h-24q-39 2 -65.5 2t-33.5 2l-118 6l-62 12q-41 2 -80 13.5t-61.5 16.5t-44.5 11l-68 19q-45 12 -75.5 19t-68.5 21.5t-138 30.5q-98 16 -127 25q-180 51 -279 51h-67q-23 0 -26 -31.5t-6 -69.5t-9.5 -89.5t-55.5 -100.5q-43 -37 -164 -37h-225q-125 -6 -307 -57 q-86 -25 -170 -82q-6 -4 -15.5 -17.5t-23.5 -13.5q-10 4 -5 42t35.5 89.5t51.5 83.5q25 37 67 71t54 42q-2 10 -5 11t-16.5 2t-38 1t-75.5 2h-13q-45 0 -82 -12q-16 -4 -45 6q4 6 5.5 11.5t18.5 22.5t81.5 66.5t106.5 75t81 43t87 41t78 30.5t42 12t25 10q12 43 12 67l-4 27 q0 23 22 49q98 98 447 98l31 -2q127 0 195.5 -16.5t94 -21.5t45 -11t40 -10t39 -9.5t51 -9.5t86 -21.5t77.5 -23.5q25 -4 54 -10l63 -16l6 -2q29 2 54.5 -6.5t42 -11.5t20.5 -2t10 1q8 55 8 88q0 12 -1 21.5t-1 19.5q0 25 6 53q12 45 23 54q35 33 61 32q45 4 74 5 q23 0 35 -2q27 -6 49.5 -7.5t54 -5.5t72.5 -9t88 -14.5t100.5 -19.5t97.5 -18t77.5 -12.5t64.5 -10.5t70 -15t75.5 -15.5t70.5 -11.5t64.5 -9t57.5 -8q12 -2 29 -2q18 0 41 2q31 8 63 8l31 -2q4 -2 9 -4t11 -6q-27 -31 -94 -67t-110 -52q-4 -4 -13 -6q-16 -6 -10 -14 q8 -12 31 -23q23 -8 45 -20l51 -27q29 -14 78 -30.5t65 -16.5q0 39 21 -15q0 -8 -31 -19t-51.5 -20.5t-42.5 -17.5q-20 -10 -68 -31q-104 -45 -231 -45h-33l-158 15q-4 0 -10 -1t-14 -1z" />
<glyph unicode="a" horiz-adv-x="3065" d="M977 406q-100 -111 -182 -146q-45 -20 -70 -20h-35q-84 0 -123 59q-16 25 -16 53q0 53 41 107q41 55 94 55q35 0 55 -27q10 -16 9.5 -36.5t-15.5 -32.5q-6 27 -30 35q-12 6 -25 6q-23 0 -41 -17q-31 -27 -31 -69v-11q0 -33 27 -59.5t65 -26.5q111 0 240 132 q86 90 154.5 195.5t131 217t124 224t137.5 217.5q2 2 3 4t6 4t12.5 -2t9.5 -11.5t1 -14.5t-16 -68q-45 -199 -65 -414q-10 -106 -11 -164v-72q4 -332 93 -450q59 -80 169.5 -80t184.5 69q63 66 63 156v10q0 90 -53 154q-27 35 -69 47q-16 6 -25 6h-16q-45 -6 -70 -33.5 t-25 -47t9.5 -38t26 -20.5t31.5 -2t21 -10q-35 -33 -79 -33q-23 0 -29 4q-31 18 -31 72q0 2 2 4q0 55 41 97t108.5 42t114.5 -43q84 -76 84 -172v-4q0 -188 -147 -256q-80 -37 -162 -37q-133 0 -194 86q-53 74 -72 152.5t-26 145.5t-7 241h-24q-209 0 -369 -178zM1430 1063 q-2 0 -14.5 -7t-32 -23.5t-32 -40t-39 -69.5t-62.5 -125t-87 -149l-8 -10q-16 -25 -16 -41q-2 -6 4 -11t27.5 0t46 10t68.5 24.5t89 33.5q14 102 28 203t28 205zM2111 410q-78 8 -77 65q0 45 36.5 171t137.5 466q16 2 52 2t82 -12t65.5 -28.5t41.5 -47.5q63 -86 66 -223 q-2 -158 -121 -283q-57 -63 -129 -86.5t-154 -23.5zM2099 459q27 -2 49 -2q137 0 224 100q76 90 79 219v27q0 119 -53 196q-39 57 -104 66h-21q-12 0 -25.5 -6t-21.5 -39q-31 -111 -59.5 -217.5t-59.5 -216.5q-10 -49 -10 -78t2 -49zM2048 1163q18 0 18 -20q0 -14 -14 -47 q-12 -29 -29 -101q-16 -78 -26 -196q-10 -125 -23 -156q-12 -27 -28 -27h-4q-18 0 -35 29q-6 8 -26.5 60.5t-59.5 146.5t-103 176q-25 -76 -32 -163t-8 -137t-8 -86t-11 -44q-8 -12 -17.5 -11t-16.5 22.5t-7 37.5v21q10 135 35.5 289.5t27.5 161.5t9.5 13.5t19.5 6.5 t32.5 -29t69 -121t67.5 -139t28.5 -67.5t27.5 -34.5q16 55 31 149q14 90 25 141q26 125 57 125z" />
<glyph unicode="b" horiz-adv-x="2136" d="M1923 610v-16q0 -45 -12 -94q-14 -59 -33 -121q-6 -20 -17.5 -42t-25.5 -40q-12 -20 -23.5 -40.5t-25.5 -39.5q-14 -23 -30.5 -44t-33.5 -42q-14 -18 -28.5 -34.5t-30.5 -30.5q-33 -29 -68.5 -56.5t-70.5 -54.5q-47 -37 -100.5 -60.5t-106.5 -46.5q-18 -6 -36.5 -10 t-35.5 -6q-74 -10 -147.5 -20.5t-147.5 -14.5q-16 -2 -32 -2q-37 0 -74 8q-53 12 -105 29q-90 33 -170 82t-153 113q-94 78 -144 194q-20 49 -29.5 98.5t-13.5 102.5q-4 29 -8 57.5t-6 57t-2 55t8 51.5q12 53 30.5 101.5t35.5 99.5q16 53 44.5 95t55.5 89q29 47 71 81t83 69 q27 20 51 41.5t53 37.5q25 18 50.5 35t52.5 31q84 43 171 73.5t181 35.5q23 4 47 4q6 -2 10 -2q29 0 60 -2q37 -2 72.5 -3.5t70.5 -5.5q10 -2 21.5 -4t19.5 -8q66 -43 127 -88t102 -115q12 -18 26.5 -33.5t24.5 -31.5q47 -70 95.5 -139.5t89.5 -143.5q29 -53 45 -110 q12 -45 12 -99v-14v-27zM977 -115q53 6 105.5 11.5t105.5 13.5q127 16 230.5 73.5t193.5 145.5q78 76 133 172q14 29 32.5 54.5t26.5 52.5q12 43 21.5 88t17.5 90q4 25 4 49q0 20 -4 41q-6 45 -22 90q-23 61 -54.5 118.5t-78.5 104.5q-8 8 -12.5 15.5t-10.5 15.5 q-53 84 -111.5 157.5t-144.5 127.5q-41 27 -82 43q-41 12 -86 16q-20 2 -41 2q-193 -2 -369 -84q-70 -33 -130 -76t-119 -88q-127 -96 -191 -237q-16 -33 -29.5 -67t-25.5 -69q-20 -53 -33 -108q-4 -20 -6 -43v-12q0 -29 6 -62q4 -23 7 -45t5 -45q8 -100 51.5 -181 t110.5 -147q47 -45 102.5 -79.5t112.5 -63.5q68 -33 137.5 -53.5t147.5 -20.5zM983 641q8 -61 28.5 -119.5t43.5 -118.5q4 -10 7 -20t5 -18q4 -18 -4 -35t-23 -21q-18 -4 -29.5 5.5t-19.5 23.5q-16 45 -33 96q-18 51 -33.5 101.5t-31.5 99.5q-12 37 -22.5 71.5t-18.5 71.5 q-2 8 -2 15q0 23 10 43q12 18 35 17t37 -22q23 -35 51.5 -60.5t60.5 -49.5q27 -20 49.5 -46t45.5 -48q8 -8 16 -15.5t23 -9.5q-8 29 -14.5 53.5t-14.5 51.5q-12 49 -23.5 98t-23.5 98q-2 10 -2 19q2 31 30 36q16 4 29 -8q16 -12 21 -30q18 -74 33.5 -147t37.5 -146 q10 -29 18.5 -60.5t33.5 -56.5q10 -12 5 -25.5t-20 -21.5q-12 -6 -24.5 -12.5t-26.5 -10.5q-18 -6 -30.5 0t-26.5 21q-47 47 -95 92q-45 45 -94 92zM786 420q-41 -12 -66.5 -38t-43.5 -58q-4 -8 -4 -20.5t2 -20.5q-2 -12 -1 -22.5t-1 -18.5q-4 -41 -35 -41q-16 2 -27.5 14 t-11.5 31q2 20 2 43v20q0 6 -2 13q0 25 4 51v33q0 57 -8 116q-12 76 -23 154q-2 29 -6 57q-6 61 -8 66q0 29 27 37q18 6 31.5 -1.5t21.5 -19.5q23 -33 44 -66.5t41.5 -66.5t40 -64.5t38.5 -64.5q10 -18 26 -18q16 -2 25 -15q4 -12 2 -29.5t0 -29.5q4 -16 15.5 -29.5 t19.5 -28.5l12 -20t11.5 -19.5t5.5 -19.5q0 -16 -17 -29q-12 -10 -25.5 -13t-25.5 9q-8 8 -15.5 17.5t-13.5 19.5q-8 16 -16.5 34t-18.5 38zM672 440q23 14 40 26.5t33 22.5q-12 23 -22 43.5t-23 34.5q-12 14 -19 35t-36 29q6 -47 12.5 -93.5t14.5 -97.5zM1636 764 q0 -76 -30 -137q-29 -63 -82 -121q-18 -23 -44 -26t-53 -3q-6 0 -13 5t-11 14q-12 18 -19 36q-20 80 -38.5 160t-38.5 158q-4 10 -9 20q0 10 -4 19q-8 25 -8 43q0 23 8 37q20 27 68 37q29 6 59 6h11l43 -4q53 -12 96 -58q37 -37 49 -84q16 -67 16 -102zM1458 549 q12 4 16.5 6t8.5 6q45 53 65 123q8 29 8 61v13q0 31 -6 65q-12 53 -59 86q-29 20 -66 21q-25 0 -57 -8q23 -94 45 -186.5t45 -186.5z" />
<glyph unicode="c" horiz-adv-x="3741" d="M1909 586q37 0 37 -41q0 -25 -12.5 -62t-24.5 -73q-10 -31 -49 -99q-35 -59 -35 -112v-6v-6.5v-4.5v-4v-4v-4v-2v-4q-4 -10 26 -55q66 -63 111 -74q33 0 33 -23q2 -8 -11.5 -21.5t-41.5 -13.5q-39 0 -94.5 45.5t-73.5 133.5q-4 20 -5 53v12v12v8.5v8.5v6v6v2v2v4 q0 23 37 127q18 51 19 78q0 10 -2 14q-12 20 -39 9q-84 -39 -158 -203q-37 -84 -49 -143.5t-20.5 -78t-32.5 -14.5q-43 0 -54 138v59q0 10 1.5 24.5t-1.5 30.5q-16 -8 -18 -37q-12 -193 -98 -266q-29 -25 -72 -24h-4q-45 2 -78 22.5t-51.5 57t-26.5 92.5q-10 66 -20 65 q-8 0 -21 -16l-28 -35q-16 -23 -69.5 -56.5t-121.5 -41.5q-27 2 -49 12q-39 16 -51 82q-4 14 -4 37.5t17.5 74t20.5 65.5t-12.5 23.5t-61.5 -10t-79 -18.5q-129 0 -172 70q-25 39 -25 86v6v22q4 66 38 130.5t81 105.5q49 33 78 33q57 0 90 -62q23 -33 23 -58.5t-14.5 -48 t-32.5 -22.5q-45 0 -50 33q18 -12 37 -6q33 12 33 59t-55 72h-10q-31 0 -62 -39q-80 -94 -80 -203q0 -98 56 -131q37 -23 73.5 -23t99 29t88 67t50.5 64q53 59 133 86q29 8 49 8q51 -2 64 -47q8 -25 -9 -39q4 23 -18.5 39.5t-53 11t-75.5 -67.5t-68.5 -137t-23.5 -130 q0 -127 49 -127q8 0 15 3t14 5q82 51 141 176q33 72 47 90q31 41 88 53q4 2 8 -4t6 -10t-10 -49t-28 -170q-4 -18 -10.5 -39.5t-10.5 -42t-4 -41t12 -41.5q23 -37 72 -37h2q51 2 78 37q45 57 57 141q25 158 29 240t6 90q10 4 20.5 10.5t24.5 10.5q29 12 39 -33q4 -18 4 -37 v-33l-10 -151q2 -6 2 -22.5t6 -47.5q35 39 47 86q35 135 152 213q53 33 77.5 41t44.5 18q36 11 54 11zM2273 543h-8q-61 0 -94 -43q-57 -80 -57 -193v-26q10 -86 44.5 -125t77.5 -39q47 0 91 55q14 18 30 39q53 68 53 121q0 27 -18 90t-68 104q-20 17 -51 17zM2863 178 q18 -31 43 -31q23 0 21 19q14 -14 4 -39q-8 -23 -49 -31q-18 -4 -48 19q-68 51 -67 131q2 41 22 78q45 82 142 84q133 0 215 -142q45 -86 45 -151.5t-25 -110.5q-39 -76 -53 -98q-70 -111 -207 -111q-143 0 -222 77t-127 164t-72.5 138t-28.5 57l-13 19q-23 -25 -42 -45.5 t-38 -46.5q-37 -53 -118 -72q-29 -8 -47 -8h-25q-37 4 -79 27.5t-63.5 67.5t-21.5 73q0 139 92 232t187 93q12 0 22 -2l17 2q4 8 4 13q-53 233 -59.5 289.5t-15.5 127t-13 195.5q2 8 2 44t12 87q25 106 98 107h15q109 -20 139 -226q6 -45 28 -164q14 -78 15 -196 q0 -55 -4 -147.5t-33 -229.5q-31 -141 -31 -171t17.5 -73t37 -96t72.5 -127q104 -145 195 -172q41 -12 82 -12q211 0 211 268q-2 129 -64 219q-43 61 -110 72h-13q-41 0 -61.5 -32t-20.5 -73t33 -96zM2458 518l12 43q27 96 27 328v76q-10 254 -72 381q-12 27 -32.5 37 t-43 -18t-22.5 -91v-17l110 -774q11 0 21 35z" />
<glyph unicode="d" horiz-adv-x="3678" d="M2533 324q-18 -18 -30.5 -29.5t-20.5 -22.5q-31 -37 -69.5 -66.5t-81.5 -49.5q-18 -8 -40 -18.5t-46.5 -16.5t-48 -8t-42.5 8q-12 4 -21 15t-15 24q-16 37 -21 82v20q0 33 6 66q8 43 25.5 83t42.5 72q37 53 98 74q29 10 58 10q33 0 65 -14q37 -14 54.5 -41t27.5 -61 q4 -8 0 -18.5t-12 -10.5q-10 4 -13 14q-2 4 -2 9.5t-2 11.5q-4 20 -19.5 33.5t-35.5 18.5t-41.5 4t-38.5 -5q-29 -10 -42 -33.5t-20 -52.5t-9.5 -59.5t-4.5 -55.5q0 -4 -2 -26.5t0 -47t6.5 -43t14.5 -14.5q90 20 150.5 71.5t101.5 129.5q8 18 10 39.5t0 42.5 q-12 160 -24.5 319.5t-20.5 317.5q-2 20 -2 39q0 35 4 67q6 53 18 107q6 35 32 66.5t54 49.5q12 8 24.5 8.5t25.5 -10.5q20 -18 36.5 -56t26.5 -89t16.5 -100.5t10.5 -87t4 -52.5v-32q-2 -53 -6 -109q-6 -72 -21 -143q-8 -43 -22.5 -85t-24.5 -87t-14 -88q-2 -12 -2 -27 q0 -31 8 -61q16 -68 28.5 -133.5t36.5 -129.5q20 -49 46 -99t60 -92t78 -73t103 -37q18 -4 35 -2q37 0 76 10q59 16 94 60q23 27 36 59.5t20 67.5t7 72q0 6 2 14q0 29 -4 55.5t-12 52t-25 43.5q-18 20 -46.5 23.5t-47.5 -14.5q-18 -16 -23 -40t-22 -42q-10 -12 -24 -13 q-16 2 -23.5 16.5t-5.5 31.5q2 33 18.5 60.5t42.5 45.5q29 16 62 16q2 0 4 2q31 0 59.5 -13t47 -38.5t30.5 -54.5t15.5 -59.5t3.5 -61.5q0 -39 -3.5 -78t-15.5 -75.5t-32.5 -70.5t-49.5 -59q-33 -25 -70.5 -38t-76.5 -15q-20 -2 -41 -2q-31 0 -64 4q-53 4 -105 20.5 t-98.5 43t-82.5 63.5q-61 66 -92 156t-31 180q0 12 -5.5 25.5t-9.5 36.5zM2623 639q12 31 20.5 59.5t10.5 61.5q4 43 10.5 84t12.5 84q4 41 8 84q2 23 2 47q0 18 -2 37q-4 51 -14.5 100t-22.5 98q-4 14 -11 28.5t-18 33.5q-12 -12 -20 -19.5t-10 -15.5q-8 -29 -16.5 -57.5 t-10.5 -55.5q-4 -63 -4 -127q0 -76 6 -149q10 -135 37 -273q2 -4 7 -8zM655 637q-6 4 -7 17.5t1 21.5q4 10 7 19.5t8 19.5q2 10 0 18q0 14 -7 33q-12 27 -34.5 39t-48 9t-48.5 -13q-70 -29 -92 -92q-14 -37 -16 -74q0 -29 8 -57q25 -92 98 -123q47 -20 101 -25q29 0 59 8 q53 12 98 40t82 69q43 47 86 98t90 96q29 29 80 64t109 59q53 23 106 23h2q53 0 90 -47q12 -14 17.5 -30.5t-10.5 -35.5q-4 2 -10.5 2t-8.5 4q-20 25 -41 37q-16 12 -45 12h-6q-43 -2 -82 -16t-70 -47q-33 -31 -59.5 -71t-42.5 -85q-12 -45 -20 -90q-2 -16 -2 -33 q0 -29 6 -57q4 -14 15 -20.5t25.5 -6.5t30 3.5t25.5 7.5q20 10 33.5 29.5t21.5 37.5q14 37 31.5 74t34.5 72q4 10 14 19t19 18q45 -18 45 -50q0 -10 -5 -20q-10 -29 -22 -53.5t-27 -51.5q-20 -43 -40.5 -85t-28.5 -89q-2 -8 -2 -16q0 -23 12 -43q12 -23 32.5 -29t44 -1 t46 16.5t39.5 23.5q29 23 49 54.5t33 64.5q4 10 8 31.5t11 43t14.5 39t19.5 17.5h49h10t13 -2q12 -4 16 -19.5t5 -32t-1 -32.5t-2 -24q-2 -4 -2 -25t-2 -43q-2 -29 -4 -62q39 12 65.5 34t51.5 44q37 33 74.5 70t80.5 59q20 12 37 13q10 0 19 -7q20 -12 29 -37.5t12.5 -56 t3.5 -53.5v-82q0 -6 -2 -10q0 -35 6 -68q4 -39 18 -75.5t47 -69.5q4 -4 4 -10.5t2 -12.5q-8 -4 -15 -6t-13 -2q-16 -2 -31.5 -1t-32.5 1q-63 61 -63 148v8q0 33 8 141q2 31 2 59v29v51q-27 -4 -51.5 -17t-48 -32.5t-44 -40t-40.5 -39.5q-25 -23 -49.5 -46t-45.5 -50 q-20 -25 -34.5 -55.5t-28.5 -59.5q-4 -8 -7 -15t-12 -11q-10 -8 -25 -8t-28 2q-8 4 -18 6t-15 10q-4 6 -4 13t2 16q0 4 4.5 25.5t7.5 47t3 47t-6 21.5h-11q-27 0 -43 -12q-23 -14 -43 -27q-16 -10 -37.5 -20.5t-44 -15.5t-46 -4t-40.5 16l-8 8l-8 8q-29 35 -37 75t-8 81 q-20 -4 -44 -8.5t-47.5 -5.5t-46 2t-38.5 20q-14 12 -21.5 26.5t-11.5 30.5q-2 4 -2 16.5t-2 24.5t-3 22.5t-5 12.5q-18 12 -29 6q-14 -10 -22 -16q-74 -57 -138 -82q-61 -25 -127 -25h-10h-22q-98 4 -156 88q-47 68 -57 158q-2 12 0 22q0 78 61 131q18 16 40 31t46.5 25 t50.5 12q10 2 21 2q16 0 30 -2q33 -8 55.5 -32.5t31.5 -57.5q4 -14 4 -31q0 -18 -4 -35q-10 -33 -33 -57q-13 -10 -17 -6z" />
<glyph unicode="e" horiz-adv-x="3362" d="M803 125q-35 -29 -61.5 -51.5t-53.5 -40.5q-33 -23 -64.5 -43.5t-66.5 -36.5q-33 -16 -61.5 -16t-53.5 16q-49 33 -49 106v19.5t2 23.5q-14 -2 -26.5 -2t-22.5 -2q-84 -14 -167 -29.5t-169 -25.5h-18q-45 0 -101 14q-68 18 -117.5 56.5t-68.5 91.5q-6 16 -6 33 q0 41 33 86q37 53 90 69q23 8 43 8q29 0 57 -14q33 -18 49 -47q10 -20 11 -43q0 -10 -2 -21q-2 -12 -12.5 -25t-24 -23.5t-29.5 -14.5t-29 0q-4 2 -9 6t-3 8q2 8 16 9q25 6 33 27.5t1 42t-26.5 30.5t-48.5 -8q-37 -20 -49 -62q-6 -18 -4 -35q0 -23 10 -43q20 -39 47 -61.5 t60 -32.5q31 -8 68 -12q20 -2 45 -2h30q92 4 179.5 25.5t168.5 62.5q25 10 45.5 28.5t38.5 36.5q59 53 127 81t146 38q10 2 20 2q49 0 68 -45q8 -14 2 -30q-4 -6 -11.5 -10.5t-15.5 -0.5t-12 13.5t-8 19.5q-12 25 -33.5 24t-44.5 -13.5t-42 -31t-30 -28.5 q-23 -25 -51.5 -53.5t-52.5 -61.5q-20 -33 -37 -67q-12 -27 -12 -56v-16q0 -6 2 -8t6 -2q29 -4 52.5 6t45.5 26q51 39 99.5 79t97.5 81q10 8 20.5 17.5t22.5 15.5q31 14 49 1t12 -44q-2 -6 -6 -29.5t-8 -50.5t-5 -49.5t5 -24.5q31 -14 54.5 -5t45.5 26q55 41 109.5 82 t107.5 84q35 29 67 57.5t64 56.5q12 10 25.5 15.5t30.5 -2.5q25 -12 24 -43v-13q-2 -20 -5 -39.5t-7 -41.5q23 -4 40 6l34 20q31 18 61.5 37.5t63.5 38.5q12 8 22 14q31 14 59.5 11t55.5 -19q14 -8 18 -22.5t3 -30t-6 -30.5t-7 -28q-2 -8 -8 -32.5t-14.5 -52t-14.5 -49 t-8 -21.5q43 2 71.5 19.5t57.5 37.5q47 35 92 71t92 73q8 4 14.5 9t14.5 9q33 20 68 29q8 2 16 2l53 -23q27 -18 31 -47q0 -6 -1 -16.5t-4 -19.5t-10.5 -13t-17.5 4q-4 4 -5 11t-5 14q-6 14 -16.5 20t-23.5 5t-26.5 -7t-21.5 -12q-43 -29 -68 -70q-20 -33 -20 -74v-22 q0 -20 10 -29q8 -10 24.5 -8t33 10t30.5 19.5t23 17.5q150 113 258 268q16 23 22 50.5t13 56.5q16 78 29.5 156.5t35.5 156.5q8 27 27.5 76t47 93t62.5 69q18 14 39 14q16 0 37 -10t24 -25.5t-1 -31.5q-14 -123 -82 -238q-47 -78 -92.5 -158t-90.5 -160q-31 -59 -30 -126 v-23q6 -59 31.5 -103t66.5 -71t92 -31q10 -2 23 -2q41 0 84 14q115 39 170 140q-10 10 -22.5 21.5t-24.5 21.5q-31 31 -37 63q-2 12 -2 23q0 25 8 49q16 53 67 55h9q53 0 69 -51q6 -18 8 -37.5t5 -40.5q0 -14 -1.5 -28.5t-1.5 -30.5q27 -8 52 -8h20q33 4 64 16q72 23 135 76 t86 129q4 12 3 39.5t-8 52.5t-21.5 35t-39.5 -15q-12 -12 -6 -28q4 -10 11.5 -20.5t2.5 -20.5q-6 -16 -26 -12q-14 4 -22.5 14t-8.5 22q-2 25 12.5 47.5t36 37t47 18.5t45.5 -6q23 -10 34 -31t12.5 -43.5t-4 -46t-17.5 -41.5q-29 -49 -65.5 -93t-81.5 -79 q-53 -41 -107.5 -58.5t-120.5 -27.5q-37 -4 -61.5 -22.5t-46.5 -43.5q-74 -90 -189 -121q-35 -8 -69 -8q-16 0 -37 2q-53 8 -96 36t-73 72t-40 99q-4 14 -6 28.5t-6 31.5q-25 -4 -36.5 -18.5t-21.5 -27.5q-53 -59 -107.5 -111t-121.5 -91q-18 -10 -36.5 -18.5t-37.5 -14.5 q-23 -6 -39 -6q-53 0 -53 65v13q2 23 7 47t9 55q-16 -8 -27.5 -14t-23.5 -19q-35 -35 -77 -56.5t-83 -45.5q-18 -10 -36 -10l-37 10q-33 20 -33 55v12q8 35 17.5 68t19.5 68q4 23 7 45t7 45q-41 -18 -79 -39t-74 -43q-37 -23 -74 -49q-4 -2 -12.5 -11.5t-18.5 -18.5 t-19.5 -15.5t-11.5 -6.5q-14 -14 -22 -33.5t-19 -35.5q-16 -27 -41 -39q-12 -8 -30 -8q-14 0 -33 4q23 59 43 117.5t41 117.5l-10 11q-10 -8 -22.5 -14.5t-22.5 -16.5q-51 -41 -100.5 -83t-100.5 -83q-37 -29 -78 -51.5t-88 -30.5q-14 -2 -29 -2q-70 0 -71 84q0 16 2 35.5 t4 48.5zM2675 899q-70 -78 -105 -168t-61 -186q25 43 54.5 83t53.5 81q25 45 43 90q14 41 15 88v12zM2900 211q6 29 6 53q0 12 -2 25q-4 35 -39 63q-35 -35 -35 -65q0 -43 70 -76z" />
<glyph unicode="f" horiz-adv-x="2928" d="M754 297q-4 -20 -3 -47t11 -27q20 0 41 29q139 209 172 267.5t37 63.5t12 8t17.5 -1t9.5 -12.5t-2 -14.5q-51 -94 -58 -221q0 -92 35 -92q12 0 41 20.5t63.5 69.5t71.5 143.5t53 110.5q16 10 33 -7.5t14.5 -37t-13.5 -33.5t-22.5 -29.5t-12.5 -36t16 -34.5 q70 127 182 223q25 23 43 23t32.5 -13.5t14.5 -62.5t-13 -129t-13 -125t32 -45q12 0 19.5 5t11.5 5q4 4 10 8l8 10q6 -4 2 -8q10 -2 15 -12q2 -12 -17 -14q-57 -20 -71 -21h-15q-82 4 -81 96v11q0 35 30.5 108.5t30.5 92t-2 24.5q-16 18 -39 -6q-117 -106 -195 -246 q-18 -31 -37.5 -60.5t-54.5 -37.5q4 29 6 59.5t5 58.5q-53 -68 -117 -120q-31 -29 -51.5 -29t-37 15.5t-24.5 64.5t-8 65.5t2 30.5q-37 -49 -73 -98t-58.5 -80t-31.5 -39t-24.5 -10t-30.5 12t-20.5 32.5t-2.5 36t10.5 46t17.5 63.5t20 72q-121 -76 -206 -76h-4h-25 q-23 0 -70 21q-47 23 -86 63q-68 72 -67.5 157t66 143t128.5 58q4 0 19 -2q12 0 32 -24q12 -16 11 -39q0 -10 -2 -23q-6 -37 -26.5 -47t-34 -10t-31 8t-15.5 25q6 14 19.5 11t19.5 -8t12 -11q14 25 15 41q0 41 -33 41q-45 0 -81 -62.5t-36 -110t19.5 -87t68.5 -68.5t101 -33 h34q27 0 68 17q76 29 167 118.5t181 143.5q45 33 84 32q10 0 29.5 -1t45.5 -23.5t26 -41t-8.5 -25.5t-34 23t-62.5 30h-4h-4h-4h-4h-2q-16 2 -58 -27q-88 -61 -149 -146q-61 -88 -90 -192zM2363 502q-4 47 -53 119q-33 39 -86 38.5t-53 -55.5t45 -83.5t111 -33.5h16h16 q4 5 4 15zM1901 1016l-5 -168q0 -43 15 -80q29 53 37 108.5t19 110.5t11 90v49q0 92 -6 111.5t-12 42.5q-20 -29 -31 -51q-28 -78 -28 -213zM1700 602q-57 -82 -58 -182q0 -35 18.5 -52.5t40 -17.5t52.5 45q61 86 78.5 128t17.5 83t-43 64q-14 10 -26.5 10t-20.5 -10 q-39 -39 -59 -68zM2095 604q0 66 100 78h13q68 0 103.5 -27.5t51 -62.5t37 -61.5t33.5 -26.5l8 -2q4 -2 11.5 1t15.5 7q72 39 104 108q16 35 17 66q0 35 -13 57q-23 43 -51 43h-2q-10 0 -26.5 -8t-16.5 -21.5t1 -21.5t4 -18t-7 -14.5t-18 6.5q-6 12 -6 26q0 43 36 66 q20 12 36 13t32 -9q61 -39 63 -109q0 -117 -127 -198q-29 -16 -41 -34t-12 -86.5t-28 -133.5q-51 -106 -177 -107q-70 0 -141.5 30t-142.5 132q-98 137 -99 166v4q-109 -152 -135 -182q-43 -29 -47 -29h-8q-43 0 -61 78q-10 43 -11 80q0 125 97 229q49 57 90 57 q16 0 27.5 -3t15.5 1q16 6 12 35q-10 86 -10 200t26 265q14 109 84 109q29 0 41 -17q31 -39 31 -132t-37 -287.5t-37 -255t10.5 -121t43 -130t71.5 -108.5q119 -86 189 -96q63 0 88.5 41t28.5 86t3 69v52q2 4 2 12q0 25 -26.5 36t-78.5 20t-88 26.5t-57.5 47t-21.5 54.5z M1587 299q-4 -2 -6 -2l2 -2z" />
<glyph unicode="g" horiz-adv-x="2893" d="M942 195q-27 119 -49.5 228t-44.5 216q-45 0 -83 -12.5t-77 -24.5q-27 -57 -40 -115.5t-23 -117.5q-6 -31 -14.5 -60.5t-18.5 -58.5q-2 -6 -8 -11.5t-11 -9.5q-18 2 -21 9.5t-3 15.5q2 14 2 29.5t4 29.5q18 57 25.5 114.5t11.5 117.5q2 14 2 22t-3 15.5t-10.5 15.5 t-17.5 20q16 12 25.5 20.5t13.5 17t6 17.5t4 27q4 31 9.5 62t13.5 61q14 53 31.5 107.5t25.5 109.5q8 45 26.5 90.5t37.5 88.5q6 16 13 25t18.5 12.5t29 1t47.5 -6.5q4 -20 7 -40.5t8 -41.5q23 -92 46 -183t42 -183q18 -94 28.5 -187.5t18.5 -187.5l8 -57q2 -23 2 -45v-23 q0 -29 -18 -53q-19 -26 -64 -55zM848 696v21q-2 37 -6 74q-6 45 -13.5 92t-14.5 94t-7 94q0 12 -8 29q-2 4 -7.5 5t-7.5 1q-27 -90 -44 -159.5t-27.5 -123t-12.5 -94.5q-2 -16 -2 -29q0 -20 4 -38h17q29 2 57 8q35 10 72 26zM1442 557q6 12 6 23q4 45 7 89t7 87 q6 78 13.5 153.5t11.5 155.5q4 59 18.5 115.5t26.5 113.5q6 29 39 27q12 0 24 -2q0 -10 1 -21.5t-1 -21.5q-23 -82 -33 -164t-16 -166q-6 -86 -15 -170t-18 -170q-4 -41 -6 -81t-4 -81q-2 -23 -7 -41t-38 -32q-25 27 -38 57.5t-27 58.5q-12 29 -19.5 56.5t-19.5 54.5 q-27 61 -52.5 124.5t-58.5 137.5q-8 -29 -14 -45q-4 -16 -6 -29q-6 -35 -13 -165q-2 -27 -2 -56q0 -14 1 -27.5t1 -82.5q2 -16 2 -31.5v-30.5q0 -12 -1 -18t-7 -10.5t-17 -6.5t-34 -6q-27 39 -29 88q-2 43 -5 86l-6 86t-3 87t6 87q4 12 3 26.5t-3 27.5q-4 51 -6 101t-6 99 q-2 39 -6 77t-19 77q-2 4 5.5 8t11.5 8q4 2 9 1t7 -3q18 -12 25 -24q12 -23 27.5 -45.5t25.5 -44.5q53 -113 106.5 -223.5t92.5 -227.5q8 -23 18 -43t20 -43q11 -2 15 0zM1686 1260h229h8q27 0 49 -9q27 -10 51 -28q68 -49 95 -111q25 -53 24 -119v-14q-4 -68 -15 -132.5 t-36 -125.5q-25 -68 -64.5 -125t-103.5 -104q-31 -23 -58.5 -46.5t-56.5 -48.5q-18 -16 -37.5 -24t-48.5 -17q-2 18 -3 30.5t-1 25.5v140.5v137.5q2 27 2 53q0 74 -6 142q-10 94 -28 192q-4 29 -5.5 57.5t-3.5 57.5q0 16 2.5 32t6.5 36zM1804 467q84 37 145.5 96.5 t84.5 122.5q53 135 57 272v17q0 53 -20 100q-23 55 -78 101q-49 37 -90 41h-9q-39 0 -94 -25q4 -90 4 -179t-2 -179.5t-2 -181.5t4 -185z" />
<glyph unicode="h" horiz-adv-x="2586" d="M1393 399q-27 82 -48.5 139.5t-43 98.5t-44 69.5t-51.5 51.5q-27 -35 -27.5 -75t-4.5 -81q-4 -37 -9.5 -73.5t-13.5 -73.5q-4 -20 -20.5 -33.5t-45.5 -11.5l-4 24t0 25q23 115 33 233q4 59 4 119.5t-4 120.5q-2 25 15.5 35t46.5 14q39 -33 68.5 -73t56 -83t51 -88 t53.5 -88q35 6 39 28.5t8 45.5q8 53 12 108.5t11 108.5q0 14 1 27.5t5 25.5q4 8 13 14.5t15 4.5q8 -2 14.5 -10.5t10.5 -16.5q6 -25 2 -55q-4 -47 -11 -94.5t-12 -94.5q-4 -35 -12 -69.5t-14 -70.5t-8 -71v-18q0 -27 4 -53q2 -12 -4 -27.5t-17 -19.5q-14 -8 -30 -8.5 t-39 -4.5zM2040 346q-23 -53 -57.5 -84t-77.5 -49q-111 -45 -222 -66q-57 -10 -118 -10q-55 0 -111 8q-102 18 -203 35q-72 12 -141 13h-20h-39h-68h-68h-38l-97 -5q-68 -4 -133 -21t-127 -56q-6 -4 -13 -3t-13 -2q-33 20 -5 44q72 51 154 72.5t168 25.5q78 4 154 4 q238 0 469 -43q70 -14 137 -14h18q37 0 74 6q113 16 219 75q37 20 77 37t81 33zM1550 365q-4 12 -7 19t-5 13q0 10 1 20.5t3 20.5q29 141 56.5 283.5t56.5 290.5q31 4 58.5 8t53.5 2q63 -4 109.5 -44t62.5 -101q14 -49 14.5 -90.5t-22.5 -81.5q-16 -29 -29.5 -61t-29.5 -60 q-74 -139 -223 -189zM1612 436q39 18 64.5 27.5t41.5 23.5q55 47 90 108.5t58 129.5q12 33 12 68v18q-4 45 -25 86q-29 55 -94 55h-4q-29 -4 -41 -18t-20 -55q-20 -104 -39.5 -210t-42.5 -233zM899 424q2 59 4 104q0 23 1 46.5t-1 46.5q-2 33 -23.5 43t-54.5 -5 q-45 -16 -74.5 -45.5t-39.5 -76.5q-16 -55 -37 -103q-4 -10 -16.5 -18t-26.5 -23q-4 16 -9.5 27.5t-0.5 17.5q35 86 61.5 173t42.5 180q4 29 15.5 57.5t25.5 56.5q23 49 48.5 97.5t51.5 95.5q6 10 20.5 16t24.5 4t22.5 -12t14.5 -21q10 -66 16.5 -128t10.5 -128 q4 -61 4 -124v-33q0 -78 -4 -156q0 -33 -21 -63q-6 -10 -20.5 -14.5t-34.5 -14.5zM856 963q-41 -57 -68 -119q-18 -43 -18 -99q0 -20 2 -43q23 4 38 7.5t32 7.5q41 14 53 30.5t10 59.5q0 35 -4 67.5t-10 65.5q0 6 -12.5 10.5t-22.5 12.5zM2013 1294q-49 -53 -111.5 -72.5 t-129.5 -23.5q-68 -6 -138 -6h-14q-61 0 -121 8q-78 10 -153.5 26.5t-153.5 30.5q-53 10 -107.5 19.5t-107.5 9.5q-70 0 -134.5 -19.5t-119.5 -66.5q-20 -16 -42 -30.5t-40 -28.5q-23 14 -21.5 25.5t11.5 21.5q98 86 213 127q78 29 168 28q39 0 82 -6q111 -16 213 -43 q123 -33 243.5 -32.5t243.5 2.5q41 2 79 18t77 27q16 4 31.5 8t31.5 -23z" />
<glyph unicode="i" horiz-adv-x="3182" d="M14 166q0 -2 -10 -12.5t-24.5 -19.5t-30 -11t-23.5 12q-10 16 -4 28.5t21 20.5q12 8 36.5 20.5t51 19.5t49 2t31.5 -29q4 -14 4 -29q0 -18 -6 -35q-10 -31 -32 -55.5t-50.5 -43t-53.5 -24.5q-47 -14 -92 -14h-2q-43 0 -84 22q-45 23 -61 76q-6 23 -8 47q0 33 12 68 q16 53 50 88t77 59q35 20 71.5 29.5t77.5 13.5q31 2 62 2q98 0 192 -20q53 -12 107 -16h20l86 10q39 10 65.5 37.5t55.5 56.5q41 45 94 59q20 6 41 7l66 -15q23 -10 27 -25.5t-5 -43.5q-2 0 -5 -1t-5 1q-39 39 -70 38h-4q-33 -2 -71 -45q-37 -37 -59.5 -81t-39.5 -95 q-8 -25 -9 -51.5t11 -56.5q14 10 25.5 16t22.5 17q27 33 52 64.5t48 66.5q16 23 32.5 38t39.5 21q27 4 45 -8q10 -10 7 -22.5t-9 -24.5q-18 -35 -36 -74t-24 -78q10 0 21.5 -1t21.5 3q121 59 229.5 147.5t194.5 198.5q4 4 6 4q2 -2 4 -2q20 -20 21 -53v-10q0 -6 -1 -21.5 t-4 -31t-7.5 -28.5t-8.5 -17l17.5 14t13.5 12q37 37 75 74t75 72q23 20 47 36.5t53 18.5q27 4 48.5 -8.5t14.5 -46.5q-4 -35 -12 -67t-18 -64l-7.5 -22.5t-9.5 -36t-5 -36t7 -20.5q20 -10 36 -4t30 18q31 29 61.5 57.5t59.5 63.5q66 78 143 135q35 25 76 25h20q53 -8 84 -49 q-14 -8 -28 -13q-10 -4 -18.5 -3t-18.5 -1q-25 -4 -47.5 -17.5t-36.5 -35.5q-6 -10 -11.5 -24.5t-8.5 -31t-2 -31.5t12 -24q12 -12 34 -4q47 18 87 52t71 78t52.5 95.5t31.5 102.5q20 113 57 219.5t88 206.5q25 51 64 94t96 47q18 0 27 -10q10 -12 6 -31 q-10 -55 -26.5 -110.5t-39.5 -104.5q-29 -59 -64.5 -115.5t-70.5 -113.5q-12 -20 -23.5 -41t-25.5 -39q-23 -35 -31 -74q-6 -31 -6 -63v-17q4 -31 11.5 -73.5t25.5 -67.5q12 -14 35 -14h14q53 0 103 24q55 29 108 58q113 63 228.5 118.5t232.5 104.5q72 29 145 35q16 2 33 2 q57 0 115 -19q18 -6 36.5 -15t30.5 -26q16 -23 20.5 -49t0.5 -55q-6 -78 -47 -143q-16 -23 -33.5 -41.5t-40.5 -30.5q-37 -18 -78 -19h-14q-25 0 -49.5 6.5t-44.5 20.5q-47 31 -60 86q-6 27 0.5 54.5t24.5 47.5t45 26.5t49 -7.5q23 -14 30 -42t-5 -52q-14 -33 -45 -27 q-12 2 -19.5 17.5t2.5 25.5q4 6 9.5 9t9.5 7q12 8 10 21q-2 4 -6 8q-16 12 -37 6t-31 -24t-10 -41t10 -41q23 -57 78 -70q12 -4 25 -4q37 0 73 29q33 29 47.5 71.5t18.5 85.5v17q0 27 -4 51q-8 33 -33 55q-16 12 -34.5 16.5t-39.5 6.5h-12q-66 0 -127 -21q-70 -20 -135 -51 q-63 -29 -124.5 -58.5t-125.5 -58.5q-31 -16 -58.5 -35.5t-56.5 -37.5q-31 -18 -62.5 -31.5t-64.5 -30.5q-18 -10 -39.5 -14t-42.5 -8q-18 -4 -34 -4q-98 0 -125 120q-2 10 -4 21.5t-7 26.5q-29 -29 -54 -57.5t-54 -53.5q-18 -16 -43 -34.5t-50.5 -31t-52 -15.5t-51.5 11 q-31 16 -39 48t-14 67q-23 -25 -41 -46.5t-37 -39.5q-23 -23 -44 -42t-44 -38q-33 -25 -69 -24q-20 0 -43 8q-35 14 -44.5 40.5t-5.5 57.5t15.5 62.5t19.5 58.5q6 16 11.5 34.5t11.5 35.5q-20 12 -31.5 3.5t-22.5 -18.5q-63 -53 -119.5 -112.5t-107.5 -124.5 q-10 -14 -21.5 -32t-24.5 -31t-28.5 -20t-33.5 -1q0 51 20.5 97t24.5 99q-39 -35 -75 -66.5t-73 -62.5q-41 -35 -83 -67.5t-89 -55.5q-12 -4 -24.5 -10t-26.5 -10q-18 -4 -35 -4q-63 0 -98 74q-14 -14 -25.5 -26.5t-25.5 -23.5q-23 -18 -48.5 -30.5t-54.5 6.5q-47 31 -47 88 q0 12 2 26q4 20 8 41t9 48q-16 4 -30.5 6t-29.5 2h-35q-35 0 -69 2q-51 4 -102.5 18.5t-104.5 14.5h-29q-68 -4 -135 -19q-41 -8 -79 -31.5t-62 -60.5q-23 -35 -31 -80q-2 -14 -4 -27q0 -29 14 -55q18 -31 51 -39q27 -8 54 -8h10q20 0 45 1t41 13q27 20 27.5 50t-11.5 57z M2478 1194q-10 -4 -17 -4t-12 -4q-29 -12 -45 -35t-26 -51q-29 -78 -57.5 -158t-57.5 -160q-4 -10 -4 -18t-2 -19q78 100 140.5 207t80.5 242z" />
<glyph unicode="j" horiz-adv-x="1560" d="M969 1104q2 -12 3 -26.5t1 -26.5v-298.5t-2 -297.5q0 -41 -3 -81t-3 -81q-2 -12 1 -27.5t3 -27.5q2 -25 3 -48.5t1 -46.5q0 -4 -4 -8t-6 -8q-12 -4 -17 2q-29 29 -51.5 61.5t-32.5 75.5q-33 127 -78 254q-20 55 -46.5 109.5t-51.5 109.5q0 2 -8 2q-4 -6 -6 -12t-2 -12 q-6 -94 -8 -189q2 -10 2 -22q0 -104 8 -211q4 -37 6 -78q2 -12 2 -20q0 -29 -6 -54q-2 -8 -3 -18t-5 -19q-2 -4 -7.5 -6t-9.5 -4q-10 0 -16 6q-4 8 -9.5 16.5t-7.5 16.5q-12 72 -16 144q-4 43 -4 86q0 29 2 57l10 354q0 29 -1 58.5t-3 56.5q-2 12 0 27q-2 16 0 30 q4 29 19 56q4 4 10 6l12 4q4 2 10.5 0t6.5 -6q6 -10 12 -20.5t10 -22.5q20 -66 39.5 -131.5t42.5 -133.5q12 -35 29 -69q16 -31 27.5 -62.5t19.5 -64.5q12 -43 25.5 -83t25.5 -81q4 -6 9 -11t13 -16q2 27 5.5 46.5t3.5 37.5v477v91.5t2 91.5q0 18 8 37q10 20 35 10z M1104 184q-4 12 -7 26.5t-1 29.5q4 86 5 171t5 173q6 86 8 174v20q0 78 -10 158q-8 47 -8 94t8 96q6 41 41 41q6 0 14 -2q68 -10 137 -47q10 -14 19.5 -29.5t23.5 -31.5q29 -35 40.5 -76t15.5 -84q4 -20 5 -41.5t3 -42.5q2 -20 3 -41.5t-1 -44.5l-10 -190q-4 -63 -16.5 -127 t-43.5 -123q-12 -27 -27.5 -50.5t-37.5 -41.5q-20 -18 -40 -24.5t-46 1.5q-18 8 -39 8t-41 4zM1163 436q0 -8 -1 -19t-1 -22v-72.5t2 -72.5q0 -10 4 -17.5t17 -11.5q16 -2 35 4q6 4 11 8.5t11 8.5q39 43 57.5 94t26.5 106q12 86 18 170q4 43 4.5 86t-4.5 86q-4 51 -11 100.5 t-21 98.5q-10 31 -27.5 54.5t-42.5 43.5q-10 8 -24.5 4t-14.5 -16q-4 -23 -8 -46.5t-6 -45.5q-2 -45 -2 -88v-41v-25q0 -53 -6 -106q-8 -70 -11.5 -138.5t-5.5 -142.5zM315 422q-20 -10 -25 -28.5t-7 -37.5q-10 -74 -19.5 -147.5t-19.5 -147.5q0 -8 -1 -13t-5 -13 q-18 -12 -36 -10l-36 4q-10 12 -10 16q6 45 11 91t13 89q18 72 19 142v20q0 37 4 72q6 45 16 88q12 57 22.5 113.5t12.5 113.5q4 70 12 134.5t17 131.5q6 49 30 50h4q20 -4 23.5 -16.5t7.5 -26.5q23 -88 46.5 -176.5t37.5 -178.5q14 -100 34.5 -197.5t31.5 -195.5 q4 -37 13 -71.5t15 -69.5q4 -16 4 -32.5t-2 -35.5q0 -8 -9 -14t-17 -6q-6 0 -12.5 5t-8.5 11q-6 20 -10 45q-8 55 -14 109.5t-15 107.5q-4 29 -14 39t-39 19l-63 16h-11zM324 813q0 -39 -4.5 -80t-8.5 -81t-6 -81v-18q0 -31 4 -64q27 -12 50.5 -26t52.5 -14l6 12t0 10 q-8 82 -24.5 160t-35.5 157q-4 8 -10 16.5t-24 8.5zM180 -188q16 18 27.5 29.5t19.5 21.5q59 4 115.5 8t114.5 10q78 8 157.5 17.5t157.5 19.5q12 2 27.5 3t29.5 1q96 0 190.5 15.5t190.5 27.5q33 4 64 17.5t61 27.5q18 8 30.5 -3t12.5 -32q0 -45 -41 -59q-33 -8 -65.5 -15 t-65.5 -10q-66 -2 -129 -11t-129 -15q-8 0 -14 -1t-12 -1h-22.5h-18.5q-20 0 -39 -2q-39 -4 -81 -11.5t-83 -12.5t-82 -5q-27 0 -55 -8q-70 -20 -138.5 -22.5t-136.5 -6.5q-18 0 -37.5 6.5t-48.5 10.5zM1219 1434q4 -4 12 -9.5t10 -13.5q4 -8 1 -19.5t-9 -15.5 q-8 -8 -19.5 -12t-23.5 -8q-16 -4 -32.5 -2t-33.5 0q-37 -4 -72.5 -5t-70.5 -12q-12 -4 -27 -6h-26q-68 0 -131 -12q-78 -16 -156 -27q-29 -4 -56.5 -11t-54.5 -13q-47 -10 -93 -18.5t-95 -20.5q-20 -4 -39 -4h-22q-29 4 -60 10q-12 4 -18 13t-8 24q-2 10 3 18t13 10l9 4.5 t9 2.5q123 6 243 22.5t241 34.5q102 16 206.5 28.5t208.5 24.5q20 4 43 8.5t48 8.5z" />
<glyph unicode="k" horiz-adv-x="2723" d="M1997 469q-16 4 -27.5 -3t-21.5 -15q-47 -41 -94.5 -83t-96.5 -83q-29 -23 -58.5 -44.5t-60.5 -39.5q-14 -10 -28 -8q-12 0 -23 6q-27 12 -33 39q-10 29 -10 61q0 29 8 57q23 82 62 153t104 128q20 18 43 30.5t47 24.5q14 6 29 8q10 0 21 -4q29 -6 45 -28 q14 -18 27.5 -38t25.5 -36q10 -12 27.5 -11t25.5 19q12 27 24.5 53.5t20.5 53.5q18 63 33.5 128.5t32.5 129.5q27 98 62.5 189t86.5 177q12 20 28.5 34.5t41.5 23.5q18 4 32.5 18t32.5 23q6 4 16.5 1t18.5 -8q6 -6 8 -16l4 -20q0 -4 -3 -10.5t-7 -14.5q-53 -78 -87 -162 t-66 -174q-43 -115 -86 -229.5t-76 -231.5q-35 -117 -51 -233q-8 -57 -9 -115q0 -61 11 -123q4 -18 -4 -26q-12 -18 -27 -25q-4 -4 -12.5 -2t-12.5 6q-20 18 -32 41q-12 20 -13 45q0 12 6 113q4 53 11 106q4 29 10 58q2 10 2 18q0 21 -8 39zM1831 614q-12 -8 -25.5 -14 t-21.5 -14q-45 -53 -75 -115.5t-46 -130.5q-2 -8 3 -19.5t11 -13.5q8 -4 18.5 -2t18.5 6q53 29 95 71l85 85q14 18 15 37q0 12 -4 24q-14 37 -39 68q-4 8 -15.5 11t-19.5 7zM1323 76q-10 35 -10 67q2 12 2 23q4 45 10 92q8 53 13 104.5t12 104.5q0 12 -4.5 25.5t-6.5 27.5 q-23 -12 -39 -21.5t-27 -18.5t-21.5 -21.5t-24.5 -28.5q-55 -76 -109.5 -150.5t-111.5 -148.5q-23 -31 -58 -55q-4 -4 -14 -5t-19 3q-8 4 -13 12t-11 16q-4 12 0 27q29 150 80 288t121 271q8 14 18 26.5t27 18.5q12 4 22 4q16 0 27 -12q4 -6 8 -17.5t0 -19.5 q-20 -55 -40.5 -110.5t-41.5 -112.5q-4 -12 -6 -24.5t-6 -26.5q0 -4 2 -6t4 -2q4 -4 11 -6.5t11 1.5q25 23 48 48q37 43 73.5 84.5t75.5 82.5q12 14 30.5 18.5t35 0.5t30 -16.5t21.5 -32.5q4 -16 10 -31.5t4 -32.5q-4 -109 -18.5 -211t-51.5 -207q-2 -8 -14 -20t-29 -14 q-8 2 -20 6zM844 410q12 -20 11 -42t-9 -44q-12 -37 -26.5 -75t-26.5 -75q-23 -61 -37 -127q-10 -51 -11 -104v-29q2 -25 8.5 -45.5t24.5 -36.5q8 -8 -1 -20.5t-23 -12.5q-29 -2 -48.5 11.5t-19.5 35.5q-4 41 -4 80t-4 78q0 29 -6 51q-2 4 -9.5 9.5t-9.5 3.5q-20 -8 -35 -21 q-53 -43 -103 -84t-103 -82q-12 -10 -27.5 -17t-30.5 -14q-12 -4 -20 -2q-18 0 -33 9q-23 16 -26 40.5t-3 47.5q0 29 4 53q10 47 33 94q39 74 85 140.5t104 129.5q35 37 77.5 62t86.5 47q16 8 32 8q20 0 45 -14q27 -12 51.5 -26.5t53.5 -28.5zM416 -37h12t10 2 q51 37 102.5 74t98.5 78q47 43 75.5 98t41.5 119q2 4 2 12q0 27 -29 43q-16 14 -35 17q-12 0 -26 -9q-53 -25 -86 -78q-37 -63 -73 -126.5t-69 -126.5q-12 -23 -22 -48q-6 -14 -6 -30q0 -13 4 -25zM1624 -23q86 2 172 3h57q57 0 117 -3q16 0 33.5 -3t26.5 -13q29 -29 57 -35 q20 -4 41 -4h12h12h26.5t27.5 -2q23 -2 39 -18.5t10 -30.5q-8 -25 -29.5 -39t-42.5 -4q-31 16 -63.5 21.5t-65.5 11.5q-29 4 -58.5 8t-58.5 6q-68 4 -133 6q-45 2 -88 2h-45q-100 -4 -199.5 -9t-197.5 -17q-59 -8 -116.5 -24.5t-117.5 -29.5q-18 -4 -37.5 -6t-37.5 -2 q-20 0 -35 16.5t-15 36.5q0 31 23 46q6 4 12 5t15 3q88 12 176 24.5t178 22.5q76 8 151.5 13t153.5 11v4z" />
<glyph unicode="l" horiz-adv-x="1943" d="M1364 428q-16 6 -24.5 -1t-16.5 -15q-23 -23 -42 -44.5t-42 -43.5q-16 -16 -37 -25q-29 -10 -53 -10q-25 -2 -43 10q-37 25 -41 88q-2 39 -2 78v39q2 57 31 112q20 41 44.5 77t57.5 67q29 29 74 49q29 14 57.5 10t52.5 -31q8 -8 15.5 -14l17.5 -14q2 -2 5 -1t12 -1 q20 23 31.5 48t23.5 54q35 82 68.5 164t68.5 164q23 51 46.5 101t45.5 102q25 55 51.5 109t38.5 116q2 10 15.5 17t19.5 3q18 -16 40 -16t42 -4q10 -4 17.5 -15.5t3.5 -21.5q-6 -16 -12.5 -34.5t-14.5 -37.5q-43 -104 -95.5 -205.5t-105.5 -201.5q-43 -82 -82 -164t-73 -168 q-16 -43 -37 -86t-39 -86q-35 -72 -35 -150q0 -37 8 -77q4 -16 12.5 -29.5t28.5 -22.5q66 43 132.5 89.5t131.5 107.5q-2 -16 -1 -26.5t-3 -14.5q-31 -35 -62.5 -68.5t-64.5 -68.5q-20 -20 -39.5 -38.5t-40.5 -39.5q-27 -27 -63 -33q-8 -2 -19 -2q-27 0 -49 15 q-29 18 -39 53q-4 18 -5 37.5t-5 38.5q-2 16 -1 31.5t-5 29.5zM1380 653q-4 16 -9 37t-15 39q-10 23 -34 26t-38 -18q-39 -53 -66.5 -109.5t-48.5 -115.5q-8 -18 -11 -36.5t-7 -39.5q-4 -10 0 -20q2 -8 5 -16.5t7 -12.5q6 -4 16.5 -5t14.5 3q127 82 178 217q4 10 5 22.5 t3 28.5zM346 250q-18 2 -27.5 -8.5t-19.5 -20.5q-37 -35 -75 -65.5t-81 -57.5q-10 -6 -19 -12t-20 -10q-16 -8 -30 -8q-16 -2 -37 10q-33 20 -37 61q0 25 2 49.5t8 49.5q18 61 41 119.5t58 113.5q72 119 190 201q33 23 68 22q33 0 65 -20q16 -12 19 -27q4 -12 -4.5 -20.5 t-18.5 -12.5l-18 7q-41 18 -54.5 14t-29.5 -39q-8 -20 -17.5 -35.5t-25.5 -28.5q-23 -23 -38.5 -48t-27.5 -54q-25 -49 -49.5 -98t-36.5 -105q-4 -16 -5 -32.5t11 -36.5q10 4 19.5 7t19.5 7q70 35 116 92.5t79 126.5q10 25 20 50.5t23 54.5q23 6 42 14t42 12q6 2 14 -3 t12 -11q4 -4 4 -13.5v-17.5t-10 -18q-57 -59 -69.5 -131t-12.5 -150q4 -49 43 -49q12 0 27 4q10 2 20.5 6t20.5 6q8 2 16 2t23 3q-6 -10 -9.5 -16.5t-9.5 -10.5q-33 -23 -66.5 -39t-74.5 -18q-31 0 -51.5 17t-22.5 50q0 23 1 44.5t-1 43.5q0 8 -2 15.5t-4 13.5zM1518 68 q-16 -35 -24.5 -58.5t-18.5 -46.5q-41 -6 -78 -14t-76 -10q-41 -2 -78 -9.5t-74 -17.5q-16 -4 -32.5 -9t-32.5 -5q-90 -4 -174 -30t-170 -48q-66 -18 -127.5 -39t-124.5 -43q-18 -6 -35.5 -13.5t-36.5 -15.5q-29 -12 -56.5 -24.5t-55.5 -22.5q-35 -12 -67 -26.5t-62 -36.5 q-16 -12 -35 -7t-29 25q-4 12 -9 24.5t-9 26.5q-2 4 0 11.5t2 17.5q12 6 25.5 14t27.5 15q86 37 172 62.5t176 47.5q102 27 203.5 49.5t204.5 51.5q33 10 65.5 15t65.5 11q111 23 224.5 43.5t238.5 61.5zM786 686q4 8 9.5 14.5t9.5 14.5q23 41 56.5 58.5t80.5 21.5h6 q31 0 56 -21q25 -23 26 -57q0 -31 -8 -55q-29 -78 -61 -154q-10 -29 -25.5 -55.5t-26.5 -55.5q-6 -18 -8 -37.5t-6 -37.5q-2 -18 10.5 -30.5t30.5 -12.5h65q6 0 7 -9q4 -14 0 -18q-16 -12 -33 -22.5t-33 -18.5q-23 -8 -43 -13t-43 -10q-16 -4 -31.5 6.5t-19.5 26.5 q-6 31 -4 55q10 47 21.5 92.5t27.5 88.5q12 35 23.5 68.5t21.5 68.5q4 23 4 44v44q0 4 -6 8t-10 6q-14 4 -21 -2q-12 -14 -24.5 -28.5t-22.5 -30.5q-43 -76 -85 -150.5t-77 -152.5q-10 -23 -21 -45.5t-34 -36.5q-14 -4 -20 -2q-4 2 -7.5 7t-3.5 9q10 33 17.5 64.5t17.5 64.5 q27 74 52.5 146.5t52.5 146.5q4 10 10 18.5t12 18.5q4 10 15.5 9t21.5 -11q2 -2 2 -4t2 -4q4 -4 7 -10.5t9 -16.5z" />
<glyph unicode="m" horiz-adv-x="2725" d="M1450 1032q20 4 36.5 5t31.5 1q8 0 16 -2l16 -4q4 -6 8.5 -11t4.5 -9v-41q2 -82 10 -160q12 -98 37 -197q14 -66 28.5 -131t30.5 -133q4 -12 11.5 -18t23.5 0q12 41 22.5 83t10.5 87q0 37 5 74.5t19 74.5q20 55 29.5 113.5t21.5 116.5q10 45 20.5 92t25.5 90q8 29 23 38 t46 7q18 -2 28.5 -12.5t10.5 -24.5q-2 -29 -3 -53.5t-5 -50.5q-29 -150 -60 -289q-27 -113 -53 -223.5t-53 -221.5q-6 -23 -16.5 -44t-22.5 -44q-4 -8 -14 -13t-23.5 -8t-26 -1t-20.5 8q-8 8 -15 18.5t-9 18.5q-18 70 -35 137.5t-37 136.5q-12 53 -22.5 107.5t-39.5 105.5 q-4 4 -9 4t-11 3q-4 0 -8 -7q-2 -4 -3 -5t-1 -5q-12 -82 -24.5 -163t-27.5 -163q-10 -57 -19 -115.5t-22 -117.5q-14 -10 -28.5 -18.5t-30.5 -16.5t-32.5 5.5t-16.5 29.5q2 12 2 23.5t4 23.5q16 51 24.5 103.5t16.5 103.5q6 49 16.5 98t18.5 99q27 143 49 290 q8 49 17.5 99.5t23.5 105.5zM1208 96q-12 -12 -20 -19t-18.5 -15.5t-23.5 -4.5t-16 13q-6 12 -11 26.5t-9 30.5q-8 53 -15.5 104.5t-15.5 104.5q-4 12 -7 27.5t-7 27.5q-12 0 -21.5 1t-17.5 -3q-47 -14 -94 -29.5t-96 -29.5q-45 -14 -58 -56q-16 -43 -30.5 -82.5 t-28.5 -80.5q-18 -47 -37.5 -93.5t-50.5 -87.5q-27 -35 -70 -51q-25 -10 -51 -10l-35 4q-20 4 -39.5 10t-40.5 13q-53 14 -86 57q-37 45 -37 94q0 45 33 88q23 33 55 33q12 0 27 -6q16 -4 31.5 -14.5t30.5 -20.5q2 -4 1 -11t-4 -7q-29 -8 -59 -11q-39 -4 -49 -43 q-2 -8 -2 -16q0 -27 24 -45q47 -41 105 -41q8 0 16 2q12 2 27.5 7t23.5 15q20 23 38 45.5t30 49.5q29 59 54.5 118.5t43.5 120.5q27 84 64 159t78 151q27 47 49 94t37 100q12 45 30.5 88t36.5 86t38 86l40 86q6 16 14.5 31.5t16.5 32.5q8 14 26.5 19t34.5 -1 q12 -4 21.5 -16.5t9.5 -28.5q-4 -43 -10 -82q-18 -102 -33 -203q-12 -92 -12 -184v-20q0 -29 -2 -55.5t-7 -51.5q-6 -47 -6 -94q0 -53 11 -107l32 -196q4 -27 16.5 -51.5t24.5 -57.5zM1065 918q-6 -6 -11 -9.5t-5 -7.5q-45 -113 -91.5 -223.5t-89.5 -222.5q-4 -6 -2 -15.5 t2 -17.5q27 -8 50.5 -3t46.5 7q14 2 28.5 5t30.5 7q37 10 41 49q4 14 6 28.5t2 29.5q2 86 2 171t2 171q0 8 -4 15.5t-8 15.5zM2449 684q0 -113 -42 -208t-109 -179q-37 -47 -86 -88t-103 -72q-31 -18 -60.5 -35.5t-57.5 -35.5q-16 -12 -32.5 -4t-21.5 26q-4 20 -5 42t1 38 q27 133 54.5 266t52.5 266q12 66 25.5 131.5t25.5 131.5q4 23 1 42t-11 39q-8 14 -2 27.5t18 20.5q8 4 16.5 7t16.5 5h20h11q51 0 98 -14q59 -20 96 -82q31 -53 55.5 -110.5t30.5 -119.5q4 -23 5 -47t3 -47zM2050 193q12 6 25.5 10t21.5 10q29 25 57.5 50.5t57.5 51.5 q53 49 94 120t57 155q8 45 9 92v16q0 33 -5 68q-12 92 -71 178q-4 4 -15.5 4t-13.5 -2q-8 -8 -13 -19.5t-9 -21.5q-14 -47 -26.5 -95t-31.5 -93q-47 -117 -75.5 -236t-61.5 -237q-4 -12 -2 -24.5t2 -26.5zM825 -143q8 4 17.5 12t17.5 10q92 12 182 19q70 4 142 4h41 q74 0 147.5 1t147.5 1h29.5t29.5 2q57 10 113 10q31 0 61 -2q86 -8 176 -12q12 -2 24.5 -2t22.5 -2q55 -12 113 -15q18 0 35 -2q37 0 76 2q12 0 28.5 -1t28.5 -7q4 -4 9 -11t5 -16q0 -20 -14 -30q-6 -4 -16.5 -6t-16.5 -2q-29 0 -172 10q-113 6 -168 12q-92 10 -176 10h-29 q-20 -2 -37 -2q-119 -4 -241 -8q-84 -10 -164 -14q-45 -2 -90 -2q-37 0 -74 2h-37h-53q-45 -4 -86 -19q-25 -8 -44.5 1.5t-27.5 56.5zM1909 1419h188t189 2q29 0 59.5 4.5t56.5 8.5q18 2 28.5 -7.5t18.5 -21.5q6 -10 3 -24.5t-11 -16.5q-8 -4 -16 -7t-17 -5 q-63 -12 -131 -17q-25 -2 -47 -2q-41 0 -80 6q-111 12 -221 13h-45q-131 -4 -262 -21q-47 -6 -93 -16t-93 -17q-10 -2 -19 -2q-20 0 -39 7q-10 4 -18 14t-10 20q-6 12 1 21.5t15 17.5q33 31 73 38t81 9h78.5h80.5q78 -2 160 -2h70v-2z" />
<glyph unicode="n" horiz-adv-x="1646" d="M154 158l8 2q72 35 86 141l6 43q4 33 8 49q0 76 2 78q10 14 58 51q27 18 32 -10l8 -33q4 -33 5 -63v-19q0 -27 -2 -49q-2 -20 -3 -39q0 -31 5 -57q4 -63 10 -100q0 -20 24 -13q49 25 70 72q20 45 23 92q2 8 2 35q0 6 -2 55t-2 74v16q0 115 43 142q20 16 30 -11 q0 -2 4 -14q4 -27 6.5 -47.5t2.5 -30.5q4 -27 14 -26l16 16q31 43 109 104q31 23 55 23q20 0 39 -12q10 -10 12 -19q18 -35 19 -100q-2 -74 -2 -219q0 -43 18 -68q61 45 62 111q0 317 137 344q10 2 18 2q31 0 58 -25q8 -6 -5 -26q-31 4 -63 8q-25 0 -35 -23q-10 -33 -10 -51 q-4 -35 -4 -67q0 -74 16 -152q2 -10 15 -49q6 -25 14 -25q18 0 26 15q20 16 33 39q57 96 58 127q0 29 -11 81q-10 59 -10 187q0 143 12 370q10 180 68 246q12 12 18 13q16 2 29 -29q33 -98 33 -232q0 -152 -43 -350q-31 -143 -33 -190v-29q0 -115 55 -223q23 -39 45 -37 q16 4 33 23q66 94 74 208q6 117 14 138q25 0 31 -21q6 -12 4 -39q-8 -141 -55 -268q-37 -96 -99 -104q-6 0 -12 -3q-47 0 -84 50q-25 29 -45 102q-6 20 -18 20q-10 0 -17 -14q-39 -80 -55 -96q-25 -25 -51 -23q-18 0 -39 11q-4 2 -25 20q-39 33 -43 33q-10 -6 -14 -8 q-2 -6 -9 -21.5t-11 -23.5q-25 -61 -70 -62h-8q-49 4 -66 72q-10 43 -10 80v12q0 25 2 45q0 2 8 139q0 37 -20 70q-37 -4 -74 -39q-41 -45 -61 -72q-37 -47 -43 -110q-4 -37 -5 -62v-12q2 -29 5 -41q4 -25 -11 -41q-29 -43 -39 -4l-20 27q-6 -12 -12 -29q-12 -37 -74 -92 q-16 -14 -47 -16.5t-47 10.5q-10 6 -21 24q-4 6 -12 18.5t-12 18.5l-21 43l-8 -8q-8 -6 -10 -10q-10 -25 -86 -76q-14 -2 -27 -2q-55 0 -84 45q-14 23 -22 65q-14 63 -15 123q0 141 82 246q29 33 66 43q18 8 37 8q41 0 67 -47q4 -14 -6 -22q-10 0 -20.5 11t-14.5 13 q-27 23 -51 4q-43 -35 -59 -82q-23 -74 -23 -131q0 -27 4 -49q2 -14 4 -45t4 -45q6 -43 35 -92q6 -4 12 -6zM1257 809q6 8 11 31q27 143 26 213q0 12 1 35.5t1 33.5l-12 70q-2 -2 -6 -4q-29 -74 -29 -363q0 -10 8 -16z" />
<glyph unicode="o" horiz-adv-x="2265" d="M852 342q10 31 10 59q-2 4 -2 11q-4 33 -5 66.5t-1 66.5q2 25 2 49q4 57 16 115q6 23 6.5 45t-1.5 45q0 27 -3.5 51t-3.5 51q0 4 6.5 10.5l10.5 10.5q8 4 20.5 -1.5t14.5 -13.5q4 -8 6 -15t0 -13q-6 -29 -8 -54v-16q0 -20 4 -39q4 -12 0 -29.5t-6 -29.5q-18 -61 -21 -125 v-17q0 -53 8 -108q6 -49 6 -101v-20q-2 -61 -2 -121q0 -12 -7 -26.5t-15 -28.5q-4 -6 -10.5 -11.5t-14.5 -2.5q-6 0 -12 5t-10 9q-29 70 -54.5 137.5t-48.5 136.5q-20 57 -41.5 112.5t-46.5 113.5q-4 6 -9 11l-9 9q-16 -6 -17 -10q-49 -162 -49 -330q0 -66 -8 -130t-27 -128 q-4 -20 -20 -33q-10 -6 -21.5 -5t-13.5 9q-4 8 -9 18.5t-5 18.5q-8 72 -24.5 140.5t-33.5 136.5q-20 84 -35.5 168t-33.5 168q-4 25 -9.5 50t-9.5 50q-4 23 19 33q16 4 30.5 1t22.5 -14q12 -14 16.5 -31.5t8.5 -33.5q12 -70 26.5 -135.5t26.5 -132.5q6 -33 12 -65l12 -64 q2 -4 5.5 -8.5t7.5 -8.5q4 4 7 5t5 5q4 4 4 9.5t2 9.5q8 94 27.5 184t36.5 184q2 10 3 19.5t1 19.5q4 33 20.5 57.5t38.5 45.5q6 4 18.5 2t16.5 -10q6 -8 8 -19q12 -68 30.5 -132t43.5 -130q16 -51 27.5 -101.5t23.5 -103.5q4 -12 10.5 -26.5t26.5 -24.5zM1665 563h16 q37 0 74 6q41 6 82 13q14 20 15 39.5t1 42.5q4 61 9.5 124.5t9.5 124.5q0 8 1 14.5t3 14.5q6 23 17.5 40t39.5 26q12 4 22.5 10t24.5 -2q12 -18 8.5 -38t-6.5 -38q-4 -23 -10 -44.5t-6 -43.5q-4 -139 -23.5 -275.5t-29.5 -275.5q-4 -23 -2 -45v-10v-13q0 -23 -2 -45 q0 -20 -6 -38q-4 -6 -10.5 -11.5t-12.5 -7.5q-4 -4 -14.5 6t-12.5 19q-2 20 -3 39.5t-1 40.5q0 53 1 106t3 107q0 12 -1 23t-3 26q-2 10 -11 18t-17 6q-35 -6 -69 -12t-69 -14q-29 -4 -30 -37q-6 -53 -11 -109q-2 -29 -2 -56.5v-55.5q0 -6 -4 -12.5t-8 -12.5q-4 -8 -18 -6 l-8 4l-9 6q-18 33 -18 70v8v18q4 33 6 66v32.5v32.5q-4 39 -4 76v8q0 33 6 66q6 37 8 75t6 76q4 35 15 68q4 16 20.5 23.5t36.5 3.5q6 -2 12.5 -8.5t6.5 -12.5q-4 -29 -9.5 -54.5t-7.5 -51.5q-4 -29 -7 -55.5t-7 -55.5q-2 -10 1 -18.5t7 -20.5zM1350 946h-52.5t-46.5 2 q-14 0 -28 8q-4 4 -6.5 8.5t-2.5 8.5q0 10 9 18q4 4 7 6t9 2q88 6 175 12.5t175 12.5q4 0 5 -1t5 -3q6 -20 -5 -29.5t-25 -13.5q-18 -4 -39 -6t-39 -4q-29 -4 -31 -37q-6 -76 -11 -150.5t-9 -148.5q-4 -106 -7 -212t-14 -212q-2 -12 -6 -23.5t-8 -23.5q-4 -10 -15.5 -13.5 t-15.5 3.5q-8 10 -15 20t-16 18q-12 12 -16 26.5t-4 31.5q0 8 -1 15t1 13q20 88 21.5 176.5t3.5 176.5q2 70 3 140.5t3 141.5q0 8 -1 16.5t-3 20.5zM1133 985q4 -23 5 -43t1 -41q0 -74 -1 -146.5t-1 -146.5q0 -106 2 -209.5t16 -210.5q2 -14 1 -29.5t-1 -31.5 q-2 -14 -17.5 -26.5t-33.5 -10.5q-4 2 -8 5t-6 5q-8 20 -9 39v54q0 94 -8 188q-12 119 -14 242q-2 47 -6 94t-9 94q-2 18 -2 39v18q0 29 2 56q2 16 7.5 29.5t19.5 21.5q12 6 28 6t34 4z" />
<glyph unicode="p" horiz-adv-x="2351" d="M1487 698q-12 -25 -28.5 -34t-33.5 -17q-29 -12 -46 -32.5t-31 -49.5q-8 -18 -16.5 -37.5t-16.5 -38.5q-10 -27 -10 -53q0 -25 8 -51q4 -10 15 -17.5t20 -7.5q145 20 170 166q4 45 26 90q23 43 37 87.5t29 91.5q27 78 52.5 156.5t53.5 156.5q10 29 26.5 54.5t35.5 51.5 q4 4 11 6.5t13 2.5q8 -2 14.5 -12.5t2.5 -18.5q-2 -2 -2 -8q-68 -143 -117 -291t-101 -295q-4 -8 -4 -33q8 4 15.5 4t9.5 4q33 31 65.5 62t67.5 61q16 12 34.5 22.5t37.5 20.5q12 6 26.5 0t22.5 -18q20 -31 20 -64q0 -27 -8 -55q-8 -23 -16 -45t-17 -45q-8 -18 -15 -35.5 t-13 -34.5q-4 -23 -4 -49q0 -33 24 -49q12 -8 27 -6q12 0 26 6q23 12 43.5 28.5t36.5 39.5q12 14 22.5 30.5t20.5 30.5q4 6 10.5 9t12.5 7q4 -4 7 -8t1 -6q-8 -45 -32.5 -80t-49.5 -69q-18 -29 -49 -42.5t-66 -17.5q-12 -2 -26 -1t-31 3q-31 4 -53 25q-20 20 -20.5 51 t4 59.5t12.5 55.5q6 27 15 51.5t18 48.5q4 10 6 19.5t4 17.5q6 29 5 44t-11 15q-16 0 -26.5 -8t-20.5 -18q-45 -45 -90.5 -91t-79.5 -102q-10 -16 -21.5 -30.5t-26 -29t-33 -24.5t-42.5 2q-4 2 -11.5 0t-13.5 -6q-18 -8 -34.5 -15t-35.5 -16q-27 -12 -47 -5t-32 32 q-20 35 -31 70q-4 14 -2 28q0 23 8 47q14 47 28.5 94.5t32.5 94.5q33 78 69 155.5t71 157.5q18 37 55 47q12 4 23.5 -5t9.5 -19q-8 -37 -18.5 -71t-26.5 -66q-14 -35 -28.5 -70t-29.5 -70q-4 -6 -4 -12q0 -20 33 -23q8 -2 14.5 -2t18.5 -2zM2058 199q-4 -18 -9 -30.5 t-9 -27.5q-10 -29 -29 -26q-6 0 -16 2q-25 12 -49.5 13t-51.5 3q-20 0 -41.5 3t-44.5 5q-10 2 -18 4t-18 2q-45 -4 -93 -4l-69 2q-29 2 -60 2l-100 -6q-10 -2 -19.5 -2t-17.5 -2q-78 -20 -154.5 -27.5t-156.5 -15.5q-49 -4 -98.5 -9t-98.5 -22q-4 0 -5 -1t-3 -1q-14 2 -31 2 q-45 0 -92 -14q-59 -16 -121 -22q-70 -12 -139.5 -23.5t-138.5 -34.5q-6 -4 -12.5 -3t-14.5 -1q-10 -2 -19.5 8.5t-9.5 22.5q-4 27 19 29q164 31 324.5 69.5t324.5 61.5q123 16 246 30q57 8 113.5 13.5t113.5 13.5q88 10 174 10h29h41q80 0 164 -2q47 -2 94 -9t96 -13z M442 352q10 6 20.5 11.5t18.5 13.5q37 37 74 73.5t70 79.5q29 37 59.5 73t58.5 75h80q4 -8 9.5 -17.5t1.5 -17.5q-8 -33 -18.5 -63.5t-20.5 -63.5q-8 -23 -14.5 -44t-14.5 -46q0 -8 2 -8q10 -4 16 0q4 2 8.5 5t6.5 5q47 61 96 123.5t96 126.5q4 6 12.5 7t12.5 -5q2 -4 3 -9 t1 -7q-4 -8 -6 -17.5t-8 -15.5q-57 -57 -99.5 -123t-89.5 -129q-18 -29 -37.5 -54.5t-40.5 -52.5q-8 -8 -18 -14t-21 -12q-16 -8 -32.5 4t-14.5 29q4 27 9.5 51t13.5 51q12 45 25.5 90t25.5 92q2 4 0 8t-2 11q-18 -2 -27.5 -12.5t-17.5 -20.5q-33 -51 -73 -94t-85 -84 q-23 -20 -43 -44t-43 -44q-14 -12 -32.5 -24.5t-36.5 -25.5q-6 -4 -17.5 -3t-17.5 5.5t-8 15.5t0 19q20 74 42.5 145.5t51.5 143.5q12 29 20 58.5t17 58.5q2 6 8 10l12 8q10 4 17.5 -1t13.5 -13q18 -23 18 -49q0 -14 -6 -31q-14 -33 -26.5 -65.5t-28.5 -65.5 q-14 -27 -19 -53q-4 -20 -2 -43v-21zM1212 778q18 -2 27.5 -11t7.5 -21.5t-4 -22.5t-10 -23q-20 -45 -43 -89t-45 -89q-10 -18 -18.5 -38.5t-16.5 -39.5q-18 -31 -31.5 -63.5t-19.5 -69.5q-4 -20 -18.5 -22t-30.5 10q-23 20 -23 41v10q8 25 16.5 50.5t18.5 48.5 q29 70 57.5 137t65.5 129q8 12 15 25.5t18 21.5q8 8 19 10t15 6zM1106 1028q29 0 29 -31q-2 -10 -9.5 -16t-17.5 -4q-20 2 -23 24q-2 10 5.5 18.5t15.5 8.5z" />
<glyph unicode="q" horiz-adv-x="3244" d="M2179 987l27 17q23 59 45 118.5t36.5 100.5t14.5 65.5t-14 50.5q-8 -6 -14.5 -9t-24 -39t-31.5 -108.5t-27.5 -113.5t-12.5 -53.5t1 -28.5zM2150 862q31 25 33 35t-10 47q-27 -27 -27 -48.5t4 -33.5zM1914 389.5q38 61.5 76 118.5t52 119.5t28.5 130t21.5 102.5t5 40 t-6 18q-100 -35 -158 -54q-47 -18 -54 -61t-43 -162t-54 -295q-2 -16 -2 -45t14 -72q12 10 23.5 19.5t19.5 19.5q39 60 77 121.5zM328 88q-270 2 -271 186q0 29 21 74q25 45 67.5 88t90 43t71 -30.5t23.5 -53.5q0 -72 -47 -78q-6 20 0 40t6 36.5t-15 30.5q-23 14 -58.5 -8.5 t-58 -62.5t-22.5 -94t35 -89q55 -55 154.5 -55t162 46t104.5 92t71.5 76.5t45 50t40.5 23.5q27 -12 16 -43q-20 -66 -46 -129t-35 -99t-14 -52.5t-9.5 -34.5t-4.5 -33.5t11.5 -20.5t25 4t43 59t86 134t88 148.5t52 98.5t67.5 42q-8 -2 -20.5 -62.5t-32 -137t-19.5 -134 t21.5 -71t46.5 -5t41 23.5t25.5 39t36 95.5t55 137t35.5 79.5q20 49 45 50q16 0 27 -12.5t18.5 -12.5t19.5 6q47 33 83 75t60.5 70.5t32.5 28.5q39 0 39 -18q0 -10 -34.5 -103.5t-55 -155t-20.5 -165.5q0 -10 16 -11t35.5 15t34 40.5t25.5 51.5t39 83t72 151.5t71.5 152.5 t34.5 76.5t3 46.5l-34 2q-16 0 -65.5 -12.5t-140.5 -23.5t-212 -27q-115 -16 -240 -19q-6 2 -14 2q-135 0 -135 88q0 23 10 29t17 3t10.5 -4t7.5 -5q70 -53 213 -53h69q49 0 152.5 10t178.5 17t144.5 21.5t96.5 75.5q4 16 11 29.5l14 27t22.5 35t15.5 35.5q8 16 22.5 28.5 t21.5 -10t3 -38.5t-9 -35.5t-11 -40t-10 -41.5q14 -23 51 -8.5t76.5 31t80.5 33.5q10 4 18.5 43.5t15.5 65.5t17.5 81t18.5 110.5t32.5 109.5t88.5 77q18 6 25.5 -9.5t8.5 -38t-2 -45t-10.5 -83t-30 -110.5t-29.5 -77.5t1 -62.5q27 -6 47.5 0t75.5 18.5t164 40.5 q109 33 231 33h2q186 0 187 -176v-18q-23 -14 -43 12q-88 127 -293 127q-33 0 -91.5 -13.5t-128 -23.5t-113.5 -29.5t-61.5 -33t-26.5 -50.5t-60.5 -135t-71 -201.5t-31.5 -160t-12 -71.5t-4 -36q29 10 44 31.5t31.5 48.5t35 52.5t65.5 97t127 141.5q14 12 22 26.5 t24.5 19.5t32 3t25.5 -14.5t5 -33t-9 -44.5q-6 -23 -29 -101q-25 -84 -24 -147q0 -45 12 -82q18 -63 103.5 -63t131.5 34.5t69.5 67.5t23.5 81t-41 122q-18 33 -46 34t-44 -10q-39 -23 -43 -63q-4 -18 3 -26.5t23.5 -19.5t18.5 -9q-14 -18 -31 -19q-51 0 -57 29q-2 12 -2 24 q0 59 48 102.5t102.5 43.5t93 -58.5t38.5 -132.5q0 -129 -166 -207q-74 -35 -127 -34q-98 0 -151 86q-31 49 -31 98q0 47 8 96q6 41 12.5 56.5t15.5 43t2 45t-18.5 10.5t-34 -27.5t-50 -61.5t-63.5 -94.5t-77 -121t-66.5 -108.5t-39.5 -56t-43 -9q-6 0 -6 26.5t43 239.5 q-14 6 -20.5 -2t-16.5 -25.5t-27.5 -46.5t-38.5 -63q-39 -68 -125 -117q-14 -8 -26 -8q-45 0 -45 97t18.5 188.5t19.5 106.5t4 32.5t5 31t6 15.5q-29 -4 -43 -38t-26.5 -61.5t-26 -58.5t-31.5 -69.5t-43 -85t-47 -93.5q-23 -43 -56.5 -58t-50.5 -15q-59 0 -59 124q0 47 9 84 t14.5 63t11.5 54q-18 -12 -31 -18l-22 -13q-10 -4 -29 -18t-36 -14t-23 2q-14 -2 -46 -92l-32 -97q-43 -111 -95.5 -159t-94.5 -48t-72 70q-12 27 -12.5 52.5t1.5 53t8.5 53t-2.5 54.5q2 -12 -26 -51q-35 -47 -74 -125q-80 -156 -170 -213q-14 -8 -29 -8q-31 2 -30 47 q0 57 53 199l20 61q8 29 11 61q-10 -4 -18.5 -7t-26 -17t-45 -39t-64.5 -53q-143 -70 -182 -70h-6z" />
<glyph unicode="r" horiz-adv-x="2646" d="M977 293q-16 72 -31.5 85t-21.5 15t-13 6q-4 -16 -12 -39q-2 -10 -2 -18q0 -25 16 -41q12 -14 31 -13t33 5zM1737 924q-6 0 -8.5 1t-15.5 -4.5t-25.5 -11.5t-18.5 -14t-6 -22.5t8 -114.5q14 -166 31 -193q20 57 30.5 145.5t10.5 114.5v35q-2 39 -6 64zM1661 1182 q-6 -18 -6 -47v-17q0 -31 2 -80q4 -66 4 -71l6 -11l27 9q10 6 26 10q27 4 25 37q0 70 -19 127q-16 45 -20 61.5t-18 32.5q-4 -4 -9.5 -8t-8.5 -15.5t-9 -27.5zM1635 541.5q-1 60.5 -8 113t-8 116t-9 93.5q-8 2 -13 2q-53 -23 -155 -98q-12 -8 -10 -27q0 -14 8 -36 q16 -51 31.5 -100.5t28.5 -86.5t22.5 -61.5t30 -45l44.5 -44.5q29 12 37 20q4 6 4 33v18q-2 43 -3 103.5zM2064 879v0v0zM1210 557q12 -12 15 -27v-47v-39q0 -145 84 -188q10 -4 18 -4q31 0 66 49q47 70 49 164v22q-4 45 -15.5 81t-19.5 63.5t-13 43t-7.5 18.5t-6.5 9 q-27 -12 -43 -38.5t-43 -42.5q4 29 15.5 45t60.5 75q0 31 -15.5 58.5t-19.5 60.5q10 20 39 27q10 -4 10 -8q8 -20 16.5 -40t16.5 -40q12 0 13 2q41 35 86 62.5t90 58.5q4 4 6 24l-8 129v45q0 94 47 135q14 12 28 13q25 0 41 -54q6 -20 17.5 -59t31.5 -160q10 2 17 2 q4 0 63 15q43 10 78 10h12h5q41 0 74.5 -2t78.5 -21.5t73 -51.5t28 -62.5t-17 -61.5q-29 -55 -76 -55q-29 2 -49 16q-25 20 -24 47q0 12 6 27q8 18 26 21q-2 0 -4 -15.5t-3 -24t-1 -10.5q0 -25 16.5 -24.5t47.5 22.5q23 18 22 47q0 27 -10 41q-29 47 -123 54 q-86 0 -132 -7.5t-72.5 -11.5t-32.5 -12q-12 -14 -11 -61v-31q-4 -133 -27.5 -241.5t-23.5 -145.5q6 6 38 55t62.5 93t98.5 95q37 20 61 21q12 0 21 -4q12 -4 12 -17.5v-21.5l-4 -90q-8 -45 -8 -91t4 -94.5t37.5 -76t78.5 -29.5h7q41 0 77 41q37 37 62 117q4 12 4 27.5 t-13.5 35t-38 27.5t-47 2t-22.5 -24.5t12.5 -44t1.5 -40.5q-37 25 -38 66q0 10 2 24q6 37 67 62q25 12 40.5 12t27.5 -4q25 -6 41 -41q10 -27 8 -43q-4 -53 -20.5 -94t-66.5 -91t-110 -52h-6q-57 0 -107 39.5t-50 130.5q0 41 8 82.5t12 65.5t3 42t-19 18q-41 -2 -125 -94 q-86 -90 -105 -168q-10 -43 -12 -76q-2 -43 -17.5 -62t-31.5 -3q-4 4 -17 100q-35 -12 -61 -12q-45 0 -78 33q-16 18 -33 43q-4 -6 -6 -11.5t-6 -19.5q-10 -45 -37 -88q-47 -78 -119 -80q-8 2 -26.5 4t-42.5 19q-72 45 -76 114q0 12 -14 21q-29 -43 -52.5 -85t-66.5 -69 q-4 -33 -8 -61.5t-11 -50.5q-10 -49 -36 -80q-23 -27 -56 -27h-14q-55 10 -109 96q-12 20 -32 39q0 -86 -33 -166q-20 -43 -45 -41q-18 0 -39 25q-63 86 -64 221q-2 27 -3 53.5t-13 49.5q-63 -121 -166 -127h-26q-53 0 -78 45q-8 14 -8 31.5t4 33.5q12 45 41 78q18 20 38 20 q12 0 25 -6q16 -6 17.5 -17t-8 -19.5t-17.5 8.5q-12 12 -27 12q-23 0 -35 -39q-10 -29 -10 -52.5t10.5 -47t57.5 -27.5h12l47 8q57 23 82 70q12 20 22.5 41.5t27 58.5t30.5 39q14 6 20.5 -9t1 -44t-5.5 -74t17.5 -118.5t75.5 -151.5q20 18 23 59t3 97.5t-10 140.5 q18 10 33.5 -6.5t31.5 -59.5q25 -70 129 -180q8 -8 20.5 -13t27 21.5t22.5 63.5t10 67.5t-6 32.5q-51 16 -88 47q-37 27 -39 70v10q4 49 41 74q16 12 33 0q41 -33 49 -64q6 -16 12.5 -32.5t14.5 -34.5q16 6 28 14q53 45 97 135q4 6 10 32t16 48q23 49 35 47q8 -2 12 -6z" />
<glyph unicode="s" horiz-adv-x="2562" d="M1006 252q2 18 4 35.5t2 36.5q0 63 3 123.5t11 121.5q6 45 9 91.5t14 91.5q6 27 18 51q4 8 11 14t18 4q20 -6 18 -26q-2 -37 -2 -74v-37q2 -18 2 -37q0 -37 -2 -74q-4 -72 -10 -108q-8 -53 -17 -109q-6 -37 -6 -73v-19v-8v-35v-67q-2 -35 -2 -69t-2 -69q-2 -6 -8 -11 t-10 -7q-6 -2 -14.5 1t-10.5 9q-18 31 -34.5 62.5t-28.5 68.5q-25 86 -52.5 171t-56.5 169q-4 12 -9 24.5t-24 12.5q-25 -119 -50 -236.5t-34 -240.5q-2 -18 -8 -34.5t-12 -35.5q-2 -8 -14.5 -10t-18.5 4q-12 10 -19 24.5t-12 28.5q-12 55 -25 107.5t-28 107.5 q-14 59 -24.5 117t-14.5 119q-4 37 -10 72.5t-14 70.5q-2 10 -6.5 21.5t-8.5 21.5h-29.5h-25.5q-8 2 -10 15q-2 4 -2 9t2 7q25 14 47 27.5t47 27.5q12 6 31.5 -2t23.5 -22q6 -10 8.5 -21.5t6.5 -21.5q8 -53 14 -104.5t14 -104.5q6 -39 10.5 -77t12.5 -77q2 -23 8 -44t12 -44 q18 6 24.5 18.5t8.5 24.5q20 96 41 193.5t23 195.5q0 16 6 27q6 8 20 14q2 2 7.5 0t9.5 -4q8 -14 17 -27.5t13 -27.5q10 -31 19.5 -61.5t19.5 -61.5l82 -260h17zM1950 1196q-59 -20 -121 -40.5t-125 -43.5q-10 -4 -21.5 -7t-21.5 -7q-39 -8 -74 -25.5t-69 -44.5q4 -35 4 -67 l-2 -17q0 -39 10 -76q6 -20 6 -41l-2 -20q0 -16 2 -31q2 -35 2 -69.5v-67.5v-25q0 -31 2 -59q2 -41 7 -84t8.5 -85t3.5 -87q0 -37 6 -73t8 -72q2 -31 26 -48q10 -8 21.5 -14t24.5 -14q8 -6 14 -11.5t2 -15.5q-2 -6 -6 -11t-10 -7q-29 -4 -53.5 -16.5t-51.5 -20.5l-16 -4 t-19 -2q-14 -2 -25.5 9t-6.5 24q12 31 14 63q0 20 -4 72q-8 119 -18.5 237.5t-10.5 239.5v20q0 66 -8 131q-8 74 -19 152q-2 14 -5 30.5t-17 26.5q-31 -2 -58.5 -13t-54.5 -24q-31 -12 -60.5 -22t-60.5 -21q-14 -4 -30.5 -5t-32.5 1q-6 0 -10 5.5t-8 11.5q-2 6 2 13t8 9 q16 10 31.5 18.5t33.5 14.5q281 100 561 197q33 12 67 20t67 19q31 10 59.5 23t58.5 26q23 8 39.5 -5.5t16.5 -37.5q0 -25 -6 -54q-2 -6 -7.5 -11t-11.5 -9q-6 -2 -12 2l-12 8q-8 6 -13.5 17.5t-21.5 17.5zM2011 397q10 2 21.5 3t21.5 3q8 2 17 3q31 0 30 -13 q-2 -12 -18 -24q-10 -6 -21 -13q-8 -4 -17 -7t-20 -5q-27 -8 -43 -11t-26 4t-14.5 22.5t-8.5 43.5q-6 45 -10 91.5t-12 89.5q-4 23 -10.5 44t-10.5 44h-42t-29.5 -3t-30.5 -9.5t-45 -18.5q2 -39 7 -77t13 -77q6 -27 13.5 -53t13.5 -53q2 -16 -5 -30.5t-22 -20.5 q-23 -10 -46 -20.5t-48 -18.5q-2 -2 -7 0t-7 6q-6 8 -6 16q0 10 6 17q14 12 17 26.5t3 30.5v12q0 55 -10 109q-12 57 -18 117q-6 53 -14.5 104t-14.5 102q-2 14 -4 33q0 12 2 23q2 27 16 39q12 12 37 12h6q6 0 12.5 -4t10.5 -10q2 -12 4 -25.5t2 -28.5v-10q0 -33 6 -63 q8 -35 14 -72q2 -4 5.5 -7t7.5 -9q29 0 57.5 6t56.5 14q35 8 35 41q0 16 -4 61q-2 27 -4 56v24q0 25 2 39q2 20 13.5 31.5t34 18t61.5 14.5q8 2 18 -2q12 -6 18 -17q2 -2 -1 -6t-7 -8q-8 -6 -17 -13t-20 -16q-4 -45 -10 -92q-2 -20 0 -41q0 -27 4 -54.5t4 -55.5v-26.5v-28 v-27.5q0 -47 7 -92q8 -59 14 -119q2 -4 5 -8.5zM1219 776q35 27 65 31q18 2 39 2h25q-12 -25 -18.5 -39t-10.5 -27.5t-5 -30t-3 -44.5q-2 -45 -2 -90.5t2 -92.5q4 -39 4 -77.5v-77.5q2 -45 8 -90t14 -93q4 -20 23 -36q10 -8 10 -18.5t-8 -18.5q-2 -2 -6 -6.5t-8 -6.5 q-23 -12 -44.5 -23t-46.5 -22q-2 -2 -7 1t-7 6q-2 2 -3 7t-3 9q0 4 2 10q12 14 16.5 30.5t1.5 37.5q-4 49 -6 99t-4 101q-2 63 -5 124t-7 124q-2 25 -2 49.5v49.5q0 14 1 29.5t1 29.5t-3 27.5t-13 25.5z" />
<glyph unicode="t" horiz-adv-x="2729" d="M1205.5 720q13.5 11 27.5 13q16 4 24 -8q12 -18 13 -25q2 -23 -22.5 -43t-44 -13t-22.5 21.5t4 29t20.5 25.5zM1790 662q4 23 4 28.5t-4 18.5q-6 -16 0 -47zM1796 1075q-12 -31 -12 -55v-236q0 -16 4 -28q12 -6 20 8q23 39 23 65l-4 150v14q0 39 -11.5 57.5t-13.5 19.5 t-6 5zM1522 573l-2 -61q0 -20 -4.5 -41.5t-4.5 -52.5v-70q0 -31 29 -63q14 -12 29 -13q14 2 30 15q61 51 89 98l30 53q18 37 19 62v86q-4 78 -7.5 81t-5.5 7q-18 -4 -32.5 -14.5t-32 -15.5t-33.5 -9t-32.5 -12.5t-34 -12.5t-37.5 -10v-27zM1763 213l-18 152v26q0 6 -2 12v3 q-8 2 -17 -7q-6 -10 -10 -20q-55 -113 -155 -146q-12 -4 -37 -4t-43 35q-35 72 -35 150q0 16 -8 24q-2 -2 -4 -2t-5.5 -6t-4.5 -13t-11 -43t-43 -100.5t-82 -91.5q-14 -6 -31 -6q-74 0 -86 139q-4 23 -2 36.5t1 30.5t8 46v2q-10 2 -20.5 -17.5t-70.5 -45.5q-4 -4 -10 -4.5 t-14 -2.5l-59 -2q-10 -4 -6.5 -34.5t14.5 -102.5q2 -23 2 -43q0 -45 -15 -74q-41 -80 -118 -86q-20 0 -39 9q-80 33 -113 141q-12 39 -18 80q-14 -33 -22.5 -68t-16.5 -69q-31 -117 -90 -148q-31 -16 -50 12q-27 43 -26 117v10v31q0 111 18 225q-18 -20 -37 -41 q-20 -20 -32 -36q-39 -49 -70 -50q-10 0 -20 7q-12 8 -15.5 21t4.5 22q8 0 10.5 -8.5t9.5 -17.5t20.5 -5t17.5 9t10 9q68 68 115 152q20 39 41 31q8 -4 10 -13v-8l-37 -405q0 -8 4 -17q14 -33 37 -8q78 82 110 338q4 18 9.5 37.5t23.5 25.5h8q6 -2 7.5 -8t5.5 -47t15 -115.5 t35.5 -114.5t37 -53.5t23 -16.5t15.5 -5t9 -2q84 0 84 168q0 72 -10 100q-8 23 -9 55q0 25 -16 60q-10 35 16.5 50t30.5 -3v-10q0 -6 2 -13v-36q4 -31 62.5 -31t99.5 49q8 18 16.5 34.5t12.5 30t6 20.5t6 13q25 20 45 37q10 -4 10 -12v-6q-14 -33 -14 -68l-4 -145v-43 q0 -39 4 -76q18 -20 53 -6q33 14 53 49q47 84 56.5 122t28 83t18.5 75.5t1 45t-9.5 17.5t-18.5 4t-24.5 5t-35 22.5t-18.5 26.5q8 14 13.5 9.5t8.5 -6t17.5 -13.5t41 -18t30.5 10q2 35 6 70q4 33 6 53q6 61 15 88q16 55 36 35q18 -18 19 -90l-2 -136l2 -22q29 -6 57 12 q96 35 107 35q41 18 38 46t-3 44q0 20 2 41v178l-2 60q0 33 34.5 53t54 8t24.5 -27.5t6 -25.5t5.5 -36t4.5 -46v-121q2 -10 2 -19.5v-15.5q2 -16 18 -6q37 23 58.5 51.5t35.5 40.5q41 33 88 64q80 33 103 33h4q57 0 93 -40t36 -83t-6 -66.5t-18.5 -41t-24 -45.5t-54.5 -63.5 t-106 -35.5q-20 2 -52 11t-57 50q-8 20 -4 37q18 68 90 68q16 0 30.5 -13.5t18 -30t-10 -16.5t-17.5 25q-6 10 -19 10q-14 0 -43 -24q-12 -12 -12 -35q4 -23 25 -39q27 -20 51 -20.5t49 16.5q14 10 31 16q37 16 51 96q4 20 4 37q0 12 -4 37q-18 106 -94 107h-13 q-39 -2 -71 -27q-12 -12 -41 -30.5t-45.5 -45t-32.5 -38t-24.5 -19.5t-22.5 -21q-12 -12 -14 -41q-2 -55 -37 -143q-31 -78 -31 -111q-2 -4 0 -8l8 -6q12 8 20.5 19.5t18.5 22.5t16 20q18 12 37 14q76 0 113 -105q27 -70 84 -135q39 -45 111 -45q119 0 143 105q10 45 10 71 q-2 96 -43 129q-8 8 -17 7t-14.5 -3t-13.5 -6t-15 -7t-24.5 -20.5t-9.5 -53t43 -48.5q-12 -10 -29.5 -6t-32 22.5t-5 55.5t38 65.5t53 34.5t37 6t34.5 -10q20 -10 37 -53q16 -41 16 -66v-34q-4 -47 -22 -91q-45 -115 -197 -114q-12 2 -22 0q-74 6 -133.5 57t-89.5 137 q-12 33 -36 57.5t-36 16.5q-70 -57 -72 -154l2 -71q0 -29 5 -47.5t4 -32.5t0 -31.5t-19 -29.5q-29 24 -29 63z" />
<glyph unicode="u" horiz-adv-x="2211" d="M1145 -201q-55 4 -110.5 6t-112.5 11q-61 8 -121 22.5t-117 36.5q-150 57 -258 182q-12 12 -24.5 22.5t-22.5 22.5q-43 45 -70.5 96.5t-46.5 108.5q-18 59 -31 121q-10 49 -10 98v27q4 37 11.5 75t15.5 74q16 82 46 158t81 144q57 74 122.5 136t149.5 109q47 25 93 53.5 t94 51.5q68 33 137 54.5t145 23.5q18 2 35 2q29 0 57 -4q45 -6 90 -27q47 -20 96.5 -36.5t96.5 -37.5q33 -12 63.5 -29.5t59.5 -35.5q20 -12 40.5 -26.5t39.5 -29.5q18 -16 36.5 -33.5t34.5 -35.5q47 -53 79 -112.5t65 -119.5q37 -63 55 -130.5t27 -139.5q2 -12 2 -27 q-2 -23 -6 -45q-8 -37 -9 -71q-8 -53 -24.5 -99.5t-48.5 -89.5q-4 -6 -9.5 -13t-7.5 -16q-20 -53 -55 -95t-72 -81q-16 -14 -30.5 -31.5t-30.5 -31.5q-45 -39 -92 -74q-23 -16 -45.5 -30.5t-46.5 -26.5q-29 -14 -56.5 -27.5t-54.5 -23.5q-37 -12 -76 -25.5t-80 -22.5 q-27 -6 -52.5 -7t-51.5 -5v4zM297 539v-11q0 -68 18 -133q20 -72 52 -139q29 -57 73.5 -101t89.5 -87q55 -51 121 -88q78 -41 160 -60.5t168 -30.5q29 -4 55.5 -4t55.5 -4q57 -4 114.5 -4t114.5 23q33 14 70.5 22t70.5 25q86 45 158 102q43 37 82 76t78 80q12 12 20 28.5 t19 34.5q14 27 28.5 53.5t32.5 53.5q29 43 37 96q4 14 5 29.5t5 31.5q6 37 6 70q0 29 -2 57q-12 61 -33 123q-10 31 -25.5 57.5t-27.5 57.5q-23 57 -57.5 106.5t-69.5 96.5q-16 25 -39 35q-63 43 -125.5 87t-140.5 60q-2 0 -8 4q-43 33 -93 43t-102 12q-8 0 -16 2.5t-12 6.5 q-12 12 -27.5 15t-30.5 -1q-33 -4 -64.5 -10t-62.5 -17q-39 -12 -76.5 -25.5t-74.5 -31.5q-29 -12 -53.5 -29.5t-51.5 -31.5q-61 -37 -119.5 -74t-107.5 -90q-37 -43 -71.5 -86t-59.5 -92q-39 -78 -60.5 -161t-23.5 -177zM1237 848q23 -70 44.5 -134.5t43.5 -127.5 q4 -18 9 -34.5t9 -35.5q2 -8 2.5 -15t-4.5 -14q-4 -12 -11 -24t-23 -10q-14 0 -19.5 11t-7.5 23q-8 31 -15.5 61t-17.5 62q-12 47 -29.5 93.5t-33.5 93.5q-4 8 -7 13t-8 13q-8 -2 -15 -3t-13 -1q-8 2 -17.5 5t-13.5 10q-8 10 -4 20t12 18q10 4 21 13q8 8 20 12 q29 12 57.5 25.5t57.5 25.5q16 8 30.5 16.5t26.5 26.5q12 20 31.5 15t28.5 -29q12 -33 21 -64.5t20 -64.5q2 -4 2 -10.5t4 -14.5q23 16 44 29.5t38 30.5q4 6 8 14v16q-4 20 -10.5 41t-12.5 41q-4 8 -5 16.5t-5 16.5q-4 12 -4 23q0 23 22 30q16 4 25.5 -3t17.5 -29 q10 -27 18.5 -52.5t18.5 -50.5q20 -53 40 -105.5t40 -105.5q8 -16 13 -30q6 -20 1.5 -33t-18.5 -21q-6 -4 -12 -2q-16 0 -35 23q-4 4 -6 9t-6 11q-12 33 -26.5 66t-31.5 67q-29 -10 -46 -27.5t-33 -39.5q-4 -4 -3.5 -13.5t3.5 -15.5q8 -23 17 -45t19 -45q25 -61 52 -117 q10 -23 -13 -37q-10 -8 -19 -3t-16 14l-12 16t-10 18q-35 61 -61.5 124t-49.5 128q-10 31 -21 61.5t-22 65.5q-27 -16 -51 -30.5t-49 -30.5zM889 422q-8 51 -12.5 94t-22.5 84q-12 29 -22.5 57.5t-18.5 59.5q-4 12 -1 24.5t5 24.5q2 4 8 10t11 4q6 -2 13 -6t9 -10 q23 -74 50.5 -144.5t37.5 -148.5q4 -47 15.5 -94t25.5 -94q4 -16 5 -26.5t-2 -18t-12 -14.5t-26 -19q-18 6 -24 21.5t-15 27.5q-37 70 -79.5 134.5t-94.5 123.5q-4 4 -9 10t-9 8q-2 2 -4 2q-4 0 -8 5q-2 -8 -2 -15.5v-15.5q8 -53 14 -104.5t14 -102.5q4 -18 3 -37.5t1 -38.5 q2 -20 -12 -33.5t-22 -29.5q-2 -4 -11.5 -2t-15.5 6t-10 12t-9 17q-57 100 -113.5 200.5t-113.5 200.5q-2 4 -4 7t-4 9q-12 27 12 41q27 14 43 -10l68 -119q29 -47 54.5 -96t53.5 -96q6 0 11 2q0 8 1 14t1 14q-8 61 -16.5 123t-16.5 121q0 6 -4 17q-4 29 20 36q8 4 19.5 2 t15.5 -8q61 -57 119 -116q20 -25 39.5 -52.5t44.5 -60.5zM985 786q8 4 15.5 12.5t15.5 10.5q12 2 20 -2q4 -4 8 -16q18 -43 35 -85t33 -85q20 -57 37.5 -114.5t34.5 -115.5q6 -16 -1 -32.5t-22 -22.5q-6 -2 -10 -2q-20 0 -33 35q-20 63 -38.5 127.5t-39.5 128.5 q-10 33 -21 65.5t-24 65.5q-4 6 -5 12t-5 18z" />
<glyph unicode="v" horiz-adv-x="1992" d="M467 635q-8 -113 -14.5 -223.5t-14.5 -227.5q-12 -6 -26.5 -14t-34.5 -20q-8 12 -17.5 26t-13.5 29q-31 113 -60.5 226.5t-60.5 227.5q-4 20 -11 39t-11 41q-4 12 -4 19q-2 31 30 41q8 2 17 2q29 0 43 -37q4 -12 5 -25.5t5 -25.5q14 -53 28.5 -107.5t28.5 -109.5h13 q4 14 6 28.5t6 28.5q6 47 10 96t12 96q6 43 31 54q6 4 15 0q18 0 40 -19q29 -27 50 -59q18 -33 43 -62q8 -12 16 -28q4 -16 16 -29q10 37 13.5 76t7.5 76t10 73.5t21 71.5q14 2 26 2q18 0 27 -4q12 -8 6 -45q-14 -117 -14 -231v-13q0 -121 14 -243q4 -18 4 -37t-24 -29 q-29 -14 -46.5 -7t-29.5 40q-31 70 -62.5 137.5t-62.5 136.5q-4 8 -8 17q-8 8 -13 16q-4 -2 -8 -2t-8 -2zM1542 815q25 12 42.5 20.5t33.5 16.5q37 18 45 35q8 14 8 43v12q-4 23 -8 47.5t-8 46.5v11q0 45 43 49h6q33 0 43 -43q8 -45 17.5 -88t17.5 -88q2 -2 2 -7 q-14 -45 -15 -79v-9q0 -37 9 -77q4 -41 10 -82q4 -33 6 -66v-16q0 -33 -12.5 -55.5t-46.5 -30.5q-20 4 -25.5 19t-7.5 34q-4 68 -10 132.5t-13 133.5q-39 -8 -66.5 -29.5t-49.5 -44.5q-8 -8 -10.5 -21t-2.5 -28q4 -47 9.5 -94t11.5 -96q-31 -29 -51 -29h-4q-20 4 -33 47 q-10 39 -15.5 79t-9.5 81q-6 104 -10 209l-12 219q0 37 37 45q20 4 36.5 -9t20.5 -38q4 -29 3 -59.5t1 -59.5q2 -31 3 -62.5t5 -68.5zM600 -205q-33 4 -44 13.5t-15 35.5q-4 25 4 37q4 12 37 21q160 57 317.5 112.5t317.5 110.5q74 25 147.5 46.5t146.5 43.5q27 8 51.5 18.5 t51.5 18.5q14 4 26 4q12 -2 25 -6q20 -10 27 -31q4 -23 -12.5 -42t-41.5 -25q-55 -12 -109 -23.5t-110 -26.5q-61 -18 -121.5 -39.5t-121.5 -39.5q-111 -33 -213.5 -83.5t-210.5 -95.5q-37 -14 -76 -25.5t-76 -23.5zM326 948q-29 -2 -43.5 8.5t-20.5 28.5q-6 20 6 41 q10 20 35 29q121 39 241 80l240 82q88 29 179 53q86 25 176 53q82 25 162.5 49.5t162.5 50.5q20 6 40 10.5t36 -16.5q8 -8 12 -21.5t0 -23.5q-8 -25 -26.5 -32t-42.5 -9q-104 -12 -205.5 -38.5t-204.5 -63.5q-74 -25 -147.5 -48.5t-149.5 -45.5q-94 -29 -184 -70 q-92 -41 -182 -82q-23 -10 -45.5 -18.5t-38.5 -16.5zM1235 324q-14 70 -14 135q-4 66 -9 133q-6 66 -10 131t-8 133q-6 -2 -13 -3t-16 -1q-12 4 -26.5 4t-16.5 8q-4 12 -6 30.5t6 27.5q45 53 102.5 83.5t127.5 38.5q8 2 20 -5t14 -15q4 -8 -1 -19.5t-13 -17.5 q-12 -12 -28.5 -19t-32.5 -16q-29 -16 -29 -49l8 -164q4 -78 10 -159q4 -43 8.5 -86t4.5 -86q0 -25 -2 -39.5t-10.5 -24.5t-23.5 -14t-42 -6zM934 844q-2 23 -2 45v45q0 29 16.5 37t36.5 -8q12 -8 21.5 -21.5t13.5 -28.5q4 -23 4 -44t2 -46q4 -51 6 -101t8 -101 q6 -98 19 -199q2 -14 0 -27.5t-21 -19.5q-10 -4 -18 -2q-23 0 -33 26q-8 16 -14 33t-6 35q-10 94 -18.5 188.5t-16.5 188.5h2z" />
<glyph unicode="w" horiz-adv-x="2308" d="M1753 1354q4 12 9 22t10 19q23 -2 31.5 -16.5t15.5 -28.5q20 -47 45.5 -89t64.5 -77q14 -12 25.5 -31.5t19.5 -38.5q57 -119 82 -244q20 -111 21 -225v-31q-2 -74 -14.5 -143.5t-45.5 -134.5q-18 -39 -44.5 -76t-49.5 -76q-18 -29 -39.5 -51t-46.5 -42.5t-50.5 -40 t-47.5 -40.5q-4 -4 -11.5 -9l-13.5 -9q-61 -61 -137 -93t-160 -53q-59 -14 -118.5 -30.5t-120.5 -20.5h-45q-63 0 -129 4q-86 4 -175 19q-53 10 -105 24.5t-106 26.5q-61 16 -105 55t-87 82q-53 53 -91 113.5t-65 130.5q-27 59 -34 121q-6 45 -7 90q0 18 2 35q4 111 37 215 t82 202q4 8 8 16.5t9 18.5q20 63 61 112.5t94 86.5q66 45 133.5 84t137.5 76q41 20 85 33.5t89 23.5q127 31 256 53q94 16 190 17q35 0 70 -2q70 -4 138.5 -18.5t131.5 -59.5zM1759 1282q-12 4 -25.5 6t-27.5 8q-84 29 -164 41q-59 10 -123 11q-23 0 -49 -2 q-78 -4 -152.5 -17.5t-150.5 -30.5q-102 -25 -198.5 -57.5t-184.5 -95.5q-8 -4 -17.5 -8t-17.5 -11q-12 -8 -24.5 -14t-24.5 -16q-16 -12 -31.5 -23.5t-29.5 -25.5l-23.5 -23.5t-19.5 -26.5q-45 -74 -78 -152.5t-62 -162.5q-29 -90 -28 -184q0 -61 12 -125q20 -90 66.5 -164 t105.5 -139q51 -57 112.5 -90t131.5 -50q70 -14 139.5 -23t138.5 -13q70 -6 140 -7h8q68 0 131 19q43 12 84 23.5t84 25.5q59 20 113.5 46t99.5 71q20 20 42.5 37.5t43.5 33.5q86 76 141 167t70 210q4 57 4 111q0 223 -88 426q-12 25 -26.5 47t-33.5 47q-25 29 -45 61.5 t-43 69.5zM1759 764q-4 33 -7 65.5t-5 65.5q-2 20 0 43q2 12 0 25q0 33 2 65q2 10 4 19.5t4 19.5q4 14 13.5 24.5t25.5 8.5q33 -8 33 -39q0 -51 -4 -100q-4 -25 -4 -50q2 -39 8 -77q10 -61 22 -125q2 -8 2 -16.5t5 -16.5q8 -29 8 -53q0 -18 -4 -35q-10 -41 -52 -78 q-8 8 -17 14t-13 17q-37 61 -71 123.5t-69 126.5q-8 16 -18 29.5t-20 27.5h-7.5h-5.5q-2 -29 -2 -55.5t-2 -55.5q-4 -72 -9 -142.5t-11 -141.5q0 -20 -13 -35q-10 -12 -22 -22.5t-25 -12.5q-18 0 -22 16.5t-6 30.5q-23 84 -48.5 167t-66.5 161q-18 35 -33.5 70.5t-32.5 70.5 q-8 18 -8 31q0 20 19 33q16 8 34.5 3t26.5 -26q29 -61 55.5 -124.5t53.5 -125.5q4 -12 10 -26.5t16 -28.5q4 8 7 18.5t3 18.5q4 53 5.5 106t5.5 107q0 20 1 39.5t5 38.5q2 16 7 31.5t24 15.5q12 2 28.5 -5.5t24.5 -17.5q25 -35 45 -70.5t43 -70.5q12 -20 23.5 -42t21.5 -46 l6 3zM612 598q-2 -14 -2 -29q0 -31 8 -59q12 -41 19 -82q8 -49 14 -97t15 -98q4 -20 -6.5 -32.5t-24.5 -22.5q-12 -10 -23.5 -7t-17.5 17t-12.5 29.5t-6.5 32.5q-8 113 -28.5 223.5t-44.5 218.5q-4 12 -5 25.5t-3 26t0 27.5t18 20q18 4 37.5 3t30.5 -12q37 -35 69.5 -71.5 t65.5 -75.5t63.5 -78t63.5 -78q4 -4 9 -7t17 -11q-8 33 -13 60.5t-11 56.5q-14 57 -29.5 113.5t-32.5 113.5q-2 4 -3 7t-1 7q-4 20 5.5 36.5t25.5 21.5q23 4 33 -7.5t14 -29.5q16 -63 33.5 -126t34.5 -128q14 -59 27.5 -116.5t25.5 -117.5q2 -10 2 -20q2 -20 -8 -39 q-12 -29 -43 -43q-6 -4 -16.5 -2t-16.5 8q-10 8 -17.5 21.5t-15.5 23.5q-53 68 -105 133.5t-108 134.5q-6 8 -15.5 14.5t-21.5 14.5zM1223 909q-12 -12 -22.5 -24.5t-22.5 -22.5q-49 -41 -71 -61.5t-25 -40t4.5 -48t17.5 -83.5q0 -4 2 -4t6 -4q27 12 52.5 26.5t54.5 28.5 q8 4 15 9t15 5q10 0 20.5 -3t18.5 -9q4 -4 4 -15.5t-4 -19.5q-8 -12 -19.5 -23.5t-21.5 -19.5q-23 -16 -44 -30.5t-46 -28.5q-20 -12 -20 -33q0 -10 4 -21q6 -14 12 -29.5t14 -31.5q12 -23 25.5 -28t38.5 5q12 4 26.5 12.5t28.5 16.5q8 4 16.5 10.5t16.5 10.5q8 2 18.5 1 t16.5 -8q4 -4 3 -14t-5 -18q-8 -12 -18.5 -24.5t-22.5 -20.5q-25 -16 -50.5 -30.5t-52.5 -27.5q-20 -10 -41 -10q-39 0 -63 47q-12 29 -25.5 58.5t-21.5 60.5q-18 78 -34.5 155.5t-33.5 155.5q-4 16 -4 25.5t3 16.5t12.5 13.5t23.5 14.5q20 12 36.5 25.5t37.5 23.5 q25 14 53 25q8 4 20 4q23 -1 52 -17z" />
<glyph unicode="x" horiz-adv-x="2002" d="M362 614v17q0 49 13 94q16 53 43 104q41 74 91 140.5t120 111.5q90 59 184 105.5t199 70.5q53 12 106 15q18 2 37 -2q72 -6 141 -31q27 -8 53.5 -16.5t51.5 -16.5q8 -2 18.5 -8t14.5 -12q16 -27 35.5 -51.5t39 -50t38 -51t32.5 -56.5q57 -123 63 -244v-24 q0 -111 -45 -226q-31 -78 -73.5 -144.5t-93.5 -129.5q-14 -16 -29 -29.5t-31 -27.5q-68 -53 -138.5 -98.5t-160.5 -63.5q-49 -10 -95 -18.5t-95 -10.5q-18 -2 -37 -2q-53 0 -101 12q-63 16 -120 58q-100 72 -158 182q-47 94 -72 195.5t-31 207.5zM983 84q16 6 31.5 6h32.5 q35 4 68.5 12.5t64.5 26.5q76 45 140 101.5t116 129.5q43 63 67.5 131t46.5 140q4 12 3 26.5t1 28.5v8q0 72 -18 137q-20 70 -55 136q-23 39 -47.5 74.5t-71.5 52.5q-10 4 -19 14q-16 23 -39.5 32t-48.5 17q-57 20 -112 21h-15q-63 -2 -124 -21q-92 -27 -179.5 -66.5 t-162.5 -103.5q-59 -49 -101.5 -109.5t-71.5 -132.5q-16 -45 -16 -88v-16q4 -53 6 -104q6 -74 28.5 -138.5t57.5 -128.5q45 -90 129 -151q25 -16 55.5 -29.5t65.5 -22t68 -8.5h6q31 0 57 9q10 2 19.5 8t17.5 8zM883 750q72 -78 100 -164q18 -57 18 -117q0 -33 -6 -70 q-6 -35 -26.5 -68.5t-51 -58t-71.5 -34.5q-16 -4 -33 -5q-25 0 -51 9q-20 6 -45 23.5t-48.5 43t-41 54t-19.5 61.5q-4 33 -4 63q2 78 25 144q35 94 106 176q6 6 10.5 10t8.5 8q20 16 43 27q8 6 18 6q12 0 29 -8q41 -23 41 -72q0 -12 -2 -28zM774 700q-33 -45 -51 -94 q-16 -41 -16 -86v-16q2 -27 7 -52.5t15 -48.5q16 -41 53 -61q23 -12 43 -12h4q12 0 25 4q29 6 47 39q16 31 17 67v11q-2 25 -6.5 48t-8.5 46q-12 53 -41 92.5t-88 62.5zM1171 684q31 14 57.5 26.5t53.5 22.5q18 8 36.5 13.5t37.5 9.5q6 2 15 -2t11 -13q2 -2 2 -10t-4 -14 q-10 -10 -20 -21.5t-23 -19.5q-27 -18 -52 -36.5t-54 -37.5q-31 -20 -37 -45q-4 -14 -4 -31q0 -12 2 -28q6 -39 11 -77t9 -77q2 -12 -5 -23.5t-16 -19.5t-21.5 -11t-22.5 1q-8 2 -15.5 13t-11.5 22q-6 33 -10 65.5t-8 67.5q-10 86 -18.5 171t-18.5 171q-2 10 -2 20 q0 39 18 68q25 37 63 57.5t81 24.5q10 2 20 0q31 0 53 -10q18 -6 28.5 -18.5t7.5 -32t-27 -23.5q-27 -4 -54.5 -11.5t-54.5 -13.5q-25 -6 -33 -22q-6 -12 -8 -29v-12q2 -27 6 -54.5t8 -60.5z" />
<glyph unicode="y" horiz-adv-x="3147" d="M1038 459q-12 4 -23 6t-26 6q-51 12 -100 14h-17q-43 0 -88 -6q-20 -4 -40.5 -6t-43.5 0q-6 2 -11 4t-13 8q4 4 8 7.5t8 5.5q29 14 55.5 27.5t59.5 19.5q12 4 26.5 8t30.5 8q31 10 60.5 11t62.5 1h45q4 0 9.5 -2t11.5 -2q-2 -25 -3 -49t-6 -49l-3 -6zM1763 729q8 20 9 43 v12q-2 12 -2.5 27.5t2.5 28.5h14q55 -20 112.5 -30.5t116.5 -18.5q23 -4 45 -3h11q29 0 55 5q14 2 30.5 4t30.5 0q12 0 24.5 -2t24.5 -4l5 -9q0 -2 -3 -6q-2 -2 -4 -2q-31 -8 -60.5 -23.5t-62.5 -15.5q-2 0 -2 -1t-2 -1q-27 -8 -51 -10t-51 -4q-12 0 -23.5 -1t-25.5 -5h-23 l-102 10h-25q-4 0 -8 -1t-8 1q-13 2 -27 6zM299 479q4 4 4 7t4 8l53 38q8 4 14.5 8.5t14.5 12.5q35 29 73 46t77 36q25 12 50 18t52 11q4 2 8 1t10 -3v-13.5v-13.5l-16 -94q-2 -8 -2 -17.5t-2 -17.5q-2 -20 14 -35q20 -18 47 -16h17l43 2q29 4 59 8q27 4 51 6q18 0 37 -4 q43 -6 88 -16q10 -2 18.5 -7.5t12.5 -21.5q2 -8 2 -16q0 -25 -20 -37q-12 -8 -31 -15q-27 -8 -53.5 -11t-51.5 -3h-103t-101 -2q-55 -4 -107 -21q-10 -4 -21.5 -5t-19.5 -3q-86 -14 -168 -61q-4 -4 -14 -6q-4 8 -3 14t5 12q20 43 46 82t65 64q16 10 36 26q8 4 13.5 9.5 t7.5 19.5q-8 4 -17.5 3t-17.5 1t-17.5 2h-17.5q-10 0 -18 1t-19 1h-32q-10 0 -19.5 -1t-17.5 -1q-8 2 -16.5 -1t-16.5 5zM2269 776q-12 29 -33.5 34t-44.5 3q-20 -2 -39.5 -4t-42.5 -2q-35 -4 -69.5 -4t-69.5 6q-14 4 -28.5 5t-30.5 3q-14 4 -29.5 7t-30.5 7 q-18 6 -34.5 13.5t-34.5 15.5q-8 4 -9 12.5t3 16.5q18 29 45 31q27 4 55.5 3t54.5 -3q25 -4 49.5 -5.5t49.5 -5.5q23 -4 46 -7t46 -5q63 -12 127.5 -22.5t130.5 -24.5q29 -6 59.5 -12.5t61.5 -12.5q6 -2 11 -2h9q31 -2 60.5 -6t60.5 -10q14 -4 28.5 -4t28.5 4q18 6 43 0 q-10 -12 -34.5 -28.5t-49.5 -24.5q-23 -8 -44 -16.5t-46 -16.5q6 -12 8 -14q12 -10 21 -15q29 -14 57.5 -27.5t59.5 -25.5q18 -6 34.5 -13.5t32.5 -15.5q0 -6 -2 -8q-35 -12 -68.5 -26.5t-68.5 -26.5q-57 -20 -109 -23q-20 -2 -39.5 -2t-39.5 2q-39 4 -74 11q-12 2 -24.5 5 t-24.5 3q-27 4 -33 28q-6 20 -11.5 41t-9.5 45q-4 23 -7 47.5t1 49.5q0 6 -1 11t-1 9zM2249 745q0 -37 3 -70.5t13 -68.5q10 -33 25.5 -62.5t29.5 -58.5q4 -6 2 -10q-10 2 -18 -12q-8 -8 -17.5 -9t-19.5 -8q-53 -31 -119 -34q-27 -4 -52 -5t-50 3q-29 4 -55.5 4t-53.5 2 q-37 4 -72.5 9t-72.5 17q-4 2 -10 3t-10 4q-27 4 -51.5 12t-51.5 14q-12 4 -27.5 8t-29.5 6l-64 21q-29 12 -58.5 15t-59.5 12l-66 12l-66 12q-20 4 -40.5 9t-40.5 8q-20 4 -42 4t-42 2q-12 2 -24.5 2t-25 2t-24.5 1t-25 -3q-18 -2 -33.5 -1t-31.5 1h-15q-31 0 -61 -4 q-37 -6 -76 -19q-6 -4 -12 -4t-10 -4q-23 -6 -45.5 -13t-42.5 -22q-8 -4 -18.5 -8t-20.5 -8l-3 12t-1 10q2 10 3 20.5t3 20.5q4 37 9 72t9 70q2 12 1 25.5t-1 25.5q0 6 -1 11t-1 11q14 12 30.5 22.5t33.5 14.5q12 4 27.5 9.5t29.5 9.5q49 12 99 17t102 5q25 0 50 -1t50 -3 h16.5h16.5q20 -4 40.5 -8t41.5 -8q12 -4 23 -6.5t22 -4.5q18 -4 34.5 -6t34.5 -10q6 -4 12.5 -5t14.5 -1q72 -12 147 -39q4 -2 9 -2q39 -8 77.5 -16.5t77.5 -16.5q23 -4 44.5 -9t45.5 -7q23 -4 47.5 -5t47.5 -1q20 0 40.5 -1t38.5 -3q25 -4 50 0q18 2 34.5 3t34.5 3 q29 2 54.5 8t52.5 14q12 4 21 9.5t20 7.5q10 4 19 9t22 1q2 -7 2 -17z" />
<glyph unicode="&#xc4;" />
<glyph unicode="&#xc5;" />
<glyph unicode="&#xc7;" />
<glyph unicode="&#xc9;" />
<glyph unicode="&#xd1;" />
<glyph unicode="&#xd6;" />
<glyph unicode="&#xdc;" />
<glyph unicode="&#xf4;" />
<glyph unicode="&#x2000;" horiz-adv-x="818" />
<glyph unicode="&#x2001;" horiz-adv-x="1637" />
<glyph unicode="&#x2002;" horiz-adv-x="818" />
<glyph unicode="&#x2003;" horiz-adv-x="1637" />
<glyph unicode="&#x2004;" horiz-adv-x="545" />
<glyph unicode="&#x2005;" horiz-adv-x="409" />
<glyph unicode="&#x2006;" horiz-adv-x="272" />
<glyph unicode="&#x2007;" horiz-adv-x="272" />
<glyph unicode="&#x2008;" horiz-adv-x="204" />
<glyph unicode="&#x2009;" horiz-adv-x="327" />
<glyph unicode="&#x200a;" horiz-adv-x="90" />
<glyph unicode="&#x202f;" horiz-adv-x="327" />
<glyph unicode="&#x205f;" horiz-adv-x="409" />
<glyph unicode="&#x25fc;" horiz-adv-x="1269" d="M0 1270h1270v-1270h-1270v1270z" />
</font>
</defs>
</svg>
