<?xml version="1.0" standalone="no"?>
<!DOCTYPE svg PUBLIC "-//W3C//DTD SVG 1.1//EN" "http://www.w3.org/Graphics/SVG/1.1/DTD/svg11.dtd" >
<svg xmlns="http://www.w3.org/2000/svg" xmlns:xlink="http://www.w3.org/1999/xlink" version="1.1">
<metadata></metadata>
<defs>
<font id="butterscoth_alt_capitals" horiz-adv-x="1335" >
<font-face units-per-em="2048" ascent="1638" descent="-410" />
<missing-glyph horiz-adv-x="500" />
<glyph horiz-adv-x="0" />
<glyph unicode="&#xd;" horiz-adv-x="681" />
<glyph unicode="A" horiz-adv-x="1185" d="M-74 489q0 442 254 787q129 176 295 291.5t344 115.5h23q47 0 76 -18q71 -40 71 -144q0 -124 -78 -233q-27 -27 -41 -26q-10 0 -16 12q-10 16 8 47q41 78 41 170q0 66 -20 121q-6 31 -37 30q-158 0 -273 -96q-131 -106 -227 -260q-29 -45 -41 -51t-41 -6q-31 0 -8 -33 q12 -20 12 -37q0 -14 -6 -27.5t-19.5 -36t-17.5 -30.5q-113 -217 -139 -490q-16 -168 -16 -256q0 -98 14 -182q18 -115 86 -155q33 -20 74 -21q113 0 258 160q178 197 286 448q39 94 96.5 273.5t84.5 251.5q39 106 96 106h2q31 0 31 -31v-12q0 -37 -25 -102 q-80 -227 -135 -633q-31 -246 -31 -344q0 -45 -4 -143.5t-4 -147.5q0 -98 14 -182q16 -82 78 -144.5t135 -62.5q39 0 78 22q41 27 68.5 77t27.5 104q0 47 -24 86q-22 28 -53 28h-2q-29 0 -41 -22q-16 -29 -19 -29q-4 -2 -8 -2q-12 0 -21.5 14.5t-9.5 30.5q0 43 34 74t75 31 q14 0 20 -2q45 -12 75 -54.5t38 -95.5q2 -12 2 -35q0 -74 -41 -140.5t-104 -96.5q-51 -27 -111 -27q-98 0 -180 66q-141 109 -142 469v41q0 156 64 585q-4 -25 -21.5 -59.5t-45 -75.5t-35.5 -55q-98 -170 -194.5 -290t-219.5 -181q-86 -41 -141 -41q-27 0 -39 4 q-33 8 -59.5 35.5t-38 52.5t-29.5 70q-102 246 -103 507z" />
<glyph unicode="B" horiz-adv-x="1996" d="M-74 -98q0 43 17 88q29 76 104 76q20 0 47 -11q31 -12 37 -30q12 -29 -14 -41q-6 -2 -16.5 -2h-16.5q-43 -6 -43 -74v-31q0 -119 35 -151q18 -16 59 -16q1 0 3 -1q40 0 75 15q86 31 167 126t132 199q39 80 77 184.5t55.5 162t57 203.5t48.5 175q49 180 69 270q2 4 6 47.5 t13 55.5l30 16q29 18 29 27q0 2 -2 4q-31 29 -31 84q0 37 17.5 109.5t19.5 78.5l14 82q14 80 15 119q0 12 -4 41q-27 -2 -50.5 -14.5t-54 -35t-43.5 -30.5q-29 -18 -70.5 -66.5t-60.5 -64.5q0 33 2 35q29 45 43.5 63.5t44 48t60.5 46.5q23 12 65.5 33.5t67.5 33.5q8 23 8 47 q0 20 -4 58q-6 37 -14 100q0 6 -6.5 42t-6.5 54q0 23 4 31q10 25 23 25q14 0 27.5 -25t17.5 -43q8 -33 24.5 -97.5t24.5 -95.5q4 -20 12 -28q14 -14 60 -6q117 26 210 26h7q219 0 311 -139q43 -68 43 -152q0 -119 -74 -233q-33 -51 -75.5 -99t-108 -110.5t-90.5 -89.5h2 q274 -49 379 -162q108 -120 108 -317q0 -190 -88 -350q-109 -199 -317 -330q-154 -98 -291 -99q-63 0 -117 21q-59 25 -100 77t-41 109q0 25 10 52q31 67 93 67h2q14 0 28 -6q29 -16 29 -38.5t-33 -51.5t-37 -35q-10 -16 -10 -35q0 -31 21 -55q31 -33 83 -47q45 -10 82 -10 q158 0 304 125q117 100 180 245.5t63 302.5q0 152 -55 275q-53 121 -135 164q-49 26 -122 26h-5h-10q-123 0 -240 -67q-20 -12 -37 -13q-20 0 -22 15q-2 16 24 35q242 156 338 268q131 160 131 330q0 35 -6 71q-20 106 -94 160q-63 47 -162 47q-35 0 -135 -14 q-23 -4 -39.5 -10.5t-26.5 -18.5t-16 -20.5t-9 -29t-4 -29.5t-1 -35.5v-36.5q-6 -279 -103 -588q-96 -315 -217 -572q-25 -51 -87 -199.5t-105 -224.5q-160 -283 -314 -331q-35 -10 -63 -11q-59 0 -112.5 29t-84.5 78q-35 53 -35 119zM752 604q43 106 49 160 q-47 -68 -49 -160zM977 1710q0 -2 10 -6q4 8 4 12q-2 2 -10 6q-6 -10 -4 -12zM1638 836q0 -4 4 -13l5 2q2 0 2 2q-4 9 -4 11zM1683 721q5 0 5 -2q2 2 2 6q-2 0 -2 -2z" />
<glyph unicode="C" horiz-adv-x="1570" d="M47 608q0 68 14 158q14 82 48 170q84 223 190 401q6 10 96 152q-14 20 -42.5 38.5t-67.5 37t-54 26.5q-47 29 -47 105q0 66 37 92q49 41 82 41q2 0 6 -1t6 -1t3 -3t4.5 -7.5t5.5 -8.5q0 -2 -11.5 -13t-15.5 -19q-18 -27 -18 -60q0 -59 49 -112.5t100 -53.5q29 0 49 21 q74 80 128.5 132t137 119.5t165.5 101.5t165 34q4 0 13.5 -1t13.5 -1q59 -4 96 -47t37 -103q0 -51 -35 -102q-152 -211 -567 -219q-49 0 -74 -39q-35 -53 -104 -156q-10 -16 -27.5 -46t-21.5 -36q-8 -12 -34 -21t-26 -30q0 -10 5 -25.5t3 -27.5t-7 -26.5t-13 -32t-12 -25.5 q-55 -158 -88 -344q-23 -119 -23 -227v-23q0 -129 41 -268.5t117 -212.5q102 -102 221 -150q53 -22 117 -22h6q121 0 262 77q94 51 155.5 109.5t75.5 146.5q4 29 4 46q0 70 -25.5 133.5t-70.5 81.5h-2q-16 4 -22 4q-27 0 -45 -13q-76 -41 -76 -96q0 -2 1 -7t1 -7 q2 -6 6 -20.5t4 -18.5t-4 -19q-6 -10 -18.5 -10t-20.5 8q-16 14 -16 54q0 96 82 153q66 45 153 45q113 0 174 -67q47 -55 47 -127q0 -119 -112 -258q-20 -27 -39 -43q-242 -217 -494 -217h-6q-195 0 -354.5 133t-243.5 333.5t-84 413.5zM657 1538q86 6 93 6q125 0 274 80 q59 31 92 90.5t33 128.5q0 18 -11.5 33.5t-25.5 19.5q-25 6 -49 7q-57 0 -98 -39q-47 -45 -145.5 -136.5t-147.5 -136.5q-27 -26 -15 -53z" />
<glyph unicode="D" horiz-adv-x="1816" d="M18 -195q0 72 52.5 130.5t117.5 74.5q20 4 29 4q14 0 44 -5t40 -5t32.5 -8t37.5 -8q55 0 96 104q8 20 18 21q2 0 11.5 -1t13.5 -1q25 0 25 18q0 8 -13.5 24.5t-13.5 26.5q0 4 2 9.5t4 11.5t4 10q35 82 65.5 170t63.5 200.5t50.5 176t55.5 207t48 182.5q37 141 59 242 q0 2 2 11t4 16t5 15.5t7.5 13.5t8.5 5q41 0 41 -88v-8q0 -143 -22.5 -287.5t-77 -314.5t-87 -261.5t-108.5 -283.5q-53 -143 -105 -201q-2 -2 -3 -7t-2 -11t-3 -13q47 -31 51 -30q51 -14 138.5 -49t161 -56.5t141.5 -21.5q180 0 377 245q151 187 151 587v5q0 94 -10 193 q-37 383 -266 616q-117 117 -168 148q-164 102 -316 125q-2 0 -7 1t-7 1t-8 -1t-8 -1q-170 -39 -277 -109q-82 -55 -126 -157.5t-44 -221.5q0 -129 39 -188q29 -39 64 -39q23 0 53 27q37 33 37 65q0 8 -6.5 21.5t-6.5 19.5q0 18 19 19h8q20 0 33.5 -20.5t13.5 -47.5 q0 -63 -48 -109.5t-101 -46.5q-59 0 -97.5 47t-50.5 105.5t-12 128.5q0 72 8 115q31 199 160 313q173 153 380 153h3q23 0 67 -4q147 -16 281.5 -102t238.5 -225q98 -127 166 -299q10 -25 11 -37v-8q0 -20 -11 -41q-18 -27 -18 -37q0 -12 25 -12h14q12 0 20.5 -8.5t13.5 -25 t8 -28.5t6 -32.5t3 -24.5q23 -135 23 -260q0 -471 -222 -715q-166 -186 -426 -186q-61 0 -143 14q-61 12 -166.5 56t-150.5 57q-25 6 -43 6q-43 0 -75 -27t-70 -78t-60 -74q-77 -73 -144 -73h-2q-70 0 -106 76q-20 41 -21 81zM150 -141q0 -33 28 -101q12 -33 37 -32 q16 0 31 14q59 59 106 164q-14 10 -32.5 18t-32 12.5t-27.5 8.5t-16 4q-94 0 -94 -88z" />
<glyph unicode="E" horiz-adv-x="1855" d="M172 1366q0 111 120 231.5t230 120.5q59 0 104.5 -45t45.5 -106q0 -53 -33 -91t-86 -38q-35 0 -65.5 21.5t-30.5 53.5v5l8 16l18 -4q27 -51 72 -51q33 0 54.5 25.5t21.5 58.5q0 47 -39 76.5t-88 29.5q-100 0 -173 -108.5t-73 -212.5q0 -88 64.5 -147.5t152.5 -59.5 q80 0 105 26q10 8 12 25q229 688 690 942q66 37 119 37q59 0 84.5 -51.5t25.5 -118.5q0 -57 -14 -103q-27 -92 -77 -174t-102 -138t-138 -118.5t-145.5 -97.5t-163 -94t-154.5 -90q-35 -23 -35 -92v-13q0 -163 129 -163h2q57 0 144 43t100 43q10 0 10 -23q0 -6 -57 -41 q-57 -43 -115 -96q-66 -59 -98.5 -92t-85 -92.5t-78 -106.5t-46 -111.5t-20.5 -130.5q0 -430 426 -528q45 -10 82 -10q166 0 316.5 122.5t222.5 286.5q41 90 41 142q0 66 -42 131t-104 65q-31 0 -46 -14t-18 -29.5t-3 -44.5v-8q0 -14 -10.5 -27.5t-24.5 -13.5q-16 6 -16 45 q0 131 165 131q72 0 124.5 -70.5t52.5 -144.5t-31 -145q-6 -16 -15.5 -42t-15.5 -42.5t-18.5 -37t-30.5 -38.5q-6 -6 -39 -41t-47 -49.5t-41 -38t-51 -37.5q-260 -164 -512 -164q-207 0 -365.5 152.5t-158.5 359.5q0 90 29.5 166t65.5 118t104.5 113.5t105.5 118.5 q39 49 129 131l4 9q-2 4 -13.5 4t-24.5 -2t-15 -2q-150 0 -207 249q-34 -26 -100 -26h-5q-111 0 -210 78.5t-99 187.5zM700 1229q160 47 572 512q63 72 114.5 166t51.5 174q0 4 -1 11t-1 11q-16 16 -27 17q-35 0 -94.5 -33t-97.5 -64q-301 -244 -412 -483q-68 -147 -78 -184 q-27 -113 -27 -127z" />
<glyph unicode="F" horiz-adv-x="1392" d="M-137 164v16q0 248 110 410q98 141 224 141q31 0 67 -10q53 -14 86 -66.5t33 -119.5q0 -37 -8 -64q-6 -27 -56 -80q-2 -2 -47 35q68 43 68 96q0 20 -6 51q-20 88 -84 89q-16 0 -25 -3q-12 -4 -20 -4q-109 -8 -151 -53t-62 -180q-16 -104 -17 -201q0 -39 2 -59 q12 -223 177 -348q111 -86 223 -86q102 0 221 73q78 49 103.5 65.5t77.5 58.5t84 89t63 113q55 117 94 299q0 4 1 15.5t3 15.5q4 8 21.5 15t17.5 15q2 10 -7 23.5t-9 15.5q-4 12 8 49q16 98 25.5 130t24.5 69t38 127q12 45 34.5 131t32.5 131q-53 -10 -71 -14 q-12 -2 -108.5 -32t-145.5 -30q-45 0 -70 19q18 35 60.5 48t100.5 17.5t75 8.5q74 16 178 53q10 39 55 200.5t70 247.5q-4 2 -8.5 6.5l-6.5 6.5t-5 3t-5 1q-145 8 -376.5 55t-405.5 96q-57 16 -131 17q-51 0 -97 -6q-66 -6 -109.5 -74t-43.5 -152q0 -35 10 -71 q31 -94 84 -95h4q90 0 123 99q6 20 10 44.5t8.5 55.5t6.5 47q34 -38 34 -95q0 -58 -28 -110q-57 -106 -154 -106q-90 0 -162 86q-61 74 -61 188q0 104 53 176q31 43 64 58q84 39 172 39q59 0 116 -19q94 -33 365.5 -82t359.5 -75q8 -4 15 -5q66 -20 110 -20q119 0 168 166 q4 14 11.5 29.5t18.5 30t18.5 24.5t22.5 25.5t21.5 21.5t26 23.5t21.5 19.5q16 12 38 12q35 0 54 -18q16 -16 16 -72q0 -16 -4 -41q-20 -135 -111 -180q-86 -45 -133 -135t-84 -230q-20 -90 -26 -108q-8 -23 -27 -35q-2 0 -8 -3t-8 -5t-6.5 -4t-6.5 -6.5t-2 -10.5 q162 55 263 56q106 0 157 -58q39 -45 39 -102q0 -14 -2 -23q-4 -29 -22.5 -50t-38.5 -21q-8 0 -17 4q12 20 13 45q0 33 -19.5 62.5t-42.5 41.5q-31 16 -70 17q-27 0 -75 -8q-51 -10 -158 -31v-2q-2 -18 -10 -56q-6 -37 -21.5 -111.5t-23.5 -113.5l12 96q-12 -68 -31.5 -180 t-29 -161.5t-27.5 -130.5t-42 -155.5t-58 -168.5q-53 -141 -123 -209q-33 -33 -99.5 -116t-103.5 -118q-84 -76 -163 -102.5t-189 -26.5q-10 0 -33 1t-35 1q-162 6 -309 142q-174 154 -174 389zM1524 1792q145 82 145 197q0 26 -10 67q-41 -25 -68.5 -71t-38 -82.5 t-28.5 -110.5z" />
<glyph unicode="G" horiz-adv-x="835" d="M-510 -901q0 55 37 110q66 100 133 168q186 182 326 236q16 4 22 4q33 0 39 -33q12 -61 12 -129q0 -31 -45 -22q-8 16 -24 53h-21q-70 -37 -151 -84q-14 -6 -31 -33q-23 -25 -55.5 -77t-44.5 -68q-76 -100 -76 -225q0 -119 78 -203q37 -39 94 -70q27 -14 59 -14 q25 0 56 10q92 33 141 96q133 170 174 310q6 20 23.5 63t23.5 66q37 141 62 262q94 461 116 657q4 33 20.5 92.5t18.5 71.5q2 6 6 59l-28 -20l-185 -270q-4 -6 -12 -22.5t-14 -23.5q-25 -23 -72 -72.5t-86 -86.5t-78 -66q-121 -90 -252 -90q-29 0 -43 2q-96 10 -106 17 q-94 43 -94 149q0 18 -1 54t-1 55q0 168 40 284q10 27 52.5 160t72.5 203q53 115 211 360q96 150 226 244l147 123q164 129 330 129h10q45 0 82 -25q104 -70 117 -180v-16q0 -35 -27 -52q-53 39 -63 86q-18 84 -125 84h-6q-164 0 -285 -116q-233 -225 -399 -500 q-115 -190 -154 -317q-76 -256 -90 -334q-25 -131 -25 -197q0 -10 1 -22.5t3 -27.5t2 -24q12 -88 66 -94q8 0 31.5 -4t35.5 -4q14 0 21 2q131 14 219 92q203 180 287 330q27 47 125 172q51 63 112 250q4 10 4 33q0 31 -20 40t-61 9h-29q-14 0 -40 1t-36 1q-20 33 12 47 q35 16 224 90q14 8 34 12h23q80 0 80 -45q0 -12 -17 -53q-49 -109 -49 -160v-12q0 -57 -35 -193q-6 -20 -10 -57q-6 -78 -35.5 -218t-35.5 -185q-6 -31 -31 -107q-100 -342 -123 -446q-37 -178 -51 -238q-31 -133 -144 -254q-20 -23 -62 -65.5t-63 -65.5q-72 -76 -200 -106 q-20 -6 -45 -7q-41 0 -76 23q-10 6 -27.5 17.5t-32 20.5t-26.5 17q-88 61 -119 172q-8 23 -19.5 70t-19.5 71.5t-8 55.5z" />
<glyph unicode="H" horiz-adv-x="1595" d="M-201 -164q0 35 38 74t73 39q39 0 72 -62q-6 -6 -27 -18t-32 -20.5t-21.5 -23.5t-10.5 -32q0 -37 32 -65.5t69 -28.5q29 0 55 16q139 84 240.5 213t142.5 283q39 152 64 272q6 31 47 185l129 497q30 105 196 531q-115 -10 -167 -16.5t-160.5 -28t-179 -60.5t-113.5 -96 q-20 -29 -21 -47q0 -14 12.5 -29.5t34 -32t27.5 -22.5q-14 -2 -43 -2q-43 0 -61.5 17.5t-18.5 60.5q0 61 56.5 113.5t139.5 84t159.5 50t136.5 22.5q39 2 132 20.5t140 18.5q29 0 29 -25q0 -37 -62.5 -209t-139.5 -369.5t-93 -248.5q471 168 772 367q20 12 59 82.5t81 154.5 t61 111q20 31 48.5 83t48 82.5t51.5 64.5t76 50.5t103 16.5h15q22 -39 22 -82q0 -63 -49 -162q-37 -72 -103.5 -141.5t-127 -117.5t-125 -120t-97.5 -149q-68 -158 -155.5 -504t-87.5 -496q0 -70 28.5 -167t74.5 -190t119 -158.5t150 -65.5q27 0 39.5 15t21.5 44t17 41 q25 -33 25 -41q0 -47 -31 -74.5t-78 -27.5q-147 0 -239.5 78.5t-178.5 228.5q-12 20 -34.5 86.5t-26.5 93.5q-8 59 -8 117v49q0 403 260 983l-4 20q-98 -37 -202.5 -85t-241 -113.5t-199.5 -93.5q-47 -20 -70.5 -44t-32.5 -69q-6 -35 -24.5 -124t-25.5 -122t-25.5 -109.5 t-29.5 -111.5t-34.5 -100.5t-45 -103.5t-54.5 -93t-69 -96t-83 -88t-102 -90q-100 -80 -195 -80q-61 0 -114.5 64.5t-53.5 125.5zM1632 1401q123 82 213 197.5t101 242.5q-66 -33 -177.5 -194.5t-136.5 -245.5z" />
<glyph unicode="I" horiz-adv-x="1091" d="M-20 4q0 113 49 222.5t137 179.5q77 65 173 65h3q104 0 145 -86q8 -20 9 -37q0 -68 -45 -74q-6 -2 -10.5 2.5t-4.5 10.5q-8 111 -74 131q-6 2 -18 2q-49 0 -92 -43q-84 -88 -115 -297q-20 -154 -20 -186q0 -125 88 -187q57 -39 129 -39t139.5 36t112.5 97q43 59 86 226 q20 72 57 219l74 295q4 14 12 59t15.5 69.5t25.5 56.5t45 46q2 2 5 4t5 4t2 4q2 6 -12 31q-2 4 -2 31q0 8 -3 24.5t-1 26.5q0 6 18 74q36 133 48 209q0 2 -20.5 15t-43.5 27.5t-27 16.5q-63 51 -84 84q-30 47 -30 101q0 71 43 147q63 102 227 207q33 20 162 103t201 126 q16 -10 16 -31q0 -18 -21 -55q-14 -27 -44.5 -80t-45.5 -80q-51 -92 -94 -231q-6 -20 -36.5 -142t-30.5 -139v-2q35 0 66.5 8.5t65 29t49 30.5t55.5 43t42 35q14 8 24.5 -1.5t0.5 -21.5q-4 -10 -8.5 -17t-11.5 -15.5t-11 -12.5t-14.5 -11t-14.5 -10.5t-16 -11.5t-17 -10 q-59 -41 -182 -80q-45 -12 -65 -74q-6 -16 -29 -55q-4 -8 -9 -11t-6 -5t-1 -5t2 -16q0 -8 7 -24.5t7 -28.5q0 -37 -10 -80t-30.5 -103.5t-27.5 -78.5q-55 -203 -186 -608q-82 -262 -164 -344q-154 -152 -295 -152q-18 0 -55 4q-125 18 -214 113.5t-103 222.5q-2 16 -2 47z M807 1440q0 -63 41 -116.5t108 -72.5q2 -2 25 6l137 412q20 61 21 80q0 12 -2 18q0 3 -4 11q-2 0 -13.5 -1t-15.5 -3q-158 -74 -258 -220q-39 -53 -39 -114z" />
<glyph unicode="J" horiz-adv-x="1216" d="M-764 -1087q0 113 102 245q78 102 107 127q264 242 449 375q51 37 145 115t143 114q63 47 199.5 122t206.5 124q53 236 53 514q0 55 -4 228q-76 23 -132 73.5t-122 136.5q-55 74 -55 162q0 33 10 80q37 156 135 295q39 57 229 354q2 2 6.5 10.5t6.5 11.5l6 9t8 9t8 7.5 t10.5 5.5t12.5 1q23 0 44 -25t21 -53q0 -113 -12 -185q-10 -68 -10 -153v-51v-45q0 -92 -8.5 -276.5t-8.5 -276.5q6 2 28 6t32 8q20 10 54 32.5t48 30.5q13 -59 13 -63q0 -6 -50 -41q-10 -6 -133 -66q-18 -55 -18 -178v-102v-43q-2 -16 -2 -37q0 -16 4 -21.5t4 -25.5v-12 q0 -23 -8 -72t-8 -74q0 -31 8 -55q51 16 53 16q244 152 281 174q33 20 97 62.5t97 62.5q4 3 51 15q-10 -41 -24.5 -61.5t-46.5 -26.5q-31 -4 -70 -29q-84 -53 -242.5 -150.5t-222.5 -138.5q-2 -16 -15.5 -103t-21.5 -134q-12 -66 -39.5 -189t-36.5 -158l-13 -65t-17 -78 t-21 -63q-16 -41 -31.5 -73t-40 -77t-38.5 -69q-66 -131 -115 -181q-8 -8 -96 -102t-142 -137q-135 -109 -233 -164q-25 -16 -39 -21q-45 -18 -129 -18q-162 0 -231 47q-125 78 -166 137q-6 12 -18.5 36t-18.5 34q-33 51 -33 113zM-602 -1141q0 -49 29 -100q55 -96 157 -113 q12 -2 34 -7t40 -8t35 -3q27 0 39 4q147 39 219 98q201 158 295 330q10 18 48 87t58 105q43 82 60 134q102 328 145 491q18 63 18 113q0 36 -12 73q-66 -25 -133 -73q-248 -180 -379 -285q-31 -25 -95.5 -74t-103 -78.5t-88 -75.5t-86.5 -91q-16 -20 -73.5 -82t-79.5 -99 q-96 -152 -123 -307q-4 -29 -4 -39zM391 1245q0 -25 4 -33q63 -172 228 -233q4 8 8 17.5t7 15.5t3 10q0 463 -2 729q-76 -111 -139 -199q-2 -2 -17.5 -23.5t-21.5 -33.5q-55 -109 -68 -215q0 -6 -1 -17.5t-1 -17.5z" />
<glyph unicode="K" horiz-adv-x="1329" d="M-455 -170q20 96 62 139q29 31 74 31q31 0 57 -16q4 -2 7 -7.5t8 -11.5t7 -10q-16 -20 -22 -23q-29 -12 -60 -71q-20 -35 -20 -84q0 -53 29 -88q70 -86 159 -86q86 0 250 108q57 37 105.5 87t81 97.5t60.5 117t44 118.5t33.5 131t25 129t19.5 136t18 128q33 221 56 334 q2 14 30 51q4 14 -10 29q-6 6 -2 33q57 283 61 299q4 18 16.5 66.5t16.5 72.5q2 14 3 48t6.5 59.5t19.5 40.5q19 22 71 22h5h18q31 0 45.5 -12t14.5 -29q0 -10 -4.5 -24.5t-11.5 -31t-9 -22.5q-20 -76 -23 -92q-14 -104 -104 -452q-2 -10 -8 -31t-8 -31q10 -10 28 2 q111 100 125 117q51 61 161 154.5t148 130.5q2 2 25 24.5t41 43t47 52t51.5 59t44 57.5t32.5 55.5t11 41.5q0 18 -14 27q-18 8 -20 14q-2 12 10 16.5t22 0.5q58 -18 58 -81q0 -61 -52 -132q-72 -100 -151 -172q-117 -100 -324 -306t-235 -233q74 -82 184 -293 q82 -152 176 -436q43 -129 119 -279q8 -16 37 -73.5t40 -79t40.5 -66.5t53.5 -67.5t60.5 -49t79.5 -40.5q33 -10 35 -29q4 -23 -31 -31q-8 -2 -24 -2q-117 0 -301 268q-76 111 -189 416q-12 35 -41.5 95.5t-40.5 86.5q-8 23 -22 65t-27.5 75t-29.5 61l-154 250 q-16 -21 -16 -37q-8 -45 -16.5 -145.5t-18.5 -149.5q0 -23 -8 -28q-4 -4 -13.5 -4.5t-11.5 -0.5q-12 -2 -12 -24q0 -8 8 -24.5t8 -26.5q0 -8 -2 -13q-49 -166 -133 -286q-104 -150 -261 -283t-300 -133q-39 0 -80 12q-70 23 -88 37q-111 82 -141 174q-8 20 -9 35z" />
<glyph unicode="L" horiz-adv-x="1038" d="M-369 -82q0 72 56.5 112t128.5 40q59 0 178 -13q18 16 37.5 41t30 42.5t29 50t26.5 45.5q156 246 245 532q18 59 52 178q0 2 8 37t16 51q2 6 8.5 18.5t8.5 18.5t2 19.5t4 19.5l-29 -37q-8 -10 -106.5 -84t-130.5 -94q-41 -27 -82 -27q-31 0 -57.5 16.5t-26.5 45.5 q-1 45 24 45q10 -8 10 -21q0 -33 27 -32q43 0 139 65q168 119 250 225q25 29 56 119q14 45 41.5 145.5t43 141.5t58.5 107.5t108 125.5q68 57 144 58q98 0 98 -66q0 -33 -64.5 -137t-99.5 -143q-29 -29 -78 -95q-33 -43 -34 -45q-117 -102 -213 -407q-139 -459 -156 -510 q-29 -80 -104 -236q-18 -37 -49 -80t-77.5 -100t-60.5 -76q14 -8 39 -24.5t45.5 -28.5t38.5 -20q174 -82 461 -267q201 -131 387 -131q88 0 175 53.5t144 129.5q23 0 23 -35q0 -39 -29 -68q-153 -153 -325 -153h-2q-184 0 -392 129q-319 201 -475 278q-6 4 -41 24.5 t-61.5 34t-38.5 13.5q-20 0 -59 -34t-101.5 -67.5t-142.5 -33.5q-41 0 -74 31.5t-33 72.5zM-262 -82q0 -43 51 -43q33 0 87 35t54 65v9q-32 26 -93 26h-5q-41 0 -67.5 -25.5t-26.5 -66.5zM721 1475q10 16 36.5 43.5t37.5 44.5q16 25 58 80t60 88q10 14 29 46.5t27 47.5 q-16 20 -31 20q-47 0 -111.5 -111.5t-83.5 -179.5q-16 -67 -22 -79z" />
<glyph unicode="M" horiz-adv-x="2058" d="M-252 1208q0 31 8 54q23 78 115 153q182 147 446 184q33 6 64 7q106 0 137 -68q12 -25 12 -65q0 -29 -2 -43q-39 -313 -227 -906q8 25 24.5 52.5t39 61.5t32.5 50q121 209 232 330q90 102 147 123q31 10 49 10q45 0 71 -36t26 -91v-51q0 -168 -35 -346q-8 -33 -8 -56 q0 -27 12 -26q6 0 19.5 19.5t28.5 45t17 27.5q55 82 121 170q61 86 169 255t157 241q182 262 414 360q41 16 61 12q47 -2 55 -61q8 -51 9 -117q0 -47 -5.5 -104.5t-10.5 -95t-15 -105.5t-15 -96q-33 -244 -116 -633q-35 -160 -35 -340q0 -82 12 -246q4 -57 7 -85t18.5 -69.5 t42.5 -72.5q49 -59 137 -103q59 -28 103 -28h3q25 0 48 8q57 20 90 96q12 27 12 53q0 33 -25 82q-2 2 -2 4v2q2 3 2 5q54 38 79 38h1h8q29 0 49.5 -29.5t20.5 -66.5q0 -18 -6 -33q-39 -109 -174 -176q-49 -26 -103 -26h-4q-129 0 -254 121q-78 76 -110.5 167t-49 226 t-16.5 254q0 281 72 618q6 27 26.5 107t26.5 125q2 6 2 28.5t6 32.5q8 12 33 26.5t33 22.5q4 4 2 8.5t-7 4.5h-7q-14 6 -15 32q0 14 3 30.5t8.5 32t5.5 19.5q25 121 37 207v39q-18 18 -37 18q-14 0 -29 -10q-47 -33 -76 -61q-201 -195 -370 -434q-31 -47 -201 -267 q-39 -51 -75 -114.5t-77 -150.5t-61 -124q-94 -172 -135 -260q-20 -45 -54 -136t-55 -136q-8 -12 -25.5 -7t-17.5 17q6 156 92 565q61 297 82 574q4 31 -8 43q-16 20 -57 2q-55 -27 -117 -113q-344 -469 -569 -1022q-35 -86 -74 -106q-8 16 -8 39q0 25 12 69q39 123 116 372 t115 372q4 12 16.5 53t18.5 57.5t20.5 44t32.5 49.5q23 27 19 50q-18 0 -29 4q8 14 14.5 31.5t12.5 42t8 34.5q76 254 86 385q2 10 2 29q0 39 -18 59q-23 25 -76 25h-23q-293 -37 -417 -185q-68 -82 -68 -167q0 -4 1 -12.5t1 -12.5q8 -43 31 -61q12 -10 37 -11q10 0 30 4 q35 12 58.5 46t23.5 71v12q4 4 15 5q16 0 28.5 -14.5t12.5 -33.5q0 -29 -25 -59q-45 -61 -106 -82q-23 -8 -54 -8q-47 0 -78 22q-57 43 -57 123z" />
<glyph unicode="N" horiz-adv-x="1347" d="M-600 43q0 125 108 197q16 10 43 10q33 0 62 -18.5t33 -47.5q4 -12 4 -16q-2 -8 -33 -35q-8 6 -23.5 17.5t-21.5 17.5q-47 0 -78 -57q-12 -18 -12 -39q0 -47 55 -64q10 -2 35 -18.5t41 -16.5q18 0 31 11q39 35 49 47q117 139 157 200q166 264 246 420q23 41 67 114t60 99 q33 57 94 172q16 29 17 60q0 10 -4 30q-6 23 -14.5 68t-10.5 51q-14 55 -14 119q0 55 10 127q8 72 82 111q41 22 101 22h5q37 0 58 -2q25 0 39 -29q14 -35 14 -71q0 -39 -16 -70q-20 -39 -55 -110.5t-44 -88.5q-18 -33 -18 -73q0 -4 1 -12.5t1 -12.5q27 -137 43 -262 q6 -47 17.5 -98.5t26.5 -112.5t23.5 -96t30 -154t40 -194.5t42.5 -143.5q57 -154 68 -289q0 -14 4 -29.5t9 -37t7 -37.5q8 10 17.5 23.5t13.5 17.5q57 139 88 258q14 61 61.5 171t61.5 165q39 145 143 553q12 45 19 65l135 406q92 270 119 346q45 131 73 192q94 201 275 345 q10 8 31.5 21t31.5 22q36 24 75 24h3h10q20 -2 56.5 -4t66 -5t56.5 -9q49 -8 98 -47q102 -76 158 -131q88 -88 88 -193q0 -51 -21 -104q-74 -190 -233 -271q-29 -16 -54 -16q-23 0 -43 12q-49 31 -100 78q-12 12 -12 31q0 14 6 29.5t15.5 35t11.5 21.5q41 -6 40 -21 q0 -6 -6 -18q-4 -6 -10 -22.5t-10 -22.5q16 -31 49 -55.5t66 -24.5q35 0 57 37q76 125 90 264q0 2 1 10t1 10q0 27 -12 72q-37 143 -137 234q-57 51 -131 51q-53 0 -101 -21q-307 -125 -430 -510q-12 -39 -43 -121.5t-45 -125.5q-125 -387 -160 -523q-20 -76 -59 -215 t-51 -180l-7.5 -22.5t-7.5 -26.5q-10 -76 -33.5 -155t-59.5 -177t-52 -149q-8 -31 -32.5 -85.5t-28.5 -64.5q-59 -137 -103 -244q-2 -4 -10 -21.5t-13.5 -26.5t-16.5 -18t-23 -9h-7q-35 6 -43 34q-6 16 -41.5 122t-52.5 163q-29 104 -75 299t-64 264q-18 76 -35.5 160 t-36 190.5t-30.5 163.5q-8 -2 -19 -4l-8 -2q-61 -98 -113 -182q-41 -74 -45 -82q-57 -82 -102 -186q-45 -100 -88 -156q-14 -16 -26.5 -38.5t-28 -50.5t-23.5 -44q-104 -133 -139 -172q-61 -72 -156 -115q-57 -24 -104 -24h-4h-11q-55 0 -82 59q-18 43 -18 88zM436 1522 q0 -55 4 -170q1 0 19 -25q61 131 63 139q6 16 6 29q0 41 -36 57q-12 6 -23 7q-33 0 -33 -37z" />
<glyph unicode="O" horiz-adv-x="1298" d="M8 401v15q0 20 1 61t1 62q4 150 29 233q8 31 20.5 87t24.5 101.5t29 83.5q4 8 22.5 55.5t24.5 61t23.5 51t27.5 57t27.5 48.5t35.5 53q84 117 168 174q43 27 82 27q43 0 92 -31q-2 -2 -4 -6l-2 -2h-8q-137 0 -209 -160q-104 -225 -145 -364q-70 -248 -105 -445 q-20 -119 -20 -217q0 -59 4 -88v-11v-13.5v-10.5q-6 -23 -6 -45q0 -25 6 -52.5t18.5 -63t16.5 -50.5q27 -90 125 -114q43 -12 80 -13q66 0 122 33q31 18 78 43q92 47 129 86q23 25 99 117l2 2v2l2 2l2 2l2 2l2 2v2l2 2l2 2q16 20 22 27q100 100 162 274q18 49 57.5 146.5 t57.5 146.5q6 20 13 61.5t12 55.5q-12 0 -29 1t-21 1q-2 0 -6 -2h-2q-61 -16 -90 -16q-55 0 -98 36q-127 109 -144 222q-4 37 -4 51q0 121 92 246q57 80 197 90q25 2 51 -15q80 -39 132.5 -137t52.5 -203q0 -14 -4 -47q-6 -37 -7 -73q0 -29 2 -46q66 8 140.5 52.5 t140.5 50.5q-6 -31 -81 -70t-187 -84q-20 -6 -29 -10q-2 -4 -9 -28.5t-9 -37.5q-8 -41 -21.5 -85t-33 -95t-27.5 -80q-8 -27 -18.5 -51t-27 -53t-25.5 -45t-30.5 -50t-29.5 -46q-43 -72 -143.5 -194t-112.5 -138q-47 -66 -129 -105q-31 -14 -136 -71q-53 -27 -112 -27 q-76 0 -166 37q-76 31 -119 137q-82 199 -82 393zM809 1182q0 -104 106 -219q39 -39 82 -39q10 0 27 4q20 6 58.5 18.5t50.5 16.5q18 115 18 188q0 82 -21 162q-12 49 -51 108q-33 45 -67 45q-14 0 -33 -6q-72 -23 -121 -98.5t-49 -159.5v-20z" />
<glyph unicode="P" horiz-adv-x="1327" d="M37 1475q0 94 48 163.5t128 69.5h4q39 0 58.5 -25.5t19.5 -62.5q0 -39 -19.5 -71.5t-46.5 -32.5q-31 0 -30 24q0 12 23.5 47t23.5 51q0 10 -8.5 19.5t-20.5 9.5q-4 2 -14 2q-57 0 -88 -63.5t-31 -137t38 -126t109 -52.5q31 0 88 17q233 72 439 290q238 248 356 502 q35 59 64 60q49 0 49 -68q0 -27 -7.5 -59.5t-19.5 -70.5t-12 -40q-16 -72 -117 -387q-18 -59 -34.5 -122.5t-37 -156t-30.5 -133.5q6 2 13 3t11 1t6 2q20 23 37 54q51 96 195 315q98 150 199 258q4 4 23.5 25.5t26.5 29t26.5 26.5t30.5 27.5t29.5 23t34 20.5t34 13t36.5 9 q4 0 12.5 1t12.5 1q70 0 123 -45t79.5 -115.5t39 -141t12.5 -138.5q0 -193 -77 -366t-224 -255q-84 -47 -189 -47q-80 0 -119 47q-37 37 -36 91v18q0 94 36 94h2q23 -4 19 -35q-2 -4 -16.5 -27.5t-14.5 -41.5q0 -49 46 -81t106 -32q125 0 205 80q72 68 92 240q16 137 16 311 v59q0 129 -20 221q-23 123 -113 123q-31 0 -63.5 -19.5t-54 -41t-52.5 -56t-41 -44.5q-106 -113 -190 -244q-244 -379 -420 -848q-33 -90 -136.5 -468t-123.5 -441q-12 -41 -50 -41q-23 0 -41 21.5t-18 49.5q0 23 8 50.5t19.5 57.5t15.5 42q35 125 59 217q18 68 125 418 t127 428q31 119 94.5 383t102.5 403q2 6 9 26.5t12.5 39t5.5 35.5q-1 26 -17 40q-2 -2 -99 -147t-112 -160q-43 -43 -89 -79.5t-75.5 -58t-81 -55.5t-75.5 -50q-104 -74 -242 -97q-10 -2 -31 -2q-88 0 -140 66.5t-52 159.5z" />
<glyph unicode="Q" horiz-adv-x="1531" d="M-123 43q0 47 2 72q8 115 26.5 200.5t34 124.5t49.5 105.5t48 101.5q80 184 187.5 349t242.5 304.5t300 220.5t335 81h8q188 0 274 -119t86 -299q0 -172 -65 -322q-51 -117 -92 -160q-49 -49 -101 -49q-27 0 -47 15q-8 6 -8 14q0 16 19.5 42t44 53.5t28.5 33.5 q45 68 82 193.5t37 214.5v16q0 176 -113 262q-57 43 -155 43q-162 0 -295 -98q-45 -33 -78 -59.5t-65.5 -64.5t-48 -54.5t-49.5 -70.5t-43 -69.5t-54 -96.5t-59 -107q-39 -68 -64 -118t-37 -79t-35.5 -91.5t-46.5 -115.5q-18 -45 -37.5 -143.5t-35.5 -116.5q-8 -8 -28 -12 t-26 -11q-6 -14 -7 -18t10.5 -14.5t13.5 -14.5q4 -6 8 -10l6 -6t3 -6t2 -9t1 -16v-18q0 -29 -8 -87.5t-8 -86.5q0 -100 41 -211t108 -185q49 -57 135 -81q47 -12 91 -13q109 0 276 82q2 2 24.5 12.5t44 21.5t45 25.5t38 30t14.5 27.5l-2 2v4q-39 98 -39 221q0 199 90 375 q29 55 82 98t107 43q47 0 88 -39q47 -47 47 -137q0 -72 -33 -184q-41 -131 -123 -238q-2 -4 -11 -18t-16 -25q6 -4 14.5 -12t15.5 -13t13 -7q131 -57 293 -58q119 0 299 31q442 70 664 92q74 6 147 6q137 0 289 -16q240 -25 451 -113q272 -115 440 -299q111 -125 137 -256 q8 -41 8 -88q0 -182 -149 -315q-152 -135 -404 -135q-78 0 -163 16q-186 35 -304 135q-104 92 -104 238q0 147 106 233q76 57 156 58q61 0 100 -39q27 -27 27 -64q0 -18 -4 -26q-14 -43 -61 -44q-10 0 -17 3q12 16 12 36q0 39 -30 60q-23 16 -49 16q-31 0 -58 -16 q-86 -49 -86 -152q0 -74 42 -153.5t98 -124.5q147 -117 323 -117h16q182 0 314.5 139.5t132.5 319.5q0 82 -33 159q-68 166 -375 332q-233 123 -540 154q-78 6 -152 6q-215 0 -645 -78q-86 -16 -281.5 -64t-318.5 -67q-100 -14 -172 -14q-152 0 -252 67q-29 17 -47 27 l-33 -16q-82 -78 -291 -162q-106 -41 -217 -41q-72 0 -135 14q-211 51 -318.5 225.5t-107.5 407.5zM997 0q0 -41 11 -92q16 -76 57 -105q82 72 133 186.5t51 221.5q0 27 -2 39v18q-12 66 -59 66q-18 0 -43 -12q-59 -29 -88 -84q-59 -123 -60 -238z" />
<glyph unicode="R" horiz-adv-x="1411" d="M-98 23q14 37 65 118q35 51 101.5 150.5t87.5 130.5q14 23 45.5 69t50 74.5t42 70.5t40.5 81q51 127 69 354q25 244 64 375q49 164 115 229q45 41 106 41q31 0 53 -14q37 -25 37 -84q0 -51 -22 -123q-20 -74 -53 -156t-56.5 -134t-72 -151.5t-66.5 -138.5 q-49 -109 -76 -204q-68 -248 -76 -392q154 330 290 562.5t315 425.5q176 186 344 243q49 18 96 19q61 0 106 -32t60 -89q10 -45 10 -80q0 -82 -43 -168q-94 -184 -238 -299q-154 -123 -364 -201q-59 -20 -88 -49l8 -16q119 -68 160 -264q0 -2 10 -47t10 -66q0 -23 -5 -35 t-19.5 -28.5t-22.5 -30.5q2 2 8 2q12 0 33 -11.5t25 -17.5q2 -4 10 -76q18 -131 33 -213q45 -270 73 -372q74 -260 191 -334q61 -37 123 -37q139 0 211 152q39 78 39 170q0 86 -48 122q-25 18 -53 19q-51 0 -82 -47q-27 -41 -37 -105q-24 24 -24 63q0 23 10 48q41 90 162 90 q78 0 141 -47q76 -57 76 -152q0 -109 -88 -196q-66 -68 -149 -122t-152 -54q-12 0 -33 4q-229 55 -359 326.5t-147 668.5q-12 274 -131 477q-63 106 -137 109q-23 0 -23 18q0 31 41 31q10 -2 33 -2q68 0 195 53q147 61 278 156q233 172 234 434v12q0 39 -17 109 q-20 84 -90 84q-92 0 -231 -125t-211 -219q-238 -313 -379 -611q-123 -260 -205 -518q-6 -16 -14 -56t-18.5 -71.5t-24.5 -48.5q-23 31 -23 76q0 33 13 86q10 43 48 271.5t38 277.5q0 10 -2 10q-23 4 -48 -33q-43 -61 -110.5 -179t-129 -209t-132.5 -154zM509 1068 q1 -22 3 -30q16 12 30.5 30.5t27 46.5t20.5 47.5t19.5 51t15.5 41.5q66 166 88 283q0 6 5 20.5t5 22.5q0 16 -14 25q-23 -27 -25 -33q-119 -215 -174 -473q-2 -10 -1 -32z" />
<glyph unicode="S" horiz-adv-x="1341" d="M55 231q0 72 35 144q86 168 248 200q29 4 43 5q90 0 145 -68q47 -53 47 -131q0 -80 -49 -129q-29 -25 -51 -25h-6q-6 0 -12 8.5t-11.5 22.5t-9.5 18q10 4 28.5 9t30 8.5t15.5 11.5q20 33 20 74q0 55 -30.5 101t-71.5 50q-2 0 -6 1t-6 1q-33 0 -68 -25.5t-55 -66.5 q-14 -29 -39 -90q-6 -20 -19 -24q-8 -2 -27.5 -4.5t-27.5 -6.5q0 -2 6 -6l15 -12q4 -6 12 -12t12 -13.5t4 -19.5q0 -6 -3 -21.5t-5 -23.5q-4 -53 -4 -82q0 -47 6 -94q0 -8 33 -113q10 -33 33.5 -57.5t41 -34.5t62.5 -31q72 -35 174 -59h6q41 0 140 45q123 55 166 99t84 167 q63 190 63 338v23q-4 8 -4 12q0 6 18 31l25 30q12 16 -14 17h-15q-8 0 -13 6t-8 16t-4 19.5t-3 20.5t-2 15q-41 168 -91 244q-18 31 -47.5 58.5t-70.5 59.5t-60 50q-16 16 -47 44t-55.5 51.5t-44.5 45.5q-61 68 -62 172q0 131 82 246q92 129 211 201q61 37 137 37 q39 0 86 -10q55 -12 89 -60.5t34 -107.5q0 -27 -4 -41q-35 -133 -102 -195q-37 -33 -76 -33q-47 0 -84 47q53 25 62 25h6q6 -2 16 -2q37 0 61 57q23 51 23 99q0 63 -43 120q-20 29 -59 37q-8 2 -25 2q-74 0 -125 -67q-137 -170 -137 -379v-19q0 -137 108 -190 q41 -20 123 -121q18 -23 67.5 -77t81.5 -95t54 -86q53 -109 53 -264q0 -102 -22 -188q-33 -125 -130.5 -260.5t-181.5 -198.5q-6 -4 -59 -32t-59 -30q-66 -37 -158 -37q-39 0 -78 13q-61 20 -90 31.5t-71 39t-72 64.5q-6 8 -42 51t-47.5 58.5t-32 50t-30.5 67.5 q-37 106 -37 178zM227 477q4 -4 6 -4q8 4 11 6q-2 6 -8 8q-2 -2 -4.5 -5t-4.5 -5z" />
<glyph unicode="T" horiz-adv-x="794" d="M-371 1735q0 33 13 69q37 94 117.5 147.5t181.5 53.5q27 0 41 -2q51 -4 57 -37q0 -20 -14 -12h-25q-84 0 -186 -47q-66 -29 -95 -72q-16 -25 -16 -53q0 -47 48 -85t106 -57q75 -22 147 -22h6q123 0 254 55q49 23 147.5 64t147.5 61q14 6 47 15.5t55.5 20.5t34.5 30 q18 29 56 164q8 29 36.5 46t61.5 17q14 0 20 -2q14 -27 15 -55q0 -20 -9.5 -59.5t-9.5 -61.5v-6q6 0 18.5 -2t16.5 -2q408 53 567 53q143 0 252 -19q37 -4 54 -16q41 -27 41 -88v-14q-10 -82 -76 -123q-4 84 -72 143q-70 57 -233 57q-55 0 -134 -4q-203 -8 -419 -57 q-29 -6 -46.5 -23.5t-23.5 -32t-18 -53.5q-41 -135 -137.5 -398t-114.5 -316q-25 -68 -79 -208t-94 -254t-65 -212q-74 -285 -74 -391q0 -29 2 -43q4 -33 13 -45q12 -20 39 -21q4 0 15 1t17 1q14 0 14.5 -6t-48.5 -39q-27 -10 -50 -10q-49 0 -77 41q-25 33 -31 78 q-6 37 -6 71q0 94 59 281q20 63 45 162q23 100 101 268q20 45 36.5 95t37 120t28.5 98q14 43 73.5 227.5t95.5 303.5t64 233q-6 2 -20 2q-10 0 -72 -22q-45 -18 -135 -56l-135 -57q-6 -2 -46 -19.5t-50.5 -21.5t-45 -18.5t-50 -18.5t-47 -14t-52 -13t-48.5 -6t-52 -3h-6 q-96 0 -182.5 61t-86.5 158z" />
<glyph unicode="U" horiz-adv-x="1345" d="M-223 1194q16 37 76 74q111 74 237 200q6 6 49 53.5t62.5 65t59.5 49t80 45t83 13.5h14q23 -4 23 -31q-12 -82 -62 -213q-193 -518 -338 -1106q-43 -172 -43 -266q0 -29 9 -90q10 -82 47 -125q41 -53 96 -53q18 0 38.5 6t38 14t40 24.5t38 29t38 35t35 34.5t34 37.5 t28.5 34t26.5 33t21.5 26.5q199 242 349.5 526.5t303.5 661.5q27 68 47.5 107.5t59.5 85.5t84 63q25 8 34 2q14 -8 15 -33q0 -16 -8 -41q-197 -553 -203 -573q-20 -61 -92 -252t-101 -299q-82 -293 -82 -512q0 -319 175 -496q76 -80 188 -80q106 0 154 88q27 51 26 119v10 q0 188 -100 303q-27 35 -64 43q-2 0 -6 1.5t-6 1.5q-29 0 -53.5 -20.5t-34.5 -49.5q-6 -23 -6 -43q0 -41 18 -88q25 -66 62 -66q8 0 20 6l11.5 11.5t13.5 11.5t14 4q12 0 17.5 -13.5t1.5 -27.5q-6 -27 -30 -44t-52 -17h-4q-45 0 -78 35.5t-45 84.5q-8 37 -9 58q0 113 82 172 q53 41 121 41q70 0 117 -39q100 -76 100 -246q0 -137 -67 -246q-69 -114 -209 -114h-2q-92 0 -180 53q-268 168 -269 641q0 104 15 252q6 63 38.5 210.5t34.5 229.5q-2 -16 -17 -41.5t-39 -58.5t-26 -37q-143 -231 -313 -438q-51 -61 -82 -95t-89 -90.5t-115.5 -84 t-111 -27.5t-98.5 28q-59 37 -88 154q-20 94 -20 203q0 78 10 174q53 563 324 1229q14 35 -2 45q-12 8 -35 -15q-172 -190 -332 -323q-43 -39 -78 -39q-8 0 -20 4z" />
<glyph unicode="V" horiz-adv-x="1103" d="M-879 1106q0 55 15 98q49 141 198.5 209t331.5 68h23l389 -13h10q100 0 150 68q10 16 29.5 64.5t41 79t51.5 30.5h9q63 -10 77 -182q10 -127 11 -234v-184v-80q0 -86 6 -260t6 -260v-18q0 -119 8 -332t19 -215q4 0 14 12t14 27q23 72 52.5 147.5t53 134t64.5 143.5 t62.5 127t73 136t67.5 122.5t75.5 133t69.5 123.5q41 74 136.5 249t148.5 270t141 229t172 235q305 371 656 499q90 33 160 33q78 0 133 -35q86 -55 123.5 -128.5t37.5 -188.5q0 -37 -8 -107q-12 -86 -24.5 -125.5t-48.5 -107.5q-57 -106 -168 -175t-217 -69q-82 0 -154 64 q-45 39 -71.5 111.5t-26.5 148.5q0 84 32.5 138t96.5 54q8 0 37 -4q39 -12 68.5 -58t29.5 -97q0 -25 -6 -45q-51 122 -102 122h-1h-4q-35 0 -55.5 -36.5t-20.5 -88.5q0 -31 7 -57q20 -84 80.5 -136t129.5 -52h7q133 0 214 147.5t81 325.5v45l-3 20v-6q-6 -25 -14 -6l-2 10 q-2 12 -18.5 40t-16.5 42q0 12 10.5 29.5t25.5 36t20 24.5q-10 -2 -40 -16t-42 -14h-2q-14 0 -37 19t-29 24q-47 28 -107 28h-4h-20q-307 0 -661 -487q-6 -8 -65.5 -81t-106 -141.5t-169 -281.5t-286.5 -526q-55 -104 -149.5 -298t-129.5 -261q-131 -260 -307 -590 q-20 25 -35.5 95.5t-21.5 127.5t-12.5 147.5t-6.5 98.5q-6 72 -15 206t-13 179v8q-6 53 -16.5 158.5t-16.5 157t-6 87.5q0 70 39 158q-18 -2 -54 -2q-34 158 -34 241q0 25 4 34l-4.5 -4.5t-4.5 -2.5q-115 -82 -307 -82q-76 0 -223 13q-117 6 -119 6q-274 0 -403 -158 q-53 -68 -53 -147q0 -45 22 -74q29 -39 78 -39q39 0 78 16q2 -18 -11 -47q-27 -45 -79 -45q-55 0 -96.5 53.5t-41.5 143.5z" />
<glyph unicode="W" horiz-adv-x="2062" d="M16 -80q0 111 97 316q184 406 462 901q51 90 60 98q2 2 76 57q16 16 14 27q-2 4 -10 6q-6 2 -8 4q-10 6 -10.5 14.5t7 19.5t18.5 25.5t13 18.5q78 131 127 176q14 12 29 23q29 18 49 18q10 0 16.5 -6t6.5 -16.5t-6.5 -25.5t-17.5 -33.5t-13 -22.5q-23 -39 -113 -204 t-139 -253q-193 -340 -350 -592q-6 -10 -30 -48t-32 -52.5t-30.5 -50t-32 -53t-26.5 -51.5t-26.5 -54.5t-21.5 -50t-18.5 -53t-12.5 -51t-8 -52.5q0 -4 -1 -13.5t-1 -13.5q0 -78 49 -114q35 -25 76 -25q121 0 268 168q176 207 295 514q35 88 93.5 266t92.5 267q23 65 61 65 h1h2q25 0 25 -37q0 -16 -3 -24q-57 -305 -57 -580q0 -14 1 -41t1 -39q2 -154 33 -397q10 -90 59 -155.5t136 -65.5q25 0 36 2q104 16 198.5 99t154.5 187q104 190 145 461q4 35 16 51q6 12 27 31t27 27q14 14 6 20q-2 2 -10 2h-13q-20 0 -26 4t-6 19q0 23 2 39 q14 176 14 319q0 90 -6 176q-6 68 -21.5 193t-19.5 174q-4 35 -6 99.5t-4 84.5q-6 43 2 54q14 14 26 14q35 0 56 -74q39 -90 86 -125q59 -45 182 -53q25 -2 76 -2q211 0 393 89t295 230q121 150 121 301q0 35 -11 72q-18 61 -55 88q-47 35 -123 35h-8q-115 0 -172 -76 q-33 -39 -33 -90v-14q6 -49 27 -70q6 -6 14 -6q10 0 30.5 8t22.5 8q6 4 10.5 1t0.5 -11q-20 -47 -54 -47q-20 0 -59 29q-37 33 -37 86q0 27 12 55q33 80 119 137.5t189 57.5q66 0 118 -23q63 -25 103.5 -78t40.5 -121q0 -12 -4 -36q-16 -82 -97 -197q-145 -203 -367 -348.5 t-448 -181.5q-61 -10 -112 -11q-127 0 -193 60q-10 10 -20 10q-18 0 -19 -45q0 -6 1 -16.5t1 -12.5q8 -94 17 -135q43 -211 43 -412q0 -84 -11 -192q-35 -387 -178 -647q-74 -135 -211 -234.5t-268 -99.5h-16q-104 0 -180 53t-115 147.5t-56.5 198t-17.5 228.5q0 45 4 135 q-18 -29 -87 -143.5t-107 -176.5q-205 -315 -396 -387q-41 -16 -94 -16q-61 0 -102 30q-53 39 -54 136v20zM928 1610q2 0 2 4t2 4q-4 0 -4 -4v-4zM2984 2294q4 -4 8 -4l6 6l-2 4z" />
<glyph unicode="X" horiz-adv-x="1316" d="M-176 -262q115 18 139 24q125 31 227 175q49 68 102.5 144.5t118 170.5t99.5 145q31 43 85 124t99 146.5t86 123.5q72 100 72 184v16q-18 217 -47 348q-27 127 -107 176.5t-239 53.5l-62 -6q0 2 -4 8t-4 10q4 4 13.5 14.5t16.5 15.5t13 5q74 4 111 4q186 0 284 -98 q143 -145 166 -330q0 -8 17 -82q74 88 206 253t156 196q109 135 268 135h11q63 0 112 -49l-55 -9q-41 4 -57 4q-145 0 -234 -127q-45 -66 -169 -241.5t-189 -272.5q-35 -49 -35 -100q-2 -150 -3 -319.5t-2 -376.5t-1 -320q0 -289 268 -448q55 -35 119 -35q115 0 229 111 q25 25 25 81q0 86 -39 113q-10 8 -31 8q-18 0 -51 -8q-10 -2 -21.5 -7t-27.5 -14.5t-29 -15.5q47 127 154 127q53 0 92 -37q76 -68 76 -157q0 -125 -123 -185q-123 -61 -234 -61q-43 0 -75 8q-68 14 -161 58t-130 90q-164 186 -193 485q-4 31 17 51q25 16 18 27q-2 2 -8 2 q-27 4 -37 20q-4 8 -4 33q-4 61 -8 92q-4 49 -4 146q0 49 2 148t2 153l-37 -23q-270 -348 -404 -524q-47 -59 -136 -180t-136 -181q-25 -31 -88 -51t-123 -20q-37 0 -63 10q-4 2 -33 39zM881 1303l2 -5h2l4 2q0 2 -1 4.5t-1 4.5l-6 -2v-4z" />
<glyph unicode="Y" horiz-adv-x="1204" d="M-170 -856q0 4 1 16.5t1 16.5q14 195 92 336q145 262 330 368q33 18 80 19q55 0 102 -26t64 -71q8 -29 8 -47q0 -43 -31 -90q-8 -12 -39 -53q-16 -4 -28 -4q-45 0 -45 37q0 2 1 5t1 5q2 12 28 20q23 2 33 11.5t8 25.5q0 43 -10 66q-31 61 -107 61q-66 0 -116 -45 q-102 -92 -173 -242.5t-87 -287.5q-2 -10 -2 -33q0 -76 33.5 -149.5t84.5 -108.5q63 -45 154 -45q121 0 240 76q104 66 180 172t102 221q27 121 35 326q4 98 9 283.5t9.5 298t17.5 265t36 275.5v26q-20 4 -37 -22q-88 -129 -143 -242q-61 -129 -191 -282 q-152 -190 -278 -191h-15q-59 0 -107 25.5t-61 75.5q-25 94 -24 147v14q0 150 55 375q45 182 156 445q18 43 39 69q31 39 120 78q12 4 17 4q12 -6 12 -22q0 -20 -12 -46q-10 -27 -60.5 -163t-68 -186t-52 -155.5t-54 -187.5t-34.5 -164q-6 -31 -6 -69q0 -156 92 -180 q6 -2 17 -2q39 0 86 32q135 92 213 211q109 176 117 193q29 57 133 232t147 278q4 10 13.5 32.5t14.5 34t14 27.5t20.5 30.5t26 27t42 39t43.5 40.5q18 -25 19 -55q0 -25 -11 -60q-135 -553 -157 -673q-31 -162 -31 -346q0 -68 2 -101q0 -12 1 -36.5t1 -37.5 q0 -111 -16 -335q0 -10 -3 -58.5t-4 -67t-5.5 -62.5t-10.5 -69.5t-15 -61.5t-22.5 -65.5t-29.5 -56.5q-135 -217 -240.5 -291.5t-345.5 -146.5q-25 -6 -66 -6q-133 0 -194 33q-94 47 -105 133q-14 104 -14 137z" />
<glyph unicode="Z" d="M92 145q0 53 23 105q29 68 81 108.5t115 49.5q12 2 39 2q92 0 203 -56q78 -41 98 -41q25 0 51 17q20 12 41 29.5t35.5 29.5t36 38t30.5 37t33.5 44t29.5 40t32 45t29 42q80 115 309 473q4 6 16.5 30.5t24.5 42t22 25.5q25 16 66 17q6 0 8 -2q-29 51 -29 57q0 8 8.5 20.5 t19.5 26.5t13 16q98 152 134 213q-41 0 -121 -16t-109 -20q-139 -14 -241 -15h-37q-152 0 -451 21q-10 2 -31 2q-31 0 -57 -15q-41 -25 -41 -73q0 -14 2 -20.5t11.5 -28t9.5 -31.5q0 -8 -4 -17q-8 -10 -22.5 -7t-25.5 16q-38 44 -38 112q0 98 63 140q36 26 99 26h5h15 l360 -37q70 -6 139 -6q295 0 627 107q18 6 37 6q37 0 45 -31q2 -6 2 -16q0 -27 -24 -64q-31 -45 -45.5 -63.5t-21.5 -22.5t-16.5 -11t-39 -44t-78.5 -105.5t-147.5 -212t-235.5 -348.5q-12 -18 -74.5 -111.5t-86 -127t-74 -104t-91.5 -122t-86 -100.5q4 -6 12.5 -19.5 t12.5 -19.5q74 -88 208 -265t203 -261q8 -10 35 -37t37 -43q10 -18 11 -46t3 -40q0 -6 10.5 0t20.5 16l10 8q6 0 17.5 -10t24 -23.5t16.5 -17.5q254 -223 424 -223q53 0 94 16q78 29 135 110t57 179q0 27 -2 39q-10 59 -43.5 105.5t-76.5 54.5q-4 0 -8.5 1t-8.5 1 q-29 0 -53 -19q-27 -27 -27 -63q0 -10 2 -16q10 -49 80 -76q-33 -57 -84 -66q-2 0 -7 -1t-7 -1q-39 0 -64.5 37t-25.5 84q0 37 18 72q33 62 101 80q25 8 51 8q86 0 146.5 -78t60.5 -178q0 -31 -7 -62q-25 -115 -129 -196q-123 -96 -274 -96q-135 0 -258 75 q-188 119 -350 310q-57 68 -192.5 282.5t-231.5 302.5q-2 6 -8 6q-2 0 -11 -4q-88 -55 -100 -63q-158 -113 -309 -113q-82 0 -139 43q-59 45 -60 137zM133 135q8 -84 80 -84q80 0 264 123q2 2 37 18.5t53.5 32t22.5 35.5q6 23 -35 43q-121 55 -207 55q-129 0 -192 -125 q-23 -41 -23 -88v-10zM1739 1628l12 -6q2 2 4 8t4 10q-10 10 -16 -6q-2 -4 -4 -6zM1835 -391q0 -6 4 -15l4 3l6 4q-2 4 -4 10t-4 8q-2 -2 -4 -5t-2 -5z" />
<glyph unicode="a" horiz-adv-x="1386" d="M35 61q0 37 12 127q43 283 154 517q10 23 41.5 94t52.5 108q41 72 117 185q31 47 73.5 101t69.5 85t87 97.5t77 86.5q23 27 56.5 52.5t52 37t68.5 38t58 30.5q20 10 43 10q53 0 100.5 -42t55.5 -120q0 -2 -1 -9t-1 -11q-4 0 -9 -1t-7 -2t-5 1q-27 117 -131 117 q-57 0 -94 -33q-123 -111 -176 -172q-242 -287 -356 -580q-39 -100 -74 -213q-4 -10 -11 -41.5t-12.5 -47t-16.5 -37t-28 -36.5q14 -16 15 -28q0 -16 -4 -31l-19 -80q-8 -39 -20.5 -109.5t-18.5 -97.5q-4 -25 -4 -32q0 -66 58 -99q37 -27 47 -32q160 117 250 235 q131 172 436 635q117 174 203 369q10 25 18 28q33 18 49 15q39 -16 39 -74q0 -45 -47 -170q-63 -158 -129 -436q-29 -117 -29 -263v-51q0 -281 99 -379q6 -6 30.5 -22.5t43 -33.5t18.5 -32q0 -20 -21 -20q-16 0 -69 35q-109 82 -162 248.5t-53 365.5q0 76 10 164 q4 39 30 180q-6 -4 -14 -7t-12 -6t-6 -5q-33 -70 -115 -179.5t-106 -150.5q-86 -143 -244 -324q-92 -106 -219 -188q-39 -25 -80 -25q-90 0 -144 121q-26 59 -26 132v5z" />
<glyph unicode="p" horiz-adv-x="974" d="M-43 1675q0 129 124 211t265 82q88 0 174 -29q51 -16 66 -55q4 -16 0 -49q-4 -27 -30 -108.5t-26 -127.5q0 -2 1 -10t1 -10q2 23 68 117q172 250 406 295q53 8 79 8q193 0 306 -137q102 -125 102 -357q0 -209 -90 -395t-234 -268q-92 -53 -194 -54q-117 0 -204 72 t-87 172v10q0 57 31 100.5t84 43.5q18 0 39.5 -10.5t21.5 -26.5q0 -14 -26 -29q-78 -39 -78 -129q0 -57 41 -102q57 -59 166 -60h8q176 0 258 111q45 61 65 199q37 221 37 374q0 68 -10 154q0 2 -6 20.5t-4 26.5t18.5 21.5t16.5 27.5q0 12 -14.5 22.5t-33 21t-24.5 16.5 q-8 8 -34 41.5t-50 48.5q-53 31 -133 31h-15q-172 0 -325 -162q-86 -88 -153.5 -204t-86.5 -224q-45 -244 -63 -334q-2 -16 -7.5 -56t-12.5 -70t-17 -52q-4 -8 -27.5 -24.5t-23.5 -33.5q0 -10 13 -27.5t15 -29.5v-12q0 -20 -12 -62.5t-12 -44.5l-31 -147q-39 -182 -104 -547 q-18 -109 -91 -109q-27 0 -26 31v12q51 311 196 953q16 70 69.5 276.5t79.5 351t26 281.5v25q0 88 -34 145t-104 57q-23 0 -59 -10q-113 -35 -182 -123q-33 -41 -33 -78q0 -33 20.5 -49t60.5 -24t52 -15q12 -4 12 -12q2 -8 -8 -18q-57 -57 -121 -58q-41 0 -69 31 q-27 27 -27 94z" />
<glyph unicode="r" horiz-adv-x="1105" d="M-45 1243q0 57 102 123q260 166 467 190q27 4 78 5q168 0 291 -80t123 -219q0 -55 -21 -111q-53 -154 -200 -277q-43 -35 -91.5 -60.5t-111 -51.5t-105.5 -49l-2 -2q12 10 33 10q41 0 91 -42t71 -77q25 -37 43 -75t33.5 -85t23.5 -74.5t22.5 -89t20.5 -81.5 q12 -53 39 -173t49.5 -202t55.5 -168q100 -264 299 -295q10 -2 37 -2q70 0 131 25.5t61 76.5q0 2 -1 6.5t-1 6.5q-6 29 -55 43q-57 14 -58 28q0 12 27 31q27 16 59.5 16t49.5 -16q38 -36 38 -84q0 -37 -24 -80q-29 -49 -66 -73.5t-100 -45.5q-43 -12 -88 -12 q-145 0 -258 113q-111 111 -180 270q-10 25 -16.5 48.5t-12.5 52t-12 49.5l-25 86q-6 43 -24 43q0 4 6 9t8 7t2 4q2 4 2 6t10 17q6 8 -14 20q-23 10 -25 21q-8 23 -15 68.5t-11 58.5q-4 23 -16.5 58.5t-16.5 49.5q-41 147 -88 240q-78 157 -234 157h-2h-6q-25 -47 -24 -51 q-12 -55 -36 -165.5t-36 -166.5q0 -4 -2 -4l-4 -6q-23 -68 -46.5 -149.5t-36.5 -135t-38 -158t-33 -140.5q-4 -23 -14 -31q-8 -8 -21 -8q-31 0 -45 26q-6 16 -6 29q0 18 8 47q33 127 98.5 375t100.5 377q41 154 80 338q8 45 36.5 205.5t53.5 260.5q8 39 45 60q25 12 39 12 q35 0 35 -43q0 -8 -4 -29q-14 -55 -33 -142t-36 -155.5t-42 -140.5q-25 -66 -25 -100q0 -8 5 -29q168 29 303 118t207 226q34 64 34 127q0 100 -75 189q-82 98 -238 98h-8q-117 0 -266 -66q-203 -88 -359 -221q-10 25 -10 39z" />
<glyph unicode="s" d="M-354 1520q0 72 51 122q78 76 256 84q12 0 37.5 1.5t38.5 1.5q80 0 240.5 -8.5t240.5 -8.5q156 0 266 21q29 4 41 16q10 12 14 47q25 184 140 299q119 123 282 123h19q55 0 104 -25.5t72 -70.5q14 -27 14 -68q0 -74 -47 -137q-106 -147 -395 -203q-78 -16 -78 -67 q0 -2 1 -6.5t1 -8.5q6 -74 55.5 -440.5t49.5 -560.5q0 -129 -15 -242q-37 -262 -147 -418q-72 -102 -188.5 -165.5t-235.5 -63.5q-215 0 -307 199q-33 68 -33 149q0 154 106 260q63 63 127 64h6q45 0 84 -30t58 -73q14 -33 14 -59q0 -23 -12 -43q-20 -33 -57 -33 q-21 0 -31 10l-2 2q45 16 45 72q0 23 -15 45q-29 41 -86 41q-16 0 -41 -8q-63 -27 -94 -100q-22 -55 -22 -106q0 -121 76.5 -223t175.5 -122q29 -4 43 -4q78 0 176 51q121 63 180 148q84 119 84 321q0 33 -4 98q-4 68 -15.5 148t-19.5 130t-26.5 152.5t-24.5 135.5 q-4 23 -16.5 71.5t-19.5 90.5t-7 75q0 18 2 28.5t15.5 33t13.5 28.5q0 12 -16.5 17.5t-20.5 11.5q-8 14 -8 49v27v14q0 12 -1.5 38t-1.5 38q0 66 7 133q0 25 -4 31q-8 12 -43 12q-72 -2 -213 -2q-207 0 -459 10q-10 0 -28.5 1t-29.5 1q-141 0 -202 -61q-47 -47 -47 -121 q0 -23 6 -45q10 -33 36.5 -55.5t57.5 -22.5q18 0 33 8q-39 -24 -84 -24h-4q-82 0 -129 57q-39 45 -39 109zM952 1779q0 -5 1 -8.5t3 -8.5t2 -9h35q197 57 230 70q84 31 114 121q10 35 11 61q0 55 -41 109q-30 36 -72 36h-2h-6q-100 0 -162 -69q-43 -45 -68 -103 q-12 -29 -19 -60.5t-14.5 -71.5t-11.5 -60v-7z" />
<glyph unicode="t" horiz-adv-x="1642" d="M111 -59q0 217 90 344q84 121 198 121q33 0 64 -9q51 -12 81.5 -56t30.5 -103q0 -23 -6 -48q-4 -20 -49 -65q-2 -2 -43 27q59 37 60 77q0 23 -9 47q-20 74 -75 74q-20 0 -43 -8q-98 -8 -135 -46t-54 -153q-10 -76 -10 -137q0 -27 4 -80q14 -184 168 -288q100 -68 201 -68 q96 0 204 63q231 135 322 322q47 100 78 252q0 18 4 26q2 6 17.5 12.5t17.5 12.5q0 10 -8.5 19.5t-10.5 13.5t6 41q14 63 40 179t47.5 210t41.5 176q68 293 173 655q-18 14 -23 15q-84 4 -177 25.5t-207 57.5t-175 50q-55 12 -113 12q-47 0 -94 -6q-57 -6 -95 -61.5 t-38 -122.5q0 -39 10 -66q27 -78 80 -78h4q82 0 109 84q6 16 9 37t5 46.5t4 39.5q33 -31 33 -90q0 -43 -21 -82q-53 -90 -141 -90q-80 0 -145 70q-59 61 -60 166q0 63 25.5 115t73.5 73q80 35 159 35q53 0 103 -15q94 -29 270 -75.5t236 -63.5q2 -2 6 -2t6 -2q57 -14 96 -14 q115 0 156 141l9 22.5t10 20.5t15.5 20.5t15.5 17.5l18.5 18.5l16.5 16.5t19.5 16t18.5 15q10 10 34.5 10.5t47.5 -14.5q18 -14 18 -69q0 -4 -1 -12.5t-1 -12.5q-16 -111 -98 -153q-31 -14 -54.5 -34t-43 -49.5t-32 -51t-26.5 -63.5t-19.5 -61.5t-18.5 -71.5t-17 -69 q0 -16 -22.5 -25.5t-26.5 -19.5q-4 -8 6 -18q18 -12 18 -43q0 -18 -8 -51q-6 -33 -17.5 -96.5t-17.5 -92.5q0 -6 -4 -22q-4 -25 -17.5 -108t-19.5 -113.5t-19.5 -104.5t-21.5 -113t-22.5 -103.5t-26.5 -110.5t-29.5 -101t-35.5 -105q-45 -117 -109 -176q-27 -25 -85 -89 t-93 -93q-168 -145 -348 -145q-23 0 -64 4q-14 2 -67.5 9t-78 11t-65.5 20.5t-71 41.5q-168 135 -168 338zM1667 1649q129 70 129 163q0 23 -10 58q-53 -29 -76.5 -80t-42.5 -141z" />
<glyph unicode="w" horiz-adv-x="1880" d="M-96 1061q0 55 26 100q16 29 37 54.5t51.5 51t44 37t57.5 42t50 34.5q31 23 252 168q45 29 70 35q33 12 57 12q27 0 44 -20.5t34 -71.5q98 -317 170 -579q6 -20 21.5 -62.5t25.5 -79.5t14 -67q6 -57 26.5 -159.5t28.5 -178.5q33 63 70 158.5t70 150.5q47 80 114 137 q33 27 70 27q55 0 102 -59q16 -23 154 -222q88 215 102 250q139 377 320 686l190 326q176 299 418 485q244 186 430 187h8q119 0 252 -95q88 -61 88 -182q0 -18 -4 -51q-18 -137 -133 -180q-6 -2 -16 -2q-14 0 -42 8t-38 10v23q6 2 15 6t16.5 8t13.5 8q70 47 70 139 q0 10 -5 39q-14 86 -74.5 143.5t-131.5 57.5q-14 0 -39 -4q-336 -82 -553 -326q-35 -39 -70 -82t-71.5 -96t-58 -86t-65.5 -101.5t-59 -90.5q-242 -371 -481 -1045q-27 -74 -27 -151q0 -68 21 -136q67 -226 67 -382q0 -63 -10 -132q-23 -129 -125 -209q-104 74 -104 226 q0 33 2 49q0 6 43 321q6 57 4 62q-14 37 -61.5 204t-100.5 242q-51 70 -90 70q-41 0 -80 -72q-51 -88 -233 -454q-8 -16 -13 -54q-29 -215 -75 -579q-10 -90 -68 -133q-98 61 -98 166q0 14 4 47q16 113 55 213q72 188 72 344q0 37 -2 55q-18 270 -135 823q-10 51 -31 106.5 t-51.5 126t-42.5 105.5q-16 43 -41 43q-16 0 -39 -16q-29 -20 -86.5 -60t-92 -66t-83 -61.5t-86.5 -68.5q-70 -61 -107 -160q-8 -23 -8 -45q0 -33 18.5 -51.5t48.5 -18.5q6 0 27 5q18 4 107 36q-18 -41 -58.5 -64.5t-79.5 -23.5q-33 0 -55 19q-57 43 -57 131zM545 1516l4 -7 q2 2 10 7q-8 4 -10 6q-2 -4 -4 -6zM684 -311q0 -70 35 -127q20 51 27.5 105t9.5 132t4 103q-76 -106 -76 -213zM1442 -154q0 -108 55 -157q31 68 31 166q0 125 -45 227q-41 -141 -41 -236zM1454 475l2 -6l4 6h-6z" />
<glyph unicode="&#x2000;" horiz-adv-x="1283" />
<glyph unicode="&#x2001;" horiz-adv-x="2566" />
<glyph unicode="&#x2002;" horiz-adv-x="1283" />
<glyph unicode="&#x2003;" horiz-adv-x="2566" />
<glyph unicode="&#x2004;" horiz-adv-x="855" />
<glyph unicode="&#x2005;" horiz-adv-x="641" />
<glyph unicode="&#x2006;" horiz-adv-x="427" />
<glyph unicode="&#x2007;" horiz-adv-x="427" />
<glyph unicode="&#x2008;" horiz-adv-x="320" />
<glyph unicode="&#x2009;" horiz-adv-x="513" />
<glyph unicode="&#x200a;" horiz-adv-x="142" />
<glyph unicode="&#x202f;" horiz-adv-x="513" />
<glyph unicode="&#x205f;" horiz-adv-x="641" />
<glyph unicode="&#x25fc;" horiz-adv-x="1024" d="M0 0z" />
</font>
</defs>
</svg>
