<?xml version="1.0" standalone="no"?>
<!DOCTYPE svg PUBLIC "-//W3C//DTD SVG 1.1//EN" "http://www.w3.org/Graphics/SVG/1.1/DTD/svg11.dtd" >
<svg xmlns="http://www.w3.org/2000/svg" xmlns:xlink="http://www.w3.org/1999/xlink" version="1.1">
<metadata></metadata>
<defs>
<font id="butterscotch_alt_a_to_oRg" horiz-adv-x="1183" >
<font-face units-per-em="2048" ascent="1638" descent="-410" />
<missing-glyph horiz-adv-x="500" />
<glyph horiz-adv-x="0" />
<glyph unicode="&#xd;" horiz-adv-x="681" />
<glyph unicode="0" horiz-adv-x="819" d="M-90 -6q-4 39 0 57q6 29 19.5 86.5t17.5 85.5q29 150 81 427.5t96 502.5t87 422q8 33 72 242q25 84 72.5 240.5t62.5 203.5q31 106 155 106h15q51 0 82.5 -25.5t31.5 -70.5q0 -14 -2 -22q-2 -33 -16 -78q-100 -367 -254 -666q-10 -18 -41 -91t-57 -107q-27 -39 -51 -97 l-19 -43q-4 -4 -21.5 -8t-23.5 -16.5t5 -23.5t11 -13q6 -25 0 -53q-47 -213 -81 -361q-4 -20 -14.5 -74.5t-18.5 -82.5q-6 -20 -27.5 -72.5t-28.5 -83.5q76 117 193 254q51 59 186 133q33 18 76 18q84 0 139 -59q39 -45 39 -92q0 -43 -32 -86q-106 -135 -220 -201 q-25 -12 -73 -45q20 -20 39 -33q127 -80 231 -217q188 -248 272 -391q88 -150 245 -262.5t319 -112.5q68 0 129 21q166 57 166 223q0 150 -160 213q-18 8 -43 8q-37 0 -66.5 -22.5t-40.5 -51.5q-4 -8 -4 -24q0 -18 9.5 -35.5t29 -40.5t21.5 -25q-61 0 -97.5 27t-36.5 70 q0 25 15 51q57 115 178 115h6q158 0 260 -117q51 -59 51 -141q0 -37 -8 -70q-23 -90 -129 -156.5t-217 -91.5q-35 -8 -80 -8q-164 0 -327.5 117.5t-260.5 265.5q-10 16 -51 81.5t-63 100.5q-117 180 -277 340q-25 25 -96 74q-55 31 -104 31q-20 0 -31 -2q-16 -4 -45 -5 l-47 3q-4 0 -12.5 6t-8.5 10t2 8l4 8t5.5 6t6.5 4.5t6 3.5t8 2t8 2t9.5 2t10.5 1q215 41 297 162q66 96 65 167q0 35 -14 64q-20 43 -51 43q-14 0 -39 -12q-176 -94 -258 -230q-4 -6 -20.5 -33.5t-26.5 -39.5q-70 -82 -97 -213q-10 -57 -51 -158q-6 -14 -47 -62 q-10 -10 -25.5 -5t-19.5 22zM330 1438.5q2 -15.5 2 -27.5q25 27 24 29q16 41 80 161.5t78 194.5q4 12 6 16q18 31 33.5 71t24 66.5t22.5 78t21 69.5l36 160q0 8 -4 8q-16 6 -18 4q-25 -14 -39 -31q-106 -164 -131 -260q-8 -37 -135 -518q-2 -6 0 -21.5z" />
<glyph unicode="1" horiz-adv-x="1191" d="M-295 1292q0 84 37 160q27 57 79 101t118 44q33 0 59 -10q39 -14 68.5 -48t33.5 -73v-14q0 -45 -31.5 -81t-78.5 -46q-16 -4 -25 -4q-27 0 -49 14.5t-22 34.5q0 8 2 12q4 16 22.5 20.5t28.5 -9.5q2 -4 5 -10.5t5 -8.5q10 -16 33 -16q14 0 30 8q47 25 48 84q0 53 -45 84 q-29 20 -72 20q-29 0 -57 -12q-53 -27 -87 -92.5t-34 -142.5q0 -45 12 -88q16 -57 59 -101.5t103 -64.5q74 -25 139 -25q78 0 137 31q8 4 15 10q12 23 36 76q156 360 226 497q6 10 36.5 77t48 94.5t51.5 72.5t74 64.5t87 19.5q18 0 28 -2q29 -4 41 -16q27 -20 27 -84 q0 -43 -19 -129q-20 -94 -83 -207q-82 -145 -277 -350q-23 -25 -70 -64t-57 -47q-29 -25 -41 -63q-12 -33 -81.5 -231.5t-92.5 -256.5q-2 -6 -2 -20q8 -14 20 -15q14 0 37 23q14 12 87 84t126.5 101.5t118.5 29.5h2q61 0 93 -33t32 -82q0 -63 -47 -110q-94 -90 -170 -156 q2 -2 4 -6l2 -2q10 -4 64.5 -8t85.5 -27q86 -66 86 -215v-21q0 -35 -4.5 -72.5t-4.5 -45.5q0 -31 29 -33h6q102 0 318 334q29 45 111.5 143t123.5 139q10 10 27 7q4 0 4 -5q0 -6 -7 -18t-16.5 -25.5t-11.5 -15.5q-41 -61 -133 -172t-141 -188q-125 -197 -271 -244 q-6 -2 -18 -2q-27 0 -47.5 18.5t-24.5 42.5q-6 25 -6 62q0 14 2 35.5t2 33.5q0 43 -24 111q-12 33 -62.5 74t-87.5 43q-18 2 -40.5 2t-37 -8.5t-51.5 -40.5q-66 -23 -92 -31q-14 -8 -21 16q4 2 11.5 10.5t11.5 10.5q4 4 44 29.5t58 41.5q76 61 170 174q31 37 31 84 q0 23 -10 50q-8 12 -14 20q-137 -39 -232 -127q-139 -131 -260 -403q-39 -86 -78 -121q-4 -4 -14 -11.5t-14 -9.5q-51 27 -52 64q0 6 4 22q23 82 158 471q18 49 72.5 211t83.5 240q2 6 2 20q-2 0 -7 2.5t-8 -0.5q-59 -18 -122 -18q-90 0 -191 35q-80 29 -126 104.5 t-46 169.5zM424 1184l29 14q49 39 79 84q25 33 72 96.5t70 96.5q16 23 39.5 70.5t36.5 66.5q57 94 81 231q2 10 3 27q0 18 -7 41q-4 0 -13 -1t-13 -3q-43 -20 -76 -76q-63 -98 -127 -236q-25 -55 -78 -167.5t-78 -167.5q-18 -33 -18 -68v-8z" />
<glyph unicode="2" horiz-adv-x="1144" d="M-774 1794q0 172 123 332q45 59 126 120.5t148.5 61.5t102.5 -80q10 -27 10 -53q0 -41 -19 -68q-14 -23 -47 -22q-39 0 -39 24q0 10 9 21q8 8 30.5 14t28.5 15q8 10 8 24q0 20 -18.5 41t-36.5 29q-20 10 -49 10q-49 0 -82 -25q-92 -59 -154.5 -165.5t-62.5 -221.5 q0 -49 12 -94q45 -160 196.5 -248t315.5 -92q2 0 33 6q10 8 20 52q18 70 30.5 109.5t42.5 94t69 84.5q78 59 133 60q25 0 51 -17q45 -33 45 -96q0 -10 -4 -35q-29 -135 -238 -248q-14 -6 -42.5 -15t-37.5 -13q-18 -16 -18 -47v-21q0 -106 39 -184t127 -88q53 -8 80 -8l37 4 l6 12l6 12q18 55 64 206t73 231q4 14 19.5 58t23.5 64.5t23.5 53t31.5 57.5q68 98 138 98q14 0 34 -10q68 -37 68 -160q0 -119 -45 -223q-59 -135 -225 -321q-12 -12 -54 -41q-8 -6 -30.5 -24t-34.5 -28q-47 -195 -139 -479q6 -10 4 -16q-2 -2 6 -2q8 8 47 43t69.5 60.5 t55.5 39.5q100 57 213 57h24q88 0 132.5 -50t44.5 -122q0 -88 -58 -149q-74 -74 -157 -119q-2 0 -19.5 -10t-34 -18.5t-37 -16.5t-30.5 -8q-6 0 -11 4q23 -31 23 -64q0 -8 -2 -27.5t-2 -29.5q0 -25 8 -49q6 -20 14.5 -50t12.5 -45.5t13 -32.5t22 -30q37 -37 77.5 -37 t83.5 37q92 80 266.5 259.5t251.5 273.5q14 14 19 14q16 0 12 -20q0 -12 -14 -31q-90 -115 -247 -290t-236 -241q-47 -39 -125 -63q-35 -10 -54 -10q-31 0 -67 24q-55 39 -90 133q-10 29 -9.5 102t-9.5 121t-49 48q-16 0 -27 -4q-4 0 -22.5 -7.5t-28.5 -7.5t-18 6 q18 33 86 58q16 6 68.5 26.5t78 30.5t71.5 32.5t72.5 43t54.5 50.5t44 65q8 25 8 32q0 43 -41 76t-86 33h-4q-111 0 -224.5 -80t-180.5 -188q-18 -29 -35 -64t-28 -59.5t-27.5 -68.5t-22.5 -60.5t-23.5 -71.5t-21.5 -65.5t-4 -53.5q0 -86 -62 -92h-2q-47 0 -47 49 q0 29 12 66q25 76 70 227q29 94 101.5 373.5t103.5 380.5q2 4 3 14t1 14q-18 10 -25 9q-6 0 -17 -1t-17 -1q-35 0 -70 14q-178 78 -188 332q-12 14 -37 10q-37 -4 -58 -4q-137 0 -274 70.5t-211 189.5q-47 80 -47 174zM-72 1458q0 -2 3 -8t3 -10q16 4 80 35q88 43 158 139 q31 45 31 90q0 28 -10 55q-25 4 -33 4q-41 0 -80 -28q-6 -4 -16.5 -14.5t-16.5 -14.5q-96 -70 -119 -248zM326 1139q0 -2 1 -5.5t3 -7.5t2 -8q39 20 55 43q92 102 113 137q6 10 22 31q66 80 107 279q8 49 8 75q0 8 -1 27t-1 27q0 39 -29 55q-12 6 -24 6q-27 0 -45 -31 l-43 -79q-41 -113 -54 -177q-10 -47 -55 -170q-12 -35 -30.5 -104.5t-28.5 -97.5z" />
<glyph unicode="3" horiz-adv-x="980" d="M-45 -25q0 4 1 13.5t1 13.5q35 289 133 786q12 68 59.5 325t83 426t72.5 300q2 10 11.5 43t14.5 47.5t16 43t21.5 44t28 33.5t37.5 29q33 18 64 18q49 0 78.5 -43t29.5 -100q0 -29 -4 -43q-80 -354 -244 -694q-31 -61 -63.5 -184.5t-68.5 -288t-42 -191.5q0 -2 6 -37 q37 41 70 70q129 125 225 157q23 8 50 9q47 0 80.5 -30t39.5 -81v-14q0 -45 -29.5 -90t-53 -65.5t-70.5 -57.5q-6 -6 -10 -8q-10 -8 -15.5 -16.5t-17.5 -16.5q18 -55 33.5 -119t32 -108t55.5 -121q0 -2 3 -12.5t6 -20.5t5 -10q4 -2 16 -2q29 6 88 77q238 299 328 420 q29 39 49 23q18 -12 -4 -41q-20 -27 -176 -235t-262 -320q-14 -14 -35 -15q-8 0 -61 15q-6 2 -11.5 8t-8.5 12t-6 16.5t-5 14.5q-31 61 -55 184q-8 41 -22.5 85t-22.5 89q-6 35 -19 35q-4 0 -33.5 -16.5t-56.5 -16.5h-8q-33 0 -33 17q0 12 17.5 29.5t37.5 25.5 q133 57 211 172q27 39 27 70q0 16 -10 33q-16 27 -50 26q-41 0 -92 -37q-154 -117 -215 -270q-14 -35 -30.5 -66.5t-23.5 -54t-15 -70.5q-10 -70 -20.5 -110.5t-37 -95t-67.5 -84.5q-33 25 -33 75zM309 1253q6 0 19 -4q10 25 44 109t56 127q41 82 87 247.5t58 198.5 q4 20 5 27q0 39 -35 59q-61 -33 -88 -127q-8 -35 -25.5 -98t-31 -115.5t-23.5 -99.5q-25 -107 -66 -324z" />
<glyph unicode="4" horiz-adv-x="1898" d="M-90 -6q-4 39 0 57q6 29 19.5 86.5t17.5 85.5q29 150 81 427.5t96 502.5t87 422q8 33 72 242q25 84 72.5 240.5t62.5 203.5q31 106 155 106h15q51 0 82.5 -25.5t31.5 -70.5q0 -14 -2 -22q-2 -33 -16 -78q-100 -367 -254 -666q-10 -18 -41 -91t-57 -107q-27 -39 -51 -97 l-19 -43q-4 -4 -21.5 -8t-23.5 -16.5t5 -23.5t11 -13q6 -25 0 -53q-47 -213 -81 -361q-4 -20 -14.5 -74.5t-18.5 -82.5q-6 -20 -27.5 -72.5t-28.5 -83.5q76 117 193 254q51 59 186 133q33 18 76 18q84 0 139 -59q39 -45 39 -92q0 -43 -32 -86q-106 -135 -220 -201 q-25 -12 -73 -45q20 -20 39 -33q127 -80 231 -217q188 -248 272 -391q88 -150 245 -262.5t319 -112.5q68 0 129 21q166 57 166 223q0 150 -160 213q-18 8 -43 8q-37 0 -66.5 -22.5t-40.5 -51.5q-4 -8 -4 -24q0 -18 9.5 -35.5t29 -40.5t21.5 -25q-61 0 -97.5 27t-36.5 70 q0 25 15 51q57 115 178 115h6q158 0 260 -117q51 -59 51 -141q0 -37 -8 -70q-23 -90 -129 -156.5t-217 -91.5q-35 -8 -80 -8q-164 0 -327.5 117.5t-260.5 265.5q-10 16 -51 81.5t-63 100.5q-117 180 -277 340q-25 25 -96 74q-55 31 -104 31q-20 0 -31 -2q-16 -4 -45 -5 l-47 3q-4 0 -12.5 6t-8.5 10t2 8l4 8t5.5 6t6.5 4.5t6 3.5t8 2t8 2t9.5 2t10.5 1q215 41 297 162q66 96 65 167q0 35 -14 64q-20 43 -51 43q-14 0 -39 -12q-176 -94 -258 -230q-4 -6 -20.5 -33.5t-26.5 -39.5q-70 -82 -97 -213q-10 -57 -51 -158q-6 -14 -47 -62 q-10 -10 -25.5 -5t-19.5 22zM330 1438.5q2 -15.5 2 -27.5q25 27 24 29q16 41 80 161.5t78 194.5q4 12 6 16q18 31 33.5 71t24 66.5t22.5 78t21 69.5l36 160q0 8 -4 8q-16 6 -18 4q-25 -14 -39 -31q-106 -164 -131 -260q-8 -37 -135 -518q-2 -6 0 -21.5z" />
<glyph unicode="5" horiz-adv-x="808" d="M14 301q0 127 29 266v-2q35 180 137 473q86 254 172 355q66 80 144 118q25 12 55 13q41 0 72.5 -22.5t31.5 -63.5q0 -14 -2 -21q-8 -25 -14 -35q-117 -285 -287 -467q-104 -115 -119 -135q-20 -31 -38.5 -112.5t-26.5 -100.5q-12 -35 -20.5 -81t-14.5 -66 q-16 -72 -16 -94q0 -6 3 -41t3 -76q0 -20 4 -70q20 -190 125 -190q84 0 210 109.5t274.5 283.5t156.5 182q12 12 26.5 12.5t14.5 -12.5q0 -4 -6 -14q-39 -51 -68 -90t-41 -54.5t-38.5 -48t-75.5 -88.5q-80 -88 -125 -135t-133.5 -112.5t-165.5 -85.5q-37 -10 -62 -11 q-68 0 -115 48.5t-63 127.5q-27 121 -27 240zM268 930q0 -23 4 -25t23 13q27 18 51.5 45.5t53 71.5t41 63.5t44 78t33.5 60.5q2 4 22.5 36t34 54.5t25.5 54t12 54.5q0 18 -12 34q-4 6 -18 11h-9q-25 0 -49 -16.5t-44.5 -47.5t-34 -54.5t-31 -60t-21.5 -45.5 q-27 -51 -94 -235q-31 -74 -31 -92z" />
<glyph unicode="6" horiz-adv-x="575" d="M-16 121q0 143 67 493q16 80 56 306.5t65 343t77 293t118 311.5q37 78 79 100q20 12 43 12q33 0 56.5 -21.5t25.5 -55.5q0 -20 1 -62.5t1 -62.5q0 -223 -36 -383q-25 -106 -114 -275.5t-108 -210.5q-29 -70 -96 -180q-47 -76 -57 -147q-8 -49 -27.5 -148.5t-28.5 -150.5 q-2 -8 -9 -39t-12 -59.5t-5 -53.5q0 -70 47 -80h8h10q29 0 62 19q59 31 113.5 80t129 129.5t132.5 134.5q2 2 19 21.5t30 23.5q6 -27 -13 -53q-184 -248 -378 -392q-86 -61 -160 -61q-88 0 -94 104q-2 23 -2 64zM201 823q49 45 86 133q10 27 38.5 79t34.5 73q33 90 97 238 q12 27 39 190q2 8 10 49t10 64q2 33 2 102v102q0 31 -12 37q-29 0 -41 -39q-8 -25 -17.5 -51t-20.5 -58t-17 -50q-102 -305 -129 -443q-47 -240 -80 -426z" />
<glyph unicode="7" horiz-adv-x="1355" d="M4 317v138q0 389 41 635q47 285 137 415q31 45 93.5 84t117.5 39q61 0 90 -55q12 -25 13 -55q0 -10 -3.5 -31t-3.5 -23q-61 -430 -292 -807q-57 -96 -70 -125q-45 -115 -45 -270q0 -168 51 -295q8 -20 29.5 -38.5t44.5 -18.5q18 0 33 14q45 51 47 53q84 117 174 259 q12 18 46 70t49 79t30.5 72t17.5 86q8 338 39 555q2 8 4 29.5t4 34t7.5 28.5t13.5 29q4 8 22.5 20t22.5 23q6 12 6 20q0 10 -11.5 22.5t-13.5 22.5q-2 8 -2 21q0 14 13 55q23 94 41 151q55 182 131 293q29 43 81 73t101 30q80 0 96 -80q10 -41 10 -101q0 -84 -28.5 -193.5 t-53 -174t-73.5 -178.5q-78 -186 -193 -424q-8 -14 -31.5 -62.5t-32.5 -67t-26.5 -58.5t-25 -66.5t-13.5 -63.5t-6 -71q0 -150 84 -381q18 -51 55 -82q41 -31 76 -31q23 0 51 16q25 14 46.5 33t45 46.5t37 45t39 53t33.5 46.5q178 231 252 303v-4q0 -20 -15.5 -48t-41 -61 t-31.5 -43q-45 -74 -184 -264q-82 -115 -164 -164q-59 -37 -119 -37q-106 0 -166 127q-33 68 -55 189q-2 6 -4 53t-6.5 86t-12.5 43q-14 8 -24 -10q-41 -72 -47 -86q-100 -252 -287 -367q-41 -23 -74 -23q-14 0 -20 3q-41 10 -68 63q-82 166 -82 401zM104 627q0 -4 15 -25 q4 8 13 20.5t13 18.5q82 141 181 389q51 125 118 443q2 6 2 18q0 25 -18 41q-59 -25 -85 -49.5t-56 -79.5q-37 -68 -65.5 -155t-40 -136t-34.5 -162q-29 -137 -43 -323zM707 719q2 0 7 -1t9 -1q27 57 90.5 183t107.5 224.5t76 190.5q12 33 36 95.5t32 84.5q45 131 51 295 q0 43 -16 63q-16 18 -37 19q-29 0 -53.5 -34t-36.5 -64q-125 -369 -180 -600q-39 -166 -84 -414q-2 -14 -2 -41z" />
<glyph unicode="8" horiz-adv-x="909" d="M8 586q0 293 80 575q47 168 109 299q104 221 221 221q45 0 92 -41q31 -29 31 -90q0 -43 -19 -120q-23 -117 -82 -242q-43 -92 -143 -258t-117 -193q-12 -27 -16 -57q-27 -240 -27 -328q0 -51 2 -76q20 -231 72 -339q70 -154 211 -183q35 -8 86 -8q199 0 270 148 q39 78 39 172q0 18 -4 59q-6 43 -28.5 77t-57.5 34q-8 0 -25 -5q-66 -25 -65 -96q0 -21 10 -29q2 -4 16.5 0.5t18.5 4.5q12 0 19.5 -11.5t3.5 -25.5q-8 -33 -46 -33q-20 0 -34 12q-33 27 -33 70q0 68 53 117q53 47 121 47q37 0 65 -15q90 -49 91 -172q0 -4 -1 -12t-1 -12 q-12 -115 -103 -219q-147 -164 -348 -164q-92 0 -172 43q-221 119 -277 629q-12 111 -12 221zM188 817h2q35 37 89 127q197 348 221 547q2 8 2 33q0 100 -43 100q-8 0 -13 -2q-41 -20 -57 -55q-6 -14 -17.5 -39t-20.5 -45.5t-17 -38.5q-57 -147 -92 -309q-52 -224 -54 -318z " />
<glyph unicode="9" horiz-adv-x="710" d="M-1612 1276q0 25 6 49q16 80 85 136.5t163 84.5q119 39 258 39q98 0 228 -24q150 -31 503 -177q154 -63 252 -94q39 -12 84 -22.5t98.5 -21.5t84.5 -17q53 -14 86 -15q12 0 28 5q8 2 18.5 18t20.5 37.5t14 25.5q37 61 58 93q61 98 121 178q123 158 245 223q84 47 160 47 q86 0 105 -78q4 -25 4 -34q0 -20 -9 -54q-39 -174 -171 -320.5t-300 -168.5h-10h-41q-57 -1 -67 -17q-43 -70 -88 -178t-95.5 -247.5t-70.5 -188.5q-104 -250 -105 -381q0 -70 21 -137q23 -70 88 -70q51 0 102 35q57 39 107.5 79t107 98.5t85 90t102 115.5t100.5 115 q18 23 37 10q20 -14 -6 -45q-33 -37 -138.5 -166t-175.5 -195q-145 -143 -297 -180q-27 -8 -63 -8q-66 0 -109 35q-39 29 -61 94q-16 51 -16 119q0 104 51 266q98 311 248 705q2 4 2 12v14q-6 2 -22.5 6t-27.5 7q-242 20 -450 90q-68 23 -212 81t-222 82q-225 74 -441 80 q-8 0 -24.5 1t-24.5 1q-217 0 -321 -102q-51 -51 -62 -104q-4 -25 -4 -35q0 -39 19 -80q27 -59 84 -98t120.5 -39t116.5 38.5t70 98.5q6 20 6 45q0 45 -27 70q-39 29 -35 45q2 20 33 20q35 0 64.5 -26.5t40.5 -63.5q6 -18 6 -39q0 -47 -29 -98q-63 -115 -194 -131 q-10 -2 -31 -2q-119 0 -203 84q-80 80 -80 184zM457 1260q0 -6 2 -11q84 0 174 39t145 96q141 145 168 281q8 33 8 57q0 36 -16 52q-4 4 -16 12q-16 6 -29 6q-18 0 -35 -6q-23 -6 -44 -18.5t-35.5 -23.5t-34 -34.5t-27.5 -35t-27.5 -42t-23.5 -37.5q-18 -29 -55.5 -83 t-66 -98t-48.5 -87q-2 -4 -20.5 -28.5t-18.5 -38.5z" />
<glyph unicode=":" horiz-adv-x="651" d="M-387 1532q0 156 100 280q55 70 138 120t165 50q45 0 82 -14q88 -35 88 -123q0 -90 -75 -174q-39 -45 -105 -45q-31 0 -72 10q-8 2 -49 23q-12 16 -12 31q0 18 14.5 31.5t30.5 13.5q29 0 46.5 -39t49.5 -39q12 0 60 20q41 53 51 127v15q0 49 -27.5 79.5t-70.5 30.5 q-20 0 -39 -6q-131 -39 -221.5 -164t-90.5 -264q0 -39 5 -59q37 -213 241 -297q80 -35 146 -35q27 0 38 2q25 45 35 70q72 195 205 413q106 170 213 228q61 33 119 32q125 0 139 -135q0 -4 1 -12t1 -12q0 -84 -84 -220q-45 -74 -132 -143.5t-162.5 -114.5t-148 -118.5 t-99.5 -159.5q-41 -123 -61.5 -190.5t-42 -185.5t-21.5 -222q0 -45 2 -70q0 -8 3 -54t5 -62.5t11 -52.5t22.5 -50t40 -28.5t61.5 -14.5q47 0 88 29.5t94.5 88t79.5 81.5q29 27 101.5 110.5t125.5 130.5q6 4 7 -6q2 -27 -7 -35q-100 -109 -137 -157q-16 -20 -50 -63.5 t-60.5 -74t-55.5 -55.5q-115 -102 -213 -102q-74 0 -120 59q-53 66 -66 178q-10 82 -10 195q0 283 90 621q2 6 4 18t4 18q-10 8 -22.5 13.5t-21.5 7.5t-24.5 4t-21.5 4q-170 29 -277.5 163t-107.5 300zM272 1141q-2 -12 2 -13q4 0 15 9q14 10 62 46t68.5 51t63.5 49 t67.5 56.5t57.5 54t57.5 61.5t43.5 61q59 96 61 159v19q0 109 -57 108q-35 0 -92 -73q-10 -12 -44 -61.5t-55 -76.5q-143 -199 -213 -350q-35 -78 -37 -100z" />
<glyph unicode=";" horiz-adv-x="557" d="M-948 1444q0 115 88 162q57 31 117 30q102 0 178 -80.5t76 -187.5q0 -53 -19 -96l-12 -19q-10 -20 -10 -28q0 -2 61 -35t130 -70t77 -41q221 -117 328 -116q76 0 112 51q-31 0 -47 -2q10 49 26.5 107.5t31 97t40 106.5t37.5 98q23 63 37 102.5t48 120t67 134t76 111 t94 87t104 29.5q68 0 129 -45q78 -53 78 -201q0 -78 -18 -155q-41 -201 -152 -372t-278 -243q-131 -53 -209 -84q-12 -4 -24.5 -30.5t-21 -52t-17.5 -61.5t-11 -40q-29 -104 -47 -180q-41 -168 -41 -281q0 -82 16 -147q4 -14 9.5 -21.5t17.5 -14.5t20 -16q12 -8 21 -10 q10 0 16 2q68 14 133.5 77t133 157t98.5 125l4 -6q2 -4 5 -11.5t3 -9.5q-6 -29 -37 -78q-4 -8 -59 -86q-4 -6 -43 -52t-43 -52q-78 -104 -203 -129q-10 -2 -29 -2q-82 0 -118.5 96t-36.5 215q0 106 41 306t45 235q4 20 8 59q-23 6 -88.5 24.5t-109.5 34t-85 33.5 q-45 23 -129 70t-129 67q-59 33 -94 33q-2 0 -19.5 -24.5t-35 -52t-19.5 -29.5q-41 -55 -112 -56q-63 0 -88 60q-8 29 -9 39q0 53 54.5 84.5t119.5 42.5q37 4 56 4q18 2 18 53q0 45 -6 76q-16 133 -90 188q-33 27 -82 27q-86 0 -117 -70q-12 -27 -16 -84q0 -10 6 -16 q2 -4 12 -4q27 -6 27 -39q0 -8 -4 -17q-12 -16 -35 -16q-16 0 -25 8q-6 8 -14 29q-12 33 -14 49q-2 10 -2 33zM-762 1104q8 -27 14 -35.5t31 -26.5q70 41 84 74q10 18 12 43q-8 0 -21 1t-20 1q-41 0 -58 -11t-42 -46zM266 975q47 4 51 6q158 63 279 188t182 285 q16 41 39 135t23 174q0 123 -66 146q-47 14 -57 14q-45 0 -101 -55q-23 -23 -44 -55.5t-32.5 -54t-33 -66.5t-29.5 -60q-47 -90 -110.5 -314.5t-81.5 -273.5q-4 -10 -9.5 -32.5t-9.5 -36.5z" />
<glyph unicode="&#x3c;" horiz-adv-x="1421" d="M-23 383q20 25 65.5 93.5t85.5 113.5t85 63q33 16 63 17h7q104 0 104 -76q0 -25 -8 -49q-27 -88 -68 -203l-4 -18q-6 -16 -12 -33q57 25 131 82q53 37 113 37q106 0 137 -97l61 62q82 102 201 182q57 37 127 37h20q82 0 82 -76v-29q0 -74 -43 -278q-10 -45 -10 -82 q0 -27 6 -57q55 16 77 36.5t67 102.5q16 25 52 79t61.5 90t60.5 73q33 35 37 34q2 0 7 5.5t9 10.5t4 3q10 -20 4 -27q-6 -10 -39 -49t-39 -49q-6 -8 -17 -35t-30 -49q-37 -45 -72.5 -104.5t-69.5 -101.5t-91 -83q-43 -33 -80 -33q-6 0 -27 5q-66 23 -65 69q0 12 2 21 q8 74 35 151q39 113 47 223q0 4 1 13.5t1 15.5q0 33 -23 47q-14 8 -28 8q-23 0 -50 -18q-49 -35 -104 -84q-43 -39 -80 -87t-82 -113.5t-67 -96.5q-47 -61 -66 -80q-6 -6 -14.5 -11t-20.5 -9t-16 -6q-16 16 -17 36q0 14 9 35q4 16 18 56t21 63q10 37 10 68q0 23 -6 47 q-23 6 -39 6q-43 0 -86 -33q-98 -78 -144 -121q-35 -35 -96 -101.5t-90 -94.5q-23 -18 -45 -19q-14 0 -21 8q-10 20 13 58q66 94 178 342q10 23 51 174l8 33q0 25 -30 30q-66 -23 -135.5 -117t-112.5 -126q4 14 -6 14q-6 2 -7 2z" />
<glyph unicode="=" horiz-adv-x="2039" d="M-53 45q6 92 24 193q4 18 12.5 70t14.5 84t16.5 74t22.5 71q10 31 29 47q23 23 47 6q25 -14 12 -55q-18 -61 -14 -103q0 -10 4 -14q14 -14 32 14q10 12 47 60.5t53.5 69t48.5 56t61.5 61.5t60.5 46q49 29 76 27q59 -2 47 -78q-12 -111 -35 -297q0 6 12 17.5t26.5 23.5 t16.5 16q49 49 74 72q16 16 51 50t63.5 59.5t55.5 46.5q43 37 100 47q88 12 103 -45q10 -47 -4 -181q-2 -25 -11.5 -98.5t-11.5 -114.5q-10 -205 86 -327q84 -106 204 -171t260 -63t251 92q86 72 121 170q41 113 16 195q-23 74 -85 134t-139 77.5t-153 -35.5 q-74 -53 -90 -143q-14 -61 21 -105q18 -23 40 -24q29 -4 41 18q4 6 8.5 19.5t8.5 19.5q23 27 67 0q10 -4 13 -12v-6q0 -10 -15 -25q-66 -49 -143 -49q-41 -4 -72 20q-41 35 -24 115q25 139 143 225q129 90 283 11q164 -90 192 -234q29 -152 -84 -287q-141 -168 -293 -209 q-133 -35 -258 -2q-416 119 -497 486q-31 131 -9 278q2 16 5.5 73.5t3.5 61.5q2 39 -21.5 45.5t-46.5 -16.5q-68 -55 -139 -143q-59 -74 -93 -120t-71 -114.5t-47 -126.5q-4 -41 -12 -61q-14 -37 -43 -43q-25 -8 -35 14q-2 8 0 21q29 342 78 532q0 2 3 14.5t5 20.5t4 21.5 t2 23.5t-2 19.5t-9 14.5t-18 5q-31 2 -84 -51q-33 -33 -131 -164q-119 -147 -145 -252q-2 -6 -16.5 -84t-28.5 -109q-23 -53 -56 -45q-20 2 -28 27q-6 18 -2 43z" />
<glyph unicode="&#x3e;" horiz-adv-x="2236" d="M-86 78q33 176 125 426q14 45 35 71q25 37 63 33q16 -4 23 -10q20 -20 4 -68q-16 -57 -72 -243q31 6 68 55q145 182 346 272q47 20 67 0q14 -14 19 -47q10 -92 -17 -194q0 -2 -5 -13.5t-9 -21.5t-7 -21.5t-2 -19.5t7 -8q12 0 29 16q135 178 217 236q49 33 106.5 55 t125 21t106.5 -42q33 -37 49 -94t2 -102l-2 -2q0 -4 -2 -4h-12q-16 0 -21 -15q-8 -16 6 -26q0 -2 4 -5t4 -5q12 -12 16.5 -29t3.5 -30t-4 -34.5t-3 -29.5q-14 -123 18 -201q27 -66 62.5 -110t87 -69.5t96.5 -36.5t115 -22q125 -16 219 32t190 159q45 51 70.5 114.5t33 106.5 t17.5 139q2 23 4 35q23 205 -65 348q-8 14 -34 58.5t-36 57.5t-35.5 32.5t-58.5 25.5q-150 27 -244 -84q-45 -53 -59.5 -128.5t6.5 -149.5q23 -70 65 -94q25 -12 52.5 -2t33.5 36q-31 20 -30 62q4 43 37 49q27 4 48 -22.5t19 -59.5q-6 -55 -65 -86q-51 -31 -103 -12 q-86 31 -108 151q-31 160 77 283q70 82 176.5 103.5t206.5 -25.5q90 -43 158 -130t96 -196q57 -205 -28 -418q-68 -168 -219 -288q-168 -129 -338 -150q-131 -14 -277 45q-86 37 -137 74q-59 43 -100 123q-90 168 -84 309q0 33 14 158q2 37 1 75.5t-22.5 67.5t-62.5 25 q-111 -10 -287 -219q-68 -82 -137 -175q-43 -55 -61 -100q-2 -8 -9.5 -29.5t-13.5 -33.5q-16 -39 -43 -45q-14 -4 -30.5 3t-22.5 23q-6 18 2 41q16 88 67.5 244t61.5 194q10 33 -6 43q-8 6 -21 2q-98 -20 -229 -143q-156 -150 -217 -283q-2 -4 -10.5 -20t-11.5 -22.5 t-10 -19.5t-13 -19.5t-14.5 -15.5t-16.5 -13t-18 -6q-7 -4 -15 0q-4 2 -8 10q-16 25 -4 78z" />
<glyph unicode="?" horiz-adv-x="1916" d="M-147 -8q0 8 2 12q18 49 26 62q84 147 127 274q8 25 60 188q4 12 4 23q4 31 20.5 60.5t42.5 29.5q2 0 5 -1t5 -1q20 -4 21 -33q0 -18 -33 -100q-20 -57 -24 -121q0 -47 16 -47q8 0 102.5 92t198.5 196.5t123 121.5q2 2 18.5 14t26.5 18q10 8 22 8q33 0 33 -79 q0 -29 -3 -65t-8 -68.5t-5 -36.5q-20 -209 -21 -314q0 -12 1 -40.5t1 -41.5q0 -14 7.5 -18t15.5 1t14 13q25 41 74 129t80 138.5t80 120t100 122.5q23 18 39 4q45 -35 59 -69q37 -80 37 -105q-2 -18 -15 -28.5t-20 -22.5q6 -4 19.5 -8t19.5 -9t13 -16q8 -14 8 -55v-37 q0 -78 4 -119t30.5 -95t80.5 -85q59 -33 133 -33q86 0 176 40t149 102q131 135 131 317v12q0 98 -61.5 173t-159.5 85h-12q-70 0 -100 -49q-16 -25 -17 -59q0 -47 31 -109q27 -39 49 -39h6q8 2 25.5 14.5t29.5 8.5q12 -2 15.5 -16.5t-2.5 -24.5q-14 -20 -45 -20 q-59 0 -106.5 37.5t-55.5 97.5q-2 8 -2 22q0 53 32.5 99.5t84.5 64.5q25 10 63 10q98 0 182 -73q115 -102 115 -252q0 -55 -18 -105q-37 -104 -131 -213q-92 -106 -211 -147q-70 -25 -152 -25q-174 0 -291 105q-111 102 -123 358v10q0 88 -32 90q-4 0 -12.5 -3t-10.5 -3 q-43 -23 -84 -78q-80 -102 -174 -274q0 -2 -16.5 -30.5t-23.5 -39t-21.5 -29t-28.5 -26.5q-10 -8 -25 -8q-51 0 -84 61q-10 23 -10 70q2 45 8 92t17.5 111.5t15.5 91.5q0 6 6 40t11.5 69.5t5.5 56.5q0 18 -5 20q-10 4 -28 0q-45 -12 -87 -39.5t-66.5 -52.5t-65.5 -70 q-90 -102 -195 -229q-47 -57 -70 -129q-12 -39 -22 -62.5t-33.5 -47t-56.5 -23.5h-10q-18 0 -31.5 11t-13.5 28z" />
<glyph unicode="@" horiz-adv-x="1916" d="M-113 59q0 10 4 35q39 178 97 400q31 121 73 147q29 12 45 -4q16 -14 13 -53q-7 -68 -21 -131h2q23 18 65 56t62 58q8 8 27.5 26.5t32 30t31 22.5t36.5 13q2 0 7.5 1.5t7.5 1.5q57 0 90 -56q31 -51 30 -121v-49q0 -51 9 -76v2q0 8 13 27t31.5 42.5t20.5 25.5 q41 57 80 102q106 119 191 141q16 4 22 5q31 0 53 -37q43 -80 54 -199q0 -4 5 -31.5t5 -42.5q0 -12 -4 -24q-2 -8 -25.5 -24.5t-23.5 -24.5q0 -6 10 -7q20 -6 25.5 -7t12.5 -7t8 -11t5 -22q14 -84 30.5 -144.5t47.5 -130t85 -115.5t128 -66q66 -16 131 -17q125 0 233.5 49.5 t143.5 135.5q14 35 14 75q0 27 -6 56q-25 147 -135 221q-70 49 -152 49q-51 0 -100 -23q-45 -20 -74 -60t-29 -87q0 -45 28 -81t67 -36q18 0 34 8q18 -14 -6 -28q-18 -12 -53 -13q-31 0 -47 9q-66 33 -66 120q0 41 21 89q29 63 85 106t124 51q10 2 35 2q70 0 155 -35 q133 -53 185 -135q35 -59 34 -129q0 -78 -39.5 -150.5t-103.5 -113.5q-66 -41 -121 -68q-117 -51 -241 -51q-135 0 -254 58.5t-193 158.5q-100 135 -100 387q0 53 4 160q2 18 4 52t2 51q-18 12 -37 12q-82 0 -211 -193q-100 -147 -166 -313q-27 -63 -59 -63q-16 35 -17 84 q0 23 5 59q10 145 14 326q0 39 -25 53q-16 6 -49 -6q-51 -27 -114 -107q-49 -63 -79 -105t-60.5 -105.5t-39.5 -123.5q-14 -80 -28 -102q-18 -29 -54 -29q-27 0 -36 17q-8 10 -9 32z" />
<glyph unicode="A" horiz-adv-x="1114" d="M-70 129q0 18 2 27q23 207 134 379q135 209 313 253q27 8 59 9q20 0 31 -2q18 -2 30.5 -26t14.5 -44v-14q0 -70 -61 -140q-10 -12 -35 -16q-18 12 -10 27q4 6 19 30.5t24.5 45t9.5 38.5q0 59 -45 60q-10 0 -15 -2q-94 -12 -155 -95q-84 -104 -121 -266q-37 -154 -37 -203 q0 -51 18 -92q20 -39 52 -39q20 0 39 15q33 20 61.5 43.5t58 57.5t47 52.5t50 66.5t40 57t45.5 69.5t40 62.5q31 49 57 68q20 10 39 10q29 0 43 -18q12 -14 12 -39q0 -16 -8 -45q-10 -37 -51 -145.5t-53 -172.5q-6 -29 -7 -61q0 -31 9 -55q23 -66 82 -76h8q35 0 90 51 q35 35 123 140.5t196 240.5l109 133h9t12.5 -8t-9.5 -31q-14 -20 -51 -65q-6 -8 -94 -132t-172 -228.5t-121 -121.5q-8 -4 -22.5 -12t-26 -14t-21.5 -8q-20 -4 -33 -5q-63 0 -114 58.5t-62 124.5q-12 74 -12 116q0 14 4 48q10 37 10 71v10h-6q-8 0 -16 -6t-16.5 -17 t-14.5 -20.5t-12 -21.5t-8 -14q-39 -61 -154 -168q-84 -80 -168 -80q-4 0 -10 1t-8 1q-43 4 -68 16q-74 29 -74 121z" />
<glyph unicode="B" horiz-adv-x="1046" d="M90 561q129 213 311 258q20 6 43 6q18 0 27 -4q20 -8 34.5 -38.5t14.5 -61.5q0 -35 -20 -53q-8 -8 -17 -9q-23 0 -37 56q-6 51 -40 51q-12 0 -27 -6q-125 -49 -193 -166q-47 -84 -65 -227q-10 -98 -10 -121q0 -6 1 -18.5t1 -18.5q8 -145 59 -146q8 0 21 7 q41 14 73.5 42.5t60 73.5t42 74t39.5 86q2 4 17 48t29.5 64.5t39.5 30.5q49 18 67 19q16 0 25 -8q16 -16 10 -54q-8 -35 -31.5 -107.5t-37 -129.5t-13.5 -111v-18v-33q0 -86 21 -102q10 -8 26 -8q31 0 76 24.5t70 50.5q119 125 204 236q115 152 162 209q35 51 53 51 q6 0 7 -6l-3 -6q-8 -41 -20 -58q-53 -61 -145.5 -191t-176.5 -212q-4 -4 -20 -20.5t-23.5 -22.5t-23.5 -21.5t-25.5 -22.5t-26 -19.5t-28.5 -17.5t-27.5 -12.5t-30 -10.5t-28.5 -3h-10q-94 0 -121 97q-12 51 -12 137q0 123 2 125q-12 -6 -15 -13q-45 -117 -170 -190 q-37 -25 -75 -25q-55 0 -93 47q-67 81 -67 194q0 146 96 304z" />
<glyph unicode="C" horiz-adv-x="3313" d="M-94 80v14q0 158 82 304.5t217 240.5q84 61 157 61q31 0 54 -10q45 -18 76.5 -67.5t37.5 -100.5q0 -12 -4 -21t-14 -7q-8 0 -12 14q0 4 1 12t1 15q0 41 -38 68.5t-81 27.5q-10 0 -27 -4q-72 -20 -176 -156q-61 -82 -100 -188q-41 -115 -41 -150q0 -33 16 -43 q16 -12 43 -8q61 4 114.5 40t86.5 79t80 95t92 79q31 20 70 20q33 0 32 -26q0 -14 -10 -31q-76 -104 -108 -236q-8 -33 -9 -51q0 -39 23 -59q20 -20 57 -21q16 0 49 9q72 20 252 122q72 41 218.5 131.5t265.5 155t233 109.5q143 53 281 71q66 8 102 9q109 0 195 -39 q72 -33 120 -96.5t50 -137.5q92 14 200 14q256 0 492 -92q166 -63 242 -155q73 -87 73 -190q0 -44 -12 -81q-41 -117 -184 -166q-43 -14 -74 -14q-23 0 -33 4q-61 23 -61 76q0 25 16.5 40t38.5 15q12 0 27 -10q6 -6 18 -22q14 -14 35 -15q25 0 51.5 19.5t38.5 44.5 q27 51 27 110q0 137 -109 240q-121 113 -352 145q-104 16 -236 17q-70 0 -137 -6q-41 -4 -59 -15q-16 -12 -43 -59q-104 -205 -295 -348q-90 -68 -170 -68q-47 0 -82 29q-47 35 -47 108q0 18 2 27q10 61 70 129q121 135 423 207q6 23 7 43q0 53 -34 102t-83 74 q-66 33 -148 33q-41 0 -114 -13q-172 -33 -341 -119.5t-372 -222t-309 -192.5q-135 -74 -205 -84q-4 0 -13.5 -1t-13.5 -1q-82 0 -129 47q-53 55 -53 190v7q-170 -121 -272 -164q-41 -18 -78 -19q-31 0 -53 17q-35 29 -35 94zM1729 -72q0 -27 8 -49q14 -37 51 -37h8 q86 12 148 68q129 117 196 274q12 31 4 45q-8 6 -43 2q-129 -20 -276 -137q-96 -82 -96 -166z" />
<glyph unicode="D" horiz-adv-x="2396" d="M-102 139q0 8 10 90q8 59 90 201q96 166 231 213q35 10 68 10q121 0 174 -86q8 -12 8 -20q0 -18 -14 -20.5t-23 10.5q-2 2 -2 4q-2 4 -6 10t-8 10q-8 8 -31 17q-27 8 -57 8q-45 0 -94 -19q-66 -23 -121 -123q-80 -147 -80 -239v-21q0 -86 37 -96q4 -2 14 -2q55 0 117 51 q150 127 274 264q12 12 29.5 41t33 41.5t44.5 12.5q35 4 53 -23q6 -10 6 -16q0 -10 -6 -21.5t-16.5 -26t-14.5 -20.5q-8 -16 -32.5 -69.5t-40.5 -81.5q-18 -31 -19 -74q0 -55 29 -103q27 -49 90 -49q49 0 127 35q41 16 179 78.5t230.5 99.5t184.5 66q252 78 450 78 q86 0 185 -17q172 -31 248 -116q53 -57 77 -150q18 -63 19 -111q0 -33 -10 -73q-18 -61 -68.5 -106.5t-114.5 -63.5q-45 -10 -82 -11q-127 0 -174 86q-16 27 -16 58q0 39 25 63q18 23 53 23q41 0 57 -31q-23 -2 -36 -22.5t-13 -44.5q0 -14 6 -27q25 -49 88 -49q4 0 9.5 1 t7.5 1q51 8 100 61q80 86 80 199q0 45 -15 82q-35 92 -130 142t-214 61q-53 4 -79 4q-219 0 -494 -103q-104 -39 -291.5 -122t-249.5 -107q-109 -43 -182 -43q-68 0 -115 33q-73 52 -73 171q0 48 8 81q-39 -25 -106.5 -84.5t-80.5 -69.5q-111 -92 -211 -92h-6 q-37 0 -66.5 24.5t-41.5 63.5q-8 25 -8 59z" />
<glyph unicode="E" horiz-adv-x="1548" d="M-84 133q0 78 39 174q92 236 268 352q57 37 108.5 37t69.5 -41q16 -31 -6 -43q-2 -2 -8 -2q-10 0 -26.5 13.5t-20.5 15.5q-12 6 -23 6q-27 0 -67 -33q-102 -82 -139 -151q-43 -78 -43 -195q0 -37 8 -110q12 -61 43 -70q16 -4 45 8q102 57 205 250q47 90 86 119 q20 14 59 31q31 12 47 6q23 -12 23 -47q0 -18 -19 -80q-2 -4 -5 -11.5t-3 -10.5t-3 -7t-5 -5l-6 -3t-9.5 -2h-11.5q-2 -10 1 -26.5t3 -25t-5 -22.5t-5 -20q-8 -33 -8 -74q0 -92 47 -168t131 -104q61 -20 135 -21q127 0 252 55q172 78 286 243t114 349v21q0 111 -58.5 211 t-152.5 114q-8 2 -23 2q-74 0 -158 -71q-71 -60 -71 -115q0 -7 4 -29q5 -27 30 -37h7h4q10 0 34.5 8.5t34.5 8.5q16 0 31 -15q8 -10 8 -22q0 -16 -16.5 -31.5t-30.5 -19.5q-16 -4 -26 -4q-72 0 -107 67q-16 33 -16 68q0 45 22 86q33 66 114 115t167 49q14 0 47 -4 q63 -12 115.5 -57.5t78.5 -108.5q31 -70 31 -162q0 -100 -39 -223q-59 -186 -182 -328.5t-293 -187.5q-113 -31 -211 -31q-125 0 -221 55q-166 96 -209 291q-4 29 -6 41q-16 -10 -127 -110.5t-193 -118.5q-20 -4 -34 -5q-35 0 -58 17q-27 16 -43 65q-10 31 -10 74z" />
<glyph unicode="F" horiz-adv-x="1421" d="M-63 143q0 6 1 18.5t1 18.5q25 190 137 342q78 106 174 148q41 18 84 18q60 0 80 -39q6 -12 6 -33q0 -27 -12 -32q-10 -6 -15 -6q-10 0 -20.5 22.5t-20.5 26.5q-14 6 -30 6q-33 0 -62 -15q-74 -37 -116 -138t-42 -220q0 -63 13 -123q4 -25 14 -35q12 -10 29 -10 q29 0 65 43q39 47 119 143.5t119 145.5q35 39 53 47q14 6 29 6q39 0 39 -47q0 -6 -4 -27q-43 -143 -89 -266q-25 -66 -24 -96v-14q0 -45 38 -75t87 -30q18 0 26 2q274 57 487.5 308t213.5 528q0 72 -14 131q-27 115 -103 174t-170 59q-27 0 -41 -2q-90 -10 -155.5 -90 t-65.5 -172q0 -53 43 -94t100 -41h17q16 0 8 18q-6 20 -6 41q0 16 2 23q12 35 41 35q27 0 51.5 -24.5t24.5 -51.5q0 -16 -19 -39q-47 -47 -125 -47t-137 44t-59 116q0 125 80.5 223t205.5 113q14 2 47 2q193 0 301 -111q90 -92 91 -258q0 -182 -103 -408q-63 -135 -233 -290 q-111 -98 -326 -191q-106 -43 -201 -43q-90 0 -149.5 43t-59.5 139q0 41 23 118t27 99q-43 -27 -128 -132t-163 -128q-20 -6 -45 -6q-96 0 -129 74q-10 23 -10 59z" />
<glyph unicode="G" horiz-adv-x="1511" d="M-80 248q0 174 104.5 297t254.5 166q41 12 61 12h10l33 -4q86 -18 86 -105q0 -23 -4 -26q-8 -12 -16 -4q-2 2 -9 22q-2 63 -55 64q-41 0 -100.5 -37t-81.5 -68q-102 -127 -152 -305q-16 -74 -16 -113v-20q4 -43 28.5 -69.5t63.5 -26.5q20 0 35 6q47 20 94 90 q53 86 129 233q35 63 74 64h6q8 -2 15 -7t10.5 -11.5t5.5 -16.5t2 -16t1 -19.5t1 -17.5q8 -193 112 -391q51 -96 166 -158q111 -63 226 -63q250 0 342 282q38 120 38 210q0 226 -192 310q-61 27 -105 27q-129 0 -200 -143q-33 -66 -33 -131q0 -76 45 -128.5t111 -52.5h10 q0 33 13.5 58.5t37.5 25.5q14 0 27.5 -14t13.5 -31q0 -43 -41 -69.5t-90 -26.5q-90 0 -144.5 66.5t-54.5 158.5q0 68 37 152q43 90 122 152.5t181 62.5q109 0 200 -72t124 -184q16 -55 16 -129q0 -135 -59 -271q-61 -145 -172 -226t-260 -81q-6 0 -18.5 1t-20.5 1 q-139 10 -281 117q-233 178 -280 408q-31 -12 -76 -88q-92 -145 -191 -146q-92 0 -147 113q-37 80 -37 172z" />
<glyph unicode="H" horiz-adv-x="1746" d="M-174 131q0 70 18 131q47 168 176.5 301t292.5 146h17q100 0 153 -62q25 -29 25 -59q0 -16 -7 -27.5t-20 -5.5q-8 4 -8 33q-2 55 -80 55q-31 0 -63 -8q-61 -12 -154 -96q-229 -205 -242 -443v-10q0 -96 58 -123q25 -8 37 -8q33 0 67 20q31 18 59.5 51t41 52.5t39.5 66.5 q10 16 31.5 49t29.5 50q2 6 11 23.5t13.5 24.5t13.5 21.5t16 22.5t18.5 17t23.5 16q16 8 43 8q35 0 43 -17q2 -2 2 -12q0 -12 -7 -30.5t-16 -38t-12 -25.5q-18 -74 -18 -125q0 -72 33 -127q72 -123 176 -154q77 -24 159 -24h7q115 0 231 39q322 104 494 397v2q47 78 84 178 q43 123 43 246q0 106 -33 197q-37 102 -122 157.5t-189 55.5q-78 0 -152 -31q-78 -31 -143 -133q-68 -104 -68 -230q0 -109 51 -202q47 -90 152 -90q29 0 45 4q-4 16 -4 26q0 43 31 64q14 12 36.5 12t38 -18.5t15.5 -42.5q0 -29 -19 -47q-49 -51 -133 -52q-51 0 -92 15 q-82 31 -123 75q-51 55 -69 152q-8 39 -9 84q0 137 74 258t195 178q80 39 174 39q121 0 223 -59q193 -102 209 -373q2 -18 2 -53q0 -168 -66 -301q-129 -262 -378.5 -431t-532.5 -169q-27 0 -80 4q-133 12 -231.5 87t-143.5 199q-8 29 -16 54q-25 -33 -45 -64 q-74 -109 -162 -141q-33 -12 -67 -12q-53 0 -99.5 29.5t-70.5 78.5q-27 51 -27 125z" />
<glyph unicode="I" horiz-adv-x="1024" d="M39 723q0 154 43 330q129 514 356 790q37 45 115 127q41 41 78 41q33 0 33 -45v-24q0 -59 -7 -115q-2 -20 -9 -57t-9 -56q-4 -43 -15.5 -89t-28.5 -104.5t-26 -86.5q-88 -338 -284 -721q-18 -35 -55 -110t-56 -109q-31 -61 -31 -140q0 -47 11 -102q2 -12 2 -29.5t3 -30 t11 -26.5q41 -63 59 -84q41 -45 88 -45q49 0 82 45q82 109 136 219q4 8 26.5 56.5t31.5 71t19.5 61t10.5 67.5q0 39 -28 69.5t-60 30.5q-39 0 -62 -43q-8 -16 -8 -30q0 -20 14 -45q-2 -14 -16 -19.5t-29 0.5q-26 17 -26 55q0 48 24 74q8 10 20.5 17.5t28 14.5t23.5 11 q6 4 15 10.5t13.5 9.5t13.5 6t19 3h6q43 0 91.5 -38t68.5 -81q10 -23 18.5 -68t10.5 -53q18 -84 39 -143q20 -61 55 -62q33 0 119 72q25 18 35 39t30 39q10 8 28.5 39t36 53.5t32.5 22.5h2q6 0 6 -9q0 -10 -13.5 -30.5t-31 -42t-19.5 -25.5q-12 -18 -25.5 -45t-35.5 -55 q-86 -109 -152 -109q-14 0 -32 6q-45 10 -76 70q-4 8 -8.5 37t-11.5 47t-23 18q-6 -2 -15.5 -20t-15.5 -23q-4 -2 -19.5 -3t-21.5 -11q-6 -6 -1 -17.5t5 -13.5q-2 -20 -16 -45q-37 -66 -53 -98q-57 -113 -228 -184q-18 -8 -47 -8q-82 0 -139 69q-45 59 -72 172 q-35 135 -51 438q-2 20 -2 64zM141 593q-2 -13 1 -21.5t14 -16.5q72 139 125 233q57 100 84 191q8 25 29.5 68t27.5 61q6 14 22.5 50t23.5 55.5t15.5 51t8.5 58.5q0 12 22 82q55 160 68 217q10 49 34 233q0 3 -6 54q-70 -66 -114 -148q-129 -233 -197 -461 q-106 -356 -149 -645q0 -2 -3.5 -19.5t-3.5 -27.5q0 -2 -2 -15z" />
<glyph unicode="J" horiz-adv-x="954" d="M-184 1257q0 109 88 197q66 72 112 72q23 0 39 -15q41 -23 41 -94q0 -66 -30 -96q-2 -2 -9.5 -8t-11.5 -10q-27 -10 -33 -11q-14 0 -26 21q-4 8 -4 16q0 16 10 29.5t26 13.5l5 2q18 0 18 58q0 55 -33 55h-6q-29 0 -74 -57q-41 -53 -41 -130q0 -39 13 -79 q49 -174 186 -236q131 440 334 688q35 43 108 121q23 23 41 33q14 8 27 8q29 0 29 -39q0 -61 -11 -139q-2 -14 -11 -51t-11 -56q0 -2 -2 -2q-6 -41 -16.5 -82t-31 -101t-26.5 -81q-66 -221 -188 -319q-55 -47 -99 -58q-18 -6 -32 -4h-4q-57 -213 -89 -364q-6 -43 -6 -45v-17 q0 -14 1 -47t1 -47q0 -31 -2 -45q-4 -45 -4 -68q0 -74 23 -178q23 -92 30 -102q35 -41 76 -41q43 0 76 43q82 109 129 209q84 176 90 239v15q0 47 -34.5 73.5t-77.5 32.5q-10 2 -33 2q-80 0 -109 -49q-2 -4 -9 -22.5t-14.5 -34t-13.5 -15.5h-2q-6 0 -10 13q0 6 4 14 q14 45 21 57q29 55 118 74q37 6 76 6q49 0 82 -10q104 -29 105 -188q0 -78 -29 -146q-25 -53 -25 -84q0 -20 8 -37q18 -23 50 -22q23 0 55 16q43 20 133 111q74 74 98 127q12 27 43.5 68.5t49.5 41.5h2q6 0 6 -10t-10.5 -30.5t-22.5 -41t-14 -24.5q-33 -51 -107 -146 q-100 -127 -207 -159q-20 -6 -39 -6q-49 0 -94 59q-20 -20 -62 -62.5t-65.5 -65t-62.5 -51t-78 -44.5q-16 -8 -43 -8q-74 0 -119 65q-33 49 -53 166q-25 131 -25 418v30q0 45 6 93q0 8 10.5 38.5t20.5 30.5q2 0 2 -1t2 -1q-20 18 -20 35q0 6 2 13t4 17.5t4 18.5q4 16 12 50 t13 51q4 10 8 26q-39 12 -76 39q-145 102 -172 209q-10 37 -10 65zM203 938q16 0 29.5 3t25.5 11.5t19.5 13.5t20.5 17t17 16q82 74 129 197q8 20 23.5 64.5t24.5 66.5q35 96 45 135q12 49 41 224q2 6 -3 49q-61 -58 -108 -140q-133 -242 -197 -440q-33 -98 -67 -217z" />
<glyph unicode="K" horiz-adv-x="2828" d="M-14 578q0 416 157.5 802.5t401.5 601.5q31 31 63 31q20 0 29 -14q6 -10 6 -37v-14q0 -180 -65 -435q-115 -446 -349 -905q-92 -184 -114 -260q-23 -74 -23 -143q0 -76 27 -137q49 -115 145 -129q2 0 8.5 -1t10.5 -1q72 0 153 65q131 98 133 143q0 6 -14 25 q-55 63 -55 219v29q0 55 19.5 104t64.5 49q2 0 7 -1t7 -1q80 -14 104 -151q2 -8 3 -25q0 -25 -10.5 -78t-10.5 -79q0 -35 10 -56q10 -30 53 -30h3h8q41 0 84 23.5t62.5 39.5t68.5 69.5t53 57.5q205 213 309 317q244 236 463 263q4 0 13.5 1t13.5 1q156 0 246 -168 q16 -35 45 -41q82 33 98 41q141 75 377 75h6h6q129 0 223 -61t117 -184q6 -35 6 -68q0 -117 -70 -194q-74 -80 -143 -99q-25 -4 -37 -4q-49 0 -86 25.5t-45 72.5q0 35 34 71t69 36q16 0 29.5 -12.5t13.5 -26.5q0 -23 -43 -47q-27 -16 -27 -37q0 -12 14 -25q30 -24 65 -24h3 q41 0 79 25.5t56 58.5q37 57 37 119q0 78 -51 149.5t-127 110.5q-92 47 -215 47q-102 0 -242 -33l-135 -61q-6 -23 -6 -41q0 -16 4 -45q4 -45 4 -70q0 -129 -47 -245.5t-139 -184.5q-150 -104 -246 -105q-76 0 -92 72q-10 45 -11 78q0 82 39 162t111 152.5t130 119.5 t138 103q16 12 27 18q-37 104 -125 166q-32 22 -69 22h-3h-8q-109 -14 -190 -49q-98 -41 -192.5 -118.5t-160 -151.5t-152.5 -170t-155 -156q-4 -4 -28.5 -25.5t-31.5 -26.5t-29 -21.5t-34 -22.5t-30.5 -15.5t-36 -12.5t-35.5 -3q-31 0 -66 13q-6 2 -16 2q-41 0 -70 -37 q-180 -211 -350 -211q-143 0 -205 215q-67 228 -67 490v8zM92 514q-2 -14 1 -22.5t13 -16.5q23 41 67 123t67 123q57 102 88 201q8 27 30.5 72.5t30.5 64.5q6 14 29.5 66.5t34 87t10.5 73.5q0 10 22 86q63 199 72 230q2 8 37 247q0 4 -6 56q-68 -61 -121 -156 q-143 -258 -209 -487q-127 -432 -158 -682q-6 -25 -6 -50q0 -2 -2 -16zM545 438q0 -41 16 -119q6 -29 20.5 -50t24.5 -31.5t41 -32.5q6 53 6 104q0 98 -37 164q-20 33 -43 33q-12 0 -20 -12q0 -2 -6 -23q0 -4 -1 -16.5t-1 -16.5zM1671 141q0 -76 72 -108h12q31 0 57 12 q171 80 226 254q33 98 33 205q0 35 -9 104q0 4 -12 25q-123 -74 -145 -90q-82 -61 -160 -170q-8 -12 -18.5 -38t-16.5 -40q-25 -37 -37 -123q-2 -10 -2 -31z" />
<glyph unicode="L" horiz-adv-x="1910" d="M2 618q0 381 144.5 734.5t365.5 550.5q30 26 55 26h2q18 0 27 -12q6 -10 6 -33q0 -178 -59 -409q-98 -395 -318 -826q-82 -156 -106 -237q-18 -63 -19 -131q0 -72 23 -125q45 -104 133 -117q2 0 8 -1t10 -1q57 0 138 59q2 2 18 14.5t26.5 20.5t27 23.5t25.5 25.5 t17.5 23.5t8.5 23.5q0 2 -13 21q-51 61 -51 201v26q0 49 17.5 94t58.5 45q2 0 7 -1t7 -1q76 -12 94 -137v-16q0 -20 -9 -73.5t-9 -78.5q0 -78 61 -78h7q31 0 59.5 10.5t56 34t45 40t47 50t37.5 42.5q184 193 281 288q260 250 438 250q80 0 150 -47q159 -110 159 -283 q0 -63 -28 -139q-53 -133 -226 -215q-41 -20 -96 -20q-53 0 -104 22q-80 39 -105 119q-6 20 -6 43q0 86 62 123q23 14 51 14q35 0 66.5 -24.5t31.5 -61.5q0 -29 -20 -29q-10 0 -19 11q-2 2 -7 10t-9 10q-16 20 -45 21q-8 0 -21 -4q-41 -16 -41 -66q0 -43 33 -82 q58 -67 135 -67h2q25 0 43 8q31 12 81 63t67 86q32 66 32 124q0 13 -2 44t-2 53q0 82 -47 156q-47 70 -145 70q-68 0 -146 -37h-2q-180 -92 -407 -348q-141 -156 -191 -199q-2 -2 -18 -16.5t-19.5 -17.5t-18.5 -15t-20.5 -15.5t-19.5 -13.5t-21.5 -13t-20.5 -9t-22.5 -8.5 t-21.5 -4.5t-24 -2q-35 0 -60 11q-6 2 -16 2q-37 0 -62 -35q-164 -190 -319 -191q-129 0 -187 195q-61 211 -61 452zM98 552q0 -5 3 -12.5t12 -13.5q53 102 120 226q49 86 80 184q8 25 28.5 65.5t27.5 57.5q4 10 21.5 48t23.5 54.5t14 47t8 57.5q2 18 21 80q61 186 65 208 q10 51 35 226q0 8 -6 51q-63 -57 -111 -143q-131 -240 -190 -443q-106 -365 -144 -622q-6 -43 -6 -45q0 -4 -1 -12.5t-1 -13.5zM512 492q0 -106 43 -166q8 -10 51 -45q4 61 4 94q0 94 -32 149q-18 31 -41 31q-12 0 -17 -10q-6 -8 -6 -21q0 -4 -1 -16t-1 -16z" />
<glyph unicode="M" horiz-adv-x="1536" d="M4 504q0 102 19 190q61 319 114 475q10 31 36 82.5t34 73.5q18 41 117 84q10 6 34 31q2 2 2 8q-6 6 -13 11t-10 8t-6 7.5t-2 8.5t7 12q43 55 90 102q37 37 129 72q25 10 41 10q61 0 61 -88v-12q-2 -29 -10 -64.5t-15 -58t-23.5 -64.5t-20.5 -57q-125 -330 -352 -616 q-29 -33 -46 -49q-47 -37 -47 -43q-26 -122 -26 -230v-8q0 -86 14 -186q14 -98 78.5 -199.5t142.5 -101.5q37 0 72 26q57 45 88 81t51 93q-102 123 -129 187q-20 53 -20 102q0 47 30.5 80t73.5 33q63 0 98 -64.5t35 -138.5q0 -27 -4 -53.5t-13 -57t-11 -45.5q0 -6 -2.5 -17 t-2.5 -17q0 -12 64 -43q74 -43 168 -43l61 4q176 20 299 133.5t123 283.5q0 88 -30 148q-55 94 -162 108h-15q-70 0 -133 -61t-63 -133q0 -49 24.5 -91t63.5 -59q10 -6 24 -6q29 0 29 23q-2 4 -6 14t-6 17q-4 14 9 27t28 9q25 -8 24 -45q0 -33 -26.5 -52t-57.5 -19h-10 q-57 2 -95 53t-38 115q0 72 42 133t109 90q53 24 101 24h4q39 0 82 -16q59 -25 91 -61.5t69 -110.5q24 -47 24 -114v-5q0 -63 -22 -127q-31 -90 -99.5 -172t-146.5 -119q-90 -41 -221 -41q-115 0 -226 33q23 -2 23 0q-51 14 -119 60q-100 -131 -110 -144q-76 -80 -158 -90 q-4 0 -8 -1t-9 -1q-35 0 -74.5 25.5t-59 47t-54.5 62.5q-61 76 -96 246q-31 154 -31 291zM164 707q18 18 35.5 40.5t38 50t32.5 44.5q41 47 154 235q27 37 50.5 85t38.5 84t37.5 97.5t35.5 90.5q30 74 30 156v5q5 25 -18 35q-14 2 -41 -20q-51 -41 -94 -119 q-82 -152 -115 -234q-74 -188 -127 -329q-10 -25 -19 -55.5t-19.5 -67.5t-16.5 -57q-2 -6 -2 -18.5v-22.5zM451 369q14 -101 120 -207q10 61 11 102q0 74 -50 164q-20 33 -51 25q-32 -6 -32 -53q0 -23 2 -31z" />
<glyph unicode="N" horiz-adv-x="811" d="M-23 231q0 41 3 66q2 43 22 109q2 6 6 17t7 19.5t7.5 17.5t10.5 14t14 5h4q10 -4 10 2t-2 8q-12 23 7 48q104 145 256 198q31 10 53 10q10 0 31 -4q113 -23 112 -149v-12q0 -51 -51 -127q-18 -27 -49 -47q-16 -8 -27 -9q-23 1 -29 21q0 2 -2 8q0 12 11.5 21t28 16.5 t20.5 9.5q53 35 53 115q0 41 -18 67q-20 27 -52 27q-18 0 -34 -10q-115 -68 -181.5 -141.5t-81.5 -196.5q-8 -82 -8 -125q0 -33 2 -49q2 -18 7.5 -33.5t21.5 -34t21.5 -22.5t27.5 -27q27 -25 72 -25q16 0 72 11q84 20 141 69q18 14 91 71.5t131 108t83 80.5l66 66 q14 -12 2 -35q-76 -104 -95 -129q-66 -82 -202 -175t-226 -118q-43 -12 -86 -12q-94 0 -157 57q-92 82 -93 219z" />
<glyph unicode="O" horiz-adv-x="632" d="M-63 291q0 197 137 340q10 12 34.5 33.5t36.5 33.5q45 51 144 78q8 2 24 2q47 0 78 -41q49 -59 49 -102q0 -33 -18 -62q-33 -43 -60 -43q-6 0 -18 5q-27 18 -12 43q12 -4 16 -5q23 0 40.5 16.5t17.5 39.5q0 10 -3 14q-8 27 -29.5 52.5t-45.5 25.5q-16 0 -31 -14 q-12 -14 -63.5 -58.5t-71.5 -73.5q-16 -20 -28.5 -41.5t-22 -37t-17.5 -39t-12 -33.5t-9 -36t-6 -33t-6.5 -37.5t-5.5 -36.5q-4 -25 -4 -43q0 -27 8 -50q14 -37 24.5 -48t45.5 -29q41 -20 84 -21q72 0 166 64q127 85 199 202q14 25 46.5 63t41.5 50q43 55 53 61q37 25 29 2 q-2 -8 -9 -18q-20 -39 -121 -180q-14 -18 -36.5 -52t-42 -59.5t-41.5 -46.5q-115 -102 -207 -131q-66 -20 -111 -20q-86 0 -162 61q-31 23 -53 70t-26 86q-2 16 -2 49z" />
<glyph unicode="P" horiz-adv-x="1859" d="M-47 289q0 152 100 286q45 63 130 109.5t163 46.5q119 0 156 -110q8 -29 8 -54q0 -68 -51 -84q-27 -6 -47 11q37 68 37 106q0 41 -41 51q-6 2 -17 2q-47 0 -125 -57q-6 -4 -24.5 -18.5t-28.5 -20.5q-14 -8 -40 -11t-34 -5q12 -37 13 -43q0 -10 -7 -29q-39 -104 -41 -117 q-22 -90 -22 -146q0 -79 35 -120q33 -39 94 -39t147 45q35 18 77 47t66.5 48.5t77 62.5t64.5 53q37 31 104.5 90.5t123 104.5t110.5 82q205 141 405 141q88 0 158 -29q111 -43 185.5 -138t74.5 -212q0 -76 -35 -152q-51 -111 -157.5 -181t-241.5 -70h-20q-147 0 -250 73.5 t-103 200.5q0 90 60.5 150.5t152.5 60.5q20 0 33 -2q53 -4 106.5 -39t53.5 -84q0 -16 -6 -31q-18 -45 -66 -45q-37 4 -39 25q-2 8 3 12t20.5 8t17.5 4q25 6 25 33q0 25 -23 47q-39 39 -100 39h-6q-139 0 -170 -174q-6 -25 -6 -49q0 -43 22 -74q35 -51 122 -82.5t181 -31.5 q78 0 131 20q199 72 199 285q0 119 -66.5 231.5t-164.5 155.5q-47 20 -103 20q-115 0 -280 -100q-117 -70 -308.5 -229.5t-257.5 -206.5q-6 -4 -36.5 -27t-42 -31t-40 -27.5t-43 -27.5t-41 -21.5t-46 -19.5t-43 -11t-43.5 -5q-53 0 -107 30q-102 61 -125 193q-8 53 -8 80z " />
<glyph unicode="Q" d="M-55 195q0 86 30 163q100 256 283 383q63 45 119 54h16q47 0 58 -31q2 -4 -5 -27q-2 0 -8 -1t-9 -2t-7 1q-16 25 -45 25q-25 0 -66 -21q-72 -33 -112 -123q-115 -252 -115 -393q0 -57 12 -119q6 -37 27 -34q8 2 10 8q2 -10 14 -10q25 0 54 28q90 90 116 137 q18 33 119 218q18 33 21 57q6 37 16 110.5t16 110.5q57 344 64 365q25 102 91.5 292.5t82.5 241.5q45 139 170 275q23 23 35 30q98 70 170 113q25 16 45 16q29 0 35 -34q6 -25 6 -50q0 -31 -12 -67q-10 -25 -31 -86.5t-38 -105.5t-42 -85q-35 -61 -51 -112 q-25 -84 -150 -324q-184 -362 -196 -389q-80 -174 -88 -274q-2 -45 -41 -197q-12 -55 -18.5 -154.5t-20.5 -154.5q-4 -33 -4 -43q0 -37 24 -90q16 -33 55 -33q47 0 110 39t87 67q27 29 73 55.5t73 59.5q20 25 69 81t83 100t60 89q49 84 76 111q29 33 54 61q27 27 40 19 q2 -4 0 -8.5t-8 -16.5l-6 -10q-33 -61 -53.5 -78.5t-48.5 -69.5q-27 -47 -90.5 -122.5t-85.5 -108.5q-37 -53 -109 -107.5t-102 -89.5q-59 -63 -181 -114q-27 -12 -53 -13q-35 0 -59 25q-66 57 -78 125q-8 59 -18 149q-2 14 -2 35t4 53.5t4 57.5q-1 2 -15 35 q-29 -37 -86 -106.5t-86 -106.5q-59 -76 -161 -76q-86 0 -107 65q-8 25 -8 39q0 10 -2 29t-3 34t-1 30zM563 719q14 14 15.5 17t-0.5 30q-20 -35 -15 -47zM670 969q0 -2 8 -45q37 51 74 133q35 80 112 217q51 90 76 162q47 131 100 217q23 35 38.5 74.5t23.5 67.5t19.5 74 t17.5 68q4 16 4 23q0 25 -25 25q-20 0 -51 -19q-78 -43 -137 -168q-98 -207 -129 -336q-37 -154 -107 -389q-14 -53 -24 -104zM702 1337q10 4 11 6v7l-4 -2q-2 0 -2 -2q-4 -4 -5 -9z" />
<glyph unicode="R" horiz-adv-x="909" d="M-88 195q0 49 6 61q2 4 12.5 10t12.5 13q6 12 -3.5 25t-9.5 18q0 8 21 55q27 61 72 108q96 102 223 103q74 0 131 -35q18 49 20 61q59 399 99 543q14 49 38.5 143.5t45 168t45.5 139.5q100 266 196 266q23 0 37 -10q41 -23 41 -95q0 -12 -4 -40q-18 -166 -121 -519 q-8 -27 -37.5 -132t-44 -152t-42 -125t-56.5 -137q-4 -8 -39 -65.5t-43 -88.5q-29 -111 -43 -221q-6 -37 -9 -91.5t-9 -91.5q-8 -47 -9 -83q0 -66 33 -66q20 0 57 28.5t65 59.5t68 77t46 52q33 35 90 106.5t95 113.5t48 42q2 0 8 2q8 0 9 -10q0 -29 -170 -238 q-39 -47 -187 -202q-35 -39 -90 -75t-96 -36q-63 0 -72 88q-2 27 -2 82v76q0 39 -6.5 39t-24.5 -25q-4 -4 -32.5 -40t-42.5 -54q-12 -18 -26.5 -31.5t-34 -26t-31 -18.5t-38 -18t-36.5 -17h-4q-94 0 -136 136q-20 68 -20 127zM51 200.5q0 -104.5 12 -155.5l13 -49 q72 12 133 82q74 82 145 217q29 57 29 127q0 115 -82 135q-23 6 -45 6q-45 0 -85 -19.5t-54 -49.5q-33 -55 -43 -99q-23 -90 -23 -194.5zM524 696q0 -20 4 -20q9 0 29 61q12 37 55 145.5t60 166.5q113 365 125 417q18 82 51 246q4 20 4 33q0 6 2 20.5t2 20.5q0 23 -18 22h-2 q-31 -4 -50 -47q-29 -59 -88 -256q-18 -51 -33.5 -110.5t-32 -131t-26.5 -110.5q-6 -20 -18.5 -60t-21.5 -73t-11 -62q0 -10 -15.5 -119.5t-15.5 -142.5z" />
<glyph unicode="S" horiz-adv-x="1142" d="M-1417 1378q0 23 6 39q23 68 90 129q215 197 561 197q43 0 66 -2q158 -8 319.5 -52t380.5 -128t289 -107q246 -80 352 -84l113 -2q8 8 16 29.5t15.5 45t9.5 30.5q37 92 114 210q43 66 112 115t138 49q63 0 113 -49q45 -43 45 -112q0 -111 -88 -191q-59 -57 -149.5 -102 t-149.5 -62l-59 -18q-33 -12 -56.5 -46t-33 -63.5t-22.5 -82t-20 -70.5q-41 -123 -88 -328q-10 -43 -49 -188.5t-57.5 -242.5t-18.5 -192v-10q0 -39 19.5 -68.5t56.5 -29.5h6q35 0 88 37q268 188 584 573q4 4 8 12q8 10 15 7l22 -11q-27 -35 -85 -114.5t-100 -130 t-95 -105.5q-215 -223 -381 -311q-49 -27 -97 -27q-45 0 -71 27q-33 29 -39 82q-12 119 -12 196q0 31 4 64q-43 -51 -125 -133l-30 -30l-35 -35t-34.5 -32.5t-41 -35t-41 -28.5t-45 -25.5t-44 -15.5t-47.5 -7q-39 0 -80 22q-59 35 -59 135q0 4 1 14.5t1 16.5 q14 121 77.5 230.5t162.5 181.5q78 59 147 59h14q41 0 75 -32.5t34 -71.5v-10q-4 -25 -16 -33q-25 -12 -33 10q-2 6 1 12t7 13.5t6 11.5l2 4v4q0 18 -19.5 30.5t-39.5 12.5q-59 -2 -129 -72q-137 -143 -166 -335q-8 -39 2 -62q18 -41 63 -41q66 0 144 66q53 43 147 159 q106 139 150 265q12 39 28.5 112.5t24.5 106.5q25 88 86.5 253t81.5 292q-14 2 -70.5 8t-76.5 10q-229 55 -363 102q-49 16 -176 62.5t-201 70t-183.5 54t-207.5 45t-192 14.5q-217 0 -396 -86q-68 -33 -123 -88t-55 -113q0 -51 46 -82.5t106 -31.5q43 0 75 20q37 23 37 55 q0 2 -1 5.5t-1 5.5q-2 10 -12 30.5t-10 28.5t6 14q6 4 24 5q47 -6 48 -66q0 -23 -11 -47q-29 -61 -98 -94q-88 -39 -135 -39q-49 0 -105 35q-29 18 -48 65t-19 92zM872 1368q2 6 11.5 9t22 4t16.5 3q74 20 148.5 70.5t119.5 112.5q37 55 37 123q0 88 -68 102q-6 2 -18 2 q-82 0 -150 -104q-88 -134 -119 -322z" />
<glyph unicode="T" horiz-adv-x="1288" d="M-66 231q0 57 21 123q37 113 143 226q76 80 142 106q39 14 73 14q57 0 97 -30q35 -29 41 -72q2 -6 2 -16.5t-19 -61.5q-4 -14 -12 -20q-6 -4 -13.5 -1t-7.5 9q0 10 19 33q8 14 8 32q0 33 -26.5 64t-55.5 35h-12q-35 0 -64 -23q-102 -76 -174 -278q-37 -111 -37 -172 q0 -51 23 -86q12 -25 37 -25q23 0 53 23q137 98 266 245q49 61 64 101q16 43 23 96t10.5 121.5t7.5 101.5q25 248 43 365q20 147 31.5 210.5t45 176t85.5 194.5q23 37 92 85t116 48q51 0 58 -59q8 -86 8 -129q0 -147 -45 -315t-88 -268.5t-133 -292.5q-53 -113 -78 -148 q-49 -72 -64 -205q-2 -20 -2 -59q0 -121 49.5 -229.5t143.5 -182.5q129 -100 285 -100q152 0 229 117q37 57 43 127q0 4 1 16t1 16q0 29 -12 43q-25 29 -49 9q-4 -2 -21 -37q-12 -27 -43 -37q-25 41 -27 63v11q0 33 29 53t66 20q23 0 32 -4q70 -25 84 -82q8 -37 9 -55 q0 -92 -72 -168t-168 -106q-55 -18 -115 -19q-129 0 -254 77t-213 189q-98 123 -98 256q0 4 1 14.5t1 16.5q-12 -4 -25.5 -14.5t-21.5 -20.5t-20.5 -25.5t-16.5 -21.5q-66 -74 -98 -104q-2 -2 -21.5 -20.5t-22.5 -21.5t-21.5 -19.5t-24.5 -20.5t-22.5 -17.5t-26 -18.5 t-24.5 -14.5t-27.5 -13.5t-28 -9t-29.5 -7q-20 -4 -29 -4q-33 0 -55 16q-16 12 -33 41q-33 63 -33 139zM635 815q0 -18 2 -27q0 -4 3 -34.5t3 -46.5v-15l2 2q45 45 86 137q27 57 72 177q78 199 117 364q57 229 57 326q0 78 -35 84q-10 0 -22 -8q-37 -25 -67 -65t-47.5 -75 t-36.5 -100.5t-26.5 -97t-22.5 -110.5t-20 -99q-39 -195 -57 -342q-8 -49 -8 -70z" />
<glyph unicode="U" horiz-adv-x="1521" d="M-53 195q0 63 26 151q49 164 172 252q61 45 125 45q66 0 117 -51q4 -2 10 -12.5t13.5 -14.5t19.5 -2q10 18 10 51v17v16q0 96 25 285q29 211 92 405q80 250 160 371q59 90 209 188q33 20 53 -6q25 -33 25 -104q0 -10 -1.5 -28.5t-1.5 -26.5q-6 -90 -30 -177 q-53 -199 -148 -450q-98 -260 -184 -424q-74 -141 -74 -305q0 -285 185 -494q61 -70 155 -108q53 -23 117 -23q154 0 268.5 131t114.5 299v19q0 164 -123 219q-41 18 -90 18q-63 0 -105 -33q-49 -39 -49 -106q0 -53 39 -86q4 -4 6 -4t7 2h2q29 23 47 22q10 0 14 -2 q18 -6 18 -34q0 -20 -10 -31q-27 -25 -63 -25q-55 0 -86 49q-27 41 -27 101q0 90 55 145q66 66 160 66q104 0 195 -80q116 -101 116 -251q0 -85 -32 -159q-39 -94 -101 -168q-57 -70 -184 -129q-61 -28 -130 -28h-5q-43 0 -101 10q-139 25 -225 110q-61 61 -141 213 q-53 100 -115 283q-2 4 -14 12q-16 -4 -41 -49q-111 -180 -238 -248q-37 -18 -73 -18q-57 0 -102.5 39t-57.5 104q-4 16 -4 54zM74 170q-4 -35 6 -57q16 -43 72 -43q20 0 36 6q23 10 60 43q74 68 184 243q16 27 17 39q0 16 -10.5 36t-29 44.5t-22.5 30.5q-41 72 -86 82 q-6 2 -18 2q-37 0 -68 -31q-25 -27 -47 -84q-6 -16 -22.5 -58t-24.5 -64.5t-19.5 -57.5t-18.5 -66.5t-9 -64.5zM580 721q0 -4 2 -19.5t4 -27.5q12 18 28.5 41.5t20.5 29.5q47 63 72 140q33 104 73 217q12 33 40 104.5t40 110.5q10 35 35 122t41 134q25 74 25 172 q-1 47 -3 72q-45 -2 -58 -6.5t-30 -24.5q-51 -66 -75 -139q-117 -381 -127 -424q-43 -162 -88 -502z" />
<glyph unicode="V" horiz-adv-x="634" d="M-16 346q0 78 53 205q55 127 258 174q31 6 49 -31q33 -53 33 -102q0 -14 -8 -47q-59 -186 -170 -303q-8 -8 -25 -29t-27 -31q14 -51 19 -61q31 -72 80 -72q18 0 51 14q25 12 35 23q16 16 51 47t60.5 56.5t45.5 50.5q35 41 170 211q18 23 66 90q35 53 57 53q6 0 9 -2 q8 -27 -17 -57q-45 -59 -129 -160q-41 -49 -100.5 -126t-124.5 -153q-39 -47 -107 -96q-35 -23 -71 -23h-6q-63 0 -134 60.5t-86 128.5q0 2 -8 32.5t-8 32.5q-16 57 -16 115zM123 354q0 -35 12 -67q25 6 29 6q106 98 160 295q2 6 2 16q0 31 -31 51q-74 -49 -107.5 -89 t-50.5 -111q-14 -53 -14 -101z" />
<glyph unicode="W" horiz-adv-x="655" d="M-10 512q0 121 61 264q16 39 54 68.5t81 29.5q39 0 70 -22q23 -16 31 -24.5t18 -29t10 -44.5q0 -2 -1 -9.5t-1 -11.5q-6 -51 -20 -80.5t-55 -81.5q-20 -25 -99 -120v-17q0 -68 39 -162q33 -90 64 -104q45 -27 88 -27q31 0 47 15q27 23 64.5 51.5t56 43.5t47 43t57.5 64 q33 39 90 101q12 12 4 16q-2 2 2 2q2 0 7 2h4q6 -29 6 -35t-21 -34q-10 -14 -32.5 -46t-28.5 -40.5t-23.5 -31t-24.5 -29.5t-23.5 -25.5t-28 -27.5t-31 -26.5t-40 -33t-48.5 -35.5q-4 -4 -25.5 -17.5t-30.5 -19.5q-23 -16 -73 -17q-41 0 -60 9q-16 4 -29.5 12t-19.5 14 t-19.5 20.5t-21.5 20.5q-47 47 -80 119q-49 121 -57 168q-8 57 -8 88zM115 592q0 -51 18 -96q6 4 26.5 34.5t22.5 32.5q55 74 68.5 100.5t19.5 65.5q2 6 2 19q0 49 -55 49h-6q-4 -2 -16.5 -13.5t-19.5 -16.5t-16 -15.5t-15.5 -19.5t-8.5 -19q-20 -78 -20 -121z" />
<glyph unicode="X" horiz-adv-x="1138" d="M-53 379q0 109 44 213t115 172q61 57 132 57q76 0 106 -78q10 -23 10 -57q0 -82 -57 -154q-96 -123 -193 -192q-6 -4 -55 -53q33 -123 117 -215q119 -133 309 -133q61 0 117 14q227 53 405 326q76 115 76 231q0 35 -4 53q-18 104 -94 166q-39 37 -92 37q-37 0 -70 -20.5 t-57.5 -63.5t-24.5 -86q0 -14 2 -23q6 -29 26.5 -49t43.5 -20q12 0 24 6q-14 14 -14 45t16 45q14 10 27 10q33 0 43 -37q0 -2 1 -7t1 -7q0 -35 -29 -67q-14 -20 -26 -29q-20 -10 -60 -2q-100 29 -110 119v16q0 59 40 119.5t87 85.5q37 18 74 18q96 0 177 -102.5t91 -218.5 q0 -6 1 -14.5t1 -14.5q0 -137 -84 -262q-102 -152 -257 -238t-321 -86q-80 0 -174 27q-119 37 -214 126t-132 214q-14 45 -16 86q-2 14 -2 43zM74 379q29 16 70.5 56t45.5 44q55 53 84 101q37 63 37 100q0 20 -4 33q-16 4 -24 4q-45 0 -86 -55q-72 -94 -99 -173 q-25 -74 -24 -102v-8z" />
<glyph unicode="Y" horiz-adv-x="1062" d="M-35 403q0 156 137 316q76 88 142 104q18 6 41 6q84 0 112 -63q12 -25 13 -53q0 -20 -9 -54q-49 -195 -270 -395q-14 -14 -16 -20q0 -33 39 -82q59 -78 114 -113q96 -63 215 -63q168 0 303 108q82 66 132.5 161t50.5 198q0 72 -27 137q-20 47 -64 81t-94 34h-10 q-39 0 -72.5 -26t-54.5 -63q-2 -6 -6 -17t-6 -15q-6 -14 -27 -17q-8 0 -10 -4v-6q4 -8 14.5 -15t12.5 -14q2 -4 2 -15v-17q0 -43 19.5 -79t53.5 -36q29 4 41 25q8 12 13 12q14 0 14 -19q2 -14 -12 -30q-31 -41 -90 -41q-31 0 -60 18q-4 0 -4 2q-57 41 -57 141v23 q0 63 32.5 122.5t88.5 90.5q43 25 102 25q66 0 127 -33q115 -61 158 -174q16 -43 16 -97q0 -143 -115 -262q-94 -102 -215 -172q-115 -67 -248 -67h-4q-162 0 -301 88q-98 63 -159.5 161.5t-61.5 208.5zM84 379q0 -27 6 -51q6 -27 19 -29q100 84 135 135q12 18 41.5 63.5 t46.5 69.5q35 53 45 131q0 2 1 7.5t1 7.5q0 32 -31 55q-61 -2 -104 -53q-84 -96 -115 -166q-45 -98 -45 -170z" />
<glyph unicode="Z" horiz-adv-x="1472" d="M-59 510q0 113 102 245t188 132t86 -99q0 -100 -55 -196q-53 -90 -141 -166q-20 -16 -21 -35q0 -12 9 -26q66 -150 206 -230q78 -43 174 -43q141 0 326 96q199 104 320 347q14 20 -17 30q-86 16 -129 29q-61 18 -110.5 63t-49.5 95q0 47 45.5 75.5t102.5 28.5 q119 0 178 -80q35 -45 49 -92q20 -4 29 -4q61 0 108.5 53t71.5 125q14 43 14 84q0 145 -110 197q-25 8 -37 8q-45 0 -45 -31l2 -4v-6h6q16 0 29.5 -13.5t13.5 -27.5q0 -35 -35 -35q-2 0 -6 1t-6 1q-23 6 -40 27.5t-17 48.5q0 37 31.5 62.5t70.5 25.5q27 0 53 -12 q137 -59 138 -234q0 -113 -60.5 -218t-148.5 -136q-41 -12 -58 -25q-12 -12 -28 -41q-141 -274 -318 -383q-184 -116 -382 -116h-3q-197 0 -348 123q-188 150 -188 356zM72 543q0 -72 24 -82h10q14 4 26.5 12t24 21.5t18.5 21.5t18.5 26.5t15.5 24.5q78 111 78 197 q0 67 -34 67h-1q-23 0 -53.5 -18t-42.5 -33q-84 -94 -84 -213v-24zM895 754q0 -37 48 -71t118 -38h14q6 0 21.5 -1t23.5 -1q35 1 35 19q0 74 -80 133q-31 16 -71 16q-109 0 -109 -57z" />
<glyph unicode="[" horiz-adv-x="884" d="M-47 90q0 39 4 80t13.5 93t11.5 77q6 49 16 146.5t16 146.5q6 61 45 100q12 12 25 12q37 -4 37 -92v-22q0 -35 -6 -45q-6 -8 -22.5 -7t-20.5 -6q-4 -8 1 -17t14 -18.5t11 -15.5q4 -8 4 -24q0 -8 -6 -52q0 -8 -1 -23t-1 -23.5t1 -24t1 -23.5q25 27 70 80q86 100 184 170 q127 88 199 88q16 0 24 -2q37 -6 65 -35.5t28 -66.5q0 -12 -2 -19q-8 -66 -64 -262q-39 -133 -39 -178q0 -29 4 -43q2 -2 2 -4q68 33 201 192.5t158 182.5q2 0 5 4t5 4q12 0 12 -8.5t-2 -10.5q-27 -51 -102.5 -142t-130.5 -148q-4 -4 -22.5 -23.5t-27 -28t-25.5 -26 t-30.5 -25.5t-30 -19.5t-32 -16.5t-31.5 -5h-4q-27 0 -39 43q-6 33 -6 72q0 82 27 156q31 86 53 196q16 86 16 111q0 23 -2 33q0 20 -18 20q-20 4 -47 -10q-233 -115 -371 -322q-53 -80 -86 -237q-12 -61 -37 -62h-6q-18 0 -29.5 26.5t-11.5 53.5z" />
<glyph unicode="\" horiz-adv-x="1810" d="M-86 43q0 10 9 41t21.5 61.5t12.5 34.5q76 274 86 348q8 47 31.5 105.5t54.5 58.5q6 0 10 -2q27 -10 27 -67q0 -84 -37 -181q18 0 23 4q37 37 73 80q96 106 199 150q78 31 135 31q61 0 80 -35q6 -12 16 -54q6 -43 7 -83q0 -61 -15.5 -184.5t-15.5 -186.5q0 -35 2 -51 q16 -213 149 -357q66 -72 174.5 -110.5t210.5 -38.5h17q225 0 353 182t128 436q0 131 -37 252q-12 41 -42 77t-53.5 54.5t-70.5 50.5q-61 41 -141 41q-96 0 -189.5 -57t-140.5 -145q-33 -59 -33 -150q0 -125 64 -190q51 -51 117 -52q18 0 47 9q20 8 20 53q0 35 21 53 q27 27 53 0q16 -16 16 -37q0 -39 -36 -71q-55 -49 -134 -50q-68 0 -122 39t-72 109q-14 55 -14 111q0 156 105 269.5t251 141.5q33 6 69 6q143 0 261 -109.5t149 -275.5q16 -86 16 -161q1 -99 -75 -304q-68 -176 -217.5 -263t-313.5 -87q-33 0 -47 2q-143 12 -296.5 103.5 t-227.5 224.5q-43 78 -70 180q-18 72 -18 162q0 104 47 348q4 25 4 39q0 59 -43 59q-6 0 -18 -4q-6 -2 -35 -12q-156 -70 -262 -201q-6 -8 -30 -34.5t-37 -47t-24 -41.5q-18 -39 -39.5 -118.5t-25.5 -92.5q-10 -25 -40 -70.5t-48 -45.5q-6 0 -10 6q-29 35 -29 47z" />
<glyph unicode="]" horiz-adv-x="1269" d="M-29 127q0 49 15 129q8 66 31.5 186.5t31.5 169.5q2 12 5 48t6 52.5t17.5 39t39.5 36.5q16 10 33 11q37 -6 36 -60q0 -18 -4 -39q-6 -45 -18 -136t-19 -136q25 27 133.5 168t182.5 203q8 8 28 8q41 0 70 -19q29 -16 29 -73v-19q0 -39 -23 -460q-2 -20 -2 -60 q0 -106 41 -160q55 -76 164 -75q72 0 150 36q180 90 237 275q18 59 19 121q0 135 -74 235q-43 63 -96 72q-2 0 -7.5 1t-7.5 1q-61 0 -127 -78q-43 -55 -43 -102q0 -20 8 -37q12 -23 41 -41q4 -8 30 -6t32 2l2 -2h4v-8q0 -7 -4 -11q-12 -29 -47 -28q-29 0 -59.5 16t-41.5 35 q-20 33 -20 76q0 49 27 98q35 63 103.5 105t145.5 42q76 0 138 -36q72 -41 98 -109q14 -37 14 -82q0 -47 -14 -108q-45 -180 -162 -317.5t-283 -174.5q-47 -10 -86 -10q-80 0 -137 37q-92 57 -133 200q-43 143 -43 314q0 82 17 245q-31 0 -70 -47q-88 -106 -139.5 -172.5 t-105.5 -173t-71 -205.5q-10 -68 -45 -67h-4q-43 6 -43 90z" />
<glyph unicode="^" horiz-adv-x="739" d="M-8 319q0 150 59 246q37 59 97.5 98t125.5 39q23 0 33 -2q8 0 12.5 -6t-2.5 -14q-2 -2 -16 -12q-127 -80 -174 -318q-18 -102 -18 -172q0 -35 8 -96q12 -68 47 -86q27 -16 65 -16q35 0 66 12q55 23 104 92l7 6q4 8 8 14l4 7q-102 12 -129 196q-2 10 -2 35 q0 76 36.5 139.5t104.5 81.5q6 2 21 2q45 0 68.5 -52t23.5 -110q0 -106 -11 -170q35 41 103.5 114t106.5 120t81 117q2 4 5 9t5.5 8t5.5 7t6 4t7 -2q2 0 2 -1t2 -1q4 -6 4 -20q0 -25 -35 -64q-45 -49 -106.5 -136t-128.5 -152q-29 -27 -70 -83.5t-57 -74.5q-29 -29 -60 -53 q-6 -4 -24.5 -17.5t-26.5 -19.5t-23.5 -14.5t-28.5 -13.5t-28 -7q-29 -4 -45 -4q-88 0 -139 45q-25 20 -47 69q-39 92 -45 205q0 8 -1 25.5t-1 25.5zM352 397q0 -12 4 -33.5t4 -27.5q16 -115 56 -141q33 -21 37 12q6 49 6 102q0 10 -1 29.5t-1 30.5q0 4 -1 23.5t-2 30.5 t-6.5 24.5t-13.5 17.5q-12 6 -22 6q-20 0 -37 -16.5t-21 -36.5q-2 -6 -2 -21z" />
<glyph unicode="_" horiz-adv-x="899" d="M-29 279q2 6 16.5 21t8.5 26l-4 6q-4 8 -4 14q-4 33 4 47q8 8 18 35l19 55q18 53 57 106.5t82 78.5l12 8q14 8 26.5 15t31 15.5t40 13.5t41.5 5q45 0 84 -27q2 -2 3 -4q0 -12 -41 -12q-16 0 -25 2h-8q-27 0 -70 -26.5t-61 -47.5q-109 -141 -109 -329v-19q0 -86 37 -173 t115 -87h4q18 0 97 47t79 64l-2 2q-14 14 -40 36.5t-41 37t-31.5 39t-26.5 51.5q-16 49 -17 94q0 57 23 108q29 63 84 116.5t116 64.5q10 2 29 2q102 0 103 -140q0 -84 -33 -190.5t-58 -140.5q-2 -2 -4 -6.5t-3 -9.5t-3 -7v-2l-2 -4q0 -16 27 -17q25 0 55 11q86 37 119 61 q29 20 47 40t37.5 45.5t36.5 41.5q59 59 88 109q10 20 13 22t17 4q10 -10 -14 -51q-92 -150 -182 -227q-57 -49 -102.5 -73t-135.5 -42q-4 -2 -25.5 -3t-25.5 1h-4q-31 0 -90 -53q-96 -88 -186 -88q-76 0 -130 65q-8 10 -23 23.5t-22.5 24t-13.5 28.5q-27 74 -27 141 q0 4 -1 14.5t-3 16.5q0 4 -1 11t-1 10zM324 377q0 -37 12 -74q37 -96 133 -131q90 133 90 293q0 82 -31 137q-4 4 -8 4q-20 0 -80.5 -44t-72.5 -58q-43 -55 -43 -127z" />
<glyph unicode="`" horiz-adv-x="1691" d="M-27 217q0 231 115 420q45 78 100 113q43 31 97 30q33 0 51 -18q25 -29 41 -45q12 -12 10 -23q-2 -8 -7 -9t-12.5 4t-9.5 7t-8 9q-23 20 -57 16q-37 -6 -66.5 -39t-48 -90t-27 -94t-18.5 -95q-16 -88 -16 -170q0 -49 6 -98q10 -84 24 -102q35 -41 86 -41q59 0 142 57 q104 68 160 201q4 10 2 14q0 10 -15 21q-80 51 -102 147q-4 29 -4 47q0 86 49 131q43 43 102 43q49 0 78 -35q29 -33 37 -53q12 -33 12 -90v-35q-2 -8 -13 -39.5t-11 -46.5q0 -8 2 -10q6 -14 24 -10q104 6 320.5 70.5t333.5 64.5h10q94 0 184 -51q41 -25 60.5 -37t48 -42 t39.5 -63q10 -31 10 -59q0 -102 -81 -198.5t-167 -96.5q-33 0 -55 15q-63 37 -64 102q0 41 27 71.5t72 34.5h6q31 0 30 -30q0 -8 -2 -15q-16 -29 -59 -32q-41 -8 -31 -39q10 -29 35 -46.5t51 -17.5h4q66 0 114 77t48 157q0 4 -1 12t-1 10q-18 96 -103 153.5t-182 57.5h-14 q-47 0 -96 -9t-124 -31.5t-95 -26.5q-133 -35 -340 -82q-53 -12 -76 -58q-29 -55 -96 -135q-70 -76 -135 -115q-68 -39 -160 -38q-121 0 -180 75q-53 70 -54 205zM457 508q0 -72 35 -129q20 -35 36 -35q23 0 37.5 52.5t14.5 99.5q0 16 -2 22q-14 86 -58 86q-10 0 -22 -6 q-41 -23 -41 -90z" />
<glyph unicode="a" horiz-adv-x="1159" d="M-47 281v20q4 66 27 156q25 92 100 211q69 110 150 110h1q25 0 43 -8q84 -27 97 -94q0 -4 1 -10.5t1 -8.5q0 -45 -37 -104q-55 -86 -186 -199q-14 -14 -44 -40.5t-47 -41.5q-4 -4 -4 -20q0 -23 6 -53q12 -72 52 -109q27 -27 73 -27q23 0 45 7q72 14 144 53 q25 14 49.5 29.5t50 36t43 35t46 42t39.5 38.5t43 44t40 41q27 27 76 80q-23 96 -35 139q-12 55 -12 117q0 51 4 76q16 127 59 186q31 43 81 78t97 35q39 0 64 -23q31 -25 41 -73q8 -31 8 -66q0 -119 -129 -320q0 -2 -43 -59q12 -27 26.5 -87t24.5 -85q80 -193 92 -237 q14 -51 15 -113q0 -74 -23 -154q-51 -178 -207 -229q-72 -23 -125 -23q-86 0 -139 52q-57 55 -72 139q-4 33 -4 49q0 43 15 78q31 66 92 88q10 4 33 4q55 0 86 -37q34 -38 34 -82q0 -8 -6 -33q-16 -37 -55 -43q-14 -4 -20 4q-4 6 0 17q10 41 10 45q0 14 -8 31q-16 37 -48 37 q-6 0 -10 -3q-18 -6 -28 -22q-35 -45 -35 -102q0 -66 47 -117q47 -47 119 -47q113 0 186 84q66 72 66 178q0 92 -58 256q-12 35 -50 89t-50 79q-12 16 -23 28q-6 -6 -20 -15t-21 -15q-12 -12 -31.5 -37t-27.5 -33q-207 -219 -430 -272q-27 -6 -53 -6q-78 0 -148 49 q-59 47 -76 88q-22 55 -22 114v5zM61 350q0 -8 2 -8l11 -2q227 160 260 309q4 23 0 33q-5 16 -21 20q-10 2 -18 0q-82 -16 -158 -137q-33 -53 -53 -104q-23 -90 -23 -111zM829 821q0 -74 19 -141q18 -37 26 -45q123 205 132 330q4 37 -13 51q-10 8 -26 8h-9q-37 0 -67 -25 q-47 -33 -57 -110q-4 -41 -5 -68z" />
<glyph unicode="b" horiz-adv-x="1306" d="M-823 -1198q0 164 75 321q72 156 213 314q186 215 502 438q39 29 43 84q27 465 68 670q70 338 229 559q98 135 209 180q43 16 84 16q109 0 127 -81q4 -20 4 -29q0 -37 -33 -107q-166 -332 -403 -618q-68 -80 -90 -127q-25 -51 -41 -148q-25 -135 -37 -276q0 33 377 131 q203 49 405 137q244 109 340 240q49 70 49 137q0 33 -12 64q-18 47 -65 76.5t-101 29.5q-20 0 -30 -2q-59 -12 -105.5 -56t-66.5 -102q-4 -12 -5 -22q0 -31 21 -33q6 0 11 2l12.5 5t11.5 5t10 2q16 0 28.5 -17t12.5 -36q0 -16 -8 -27q-18 -20 -49 -20q-35 0 -58 23 q-37 37 -37 88q0 78 80 157q90 84 182 94q8 2 27 3q100 0 160 -72q47 -55 47 -137q0 -61 -25 -115q-45 -98 -178 -195q-205 -147 -493 -233q-43 -14 -143.5 -41t-153.5 -45q-4 -2 -35 -11.5t-51.5 -15.5t-53 -19t-54 -24.5t-39 -27t-21.5 -31.5q-2 -14 -15.5 -77.5 t-21.5 -98.5q-12 -55 -57.5 -300t-85.5 -372q-115 -346 -336 -557q-33 -33 -68 -53q-43 -25 -94 -25q-117 0 -182 92q-80 119 -80 283zM-684 -1356q27 -147 109 -147q10 0 30 4q170 43 326 393q166 373 217 895q0 4 -10 35q-84 -51 -174 -127q-231 -193 -363 -445 q-106 -199 -121 -301q-22 -151 -22 -208q0 -58 8 -99zM227 567q37 16 80 70q10 14 38 51t44 57q125 150 244 443q12 29 12 56q0 36 -22 79q-72 -37 -148 -145q-133 -184 -235 -527q-4 -14 -13 -84zM481 1257q4 -2 6 -2v2l2 5q-4 2 -6 2v-2z" />
<glyph unicode="c" horiz-adv-x="702" d="M-141 209q180 301 383 522q23 72 60.5 162t94 202.5t125 187.5t129.5 75q59 0 60 -82q0 -115 -71 -246t-163 -223q-25 -25 -75 -65t-85.5 -76.5t-54.5 -81.5q-33 -78 -65.5 -189.5t-32.5 -173.5q0 -20 22.5 -47t22.5 -43q0 -14 -29 -25q-23 -8 -34 -28.5t-14 -33.5 t-4 -49t-1 -42l20 -12q82 6 154 67l-39 76q12 0 72 -59q18 10 46 34.5t57.5 56t63.5 69.5t66.5 77t63.5 78t57.5 72.5t46 59.5t31.5 40l12 16q4 2 13 2q14 0 18 -14l-4 -16q-203 -262 -426 -502q-12 -16 -12 -35q0 -25 11 -52.5t30.5 -61t25.5 -50.5q82 -186 82 -434 q0 -205 -61 -371q-35 -94 -109 -183t-156 -89q-63 0 -111 53.5t-71.5 124t-38 168.5t-17.5 161.5t-3 127.5q0 293 53 496q4 16 4 24q0 23 -26.5 45.5t-53 61.5t-26.5 98q0 84 45 131t127 49q18 53 62 175t63 175q-6 -8 -31 -40.5t-49.5 -64.5t-57 -75t-62.5 -79t-57.5 -68.5 t-49 -53t-31.5 -22.5zM-55 82q0 -37 16 -69t49 -36q18 10 29.5 82t11.5 115q0 14 -2 21l-16 14q-43 -2 -65.5 -41t-22.5 -86zM72 -578q0 -72 4 -152.5t17 -211.5t48 -215t86 -84q61 0 144 129q123 182 123 448q0 307 -158 580q-16 25 -19 25q-8 0 -100 -30t-102 -36 q-43 -88 -43 -453zM328 793l2 -23q16 -4 28 -4q59 0 154.5 141.5t132.5 235.5q23 53 23 112q-1 23 -21 37q-55 -45 -106.5 -114.5t-75 -111.5t-74.5 -146.5t-63 -126.5z" />
<glyph unicode="d" horiz-adv-x="1046" d="M-387 -1665q0 131 104 379q82 188 271 504q12 20 39.5 69t46 81t47.5 70t57 60q35 27 56.5 77t26.5 79t15 96q10 72 76 373l-4 -4q-121 -96 -198 -96q-2 0 -10.5 1t-10.5 1q-59 8 -103 57t-55 113q-4 29 -4 43q0 90 53 196q115 231 320 316q45 16 72 16q16 0 24 -2 q23 -6 39.5 -25.5t16.5 -40.5v-6q-37 18 -64 19h-6q-31 -4 -64 -35q-109 -94 -188.5 -214t-79.5 -233q0 -20 23 -77q16 -37 92 -37h12q51 0 98 41q37 31 65 77t56.5 107t48.5 92q31 45 60 45q8 0 12 -2q29 -12 29 -53q0 -4 -6 -41q-2 -8 -48.5 -160.5t-85 -301t-38.5 -191.5 q0 -14 4 -17q8 -4 26 -4q16 0 33.5 5t39 14.5t32.5 11.5q111 37 245 37q133 -2 254 -81t168 -202q25 -66 25 -147q0 -125 -53.5 -239t-147.5 -159q-33 -16 -80 -16q-72 0 -126 40t-54 105q0 16 2 27q6 33 40 67.5t69 34.5q12 0 24 -6q31 -14 31 -53q0 -10 -2 -14 q-8 -18 -20 -19q-10 0 -28 14.5t-22 16.5q-6 4 -18 4q-16 0 -16 -27q0 -31 19 -74.5t38 -54.5q20 -14 45 -14q47 0 80 49q90 139 90 350q0 35 -2 52q-14 133 -122 219t-243 86h-18q-74 0 -143.5 -15.5t-132 -59.5t-83.5 -112q-23 -78 -40 -161.5t-36.5 -204.5t-27.5 -166 q-29 -166 -50.5 -257t-66.5 -233.5t-114.5 -247t-167.5 -180.5q-34 -26 -71 -26h-3q-45 0 -84 39q-88 88 -88 225zM-274 -1636q0 -111 34 -195q8 -27 27 -37q27 -12 57 15q135 119 213 409q96 358 129 647q2 20 8.5 61.5t9.5 76t3 63.5t-2 41q-20 -10 -41 -30.5t-32 -38 t-28.5 -49.5t-23.5 -42q-94 -152 -138 -227.5t-105.5 -218t-86.5 -264.5q-24 -114 -24 -204v-7z" />
<glyph unicode="e" horiz-adv-x="800" d="M-2118 -719q27 213 207 326q137 87 326 86q118 0 256 -33q70 -16 152.5 -46t135 -52.5t151.5 -66.5t138 -60q68 156 152 235q121 111 264 113h13q101 0 155 -59q43 -44 43 -106q0 -32 -12 -69q-29 -92 -111 -145q-95 -61 -294 -61h-31q-41 0 -54 -13q-6 -6 -10 -24 q-7 -36 -7 -73q0 -68 24 -141q36 -112 116 -196q88 -92 217 -112q40 -6 79 -7q85 0 161 31q248 88 350 336q14 37 25.5 82t14.5 71.5t9 87t8 76.5q8 76 16.5 215.5t14.5 198.5q3 23 11 99q8 68 7 93v5q-1 24 -12 100q-27 -16 -78 -55t-81 -58q-86 -49 -165 -49q-16 0 -32 2 q-49 8 -78 35q-29 29 -33 82q-2 18 -2 37q0 80 35 166q55 131 164 248.5t231 158.5q54 17 95 17h4q59 -4 90 -41q18 -18 21 -44t-11 -42q-43 53 -72 65q-26 12 -54 12q-42 0 -89 -28q-96 -53 -205 -303q-35 -84 -35 -149q0 -37 11 -68q20 -57 65 -66q6 -2 13 -2q27 0 61 25 q113 70 203 194q18 23 28 31q25 20 47 31q35 12 48 8q4 -2 9 -6t7 -4q2 -2 10 -7.5t10 -9.5t2 -28v-31q2 -10 0 -19q-2 -14 -26 -67q-78 -195 -107 -623q-18 -313 -123 -502q-63 -115 -171.5 -199.5t-241.5 -125.5q-106 -34 -208 -34q-46 0 -91 7q-115 20 -214.5 96 t-150.5 181q-57 119 -61 288q0 37 -10 54q-8 14 -39 30q-254 141 -531 209q-146 35 -262 35q-140 0 -235 -51q-78 -41 -127.5 -111.5t-57.5 -152.5q-1 -12 -1 -23q0 -74 33 -147q38 -84 110 -142q72 -60 167 -78q39 -8 75 -7q54 0 104 16q47 12 79 45q29 37 29 86q0 6 -1 14 q-5 58 -42 107q-41 -41 -80 -41q-19 0 -37 10q-23 14 -28.5 42t6.5 48q18 37 66 45q14 2 26 2q32 0 61 -14q78 -41 101 -139q5 -26 5 -51q0 -95 -77 -158q-61 -51 -176 -66q-49 -7 -94 -7q-174 0 -289 101q-71 59 -99 149q-20 63 -20 127q0 27 4 54zM-623 -588 q62 -11 125 -10q74 0 148 14q51 10 102 62q39 35 42 95v10q0 54 -30 95q-16 25 -40 31q-48 12 -87 12q-65 0 -106 -34q-105 -85 -154 -275z" />
<glyph unicode="f" horiz-adv-x="1984" d="M-498 -1198q0 215 248 426q127 106 373 219q12 6 51 26.5t62 30.5q23 63 45 227.5t24 172.5q40 212 60 372v3q-129 -166 -277 -166h-18q-70 8 -99 53q-18 29 -18 76q0 29 6 57q29 152 141 274q96 106 248 175q49 20 78 20h4q23 0 42.5 -13.5t19.5 -33.5q-4 -14 -29 -14 h-6q-143 0 -248 -129q-106 -125 -107 -285v-14q0 -43 17.5 -75t50.5 -32h4q23 2 59 31q109 92 201 282q4 8 21 68q14 41 55 47h4q31 0 31 -49q0 -14 -2 -30.5t-5 -32t-3 -21.5q-2 -14 -43 -354q-4 -31 -15 -43q-2 -2 -19.5 -16.5t-17.5 -24.5q0 -8 9 -17q4 -4 13 -9t11 -11 q2 -4 0 -16.5t-6 -25.5t-4 -18q-33 -184 -55 -368v-6l4 -4q16 -4 22 -5q4 0 70 17q178 37 338 102q188 76 366 264q49 53 62 99q-8 12 -53 26q-133 37 -226 136q-112 118 -112 269q0 165 143 257q107 69 224 69h3q37 0 78 -10q156 -45 156 -243v-29q0 -74 -43 -234 q-6 -18 -25.5 -65t-25.5 -74q0 -6 -9 -35q8 -25 47 -24q33 0 125 30q172 59 299 194.5t162 315.5q8 45 8 66q0 57 -23.5 97t-68.5 42h-2q-31 0 -57.5 -25.5t-28.5 -56.5q0 -20 -7 -31.5t-22 1.5q-12 14 -12 38.5t12 47.5q40 65 129 65h3q88 0 135 -65q39 -51 39 -131 q0 -45 -13 -89q-35 -133 -136 -250.5t-226 -191.5q-121 -72 -365 -106q-4 0 -6 -1t-6 -1t-7 -1.5t-7 -1.5q-188 -215 -332 -305q-68 -41 -151 -76.5t-130 -51t-166.5 -47.5t-152.5 -42q-35 -10 -43 -47q-8 -39 -21.5 -127t-28 -153.5t-36.5 -124.5q-94 -248 -408 -426 q-96 -53 -174 -54h-14q-86 0 -139.5 70t-53.5 166zM-381 -1237q16 -37 19 -47q23 -57 83 -88q16 -10 39 -10q25 0 43 10q322 147 375 450q12 74 41 330q0 3 -4 23q-31 -4 -111 -39q-80 -37 -274 -158q-125 -76 -195 -227q-34 -74 -34 -140q0 -55 18 -104zM944 444 q0 -125 114.5 -229.5t235.5 -122.5q16 0 25 14q61 121 61 283q0 43 -2 64q-14 221 -102 266q-25 12 -53 12q-35 0 -72 -16q-90 -37 -139 -99q-68 -80 -68 -172z" />
<glyph unicode="g" horiz-adv-x="751" d="M-823 -1282q0 53 14 115q55 252 245.5 447.5t432.5 238.5q92 16 235 16h86q20 0 58 4q2 4 9 17.5t9 21.5q8 29 48 186.5t53 210.5q4 12 5 19.5t2 9.5t2 6t3 11.5t6 21.5t15.5 45t17.5 54.5t6 45.5q-10 0 -14 -2q-187 -149 -328 -149h-2q-68 0 -105.5 38t-37.5 105 q0 129 129 320q68 102 163 171.5t197 69.5q20 0 31 -2q53 -10 59 -65q0 -20 -18 -27q-8 -2 -15.5 4t-15.5 16.5t-12 12.5q-16 6 -31 6q-49 0 -115.5 -53t-105.5 -103q-135 -170 -135 -288q0 -100 94 -101q84 0 205 90q35 27 113.5 95.5t125.5 101.5q18 10 31 -6q2 -6 2 -16 q0 -16 -12 -46q-186 -459 -246 -727q-2 -6 -25 -94q10 -27 41 -26q74 -4 246 -60q473 -158 815 -158h15q166 0 284 64q88 49 138.5 129t50.5 166q0 104 -82 190q-53 53 -181 54q-47 0 -67 -4q-55 -12 -100.5 -50.5t-45.5 -87.5v-14q6 -43 46 -45q4 0 8 -2t8 -2 q4 -12 -7.5 -18.5t-27.5 -6.5h-16q-33 0 -45 21q-18 27 -19 57v23q25 96 119 139q78 33 166 33q49 0 135 -17q119 -27 188 -125q51 -76 52 -159q0 -92 -58 -156q-100 -113 -261 -166t-324 -53h-21q-43 0 -92 4t-81 7t-93.5 14.5t-80.5 14.5t-91 18t-82 18q-76 16 -244 69 t-260 68q-39 4 -53 -2q-6 -4 -21 -39q-8 -27 -41.5 -134.5t-47 -146.5t-47.5 -131t-60.5 -141t-66.5 -121t-85 -127t-98 -104q-178 -166 -326 -166h-18q-82 0 -159 37.5t-126 103.5q-59 82 -63 211zM-717 -1270q0 -82 31 -149q35 -76 99.5 -119t142.5 -43q80 0 159 49 q162 106 287 346q160 303 227 631q2 6 3 21.5t1 23.5h5q-18 6 -33 6q-102 4 -156 4q-180 0 -295 -59q-166 -86 -289.5 -247t-166.5 -345q-14 -68 -15 -119z" />
<glyph unicode="h" horiz-adv-x="774" d="M-2525 -799q0 221 364 385q272 125 625 125q68 0 136.5 -4t151.5 -15t134 -17.5t151.5 -27t132 -26.5t150.5 -31.5t135 -29.5q41 -10 70 -11q4 0 11 1t9 1q53 8 124 79t112 85q23 6 45 6q66 0 111 -45t45 -110q0 -20 -7 -43q-35 -96 -155 -115q-12 -2 -39 -2 q-70 0 -164 33q-37 12 -55 6q-25 -6 -41 -51q-18 -45 -39 -90t-28 -59.5t-14 -41t-8 -51t-1 -72.5q0 -113 37 -243q27 -102 108.5 -181t177.5 -79h25q80 0 152.5 34.5t109.5 98.5q111 184 137 323q39 217 79 554t81 556q-27 -12 -170 -84q-37 -20 -84 -20q-61 0 -84 41 q-39 78 -39 141v21q0 281 318 473q92 55 172 55q59 0 100 -33q29 -23 29 -61q0 -37 -31 -41v8q0 31 -27.5 53.5t-60.5 22.5q-55 0 -119 -60q-23 -20 -72 -58t-67.5 -57.5t-48 -62.5t-47 -104.5t-31.5 -151.5v-10q0 -61 28 -84q16 -14 37 -14q14 0 31 4q119 23 193 135 q18 29 56 101.5t64 107.5q41 49 72 49q18 0 33 -16q10 -14 10 -30.5t-18 -57.5q-96 -209 -150 -416q-51 -195 -77.5 -490t-59.5 -452q-51 -252 -189 -406q-61 -68 -146 -108.5t-173 -40.5q-66 0 -127 24q-145 63 -219 189q-90 154 -90 311q0 61 12 129q10 61 31.5 115.5 t39.5 87.5l66 115q0 7 -152 53q-156 47 -194 57q-340 84 -602 84q-375 0 -694 -170q-70 -37 -150 -103.5t-106 -121.5q-4 -10 -15.5 -28.5t-17.5 -34t-6 -27.5q0 -18 14 -31q-33 -20 -53 -20q-23 0 -35 20q-14 16 -14 55zM-383 -473q4 -4 7 -8t5 -7.5t5.5 -5.5t5.5 -2 q76 -12 231 -28h4q47 0 47 78v18q-4 47 -34.5 73.5t-71.5 26.5t-74 -24q-19 -15 -125 -121z" />
<glyph unicode="i" horiz-adv-x="706" d="M-958 -956q0 283 251 516q121 115 250 125q4 0 12.5 1t12.5 1q68 0 132 -32t103 -89q41 -59 41 -135q0 -92 -61 -142q-26 -22 -56 -22h-3q-14 0 -21 2q-20 6 -33.5 24.5t-13.5 38.5v11q6 27 39 26q23 0 31 -18q2 -2 5 -14.5t7 -17.5t10 -7q16 -8 31 20q18 41 18 90 q0 55 -26 109q-53 104 -156 121q-12 2 -35 2q-90 0 -188 -76q-180 -147 -234 -385q-24 -96 -24 -172v-6q0 -131 96 -262q102 -139 330 -168q37 -4 53 -4q250 0 418 315q119 225 137 457q25 354 61 530q8 49 9 60q0 35 -39 34q-16 0 -27 -2q-4 0 -16.5 -1t-16.5 -1 q-84 0 -135 45q-63 61 -63 168q0 6 1 16.5t1 14.5q10 123 94 268q121 203 272 232q10 2 31 2q55 0 95 -28.5t40 -76.5q-12 -2 -43 33q-25 27 -65 27q-35 0 -62 -12q-111 -47 -173 -166t-75 -265q-2 -12 -2 -36q0 -92 49 -134q24 -22 63 -22h3q47 0 86 35q31 31 74 124 t92 160.5t115 67.5h6q14 0 24.5 -11.5t10.5 -27.5q0 -12 -5 -18q-29 -51 -45 -70q-41 -49 -84 -174t-63 -215q-27 -117 -46.5 -230.5t-41 -261t-31.5 -209.5q-43 -283 -151 -434q-175 -245 -483 -245h-3q-96 0 -200 28q-147 43 -234 146q-43 51 -94 143t-53 154q0 8 -1 22 t-1 21z" />
<glyph unicode="j" horiz-adv-x="876" d="M-356 1372q0 168 110 291q74 80 183 129q82 37 145 37q43 0 78 -14q82 -33 100 -109q4 -12 4 -39q0 -55 -39 -119q-33 -55 -78 -55q-12 0 -20 4q-37 16 -23 49q0 14 15 4q8 -4 24 -4q31 0 50.5 25.5t19.5 60.5q0 51 -31.5 94t-79.5 56q-25 4 -36 4q-88 0 -169 -82 t-122 -176q-45 -104 -45 -207q0 -117 63 -193q49 -57 123 -98q78 -43 168 -43q49 0 111 10q29 4 50 28t29.5 45.5t19.5 62.5t15 53q117 328 205 491q47 86 104 86h7q43 0 80.5 -21.5t46.5 -58.5q4 -12 4 -36q0 -37 -35 -142q-115 -354 -313 -448q-47 -23 -64 -78 q-154 -502 -199 -639q-2 -2 2 -16q20 10 43 45q47 90 162 182q70 53 117 53q37 0 66 -26q49 -45 49 -160q0 -45 -14.5 -137.5t-14.5 -139.5q0 -37 10 -82q12 -43 43 -16q37 33 88 127q23 41 59 92t90 119t68 86q14 14 21 10q14 -6 0 -24q-37 -66 -134.5 -205t-131.5 -197 q-20 -35 -58.5 -62.5t-77.5 -27.5q-35 0 -59 23q-35 29 -35 108q0 2 17 141q32 205 32 271q0 59 -36 59q-10 0 -31 -10q-39 -23 -78 -61.5t-61.5 -67.5t-64.5 -87t-54 -75q-29 -39 -64 -143.5t-69 -145.5q-12 -14 -31 -24q-12 -6 -21 -6q-28 0 -28 59q0 20 3 45t3 29 q8 70 65 246q18 59 56.5 177.5t56.5 178.5q2 6 20.5 74.5t37 128t22.5 59.5q-6 0 -15.5 1t-13.5 1q-39 -6 -78 -6q-150 0 -277.5 88t-168.5 231q-16 59 -16 117zM397 1112q135 53 209 236q39 90 68 188q29 104 29 130q0 25 -11 42q-8 14 -22 14q-43 0 -135 -200 q-80 -174 -113 -308q-2 -4 -6 -30.5t-9.5 -49t-9.5 -22.5z" />
<glyph unicode="k" horiz-adv-x="870" d="M-63 -133q0 57 10 133t10 129q2 72 19.5 210t19.5 159q23 248 70 581q31 211 81 414q25 90 35 111q6 14 24.5 53t26.5 61q31 86 66 123q14 18 31 27q14 6 41 6q80 0 86 -43q2 -18 -8 -41q-8 -23 -18.5 -73t-18.5 -72q-49 -145 -111 -248q-47 -78 -76 -166q-6 -16 -16 -27 q-4 -4 -12.5 -8t-12.5 -8q-2 -2 -8 -5t-8 -5t-4 -7.5t4 -9.5q2 -2 15.5 -8t15.5 -12t-4 -27q-4 -16 -15 -88q-59 -426 -78 -721q25 8 48 39q41 55 109.5 105.5t123.5 50.5h2q39 0 63.5 -20.5t35 -60.5t13.5 -74t3 -83v-31q0 -6 -1 -28.5t-1 -36.5q0 -113 45 -113q25 0 71 41 q59 53 142.5 172t120.5 160q8 12 46 57t46 45l2 -2v-4q0 -20 -64 -108q-110 -168 -305 -377q-4 -4 -21.5 -23.5t-29.5 -33t-32.5 -25.5t-39.5 -12q-14 0 -22 4q-43 20 -54 127q-10 72 -10 176q0 6 2 35.5t2 50.5q0 125 -49 125q-10 0 -84 -55q-70 -59 -100 -103 q-47 -68 -62 -197q-6 -53 -26.5 -122.5t-26.5 -120.5q-4 -39 -13 -53.5t-36 -16.5q-63 6 -63 74zM225 1348l11 -15q10 18 31.5 55t35.5 66t25 57q41 104 43 109q31 59 43 184q-6 -2 -13.5 -3t-7.5 -3q-92 -164 -108 -201q-41 -90 -60 -249z" />
<glyph unicode="l" horiz-adv-x="956" d="M-14 55q0 70 32 193q27 115 66 244q10 39 109.5 404.5t158.5 551.5q27 90 83.5 251t68.5 199q53 147 55 152q45 84 103 84h4q73 0 73 -160q0 -55 -9 -101t-26.5 -106.5t-23.5 -87.5q-45 -164 -162 -446q-6 -12 -26.5 -59.5t-28.5 -63.5t-28.5 -55t-34 -60.5t-35 -49 t-43.5 -48.5q-39 -31 -39 -33q-6 -8 -9.5 -26.5t-3.5 -20.5q-4 -27 -32 -112q-16 -41 -40 -122t-34 -114q-2 -6 -8 -21.5t-10.5 -30t-4.5 -26.5q0 -16 9 -26q2 -4 8 -4.5t12 5t14.5 14.5t13.5 16t11 18l6 8q49 63 143 158q84 84 162 114q61 25 105 25q45 0 73 -21 q51 -35 56 -135q0 -18 -3 -54t-3 -54q0 -27 -7 -37q-6 -8 -22 -17q-20 -12 6 -28q16 -16 18 -25q2 -12 2 -35v-34q0 -41 -4 -119t-6 -119q0 -129 78 -213t205 -84q43 0 47 -2q29 -14 12 -37q-4 -6 -39 -12q-45 0 -90 16q-160 51 -249 190.5t-89 346.5q0 20 1 63t1 64 q-2 37 -2 112q0 6 1 16.5t1 16.5q0 35 -12 55q-14 25 -47 25q-47 0 -102 -35q-55 -31 -156 -131q-43 -39 -82 -82q-55 -59 -70 -84q-16 -29 -41 -94q-6 -27 -26.5 -76t-26.5 -80q-2 -6 -3 -24.5t-6 -28.5t-17 -10l-3 2h-6q-18 0 -22 4t-4 25v28q0 8 -1 22.5t-1 20.5z M371 1130q29 29 100 158q18 33 78 178q4 14 31.5 78t37.5 101q37 137 44 184q4 35 8 96q6 37 4 47q-4 29 -19 33q-45 -63 -81.5 -143t-67.5 -184.5t-48.5 -173t-47 -199t-39.5 -175.5z" />
<glyph unicode="m" horiz-adv-x="1138" d="M-66 -86l3 14q106 485 124 559q14 57 36 172t36 170q12 47 40 166t50.5 204t48.5 163q74 219 119 295q96 160 236 160h6q90 0 90 -97q0 -27 -23 -139q-74 -348 -266 -631q-18 -25 -102 -136.5t-121 -176.5q-10 -18 -20.5 -38.5t-18.5 -44.5t-13 -40t-12.5 -46t-10.5 -41 t-10 -46t-9 -43l-43 -191q-4 -16 0 -20q14 -16 35 14q115 180 370 357q102 67 183 67h2q75 0 75 -74q0 -37 -16 -75q-18 -49 -43 -103.5t-56.5 -120t-48.5 -102.5q-67 -143 -67 -213q0 -29 10 -59q18 -45 64 -86q115 -102 260 -103q63 0 129 25q102 41 170 125q76 98 86 168 q0 4 1 10t1 10q0 76 -58.5 139.5t-130.5 63.5q-23 0 -34 -4q-55 -16 -74 -68q-8 -23 -8 -35t8 -12q6 0 34.5 11.5t43.5 11.5q18 0 26 -13q25 -25 -4 -55q-22 -22 -60 -22h-3q-45 0 -72 26q-16 18 -16 51q0 13 4 33q16 68 66 101.5t116 33.5q96 0 175 -63.5t79 -159.5 q0 -117 -103.5 -225.5t-222.5 -161.5q-70 -31 -153 -31q-96 0 -188.5 39t-155.5 109q-68 72 -88 192q-4 25 -4 35q0 53 59 193q43 104 86 194q2 4 12 22.5t17.5 32t13.5 33t6 33.5q0 20 -10 31q-18 20 -58 -6q-287 -186 -391 -365q-86 -143 -129 -213q-25 -39 -45 -59 q-12 -12 -18 -13q-14 0 -15 41v27zM227 813q178 291 332 612q53 115 53 183q0 18 -6 32q-12 20 -41 21q-8 0 -20 -4q-20 -8 -49 -45q-51 -68 -94.5 -165t-61.5 -157.5t-55 -183.5q-55 -201 -58 -293z" />
<glyph unicode="n" horiz-adv-x="1300" d="M-70 -80q10 96 33 194.5t66 239t55 189.5q229 829 403 1226q16 41 64 41q20 0 39 -12q6 -2 20 -22q27 -47 27 -109q0 -31 -7 -68.5t-13.5 -63.5t-19.5 -69t-17 -57q-45 -172 -144 -381q-2 -4 -14 -31.5t-15.5 -35t-15.5 -32t-17 -33.5t-16.5 -31.5t-18.5 -33t-19.5 -29 t-22.5 -30.5t-23.5 -25.5l-25.5 -25.5q-37 -31 -53 -86q-72 -246 -99 -324q-10 -31 -10 -39q0 -14 8 -28q27 10 29 14q23 37 127 145q135 143 272 158h15q43 0 67 -18q45 -35 45 -125q0 -20 -3 -53t-3 -46q0 -18 -5 -24t-24 -16q-6 -6 -6 -9q0 -4 8 -12q25 -16 25 -39v-18 q0 -12 -1 -41t-1 -41q-6 -160 -6 -164q0 -127 82 -188q106 -78 237 -78q100 0 177 46t104 136q10 31 10 76q0 98 -55 172q-33 45 -70 57q-25 8 -37 8q-43 0 -73.5 -31.5t-30.5 -78.5q0 -18 2 -27q18 -59 59 -59h6h11q8 -4 8 -8l-4 -5q-12 -16 -39 -16q-12 0 -29 6 q-33 16 -47 55q-10 27 -10 54q0 63 45 115.5t106 52.5h11q72 0 138 -52.5t95 -123.5q20 -47 21 -103q0 -109 -76 -180q-88 -88 -256 -123q-37 -6 -72 -6q-137 0 -246 78q-156 115 -180 331q-4 27 -4 78q0 18 1 54t1 55q0 10 -1 29.5t-1 29.5q0 8 1 33t1 37q0 74 -47 74h-10 q-98 -10 -197 -109q-127 -121 -149 -147q-49 -51 -84 -183q-25 -83 -68 -114q-12 -8 -22.5 -1t-10.5 21zM297 926q29 31 29 32q25 39 69 121q20 39 52 116t49 110q6 10 51 159q14 39 28 205q0 2 -16 31q-14 -18 -18 -29q-31 -55 -54.5 -113.5t-55.5 -158t-38 -119.5 q-28 -82 -96 -354z" />
<glyph unicode="o" horiz-adv-x="968" d="M-1444 1319q0 39 12 70q27 63 101 108q102 61 250 62q104 0 250 -33q94 -23 278 -69t277 -66q244 -53 426 -54q69 1 151 11q8 0 20.5 26.5t26.5 62.5t17 40q6 14 42.5 95t54 114.5t55.5 88t77 87.5q46 36 117 36h4q123 0 131 -100q0 -4 1 -14t1 -15q0 -145 -107.5 -272 t-248.5 -168q-4 -2 -22.5 -3t-33 -4t-16.5 -9q-43 -74 -62 -121q-74 -180 -280 -832q-4 -16 -2 -28q2 -18 16 -19q16 0 39 23q150 141 203 180q6 4 27.5 20.5t33 24.5t34 22.5t37.5 20.5t35.5 12.5t39.5 6.5q14 0 22 -2q76 -16 76 -127q0 -53 -21 -125q-12 -37 -45.5 -128 t-48.5 -145q-6 -25 -6 -49q0 -43 21 -43q6 0 8 2q31 12 61 35q104 76 357 381q16 20 30 6q10 -25 -18 -57q-168 -213 -320 -351q-37 -37 -71 -55q-20 -10 -49 -10q-45 0 -75 37t-30 88q0 2 1 10t1 10q20 184 74 328q10 31 10 43q0 29 -29 29q-25 0 -55 -15 q-113 -53 -211 -134t-153 -179q-27 -47 -80 -137q-16 -25 -43 -25q-16 0 -17 19q0 164 97 534q20 78 65 211t101.5 294t72.5 208q-8 23 -30 22q-41 4 -64 5q-168 10 -442 51q-90 14 -260 60t-193 52q-168 41 -311 41q-270 0 -340 -159q-10 -27 -10 -54q0 -55 30.5 -98 t79.5 -43q8 0 28.5 4t34 20.5t13.5 36.5q0 8 -2 15q-12 39 -10 43q2 14 20.5 16t30.5 -10q16 -16 16 -43q0 -12 -2 -18q-8 -43 -47 -72t-84 -29q-8 0 -29 4q-63 14 -101 72.5t-38 126.5zM446 1376q41 -2 50 4q10 8 56 40t64.5 46.5t51 43t53 58t35.5 62.5q37 88 37 146 q0 4 -1 11t-1 11q0 25 -25 27q-25 -10 -37 -21q-68 -59 -96 -112q-27 -47 -55 -84q-18 -25 -38 -55.5t-31 -53t-32 -63t-31 -60.5z" />
<glyph unicode="p" horiz-adv-x="1515" d="M-45 18q0 10 4 31q0 2 -1 6t-1 6q0 18 12.5 58.5t12.5 44.5q53 260 71 354q29 180 111 506t90 358q23 100 38 155.5t52 132.5t86 122q45 41 100 41q43 0 65.5 -28.5t22.5 -69.5q0 -39 -14 -82q-63 -203 -131 -344q-27 -55 -89 -155.5t-89 -154.5q-61 -121 -108.5 -373.5 t-73.5 -332.5q39 31 100 106.5t119.5 123.5t130.5 55h16q43 0 73 -23t45 -54.5t23.5 -87t10.5 -95t2 -103.5v-49q0 -57 2 -82q4 -133 82 -268t186 -187q51 -26 112 -26h5q115 0 209 76.5t127 181.5q16 55 16 106q0 106 -55 199.5t-139 120.5q-23 8 -52 8q-59 0 -102 -40 t-43 -97q0 -39 25.5 -67t54.5 -28q12 0 27.5 7.5t17.5 7.5h2q14 0 24.5 -13.5t10.5 -29.5q0 -51 -66 -51q-18 0 -37 6q-109 23 -108 106v17q0 92 35 145q53 92 182 92q23 0 68 -8q115 -27 169 -104q55 -76 56 -195q0 -6 -1 -18.5t-1 -18.5q-8 -127 -75 -234.5t-169 -160.5 q-84 -45 -182 -45q-141 0 -256 84q-43 33 -78 75t-58.5 79.5t-41 98t-26.5 96.5t-17.5 110.5t-10.5 104.5t-5 112t-5 102q-8 104 -61 104q-12 0 -21 -4q-63 -27 -166 -129q-154 -154 -227 -362q-14 -39 -25 -49q-14 -12 -28 -13q-33 0 -33 43zM326 1184zM326 1206q0 -2 1 -8 t1 -10q14 8 16 14q119 188 197 410q4 8 12 26.5t12 30.5t8.5 29.5t4.5 34t-13 34.5q-25 8 -49 -16q-45 -41 -63 -104q-27 -82 -58 -189q-33 -102 -45 -153q-2 -10 -13 -44.5t-11 -54.5z" />
<glyph unicode="q" horiz-adv-x="1570" d="M-47 100q0 16 2 25q16 139 49 294.5t82 346t70 287.5q82 387 204 653q14 35 43 61.5t66 26.5q43 0 69.5 -34t26.5 -83q0 -53 -28 -121q-74 -190 -236 -495q-66 -115 -94 -187q-37 -92 -84 -323q-39 -164 -51 -318q6 4 102 113q10 12 84 119.5t129 150.5q61 47 129 48 q27 0 41 -5q2 0 39 -18q8 -12 14 -25.5t10.5 -29t7.5 -26.5t4 -30.5t1 -28.5t1 -34t1 -33v-16q0 -68 -21 -144q0 -2 -6 -53q-20 -147 -20 -233q0 -289 157 -428q119 -106 275 -107q203 0 358 162q68 74 92 195q4 16 5 49q0 102 -72 170q-62 67 -171 67h-3q-80 0 -142.5 -41 t-78.5 -118q-4 -20 -4 -31q0 -45 24 -78q6 -10 19 -10q10 0 32.5 11t32.5 11q20 0 21 -22q0 -27 -27 -43.5t-59 -16.5q-53 0 -93 35q-41 41 -41 107q0 31 9 55q33 92 118 143.5t185 51.5q133 0 221 -79t88 -225q0 -195 -165 -308t-378 -113q-209 0 -340 120 q-156 141 -180 344q-4 31 -4 95q0 90 23.5 272t23.5 272v43q-4 43 -41 54q-33 -2 -57 -35q-2 -4 -28 -37t-36 -51q-31 -49 -89 -145.5t-87 -143.5q-45 -72 -72 -98q-63 -72 -110 -72q-41 0 -41 57zM281 1120q35 74 102.5 222.5t101.5 224.5q10 23 25 104q2 8 -3 23.5 t-5 19.5q-33 -10 -60 -67q-84 -203 -159 -465q-10 -48 -2 -62z" />
<glyph unicode="r" horiz-adv-x="655" d="M-35 20q0 84 23 216q41 231 59 294q2 8 6 32t8 34q25 53 138 61q29 0 28 -16q2 -10 -6 -35q-2 -6 -16.5 -36.5t-20.5 -47.5q-2 -6 -5 -16t-5 -13.5t-6 -8.5t-10 -8t-17 -7q-16 -8 -8 -20q4 -6 14.5 -14.5t10.5 -16.5q0 -4 -27 -111l-25 -117q-26 -117 -26 -192v-6 q0 -27 2 -41v-8q0 -82 33 -82q8 0 16 4q45 16 102 88q29 33 82 94q27 31 81.5 90.5t83 90t60 70.5t60.5 73q2 4 34 38.5t48 55.5q4 4 14.5 17.5t20.5 23.5t20 10h2q20 -6 -10 -45q-115 -150 -141 -178q-195 -215 -215 -242q-8 -10 -50 -65.5t-62.5 -78t-62.5 -53t-83 -42.5 q-20 -4 -33 -5q-43 0 -68 23q-27 23 -39 76q-10 66 -10 114zM121 911v13q0 29 26 53q16 14 39 14q27 0 45 -22q18 -25 19 -41q0 -23 -29 -51q-25 -25 -49 -25q-10 0 -14 2q-27 2 -37 57z" />
<glyph unicode="s" d="M-61 147q0 27 2 41q4 33 15 66t32.5 84t25.5 61q29 76 99 224l2 4v4q78 155 132 155h1q16 0 31 -16q8 -10 8 -27q0 -14 -13 -43l-141 -344q-63 -156 -63 -235q0 -37 8 -68q35 -143 266 -143q381 4 442 225q8 25 9 58q0 51 -27 94q-41 63 -111 63q-51 0 -88 -39 q-20 -20 -20 -49q0 -20 16 -29q41 -23 41 -39t-18 -28q-20 -14 -35 -14q-47 0 -47 90q0 16 4 37q14 47 52 78.5t85 31.5h12q33 0 95 -33q78 -43 78 -142q0 -101 -66 -181q-82 -102 -242 -137q-88 -18 -172 -19q-106 0 -194 23.5t-153.5 87t-65.5 159.5zM272 1096q0 37 60 88 q16 12 28 12q35 0 35 -59q0 -68 -65 -88q-4 -2 -15 -2q-43 0 -43 49z" />
<glyph unicode="t" horiz-adv-x="2103" d="M-57 109v18q0 248 127 440q10 12 25.5 40t29.5 47.5t31 33.5q49 35 102 35q25 0 25 -16q0 -10 -9 -25q-150 -295 -184 -430q-14 -53 -18 -98q0 -2 -1 -11.5t-1 -15.5q0 -98 20 -139q23 -39 66 -39q16 0 45 8q131 45 350 189.5t323 189.5q229 96 494 131q172 20 234 20 q106 0 249 -28q59 -14 152 -111q45 -51 45 -119q0 -76 -49 -144.5t-119 -88.5q-8 -2 -25 -2q-63 0 -86 47q-6 16 -6 27q0 20 11.5 34.5t29.5 14.5q4 0 17 -4q14 -4 22 -18.5t4 -28.5q-4 -20 -4 -23q8 -33 43 2q49 55 49 141q0 68 -36.5 126.5t-98.5 90.5q-76 41 -219 41 q-438 -2 -840 -219q-14 -8 -46.5 -27.5t-47.5 -27.5q-18 -10 -163.5 -106.5t-221.5 -124.5q-72 -29 -131 -29q-80 0 -129 47q-59 58 -59 152zM147 958q0 33 24 62t52 31h6q43 0 62 -39q6 -12 6 -27q0 -29 -25 -45q-23 -16 -55 -16q-25 0 -47 8q-8 2 -15.5 11t-7.5 15z" />
<glyph unicode="u" horiz-adv-x="1394" d="M-82 193q0 109 49 227q2 6 36 104.5t60 145.5q23 43 60 43h6q29 0 51.5 -27t22.5 -57q0 -13 -6.5 -25t-18.5 -33.5t-16 -29.5q-41 -88 -82 -183q-4 -8 -15.5 -35.5t-17.5 -42t-14 -38t-11.5 -45t-3.5 -41.5q0 -31 9 -56q47 -157 244 -157h3q152 0 269 71q184 115 237 256 q2 4 2 27q-80 14 -139 43q-98 45 -181 143.5t-83 196.5q0 51 24 92q49 86 146 86q53 0 108 -31q66 -35 117 -108q61 -90 68 -160q0 -14 4 -57t4 -66q0 -41 -8 -74q-4 -18 8 -30q8 -8 27 -8q70 0 208 86q113 68 188 174t75 227v29q0 92 -41 151q-53 74 -129 74q-18 0 -35 -6 q-33 -10 -43 -35q-14 -31 12 -51q6 -6 21.5 -12.5t21.5 -10.5q8 -8 8 -20q0 -14 -10 -26.5t-25 -12.5h-4q-37 0 -61 49q-8 18 -8 43q0 41 26.5 76t65.5 45q12 4 37 4q92 0 155 -80q61 -72 62 -188v-21q0 -190 -184 -352q-61 -55 -168 -117q-47 -29 -101 -37q-4 0 -35.5 -4 t-57.5 -8t-28 -12q-12 -35 -39.5 -74t-41 -53.5t-56.5 -61.5q-160 -172 -383 -196q-45 -4 -69 -4q-123 0 -203 57q-117 84 -117 236zM156 881v10q0 31 28 63q14 20 37 20t43.5 -21t20.5 -48q0 -31 -29 -45q-16 -10 -43 -10q-49 0 -57 31zM459 692q0 -135 84 -219l55 -55 q86 -86 190 -86h7q22 43 22 117v6q0 55 -8 96q-25 129 -117 227q-43 47 -125 53q-12 0 -24 -6q-84 -43 -84 -133z" />
<glyph unicode="v" horiz-adv-x="1835" d="M-84 129q0 35 6 70q41 258 211 440q14 18 29 23h8q18 0 38.5 -16.5t20.5 -39.5q0 -14 -19.5 -41.5t-23.5 -36.5q-16 -39 -86.5 -172t-93.5 -213q-2 -6 -2 -18q0 -43 41 -117q18 -27 39 -39q18 -10 49 -10t66 10q106 35 276 153t213 142q358 203 684 203q78 0 154 -12 q92 -14 196 -99q63 -51 76 -139q4 -41 4 -59q0 -174 -103.5 -323.5t-256.5 -149.5q-78 0 -164 47q-47 27 -87 75t-40 101q0 23 8 45q12 37 51 65.5t82 28.5q2 0 8.5 -1t10.5 -1q45 -8 63 -45q6 -12 6 -27q0 -29 -20 -41q-4 -4 -17 -4q-37 0 -47 31q0 2 -4 18.5t-10 21.5 t-18 -1q-66 -14 -66 -84q0 -57 45 -109q75 -81 179 -81h3q115 0 193 88q43 47 70.5 132t27.5 171q0 111 -50 191.5t-157 103.5q-100 18 -139 18q-35 0 -65 -8q-23 -6 -67 -10t-62 -9q-137 -25 -266.5 -82t-322 -173.5t-237.5 -141.5q-137 -76 -205 -76h-18q-129 0 -186 95 q-25 43 -25 106zM211 926q0 59 45 59t82 -47q4 -4 8 -16q0 -12 -10 -19q-31 -31 -74 -31q-51 4 -51 54z" />
<glyph unicode="w" horiz-adv-x="937" d="M-125 -20q0 8 1 20t1 20q12 244 131 506q6 14 27.5 51t27.5 60q18 59 62 59q16 0 27 -4q47 -14 47 -47q0 -18 -15 -51q-18 -33 -51 -102q-12 -27 -17 -61t-18 -60q-27 -61 -32 -66q-2 0 -15.5 -2t-25.5 -4h-15q0 -25 17 -74q4 -29 -7 -57q-40 -128 -40 -226 q0 -126 47 -227q39 -82 94 -123q59 -45 153 -63q43 -6 84 -6q123 0 230.5 56t169.5 155q59 94 59 192q0 37 -14 88q-25 76 -86.5 129.5t-134.5 55.5q-113 0 -168 -56q-35 -39 -35 -96q0 -33 12 -63q33 -80 94 -80h7q6 0 14 4q0 2 2 4t2 7t-1 11.5t-1 8.5q0 18 13.5 30.5 t29.5 12.5q4 0 16 -5q29 -12 29 -45q0 -18 -10 -28q-6 -6 -29 -17q-25 -8 -61 -8q-76 0 -119 45q-45 49 -45 123t47 119q70 70 203 70q96 0 166 -43q66 -41 103.5 -116t37.5 -155q0 -18 -4 -51q-29 -162 -197 -281q-156 -104 -326 -104q-20 0 -65 4q-109 14 -205 74.5 t-149 152.5q-68 115 -68 263zM147 874q0 27 28 43.5t56 16.5h5q23 0 35 -16.5t12 -38.5q0 -62 -78 -62q-39 0 -53 41q-4 12 -5 16z" />
<glyph unicode="x" horiz-adv-x="366" d="M-797 -1188q0 61 39 152q84 190 215 352q70 90 142 156q2 2 65.5 55t83.5 86q66 102 100 272q12 57 98.5 363.5t96.5 363.5q2 6 8 45t10.5 52.5t16.5 36t33 34.5q27 12 43 8q34 -8 34 -64q0 -23 -2 -34q-16 -96 -120.5 -471t-120.5 -473q-2 -4 -2 -8q197 135 436 135 q289 0 434 -192q82 -109 82 -259q0 -117 -55 -231q-61 -125 -211 -238.5t-289 -113.5q-127 0 -207 106q-49 63 -49 154q0 111 68 180q59 68 131 68h6q82 0 119 -70q10 -25 10 -45q0 -61 -47 -86q-16 -8 -27 -2q-14 10 12 51q6 12 6 27q0 49 -43 65q-16 4 -24 4 q-43 0 -76 -32q-43 -49 -43 -129q0 -84 43 -142q61 -88 187 -88q76 0 141 37q141 80 209 289q35 111 35 201q0 66 -13 106q-31 117 -129 199t-221 104q-39 6 -82 6q-203 0 -375 -133q-35 -25 -53 -51q-18 -29 -31 -94q-61 -301 -151 -502q-33 -74 -51.5 -113t-56.5 -103.5 t-81 -106.5t-94 -64q-45 -20 -88 -21q-125 0 -156 109q-6 25 -6 49zM-692 -1130q0 -55 29.5 -89t74.5 -34q51 0 99 45q41 35 79 123q31 70 56.5 147.5t55.5 180t44 151.5q2 6 7 35.5t9.5 56.5t8.5 29q-6 -4 -19.5 -13.5t-19.5 -13.5q-172 -113 -298 -277.5t-126 -340.5z M106 1100q0 35 35 69q4 4 13.5 12.5t16.5 13.5t15 5q4 0 9 -2q20 -4 24 -53q0 -15 4 -27q0 -29 -23.5 -51.5t-52.5 -22.5h-6q-8 0 -18 11q-16 18 -17 45z" />
<glyph unicode="y" horiz-adv-x="444" d="M-1116 -1802q0 281 256 610q287 367 512 526q133 92 155 197q33 147 139.5 527t141.5 544q7 29 21 60q10 18 14 24t14 16.5t23.5 16.5t32.5 10q2 0 6 1t6 1q41 0 41 -61q0 -27 -6 -41q-279 -932 -308 -1030q4 -6 8.5 -10.5t9.5 -4.5t8 1l9 3t8 2t11 4q223 186 520 232 q100 14 178 14q150 0 266 -43q109 -39 183 -112q12 -12 33.5 -45t43 -55.5t47.5 -24.5q14 -2 54 8q180 55 372 80q59 8 146 8q338 0 418 -166q18 -41 18 -74q0 -57 -33 -92q-33 -37 -88 -37q-43 0 -69 27q-6 2 -7 10q-2 6 0.5 10t9.5 9.5t11 6.5t14 5q49 18 49 82 q0 25 -14 53q-33 57 -129 88q-111 33 -237 33q-242 0 -478 -105q-29 -12 -39 -26q-8 -12 -12 -43q-27 -221 -117 -342q-53 -70 -129.5 -113t-158.5 -43h-25q-98 12 -135 76q-14 27 -14 61q0 66 45 131q53 78 133 131.5t202 112.5q61 31 70 64q2 6 2 16q0 41 -51 84 q-14 12 -47 41t-43 36t-37 25.5t-45.5 23.5t-51 15.5t-71.5 14.5t-92 8q-16 2 -47 2q-238 0 -502 -148q-12 -6 -192 -129q-43 -29 -54 -67q-25 -80 -118 -418t-152 -516q-43 -129 -70.5 -199.5t-89 -169t-137.5 -155.5q-113 -82 -207 -82q-78 0 -137 53q-76 70 -86 197 q-2 16 -2 51zM-1047 -1784q0 -66 19 -131q20 -74 94 -117q18 -11 40 -11q10 0 22 3q178 41 243 185q92 197 183 516q55 190 163 616v51q-8 -6 -25.5 -18t-23.5 -19q-10 -8 -33.5 -32.5t-37.5 -36.5q-55 -45 -112.5 -105.5t-95.5 -106.5t-100.5 -123t-93.5 -114 q-141 -170 -223 -438q-18 -61 -19 -119zM203 1030q-1 47 30 74q29 33 80 33q66 0 66 -68q0 -43 -28.5 -84t-67.5 -41q-29 0 -58 29q-23 23 -22 57zM764 -911q0 -18 8 -33q21 -47 84 -47h4q129 0 223 151q63 106 64 252q0 12 -17 25h-2q-8 0 -30.5 -13.5t-26.5 -17.5 q-158 -82 -242 -192q-2 -2 -19 -26t-23.5 -34t-14.5 -29.5t-8 -35.5z" />
<glyph unicode="z" horiz-adv-x="2236" d="M-969 -1319q0 262 242 574q268 344 479 493q90 63 117 189q33 141 117.5 428.5t117.5 439.5q10 53 37 78.5t82 40.5q2 0 6 1t7 1q36 0 36 -55q0 -28 -6 -42q-39 -131 -117.5 -393t-119.5 -393q-8 -33 -11 -45q10 -18 39 -8q4 0 9 4q209 172 489 217q80 12 164 12 q145 0 254 -41q100 -35 172 -104q12 -12 31.5 -43t40 -51.5t45.5 -24.5q16 -2 49 10q172 51 350 74q86 8 135 8q317 0 395 -155q16 -33 17 -68q0 -51 -31 -88q-31 -35 -82 -35q-39 0 -67 25q-20 20 28 39q45 14 45 75q0 31 -12 52q-31 55 -121 81q-98 31 -223 31 q-227 0 -451 -98q-29 -14 -34 -25q-8 -10 -13 -41q-23 -199 -110 -319q-111 -150 -269 -150q-4 0 -12 1t-12 1q-92 12 -127 72q-14 27 -15 59q0 59 43 121q35 51 92.5 96.5t100.5 70t123 63.5q55 27 65 59q2 6 2 16q0 39 -47 78q-133 115 -426 154q-37 4 -55 4 q-68 0 -143.5 -23.5t-122.5 -47t-131 -70.5q-8 -4 -183 -121q-39 -29 -49 -64q-31 -98 -115.5 -405t-140.5 -471q-41 -125 -65.5 -188.5t-83 -158t-129.5 -147.5q-104 -78 -193 -78q-72 0 -129 52q-72 66 -82 186q-2 16 -2 47zM-903 -1305q0 -49 18 -118q20 -72 86 -111 q25 -16 60 -8q178 43 229 172q8 23 23 47q47 111 93 251t71.5 236.5t71.5 275.5t67 255v47q-8 -6 -18.5 -12t-16.5 -11.5t-12 -9.5q-10 -10 -32 -32.5t-34 -32.5q-51 -43 -107.5 -101.5t-89 -97.5t-95 -117t-87.5 -106q-127 -154 -209 -412q-18 -59 -18 -115zM231 1208 q0 43 29 68q31 31 76 31q61 0 61 -64q0 -41 -27.5 -79t-62.5 -38q-27 0 -53 27q-23 20 -23 55zM799 -483q0 -16 6 -31q21 -43 80 -43h4q121 0 209 143q59 96 59 236q0 8 -14 22h-2q-8 0 -31 -12l-25 -14q-35 -20 -104 -66q-66 -43 -123 -117q-59 -82 -59 -118z" />
<glyph unicode="{" horiz-adv-x="1884" d="M-49 268q0 35 6 74q20 121 92 226.5t178 168.5q49 31 88 31h7q25 0 45 -17t22 -42q-20 14 -47 14q-35 0 -59 -18q-41 -25 -74 -89q-84 -150 -84 -319v-31q0 -88 35 -151q53 -104 143 -105q18 0 27 2q61 12 121 88q37 47 77 125q18 29 -10 47q-84 57 -84 162 q0 53 30 105.5t73 74.5q25 12 43 13q66 0 65 -140q0 -35 -2 -49q0 -25 -8 -73q-6 -20 -5 -33t17 -21q88 -45 205 -45q133 0 313 64q311 106 475 391q104 182 105 352q0 137 -76 219q-106 117 -276 117q-39 0 -84 -10q-113 -25 -199 -119t-86 -205v-12q0 -63 41 -115.5 t102 -54.5q20 0 35 8q4 4 25 39q25 45 59 45h4q18 0 31.5 -14.5t13.5 -32.5q0 -16 -22 -39q-63 -51 -144 -51q-29 0 -63 10q-61 18 -101 70.5t-40 115.5v15q0 123 89 229.5t212 147.5q66 23 149 22q90 0 176 -28q264 -94 264 -355q0 -205 -151.5 -422t-335.5 -293 q-166 -68 -288 -99.5t-255 -31.5q-125 0 -237 27q-86 -209 -250 -276q-57 -23 -117 -23q-78 0 -135 35q-135 82 -135 276zM506 477q0 -31 18 -77t51 -46q4 0 19.5 54.5t15.5 62.5v23q0 49 -14 65q-12 14 -27 14q-23 0 -43 -29.5t-20 -51.5v-15z" />
<glyph unicode="|" horiz-adv-x="2185" d="M-70 283q0 45 13 84q20 63 44.5 110t42 69.5t64.5 76.5q43 49 108.5 78.5t131.5 29.5q23 0 59 -8q20 -10 21 -27q4 -16 4 -26q0 -35 -25 -35q-10 2 -26 18q-25 23 -56 23q-59 0 -118 -70q-109 -131 -109 -364v-39q0 -100 37 -162q37 -59 102 -59q70 0 144 55 q59 43 102 102q4 8 23.5 28.5t33 39t13.5 33.5q0 10 -3.5 17t-10.5 15.5t-9 10.5q-4 4 -11 15t-11 15q-51 63 -52 156q0 51 19 98q16 43 50 80t71 37h8q76 -10 76 -131q0 -115 -48 -234q16 -4 21 -4q74 14 158 50t131 63t143 86q35 20 163 96t198 117q53 33 196 70 q88 20 162 20q8 0 20.5 -1t20.5 -1q98 -8 182 -72q180 -131 180 -358q0 -33 -2 -49q-16 -186 -106 -346q-84 -156 -187 -236q-94 -78 -243 -106q-8 -2 -25 -2q-20 0 -108 20q-61 14 -110.5 59.5t-72.5 106.5q-18 55 -18 109q0 92 45 168.5t115 99.5q23 8 51 8 q53 0 100 -30.5t70 -80.5q12 -29 12 -53q0 -14 -2 -20q-12 -47 -61 -62q-8 -4 -27 -4q-29 0 -39 19q-6 12 -6 20q0 27 45 66q25 12 25 30q0 6 -9 19q-43 59 -112 59q-10 0 -31 -4q-53 -12 -88 -66.5t-35 -121.5q0 -33 4 -49q16 -90 78 -147.5t158 -57.5q14 0 47 4 q115 10 201 69q96 66 182 232q82 154 100 280q4 23 4 68q0 195 -123 289q-57 45 -86 63q-63 41 -157 41q-98 0 -213 -37q-90 -27 -264 -137q-35 -23 -207 -143q-121 -90 -172 -117q-14 -8 -56.5 -32.5t-65 -37t-58 -25.5t-66.5 -18q-9 -2 -25 -2q-8 0 -34.5 -1t-34.5 -1h-2 q-4 -23 -88 -118q-147 -174 -301 -174h-19q-102 0 -166 92q-80 119 -80 254zM492 483q0 -57 21 -103t58 -58q47 78 47 196v17q0 47 -16 81q-2 4 -10 11.5t-10 11.5q-90 -25 -90 -156z" />
<glyph unicode="}" horiz-adv-x="1714" d="M-35 231q0 35 6 72q23 141 109 258t217 170q33 16 141 17q49 0 51 -13q0 -12 -20 -16q-123 -18 -162 -51q-74 -61 -151 -207q-16 -31 -26.5 -38t-45.5 -9q0 -12 12.5 -36t12.5 -36t-8.5 -39t-10.5 -33q-10 -57 -10 -108q0 -201 137 -201q37 0 84 19q109 41 172 133 q8 8 8 18q0 8 -18 27q-106 90 -107 217q0 4 1 11t1 11q8 66 50.5 120t105.5 81q31 12 64 12q45 0 69 -24q27 -27 27 -78q0 -20 -2 -31q-18 -139 -88 -266q-16 -31 8 -41q180 -80 397 -80q125 0 246 25q164 31 285.5 112.5t134.5 214.5v19q0 94 -65.5 167.5t-170.5 73.5 q-84 0 -143 -53t-59 -127q0 -27 21.5 -57.5t47.5 -30.5h2q27 4 31 25v10t2 10q2 12 17.5 16.5t27.5 -3.5q27 -12 18 -46q-12 -51 -98 -51q-49 0 -84 23q-47 31 -47 104q0 96 76 170t182 74q117 0 208 -79t91 -198q0 -115 -84 -213q-109 -119 -328 -176q-176 -47 -358 -47 q-186 0 -381 51q-8 2 -22 2q-20 0 -37 -16q-47 -51 -78 -79.5t-91.5 -58.5t-123.5 -30q-41 0 -80 17q-76 35 -120 112.5t-44 179.5zM461 362q0 -49 28 -86q2 -2 26 -28.5t24 -30.5q55 84 77 160q25 74 25 115q0 29 -11.5 51t-31.5 22q-16 0 -33 -14q-104 -84 -104 -189z" />
<glyph unicode="~" horiz-adv-x="2633" d="M-20 279q0 143 61 268q20 43 70.5 95t95.5 81q23 14 61.5 25.5t67.5 17.5l26 4q14 0 25.5 -8t11.5 -17q0 -6 -7 -10t-18.5 -7t-15.5 -5l-20 -4q-20 -4 -44 -14.5t-44 -26.5q-59 -45 -88 -132t-29 -177q0 -262 113 -303q25 -8 35 -9q14 0 29.5 4.5t30.5 16.5t23.5 18 t28 25.5l21.5 21.5q88 84 127 150q8 8 8 14q2 16 -29 29q-127 59 -127 172q0 68 48 123t114 55q57 0 94 -39t37 -92v-18q0 -37 -22 -131q-4 -16 -5 -21q0 -33 39 -33q14 0 31 6q98 27 291.5 81.5t290.5 80.5q426 121 665 121q160 0 287 -39q150 -47 249 -145.5t99 -255.5 q0 -106 -49 -199q-96 -180 -309 -248q-86 -27 -168 -26q-203 0 -316 131q-70 80 -69 170q0 141 164 211q57 22 100 22t78 -24.5t35 -67.5q0 -37 -24.5 -68.5t-59.5 -33.5q-35 -4 -58 22q-25 33 4 55q10 8 40 9.5t40 11.5q-12 45 -75 45h-9q-74 0 -130 -59.5t-56 -133.5 q0 -12 4 -36q23 -90 111 -140.5t204 -50.5q184 0 328 109q154 121 154 280q0 76 -59.5 143.5t-137.5 106.5q-215 111 -512 111q-244 0 -532 -70l-154 -37l-111 -31q-31 -8 -111.5 -34.5t-141 -42t-117.5 -17.5q-49 -4 -58 -10q0 -2 -2 -2q-10 -6 -28 -35 q-178 -283 -389 -282q-217 0 -217 299zM469 498q0 -14 3 -26.5t11.5 -24t13.5 -19.5t18 -18.5t18.5 -14.5t22.5 -15t19 -13q12 10 20.5 22t13.5 26.5t9 20.5q16 29 21 117q0 55 -45 74q-33 -2 -84 -41q-41 -31 -41 -88z" />
<glyph unicode="&#x2000;" />
<glyph unicode="&#x2001;" horiz-adv-x="2367" />
<glyph unicode="&#x2002;" />
<glyph unicode="&#x2003;" horiz-adv-x="2367" />
<glyph unicode="&#x2004;" horiz-adv-x="789" />
<glyph unicode="&#x2005;" horiz-adv-x="591" />
<glyph unicode="&#x2006;" horiz-adv-x="394" />
<glyph unicode="&#x2007;" horiz-adv-x="394" />
<glyph unicode="&#x2008;" horiz-adv-x="295" />
<glyph unicode="&#x2009;" horiz-adv-x="473" />
<glyph unicode="&#x200a;" horiz-adv-x="131" />
<glyph unicode="&#x202f;" horiz-adv-x="473" />
<glyph unicode="&#x205f;" horiz-adv-x="591" />
<glyph unicode="&#x25fc;" horiz-adv-x="1198" d="M0 0v1198h1198v-1198h-1198z" />
</font>
</defs>
</svg>
