<?xml version="1.0" standalone="no"?>
<!DOCTYPE svg PUBLIC "-//W3C//DTD SVG 1.1//EN" "http://www.w3.org/Graphics/SVG/1.1/DTD/svg11.dtd" >
<svg xmlns="http://www.w3.org/2000/svg" xmlns:xlink="http://www.w3.org/1999/xlink" version="1.1">
<metadata></metadata>
<defs>
<font id="butterscotchregular" horiz-adv-x="2048" >
<font-face units-per-em="2048" ascent="1180" descent="-868" />
<missing-glyph horiz-adv-x="632" />
<glyph horiz-adv-x="0" />
<glyph horiz-adv-x="682" />
<glyph unicode=" "  horiz-adv-x="632" />
<glyph unicode="&#x09;" horiz-adv-x="632" />
<glyph unicode="&#xa0;" horiz-adv-x="632" />
<glyph unicode="!" horiz-adv-x="753" d="M123 -154q0 53 19 90t57 37h8q22 0 46.5 -20.5t33.5 -44.5q8 -19 8 -43q0 -43 -30 -72.5t-77 -30.5q-28 0 -42.5 12.5t-20.5 41.5q0 2 -1 6t-1 6v18zM233 203q0 2 1.5 6t1.5 6q5 16 16 39q33 67 39 154q2 23 6 48t9.5 55.5t8.5 47.5q4 24 9.5 74t9.5 74q14 101 69 301 q21 73 40.5 205.5t45.5 235t76 171.5q18 26 57 60t66 34q28 0 33 -41q2 -10 2 -28q0 -38 -14 -89q-26 -96 -94.5 -257.5t-90.5 -227.5q-9 -24 -17.5 -74.5t-14.5 -72.5q-15 -58 -45 -173t-46 -173q-13 -47 -50 -182t-56 -208q-11 -28 -31 -28q-12 0 -21.5 12.5t-9.5 30.5z " />
<glyph unicode="&#x22;" horiz-adv-x="671" d="M172 1405v86q0 68 23 68q14 0 37 -15t38 -31q17 -17 17 -53q0 -45 -35 -154t-35 -143v-8q-16 5 -22.5 21.5t-9.5 46t-5 37.5q-8 36 -8 145zM438 1405v86q0 68 23 68q14 0 37.5 -15t38.5 -31q16 -16 16 -53q0 -45 -35 -154t-35 -143v-8q-16 5 -22.5 21.5t-9.5 46t-5 37.5 q-8 36 -8 145z" />
<glyph unicode="#" horiz-adv-x="1210" d="M-78 139q0 10 33.5 26t52.5 21q40 7 68 7q21 0 39 -3q5 -1 30.5 -7.5t38.5 -6.5q14 0 23 6q10 7 14 29q5 21 19 69t20 74q3 11 10 32.5t11 39t4 33.5q0 14 -2 20q-20 -2 -57.5 -6.5t-61 -7t-56 -4.5t-59.5 -2h-16h-31q-35 0 -35 14q0 8 4 14q6 10 27.5 22.5t34.5 14.5 q34 3 128.5 10.5t143.5 12.5q7 7 12 14.5t8.5 17.5t5 15t4 17.5t3.5 15.5q8 33 25.5 110t31.5 132.5t31 107.5q25 10 39 10q3 0 31 -4q2 -2 2 -4q0 -14 -14.5 -78t-31 -129.5t-34.5 -135t-19 -75.5q57 -14 127 -14q93 0 189 22q5 1 9 12.5t6.5 28t4 32.5t3 30.5t1.5 17.5 q13 76 70 246q9 15 17 17q3 1 8 1q4 0 19 1t24 1q43 0 43 -18q0 -1 -1 -4t-1 -4q-7 -45 -36.5 -131t-37.5 -127q-1 -7 -8 -32t-7 -38t7 -20q13 -13 38 -13q12 0 35.5 3t30.5 3q3 0 24 1.5t37 1.5q105 0 105 -31v-4q0 -29 -57 -29h-164h-19q-57 0 -61 -31q-7 -46 -49 -194 q-19 -64 -19 -74q0 -33 43 -33h17q42 0 88.5 3.5t105 10.5t86.5 9q39 0 49 -12q8 -12 3.5 -28t-17.5 -24q-16 -10 -55 -10q-52 0 -155 -1t-154 -1q-23 0 -31 -8q-9 -9 -15.5 -24t-9 -26.5t-5 -32.5t-3.5 -28q-4 -29 -12.5 -87.5t-12.5 -86.5q0 -37 -51 -37q-37 0 -37 56 q0 21 5 49.5t12 55.5t8 36q0 16 7 71.5t13 55.5q-58 -1 -340 -6q-42 -2 -49 -114v-7t-2.5 -26.5t-5 -50t-6 -53.5t-7.5 -45.5t-7 -17.5q-48 0 -66 9v10q0 24 13.5 68t15.5 55q20 94 28 143v2q0 9 -22.5 16t-58.5 11t-68.5 6.5t-64 4t-33.5 1.5q-21 3 -21 10zM291 180 q41 -12 180 -12q91 0 156 6q8 34 24.5 94.5t18.5 67.5t18.5 56.5t16.5 78.5q0 15 -3 27q-29 5 -34 4q-27 -4 -78 -4q-19 0 -59.5 1t-61.5 1h-35q-52 0 -67 -51q-12 -43 -37 -122.5t-35 -113.5q-2 -7 -2.5 -18.5t-1.5 -14.5z" />
<glyph unicode="$" horiz-adv-x="966" d="M133 -10q0 50 25 108q15 30 30 45q44 41 97 41q58 0 90 -49q20 -30 20 -72q0 -33 -16 -49q-16 -12 -27.5 -4t-17.5 23q-15 54 -51 65q-4 2 -15 2q-35 0 -52 -40.5t-17 -84.5q0 -54 24.5 -103.5t67.5 -78.5q64 -45 172 -45q43 0 76 8q74 21 122 80t66 139q2 14 2.5 41 t1.5 35q1 2 2 5.5t2 4.5q2 5 12.5 15t10.5 16q-1 10 -21.5 17t-23.5 10q-6 7 -16.5 27.5t-16.5 27.5q-34 46 -107 100q-85 62 -165 142q-6 6 -25 24t-26 26t-15 23.5t-8 32.5q0 15 6 33q6 15 6 29q0 10 -8 30.5t-8 30.5q0 16 14 53q28 79 90 140t141 94q6 3 23 7t26 10 t13 18q2 7 2 43q0 3 -1 16t-1 21q0 94 33 94q30 9 61 6q21 0 21 -51q0 -26 -6.5 -72.5t-6.5 -50.5q0 -8 11 -8q54 0 90 -19q3 -1 13.5 -9.5t12.5 -8.5q43 -38 43 -117q0 -39 -8.5 -81.5t-26 -84.5t-49.5 -72.5t-73 -37.5q-3 0 -10.5 -1.5t-10.5 -1.5q-25 0 -59 15 q-27 18 -27 33q0 12 14 20q8 6 29 10q41 14 62 33q37 33 58 97t21 122q0 34 -19.5 51t-66.5 17q-70 0 -136 -35t-109.5 -87.5t-70 -111.5t-26.5 -108q0 -47 24.5 -86.5t63.5 -69t86.5 -58.5t94.5 -61.5t86 -69.5t63.5 -90.5t24.5 -117.5q0 -97 -48.5 -168.5t-136.5 -110.5 q-8 -4 -31.5 -11.5t-41 -15.5t-25.5 -18q-26 -53 -26 -157q0 -46 -60 -46q-6 0 -41 5q-26 0 -26 28q0 7 4 23q7 20 12 57t8 49q2 4 2 13q0 11 -5 19t-16 12.5t-19.5 6.5t-23.5 4t-20 3q-90 21 -153.5 94.5t-63.5 167.5z" />
<glyph unicode="%" horiz-adv-x="1259" d="M72 717q0 111 75 217q73 104 189 104q73 0 119.5 -45t46.5 -116q0 -105 -78 -218q-76 -108 -188 -108q-75 0 -119.5 46.5t-44.5 119.5zM100 -266q0 35 58 112l49 68q4 6 6.5 10t4.5 7.5t5 5t4 3t5.5 2t6.5 0.5t9.5 0.5t11.5 0.5q16 0 16 18q1 6 5.5 18.5t5.5 18.5 q1 9 1 20t2 19t9 20q8 16 25.5 44t21.5 34q15 26 45.5 78.5t46.5 77.5q285 488 371 719q12 27 61 57q28 14 43 14q13 0 25 -12q8 -8 8 -25q0 -22 -13 -53t-34 -68.5t-22 -39.5q-101 -205 -253 -484t-221 -385q-110 -166 -188 -239q-62 -62 -88 -64q-27 0 -27 23zM166 774 q0 -13 5.5 -39.5t6.5 -38.5q0 -2 2 -12t4 -16q6 -12 17 -23q24 -18 47 -18q56 0 98 86q43 85 43 170q0 80 -49 80q-18 0 -34.5 -6.5t-35 -25l-26 -26t-28.5 -35.5l-21 -28q-21 -30 -25 -43q-4 -16 -4 -25zM741 -59q0 106 76 215q76 104 191 104q74 0 120 -45t46 -117 q0 -105 -78 -215q-76 -110 -189 -110q-74 0 -120 47t-46 121zM836 -4q0 -15 6.5 -42.5t7.5 -33.5q0 -35 22 -51q22 -19 48 -19q53 0 96 84q43 85 43 172q0 80 -47 80q-18 0 -35 -7t-35 -25t-26.5 -27t-28.5 -35.5t-21 -28.5q-18 -22 -26 -43q-4 -16 -4 -24z" />
<glyph unicode="&#x26;" horiz-adv-x="792" d="M-152 227q0 35 11 92q28 127 106 221t199 181q-67 26 -111.5 93.5t-44.5 143.5v19q0 71 28.5 139.5t78.5 118.5q96 101 254 125q28 4 47 4q60 0 106 -25t60 -82q4 -20 4 -30q0 -54 -37 -97q-40 -46 -111 -63q-3 -1 -22 4q-14 3 -22.5 12t-8.5 19q0 9 8 17t21 11q9 1 25 1 t28 2.5t22 9.5q39 26 39 84q0 33 -16 60t-47 36q-24 8 -53 8q-55 0 -107 -30t-86 -80q-48 -74 -57 -179v-63q0 -9 -17.5 -19t-17.5 -24t22.5 -20t24.5 -17q25 -107 86 -154l51 -26q1 -19 -11 -26t-32 -7q-6 0 -16 1t-12 1q-25 0 -44 -14t-40 -41q-73 -92 -115.5 -207 t-42.5 -231q0 -88 27 -168q37 -105 107.5 -166.5t168.5 -61.5q88 0 174.5 42t149.5 112q50 55 81 127.5t31 144.5q0 53 -18 103q-24 62 -75.5 104.5t-111.5 42.5h-10q-43 0 -100 -33q-92 -51 -92 -133q0 -46 30.5 -90.5t71.5 -44.5q17 0 25 4q12 5 21 17.5t9 27.5q0 5 -4 17 q-4 8 -4 14q-2 9 2.5 29t10.5 20q8 0 28 -10.5t23 -16.5q4 -8 4 -14q0 -28 -29 -74q-26 -47 -82 -47q-37 0 -72.5 22t-54.5 56q-18 37 -18 82q0 65 37 121q65 94 196 94q88 0 164 -39q49 -23 91.5 -62.5t64.5 -86.5q8 -11 -6.5 -28t-10.5 -24q1 -4 25 -4q22 -3 22 -26 q3 -15 3 -33q3 -31 -3 -61q-14 -84 -76 -168t-143 -148q-53 -41 -138 -70.5t-169 -29.5q-39 0 -59 4q-87 13 -174 51t-129 88q-138 162 -138 348z" />
<glyph unicode="'" horiz-adv-x="393" d="M172 1323v86q0 68 23 68q14 0 37.5 -14.5t37.5 -30.5q17 -17 17 -54q0 -45 -35 -154t-35 -143v-8q-16 5 -22.5 21.5t-9.5 46t-5 37.5q-8 36 -8 145z" />
<glyph unicode="(" horiz-adv-x="544" d="M-16 182q0 73 16 213q43 318 119 578t217 473q16 24 47.5 63t77 88t95.5 83t87 34q43 0 62 -43q4 -4 4 -8q-2 -13 -29 -8q-6 2 -21 2q-46 0 -98 -60q-43 -53 -82 -120t-64.5 -122t-56.5 -141.5t-45 -131.5t-43 -140q-97 -319 -149 -635q-17 -97 -17 -211q0 -65 7 -122.5 t25.5 -116t47 -101t76 -72t109.5 -34.5q-32 -35 -72 -35q-45 0 -97.5 44.5t-92 105t-68.5 119t-35 91.5q-20 97 -20 207z" />
<glyph unicode=")" horiz-adv-x="544" d="M-14 -315q44 -15 84 -15q66 0 126.5 37t103.5 92.5t80.5 129t59.5 136t37 123.5q82 323 119 639q35 295 35 420q0 177 -37 299q-23 86 -86 99q-15 3 -21 10t2 16q25 19 48 19q39 0 76.5 -48t62.5 -117t40.5 -122.5t20.5 -85.5q25 -147 25 -285q0 -341 -137 -813 q-66 -228 -172 -383q-41 -58 -162.5 -139.5t-206.5 -81.5q-73 0 -98 70z" />
<glyph unicode="*" horiz-adv-x="540" d="M113 1249h18q20 0 58 -11t49 -13q6 10 6 45q0 10 -1 31.5t-1 31.5q0 59 24 64h2q19 0 30 -15t11 -36q0 -14 -6 -46.5t-6 -50.5q0 -14 2 -20q25 2 64.5 25.5t62.5 23.5q2 0 6 -1t6 -1q-1 -11 -4 -21t-9 -18l-10.5 -14t-14.5 -12l-15 -9t-18.5 -7.5t-18 -6.5t-20 -6.5 t-19.5 -5.5q4 -11 30 -45.5t26 -51.5q0 -8 -7 -17t-16 -9q-17 0 -40 23t-32 42q-10 -6 -28 -22t-35 -26.5t-35 -10.5q-10 0 -16 2q6 26 29 59.5t28 46.5l-24.5 10.5t-26.5 12.5t-21 13.5t-18.5 19.5t-9.5 26z" />
<glyph unicode="+" horiz-adv-x="890" d="M139 328q0 16 11 43q4 3 8.5 4t10.5 1t9 1q58 12 182 24q48 0 48 129v19v2q0 2 -0.5 12t-0.5 16.5t2 15t5 11.5q12 12 49 12q16 0 22 -6q11 -8 11 -43q-1 -15 -5 -53.5t-4 -60.5v-15q4 -18 16 -25t36 -7h26q2 2 6 2q52 4 76 8q6 0 20.5 2t20.5 2q19 0 19 -16v-27 q0 -27 -35 -27h-25h-12q-20 -2 -62.5 -9t-62.5 -9q-17 0 -28 -15.5t-14 -33t-6 -43t-5 -33.5q-1 -12 -2 -35.5t-2 -34.5q-1 -10 -2 -31.5t-2 -31.5q-5 -20 -5 -25q-2 -6 -2 -16q-5 -31 -39 -31q-27 0 -43 16q-8 10 -8 37q0 16 7 44.5t8 41.5q2 16 4.5 46.5t5.5 54.5t8 45 q5 10 4.5 16.5t-12.5 9.5q-4 2 -29 2h-33l-34 -2q-73 -4 -109 -18q-4 -2 -10 -2q-23 0 -23 33z" />
<glyph unicode="," horiz-adv-x="315" d="M0 -141q41 112 41 180q0 18 -9 48t-9 44q0 25 18 42t39 17t39 -13.5t18 -33.5q0 -12 -5.5 -37.5t-6.5 -31.5q0 -3 -1.5 -16.5t-2 -16.5t-2 -14.5t-2.5 -15.5t-3 -13t-4 -14.5t-4.5 -13.5t-6 -15t-7.5 -14q-11 -20 -34 -40.5t-40 -30.5z" />
<glyph unicode="-" horiz-adv-x="575" d="M55 330l4 59l4 4l189 -4l276 4l9 -8v-57l-9 -9q-149 7 -198 7l-273 -7z" />
<glyph unicode="." horiz-adv-x="483" d="M213 27q0 34 16.5 58t46.5 24h3q14 0 40 -11q27 -27 33 -57q2 -6 2 -16q0 -27 -20.5 -46.5t-48.5 -19.5h-4q-33 0 -62 29q-6 18 -6 39z" />
<glyph unicode="/" horiz-adv-x="546" d="M45 -14q188 518 262 698q26 63 264 694q3 6 11 6q24 -3 43 -10q30 0 30 -4q-47 -129 -123.5 -315t-129.5 -307l-52 -121q-29 -71 -84.5 -236t-95.5 -295l-41 -129l-4 -6q-13 -2 -25 -2q-14 0 -32.5 5t-18.5 9z" />
<glyph unicode="0" horiz-adv-x="1058" d="M10 119v24q3 194 72 378.5t201 338.5q96 111 194 148q48 20 94 20q70 0 103 -45q-23 2 -70 2q-81 0 -125 -24q-47 -23 -86 -95q-45 -75 -110 -260q-59 -173 -91 -304t-32 -259q0 -66 8 -121q23 -165 135 -227q60 -35 146 -35q73 0 137 27q115 48 174.5 152t83.5 259 q28 195 28 480q0 26 -1 79t-1 80q0 90 -28 133q-15 24 -45 40t-62 16q-18 0 -33 -6q-35 -12 -72.5 -69t-72.5 -69q-8 19 -8 45q0 36 18 69t51 54q58 35 125 35q49 0 93 -18q103 -46 143 -209q43 -165 43 -338q0 -259 -109 -477q-102 -205 -276 -285q-92 -43 -191 -43 q-135 0 -245 78t-154 198q-37 94 -37 228z" />
<glyph unicode="1" horiz-adv-x="960" d="M254 -244q41 44 106 64q5 1 35.5 4.5t57 7.5t28.5 8q2 5 10.5 20t10.5 23q108 495 203 828q21 71 22 75q1 3 1.5 17t2 25.5t4.5 13.5q-48 -24 -125 -89t-104 -83q-1 0 -14.5 -10.5t-20.5 -10.5q-14 0 -14 8t12.5 21.5t19.5 17.5q21 12 41.5 26.5t43 32.5t36 29.5t40 35 t36.5 32.5q6 5 18 17t19.5 19t19 15.5t21.5 14.5q22 12 59.5 14t46.5 4q20 5 23 4q14 -6 14 -31q0 -33 -12 -63q-16 -55 -32.5 -118.5t-35.5 -140t-30 -120.5q-7 -28 -46 -165.5t-55 -213.5q-10 -54 -32 -129q-1 -2 -17 -43t-16 -61q0 -22 16 -27q28 -14 58.5 -19t70 -7 t60.5 -5q-29 -37 -88 -37q-15 0 -21 2q-17 3 -59.5 11t-66.5 12t-60 8t-66 4q-53 0 -108 -12q-13 -3 -35.5 -11t-41 -13t-36.5 -5z" />
<glyph unicode="2" horiz-adv-x="794" d="M-3.5 -116.5q5.5 14.5 15.5 24.5q120 92 219 214t201 284q66 107 121 258q21 62 25 170q0 51 -17 81q-13 25 -47.5 39.5t-73.5 14.5q-48 0 -80 -19q-22 -16 -39.5 -40.5t-17.5 -47.5q0 -9 23.5 -47.5t23.5 -42.5q0 -9 -13.5 -14.5t-21.5 -5.5q-27 0 -47 22t-20 49 q0 47 20.5 92.5t57.5 65.5q102 57 188 57q45 0 107 -16q48 -13 86 -69t38 -107v-15q0 -87 -46 -228t-107 -220q-86 -110 -182.5 -225.5t-149.5 -182.5q20 -6 39 -14.5t33 -16.5t30.5 -23t25.5 -24t25 -29t22 -28.5t23.5 -33l22.5 -31.5q33 -45 71 -69.5t91 -31.5 q-17 -28 -70 -28q-24 0 -34 4q-41 12 -74 44t-55.5 69t-48 72.5t-65 59t-93.5 23.5h-15q-52 0 -104 -22q-9 -4 -26.5 -13.5t-26.5 -13.5q-23 -17 -31 -12q-9 12 -3.5 26.5z" />
<glyph unicode="3" horiz-adv-x="778" d="M25 -104q0 106 69 157q33 25 68 25q31 0 47 -25q5 -10 1 -23t-15 -16q-7 -3 -31 2q-6 2 -17 2q-31 0 -53 -22q-26 -26 -26 -80q0 -34 11.5 -68.5t29.5 -52.5q37 -39 135 -47q3 0 10 -1t10 -1q42 0 88 16q110 36 161.5 134.5t51.5 226.5q0 132 -45 244q-26 68 -80.5 109.5 t-132.5 41.5q-31 0 -76 -10q-7 -1 -42.5 -14t-53.5 -13q-12 0 -18 2q-16 7 -14 20t18 23q50 28 92.5 69.5t100 114.5t71.5 89l25 25q24 25 39.5 45t15.5 32q0 18 -14.5 22.5t-26.5 2.5q-26 -1 -101 -4.5t-116 -3.5h-29q-31 0 -41 8q13 20 49 20q10 0 31 -2t29 -2q85 0 153 8 q132 15 160 15q31 0 45 -2q38 -7 43 -13q8 -11 8 -26q0 -7 -2 -14.5t-4.5 -14t-7.5 -15t-8.5 -14t-10.5 -14.5t-10.5 -13t-11.5 -12.5t-10.5 -11l-10.5 -10.5l-8 -8q-63 -66 -118 -133q-5 -6 -23 -25t-27.5 -33t-9.5 -26q0 -21 31 -29q136 -40 233 -147t97 -236 q0 -57 -25 -121q-54 -133 -162 -225t-256 -111q-40 -6 -88 -6q-95 0 -143 43q-55 52 -55 148z" />
<glyph unicode="4" horiz-adv-x="894" d="M66 -143q9 21 43 97t51 118q174 421 254 907q11 30 22 37q15 13 48.5 28t58.5 15q26 0 32 -21q6 -12 -2 -39q-6 -23 -19 -70t-19 -71q-1 -2 -7.5 -28t-13.5 -33q-3 -3 -16.5 -6t-21 -7t-1.5 -10q17 -28 17 -47q0 -9 -11 -51q-7 -21 -19.5 -62.5t-15.5 -52.5 q-19 -63 -45 -139t-40.5 -115.5t-54 -143.5t-46.5 -124l-8 -17q-8 -18 -13.5 -33t-5.5 -22q0 -5 2.5 -8t5.5 -5t8.5 -2.5t8.5 -0.5h9h7h19q17 0 48 1t46 1q31 0 45 -2q5 -1 26.5 -7.5t30.5 -6.5q1 0 4.5 1t4.5 1q16 6 28 49t25 47q27 0 31 -29q0 -16 -7 -42.5t-8 -31.5 q-4 -8 -1 -14.5t5.5 -9.5t10.5 -8q103 -62 161 -62q35 0 54.5 19t19.5 47q0 25 -14 47q39 5 47 4q49 -3 49 -53q0 -36 -22 -58q-25 -31 -65 -49t-81 -18t-72 16q-6 3 -28.5 18t-42.5 25t-33 10q-4 0 -27.5 -97.5t-25.5 -115.5q-2 -13 -13.5 -28.5t-23.5 -14.5q-16 3 -16 25 q0 25 12 49q41 106 41 148q0 30 -15 45q-52 55 -147 55q-96 0 -178 -45q-38 -19 -60 -19q-18 0 -36 9z" />
<glyph unicode="5" horiz-adv-x="954" d="M104.5 401q-0.5 2 2 7.5t3.5 7.5t5.5 9t5.5 9q20 34 48.5 102t39.5 91q9 18 62.5 129t84.5 168q14 28 23 34q19 17 61 17h33h21q45 6 139 22q170 24 297 37q6 -13 -2 -28t-21 -21q-19 -8 -47 -8q-14 0 -41 2t-39 2h-16q-149 0 -205 -51q-12 -12 -24 -29.5t-18 -28.5 t-17.5 -36.5t-14.5 -30.5q-42 -77 -71 -150q-3 -6 -15.5 -30.5t-20 -43.5t-7.5 -32q1 -2 2 -5.5t2 -4.5q4 -7 12.5 -12.5t15.5 -7.5t21 -5t18 -4q163 -36 252 -139q76 -84 76 -228q0 -57 -8 -104q-7 -41 -18 -71t-31.5 -58.5t-36.5 -46t-53 -53.5q-46 -44 -113 -72.5 t-133 -28.5q-34 0 -72 10q-77 22 -119 117q-30 68 -30 121q0 107 125 170q28 14 65 14q67 0 92 -49q8 -11 8 -33q0 -39 -24 -39q-1 0 -4 1.5t-4 1.5q-14 2 -31 28q-24 27 -64 27q-34 0 -61 -21q-53 -44 -53 -131q1 -59 28 -83.5t95 -49.5q35 -14 69 -14q58 0 102 42.5 t67.5 110t34.5 137t11 136.5q0 37 -2 53q0 3 -1.5 21t-2.5 24t-3 21t-5 23t-7.5 19t-10.5 19q-30 44 -91.5 65t-130.5 21q-35 0 -65 -6q-22 -4 -75.5 -43t-80.5 -39q-10 0 -14 2q-7 2 -11 4.5t-5.5 6t-2 5.5z" />
<glyph unicode="6" horiz-adv-x="849" d="M25 100q0 20 4 66q17 173 37 250q19 76 51 141q68 141 123.5 230.5t121.5 158.5q61 61 117 74q19 0 23 -6q2 -3 2.5 -6t-0.5 -6t-2 -5t-4 -4.5t-4.5 -4t-5.5 -3.5t-5.5 -3t-5.5 -3l-4 -2q-34 -18 -63 -90q-71 -164 -134 -383q-8 -33 -18 -41q-2 -2 -18 -7t-19 -14 q-2 -8 8 -20.5t11 -15.5q6 -13 0 -35q-4 -20 -15.5 -61t-15.5 -62q-29 -134 -29 -228v-28q0 -102 36.5 -187.5t109.5 -117.5q43 -19 92 -19q87 0 160 45q52 34 85 97t33 129v14q0 62 -39 98q-26 23 -65 23q-30 0 -62 -13q-66 -20 -98 -75q-15 -26 -12 -49q0 -12 7.5 -20.5 t18.5 -8.5q8 1 24 11t24 11q13 3 23 -10.5t7 -30.5q-6 -34 -39 -49q-12 -6 -26 -6q-31 0 -56 25t-28 61q0 3 -1 9.5t-1 9.5q0 37 19.5 73t51.5 62q66 53 164 53q119 0 166 -82q23 -44 23 -90q0 -72 -41 -139q-54 -88 -181 -144q-98 -45 -188 -45q-62 0 -115 23 q-113 48 -180 175.5t-67 274.5z" />
<glyph unicode="7" horiz-adv-x="980" d="M47 897v12q0 10 4 56q0 -5 142 -29q41 -6 83 -6q40 0 60 2q38 3 114.5 9t114.5 9q5 0 33 2.5t36.5 3.5t31.5 4t35.5 6.5t30 9.5t32.5 13q5 3 27.5 17.5t42.5 24t36 9.5q21 0 31 -18q11 -23 4 -59q-14 -79 -48 -172.5t-64 -155t-82 -162.5q-176 -345 -256 -491 q-13 -25 -37 -78.5t-40.5 -87.5t-46.5 -72t-65 -59q-38 -23 -55 -23q-6 0 -8 2q-5 5 -8 19q0 14 6 26q11 26 112 271q18 43 69.5 157.5t66.5 149.5q6 15 129 295q8 16 61 147q2 5 10 21.5t11.5 25t9 23t8 26.5t2.5 23q0 18 -6 33q-13 32 -56 32h-12q-123 -8 -373 -28 q-45 -4 -67 -15q-53 -20 -60 -92q-1 -6 -1 -24t-4.5 -26.5t-18.5 -14.5q-3 -1 -10 5t-9 11q-1 13 -6 51.5t-7.5 65t-2.5 51.5z" />
<glyph unicode="8" horiz-adv-x="724" d="M39 -117q0 50 31 107.5t67.5 101t67.5 96.5t31 95q0 8 -14 25.5t-32.5 36.5t-21.5 24q-55 70 -80 159q-8 27 -8 64q0 129 109.5 233.5t252.5 104.5q34 0 68 -6q42 -9 66 -37t24 -66q0 -16 -2 -24q-28 -113 -131 -258q-1 -1 -19 -24.5t-33.5 -44.5t-29.5 -44.5t-14 -32.5 l2 -4q35 -33 103.5 -99.5t103.5 -99.5q16 -13 16 -24q0 -5 -3.5 -10.5t-10.5 -14t-11 -14.5q-2 -2 -2 -6t6 -4q1 0 30.5 -3t39.5 -10q12 -9 27 -61q16 -47 16 -106q0 -32 -2 -46q-14 -110 -127 -198t-242 -88q-76 0 -143 37q-56 32 -90.5 89.5t-42.5 121.5q-2 10 -2 30z M92 -109q0 -90 71.5 -159.5t170.5 -69.5h8q74 0 140.5 35.5t86.5 91.5q11 33 11 55q0 100 -134 230q-26 26 -99 91.5t-83 65.5h-2q-110 -146 -158 -274q-12 -35 -12 -66zM240 696q0 -74 51 -209q4 -10 10.5 -20t16.5 -22.5t14 -18.5q73 73 162 217q65 99 65 172q0 46 -31 62 q-13 10 -49 14h-16q-93 0 -158 -56t-65 -139z" />
<glyph unicode="9" horiz-adv-x="784" d="M68 483q0 31 6 66q29 166 80 266q32 64 81.5 115.5t110.5 81.5q36 18 70 18q52 0 73 -41q15 -24 15 -53q0 -27 -15.5 -46t-44.5 -20q-12 0 -17.5 9t3.5 20q3 4 12.5 11t12.5 10q22 22 -4 41q-24 18 -58 18q-27 0 -51 -12q-47 -21 -82 -64.5t-53 -98t-26.5 -107 t-8.5 -105.5v-29q0 -49 14 -76q24 -41 66 -41q44 0 92.5 43t77.5 89q63 97 125 276q48 142 125 162q25 7 43 -8t18 -52q0 -24 -7.5 -54.5t-18.5 -62t-13 -40.5q-16 -74 -22 -113q-7 -30 -15 -41l-8 -12t-5 -8.5t-2.5 -5t-1 -7.5t1.5 -9t3 -15q2 -10 2 -27q0 -13 -10 -76 q-19 -118 -79.5 -380.5t-80.5 -405.5q-8 -50 -29.5 -70t-76.5 -24q-9 21 -9 47q0 15 4 42.5t5 37.5q4 56 32 268q10 75 50 285q19 95 20 127q0 77 -4 77q-16 0 -35.5 -7t-44.5 -21.5t-40 -24.5t-42 -29t-31 -22q-42 -27 -90 -27q-42 0 -69 19q-49 34 -49 106z" />
<glyph unicode=":" horiz-adv-x="370" d="M164 571q0 9 33 17t49 8q10 0 21 -2t22.5 -10.5t11.5 -22.5q0 -71 -14 -82q-7 -5 -37.5 -10.5t-42.5 -5.5q-9 0 -21 19.5t-14 33.5q0 4 -4 21t-4 34zM180 106l2 64l4 8q62 21 82 21q9 0 16.5 -4.5t11.5 -8.5l3 -4l8 -20l-2 -22q-2 -23 -2 -34l-8 -20l-10 -12 q-31 -2 -62 -2q-43 0 -43 34z" />
<glyph unicode=";" horiz-adv-x="413" d="M184 -145q14 24 26.5 104.5t12.5 120.5q0 19 -6 35.5t-6 21.5q0 8 6 17q13 22 62 22q13 0 23 -8t13.5 -16t3.5 -11q0 -4 -3.5 -27.5t-11 -59.5t-15.5 -60t-25.5 -61.5t-31.5 -62.5l-13 -26zM229 414v10q0 5 1 19.5t1 27.5q0 9 24.5 16t39.5 7t38 -16.5t23 -39.5 q0 -28 -22 -45q-7 -5 -40 -11.5t-44 -6.5q-17 0 -21 39z" />
<glyph unicode="&#x3c;" horiz-adv-x="587" d="M61 752q0 21 28.5 58t76.5 85.5t55 56.5q38 44 99 106t75 77q1 1 2.5 5.5t3 8.5t2.5 4q18 6 35 6q20 0 33 -10t16 -23q0 -2 1 -5t1 -5q0 -13 -10.5 -19t-31 -14t-35.5 -22q-26 -25 -62.5 -80.5t-62.5 -87.5q-6 -7 -40.5 -42.5t-59.5 -67.5t-25 -48t35.5 -46.5t40.5 -37.5 q3 -4 20.5 -40.5t36.5 -59.5q7 -9 28.5 -32.5t39 -45.5t32.5 -47q4 -3 9.5 -7.5t12.5 -15.5t3 -18q-13 -16 -23 -16q-13 0 -28 12t-25.5 26.5t-20 28.5t-10.5 15q-9 10 -69 83t-99 117q-9 10 -33 32.5t-37.5 39t-13.5 29.5z" />
<glyph unicode="=" horiz-adv-x="927" d="M203 659q0 3 1 13t1 16q0 14 4 14q41 9 80 9q29 0 87 -4.5t83 -4.5q27 0 77.5 5.5t73.5 5.5q52 0 185 -19q10 0 10 -37q0 -16 -2 -22q0 -10 -8 -10q-57 -2 -160 -2h-273q-94 0 -151 2q-6 0 -6 6q0 7 -1 16t-1 12zM205 426v55l4 8q80 -4 160 -4q87 0 137 9q78 16 139 16 q65 0 150 -18q8 0 8 -11q2 -12 2 -28q0 -15 -2 -23q0 -10 -8 -10q-40 -1 -143 -6.5t-150 -5.5h-279q-4 0 -8.5 4.5t-6.5 9.5z" />
<glyph unicode="&#x3e;" horiz-adv-x="587" d="M76 1116q0 2 1 5t1 5q3 13 16 23t33 10q17 0 35 -6q1 0 2.5 -4t3 -8.5t2.5 -5.5q14 -15 75 -77t99 -106q7 -8 55 -56.5t76.5 -85.5t28.5 -58q0 -13 -13.5 -29.5t-37.5 -39t-33 -32.5q-29 -33 -56.5 -66t-59 -71t-52.5 -63q-1 -1 -10.5 -15t-20 -28.5t-25.5 -26.5t-28 -12 q-10 0 -23 16q-4 7 2 17.5t15 17.5l8 6q15 25 32.5 47t39 45.5t28.5 32.5q19 23 37 59.5t21 40.5q5 6 40 37t35 47t-24.5 47.5t-59.5 67.5t-40 43q-26 32 -62.5 87.5t-62.5 80.5q-12 11 -27.5 18.5t-25.5 10.5t-17.5 9t-7.5 17z" />
<glyph unicode="?" horiz-adv-x="1153" d="M127 -322q0 46 27 86q23 33 61 33q30 0 61 -18t52 -45q20 -29 20 -66q0 -44 -28 -78t-68 -34h-6q-57 0 -88 36t-31 86zM205 166q0 79 37 223q56 210 174 313q33 28 75.5 53t96.5 52t82 43q169 100 252 274q6 12 12.5 21t10.5 13.5t15 15t17 16.5q10 13 10 31q0 20 -14 28 q-15 6 -15 25q0 15 11 46.5t12 37.5v12q0 77 -45 139q-38 55 -102.5 83t-135.5 28q-35 0 -80 -10q-77 -19 -141.5 -65t-103.5 -113q-35 -59 -35 -125q0 -87 65 -133q38 -23 74 -23q31 0 60 16q49 34 49 93q0 10 -4 26q-9 38 -2 49q6 11 21 11t28 -9q20 -14 24 -47 q2 -10 2 -28q0 -51 -28 -95t-74 -71q-54 -31 -121 -31q-91 0 -147 59q-49 55 -49 129q0 92 61 177q60 87 149 148t195 87q61 14 100 14q127 0 213 -82t109 -200q6 -37 6 -72q0 -129 -80 -258q-102 -167 -295 -268q-15 -9 -59.5 -30.5t-73 -39.5t-51.5 -41q-69 -69 -107 -221 q-30 -118 -47 -270q-4 -30 -12 -59.5t-29 -60t-49 -30.5q-10 0 -16 2q-38 10 -43 86q0 5 -1 15.5t-1 15.5z" />
<glyph unicode="@" horiz-adv-x="1738" d="M215 182q0 217 107 398q50 84 120 162t156 143t189 104t206 39q93 0 181 -33q130 -48 207 -164t77 -247q0 -83 -35 -158q-20 -43 -47 -130.5t-35 -109.5q-7 -18 -15 -36t-19 -38.5t-18 -33.5t-22 -36.5t-20.5 -32t-23 -36t-21.5 -32.5q-61 -91 -168 -91h-8 q-35 0 -57.5 14.5t-42.5 51.5q-5 10 -18.5 34.5t-22.5 41.5q-8 -6 -21 -15t-22 -16t-15 -14q-29 -30 -83.5 -52t-108.5 -22q-80 0 -121 49q-51 65 -51 180q0 50 10 95q46 207 205 321q17 12 20 17q30 38 74 48.5t111 10.5h8q49 0 82 -33q45 -49 45 -86q0 -10 -2 -16 q-7 -5 -14 -1.5t-9 6t-6 9t-6 8.5q-33 44 -51 55q-19 11 -41 11q-48 0 -79.5 -9.5t-51.5 -39.5q-38 -60 -80.5 -171t-42.5 -200q0 -118 86 -145q17 -7 35 -7q53 0 80 41q56 85 88 197q2 9 5.5 17.5t9.5 18t9 14t12.5 15t11.5 12.5l14 14l13 13q5 3 20 5.5t19 3.5 q35 -48 35 -117q0 -39 -15.5 -115t-15.5 -112q0 -4 1 -12.5t1 -12.5q0 -6 2 -10t8 -9l5 -4q17 -10 41 -10q25 0 48 15.5t43 43.5t33 52t29 57.5t21 42.5q73 139 84 277q2 16 2 51q0 137 -71 261t-197 198q-66 41 -144 41q-100 0 -198 -59.5t-170 -141.5q-172 -191 -228 -514 q-16 -101 -16 -182q0 -294 174 -474q81 -82 188 -126t222 -44q192 0 342 115q59 44 79 94q9 27 9 41q0 49 -33 82q-9 -1 -22.5 -14.5t-22.5 -15.5h-4q-14 0 -25.5 13t-11.5 27q0 34 35 52q42 28 94 28q57 0 94 -37t37 -86q0 -45 -28.5 -89t-67.5 -74q-124 -95 -277 -150 q-121 -43 -244 -43q-125 0 -229 49q-140 66 -254 228q-83 116 -129.5 256t-46.5 284z" />
<glyph unicode="A" horiz-adv-x="1933" d="M-31 -102q0 80 62 102q30 10 49 10q29 0 48 -13.5t19 -35.5q0 -31 -32 -57q-24 0 -82 -4q-6 -12 -6 -25q0 -34 33 -60t71 -26h8q52 0 113 37q59 35 115 74.5t110 87.5t98.5 90t97.5 101.5t88.5 100.5t89 110t82 106.5t84.5 112.5t81 108q40 52 118.5 157.5t118.5 157.5 q14 18 39.5 53.5t38.5 53.5q40 52 43 141q3 171 21 344q1 5 3.5 28t3.5 30t3.5 27.5t4 30t4.5 27.5t6 29.5t6.5 26.5t8 28.5t9.5 26.5q56 140 133 170q12 4 33 4q39 0 70.5 -23.5t43.5 -58.5q13 -37 13 -74q0 -25 -13 -92q-42 -185 -139 -307q-26 -26 -41.5 -69.5t-19.5 -70 t-9 -86.5q-1 -12 -2 -18q-34 -343 -53 -714q-2 -44 -7 -122.5t-8 -141.5t-3 -117q0 -144 25 -256t89 -201q62 -86 156 -137t193 -51q46 0 102 16q39 13 70.5 50t31.5 77q0 46 -41 74q-17 10 -34 10q-27 0 -27 -23q0 -8 2 -12q8 -20 8 -29q-2 -9 -12 -15t-19 -3q-21 6 -28 31 q0 2 -1 5t-1 5q0 31 30 55.5t62 24.5q2 0 7 -1t7 -1q33 -6 60 -29.5t39 -56.5q10 -30 10 -53q0 -72 -73 -116.5t-159 -53.5q-50 -5 -61 -5q-110 0 -211 40t-170 120q-138 160 -172 422q-2 11 -4.5 58t-10.5 77.5t-26 48.5q-20 20 -49.5 34t-66.5 26.5t-56 21.5 q-116 58 -193 58q-94 0 -163 -80q-24 -28 -97.5 -105.5t-109.5 -122.5q-98 -124 -312 -260q-104 -63 -186 -63q-59 0 -133 29q-31 72 -31 131zM975 461q0 -5 6 -17q35 5 41 5q95 0 231 -89q75 -53 158 -59q-2 2 -2 8q0 47 25 197q12 111 12 221v57q0 78 -6 117q0 24 -5.5 85 t-13.5 61q-15 0 -22 -7q-78 -105 -223.5 -296.5t-190.5 -251.5q-3 -5 -6 -16.5t-4 -14.5zM1604 1573q0 -6 3.5 -18t4.5 -15q20 5 22 8q51 61 66 135q12 56 22 84q15 40 15 76q0 42 -27 121q-4 0 -13 1t-14.5 0.5t-9.5 -3.5q-54 -41 -57 -100q-9 -144 -12 -289z" />
<glyph unicode="B" horiz-adv-x="2191" d="M-217 -252q0 71 41.5 132.5t107.5 86.5q29 13 56 13q36 0 63 -20t27 -54q0 -20 -15 -36.5t-34 -16.5h-9q13 13 13 28q0 30 -23 43q-16 8 -28 8q-30 0 -50 -20q-49 -41 -49 -145q0 -45 8 -78q11 -47 39 -83t68 -46q18 -6 37 -6q35 0 80 18q57 23 108.5 62t93.5 89 t78.5 105t68.5 119t57 119.5t52 117.5q9 21 13 31q51 119 170 408.5t213 497.5t198 397q44 78 80 110q22 19 55 33.5t55 20.5t64 16q9 2 18 1.5t16.5 -5.5t8.5 -13q0 -10 -20 -22q-99 -62 -164.5 -168t-114.5 -246q-24 -69 -112 -276q-183 -414 -201 -453q-27 -55 -39 -64 t-68 -10q-12 0 -15 -6.5t-0.5 -13.5t7.5 -14q27 -34 27 -60q0 -12 -4.5 -25t-10 -22t-17 -28t-17.5 -29q-162 -298 -334 -506q-102 -122 -191 -174q-84 -49 -172 -49q-39 0 -77 12q-69 23 -113.5 85.5t-44.5 135.5zM254 1774q-4 12 3 18.5t13.5 7t20.5 0.5q2 0 8 -6 q58 -63 156 -63q17 0 53 4l65 6.5t71.5 7.5t63.5 9.5t66 15.5q140 43 225.5 66.5t212.5 46t232 22.5q173 0 317 -58q94 -37 141.5 -110t47.5 -166q0 -82 -33 -158q-59 -141 -192.5 -237.5t-294.5 -133.5q-7 -1 -52 -18q25 -12 74.5 -33.5t73.5 -33.5q150 -73 257 -204 t165 -298q32 -95 32 -201q0 -152 -67 -330q-13 -39 -21 -57q17 -15 35.5 -22t45.5 -10t34 -5q197 -42 387 -160q62 -38 95.5 -105t33.5 -142q0 -80 -36.5 -150.5t-104.5 -110.5q-39 -22 -101 -22q-60 0 -103.5 26t-43.5 78q0 3 1 8.5t1 8.5q9 57 66 67h10q19 0 31 -11.5 t12 -27.5q0 -20 -21 -32q-3 -2 -15 -8.5t-21 -12.5q7 -3 14.5 -8t13 -7.5t10.5 -2.5h11q68 0 116.5 53t69.5 129q10 42 10 74q0 134 -131 209q-163 91 -356 131q-24 4 -37 4q-19 0 -51 -4q-15 -1 -47 -44.5t-66.5 -98.5t-40.5 -62q-87 -109 -178 -174q-115 -81 -288.5 -136 t-329.5 -55q-90 0 -164 21q-70 20 -106 67.5t-36 110.5q0 104 82 180q81 74 202.5 126t260 77t258.5 35t244 10h74q15 29 22 49q26 94 47 330q2 20 2 57q0 160 -80 338q-134 291 -368 334q-6 1 -52.5 4t-87 7.5t-42.5 9.5q-3 9 -3 16q0 27 33 26q123 4 234.5 49t195 119 t132.5 181t49 231q0 6 -1.5 18.5t-1.5 18.5q-8 150 -217 203q-63 16 -139 16q-56 0 -128.5 -11.5t-106.5 -19t-127 -30.5q-81 -21 -361 -111q-11 -4 -51.5 -17.5t-58.5 -18.5t-50.5 -13.5t-59.5 -12t-54 -3.5q-35 0 -80 10q-95 25 -125 119zM707 -537q0 -55 25.5 -100.5 t74.5 -67.5q48 -22 113 -22q51 0 90 8q91 17 205.5 67.5t223 121t190.5 164.5t100 184v12v4q-3 4 -17 8q-38 6 -82 6q-50 0 -109 -6t-127 -18t-114 -21.5t-120 -26t-95 -20.5q-154 -32 -289 -141q-69 -54 -69 -152z" />
<glyph unicode="C" horiz-adv-x="1439" d="M-8 369q0 159 37 344q2 10 12 36.5t12 36.5q6 38 43 60q5 2 6.5 7t0.5 9.5t-3 11.5t-2 9q-1 3 0.5 7.5t4 10t3.5 8.5q8 19 18.5 36t24.5 36.5t23 34.5q142 259 414 428q166 104 244 140q127 58 229 58q31 0 69 -6q75 -18 116 -52t67 -103q26 -62 26 -138q0 -47 -20 -133 q-28 -106 -84 -206t-131 -162q-82 -68 -176 -68q-51 0 -95 27q-36 27 -36 86q0 65 36 94q28 9 39 -4q9 -9 9 -21q0 -6 -4.5 -24t-4.5 -27q0 -21 16 -36.5t36 -18.5q6 -2 18 -2q62 0 124 56.5t97 119.5q48 84 74 221q10 58 10 103q0 61 -20 114q-43 109 -146 109 q-115 0 -297 -127q-88 -63 -143 -113q-12 -11 -34.5 -34t-35.5 -35q-12 -12 -32 -35.5t-31 -34.5q-23 2 -25 2t-8.5 3t-9.5 1q1 -2 4 -8.5t4.5 -10t3 -9.5t0.5 -11.5t-4 -11.5q-4 -6 -10.5 -14t-15.5 -17t-13 -14q-40 -53 -88 -133q-8 -12 -25 -45q-121 -218 -180 -447 q-26 -117 -26 -207q0 -65 11.5 -122t37 -109t70 -91t106.5 -59q67 -18 115 -18q93 0 197.5 40.5t198 105t186.5 149t166 167.5t132 165q6 12 33 12q16 0 16 -12q0 -17 -8 -36t-17.5 -34t-27.5 -35t-28.5 -30.5t-31 -29t-24.5 -22.5q-1 -1 -46 -45.5t-103.5 -101t-127 -119 t-136 -115t-111.5 -73.5q-135 -66 -275 -66q-81 0 -151.5 35.5t-144.5 103.5q-158 141 -158 439z" />
<glyph unicode="D" horiz-adv-x="2125" d="M-98 66q0 71 37 133.5t98 93.5q67 31 139 31q116 0 201 -70q10 -8 96 -72q61 61 122 217t85 306q-7 9 -67 91t-89 126q-116 166 -116 374q0 198 108 344q84 112 198.5 187.5t231.5 75.5q29 0 64 -7q67 -10 82 -12q21 35 38 60q4 5 20.5 29.5t24 34t21.5 26t27 28.5 q8 8 46 27.5t56 19.5q12 0 12 -8q0 -6 -2 -8q-2 -6 -7.5 -12t-16 -13t-11.5 -8q-69 -54 -94 -194q3 -3 9.5 -8.5t12 -9.5t9.5 -7q25 -14 102.5 -54t128 -71t93.5 -69q188 -164 297 -500q88 -264 88 -451v-12q-3 -296 -136 -559q-154 -298 -366 -428q-122 -74 -256 -74 q-143 0 -282 79.5t-247 213.5q-73 93 -147 143q-10 -1 -19.5 -4.5t-15.5 -6t-15.5 -10.5t-12.5 -10.5t-13 -13t-12 -12.5q-64 -60 -86 -76q-117 -80 -227 -80q-101 0 -160 76q-49 63 -49 144zM-49 59q0 -17 8 -49q14 -48 46 -79.5t73 -32.5h26q125 0 209 63q32 24 52.5 41.5 t43.5 46.5t37 62q-67 80 -198 129q-16 8 -55 8h-13q-131 0 -227 -129q0 -9 -1 -29.5t-1 -30.5zM473 1253q0 -129 66.5 -249.5t169.5 -210.5q10 33 20 57q30 88 86 262t103 311.5t96 257.5q3 9 15 34.5t18 45t6 39.5q0 27 -33 27q-34 0 -91 -25t-87 -43q-121 -72 -162 -104 q-179 -144 -203 -338q-4 -40 -4 -64zM555 125q86 -101 90 -105q96 -106 175.5 -177.5t172.5 -118.5q92 -48 181 -48q83 0 163.5 40t145 105.5t121 151t96.5 174.5t67 179q64 217 64 430q0 124 -25 258q-27 149 -88 282q-5 11 -26 57.5t-30 65.5t-28.5 51.5t-38.5 57.5 q-87 110 -202 168q-9 5 -36.5 21t-43.5 24.5t-41 20t-46.5 17t-41.5 5.5h-10q-4 -11 -14 -40.5t-15 -45.5q-64 -210 -164 -502q-15 -43 -43.5 -128t-42.5 -128q-5 -13 -20 -50.5t-22.5 -58.5t-14.5 -53t-7 -59v-17q0 -6 13.5 -16.5t29 -18.5t34 -17.5t20.5 -10.5 q50 -24 104 -33q40 -4 62 -4q113 0 200 59t115 177q8 33 8 73q0 52 -22 95q-19 32 -58 32q-14 0 -26 -6q-13 -8 -13 -31q0 -7 7 -49q-28 -28 -54 -28q-23 0 -43 26q-6 9 -6 23q0 22 13 51.5t24 40.5q43 43 96 43q24 0 43 -8q90 -38 90 -176q0 -28 -8 -78q-36 -177 -145 -246 q-94 -61 -225 -61q-119 0 -207 49q-13 8 -39.5 20t-36.5 17q-14 -32 -54.5 -125t-61 -138t-59 -114.5t-77.5 -122.5z" />
<glyph unicode="E" horiz-adv-x="1294" d="M-47 328q0 160 74 299q33 61 88 122t104.5 101t120.5 92q59 42 59 105q0 28 4.5 87t4.5 91q0 10 -50 10q-74 0 -104 -6h-8q-130 0 -185 98q-24 43 -24 105q0 78 35 157t100.5 134t142.5 55h13q11 0 42 -17t31 -32q0 -7 -2 -9q-3 -3 -5.5 -5t-5.5 -1.5t-5 1t-5.5 2.5 t-4.5 3q-32 19 -58 19q-34 0 -73 -31q-88 -71 -88 -184q0 -74 39.5 -135.5t103.5 -79.5q7 -2 14.5 -6t15.5 -10t13 -9q21 -12 47 -12q22 0 41 8q18 32 23 43q25 67 61.5 138.5t90 148.5t112 137t132 98.5t146.5 38.5h13q48 0 78 -29.5t30 -78.5q0 -60 -27 -115 q-61 -128 -190 -221q-111 -83 -113 -84q-91 -64 -202 -94q-39 -119 -39 -199q176 47 194 51q35 6 66 6q76 0 123 -39q38 -32 61 -79.5t23 -98.5q0 -45 -21 -88q-56 -117 -194 -117q-89 0 -182.5 45t-135.5 99q-8 9 -25 24.5t-24 22.5q-8 -7 -28 -23.5t-29 -25.5 q-17 -19 -35.5 -40.5t-41 -48t-34.5 -40.5q-13 -16 -23 -24t-15 -10t-21.5 -4.5t-26.5 -4.5q3 0 7.5 -25t4.5 -37q0 -10 -8 -24.5t-21 -31t-16 -22.5q-48 -91 -75 -168q-21 -58 -21 -116q0 -79 34.5 -150t92.5 -123q190 -166 412 -166q8 0 75 5q109 11 179 53 q76 44 138 140.5t62 180.5q0 21 -2 31q-9 52 -51 93.5t-96 47.5h-12q-36 0 -70 -19.5t-45 -51.5q-8 -19 -8 -39q0 -10 2 -22t4.5 -20t7 -22t6.5 -20q-12 -9 -26.5 -7t-22.5 11q-14 14 -14 57q0 77 53 133q60 60 125 60q59 0 115 -43t89 -107t33 -125q0 -22 -6 -43 q-31 -121 -150.5 -211t-248.5 -108q-82 -10 -150 -10q-255 0 -385 125q-7 7 -28.5 26t-32 29t-27 26.5t-28.5 32t-23 31.5q-85 126 -92 231q-2 18 -2 58zM524 905q0 -31 19 -53q75 -81 196 -84q9 0 18 1l9 1q53 3 99.5 34.5t66.5 78.5q14 32 14 63q0 65 -57 107 q-40 30 -98 30q-89 0 -211 -79q-26 -15 -41 -42.5t-15 -56.5zM604 1323q8 -2 25 -2q25 0 61 16q16 7 31 15t31 18.5t28 17.5t29.5 21t26 20.5t28 23t25.5 21.5t27.5 24t25.5 22q58 51 111 151q24 50 24 88q0 34 -18 64q-15 24 -37 24q-12 0 -35 -10q-51 -23 -86 -61 q-123 -132 -219 -306q-13 -23 -38.5 -72t-39.5 -75z" />
<glyph unicode="F" horiz-adv-x="1249" d="M-59 106q0 42 14 103q35 132 166.5 244t269.5 112q64 0 117 -26q74 -38 74 -133q0 -28 -11 -70q-20 -64 -67 -105q-30 -24 -82 -24q-15 0 -35 4q-47 8 -47 47q0 23 22 74q9 27 25 24q-2 -9 -5 -27.5t-5 -27.5q-2 -4 -2 -14q0 -22 15.5 -32.5t37.5 -10.5q25 0 43 12 q29 20 46.5 59.5t17.5 81.5q0 40 -19 72q-42 61 -119 61q-20 0 -41 -6q-58 -14 -108 -67q-4 -4 -11.5 -13.5t-14.5 -16.5t-15 -11q-4 -2 -16.5 -2t-18 -4t-0.5 -17q3 -7 7 -14q3 -6 -1 -16q-1 -4 -2 -7q-2 -11 -27.5 -31t-29.5 -28q-60 -138 -60 -324v-18q0 -56 38.5 -111.5 t90.5 -79.5q55 -24 121 -24q81 0 161.5 42.5t142 109t107.5 145t66 153.5q46 174 150 676q36 204 43 287q-12 4 -39 4l-96 -16q-4 -1 -16 -6t-23 -8t-19 -3h-4q-2 0 -12.5 5.5t-19 11.5t-5.5 8t9.5 8.5t12.5 10.5t11 6q24 7 189 49q5 1 14.5 2t13.5 2q166 414 170 418 q-28 9 -35 8q-12 -2 -36 -2q-26 0 -55 4t-64.5 11t-52.5 9q-30 4 -62 12t-74 21t-61 18q-16 4 -48 12.5t-48 12.5q-14 4 -45 4q-69 0 -125 -35t-56 -94q0 -8 5 -33q8 -37 38.5 -72t65.5 -44q16 -4 25 -4q53 0 81 81q1 5 5 20.5t8 29t10 28t14.5 23t18.5 8.5q4 0 8 -2 q17 -5 26 -26.5t9 -43.5v-12q-8 -56 -56.5 -90.5t-109.5 -42.5q-8 -2 -25 -2q-59 0 -104 38t-55 99q-5 30 -5 35q0 78 59 129t140 51h21q46 0 93 -9t117.5 -30t90.5 -26q110 -26 180 -33q4 0 22.5 -3.5t38 -6t35.5 -2.5q35 0 45 12q68 90 146 125q67 32 139 32t72 -53 q0 -96 -175 -133q-35 -6 -94 -14q-44 -81 -79.5 -190.5t-36.5 -188.5q39 0 80.5 7.5t98.5 22t79 19.5q123 25 147 29q2 0 24 5.5t46.5 10t40.5 4.5q26 0 26 -12q0 -6 -2 -8q-13 -30 -27.5 -46.5t-39.5 -17.5q-124 -8 -267 -49q-84 -21 -192 -41q-27 -4 -41.5 -19t-22.5 -44 q-1 -3 -4 -26.5t-8 -29.5q-5 -7 -13 -87.5t-9 -84.5q-1 -6 -9.5 -25.5t-9.5 -29.5q-4 -53 -45 -184q-22 -70 -50.5 -192t-49.5 -208t-65 -187.5t-103 -170.5q-93 -108 -216.5 -169.5t-248.5 -61.5q-133 0 -221 100q-133 153 -133 325zM1335 1712q5 0 15 -1t14 -1 q53 0 82.5 20t48.5 66q-8 2 -25 2q-38 0 -68.5 -20t-66.5 -66z" />
<glyph unicode="G" horiz-adv-x="1277" d="M-197 -977q0 100 54 154q13 9 39.5 32.5t42.5 34.5q48 31 79 31h7h12q75 0 88 -20q2 -4 2 -10t-1 -13t-1 -10q-1 -7 1.5 -8.5t6 0t8.5 4.5q12 10 31 10q31 0 51 -37t29 -78q4 -28 4 -47q0 -46 -16 -65q-20 -23 -62 -23h-16q-17 0 -25 8q-28 37 -28 56q0 8 2 12l12 24 l4.5 4.5t3.5 6.5q0 33 -26.5 52.5t-61.5 27.5q-10 2 -27 2q-40 0 -62 -17t-44 -53l-8 -9q-9 -10 -11 -16q-14 -28 -14 -65q0 -44 19.5 -88.5t44.5 -69.5q81 -84 217 -84q21 0 53 4q150 21 271 130t194 270q62 136 90 278q2 6 5 20.5t6.5 25.5t8.5 18q15 20 19 24q2 2 8 6 t10 8.5t4 8.5q-1 7 -16.5 13.5t-15.5 18.5q0 14 10 64q5 33 13.5 98t10.5 80q23 171 50 288.5t43 215.5q4 28 -7 43q-7 10 -23.5 13.5t-31.5 0.5q-16 -5 -45 -30q-171 -158 -352 -242q-10 -5 -51.5 -29t-70.5 -34.5t-60 -10.5q-3 0 -9.5 1t-9.5 1q-84 10 -145 125 q-33 63 -41 176q-2 20 -2 64q0 258 100 506.5t275 500.5q123 178 235 265q82 65 168 75q12 2 35 2q98 0 151 -59q33 -29 33 -66q0 -2 -1 -6t-1 -6q-5 -17 -19.5 -29t-33.5 -12q-11 0 -15 2q7 14 7 23q0 29 -30 55t-65 31h-10q-67 0 -137 -55q-167 -129 -246 -304 q-7 -14 -19.5 -44t-23.5 -51t-26 -38q-17 -17 -25 -18q-2 -1 -9 -1t-11.5 -1.5t-4.5 -5.5t15 -27q18 -30 12 -49q-3 -8 -18.5 -26.5t-16.5 -28.5q-6 -27 -15 -53.5t-23 -63t-19 -49.5q-127 -335 -127 -658v-14q0 -55 27 -76q18 -18 47 -18q10 0 22 3t19 6t20.5 9t17.5 8 q219 109 386 240q30 24 57 51q4 3 23.5 21t31.5 24l6 3t6 3.5t5 3.5t5 3.5t4 4t4 5.5t3 6q4 6 4.5 13.5t-6.5 11.5q-4 2 -14 2q-3 0 -9 1t-8 1q-7 0 -19.5 -0.5t-22.5 -0.5t-19 1q-20 4 -29 4q-16 0 -21.5 12.5t-0.5 28.5q1 3 3.5 5t4 3t5 1.5t4.5 0.5h6.5h6.5h92h23 q1 0 4 -1t4 -1q6 -2 15 -2t19.5 1t14.5 1h35h72q37 -5 47 -4q8 -1 20.5 1.5t18.5 2.5q7 0 24 1t25 1q24 0 35.5 -9t11.5 -32q0 -25 -39 -25q-4 0 -11.5 1t-10.5 1q-10 0 -30 5.5t-30 5.5q-30 0 -35 -2q1 -2 -0.5 -7t-1.5 -6q0 -33 -12 -63q-5 -26 -4 -33q0 -9 -4 -33 q-2 -14 -5 -41.5t-5 -40.5q-9 -85 -21 -168q-4 -24 -4 -41q-16 -109 -38 -189.5t-44 -190.5q-28 -137 -60.5 -252.5t-86 -241.5t-118 -220.5t-158.5 -171.5t-206 -114q-73 -24 -149 -24t-141 26q-74 28 -133 91t-80 139q-9 34 -9 65z" />
<glyph unicode="H" horiz-adv-x="2074" d="M-8 170q0 5 1 14.5t1 14.5q7 96 59 176t135 131q79 49 158 49q58 0 109 -29q43 -25 70.5 -68t27.5 -87q0 -46 -26.5 -82.5t-69.5 -48.5q-16 -4 -23 -4q-33 0 -62.5 18.5t-29.5 42.5q0 6 2 10q24 -12 49 -12q44 0 72 31q16 22 16 51q0 39 -24 69q-43 52 -113 52 q-3 0 -10 -1t-10 -1q-61 -8 -115 -62q-105 -105 -105 -268q0 -97 39 -182q64 -139 176 -179q37 -12 76 -12q97 0 199 72q96 65 177 152.5t145.5 193.5t111.5 204.5t96 223.5q77 195 119.5 361t42.5 333v19q0 14 -5 44t-5 44q0 32 18 47q11 8 11 14q0 5 -9 9t-21 7t-15 5 q-13 7 -31 31.5t-25 31.5q-72 66 -176 66q-64 0 -126 -24t-105 -62q-38 -32 -50 -65t-12 -89q0 -18 -10.5 -23t-19.5 13q-11 25 -11 55q0 62 46 114.5t108 80.5q77 32 174 32q102 0 194 -37t144 -96q71 -83 82 -213q0 -6 1 -19.5t1 -19.5q0 -70 -16 -142t-47.5 -169.5 t-41.5 -136.5q-9 -22 2 -35q10 -14 45 -10q85 9 293 39q67 8 95 28q24 17 49 78q153 391 224 546q84 183 171 327q42 72 85.5 122.5t102.5 79.5q56 29 107 29q60 0 104 -33q35 -25 62.5 -79.5t27.5 -108.5q0 -57 -34 -94q-12 -15 -42.5 -26t-62.5 -11q-63 0 -82 39 q-5 9 -1 18t14 8q5 0 12.5 -5.5t9.5 -6.5q9 -6 21 -6q23 0 46 22.5t35 45.5q15 30 15 63q0 43 -20.5 79t-53.5 46q-15 6 -29 6q-49 0 -100 -63q-34 -45 -115 -183q-348 -608 -559 -1446q-6 -21 -25.5 -92.5t-28 -106.5t-17.5 -93t-9 -105q0 -40 11 -100 q26 -134 109.5 -250.5t205.5 -171.5q74 -31 135 -31q40 0 82 17q37 15 61.5 49.5t24.5 75.5q0 26 -8 45q-5 1 -14.5 3.5t-15.5 4t-14 1t-15 -4.5q-1 -1 -10.5 -10t-18.5 -15t-16 -6t-9 2q-4 4 -4 6q-7 20 10 33q55 51 111 50q34 0 65 -17t44 -47q8 -16 8 -35q0 -45 -43 -92 q-44 -47 -109.5 -72t-138.5 -25q-121 0 -225 64q-116 70 -195.5 183t-101.5 235q-8 49 -8 110t8.5 129t24 153.5t20.5 123.5q20 137 47 245q2 7 4.5 21t4 20t5 16t8.5 15t13.5 10.5t19.5 8.5q14 5 12 12t-15.5 14.5t-16.5 16.5q-1 4 1 10.5t5 14.5t4 11q12 61 22 62 q-63 -5 -180 -16t-168 -15q-55 -4 -78 -16q-16 -11 -43 -51q-39 -65 -138.5 -249.5t-162.5 -279.5q-40 -61 -78.5 -112t-89.5 -104.5t-104 -94t-118.5 -72.5t-135.5 -47q-30 -6 -63 -6q-31 0 -45 2q-115 12 -207 86q-78 63 -122 154.5t-44 183.5zM37 156l4 -6v6h-4z M2126 1491l4 -6l2 6h-6z" />
<glyph unicode="I" horiz-adv-x="1456" d="M2 291q0 107 35 210.5t96 184.5q153 207 359 207q100 0 170 -53q48 -35 90.5 -110t46.5 -150v-13q0 -69 -38 -120.5t-99 -51.5q-50 0 -70 29q-6 10 -4 24.5t12 18.5q3 4 19.5 2.5t21.5 -0.5q31 0 51 47q33 72 33 127v12q-6 48 -41 91t-84 71q-54 33 -104 33h-15 q-22 0 -44.5 -12t-36 -24t-33.5 -34q-135 -144 -189 -377q-3 -12 -5.5 -17t-4 -7t-9.5 -5.5t-14 -6.5q-12 -6 -12 -15q0 -8 13 -23t14 -18q3 -3 0.5 -27.5t-2.5 -27.5q-6 -111 -6 -113q0 -84 9 -136t40 -97q33 -51 108 -86q110 -55 236 -55q307 0 444 335q128 326 146 379 q77 228 163 617q-20 -4 -50.5 -12.5t-50.5 -11.5t-48 -3q-115 0 -174 64q-43 43 -43 106q0 41 14 79.5t30 60.5t44.5 57t40.5 51q43 56 130.5 162t125.5 155q14 19 40.5 55t39.5 54q7 9 22.5 39.5t31 45.5t38.5 15q33 0 51.5 -19t18.5 -54q0 -26 -8.5 -74t-8.5 -53 q-1 -14 -13 -149.5t-22 -203.5q-12 -90 -12 -92q-1 -3 -4 -14.5t-6 -16.5q-2 -3 -13 -7t-14 -11q-2 -9 -2 -12t2.5 -10t3.5 -11v-16q0 -21 -4 -41.5t-11.5 -48.5t-10.5 -39q-72 -301 -172 -623q-90 -298 -271 -553q-185 -258 -461 -258q-122 0 -232.5 60.5t-186.5 169.5 q-99 139 -109 311q0 6 -1 19.5t-1 19.5zM1055 1272q5 -69 67 -144q4 -7 17 -12.5t22 -3.5q71 8 115 38t55 95q2 11 5 32.5t5 31.5q7 56 22.5 167t22.5 166q11 91 11 99v12q0 19 -2 29q-6 2 -19 2q-9 0 -17 -3.5t-11 -6t-11.5 -11.5t-9.5 -10q-19 -24 -76 -95.5t-88 -109.5 q-15 -17 -27 -37t-23 -44.5t-17.5 -40.5t-17.5 -47t-15 -42q-8 -21 -8 -51v-14z" />
<glyph unicode="J" horiz-adv-x="987" d="M-672 -14q5 82 29.5 164t73.5 158t108 135t134.5 96t152.5 41h15q104 0 182 -80q30 -33 47 -72q13 -33 14 -77q1 -6 1 -12q0 -38 -9 -74q-9 -42 -35 -76.5t-64 -45.5q-27 -6 -52.5 10.5t-24.5 43.5q2 21 28.5 53t30.5 53q2 12 2 23q0 32 -18 64q-25 42 -68 59 q-33 11 -66 11q-23 0 -45 -6q-54 -13 -102 -51q-117 -93 -186 -247q-50 -108 -50 -209q0 -43 9 -84q29 -138 150 -233q117 -93 252 -93h9q273 3 445 152q131 116 192 270q39 99 67 203t47.5 229.5t29 202.5t24.5 234t21 212q0 9 -1 27.5t-1 28.5q0 2 -28 26.5t-59 52.5 t-36 37q-39 60 -39 123q0 20 4 41q5 26 15 51t30 54t29.5 42t39 48.5t33.5 40.5q49 58 145.5 160t167 187.5t124.5 176.5q10 20 24 31q8 6 26.5 7.5t34.5 -6t15 -22.5q0 -18 -2 -20q-157 -272 -209 -378q-147 -300 -172 -558q4 -10 24 -10q16 0 41 6q58 13 74 22 q23 13 58 48t53 47q1 -8 1 -15q0 -34 -22 -64q-28 -36 -69 -57q-9 -5 -50.5 -15.5t-77 -21.5t-38.5 -20q-5 -15 -9 -31t-7 -29t-6 -32.5t-5 -30t-4.5 -33.5t-3.5 -30.5t-3 -33.5t-2.5 -31t-2.5 -34t-2 -32q-6 -97 -9.5 -143t-12 -138.5t-17 -143.5t-24.5 -134.5t-35 -137 t-48 -125.5t-63.5 -126t-81 -112t-102.5 -108q-69 -62 -164 -100t-195 -49q-40 -4 -80 -4q-62 0 -125 10q-104 17 -192.5 59t-159 116.5t-104.5 172.5q-22 61 -22 128q0 14 1 28zM568 1300q21 -80 114 -137q28 120 33 137q5 20 16.5 59t16.5 58q6 18 19 61t21 66 q4 12 46 115q4 12 27 52t26 67q-19 -4 -34 -13.5t-23 -19t-20.5 -26t-18.5 -23.5q-118 -136 -189 -238q-40 -57 -40 -114q0 -22 6 -44z" />
<glyph unicode="K" horiz-adv-x="1404" d="M-53 -432q0 22 6 37q28 68 88 212t104.5 255.5t81.5 214.5q30 81 62.5 181t52 164t57.5 190t52 171q30 95 88.5 286t87.5 286q4 12 7 25.5t6.5 32t6.5 30.5q-125 9 -155 10q0 4 -1.5 11.5t-1.5 11.5q36 25 118 34t116 31q25 -25 25 -53q0 -15 -10 -41.5t-11 -30.5 q-28 -91 -81.5 -272.5t-80.5 -272.5q-2 -6 -6 -49q165 19 352 156q155 111 291 336q35 57 109 69q26 4 52.5 12.5t65 23.5t58.5 22q-3 -7 -6 -19t-6 -18.5t-7 -9.5q-6 -4 -23 -15l-25.5 -16.5t-23 -13.5t-27.5 -13t-26 -8q-60 -13 -94 -68q-58 -96 -104 -165 q-128 -196 -381 -285q-15 -6 -49.5 -20t-55.5 -21q15 -28 45.5 -86t54.5 -100.5t50 -79.5q34 -49 65.5 -112.5t49 -110.5t45.5 -125.5t43 -116.5q31 -77 114.5 -303t135.5 -346q62 -141 223 -387q156 -236 457 -236h6q102 0 191 47.5t147 128.5q67 94 67 201q0 100 -55 207 q-27 52 -132 97.5t-181 45.5q-4 0 -11 -1t-10 -1q-43 -6 -71.5 -35t-37.5 -76q-4 -24 -4 -36q0 -42 16 -78.5t42 -46.5q14 -7 30 -7q7 0 15.5 1t18 3t14.5 3q8 1 36 20q11 -33 11 -49q0 -41 -45 -57q-59 -19 -99 -19q-77 0 -116 53t-39 134v24q0 78 42 131.5t117 75.5 q110 29 189 29q218 0 346 -209q47 -74 47 -158t-53 -164q-140 -204 -338 -282q-79 -33 -168 -33q-139 0 -291 84q-265 152 -383 397q-22 45 -86 157t-90 177q-45 113 -120.5 333.5t-115.5 323.5q-36 92 -52.5 131.5t-51.5 113.5t-72 128.5t-82 103.5q-5 5 -45 41 q-39 -80 -45 -100q-163 -482 -233 -704q-7 -23 -69 -208t-87 -282l-4.5 -18t-5 -18t-5 -14.5t-6.5 -14t-8 -10.5t-10.5 -10t-13.5 -6.5t-18 -4.5q-6 -2 -23 -2q-34 0 -45 14q-8 12 -8 31z" />
<glyph unicode="L" horiz-adv-x="1308" d="M-94 -193q0 4 1 12.5t1 12.5q9 80 70 132t145 67q51 10 123 10h51q13 0 53.5 -7t59.5 -7q22 0 30 4q7 3 15 13.5t13 18.5t12.5 22.5t8.5 16.5q50 87 118 222t93 206q88 239 246 555q3 6 7.5 24.5t10 33t11.5 18.5q-153 -88 -238 -88q-43 0 -84 21q-37 20 -57.5 58.5 t-20.5 82.5q0 68 46 111q30 26 59 26q6 0 18 -4q29 -10 29 -43q0 -17 -10 -25t-34.5 -9t-31.5 -3q-20 -4 -31.5 -22t-11.5 -41q0 -17 6 -29q12 -31 56 -55.5t92 -24.5q35 0 63 14q95 42 172 125q13 14 24 30t17 26.5t14.5 33t11 29.5t11 37t10.5 35q49 172 144 338 q39 68 78 94q34 27 73 27q19 0 41 -11q54 -29 54 -104q-2 -48 -37 -115q-31 -60 -70.5 -115t-100.5 -128.5t-85 -104.5q-65 -86 -123.5 -202.5t-88 -193.5t-85.5 -233q-20 -62 -39 -112q-12 -36 -19 -43q-2 -2 -16.5 -3.5t-15.5 -15.5q-1 -9 4.5 -27t3.5 -28 q-1 -16 -58.5 -107t-60.5 -98q-29 -73 -68 -147q-11 -22 -34.5 -74.5t-38.5 -81.5q255 -194 377 -274q404 -265 714 -273h21q132 0 254 45q135 51 135 133q0 15 -2 23q-9 36 -37 51l-12 6q-6 5 -6 15.5t6 17.5q14 14 35 10q37 0 83.5 -44.5t51.5 -82.5q0 -3 1 -8t1 -8 q0 -55 -43 -104t-101 -80q-122 -68 -284 -68q-255 0 -543 137q-102 48 -198.5 108.5t-235.5 162t-180 129.5q-36 24 -64 24h-4q-25 -4 -44 -23.5t-39.5 -53t-27.5 -42.5q-70 -81 -190 -131q-46 -18 -94 -18q-87 0 -149 53t-62 141zM-16 -201q0 -19 6 -37q11 -27 34 -52.5 t48 -35.5q1 -1 34 -6h19q60 0 90 19q23 19 70 77q80 87 112 175q4 16 4 22q0 16 -28 16h-15q-13 0 -35.5 -3t-33.5 -3h-8l-33 2q-9 1 -22.5 4t-24.5 5t-21 2q-20 0 -41 -9q-59 -19 -107 -69t-48 -107zM1202 1440q0 -11 6 -23q32 13 66 60q5 6 13 19.5t15 23.5t15 18 q19 20 36 47t25.5 44.5t25.5 55t23 50.5q11 19 11 47q0 26 -8 53q-7 -5 -18.5 -12t-14.5 -11q-94 -115 -180 -329q-1 -4 -5.5 -12t-7 -16t-2.5 -15z" />
<glyph unicode="M" horiz-adv-x="2007" d="M-344 88q0 44 20.5 78.5t57.5 34.5h6q2 -2 2 -6q11 -59 27 -98.5t49 -67.5q13 -13 41 -13q36 0 81 23t76 51q73 63 105 91.5t87.5 83.5t94.5 104q37 48 109 136t86 105q20 20 32 41q39 69 142 193q6 6 11 13.5t9.5 17.5t7 17t6 20.5t5 19t4.5 21.5t4 20q26 126 51 235 q5 42 12 54q3 4 11 11t12.5 11.5t7.5 12.5t-6 14q-1 1 -3.5 4t-4.5 5t-6 3q19 121 57 215q18 44 65.5 90.5t90.5 46.5q30 0 49 -22q44 -46 47 -129q0 -49 -17 -90q-82 -194 -159 -291q-91 -119 -115 -262q-13 -71 -29.5 -206.5t-27.5 -197.5q-34 -195 -58 -397 q-2 -14 -3 -40t-1 -34q6 0 8.5 -1.5t7 1.5t5.5 4l5 5l5 5q17 19 62 66.5t75.5 82t57.5 67.5q56 72 117.5 154t135 182t115.5 155q42 54 123 163.5t123 164.5q16 22 24 82q29 240 35 295q4 37 13 79t22 93t19 79q9 42 30 120t27 104q44 170 135 202q6 2 16 2t20 -5.5 t16.5 -12t14.5 -20.5t11.5 -20.5t10 -22.5t7.5 -17q29 -66 29 -131q0 -25 -2 -37q-20 -135 -121 -358q-7 -15 -20.5 -44.5t-25 -52.5t-24.5 -44q-49 -82 -61 -179q-3 -27 -8.5 -57.5t-14 -69.5t-12.5 -57q-9 -50 -22 -211q-4 -55 -14 -168.5t-15 -179.5t-9.5 -159t-4.5 -171 q0 -118 8 -211q2 -19 3 -42.5t2 -34t4.5 -24.5t10.5 -28l24 -48t28 -54.5t25 -44.5t33 -51.5t34 -42.5q69 -81 166 -138q47 -26 94 -26q41 0 90 22q41 21 68.5 59.5t27.5 80.5q0 32 -18 59q-2 3 -8.5 11t-8.5 11q-17 7 -28 7q-26 0 -62 -28.5t-47 -33.5q-18 3 -18 17 q0 21 30 43q21 17 78 59q53 0 78 -2q54 -1 91.5 -43t37.5 -96t-39 -93q-23 -26 -78 -53q-126 -63 -211 -63q-63 0 -118 35q-195 128 -275 305q-7 16 -24.5 43t-24.5 41q-43 94 -70 268q-22 140 -22 313q0 73 4.5 161.5t9.5 145.5t15 167.5t14 150.5q0 4 -1 12.5t-1 12.5 q-16 7 -29 -11q-28 -41 -96.5 -128t-99.5 -136q-39 -59 -125.5 -164.5t-122.5 -156.5q-110 -158 -223 -277q-104 -108 -142 -209q-9 -4 -27 -15.5t-32 -17.5l-3 6t-3 7.5t0 7.5q4 102 4 153q0 108 -6 216q-2 16 2 49q4 39 11 136.5t15 167.5t21 136q5 34 0 45q-24 4 -45 -27 q-29 -52 -99 -141t-79 -102q-173 -240 -414 -439q-46 -39 -100 -57q-76 -45 -130 -45h-6q-33 0 -69.5 18t-57.5 43q-18 21 -18 68zM866 1151q19 0 23 2q50 46 67 92q12 27 42 84t42 88q23 63 23 99q0 33 -12 63q-2 4 -5 8t-8.5 8.5t-7.5 6.5q-10 -6 -17.5 -13t-13.5 -17 t-9 -15.5t-8.5 -19.5t-6.5 -17q-48 -114 -94 -303q-3 -11 -7.5 -33t-7.5 -33zM1757 1421q13 6 22 15t10.5 13t6.5 17q33 82 43 103q44 87 78 211q12 50 12 92q0 58 -22 119q-1 3 -23 20q-36 -45 -41 -82q-17 -89 -22 -119q-3 -14 -14.5 -87t-20.5 -113q-29 -122 -29 -189z M2277 -512v-6q4 0 4 2v6z" />
<glyph unicode="N" horiz-adv-x="1734" d="M-221 -319q2 0 2 2q10 15 27.5 21t47 8.5t38.5 4.5q33 6 64 28t48.5 42.5t44.5 56.5q169 236 304 514.5t266 620.5q31 82 65 186q14 47 14 76q0 39 -16 82q-29 83 -29 178q0 37 2 55q4 38 11 56q15 46 39 64t71 18q42 0 103 -11q41 -8 41 -81q0 -46 -16.5 -118 t-35 -127.5t-38.5 -113t-21 -59.5q-12 -27 -12 -58q0 -30 10 -53q28 -71 52 -149t52 -185.5t41 -152.5q6 -22 31 -94.5t33 -112.5q18 -94 68.5 -263t66.5 -239q2 -6 8 -23t10 -32q5 9 11 18.5t9.5 15.5t4.5 11q22 131 27 178q21 172 47 242q25 69 66 187.5t69.5 200.5 t73 200t82 204t92 193.5t106.5 188t121.5 168.5t142 153.5t162.5 124t189 98.5q62 25 141 35q10 2 33 2q89 0 153.5 -64t91.5 -159q13 -47 13 -86q0 -159 -133 -303q-20 -20 -39 -31q-34 -17 -64 -17q-49 0 -85 35.5t-36 93.5q0 4 2.5 13.5t2.5 13.5q2 1 5 4.5t5.5 5.5 t5.5 2q42 11 51 11q13 0 18 -7.5t5 -25.5q0 -25 -2 -41q-1 -3 2 -23q5 1 16 0.5t20 0.5t15 5q72 44 112.5 117t40.5 156q0 89 -47 166q-43 71 -114 71q-43 0 -93 -24q-430 -202 -628 -578q-235 -448 -477 -1169q-33 -96 -70 -283.5t-43 -214.5q-17 -77 -88 -135 q-13 6 -17.5 15.5t-3 18t-0.5 17.5q-2 14 -10 47l-141 510q-12 44 -83.5 314.5t-115.5 412.5q-6 17 -19 46.5t-18 41.5q-25 -9 -37 -26t-24 -47q-22 -48 -139.5 -327.5t-194.5 -420.5q-32 -58 -66 -113t-91 -132.5t-112 -133t-124.5 -95.5t-132.5 -40q-42 0 -80 17z M696 1511q0 -25 5 -50.5t15.5 -61.5t14.5 -56q5 4 10 8.5t7.5 6.5t4.5 4t3 4q33 141 35 238q0 8 -9 18.5t-18 13.5q-14 7 -26 -0.5t-17 -21.5q-25 -69 -25 -103z" />
<glyph unicode="O" horiz-adv-x="1304" d="M2 397q0 75 6 142q11 106 41 217t78 222t116 214t149.5 188.5t185.5 150t217 95.5q18 6 32 6q24 0 39 -14t15 -41q0 -17 -17 -27q-9 0 -14.5 3.5t-11 11.5t-7.5 10q-18 18 -47 18q-19 0 -34 -6q-13 -4 -27 -10t-30 -16.5t-25 -16.5t-28 -19.5t-24 -17.5 q-112 -77 -202 -207t-143 -275.5t-81 -290.5t-28 -271v-127q0 -140 22.5 -231.5t98.5 -165.5q48 -45 135 -45q106 0 235.5 56.5t200.5 129.5q154 154 269.5 406t115.5 456q0 42 -6 80q-17 112 -72 178q-63 72 -149 72q-80 0 -157 -56.5t-118 -146.5q-57 -128 -57 -233 q0 -25 2 -37q4 -41 25 -80t55 -39q23 0 47 18q-12 -32 -44 -52.5t-67 -20.5q-3 0 -8.5 1t-7.5 1q-68 14 -104 88q-35 63 -35 151q0 102 45 191q41 83 112.5 150t159.5 106q82 37 158 37q5 0 14.5 -1t14.5 -1q67 -9 120.5 -51.5t87.5 -106.5q60 -111 60 -256q0 -140 -49 -289 q-40 -127 -138.5 -298t-191.5 -271q-119 -127 -268 -216t-285 -89q-95 0 -168 47q-77 47 -126.5 145.5t-68 205.5t-18.5 228z" />
<glyph unicode="P" horiz-adv-x="1316" d="M-121 1241q0 51 12 129q20 115 92.5 193t182.5 79q88 0 133 -16q30 -11 55 -43t25 -65q0 -22 -10 -37q0 -4 -4 -4q-2 -2 -9 2q-17 10 -28 49.5t-27 50.5q-15 10 -41 10q-46 0 -82 -18q-28 -13 -50.5 -37t-39.5 -63t-24 -60.5t-20 -66.5q-3 -12 -5 -17q-25 -86 -25 -168 q0 -73 21 -141q12 -41 33.5 -74.5t51.5 -58t61 -43t73.5 -33.5t77 -24.5t82.5 -20.5q30 32 53 96q23 62 65.5 173t59.5 155q12 31 22.5 62.5t20 67t16.5 61t16.5 67t13.5 61.5t14.5 68.5t13.5 64.5q10 50 49 223t55 269q3 16 17 42.5t18 41.5q22 10 51 18q29 -9 29 -45 q-3 -51 -7.5 -99.5t-14 -122t-11.5 -93.5q-2 -10 -2 -27q15 -10 27 6q2 3 18.5 24t20 26t19 24t21 25.5t20 23t22.5 24t22 21t25 22t25 18.5t28 18q11 7 32 23t27 20q103 79 260 100q36 4 53 4q125 0 191 -82q12 -12 12 -18q1 -8 -6 -15.5t-17.5 -15.5t-13.5 -12 q-3 -3 -5 -5.5t-4 -6t-1 -6t6 -3.5q12 -2 37 -2q23 0 29 -4q3 -3 4.5 -7.5t2 -9.5t1.5 -7q12 -82 12 -129q0 -52 -8 -93q-7 -53 -29 -127q-89 -285 -299 -508.5t-493 -349.5q-43 -19 -130 -50.5t-130 -51.5q-8 -24 -8 -31q-52 -368 -89 -682q-1 -3 -1 -11t-1 -13.5t-4 -8.5 q-7 -7 -22 -12q-3 -1 -5 -3t-1.5 -4l1 -4t2.5 -4.5t3.5 -4t4 -3.5t3.5 -3q14 -11 8 -29q-6 -17 -14 -51.5t-14 -51.5q-21 -66 -57.5 -113t-96.5 -91q-30 -13 -39 -13q-18 0 -31 13q-84 75 -84 272q0 40 9 119q13 102 55.5 298t73.5 308q5 17 30 94q4 8 2 13q0 4 -6 10 q-16 16 -69 33q-173 52 -263 135q-53 46 -88.5 103t-72.5 140q-19 45 -19 113zM-74 1241l4 6h-4v-6zM264 -49v-25q0 -90 37 -227q5 -18 9.5 -29t16 -23t27.5 -18q3 4 12.5 16t12.5 19q35 59 53 146q20 93 70 348q15 78 30 247.5t21 286.5q0 29 -53 29q-15 0 -51 -6 q-21 -29 -46 -113q-21 -73 -68.5 -308t-66.5 -302q-4 -24 -4 -41zM471 764q18 -6 39 -6q28 0 49 8q5 34 19 127.5t22 144.5q1 4 -2 41q-24 -39 -72.5 -159.5t-54.5 -155.5zM680 784q19 -11 55 2q68 22 143.5 60t122 66.5t134.5 84.5q70 44 125 109q23 28 66.5 77.5t76 89.5 t59.5 83q72 109 90 170q53 174 66 311q2 12 2 37q0 82 -39 158q-44 86 -131 86h-6q-80 0 -125 -11q-168 -38 -283 -165q-51 -54 -88 -105q-35 -48 -53 -75t-35.5 -73t-17.5 -90q0 -3 -2.5 -10t-3.5 -10q-5 -25 -20 -87t-23.5 -107.5t-12.5 -88.5q-1 -17 -9 -48.5t-9 -35.5 q-6 -29 -31 -125.5t-36.5 -163.5t-14.5 -139zM1614 2077l4 -2q2 2 2 6q-4 2 -4 0q-2 0 -2 -4z" />
<glyph unicode="Q" horiz-adv-x="1513" d="M31 625q0 149 48.5 295.5t135.5 271.5q150 211 300.5 329.5t336.5 172.5q46 12 96 12q149 0 293 -86q145 -88 189 -340q18 -111 18 -225q0 -277 -97.5 -572t-256.5 -544q-15 -23 -66 -140q5 -10 15 -16t27 -11.5t22 -7.5q162 -79 486 -236.5t486 -236.5 q115 -55 186.5 -88.5t181.5 -81t195.5 -75.5t188 -56.5t202 -41.5t197.5 -13h39q141 0 264 52t181 157q41 77 41 160q1 36 8 56.5t16 31.5t41 43q6 6 8.5 13t-2.5 11q-2 2 -12 2q-54 -6 -55 -6q-21 0 -37 13q-13 10 -31 49.5t-24 48.5q-79 110 -183 135q-24 6 -49 6 q-45 0 -87 -20t-66 -56q-23 -38 -23 -75q0 -38 18.5 -71t51.5 -48q-16 -4 -29 -4q-40 0 -74 28t-43 68q-4 20 -4 31q0 39 20.5 76.5t53.5 62.5q71 57 182 57h14q106 0 202.5 -45t160.5 -127q82 -105 82 -239q0 -89 -41 -166q-82 -152 -301 -226q-174 -61 -379 -61 q-232 0 -500 82q-69 21 -146.5 51.5t-127 50.5t-146.5 68t-123 61t-143.5 74t-126.5 66q-322 165 -729 352q-21 9 -54.5 18t-57.5 14l-23 5q-31 -13 -37 -19q-38 -34 -100 -114q-102 -132 -228 -181q-46 -18 -98 -18q-56 0 -104.5 22.5t-75.5 65.5q-27 44 -27 92 q0 64 38.5 124t99.5 93q79 43 188 43q78 0 170 -20q22 -4 63 -4q16 0 78 4q25 40 44.5 76.5t26.5 52.5l7 16q70 184 209 658q57 193 72 299q3 16 6.5 70.5t11.5 80.5q5 17 13 28.5t22 27.5t22 26q-20 6 -31.5 12.5t-16 15t-6 19.5t-1 26.5t-0.5 35.5q-8 158 -63 229 q-39 52 -102.5 80.5t-133.5 28.5q-12 0 -47 -5q-134 -18 -283 -135q-230 -176 -370 -435t-140 -535v-27q0 -200 109 -260q41 -21 86 -21q31 0 68 13q60 24 96.5 83.5t36.5 125.5q0 22 -17.5 59t-17.5 53q0 4 24 4q71 0 91 -8q65 -33 65 -96q0 -57 -49.5 -112t-112.5 -97 q-80 -55 -176 -55q-44 0 -90 16q-92 34 -163.5 114t-90.5 173q-16 88 -16 166zM444 -344q0 -46 32.5 -93.5t74.5 -62.5q16 -4 22 -4q85 0 125 33q67 52 114 103.5t79 121.5q-142 39 -242 39q-6 0 -19.5 -1t-19.5 -1q-73 -7 -114.5 -32t-49.5 -83q-2 -6 -2 -20z" />
<glyph unicode="R" horiz-adv-x="1949" d="M104 -410q-2 13 -2 25q0 39 22 66q18 22 47 22q17 0 38 -8q-4 -17 -34.5 -36.5t-35.5 -35.5q-2 -8 -2 -15q0 -32 37 -61q52 -41 110 -43h8q54 0 98 28q48 30 91 77t72.5 99.5t46.5 101.5q64 180 181 571t190 590q3 10 20 57.5t22 61.5t21.5 57t26.5 61t27.5 53.5t33.5 55 t37 45t44.5 44.5t49.5 34q56 31 83 31q17 0 22 -13q3 -7 0 -15.5t-11.5 -17.5t-15 -15t-17 -14.5t-11.5 -9.5q-79 -62 -117 -172q-20 -56 -42 -126t-34 -110t-38.5 -133t-33.5 -116q-27 -92 -149 -457q-9 -27 -29 -89t-31.5 -96t-30 -84t-38 -92.5t-41.5 -82.5 q-76 -138 -188 -241t-242 -119q-16 -2 -31 -2q-64 0 -108 38q-38 30 -46 86zM250 991q-14 43 -14 87q0 68 34 139q41 84 140 169q165 141 380 216q209 73 427 73h12q157 -2 292 -59t199 -178q42 -86 43 -178q-1 -20 -3 -38q-10 -112 -70 -206q-53 -84 -132.5 -149.5 t-185.5 -125.5q-28 -16 -35 -32v-15q2 -13 19 -30q76 -84 119 -146.5t96 -165.5q16 -31 22.5 -46.5t13.5 -39.5t17 -49q4 -9 14 -31t16.5 -40t8.5 -33q1 -11 -3.5 -29.5t-5 -29t10.5 -27.5q4 -4 12.5 -10.5t12.5 -10.5q13 -13 15 -47t5 -43q4 -14 17 -39t18 -39 q11 -35 28 -67t25 -78q1 -7 4 -19t5 -22t3 -19q3 -34 15 -63v-2q4 -4 8 -4q20 -2 59 -15q11 -3 31 -6t27 -4q245 -48 411 -125q266 -119 359 -264q42 -62 55 -132q5 -25 5 -50q0 -44 -15 -86q-5 -7 -8 -17q-35 -82 -104.5 -130t-158.5 -54q-19 -2 -40 -2q-61 0 -132 18 q-35 9 -88 31q-15 5 -32 26t-31 27q-3 1 -11.5 4.5t-13.5 7t-10 9.5q-4 5 -7.5 12l-5.5 11t-7 7.5t-15 4.5q-37 5 -51 10q-8 2 -16 6.5t-16.5 13l-13 13t-14.5 16.5t-12 14q-28 34 -55 75.5t-44.5 72t-42.5 85t-34.5 76.5t-36 88t-32.5 81q-3 6 -19.5 57t-27.5 68q-4 4 -5 4 h-2q-21 2 -53 -4q-162 -30 -286 -76t-216 -131q-70 -64 -110 -163q-36 -87 -35 -185q1 -12 1 -26q6 -112 67 -196q43 -56 111 -82q34 -13 65 -13q32 0 61 13q34 13 52 47q10 18 10 36q0 15 -7 30q-3 6 -12 18.5t-14 23t-4 20.5q0 16 14.5 24.5t30.5 5.5q28 -8 47 -47 q11 -26 10 -53q0 -25 -8 -49q-18 -52 -62 -80q-47 -33 -114 -33q-38 0 -82 10q-110 26 -182 101q-68 72 -87 172q-8 42 -8 83q0 55 14 109q26 94 83 166q47 61 108.5 108.5t138.5 82.5t138.5 56.5t152.5 47.5q60 19 76 23q23 8 37 10q13 3 20 8q5 2 27 8q0 17 -4 49 q-40 218 -65 324.5t-83 290.5q-5 16 -20 64.5t-20 62.5t-18 51.5t-23 55t-26.5 46.5t-35.5 53t-43 50q-35 38 -61 49t-97 11t-100 26q9 13 22 22t34 14t30.5 6.5t40 3t33.5 1.5q17 0 45 4q90 15 167.5 69.5t129.5 135.5q52 84 67 176q7 37 7 73q0 12 -1 25v43q0 3 2 11t1 14 q-1 4 -6 9.5t-7 8.5q-4 6 -4.5 11.5t2 14.5t2.5 13q0 9 -3 15t-10.5 14t-10.5 12q-10 11 -23.5 35t-21.5 35q-67 90 -179 127q-103 34 -220 34h-19q-192 -7 -368 -85.5t-308 -215.5q-101 -109 -125 -206q-9 -31 -8 -65q0 -30 6 -61q14 -68 57 -114q64 -60 151 -60h6 q90 2 159 58q90 70 90 170v6q-2 55 -38 101t-85 49h-7q-26 0 -65 -12q-45 -14 -65 -15q26 65 103 77q15 2 29 2q59 0 103 -40q54 -48 68 -127q4 -25 4 -48q0 -51 -21 -93q-43 -92 -145 -137q-73 -32 -147 -32q-29 0 -58 5q-77 14 -142 66.5t-89 125.5zM1847 -508q0 -2 1 -6 t1 -6q27 -78 54.5 -144t65 -141t81.5 -135.5t97 -115.5t119 -94t140 -58q42 -13 88 -13q29 0 61 5q80 14 130 67q37 42 41 103q0 8 1 17q0 51 -19 101q-22 58 -60 105q-45 57 -108.5 104.5t-121.5 77.5t-141 57.5t-137.5 41.5t-140.5 34q-38 8 -62 10h-24q-24 4 -35 4h-8 q-6 0 -10 -2q-10 -3 -13 -12z" />
<glyph unicode="S" horiz-adv-x="1691" d="M150 57v19q0 133 56 264t152 225q86 86 185 103q20 4 57 4q71 0 154 -27q162 -56 227 -164q37 -58 37 -119q0 -94 -76 -167q-56 -56 -125 -64q-8 -2 -22 -2q-58 0 -105 37t-47 90q0 24 8 43q6 -5 11.5 -12.5t8.5 -14t8 -17t7 -15.5q23 -50 72 -50q16 0 26 5q49 15 70 69 q14 35 14 78q0 84 -45 156q-31 47 -77 77.5t-97 30.5h-4q-88 -1 -158.5 -47.5t-112.5 -122t-63.5 -164t-21.5 -182.5q0 -159 55 -266q56 -110 162.5 -162.5t236.5 -52.5q89 0 162 20q125 33 221 127t164 224q97 184 127 503q11 131 20.5 372.5t16.5 342.5q1 18 7.5 51 t6.5 51q0 25 -8 46q0 2 -4 6h-6h-92q-132 0 -216 15t-145 65q-77 67 -77 155q0 21 2 29q8 50 47 87.5t88 37.5h10q13 0 29 -10t16 -23q0 -4 -4 -12q-5 -6 -12 -8.5t-21.5 -3.5t-15.5 -1q-31 0 -55.5 -23.5t-30.5 -55.5q-2 -6 -2 -21q0 -57 44.5 -99t102.5 -65 q90 -37 203 -37q56 0 119 13q15 5 16 6q3 3 8 22q54 326 193 428q57 45 133 45q54 0 96 -26t56 -76q8 -21 8 -45q0 -89 -117 -190q-98 -83 -209 -138q-28 -14 -35 -24q-10 -12 -14 -43q-16 -125 -16 -281q0 -35 1 -104.5t2 -104.5v-45q0 -280 -61 -538q-52 -229 -187 -416.5 t-335 -280.5q-95 -45 -225 -45q-110 0 -218 38t-194 104.5t-139 165t-53 210.5zM1595 1475q0 -15 2 -15q10 0 21.5 2.5t21 6t22.5 10.5t22 12t22.5 15.5t21 15.5t21.5 16.5t18.5 15.5t17.5 16t15 13q45 40 70.5 76.5t25.5 81.5q0 22 -6 43q-18 59 -73 59q-19 0 -29 -4 q-70 -23 -115.5 -91.5t-66.5 -156.5q-3 -7 -7 -50t-4 -66z" />
<glyph unicode="T" horiz-adv-x="1447" d="M176 1997q0 21 2 31q14 79 89.5 128.5t162.5 49.5q28 0 55 -6t47.5 -27t20.5 -45q0 -17 -12 -35q-2 1 -21.5 15.5t-28 19.5t-26 11.5t-33.5 6.5q-19 0 -37 -6q-34 -14 -52.5 -49t-18.5 -74q0 -60 36 -102q44 -49 140 -49q51 0 112.5 12.5t132 32.5t89.5 24q99 22 295 71 t294 71q10 2 28 8.5t22 7.5q10 38 10 70q0 20 -3.5 44t-6.5 38.5t-10 44.5t-9 39q-3 12 0 24q5 19 53 19q21 0 41 -5q62 -16 84 -100l15 -156q72 -10 274 -14q62 0 86 12q18 16 59 81t58 85q120 153 314 261t398 108h39q240 0 371 -104q70 -56 70 -142q0 -93 -75 -171.5 t-167 -78.5q-58 0 -104 35q-37 29 -37 62q0 8 2 12q13 29 43 29q16 0 29 -11t14 -30q3 -47 49 -47q22 0 45 10q37 16 62.5 48.5t25.5 70.5v10q0 75 -66.5 138.5t-146.5 92.5q-85 31 -176 31q-69 0 -137 -19q-196 -56 -346 -170t-238 -286q-1 -2 -3 -5.5t-3.5 -8.5t-1.5 -11 q0 -4 60.5 -16.5t127 -25t74.5 -15.5q72 -24 129 -74t57 -115q0 -37 -22 -77q-35 -67 -104 -102.5t-148 -35.5q-19 0 -55 4q-103 15 -169.5 85.5t-66.5 170.5q0 23 2 35q4 33 10 74q-5 5 -12 8.5t-12 4.5l-4 1q-51 11 -105 11q-34 0 -155 -17q-35 -6 -53.5 -19.5 t-28.5 -41.5q-77 -209 -181.5 -452.5t-266 -598.5t-199.5 -442q-94 -212 -113 -264q-47 -143 -47 -209q0 -41 10 -70q16 -51 68 -51q14 0 32 4t28 7.5t32.5 12t25.5 9.5q0 -7 -4 -15q-19 -44 -82 -63q-49 -17 -92 -17q-51 0 -94 27q-32 23 -50 64.5t-18 89.5q0 45 19 94 q99 261 397 936q19 42 87.5 194t111.5 250t94 228.5t74 214.5q1 5 16 90h-16q-80 0 -185 -25q-70 -16 -204 -49.5t-197 -48.5q-14 -3 -70.5 -16t-81 -18t-69 -13.5t-81 -11.5t-71.5 -3q-6 0 -18.5 1t-18.5 1q-42 3 -85.5 15t-87 33t-70.5 57t-27 82zM2030 1911 q0 -95 67 -162.5t168 -67.5h12q56 0 92.5 42t36.5 96q0 53 -36 92q-43 51 -142 74q-120 20 -162 20q-16 0 -20 -4q-16 -41 -16 -90z" />
<glyph unicode="U" horiz-adv-x="1957" d="M-61 967q0 51 34 92.5t84 50.5q31 5 31 -12q-2 -1 -11.5 -6.5t-12 -7.5t-10.5 -7t-12 -8t-10 -8t-10 -10t-8 -11q-16 -26 -16 -53q0 -31 17 -57.5t44 -36.5q21 -8 47 -8q34 0 73.5 19.5t64.5 40.5t65 58t53 48q89 74 139.5 118t122.5 113t126 131q5 6 26.5 31t32.5 36.5 t30 30t37 30.5t37 20q19 7 35 2q23 -10 23 -45q0 -24 -15 -64q-28 -66 -55.5 -143.5t-59 -170.5t-50.5 -145q-85 -233 -127 -393q-5 -19 -36 -132.5t-51 -196t-26 -134.5q-10 -82 -10 -149q0 -40 2 -60q9 -124 61 -155q27 -15 58 -15q78 0 176 72q14 9 27 19t27 23t24 22 t25 25.5t22.5 24t23.5 26.5t21 25l22.5 27t20.5 25q77 92 242 336.5t173 255.5q58 81 139 243t192.5 411t115.5 257q29 61 112 68q5 0 10 -5t5 -11q0 -13 -21 -60q-88 -180 -198 -458.5t-127 -407.5q-32 -84 -51 -250t-19 -303q0 -40 4 -90q2 -18 6.5 -83.5t7 -93.5 t12 -83.5t21 -87t32 -68t48.5 -61.5q51 -46 119.5 -70.5t138.5 -24.5q118 0 191 58q116 89 116 229v12q0 25 -18 44.5t-41 19.5q-24 0 -41 -25q-17 -34 -29 -34q-7 0 -12 16q-9 25 19 53q28 31 73 31q9 0 29 -4q45 -12 74.5 -55t29.5 -89q0 -27 -8 -43q-30 -75 -73.5 -126 t-98.5 -77.5t-111.5 -37t-127.5 -10.5h-13q-151 0 -291 133q-91 85 -123 251.5t-32 391.5q0 98 2 145l45 326q-27 -30 -109 -152.5t-114 -163.5q-30 -38 -90 -117t-101 -131.5t-105 -123.5t-118.5 -118t-125 -88.5t-140.5 -58.5q-24 -6 -45 -6q-55 0 -98.5 37t-65.5 89.5 t-27 111.5q-4 31 -4 94q0 318 188 868q37 109 63 180.5t68.5 167.5t86.5 171q2 2 6 20q-3 -1 -8 -1t-8 -0.5t-5 -2.5q-42 -38 -53 -51q-21 -27 -48.5 -56.5t-46 -48t-55.5 -53.5t-51 -49q-145 -145 -213 -201q-16 -13 -48 -40.5t-52 -43.5t-50.5 -35.5t-58.5 -31.5 q-33 -13 -61 -13q-59 0 -101.5 39t-43.5 103z" />
<glyph unicode="V" horiz-adv-x="1189" d="M-432 1368q20 -5 60 -17t72 -19t58 -7h17q116 14 272 78q183 73 328 225q10 11 29.5 35t31.5 37.5t35.5 25t50.5 11.5q17 0 27 -2q41 -21 41 -84v-19q0 -30 -4 -89t-4 -87v-51q0 -14 -41 -20t-41 -17q0 -4 2 -6q5 -12 26.5 -27t26.5 -24q2 -4 6.5 -11.5t7 -12t4.5 -11.5 t2 -14q0 -2 -1 -6.5t-1 -6.5v-41q0 -31 -3.5 -89.5t-4.5 -76.5q-6 -116 -20 -318t-23 -371t-12 -322v-23q0 -78 22 -143q33 50 83.5 155t86.5 158q46 69 85 158.5t80 198t69 170.5q90 199 321 630q153 280 238 461q83 181 262 371q53 56 115.5 105t138 94t163.5 71.5 t173 26.5q175 0 328 -115q3 -3 10 -25t8 -24q2 -4 0.5 -15.5t-0.5 -15.5q0 -4 2 -13t2 -13q2 -2 8 -2q9 0 31.5 8t32.5 8q12 0 20 -8q80 -80 80 -181q0 -62 -30 -145q-20 -52 -66.5 -82.5t-103.5 -30.5q-24 0 -52 7q-21 5 -52.5 43t-49.5 69q-2 3 -6 9.5t-6 10t-4 10 t-2 13.5q0 13 2 19q11 45 36 45q14 0 29 -15q7 -7 11.5 -17.5t7.5 -24t6 -19.5q26 -62 69 -62q25 0 48.5 22t35.5 58q19 53 19 95q0 34 -14 59t-44 59q-49 55 -78 85t-79 68t-90 46q-36 8 -84 8q-90 0 -183 -22q-90 -20 -168.5 -66.5t-144.5 -117.5t-114 -137.5t-103 -158.5 q-39 -64 -84 -149t-97 -187.5t-79 -152.5q-36 -65 -76 -147q-1 -1 -2 -3.5t-2 -3.5q-3 -2 -12.5 -0.5t-10.5 -1.5q-3 -5 2 -19.5t5 -17.5q-1 -4 -3 -7.5t-5.5 -7t-4.5 -5.5q-3 -6 -9 -19.5t-9 -19.5q-35 -79 -78 -161.5t-99.5 -186t-84.5 -156.5q-37 -71 -113 -232 t-121 -243q-24 -44 -96 -186.5t-121 -220.5q-17 -30 -33 -37q-18 -5 -40.5 -15.5t-43.5 -15.5q-4 12 -13.5 39.5t-15 48t-5.5 37.5q-2 211 -2 633v262q0 103 14 307t14 307v23q0 25 -2 80t-2 82q0 25 4 71q-8 -5 -151 -96t-213 -125q-131 -63 -306 -104q-24 -4 -34 -4 q-50 0 -92.5 28.5t-69.5 77.5z" />
<glyph unicode="W" horiz-adv-x="2123" d="M6 1167q0 174 125 338q73 95 170.5 162.5t204.5 91.5q36 8 82 8q146 0 282 -106q76 -61 116.5 -143.5t64.5 -198.5q83 -408 104 -827q61 150 162 284q9 14 28.5 38t26.5 34q73 86 129 86q9 0 25 -4q27 -6 55 -47q76 -103 127 -207q77 150 122 236t122.5 227.5t134 234 t138 217.5t155.5 219.5t165.5 198t186.5 191.5q227 212 420 262q66 16 123 16q122 0 203 -63q40 -32 63 -81.5t23 -103.5q0 -71 -35 -123q-25 -40 -69 -67t-85 -27q-32 0 -57 19q59 27 94 86t35 123q0 77 -53 124q-51 43 -138 43q-92 0 -186 -43q-92 -40 -179.5 -100 t-166.5 -136t-144.5 -150.5t-136.5 -166.5q-337 -439 -579 -935q-30 -62 -47 -101t-35 -94.5t-25 -103.5q-6 -47 -6 -91q0 -55 13.5 -163t13.5 -162v-15q0 -182 -86 -297q-50 -65 -82 -65q-24 0 -41 29q-33 54 -33 129q0 43 10 91.5t26.5 105.5t22.5 85q21 95 21 193 q0 217 -98 385q-27 49 -62 49q-10 0 -14 -2q-16 -4 -41 -33q-146 -170 -245 -369.5t-142 -410.5q-3 -14 -19 -95.5t-24.5 -112t-32 -85.5t-55.5 -94q-76 39 -76 149q0 30 6 60q8 37 24 75.5t40.5 88t35.5 73.5q88 197 88 518q0 65 -4 197q-6 75 -6 84q0 41 17 66 q16 21 16 30q0 4 -6 6t-15.5 7.5t-15.5 17.5q-6 10 -6 47v47v12q-10 113 -23 199q-56 353 -303 404q-35 6 -71 6q-27 0 -39 -2q-112 -11 -213.5 -92.5t-155.5 -188.5q-2 -4 -6 -15.5t-8.5 -21.5t-9.5 -14q-3 -2 -19 -4.5t-20 -14.5q-5 -11 4 -20q14 -14 15 -21.5t-5 -29.5 q-12 -53 -12 -113q0 -64 12 -119q18 -73 60 -134t104 -99q47 -27 104 -27q73 0 147.5 35.5t108.5 79.5q47 59 47 139q0 76 -47 123q-42 45 -104 45q-45 0 -88 -23.5t-68 -60.5q8 8 21 8q12 0 22 -9.5t10 -22.5q0 -19 -16.5 -32t-36.5 -13h-6q-18 4 -29.5 20t-13.5 37 q0 34 29 76q32 42 82 66t102 24q31 0 61 -10q59 -20 95.5 -75.5t36.5 -121.5q0 -67 -37.5 -132.5t-96.5 -109.5q-104 -76 -221 -76q-88 0 -170.5 40t-136.5 108q-80 102 -80 231zM860 -162q0 -39 21 -86q25 48 38 98.5t22.5 121.5t14.5 96q-96 -116 -96 -230zM1579 -16 q0 -70 39 -109q49 85 49 219q0 82 -20 146q-68 -160 -68 -256z" />
<glyph unicode="X" horiz-adv-x="1929" d="M162 90q0 102 50 188.5t136 143.5q61 40 138.5 66t148.5 26q75 0 131 -33q43 -25 72.5 -65.5t38.5 -87.5q4 -24 4 -39q0 -45 -20.5 -85t-57.5 -57q-20 -8 -35 -8q-43 0 -57 33q-1 2 -2 4.5t-1.5 4t-0.5 3.5q0 11 18 11q5 0 16 -1t15 -1h6q14 0 26 10t17 24q4 8 4 27 q0 13 -4 37q-12 58 -42.5 104t-78.5 60q-12 4 -37 4q-21 0 -57 -8q-95 -28 -177 -110t-110 -177q-2 -7 -8.5 -26t-9 -28.5t-6.5 -25t-5.5 -29t-1.5 -26.5v-21q0 -98 62.5 -186.5t154.5 -132.5q79 -39 164 -39q188 0 398 190q173 160 280 330q4 7 12.5 23t14 25t14 21 t17.5 21l14 10q14 10 26.5 20.5t12.5 14.5l-2 2q-21 6 -21 31q0 17 8.5 42.5t20 51.5t14.5 35q18 71 39 141q53 189 53 377q0 10 -1 31t-1 31q-3 89 -42.5 174t-110.5 125q-62 36 -156 36t-185.5 -35.5t-154.5 -104.5t-63 -152q0 -48 20 -95q21 -48 65.5 -79t96.5 -31h12 q54 7 72 39q3 5 10.5 22.5t16 28t20.5 10.5q6 0 14 -4q13 -6 19.5 -21.5t3.5 -31.5q-6 -29 -35 -51q-61 -52 -143 -52q-56 0 -107 25t-84 70q-43 60 -43 143q0 121 80 217q51 63 128 106t161 58q61 12 123 12q83 0 150.5 -22.5t121 -77.5t74.5 -139q9 -36 13 -75t5.5 -92.5 t3.5 -76.5q0 -13 13 -19q21 23 38.5 55t36 76t27.5 62q57 113 107 204t118.5 198t135.5 191t153.5 168.5t176.5 145t200 106.5t229 66q58 8 88 8q89 0 166.5 -31.5t128.5 -93.5q27 -31 29 -57q0 -17 -11 -31.5t-26 -15.5q-13 0 -28 10.5t-15 24.5q-5 9 -9.5 29t-6.5 26 q-36 90 -164 90q-113 0 -262 -61q-7 -3 -22 -11t-28 -14t-22 -6h-4q-2 0 -34 16q-20 8 -21 0q0 -11 -6.5 -31t-10.5 -26q-9 -12 -43.5 -29.5t-40.5 -21.5q-222 -159 -397 -408q-122 -174 -218.5 -370t-189.5 -435q-67 -172 -118 -366q-58 -219 -58 -332q0 -44 4 -67 q18 -131 30 -184t52 -171q22 -62 51.5 -119t71.5 -111.5t98.5 -91.5t120.5 -46q10 -2 33 -2q45 0 96 18t83.5 36.5t88.5 53.5q-6 -37 -8 -43q-5 -9 -39 -37q-74 -66 -123 -82q-53 -16 -94 -16q-115 0 -217 79.5t-176 196.5q-93 149 -119.5 254t-29.5 295q0 11 -6.5 44 t-6.5 50q0 22 8 33q-19 -25 -39.5 -49t-45.5 -52t-41 -45t-48 -50t-43 -45q-127 -134 -254 -218q-196 -127 -364 -127q-130 0 -236 76q-104 78 -169.5 189t-65.5 231zM1806 1090l2 -3z" />
<glyph unicode="Y" horiz-adv-x="1796" d="M49 1319q0 54 21.5 107.5t52.5 86.5q25 26 59.5 46t67.5 20q38 0 61 -29q10 -12 13 -29t-7 -24q-6 -3 -22 2q-15 6 -33 6q-39 0 -73 -29t-44 -75q-6 -18 -6 -41t6 -41q22 -66 105 -66q64 0 142 33t130 66q42 26 90.5 63t80 63.5t87.5 76.5t80 71q10 9 66 66.5t99 87.5 t83 30q2 0 7 -1t7 -1q17 -3 32 -19t15 -36q0 -8 -6 -20q-19 -47 -51 -97q-62 -97 -100 -204q-19 -54 -74 -173t-76 -188q-32 -101 -45 -142.5t-32.5 -124.5t-26.5 -153q-6 -53 -6 -114q0 -108 28 -170q11 -30 36.5 -52t57.5 -22q9 0 25 4q44 14 91 46.5t84 67t81.5 88t71 89 t65.5 90.5q50 70 98 145.5t120 195t92 152.5q7 11 13 26t12.5 34t10.5 29q37 86 82 188q16 37 68 45h8q27 0 42 -15t15 -42q0 -17 -6 -35q-200 -638 -432 -1538q-2 -7 -3 -21.5t-3 -21.5q-6 -21 -6 -33q0 -25 27 -25q16 0 24 2q17 3 86.5 17t95.5 18.5t79.5 12.5t95 11 t83.5 3q115 0 228 -29q134 -34 200 -100q71 -65 110.5 -175t39.5 -227v-24q-4 -120 -47 -225t-115 -174q-107 -99 -242 -99q-46 0 -106 17q-71 22 -109 65q-55 64 -55 158q0 37 12 72q12 36 38.5 58.5t56.5 22.5h4q32 -2 59.5 -33t30.5 -71v-10q0 -32 -18.5 -56t-41.5 -24 q-11 0 -20 6q-1 1 -8.5 4l-10 4t-8 2t-9 -0.5t-5.5 -5.5q-4 -8 -4 -14q0 -42 24.5 -78t57.5 -47q19 -8 43 -8q35 0 84 22q93 43 163.5 126t98.5 196q16 66 16 129q0 97 -30.5 187.5t-87.5 150.5q-71 79 -205 112q-95 23 -197 23q-139 0 -366 -47q-61 -12 -86 -35 q-34 -36 -54 -143q-55 -271 -173 -481.5t-296 -321.5q-154 -96 -272 -96q-112 0 -180 88q-60 82 -60 196q0 25 2 37q8 104 76 213q108 165 303 303q133 97 307 172q1 0 26 11.5t31.5 14.5t28.5 12t33.5 12.5t28.5 8t31 5.5q71 10 79 49q40 206 126.5 580.5t117.5 523.5 q1 8 6.5 25.5t5.5 27.5q0 11 -10 31q-18 -6 -20 -9q-73 -113 -115 -176q-34 -51 -75.5 -109.5t-111 -142t-135 -148t-140 -111t-132.5 -46.5q-129 0 -174 226q-18 95 -18 196q0 215 70.5 443.5t174.5 412.5q9 15 9 23q0 12 -19 12q-21 0 -45 -12q-38 -23 -107 -84.5 t-106 -85.5q-122 -78 -248 -129q-13 -5 -50.5 -25t-69.5 -31.5t-60 -11.5q-55 0 -92 51q-33 44 -33 109zM420 -1028v-12q0 -86 50 -137.5t130 -51.5q36 0 80 12q97 29 178 86t140 130.5t108.5 173t83 200.5t63.5 226q0 1 4 14t7.5 28t1.5 21q-15 6 -35 6q-36 0 -111 -26 q-127 -44 -244 -113t-226 -173.5t-181 -227.5q-46 -77 -49 -156z" />
<glyph unicode="Z" horiz-adv-x="1271" d="M84 -86q0 42 43 82q83 80 180 80q23 0 35 -2q8 -2 27 -2q64 0 104 59q28 41 107 150t120 170q284 406 377 550q68 104 283 474q2 3 4 13t4 15q-37 0 -53 -2q-85 -6 -242.5 -8t-214.5 -4q-10 0 -51 -1t-55.5 -3t-44.5 -7t-52 -15.5t-43 -26.5q-16 -13 -49 -72 q-7 -13 -17.5 -37.5t-15.5 -34.5q-55 38 -55 109q0 19 4 55q7 68 86 80q50 6 97 6l223 -2q74 7 228.5 9t234.5 10q3 0 10 1t10 1q24 0 74 -9.5t74 -9.5t45 6q2 -2 7.5 -10t8.5 -12q-4 -11 -12 -37.5t-15.5 -45t-17.5 -34.5q-51 -85 -137.5 -193t-120.5 -157 q-53 -78 -153 -221t-126 -181q-36 -51 -149.5 -216t-177.5 -253q-17 -23 -37 -44t-53.5 -51.5t-47.5 -43.5q66 -44 74 -49q69 -39 241.5 -139t266.5 -152q34 -19 101 -60t108 -64.5t101.5 -48.5t115.5 -34q12 -2 59.5 -12t77.5 -14t60 -4q61 0 112 22q40 20 61 44t21 65v10 q0 88 -65 106q-1 0 -2.5 2.5t-4 7.5l-4.5 9q44 35 93 35q46 0 84 -29.5t51 -79.5q10 -34 2 -49q-26 -47 -42 -73t-47.5 -54.5t-66.5 -36.5q-87 -22 -188 -22q-106 0 -221 28q-63 16 -134 48t-118.5 59t-127.5 75.5t-118 69.5q-44 25 -129 80.5t-129 79.5q-93 50 -223 100 q-4 2 -17 2q-19 0 -51 -16q-29 -18 -92.5 -62t-99.5 -65q-13 -7 -28 -11.5t-36 -9t-29 -6.5q-10 -4 -26 -4q-25 0 -40.5 19t-27.5 55q-8 21 -8 43zM141 -129q5 -1 22 -5.5t21.5 -4.5t16.5 2q39 29 159 131q-8 16 -14 24q-24 7 -43 7q-69 0 -151 -78q-5 -5 -7 -17.5t-2.5 -31 t-1.5 -27.5z" />
<glyph unicode="[" horiz-adv-x="858" d="M150 -354q0 44 10 96q128 740 352 1518q5 17 15 52.5t16 57t13.5 52t12.5 57.5q9 42 14.5 65.5t21.5 58t38 54.5q41 41 129 41q18 0 52 -2t50 -2q29 0 21 -33q-6 0 -35.5 4t-46.5 4q-48 0 -70 -22q-14 -14 -26 -60q-75 -308 -223.5 -925.5t-223.5 -925.5 q-16 -62 -16 -113q0 -80 47 -119q33 -26 80 -26q55 0 147 41q-85 -72 -182 -72h-12q-53 0 -100.5 32.5t-69.5 82.5q-14 38 -14 84zM674 1634l2 -6l2 6h-4z" />
<glyph unicode="\" horiz-adv-x="479" d="M-59 1372q0 2 2 2q19 7 43 10q7 0 10 -6q46 -123 110 -343.5t109 -315.5q3 -7 46.5 -93t72.5 -150.5t68 -158t60 -174.5t21 -141q0 -10 -22 -16t-33 -6q-15 0 -25 2q-4 0 -4 6q-78 234 -221 639q-27 77 -74.5 180t-79.5 172.5t-57.5 175t-25.5 217.5z" />
<glyph unicode="]" horiz-adv-x="858" d="M-66 -420q72 -37 125 -37q47 0 95 29q62 39 94 111q22 51 33 120q113 670 305 1852q8 39 -2 59q-15 21 -54 21q-14 0 -30 -2t-35 -6t-27 -5q6 35 35 35q11 1 52.5 4.5t62.5 3.5q75 0 100 -39q19 -29 19 -67q0 -16 -2.5 -34t-7.5 -43t-7 -34q-19 -91 -33 -219 q-77 -705 -264 -1515q-29 -124 -78 -183q-41 -51 -107.5 -84.5t-131.5 -33.5q-89 0 -142 67zM643 1696l4 6h-4v-6z" />
<glyph unicode="^" horiz-adv-x="587" d="M-27 1419q0 7 4 14.5t10.5 14.5t13.5 13.5t15.5 12.5t14.5 10l12 8l6 3q20 17 80.5 66.5t99.5 83.5q7 7 28 29.5t35.5 34t26.5 11.5q15 0 41.5 -18t48.5 -38.5t52.5 -50t38.5 -36.5q30 -26 59 -54t59 -58l46 -46q1 -1 5 -2.5t7.5 -3t3.5 -2.5q4 -10 4 -31q0 -35 -27 -43 q-2 0 -6.5 -1t-5.5 -1q-12 0 -17 10t-12.5 28.5t-19.5 31.5q-23 24 -72 57t-78 56q-6 5 -38 36t-60 53.5t-43 22.5t-42.5 -31.5t-33.5 -35.5q-2 -2 -35 -19.5t-55 -34.5q-10 -8 -30 -26.5t-40 -34.5t-42 -29q-3 -4 -7.5 -9t-15 -11t-16.5 -2q-15 9 -15 22z" />
<glyph unicode="_" horiz-adv-x="1079" d="M70 -98q0 12 14 12l401 -4q17 0 173 10t274 10h29q3 0 6.5 -9t3.5 -13q4 -24 4 -35t-4 -35q0 -8 -13 -8q-83 0 -181.5 2t-139.5 2q-31 0 -222 -9t-323 -9q-2 2 -0.5 9t4 17t2.5 11q0 14 -14 28t-14 21z" />
<glyph unicode="`" horiz-adv-x="393" d="M66 1415q0 18 24.5 32.5t46.5 18.5q1 0 3.5 1t4.5 1q16 0 37 -18q32 -27 93.5 -127t86.5 -121q1 -1 3.5 -2t3.5 -2q-8 -8 -19 -8q-13 0 -40.5 18t-33.5 21q-26 11 -108 82l-41 35q-4 3 -17.5 14.5t-21 18.5t-15 17.5t-7.5 18.5z" />
<glyph unicode="a" horiz-adv-x="888" d="M-84 117q0 15 4 47q26 155 70 229q99 167 301 283q49 27 108 33h7q25 0 54 -16t29 -40q-24 9 -47 9q-81 0 -179.5 -82t-135.5 -168q-24 -55 -41.5 -126t-17.5 -130q0 -65 22 -113q12 -6 23 -6q21 0 43 22q23 21 51 53.5t46.5 56.5t51 67t43.5 57q118 151 195 242 q15 10 30 10q23 0 23 -35q0 -19 -6 -45.5t-16 -58.5l-9 -33q-30 -128 -30 -205v-14q0 -7 -3.5 -48t-3.5 -55v-8q18 -12 35 -12q25 0 47 22q43 43 128 165t112 155q20 25 54 59.5t46 34.5q4 0 4 -6q0 -10 -15.5 -35.5t-42 -62t-48 -64t-49.5 -62t-29 -36.5q-5 -7 -60.5 -92 t-88.5 -109q-39 -31 -101 -31h-4q-31 0 -55 41t-34.5 91t-10.5 92q0 30 6 74.5t6 58.5q-85 -147 -190 -260q-70 -73 -166 -91q-20 -4 -31 -4q-57 0 -91 40t-34 106z" />
<glyph unicode="b" horiz-adv-x="929" d="M10 264q0 117 45 338q2 11 19.5 98.5t21 106t20.5 98.5t24 107.5t24 99t28 107t29.5 97.5t35 104t38 93t43.5 97q57 117 178 229q30 28 80.5 51t89.5 23q66 0 66 -64q0 -8 -4 -32q-67 -327 -203.5 -635t-335.5 -557q-35 -44 -54 -77t-26 -73q-22 -114 -29 -196 q-6 -50 -6 -117q0 -176 86 -176q26 0 56 12q63 28 90 55q84 87 116 168.5t35 200.5q0 33 -10 43q-4 4 -12.5 6t-22 3t-16.5 1q-41 5 -94 27q-25 13 -33 26q-4 6 -4 21q0 33 28 65q23 29 64 29q12 0 34.5 -3.5t28.5 -4.5q67 -6 105 -74q11 -20 16.5 -32.5t7.5 -19.5t5 -24.5 t8 -35.5q26 -114 51 -154q14 -23 37.5 -39t48.5 -16q14 0 26 6q12 5 31 20q30 25 86.5 82.5t83.5 89.5q47 54 72 62h10q3 -2 -0.5 -8t-12.5 -16l-9 -11q-14 -15 -90.5 -111.5t-116.5 -126.5q-35 -28 -94 -28q-31 0 -46 12q-3 2 -8.5 4.5t-9 5t-8 6t-6.5 6.5q-7 11 -21.5 41 t-25.5 54l-11 24q0 -5 -10 -54.5t-10 -51.5q-5 -19 -41 -94q-20 -38 -51 -74q-31 -37 -47 -51q-41 -36 -97 -59t-110 -23q-99 0 -140 78q-53 101 -53 241zM188 684q13 13 15 16q168 219 243 367q46 90 99 209q63 138 121 381q28 109 28 147q0 3 -1 8.5t-1 8.5q-3 26 -6.5 29 t-9.5 3q-10 0 -25 -6q-62 -43 -84 -84q-58 -94 -78 -143q-155 -376 -282 -809q-19 -67 -19 -106v-21zM322.5 570q-1.5 -15 7.5 -19q60 -29 73 -33q26 -11 52 2q0 36 -25.5 57.5t-60.5 24.5q-15 0 -35 -10q-10 -7 -11.5 -22z" />
<glyph unicode="c" horiz-adv-x="794" d="M-27 297q0 67 29 129q1 2 6.5 15.5t8 19t8.5 17.5t11.5 18t13 14t16 11t18.5 3h10q-1 3 -10 14t-8 15q0 4 14 18q118 140 268 140q21 0 31 -2q47 -5 94 -38t47 -77q0 -61 -34 -105.5t-64 -44.5h-8q-59 0 -62 37q4 4 7 4q18 -12 34 -12q33 0 52.5 38.5t19.5 63.5 q1 17 -1 27.5t-5 14.5l-12 16q-12 16 -37 27.5t-49 11.5q-25 0 -35 -10q-53 -43 -72 -66q-151 -192 -151 -412q0 -35 2 -53q6 -48 24.5 -69t63.5 -33q34 -11 73 -11q62 0 136 31q96 44 172 133q23 28 90.5 95t91.5 98q19 21 51 67q1 1 6 8.5t9 13t9.5 10.5t10.5 5t10 -8 q2 -2 2 -8q0 -11 -10 -27.5t-26 -34.5t-17 -20q-46 -60 -121 -143q-6 -6 -35 -30.5t-39 -37.5q-72 -81 -143.5 -131t-167.5 -62q-10 -2 -33 -2q-124 0 -211.5 97.5t-87.5 224.5z" />
<glyph unicode="d" horiz-adv-x="1099" d="M-154 68q0 65 19.5 146t46.5 128q99 163 219 215q82 37 125 37q34 0 53 -16t19 -35q0 -35 -35 -66q-10 6 -2 21q4 16 4 24q0 33 -39 33q-18 0 -39 -6q-21 -7 -44 -22t-34 -33q-47 -64 -71 -115q-6 -13 -23 -80t-20 -76q-5 -30 -19 -71q-2 -7 -18.5 -15t-18.5 -14 q-1 -3 3 -4.5t8 -1.5q18 -7 16 -21q-8 -64 -8 -67q0 -38 22 -43q1 0 4 -1t4 -1q9 0 22 5.5t21 11t22 16t17 12.5q88 68 162 164q24 32 72 87t84.5 102.5t60.5 92.5q5 13 23 39q12 12 12 29v51q0 37 2 53q5 58 47 256q52 244 99 438q16 76 49 140q25 49 73 85.5t101 47.5 q6 2 14 2q25 0 25 -35q0 -13 -6 -55q-8 -290 -158 -654q-28 -68 -55 -114q-8 -15 -41.5 -59t-42.5 -76q-52 -171 -52 -349q0 -65 4 -98q12 -126 21 -153q14 -49 61 -119q15 -23 37 -23q29 0 58 37q24 27 59 83t51 77q34 46 129.5 183.5t149.5 207.5q1 1 3.5 5t4 5.5l4 4 t5 3.5t5.5 0q9 0 9 -10t-7 -20q-32 -47 -101.5 -149t-125 -182t-102.5 -142q-7 -9 -25 -34.5t-29.5 -39.5t-31 -31.5t-42 -26t-49.5 -8.5h-6q-88 2 -133 109q-31 73 -31 209q0 38 3.5 109.5t3.5 101.5q0 4 2 10.5t2 12t-4 10.5q-3 2 -5 2q-1 0 -3 -1t-3 -1 q-18 -11 -34 -29.5t-37 -50l-25 -37.5q-77 -98 -102 -137q-8 -9 -21.5 -27t-25 -31.5t-25.5 -23.5q-9 -10 -59 -60q-49 -45 -86 -61q-46 -19 -88 -19q-47 0 -82.5 21.5t-44.5 62.5q-7 24 -7 54zM659 805q-2 -7 3 -17q10 5 12 7q9 12 15.5 27.5t13.5 34.5t12 30 q16 32 29.5 68.5t27.5 80t23 68.5q16 46 36.5 134.5t34.5 129.5q3 6 8 41q17 117 17 158q-3 -3 -6.5 -5.5t-6 -3.5t-4 -3t-2.5 -3q-17 -26 -32.5 -61.5t-23.5 -57t-24 -71t-20 -62.5q-64 -181 -74 -286q0 -15 -8 -47q-6 -31 -17 -87.5t-14 -74.5z" />
<glyph unicode="e" horiz-adv-x="688" d="M-57 283q0 142 87.5 252t215.5 133q6 2 22 2q29 0 49.5 -15t20.5 -45v-10q-18 -117 -64 -186q-9 -13 -22.5 -41.5t-22.5 -42.5q-61 -91 -123 -127q-26 -13 -14 -49q8 -21 8 -50q0 -25 -6 -49q3 5 21 3.5t24 -5.5q7 -3 21 -17t20 -18q34 -22 76 -22q13 0 37 4q32 7 68 35 t53.5 47.5t52.5 62.5q34 42 51 60.5t57 68.5q3 4 55 71t83.5 102.5t42.5 35.5h2q4 -2 4 -10q0 -16 -21.5 -49.5t-50 -71.5t-33.5 -45q-18 -28 -45.5 -72t-42 -67.5t-38 -57.5t-39.5 -52t-39.5 -41.5t-45.5 -35t-50 -23.5t-60 -16.5t-70 -4.5q-23 0 -47 6q-113 30 -160 92 q-36 49 -56.5 115.5t-20.5 132.5zM68 283q0 -9 3.5 -22t4.5 -19q15 0 28.5 6.5t19.5 12.5t19 20q52 59 69.5 86t49.5 100q2 4 10 22.5t10.5 26.5t7.5 23.5t7 28.5t2 26q-3 31 -27 31q-10 0 -28 -11q-176 -115 -176 -331z" />
<glyph unicode="f" horiz-adv-x="634" d="M-96 -725q0 54 7.5 152t8.5 120q3 67 4.5 92.5t8.5 77t20 95.5q12 40 12 61q0 15 -10 38t-10 36v18q0 6 12 117q59 570 172 1069q98 441 256 731q42 76 102.5 141.5t118.5 65.5q41 0 74 -39q59 -69 59 -219q0 -45 -16 -213q-10 -98 -29 -174q-5 -21 -25.5 -58t-23.5 -61 q-3 -19 -8 -59.5t-8 -61.5q-2 -22 -29 -104q-149 -433 -436 -787q-57 -71 -80 -138t-31 -163q-3 -37 -12 -128.5t-13.5 -142.5t-9 -127t-4.5 -138q0 -255 72 -441q8 -28 29 -28q14 2 30 22q148 163 148 457q0 57 -2 84q-17 270 -135 633q10 2 54.5 7.5t80.5 11.5t93.5 25 t106 47t105 80t102.5 120q8 11 23.5 13.5t21.5 -7.5q3 -5 -1.5 -11t-13.5 -13.5t-13 -12.5q-59 -82 -126.5 -142t-128.5 -89.5t-109.5 -42.5t-88.5 -13q-48 0 -55 14q87 -234 110 -413q2 -15 8 -68t8.5 -79.5t5.5 -70.5t3 -81q0 -328 -197 -496q-36 -33 -77 -33 q-43 0 -78.5 36.5t-55.5 86.5q-30 77 -30 203zM88 322q0 -13 6 -17q18 8 38 26.5t40.5 47t35.5 50.5t34.5 54t25.5 41q223 341 340 783q76 280 76 442q0 168 -74 285q-8 8 -14 10q-6 0 -18 -8q-30 -21 -57 -54.5t-44.5 -66.5t-35.5 -80t-27.5 -79t-23.5 -81.5t-21 -70.5 q-177 -566 -281 -1282z" />
<glyph unicode="g" horiz-adv-x="886" d="M-215 -1243q0 32 12 82q30 103 87.5 202.5t155.5 233t128 178.5q43 64 53 117q54 284 156 606q2 5 12 55q-11 -7 -87.5 -63t-123.5 -78q-48 -20 -88 -20q-41 0 -73 21t-46 63q-14 38 -14 86q0 30 6 57q27 117 107.5 216.5t189.5 158.5q74 43 139 43q85 0 129 -62 q19 -29 19 -61q0 -49 -33 -72q-21 98 -70 121q-23 10 -45 10q-33 0 -66 -14.5t-54 -36.5q-113 -125 -154 -235q-9 -26 -19 -75.5t-10 -90.5q0 -84 45 -84q19 0 41 14q136 74 246 184q4 5 16 22t22 25.5t23 8.5h9q41 0 41 -56q0 -25 -9 -57q-19 -88 -72 -245.5t-71 -227.5 q6 -2 14 -6q24 30 86 108t95 121q52 68 96 133t84 119q46 63 85.5 111.5t86.5 111.5q20 -2 27 -11t-3 -24q-61 -93 -92 -127q-50 -57 -70.5 -82t-25.5 -33t-27 -38.5t-63 -83.5q-165 -211 -285 -371q-18 -23 -33 -50.5t-29 -68.5t-20 -60t-21.5 -75.5t-17.5 -64.5 q-20 -69 -59.5 -247.5t-71.5 -272.5q-17 -51 -48 -105.5t-84 -101.5t-107 -47q-27 0 -54 12q-65 31 -65 127zM-172 -1245q0 -24 10 -51q16 -39 56 -39q20 0 32 10q31 21 44.5 31t33.5 32.5t27 47.5q16 48 31.5 100.5t26 91.5t26 103t22.5 94.5t24 107.5t23 103 q-29 -20 -32 -25q-32 -52 -90 -143.5t-105.5 -168.5t-87.5 -145q-32 -55 -39 -131q-2 -6 -2 -18z" />
<glyph unicode="h" horiz-adv-x="1054" d="M-43 80q0 19 4 42t11.5 50.5t9.5 40.5q9 42 23.5 121.5t28 143t29.5 120.5q12 42 53 173.5t60 203.5q10 34 36 144.5t46 170.5q13 40 25.5 85.5t28 107t22.5 88.5q10 36 40.5 60.5t67.5 29.5q2 0 5.5 1t5.5 1q32 0 47.5 -37.5t15.5 -83.5q0 -23 -2 -31q-7 -52 -30 -113.5 t-42.5 -100.5t-56.5 -107q-14 -25 -26 -50t-23 -54t-18 -48.5t-17.5 -54.5t-15 -49.5t-15.5 -55.5t-14 -53q-90 -331 -117 -544q-1 -5 -2 -16t-2 -17l23 14q28 35 145 162q87 93 170 145q64 37 115 37q39 0 63 -24q25 -25 25 -84q0 -33 -2 -49l-49 -431q0 -34 10 -41 q16 -9 49 15q59 42 131.5 126t152.5 189t117 146q1 0 10 9t20.5 17t19.5 8q12 0 12 -8q0 -3 -18.5 -27t-38.5 -48.5t-21 -26.5q-7 -9 -41.5 -53t-50 -63.5t-49 -60.5t-56.5 -66t-53.5 -57t-58.5 -56.5t-55 -43.5q-64 -45 -115 -53q-16 -4 -23 -4q-25 0 -39 17q-12 17 -8 53 q5 85 19.5 253.5t19.5 250.5q4 32 -20 32q-11 0 -21 -2.5t-21 -9t-16 -9.5t-18 -14t-14 -12q-120 -97 -226 -203q-8 -8 -25 -24t-27.5 -26t-22.5 -25t-19 -29q-8 -16 -14.5 -34.5t-10 -32t-8.5 -36t-8 -34.5q-3 -2 -20 -15.5t-31 -21.5t-25 -8q-6 0 -10 2q-45 27 -45 88z M356 1229q30 30 41 59q5 11 16.5 39t18 44t15 40.5t14 48t8.5 47.5q6 81 6 82q0 3 -10 33q-29 -16 -37 -53q-13 -60 -37 -174t-35 -166z" />
<glyph unicode="i" horiz-adv-x="542" d="M-80 174q0 34 6 68q13 77 72 202q60 132 78 170q10 25 29 47.5t42 22.5q7 0 19 -4q13 -6 19.5 -20.5t4.5 -30.5q0 -17 -18 -58q-78 -157 -115 -278q-1 -5 -12 -41t-15 -51t-9 -43t-5 -49q0 -53 25 -91q17 -20 37 -20q6 0 22 4q66 20 120 63t110 107q29 33 88 102.5 t100 114.5q2 2 24 33t42.5 54.5t29.5 23.5q2 0 4 -2q1 0 4 -6t3 -9q0 -10 -11 -28.5t-34 -47.5t-23 -30q-9 -11 -23 -29t-25.5 -31.5t-23.5 -27.5q-31 -42 -75 -86q-4 -4 -13 -13.5t-25 -26.5t-28 -30q-2 -2 -34 -36.5t-41.5 -44t-39.5 -36t-48.5 -36t-46.5 -19.5t-54 -10 h-14q-69 0 -107.5 67.5t-38.5 155.5zM188 1069q0 46 21 76q16 21 51 18q86 -8 86 -63q0 -35 -19.5 -65t-45.5 -38q-2 0 -6.5 -1t-6.5 -1q-29 0 -54.5 23t-25.5 51z" />
<glyph unicode="j" horiz-adv-x="522" d="M-567 -1157q0 21 14 41q33 51 67.5 102t89.5 128.5t70 99.5l12 20t15 21q37 34 55 77.5t33 110.5q17 76 57 231t58 236q36 160 71 393q7 53 21 111.5t33 128.5t28 110q3 15 24 45.5t21 51.5v10q48 55 105 55h2q18 0 18 -27q0 -32 -24 -104q-26 -109 -79.5 -311 t-68.5 -262q-52 -192 -63 -277q-20 -168 -55 -254q18 44 71.5 109.5t65.5 83.5q14 21 42 67.5t44 69.5q7 10 114 172.5t156 220.5q44 56 55 66q8 6 17 17q5 6 6 2v-17q0 -8 -6.5 -20t-13 -21t-17 -21.5t-12.5 -15.5q-33 -45 -112.5 -172.5t-94.5 -149.5q-129 -192 -174 -258 q-101 -146 -165 -316.5t-120 -402.5q-4 -15 -12.5 -56t-14 -59t-21 -45.5t-38.5 -47.5q-42 -37 -129 -64q-28 -6 -57 10q-88 55 -88 111zM-512 -1169q0 -39 53 -62q31 -12 45 8q4 6 13.5 20t14.5 22t12 19.5t12 22t8 21.5q20 60 65 250q1 6 -6 39q-5 -6 -20 -23.5t-21 -26.5 q-74 -102 -141 -204q-17 -24 -25 -45q-10 -27 -10 -41zM117 1085q0 77 67 113q25 16 45 -4q31 -39 31 -80q0 -38 -23 -64t-63 -26h-4q-25 0 -39 16t-14 45z" />
<glyph unicode="k" horiz-adv-x="815" d="M-70 -14q-4 35 0 51q5 30 17 85t14 68q24 127 75 408.5t79 429.5q55 299 71 373q10 41 33 117.5t29 99.5q17 58 55 191t59 204q26 98 138 98h8q44 0 71 -23t27 -63q0 -14 -2 -20q-9 -49 -14 -70q-85 -332 -217 -596q-8 -16 -34 -81t-48 -97q-25 -37 -45 -86 q-3 -6 -7.5 -20t-7.5 -19q-5 -4 -19 -7.5t-19 -12.5q-4 -11 -2 -15t8.5 -10t7.5 -10q3 -18 0 -47q-13 -55 -36 -162.5t-36 -161.5q-23 -130 -26 -141q-5 -21 -24 -67t-24 -72q61 102 164 227q20 25 51 49t48.5 34.5t60.5 35.5q24 16 66 16q71 0 116 -51q35 -41 35 -82 q0 -33 -29 -78q-86 -117 -188 -180q-10 -6 -32.5 -21t-30.5 -20q32 -27 34 -29q52 -34 82.5 -55.5t72 -58.5t67.5 -72q62 -84 110 -170q5 -8 20 -42.5t29 -47.5t41 -18q9 -3 23 -3q66 0 108 48q5 9 13.5 10.5t12.5 -5t-1 -20.5q-24 -58 -123 -73q-15 -3 -29 -3q-16 0 -31 4 t-26 8t-24 15.5t-20 17.5t-19 23t-16.5 23.5t-17.5 27t-16 25.5q-99 148 -194 248q-27 27 -82 65q-49 29 -90 29q-17 0 -27 -2q-14 -4 -45 -4h-33q-4 0 -10 6t-6 8q4 22 16 27q5 3 17 5t16 3q184 40 254 145q55 88 55 148q0 37 -12 59q-18 37 -43 37q-11 0 -31 -10 q-145 -77 -221 -203q-4 -6 -13 -22t-16 -27t-14 -19q-57 -76 -80 -190q-8 -50 -43 -141q-7 -18 -41 -56q-9 -10 -22.5 -4.5t-16.5 19.5zM289 1300q-1 -6 0.5 -21.5t1.5 -25.5q19 25 20 27q13 37 67.5 144.5t67.5 174.5q0 8 7 15q14 28 27 63.5t20.5 61t19 68.5t17.5 63 q14 47 30 141q0 6 -7.5 10.5t-10.5 1.5q-4 -3 -12 -8.5t-13 -10t-8 -9.5q-88 -141 -113 -232q-20 -91 -61 -252t-53 -211z" />
<glyph unicode="l" horiz-adv-x="665" d="M-14 147q0 11 10 129q0 4 1 11t1 10q12 102 59.5 288.5t57.5 237.5q31 149 61 258q4 13 8 33t7 28t9.5 20.5t18.5 21t31 18.5q-21 24 -21 55q0 29 31 93q38 82 96 145q35 42 93.5 83.5t105.5 41.5q22 0 35 -8q22 -17 22 -62q0 -55 -28 -131q-111 -305 -135 -366 q-58 -144 -179 -318q-9 -12 -28 -28.5t-27 -38.5q-11 -31 -42 -106.5t-51.5 -137.5t-27.5 -113q-4 -25 -4 -67q0 -20 2 -58.5t2 -60.5v-16q7 -17 12 -37t10.5 -31t20.5 -27q10 -10 23.5 -17t26.5 -10.5t14 -4.5q14 -7 26 -7q52 0 123 62q52 44 110 120.5t79 100.5 q56 66 98 119l21 30q20 30 36 49.5t23 20.5q12 1 15 -8t0 -18.5t-7 -16.5q-7 -11 -14 -19.5t-17 -18.5t-14 -15q-36 -45 -100.5 -139.5t-122.5 -155.5q-33 -34 -57.5 -56.5t-62 -51.5t-76 -44.5t-75.5 -15.5q-44 0 -88 27q-65 41 -88.5 89t-23.5 113zM260 795q9 13 19.5 25 t13.5 16q12 21 36.5 64.5t39 69t34 63.5t33.5 71q23 51 39.5 101t34.5 112t31 102q12 32 12 49q0 24 -21 54q-132 -169 -196 -338.5t-76 -388.5z" />
<glyph unicode="m" horiz-adv-x="1497" d="M-6 68q0 18 2 28q6 40 18.5 121t18.5 121q25 175 28 211q1 5 1 19t2 23.5t6 14.5q8 13 24.5 22t34.5 9t29 -8q35 -15 35 -78v-16q0 -97 -29 -203q-6 -26 -14 -74q28 16 34 23q116 131 135 157q48 65 95 109l23 23t29.5 28t28.5 21t38 18.5t40 5.5q28 0 58 -12 q32 -12 42.5 -41t10.5 -78v-55v-31q4 -18 14 -18q13 0 25 18q57 77 84 123q58 98 141 172q29 26 64 41q14 8 39 4q63 -13 89.5 -41t37.5 -90q8 -62 8 -92q0 -53 -6 -103q-6 -55 -18.5 -164t-18.5 -165q-2 -14 -2 -41q6 -23 10 -23q21 -4 29 4q50 50 106.5 116t87.5 105.5 t101.5 132.5t87.5 115q1 1 9.5 13.5t17.5 22t16 9.5q4 0 8 -4q6 -6 6 -14q2 -8 0 -14.5t-10 -16.5l-8 -10q-20 -25 -53.5 -73t-47.5 -66q-100 -140 -233 -310q-10 -13 -22 -24t-31.5 -27t-24.5 -20q-21 -21 -49 -21q-46 0 -64 43q-13 39 -16 68q-10 76 -10 184q0 145 22 299 q6 33 10 103q0 17 -14 38t-31 21q-4 0 -8 -2q-32 -16 -39 -23q-5 -5 -26 -23.5t-29 -26t-23 -23t-25 -29.5t-18 -29q-23 -45 -88 -137t-90 -149q-5 -11 -20.5 -39.5t-23.5 -49.5t-11 -43t-35 -22q-14 0 -20 4l-4 2q-21 17 -21 29v106v53q0 30 12.5 88.5t12.5 90.5 q0 20 -2 30q0 2 0.5 11.5t0.5 16t-1.5 14.5t-4.5 12q-7 10 -19 8t-20.5 -6t-15.5 -9q-85 -54 -121 -102q-28 -36 -98.5 -124t-120.5 -153t-96 -128q-32 -50 -74 -52q-16 24 -16 52z" />
<glyph unicode="n" horiz-adv-x="1112" d="M-92 -47q0 8 14.5 73.5t18.5 73.5q25 67 55.5 230t54.5 233q12 33 47.5 58.5t65.5 25.5q37 0 37 -74q0 -36 -27 -117t-51 -91l-4 -9q10 -10 10 -20q0 -18 -12.5 -53.5t-12.5 -55.5q0 -6 9 -6q13 0 79 60t141 131.5t160 131.5t132 60q69 0 69 -149q0 -69 -41 -199 t-41 -197q0 -41 6 -59q50 6 103 32t95.5 58.5t89.5 81t77.5 84.5t67.5 84q11 13 32 44t40 53t40 36h8q5 0 5 -10q0 -16 -13 -33q-122 -189 -224.5 -293t-285.5 -215q-61 -37 -86 -37q-48 0 -69 43t-21 97q0 182 53 321q24 54 25 57v9q0 7 -2 7q-4 7 -4 9q0 8 6 24t6 25 q0 25 -20 25q-23 0 -109 -66.5t-137 -111.5q-77 -68 -197.5 -212.5t-167.5 -193.5q-22 15 -22 35z" />
<glyph unicode="o" horiz-adv-x="954" d="M-33 264q0 142 94 293q91 151 211 223q41 25 74 25q19 0 27 -4q50 -18 67 -103q2 -4 2 -16q0 -35 -20 -35q-10 0 -19 6q-11 8 -23 35t-20 35q-19 16 -36 16q-27 0 -54 -23t-41 -50q-29 -52 -63 -181q-49 -179 -49 -274q0 -87 33 -154q15 -32 79 -32q37 0 58 8 q110 35 168 106q30 37 28 47q0 5 -6.5 13.5t-15.5 18t-12 13.5q-33 53 -33 125q0 106 73 164q25 19 54 19q51 0 63 -54q6 -21 6 -39q0 -28 -14 -82t-14 -81q0 -41 25 -70t63 -29h12q35 4 86 45q56 44 138.5 143t119.5 134q16 16 29 16q2 -4 2 -7t-3 -8.5t-5.5 -9t-6.5 -8.5 t-6 -8q-25 -37 -54.5 -74.5t-69 -84t-58.5 -70.5q-39 -45 -105 -81t-128 -36q-35 0 -62 12q-7 3 -45 13q-11 -10 -31.5 -32t-31.5 -32q-118 -102 -242 -102q-95 0 -162 67q-82 79 -82 203zM508 436q0 -55 37 -98q19 39 22 65q4 16 4 37q0 49 -24 52h-6q-12 0 -21.5 -15 t-11.5 -28v-13z" />
<glyph unicode="p" horiz-adv-x="864" d="M-270 -926q0 11 4 29.5t9 36.5t5 20l31 142q20 95 95.5 442.5t96.5 452.5q48 237 101 456q18 77 35 103q12 17 28 28q11 12 21 2q16 -8 16 -45q0 -23 -4 -43q-1 -10 -17 -101.5t-20 -143.5q23 8 35 36q44 94 153 207q60 63 146 72h10q36 0 62 -29q120 -130 120 -278v-29 q0 -41 -12 -119l-2 -12q-10 -66 -51 -113q-8 -8 -8 -12q0 -2 2 -2q10 0 54.5 29.5t64.5 46.5q48 44 107 110t110 117q6 6 16 6q10 5 10 -9q1 -15 -4 -23q-25 -35 -50 -66t-41 -49t-48.5 -52.5t-52.5 -56.5q-19 -21 -124 -93t-147 -95q-1 0 -21 -11t-40 -18.5t-37 -7.5 q-9 0 -21 4q-42 14 -55 14q-39 20 -64.5 66t-25.5 96q0 61 29 103q23 28 41 28q7 0 12.5 -7.5t5.5 -20.5q0 -8 -4 -18t-10 -21.5t-8 -16.5q-13 -50 -13 -67q0 -75 54 -111q17 -10 26 -10q47 0 115 68q17 17 49 104q33 85 33 201q0 82 -19 166q-6 25 -11.5 42t-15.5 38 t-26 31.5t-37 10.5q-14 0 -37 -10q-90 -39 -170 -153q-86 -129 -125 -254q-50 -169 -88 -385q-104 -611 -163 -762q-15 -40 -50 -88q-16 -27 -28 -25q-6 0 -23 16.5t-20 18.5q-4 4 -4 14z" />
<glyph unicode="q" horiz-adv-x="751" d="M-174 -1253q-7 18 -7 37q0 21 9 43q17 42 46.5 73t64 68t45.5 57q4 8 52 88.5t66 126.5q29 71 74 208.5t53 160.5q12 36 39.5 124.5t52 161t46.5 121.5q16 33 37.5 103.5t29.5 91.5q-18 -14 -56 -46.5t-60 -50t-56.5 -40.5t-66.5 -39q-44 -19 -86 -19q-43 0 -80 16 t-56 48q-14 23 -14 63v17q0 165 83 325t216 254q77 56 168 56q23 0 63 -7q28 -7 43.5 -12t35.5 -19t28 -34q0 -2 3.5 -11.5t6 -19t2.5 -16.5q0 -11 -6 -14q-1 0 -2 -1.5t-2 -1.5q-5 0 -13.5 8.5t-18 20.5t-11.5 14q-62 58 -125 58h-6q-48 0 -86 -32.5t-78 -88.5 q-124 -181 -162 -369q-8 -40 -8 -65q0 -31 8 -55q22 -76 76 -76q49 0 110 50t99 99q1 1 22 29.5t38.5 51t44 50.5t47.5 43q28 21 45 21q8 0 20 -8q8 -5 8 -23q0 -14 -7 -39l-7 -26q-19 -62 -72 -170q-30 -65 -64 -158.5t-53 -153.5t-56 -182.5t-46 -151.5q-1 -5 -4.5 -15 t-5.5 -18t-2 -16q0 -12 6 -24q3 1 11 1.5t11 2.5q43 34 115 97t134 113t124 85q198 116 395 149q92 15 152 15q13 0 70 -5q32 -4 76.5 -18.5t44.5 -36.5q0 -12 -15 -24q-16 -13 -31 -13q-8 0 -30 11q-85 49 -197 49q-122 0 -253.5 -54.5t-241.5 -132.5q-226 -161 -422 -385 q-24 -28 -31 -47q-33 -82 -92 -245.5t-66 -182.5q-4 -9 -11 -33.5t-13 -38t-16.5 -30.5t-27 -25t-38.5 -8h-13q-29 0 -63 21t-43 49zM-117 -1233v-6q5 -14 8 -14q17 0 21 4q40 68 51 143q-70 -59 -80 -127z" />
<glyph unicode="r" horiz-adv-x="667" d="M-127 254q0 5 6 14q3 4 16.5 25.5t22.5 30.5q25 25 85.5 100.5t82.5 107.5q6 9 12 15t8 9.5t5.5 12t5.5 13.5q4 12 18.5 28t18.5 25q2 10 2 33v67q0 35 12 45q10 8 27 10t28 -6q11 -11 6 -47q-2 -6 -2 -18q0 -8 1.5 -15.5t5.5 -14t7 -11.5t10.5 -11t11.5 -9t14 -8.5 t14 -7.5t15.5 -7.5t15.5 -7.5q5 -2 36.5 -3t38.5 -8q6 -9 6 -20q0 -14 -10.5 -42t-11.5 -34q-5 -32 -24.5 -87.5t-24.5 -74.5q-21 -77 -27 -155q0 -4 -1 -15t-1 -16q0 -94 57 -94q13 0 26.5 5.5t28 19t22.5 21.5t23.5 26.5t18.5 21.5q14 16 31.5 40.5t28.5 37.5 q4 6 42.5 52.5t49.5 64.5q11 19 43 51q3 5 5 12t4.5 10.5t6.5 3.5q1 -1 6.5 -5t8 -8t2.5 -9t-5 -10q-11 -14 -54.5 -79.5t-61.5 -86.5q-13 -15 -43 -53t-49 -60l-16 -19q-16 -18 -19.5 -21.5t-19 -20t-23 -21t-23 -16t-27 -15.5t-27 -8t-30.5 -4q-34 0 -67 23q-32 21 -42 52 t-10 79v31q0 125 35 247q2 7 9 24t10.5 30.5t3.5 25.5q0 30 -16.5 50.5t-36.5 23.5q-4 4 -7 4q-2 0 -6 -4q-7 -7 -33 -38t-30 -38q-16 -27 -104.5 -132t-104.5 -136q-8 -8 -16 -12q-21 0 -21 16z" />
<glyph unicode="s" horiz-adv-x="886" d="M-53 344q4 15 12 23q22 28 78 101.5t86 111.5q22 28 84 101t92 116q20 28 39 92q22 65 49 65q8 0 14 -6q7 -7 7 -16q0 -6 -3 -13.5t-8 -16t-6 -9.5q-29 -54 -29 -100v-21q5 -44 37 -166q14 -53 51.5 -142t51.5 -138q10 -41 10 -90v-37q-2 -18 -9 -48t-7 -34h2 q95 43 164 94q111 84 167 147q5 6 53 54.5t56 58.5q8 9 13 11.5t22 -3.5q0 -23 -15 -41q-40 -51 -115 -126.5t-128 -116.5q-53 -44 -118.5 -78t-107.5 -49q-146 -60 -239 -60q-47 0 -100 17q-32 11 -52.5 43t-23.5 67l-6 -14q-3 26 6 41q1 1 14 8q1 -3 3.5 -10t2.5 -10 q0 -52 37.5 -87.5t89.5 -35.5h12q75 8 119 94q23 44 30 72t7 65v43q0 68 -33.5 183.5t-38.5 138.5q-4 18 -12 86q-9 -3 -16 -8t-11 -9.5t-9 -11.5t-7 -10q-31 -40 -83 -101.5t-91 -109.5q-75 -92 -111 -125q-12 -12 -16 -12q-14 3 -14 22z" />
<glyph unicode="t" horiz-adv-x="638" d="M-719 1180q0 26 19 32q11 2 37 7t46.5 7.5t38.5 2.5q21 0 31 -2q59 -10 114 -30t122.5 -50t101.5 -43q32 -13 95 -41.5t94 -40.5q33 -13 96 -31.5t84 -25.5l16 -7q17 -7 27 -8q15 37 34 72.5t31.5 55t42 61t41.5 59.5q51 51 74 51q10 0 10 -12q0 -14 -20 -55 q-38 -92 -78 -183q-2 -3 -6 -30h6q28 0 55 5.5t67.5 19t51.5 16.5q28 7 56 24t44.5 31t46.5 41q15 -9 15 -23q0 -32 -62 -71q-35 -22 -84.5 -39.5t-87.5 -26.5t-102 -22q-38 -9 -51 -41q-70 -160 -107 -295q-45 -162 -45 -301q0 -128 41 -209q20 -41 64 -41q14 0 32 6 q24 6 46 20.5t34 27t33.5 37.5t32.5 36q73 73 147 170q103 142 152 170q9 6 16 -1t4 -16q-3 -6 -38.5 -56t-39.5 -54q-65 -75 -75 -90q-23 -34 -48.5 -62.5t-71.5 -75t-56 -57.5q-4 -4 -16.5 -17t-18 -18t-16.5 -15.5t-18.5 -16.5t-17.5 -13.5t-20 -13.5q-43 -27 -88 -27 q-52 0 -98.5 32t-69.5 85q-31 69 -31 184q0 137 35 285q5 24 54 174t53 150l12 32q-193 65 -358 138q-28 12 -101.5 48t-126 55t-106.5 24q-14 2 -39 2q-15 0 -60.5 -13.5t-64.5 -13.5q-31 0 -31 27z" />
<glyph unicode="u" horiz-adv-x="1036" d="M-33 135v21q0 80 26 168.5t52.5 143.5t71.5 134q4 6 12.5 21t12.5 22.5t12.5 20.5t15 21t15.5 18t18 18q12 6 14 6q1 0 4 1t4 1q16 0 26.5 -14.5t10.5 -30.5q0 -8 -2 -12q-14 -54 -47 -137q-81 -208 -121 -351q-16 -67 -16 -88q0 -67 55 -67h10q57 0 105.5 30.5 t99.5 83.5q106 118 168 217q9 15 30.5 40t28.5 34q60 78 78 103q15 22 40 63.5t28 46.5q19 30 45 25q22 -3 22 -33q0 -20 -9.5 -50.5t-22 -60.5t-13.5 -34q-8 -24 -15 -50t-15.5 -60l-12.5 -50q-3 -13 -9.5 -39t-10 -42t-7 -39t-3.5 -42q0 -25 6 -49q4 -17 10 -23t14 -6 q34 0 105 62q51 43 104 110q14 20 46.5 56t47.5 55q12 19 51 65.5t40 47.5h8q10 3 15.5 -0.5t2.5 -14.5q-3 -13 -33 -49q-12 -19 -40 -53t-35 -43q-139 -196 -265 -279q-49 -33 -92 -33q-34 0 -57 23q-47 44 -47 143q0 28 10 82t10 82q-31 -22 -71 -90q-123 -192 -273 -266 q-44 -23 -86 -23q-56 0 -112 37q-60 43 -60 127z" />
<glyph unicode="v" horiz-adv-x="813" d="M-6 391q0 33 26 47l7 6q0 9 -13 13q-14 6 -14 32q0 11 2.5 25.5t5.5 28.5t4 18q4 24 4 37q0 14 -2 40t-2 40q0 21 2 31q2 7 6 24t6.5 26.5t7 24t9.5 23t12 17t16.5 12.5t20.5 4q13 0 31 -6q18 -9 18 -39q-3 -76 -20 -253.5t-17 -273.5q0 -46 2 -69v-15q0 -16 -1 -45 t-1 -43q0 -38 7 -65q0 -2 4 -2q8 0 27 11.5t24 16.5q20 17 72 78q17 18 38 47.5t47 69t35 51.5q5 8 19.5 23.5t23.5 29t9 27.5q0 13 -11 27q-37 45 -53 76.5t-16 68.5q0 13 4 41q11 59 22.5 79t55.5 52q25 18 59 18q51 0 70 -36q6 -12 10 -39q4 -54 4 -60q0 -26 -6.5 -45.5 t-26.5 -56.5l-37 -74q-13 -24 11 -51q25 -26 62 -45t69 -19h4h18q29 0 51 11q21 12 34.5 19.5t25.5 17t16 12.5t18 16.5t19 18.5q3 3 12 13t14.5 15t13.5 10t15 5h6q5 0 5 -6q0 -17 -33 -50q-19 -17 -38 -41.5t-38 -40.5q-25 -20 -38 -30t-28 -14.5t-18.5 -5t-26.5 -1.5 q-7 0 -15.5 -1t-10.5 -1q-8 0 -68 23q-18 7 -49 26.5t-37 22.5q-19 9 -28 8t-19 -14q-13 -16 -33 -47q-16 -23 -54 -83t-50 -77q-6 -9 -23.5 -35t-25.5 -37.5t-24 -33.5t-27.5 -35.5t-27.5 -30.5t-32 -31q-28 -29 -51 -16q-19 9 -27 43q-61 208 -61 411q0 5 -1 16t-1 15z M399 590q0 -81 58 -139q13 17 21.5 32t13 24t8 25t4 21.5t2 29t2.5 31.5q2 12 2 37q0 58 -37 58q-40 0 -57 -43q-17 -35 -17 -76z" />
<glyph unicode="w" horiz-adv-x="1148" d="M-66 33q0 9 11 59q90 324 133 486q1 4 5.5 20t6 21.5t6 21t7.5 22.5t8 19.5t9.5 20t11 17t13.5 16.5t15 12q6 5 21 4t24 -7q9 -4 16.5 -16.5t7.5 -21.5q0 -28 -16 -74q-16 -50 -50.5 -149.5t-51.5 -149.5q-19 -59 -56 -166t-51 -148q15 -12 29 -12t39 15q105 55 157 172 q28 65 105 202t108 211q9 0 35 1t39 1q19 -23 19 -26q-4 -90 -13 -144q-8 -47 -8 -104q0 -103 33 -203q13 -37 41 -58.5t61 -21.5q29 0 58 19q39 25 59 61q62 106 78 170q8 28 11.5 83.5t6.5 72.5q6 35 6 65q0 62 -18 127q-12 46 -12 70q0 29 10 49q6 0 20 1t23 1 q16 0 24 -2q28 -5 42 -17t18 -38q4 -32 4 -49q0 -21 -6 -39q-8 -23 -8 -68v-27q0 -16 -10.5 -54.5t-10.5 -57.5q0 -50 51 -76q24 -12 39 -12q13 0 45 12q15 5 38 31t46.5 57.5t30.5 38.5l27 -18q-8 -8 -51 -75t-78 -83q-59 -25 -86 -25q-29 0 -78 19q-3 -7 -8.5 -21 t-12.5 -24q-4 -7 -17.5 -30t-25 -42.5t-18.5 -28.5q-48 -62 -125 -116q-66 -47 -135 -47q-64 0 -127 38q-35 49 -45.5 98.5t-10.5 114.5v39q0 26 -4 76q-59 -25 -82 -84q-40 -99 -131 -201q-61 -70 -161 -94q-8 -2 -23 -2q-30 0 -49 19t-19 49z" />
<glyph unicode="x" horiz-adv-x="1054" d="M-27 199q0 25 15 28q9 3 15.5 -7t8.5 -23q10 -61 57 -119t103 -58q24 0 51 15q10 6 19.5 14t18.5 19.5t16 19.5t15.5 23.5t13 23t12.5 25.5t10.5 23t10.5 24.5t9 21.5q6 14 20 47.5t22 53t18.5 48.5t17.5 54.5t10 50.5q2 8 2 35q0 100 -26 133q-39 49 -93 49 q-49 0 -106 -36q-24 -16 -46.5 -68t-27.5 -90q-4 -12 -4 -17q0 -21 11 -36t30 -15q12 0 22.5 12.5t10.5 24.5q2 5 0.5 16t-8.5 11h-8q-7 7 2.5 12.5t17.5 5.5q4 0 16 -12q13 -13 13 -31q0 -28 -24 -56.5t-46 -31.5q-30 -6 -35 -6q-26 0 -35 20q-2 4 -10 19.5t-12 24t-8 22 t-4 23.5q0 43 21 99.5t56 92.5q82 82 195 82q50 0 94 -21q26 -12 43 -34t23 -41t14 -52q0 2 19.5 16.5t41 30t23.5 17.5q70 50 109 68q37 18 81 18q42 0 74.5 -20.5t40.5 -61.5q6 -48 6 -55q0 -20 -6 -35q-36 -104 -65 -119q-16 -6 -27.5 2.5t-1.5 24.5q2 3 8 8t8 8 q29 26 29 68q0 43 -25 78.5t-59 35.5q-10 0 -14 -2q-20 -5 -38.5 -14t-35.5 -23.5t-29 -25.5t-28 -33t-23 -32t-23.5 -36.5t-21.5 -33.5q-5 -6 -0.5 -25.5t-3.5 -25.5q-10 -8 -27 -11q-23 0 -4 -32q3 -6 2.5 -10t-4 -12.5t-4.5 -12.5q-6 -27 -6 -51q0 -54 28 -93t76 -57 q19 -8 43 -8q62 0 146 51t122 81t93 93q16 18 74 96q37 49 77 86q32 28 38 23q4 -3 3 -14q-1 -7 -9.5 -20.5t-22.5 -30.5t-15 -19q-25 -32 -56 -74.5t-53.5 -69.5t-62.5 -69q-92 -95 -172 -145q-85 -56 -174 -56q-92 0 -164 60q-30 27 -61 49q2 -2 2 -4q0 -18 -49 -89.5 t-66 -88.5q-63 -70 -141 -70q-39 0 -72 20q-53 32 -85.5 96t-35.5 130z" />
<glyph unicode="y" horiz-adv-x="1050" d="M-336 -1497q0 85 57 197q111 215 244 401q35 49 99 145t94 138q6 8 28.5 35t32.5 44q8 9 27 25q61 61 69 102q11 48 26 144.5t26 144.5q20 79 73 318q-24 -8 -43 -22t-27 -23.5t-22 -28.5q-9 -12 -21.5 -24t-21.5 -20.5t-25.5 -20t-24 -16.5t-27.5 -18t-25 -16 q-47 -31 -121 -31q-47 0 -80 18.5t-33 55.5v64q0 178 37 313q6 21 16 95.5t28.5 125t55.5 74.5q12 6 21 6q16 0 28 -15t15 -34q4 -36 4 -53q0 -61 -16 -117q-2 -4 -2 -12q0 -28 -6 -33h-9q-16 -8 -22 -35q0 -2 -0.5 -7t-0.5 -8.5t0.5 -7.5t2.5 -6t6 -2q6 -26 6 -28 q-9 -61 -24 -115q0 -3 -1.5 -7.5t-1.5 -6.5q-16 -71 -20 -181q21 -18 45 -18q22 0 68 20q29 13 51 35q110 98 160 148q6 6 18 17.5t19.5 19t16.5 17.5t15 19q16 23 35 88t37 87q14 20 41 20q25 0 43 -18q12 -12 12 -29q0 -16 -13.5 -47t-15.5 -37q-8 -26 -52.5 -170.5 t-69.5 -214.5q-9 -25 -20 -80.5t-15 -69.5q-10 -40 -10 -69h4q8 0 19.5 6t19 12t18.5 16t12 11q73 82 157.5 179t166 193t113.5 132q14 15 47.5 55.5t54.5 62.5q2 2 17 18.5t26.5 26t21.5 13.5q12 4 15 4q6 0 6 -4t-4.5 -12t-13 -19.5t-9.5 -13.5q-19 -30 -54 -74.5 t-84.5 -104t-59.5 -71.5q-63 -74 -101 -123q-17 -22 -45 -57q-19 -24 -40 -46t-57 -57t-44 -43q-29 -32 -150 -172q-48 -55 -71 -147q-16 -62 -53 -174.5t-50 -157.5q-14 -49 -41.5 -158t-44.5 -166q-40 -147 -65 -196q-8 -18 -29.5 -71t-40 -86t-43.5 -58 q-27 -28 -46.5 -45.5t-55 -44.5t-71 -41.5t-69.5 -14.5q-60 0 -104 47q-39 39 -39 105zM-199 -1384q0 -83 49 -109q15 -10 39 -10q44 0 93.5 39.5t80.5 83.5q58 85 93 215q56 196 100 475q6 48 6 51q0 25 -10 43q-22 -9 -40.5 -26t-27 -28.5t-24.5 -35.5 q-26 -39 -73.5 -112.5t-55.5 -86.5q-26 -42 -80.5 -126t-81.5 -126q-6 -10 -13 -30.5t-10 -26.5q-45 -112 -45 -190z" />
<glyph unicode="z" horiz-adv-x="804" d="M-98 283q8 17 23 38.5t28 37.5t36 43t34 40q10 14 23 40t22 38q38 51 77 74q20 14 76 18q6 1 56.5 8.5t92.5 12t76 4.5q93 0 93 -39q0 -20 -21 -47q-35 -64 -106.5 -182.5t-108.5 -188.5l-2 -28q4 0 30 -7.5t56 -16t35 -9.5q10 -2 29 -2q64 0 125 42t102 101 q16 23 98.5 136.5t83.5 113.5q14 -11 14 -31q0 -26 -24 -55q-14 -19 -63.5 -85t-82.5 -107t-69 -80q-4 -5 -19 -21t-20 -21.5t-18.5 -18.5t-20.5 -18t-20 -14t-23 -12.5t-23 -6.5t-26 -3q-25 0 -49 8q-47 12 -78 12q-21 0 -41 -4.5t-34 -9.5t-34 -18t-30 -20.5t-34 -26.5 t-34 -27q-22 -14 -80 -49q-39 20 -39 37q0 7 11 18q74 85 208 297q76 113 111 190l57 109q-5 35 -65 35q-21 0 -57.5 -5t-38.5 -5q-34 -3 -60 -15q-7 -4 -26.5 -12t-26.5 -16q-3 -4 -33 -54q-7 -14 -12 -21t-12 -15t-15 -19q-51 -69 -76 -96q-38 -47 -69 -47h-6z" />
<glyph unicode="{" horiz-adv-x="694" d="M12 -141q0 110 49 239q34 93 139.5 302t139.5 321q18 67 18 113q0 118 -102 172q-25 15 -29 20q-2 2 -2 8q0 7 6 14.5t18.5 15t22.5 13t27.5 13.5t24.5 12q34 17 55.5 43.5t29 48.5t13.5 55q6 31 6 92q0 31 -3 92t-3 91q0 94 27 166q22 55 76.5 104t133.5 72q43 12 91 12 q68 0 118 -24t50 -62l-5 -20q-12 -28 -43 -39q-22 -9 -34 -9q-18 0 -33 11q41 18 41 51q0 29 -35 41q-18 6 -45 6q-76 0 -127 -41q-26 -19 -43 -44t-25 -55t-11.5 -52.5t-6 -57t-4.5 -47.5q-5 -42 -13.5 -129t-13.5 -131q-16 -139 -129 -191q-4 -2 -12 -5.5t-12.5 -5.5 t-12 -5.5t-11.5 -6t-9 -6t-8 -7t-4 -7.5q-6 -17 24 -39q1 0 2 -1l4 -3q109 -77 109 -211q0 -23 -8 -73q-17 -82 -62 -171.5t-116 -203t-101 -168.5q-76 -146 -76 -270q0 -61 19 -129q36 -138 133 -162q24 -4 33 -4q33 0 90 20.5t88 20.5h4q-3 -15 -23 -29q-13 -11 -35 -19.5 t-52.5 -17t-41.5 -12.5q-85 6 -146 32.5t-93.5 67.5t-47 87t-14.5 102z" />
<glyph unicode="|" horiz-adv-x="997" d="M391 -553q0 11 10 61q17 73 17 140q0 26 -4 76q-4 70 -4 104q0 124 20 274q28 607 31 654q9 126 30 355.5t27 309.5q1 9 4.5 39.5t3.5 48.5v7q0 40 19 59.5t55 34.5q4 2 10 2q27 0 52 -41q-10 -87 -36 -272t-42.5 -329t-22.5 -280q-2 -43 -10.5 -121t-11.5 -112 q-17 -229 -33 -492q-6 -87 -20.5 -260t-20.5 -260q-4 -74 -31 -74q-4 0 -12 4q-12 8 -21.5 29.5t-9.5 42.5z" />
<glyph unicode="}" horiz-adv-x="694" d="M-18 -358h8q30 0 77.5 -18.5t79.5 -18.5q11 0 39 4q108 24 203 160q107 158 107 317q0 31 -7 82q-5 31 -41 192.5t-36 247.5q0 45 10 103q35 185 217 284q49 26 49 43t-46 39q-1 0 -4 2l-5 2q-68 36 -68 113q0 22 13 76q14 49 40.5 137t36.5 123q3 10 15.5 50t19 68.5 t6.5 55.5q0 54 -28 84q-39 39 -115 39q-25 0 -49 -6q-53 -18 -53 -58q0 -20 22 -34q-18 -11 -39 -11t-33 6q-26 14 -26 41q3 48 66 77.5t143 29.5q48 0 88 -12q72 -22 108.5 -71t36.5 -103q0 -62 -29 -139.5t-68 -162t-52 -139.5q-6 -27 -6 -57q0 -58 47 -90q5 -3 19 -10.5 t21.5 -12t16.5 -11.5t13.5 -13t4.5 -13q0 -8 -8 -16q-4 -4 -9.5 -7t-13.5 -6t-12 -5q-60 -26 -101.5 -64.5t-64 -87t-31.5 -100t-9 -115.5q0 -77 20 -251t20 -261v-29q0 -41 -5 -82.5t-18.5 -93t-35 -97t-58.5 -90.5t-84.5 -79t-116 -58t-151.5 -30q-7 2 -29.5 9t-34.5 11 t-27 11.5t-21 15.5q-14 18 -12 29z" />
<glyph unicode="~" horiz-adv-x="860" d="M133 403q0 20 26 53t36 38q25 17 68 33t77 16q38 0 70.5 -16t56 -38.5t46.5 -45t52 -38.5t62 -16q27 0 43 4q21 5 48 43.5t56 40.5q-12 -72 -67 -111.5t-129 -39.5q-25 0 -37 2q-42 6 -102 53t-83 55q-49 17 -94 17h-18q-18 -3 -48.5 -35.5t-43.5 -32.5h-5q-14 6 -14 18z " />
<glyph horiz-adv-x="1740" />
<glyph unicode="&#xa0;" />
<glyph unicode="&#xa1;" />
<glyph unicode="&#xa2;" horiz-adv-x="1740" />
<glyph unicode="&#xa3;" horiz-adv-x="1316" d="M-311 -109q0 9 19 18t48.5 15t58 11t54.5 9t31 5q130 35 198 160q21 40 71.5 175t98.5 197q6 6 11 21q-7 0 -64 35.5t-68 44.5q-71 71 -71 192q0 117 63 223.5t168.5 171t222.5 64.5q144 0 211 -88q47 -67 47 -182q0 -55 -20 -97.5t-59 -42.5q-13 0 -23 7t-10 16 q0 17 16 41q41 55 41 121q0 73 -51 123.5t-127 50.5q-43 0 -84 -17q-128 -54 -215 -252q-57 -126 -57 -223q0 -74 39 -108q40 -37 122 -37q32 0 62 6q28 8 47 8q31 0 31 -14q0 -17 -29 -35q-49 -34 -71 -52t-47 -51.5t-42 -78.5q-46 -129 -105 -217.5t-159 -180.5 q241 -148 422 -223q151 -63 276 -63q86 0 152 28q81 34 137 103t56 149v15q0 48 -24.5 87.5t-72.5 39.5q-22 0 -41 -13t-26 -33l-4 -20t-7 -23.5t-12 -13.5q-8 -4 -14 -4q-15 0 -26 13t-11 28q0 24 29 57q35 38 95 64t118 26q62 0 107.5 -35.5t45.5 -99.5q0 -22 -2 -32 q-29 -145 -153 -243.5t-279 -123.5q-47 -8 -104 -8q-224 0 -516 166q-15 9 -53 31.5t-54.5 31t-46.5 22t-58 18.5t-59 5h-6q-121 0 -178 -6h-12q-37 0 -37 18z" />
<glyph unicode="&#xa5;" horiz-adv-x="1081" d="M129 999q0 21 23 35q13 8 34 8q56 7 84 7q38 0 52 -11q2 -2 8 -14q15 -37 48 -125t53 -137.5t55 -119t71 -122.5q18 14 37 35t28 33.5t31.5 45.5t26.5 38l240 344q19 27 53 65q5 5 15.5 -2.5t10.5 -13.5q-21 -61 -26 -68q-18 -27 -87.5 -129.5t-100.5 -147t-87 -120 t-106 -133.5q-2 -2 -12 -14t-12.5 -16t-8.5 -14t-8 -18.5t-2 -17.5q0 -23 10 -41q13 -24 59 -24q40 0 120 22t87 23q-6 -1 -25.5 -28t-27.5 -32q-24 -13 -54 -19.5t-71 -10.5t-57 -7q-34 -8 -29 -30q1 -7 9 -16t14 -11q104 -16 121 -16q18 0 28 2q12 1 44.5 8.5t49.5 7.5 q30 0 54 -16q-16 -6 -54.5 -22t-69 -25.5t-57.5 -12.5h-14q-14 0 -40 3t-38 3q-28 0 -45 -10q0 -4 -7 -54.5t-7 -78.5v-25v-51q0 -252 -78 -252q-10 0 -16 2q-25 5 -25 35q0 5 1 16.5t1 16.5v18q0 58 8.5 174.5t8.5 174.5v18q-41 -5 -46 -6q-4 -1 -16.5 -6.5t-24 -9 t-20.5 -3.5q-23 0 -23 25q2 20 24.5 34t61 24.5t41.5 11.5q9 27 9 34q1 6 -0.5 18.5t-1.5 16.5q-12 4 -33 4q-16 0 -43.5 -5.5t-38.5 -6.5q-45 -10 -53 -10q-13 0 -20 7t-7 17q0 17 16 27q10 5 78 16q2 0 9.5 1t10.5 1.5t10 1.5l10.5 1.5t10 2t10.5 3t10 4t10.5 5t9.5 6 t10 7.5v19q0 54 -29 110q-201 376 -203 379q-5 9 -29.5 36.5t-43.5 55.5t-19 49z" />
<glyph unicode="&#xa6;" />
<glyph unicode="&#xa7;" horiz-adv-x="815" d="M33 133q0 3 1 11t1 14q6 67 81.5 130.5t145.5 63.5q33 0 58.5 -21t25.5 -61t-24 -67q-9 14 -18.5 39.5t-20.5 36t-35 10.5q-34 0 -72 -29.5t-41 -56.5q-2 -8 -2 -23q0 -27 11.5 -48.5t26.5 -33t33 -29t27 -34.5q5 -11 2 -19t-2 -16t11 -12q7 -3 20.5 7.5t18.5 10.5 q11 0 43 -16q44 -15 92 -15q89 0 173 62.5t103 144.5q6 24 6 76q0 153 -63 199q-16 12 -49 16.5t-78 7.5t-70 8q-66 13 -176 76q-14 8 -42.5 19.5t-44.5 20.5t-34.5 23.5t-27.5 36.5t-9 52v49q0 32 -16 78t-16 86q0 31 4 49q7 38 51.5 93t106.5 105.5t140.5 86.5t143.5 36 q78 0 129 -51.5t51 -152.5q0 -105 -64 -159t-179 -54h-33q8 30 28.5 43t45.5 20.5t36 18.5q46 49 46 120q0 53 -25 95q-20 34 -61 37q-8 4 -17 4q-55 0 -131.5 -37.5t-137.5 -104t-61 -135.5q0 -55 41 -104q36 -42 83.5 -59t119.5 -28t119 -28q118 -42 181 -165t69 -286 q0 -4 1 -11t1 -11q0 -276 -287 -348q-57 -13 -117 -13q-61 0 -116 13t-102.5 40t-76 75.5t-28.5 113.5zM152 739q0 -34 17 -55.5t52 -44.5q76 -50 191 -85t223 -44q-23 69 -83.5 110t-124 54.5t-146 34t-129.5 47.5v-17z" />
<glyph unicode="&#xa8;" />
<glyph unicode="&#xa9;" horiz-adv-x="2166" d="M557 168q0 104 45 199q65 134 200 224.5t283 90.5h29h29q106 0 198.5 -55.5t143.5 -149.5q51 -92 51 -209q0 -83 -29 -168q-37 -100 -111 -179t-171 -122q-98 -43 -209 -43q-107 0 -203 41q-131 57 -199 162q-57 89 -57 209zM657 154q0 -58 29 -121q121 -246 348 -246 q24 0 82 8q135 24 207 99q63 66 98 184q31 105 31 201q0 184 -111 286q-91 88 -231 88q-98 0 -180 -43q-118 -59 -195.5 -181.5t-77.5 -252.5v-22zM840 131q0 66 28 133q30 73 86 131.5t127 85.5q33 13 64 13q16 0 24 -2q28 -6 48 -29t30 -53q6 -18 6 -45q0 -49 -28 -64 q-8 -6 -19.5 -3.5t-7.5 13.5q0 4 5 8.5t12 9t8 5.5q4 4 4 14q0 7 -4 17t-7.5 16.5t-10 18t-7.5 12.5q-25 39 -70 39q-24 0 -45 -15q-33 -23 -59 -84q-49 -118 -49 -221q0 -39 6 -76q3 -26 16.5 -43.5t32.5 -17.5q12 0 29 10q4 2 44.5 44t55.5 42q4 0 6 -2q6 -6 6 -14 q0 -20 -31.5 -54t-47.5 -43q-39 -26 -93 -26q-34 0 -61 12q-39 18 -63.5 54.5t-32.5 80.5q-2 10 -2 33z" />
<glyph unicode="&#xaa;" />
<glyph unicode="&#xab;" />
<glyph unicode="&#xac;" />
<glyph unicode="&#xad;" horiz-adv-x="575" d="M55 330l4 59l4 4l189 -4l276 4l9 -8v-57l-9 -9q-149 7 -198 7l-273 -7z" />
<glyph unicode="&#xae;" horiz-adv-x="2166" d="M635 100q0 96 41 183q61 126 187.5 211.5t262.5 85.5q5 0 14.5 -1t14.5 -1h25q100 0 187 -51.5t134 -139.5q47 -84 47 -197q0 -84 -26 -155q-34 -93 -104 -167t-161 -114q-93 -41 -194 -41q-96 0 -191 39q-121 51 -184 150q-53 85 -53 198zM727 90q0 -61 27 -119 q115 -229 327 -229q35 0 76 6q122 20 193 94q57 57 90 172q30 94 30 187q0 170 -104 268q-83 80 -217 80q-94 0 -168 -39q-109 -56 -181.5 -170.5t-72.5 -235.5v-14zM881 -76q53 269 59 309q29 207 170 207h4q40 0 62 -20.5t22 -52.5q0 -26 -12 -50q-5 -11 -11.5 -22 t-18 -26.5t-15.5 -20.5v-4q0 -2 4 -6q61 -39 61 -127q0 -31 -6 -58q-6 -48 -6 -53q0 -15 2 -23q4 -24 23.5 -37.5t44.5 -13.5t43 15q1 1 6 2.5t8 3.5q17 -20 -6 -39q-22 -19 -60 -19q-40 0 -79 27q-29 22 -37 86q-1 12 -1 41.5t-1.5 53t-7 49t-21 41.5t-39.5 18 q-14 2 -32 -3t-27 -14q-5 -5 -9 -16.5t-6 -21.5t-4.5 -25.5t-3.5 -18.5q-3 -17 -9 -50t-9 -50q-1 -8 -2.5 -23.5t-3 -25t-5 -20t-11 -16t-19.5 -5.5q-9 0 -15 2q-8 0 -32 6zM1030 264q23 -10 45 -10l35 10q23 12 38 38t15 56q-4 28 -20 39q-18 11 -37 11q-22 0 -38.5 -9.5 t-16.5 -27.5q-11 -47 -21 -107z" />
<glyph unicode="&#xaf;" horiz-adv-x="1740" />
<glyph unicode="&#xb0;" horiz-adv-x="1304" d="M492 956q0 38 47 68q6 5 17 8.5t15 5.5q2 1 15.5 11t21.5 10q29 0 70 -29q43 -30 43 -59q0 -51 -35 -78t-80 -27q-46 0 -80 24t-34 66zM541 963q0 -26 17.5 -44t51.5 -18q7 0 14 3t15.5 9t9.5 7q31 19 31 45q0 18 -19.5 35.5t-52.5 17.5q-34 0 -59 -25q-8 -8 -8 -30z" />
<glyph unicode="&#xb1;" />
<glyph unicode="&#xb4;" />
<glyph unicode="&#xb5;" />
<glyph unicode="&#xb6;" />
<glyph unicode="&#xb7;" />
<glyph unicode="&#xb8;" horiz-adv-x="1740" />
<glyph unicode="&#xba;" horiz-adv-x="727" d="M219 866q0 17 8 31.5t16 21.5t25 19q6 4 17.5 8t17.5 8q3 1 17.5 11t23.5 10q29 0 74 -31q47 -30 47 -63q0 -54 -38 -82.5t-85 -28.5q-49 0 -86 25.5t-37 70.5zM270 872q0 -27 19.5 -46t56.5 -19q16 0 41 20q33 17 33 47q0 20 -20.5 39t-55.5 19q-39 0 -63 -27 q-11 -9 -11 -33z" />
<glyph unicode="&#xbb;" />
<glyph unicode="&#xbf;" />
<glyph unicode="&#xc0;" horiz-adv-x="1386" d="M35 61q0 37 12 127q45 285 154 517q11 23 42.5 94.5t51.5 107.5q51 87 117 185q32 47 74 100.5t71 87t84.5 95t77.5 87.5q19 22 40.5 40.5t48.5 36t45 27.5t52.5 28t48.5 26q20 10 43 10q53 0 100.5 -42t55.5 -120q0 -2 -1 -9t-1 -11q-3 0 -9 -1.5t-8.5 -2t-3.5 1.5 q-14 61 -50 89t-81 28q-57 0 -94 -33q-123 -111 -176 -172q-242 -287 -356 -580q-35 -90 -74 -213q-3 -10 -11 -42.5t-12.5 -47.5t-16.5 -36.5t-28 -35.5q15 -18 15 -28q0 -17 -4 -31l-19 -80q-9 -39 -21.5 -111t-17.5 -96q-4 -24 -4 -32q0 -65 58 -99q29 -21 47 -32 q161 119 250 235q32 42 64 85.5t67.5 94t59.5 85.5t64.5 96t58 87t63.5 97t59 90q118 178 203 369q10 24 18 28q34 19 49 15q39 -16 39 -74q0 -21 -6.5 -48.5t-12 -44.5t-17 -46.5t-11.5 -30.5q-64 -160 -129 -436q-29 -122 -29 -263v-51q0 -280 99 -379q6 -6 30.5 -22.5 t43 -33.5t18.5 -32q0 -20 -21 -20q-17 0 -69 35q-108 82 -161.5 248t-53.5 366q0 76 10 164q4 36 30 180q-6 -4 -14 -7.5t-12 -5.5t-6 -5q-32 -70 -114 -180t-107 -150q-87 -146 -244 -324q-90 -106 -219 -188q-42 -25 -80 -25q-91 0 -144 121q-26 61 -26 137zM862 1954v2 q4 10 23 21.5t30 11.5q20 0 50 -47t57.5 -96.5t40.5 -53.5q-6 -6 -12 -6q-24 0 -106.5 73.5t-82.5 94.5z" />
<glyph unicode="&#xc1;" horiz-adv-x="1386" d="M35 61q0 37 12 127q45 285 154 517q11 23 42.5 94.5t51.5 107.5q51 87 117 185q32 47 74 100.5t71 87t84.5 95t77.5 87.5q19 22 40.5 40.5t48.5 36t45 27.5t52.5 28t48.5 26q20 10 43 10q53 0 100.5 -42t55.5 -120q0 -2 -1 -9t-1 -11q-3 0 -9 -1.5t-8.5 -2t-3.5 1.5 q-14 61 -50 89t-81 28q-57 0 -94 -33q-123 -111 -176 -172q-242 -287 -356 -580q-35 -90 -74 -213q-3 -10 -11 -42.5t-12.5 -47.5t-16.5 -36.5t-28 -35.5q15 -18 15 -28q0 -17 -4 -31l-19 -80q-13 -53 -28 -149q-13 -67 -13 -86q0 -70 56 -103q29 -21 47 -32 q161 119 250 235q32 42 64 85.5t67.5 94t59.5 85.5t64.5 96t58 87t63.5 97t59 90q118 178 203 369q10 24 18 28q34 19 49 15q11 -5 22.5 -18t12.5 -23q2 -10 2 -33q0 -11 -0.5 -21.5t-3 -21.5t-3.5 -19t-5 -20.5t-5.5 -18t-7 -19t-6.5 -16.5t-7 -17.5t-7 -16.5 q-68 -174 -129 -436q-29 -122 -29 -263v-51q0 -280 99 -379q6 -6 30.5 -22.5t43 -33.5t18.5 -32q0 -20 -21 -20q-17 0 -69 35q-108 82 -161.5 248t-53.5 366q0 76 10 164q4 36 30 180q-6 -4 -14 -7.5t-12 -5.5t-6 -5q-32 -70 -114 -180t-107 -150q-87 -146 -244 -324 q-90 -106 -219 -188q-42 -25 -80 -25q-91 0 -144 121q-26 61 -26 137zM987 1862q13 3 43 50.5t62.5 92.5t52.5 45q11 0 29.5 -13.5t21.5 -23.5v-2q0 -19 -86 -88.5t-111 -69.5q-6 3 -12 9z" />
<glyph unicode="&#xc2;" horiz-adv-x="1386" d="M35 61q0 37 12 127q45 285 154 517q11 23 42.5 94.5t51.5 107.5q51 87 117 185q32 47 74 100.5t71 87t84.5 95t77.5 87.5q19 22 40.5 40.5t48.5 36t45 27.5t52.5 28t48.5 26q20 10 43 10q53 0 100.5 -42t55.5 -120q0 -2 -1 -9t-1 -11q-3 0 -9 -1.5t-8.5 -2t-3.5 1.5 q-14 61 -50 89t-81 28q-57 0 -94 -33q-123 -111 -176 -172q-242 -287 -356 -580q-35 -90 -74 -213q-3 -10 -11 -42.5t-12.5 -47.5t-16.5 -36.5t-28 -35.5q15 -18 15 -28q0 -17 -4 -31l-19 -80q-9 -39 -21.5 -111t-17.5 -96q-4 -24 -4 -32q0 -65 58 -99q29 -21 47 -32 q161 119 250 235q32 42 64 85.5t67.5 94t59.5 85.5t64.5 96t58 87t63.5 97t59 90q118 178 203 369q10 24 18 28q34 19 49 15q39 -16 39 -74q0 -21 -6.5 -48.5t-12 -44.5t-17 -46.5t-11.5 -30.5q-64 -160 -129 -436q-29 -122 -29 -263v-51q0 -280 99 -379q6 -6 30.5 -22.5 t43 -33.5t18.5 -32q0 -20 -21 -20q-17 0 -69 35q-108 82 -161.5 248t-53.5 366q0 76 10 164q4 36 30 180q-6 -4 -14 -7.5t-12 -5.5t-6 -5q-32 -70 -114 -180t-107 -150q-87 -146 -244 -324q-90 -106 -219 -188q-42 -25 -80 -25q-91 0 -144 121q-26 61 -26 137zM684 1935 l211 138l199 -134l-93 -24l-108 78l-135 -88z" />
<glyph unicode="&#xc3;" horiz-adv-x="1386" d="M35 61q0 37 12 127q45 285 154 517q11 23 42.5 94.5t51.5 107.5q51 87 117 185q32 47 74 100.5t71 87t84.5 95t77.5 87.5q19 22 40.5 40.5t48.5 36t45 27.5t52.5 28t48.5 26q20 10 43 10q53 0 100.5 -42t55.5 -120q0 -2 -1 -9t-1 -11q-3 0 -9 -1.5t-8.5 -2t-3.5 1.5 q-14 61 -50 89t-81 28q-57 0 -94 -33q-123 -111 -176 -172q-242 -287 -356 -580q-35 -90 -74 -213q-3 -10 -11 -42.5t-12.5 -47.5t-16.5 -36.5t-28 -35.5q15 -18 15 -28q0 -17 -4 -31l-19 -80q-9 -39 -21.5 -111t-17.5 -96q-4 -24 -4 -32q0 -65 58 -99q29 -21 47 -32 q161 119 250 235q32 42 64 85.5t67.5 94t59.5 85.5t64.5 96t58 87t63.5 97t59 90q118 178 203 369q10 24 18 28q34 19 49 15q39 -16 39 -74q0 -21 -6.5 -48.5t-12 -44.5t-17 -46.5t-11.5 -30.5q-64 -160 -129 -436q-29 -122 -29 -263v-51q0 -280 99 -379q6 -6 30.5 -22.5 t43 -33.5t18.5 -32q0 -20 -21 -20q-17 0 -69 35q-108 82 -161.5 248t-53.5 366q0 76 10 164q4 36 30 180q-6 -4 -14 -7.5t-12 -5.5t-6 -5q-32 -70 -114 -180t-107 -150q-87 -146 -244 -324q-90 -106 -219 -188q-42 -25 -80 -25q-91 0 -144 121q-26 61 -26 137zM672 1829 q27 31 43 47q70 70 106 70q8 0 15 -2t13.5 -6t11.5 -7.5t11 -10t9 -10t9 -11t7 -9.5t10 -13.5t15 -19t18 -19.5t22 -19.5t24 -13t28 -5.5q21 0 50.5 6t49.5 12l19 5q-14 -23 -70 -64t-90 -41q-13 0 -26 4.5t-22.5 11t-20 16t-15.5 16t-11.5 15t-7.5 9.5t-9 12t-15.5 19.5 t-18 19.5t-22.5 17t-23 6q-19 0 -41.5 -14.5t-35.5 -29.5l-13 -14h-4z" />
<glyph unicode="&#xc4;" horiz-adv-x="1386" d="M35 61q0 37 12 127q45 285 154 517q11 23 42.5 94.5t51.5 107.5q51 87 117 185q32 47 74 100.5t71 87t84.5 95t77.5 87.5q19 22 40.5 40.5t48.5 36t45 27.5t52.5 28t48.5 26q20 10 43 10q53 0 100.5 -42t55.5 -120q0 -2 -1 -9t-1 -11q-3 0 -9 -1.5t-8.5 -2t-3.5 1.5 q-14 61 -50 89t-81 28q-57 0 -94 -33q-123 -111 -176 -172q-242 -287 -356 -580q-35 -90 -74 -213q-3 -10 -11 -42.5t-12.5 -47.5t-16.5 -36.5t-28 -35.5q15 -18 15 -28q0 -17 -4 -31l-19 -80q-13 -53 -28 -149q-13 -67 -13 -86q0 -70 56 -103q29 -21 47 -32 q161 119 250 235q32 42 64 85.5t67.5 94t59.5 85.5t64.5 96t58 87t63.5 97t59 90q118 178 203 369q10 24 18 28q34 19 49 15q11 -5 22.5 -18t12.5 -23q2 -10 2 -33q0 -11 -0.5 -21.5t-3 -21.5t-3.5 -19t-5 -20.5t-5.5 -18t-7 -19t-6.5 -16.5t-7 -17.5t-7 -16.5 q-68 -174 -129 -436q-29 -122 -29 -263v-51q0 -280 99 -379q6 -6 30.5 -22.5t43 -33.5t18.5 -32q0 -20 -21 -20q-17 0 -69 35q-108 82 -161.5 248t-53.5 366q0 76 10 164q4 36 30 180q-6 -4 -14 -7.5t-12 -5.5t-6 -5q-32 -70 -114 -180t-107 -150q-87 -146 -244 -324 q-90 -106 -219 -188q-42 -25 -80 -25q-91 0 -144 121q-26 61 -26 137zM752 1806q0 44 18 74q15 18 47 18q47 0 68 -24q14 -17 14 -39q0 -30 -20 -58t-43 -34q-2 0 -6.5 -1t-6.5 -1q-26 0 -48.5 21t-22.5 44zM1055 1810q0 44 18 70q15 18 47 18q47 0 68 -24q14 -17 14 -39 q0 -30 -20 -58t-43 -34q-2 0 -6.5 -1t-6.5 -1q-27 0 -49 22.5t-22 46.5z" />
<glyph unicode="&#xc5;" horiz-adv-x="1386" d="M35 61q0 37 12 127q45 285 154 517q11 23 42.5 94.5t51.5 107.5q51 87 117 185q32 47 74 100.5t71 87t84.5 95t77.5 87.5q19 22 40.5 40.5t48.5 36t45 27.5t52.5 28t48.5 26q20 10 43 10q53 0 100.5 -42t55.5 -120q0 -2 -1 -9t-1 -11q-3 0 -9 -1.5t-8.5 -2t-3.5 1.5 q-14 61 -50 89t-81 28q-57 0 -94 -33q-123 -111 -176 -172q-242 -287 -356 -580q-35 -90 -74 -213q-3 -10 -11 -42.5t-12.5 -47.5t-16.5 -36.5t-28 -35.5q15 -18 15 -28q0 -17 -4 -31l-19 -80q-9 -39 -21.5 -111t-17.5 -96q-4 -24 -4 -32q0 -65 58 -99q29 -21 47 -32 q161 119 250 235q32 42 64 85.5t67.5 94t59.5 85.5t64.5 96t58 87t63.5 97t59 90q118 178 203 369q10 24 18 28q34 19 49 15q39 -16 39 -74q0 -21 -6.5 -48.5t-12 -44.5t-17 -46.5t-11.5 -30.5q-64 -160 -129 -436q-29 -122 -29 -263v-51q0 -280 99 -379q6 -6 30.5 -22.5 t43 -33.5t18.5 -32q0 -20 -21 -20q-17 0 -69 35q-108 82 -161.5 248t-53.5 366q0 76 10 164q4 36 30 180q-6 -4 -14 -7.5t-12 -5.5t-6 -5q-32 -70 -114 -180t-107 -150q-87 -146 -244 -324q-90 -106 -219 -188q-42 -25 -80 -25q-91 0 -144 121q-26 61 -26 137zM840 1776 q0 24 12 38t35 29q6 5 17.5 9t15.5 6q2 1 15 10.5t21 9.5q29 0 70 -29q43 -30 43 -59q0 -51 -35 -77.5t-80 -26.5q-46 0 -80 24t-34 66zM889 1782q0 -26 17.5 -44t51.5 -18q7 0 14 3t15.5 9t9.5 7q31 19 31 45q0 18 -19.5 35.5t-52.5 17.5q-34 0 -59 -25q-8 -8 -8 -30z" />
<glyph unicode="&#xc6;" horiz-adv-x="2017" d="M-76 -264q0 66 21 166q59 303 190 553q12 22 49 100.5t62 118.5q41 68 135 194q30 42 61 81.5t74.5 88t64 71t79 84t69.5 73.5q26 28 62.5 55t58 39t76 40t65.5 34q20 10 43 10q59 0 109.5 -45.5t54.5 -130.5q0 -7 -4 -23q-22 -6 -23 -4q-13 67 -50 97t-87 30 q-60 0 -102 -33q-144 -125 -197 -184q-273 -299 -411 -619q-46 -107 -88 -227q-6 -15 -15.5 -47t-16 -50.5t-20 -41.5t-30.5 -37q12 -14 12 -29q0 -10 -6 -34q-19 -60 -62 -246q-1 -4 -4.5 -28t-7.5 -36q-6 -21 -6 -43q0 -62 55 -100q14 -6 51 -35q183 136 281 252 q37 45 73.5 90.5t77.5 100.5t68 91t75.5 103.5t66.5 92.5t73.5 104.5t67.5 95.5q135 190 235 395q2 3 5.5 11t7.5 13t8 7q36 20 53 14q11 -3 22.5 -17.5t12.5 -27.5v-16q0 -76 -56 -199q-48 -110 -112 -313q74 69 186 149q64 46 64 113q0 203 67 346q256 529 574 557h12 q54 0 86.5 -33.5t32.5 -89.5t-29 -119q-71 -140 -207 -237q-2 -2 -121 -90q-94 -67 -219 -103q-41 -125 -41 -215l209 56q50 8 74 8q78 0 129 -43q41 -32 65.5 -84t24.5 -109q0 -50 -20 -94q-62 -127 -211 -127q-95 0 -194.5 48.5t-147.5 107.5q-8 10 -27.5 27t-26.5 24 q-8 -7 -21.5 -17.5t-23 -19t-16.5 -16.5q-22 -22 -119 -140q-14 -16 -25 -24.5t-16.5 -11t-23 -5.5t-27.5 -6q3 0 7.5 -26.5t4.5 -38.5q0 -29 -39.5 -85t-44.5 -69q-41 -93 -41 -211q0 -94 33 -198q45 -137 227 -228q155 -76 310 -76q159 0 280 82q66 44 113.5 110.5 t69.5 143.5q10 45 10 72q0 99 -74 154q-46 34 -104 34q-19 0 -27 -2q-36 -8 -63 -32.5t-33 -57.5q-4 -20 -4 -28q0 -28 20 -86q-9 -12 -26.5 -10t-26.5 14q-14 19 -14 57q3 89 57 148q58 61 137 61h6q76 0 154 -78q90 -93 90 -213q0 -110 -73 -193t-175 -135 q-162 -81 -342 -81q-45 0 -92 6q-122 14 -228.5 66t-183.5 132.5t-121.5 189.5t-44.5 230v15q0 23 1.5 46t5 49.5t6 43.5t7.5 48.5t7 45.5q13 82 27 154q1 5 4.5 42.5t9 68t12.5 34.5q-5 -3 -13.5 -6t-13 -5.5t-7.5 -6.5q-40 -74 -133.5 -191.5t-122.5 -161.5 q-88 -134 -279 -346q-115 -122 -242 -198q-46 -27 -88 -27q-98 0 -151 131q-21 54 -21 121zM1530 485q0 -36 20 -59q81 -87 211 -90q11 0 20 1l9 1q57 3 107 37t73 86q15 35 15 67q0 71 -62 115q-46 35 -108 35q-51 0 -103 -21q-36 -14 -123 -67q-28 -17 -43.5 -45.5 t-15.5 -59.5zM1616 934q10 -2 26 -2q30 0 66 18q15 7 31 15t28.5 15t29.5 18.5t27 18.5t28 21t25.5 20t27 23t24.5 21t26 23t25 22q59 50 119 164q27 52 27 94q0 35 -21 70q-15 24 -39 24q-18 0 -36 -10q-55 -24 -95 -66q-132 -144 -235 -329q-14 -25 -41.5 -78.5 t-42.5 -81.5z" />
<glyph unicode="&#xc7;" horiz-adv-x="1740" />
<glyph unicode="&#xc8;" horiz-adv-x="1224" d="M-47 328q0 160 74 299q33 61 88 122t104.5 101t120.5 92q59 42 59 105q0 28 4.5 87t4.5 91q0 10 -50 10q-74 0 -104 -6h-8q-130 0 -185 98q-24 43 -24 105q0 78 35 157t100.5 134t142.5 55h13q11 0 42 -17t31 -32q0 -7 -2 -9q-3 -3 -5.5 -5t-5.5 -1.5t-5 1t-5.5 2.5 t-4.5 3q-32 19 -58 19q-34 0 -73 -31q-88 -71 -88 -184q0 -74 39.5 -135.5t103.5 -79.5q7 -2 14.5 -6t15.5 -10t13 -9q21 -12 47 -12q22 0 41 8q18 32 23 43q25 67 61.5 138.5t90 148.5t112 137t132 98.5t146.5 38.5h13q48 0 78 -29.5t30 -78.5q0 -60 -27 -115 q-61 -128 -190 -221q-111 -83 -113 -84q-91 -64 -202 -94q-39 -119 -39 -199q176 47 194 51q35 6 66 6q76 0 123 -39q38 -32 61 -79.5t23 -98.5q0 -45 -21 -88q-56 -117 -194 -117q-89 0 -182.5 45t-135.5 99q-8 9 -25 24.5t-24 22.5q-8 -7 -28 -23.5t-29 -25.5 q-17 -19 -35.5 -40.5t-41 -48t-34.5 -40.5q-13 -16 -23 -24t-15 -10t-21.5 -4.5t-26.5 -4.5q3 0 7.5 -25t4.5 -37q0 -10 -8 -24.5t-21 -31t-16 -22.5q-48 -91 -75 -168q-21 -58 -21 -116q0 -79 34.5 -150t92.5 -123q190 -166 412 -166q8 0 75 5q109 11 179 53 q76 44 138 140.5t62 180.5q0 21 -2 31q-9 52 -51 93.5t-96 47.5h-12q-36 0 -70 -19.5t-45 -51.5q-8 -19 -8 -39q0 -10 2 -22t4.5 -20t7 -22t6.5 -20q-12 -9 -26.5 -7t-22.5 11q-14 14 -14 57q0 77 53 133q60 60 125 60q59 0 115 -43t89 -107t33 -125q0 -22 -6 -43 q-31 -121 -150.5 -211t-248.5 -108q-82 -10 -150 -10q-255 0 -385 125q-7 7 -28.5 26t-32 29t-27 26.5t-28.5 32t-23 31.5q-85 126 -92 231q-2 18 -2 58zM453 2138v2q4 10 23 21.5t30 11.5q16 0 38 -29.5t40.5 -65t38 -67.5t30.5 -35q-6 -6 -12 -6q-24 0 -106 73.5t-82 94.5 zM524 905q0 -31 19 -53q75 -81 196 -84q9 0 18 1l9 1q53 3 99.5 34.5t66.5 78.5q14 32 14 63q0 65 -57 107q-40 30 -98 30q-89 0 -211 -79q-26 -15 -41 -42.5t-15 -56.5zM604 1323q8 -2 25 -2q25 0 61 16q16 7 31 15t31 18.5t28 17.5t29.5 21t26 20.5t28 23t25.5 21.5 t27.5 24t25.5 22q58 51 111 151q24 50 24 88q0 34 -18 64q-15 24 -37 24q-12 0 -35 -10q-51 -23 -86 -61q-123 -132 -219 -306q-13 -23 -38.5 -72t-39.5 -75z" />
<glyph unicode="&#xc9;" horiz-adv-x="1224" d="M-47 328q0 160 74 299q33 61 88 122t104.5 101t120.5 92q59 42 59 105q0 28 4.5 87t4.5 91q0 10 -50 10q-74 0 -104 -6h-8q-130 0 -185 98q-24 43 -24 105q0 78 35 157t100.5 134t142.5 55h13q11 0 42 -17t31 -32q0 -7 -2 -9q-3 -3 -5.5 -5t-5.5 -1.5t-5 1t-5.5 2.5 t-4.5 3q-32 19 -58 19q-34 0 -73 -31q-88 -71 -88 -184q0 -74 39.5 -135.5t103.5 -79.5q7 -2 14.5 -6t15.5 -10t13 -9q21 -12 47 -12q22 0 41 8q18 32 23 43q25 67 61.5 138.5t90 148.5t112 137t132 98.5t146.5 38.5h13q48 0 78 -29.5t30 -78.5q0 -60 -27 -115 q-61 -128 -190 -221q-111 -83 -113 -84q-91 -64 -202 -94q-39 -119 -39 -199q176 47 194 51q35 6 66 6q76 0 123 -39q38 -32 61 -79.5t23 -98.5q0 -45 -21 -88q-56 -117 -194 -117q-89 0 -182.5 45t-135.5 99q-8 9 -25 24.5t-24 22.5q-8 -7 -28 -23.5t-29 -25.5 q-17 -19 -35.5 -40.5t-41 -48t-34.5 -40.5q-13 -16 -23 -24t-15 -10t-21.5 -4.5t-26.5 -4.5q3 0 7.5 -25t4.5 -37q0 -10 -8 -24.5t-21 -31t-16 -22.5q-48 -91 -75 -168q-21 -58 -21 -116q0 -79 34.5 -150t92.5 -123q190 -166 412 -166q8 0 75 5q109 11 179 53 q76 44 138 140.5t62 180.5q0 21 -2 31q-9 52 -51 93.5t-96 47.5h-12q-36 0 -70 -19.5t-45 -51.5q-8 -19 -8 -39q0 -10 2 -22t4.5 -20t7 -22t6.5 -20q-12 -9 -26.5 -7t-22.5 11q-14 14 -14 57q0 77 53 133q60 60 125 60q59 0 115 -43t89 -107t33 -125q0 -22 -6 -43 q-31 -121 -150.5 -211t-248.5 -108q-82 -10 -150 -10q-255 0 -385 125q-7 7 -28.5 26t-32 29t-27 26.5t-28.5 32t-23 31.5q-85 126 -92 231q-2 18 -2 58zM524 905q0 -31 19 -53q75 -81 196 -84q9 0 18 1l9 1q53 3 99.5 34.5t66.5 78.5q14 32 14 63q0 65 -57 107 q-40 30 -98 30q-84 0 -211 -79q-26 -15 -41 -42.5t-15 -56.5zM578 2066q11 3 32 33t41 64.5t44 63t40 28.5q11 0 29.5 -13.5t21.5 -23.5v-2q0 -19 -86 -88.5t-110 -69.5q-8 4 -12 8zM604 1323q8 -2 25 -2q25 0 61 16q16 7 31 15t31 18.5t28 17.5t29.5 21t26 20.5t28 23 t25.5 21.5t27.5 24t25.5 22q58 51 111 151q24 50 24 88q0 34 -18 64q-15 24 -37 24q-12 0 -35 -10q-51 -23 -86 -61q-123 -132 -219 -306q-13 -23 -38.5 -72t-39.5 -75z" />
<glyph unicode="&#xca;" horiz-adv-x="1224" d="M-47 328q0 160 74 299q33 61 88 122t104.5 101t120.5 92q59 42 59 105q0 28 4.5 87t4.5 91q0 10 -50 10q-74 0 -104 -6h-8q-130 0 -185 98q-24 43 -24 105q0 78 35 157t100.5 134t142.5 55h13q11 0 42 -17t31 -32q0 -7 -2 -9q-3 -3 -5.5 -5t-5.5 -1.5t-5 1t-5.5 2.5 t-4.5 3q-32 19 -58 19q-34 0 -73 -31q-88 -71 -88 -184q0 -74 39.5 -135.5t103.5 -79.5q7 -2 14.5 -6t15.5 -10t13 -9q21 -12 47 -12q22 0 41 8q18 32 23 43q25 67 61.5 138.5t90 148.5t112 137t132 98.5t146.5 38.5h13q48 0 78 -29.5t30 -78.5q0 -60 -27 -115 q-61 -128 -190 -221q-111 -83 -113 -84q-91 -64 -202 -94q-39 -119 -39 -199q176 47 194 51q35 6 66 6q76 0 123 -39q38 -32 61 -79.5t23 -98.5q0 -45 -21 -88q-56 -117 -194 -117q-89 0 -182.5 45t-135.5 99q-8 9 -25 24.5t-24 22.5q-8 -7 -28 -23.5t-29 -25.5 q-17 -19 -35.5 -40.5t-41 -48t-34.5 -40.5q-13 -16 -23 -24t-15 -10t-21.5 -4.5t-26.5 -4.5q3 0 7.5 -25t4.5 -37q0 -10 -8 -24.5t-21 -31t-16 -22.5q-48 -91 -75 -168q-21 -58 -21 -116q0 -79 34.5 -150t92.5 -123q190 -166 412 -166q8 0 75 5q109 11 179 53 q76 44 138 140.5t62 180.5q0 21 -2 31q-9 52 -51 93.5t-96 47.5h-12q-36 0 -70 -19.5t-45 -51.5q-8 -19 -8 -39q0 -10 2 -22t4.5 -20t7 -22t6.5 -20q-12 -9 -26.5 -7t-22.5 11q-14 14 -14 57q0 77 53 133q60 60 125 60q59 0 115 -43t89 -107t33 -125q0 -22 -6 -43 q-31 -121 -150.5 -211t-248.5 -108q-82 -10 -150 -10q-255 0 -385 125q-7 7 -28.5 26t-32 29t-27 26.5t-28.5 32t-23 31.5q-85 126 -92 231q-2 18 -2 58zM524 905q0 -31 19 -53q75 -81 196 -84q9 0 18 1l9 1q53 3 99.5 34.5t66.5 78.5q14 32 14 63q0 65 -57 107 q-40 30 -98 30q-89 0 -211 -79q-26 -15 -41 -42.5t-15 -56.5zM604 1323q8 -2 25 -2q25 0 61 16q16 7 31 15t31 18.5t28 17.5t29.5 21t26 20.5t28 23t25.5 21.5t27.5 24t25.5 22q58 51 111 151q24 50 24 88q0 34 -18 64q-15 24 -37 24q-12 0 -35 -10q-51 -23 -86 -61 q-123 -132 -219 -306q-13 -23 -38.5 -72t-39.5 -75zM840 2021q0 38 47 68q6 5 17.5 8.5t15.5 5.5q3 1 15.5 11t20.5 10q29 0 70 -29q43 -30 43 -59q0 -51 -35 -78t-80 -27q-46 0 -80 24t-34 66zM889 2028q0 -26 17.5 -44t51.5 -18q7 0 14 3t15.5 9t9.5 7q31 19 31 45 q0 18 -19.5 35.5t-52.5 17.5q-34 0 -59 -25q-8 -8 -8 -30z" />
<glyph unicode="&#xcb;" horiz-adv-x="1224" d="M-47 328q0 160 74 299q33 61 88 122t104.5 101t120.5 92q59 42 59 105q0 28 4.5 87t4.5 91q0 10 -50 10q-74 0 -104 -6h-8q-130 0 -185 98q-24 43 -24 105q0 78 35 157t100.5 134t142.5 55h13q11 0 42 -17t31 -32q0 -7 -2 -9q-3 -3 -5.5 -5t-5.5 -1.5t-5 1t-5.5 2.5 t-4.5 3q-32 19 -58 19q-34 0 -73 -31q-88 -71 -88 -184q0 -74 39.5 -135.5t103.5 -79.5q7 -2 14.5 -6t15.5 -10t13 -9q21 -12 47 -12q22 0 41 8q18 32 23 43q25 67 61.5 138.5t90 148.5t112 137t132 98.5t146.5 38.5h13q48 0 78 -29.5t30 -78.5q0 -60 -27 -115 q-61 -128 -190 -221q-111 -83 -113 -84q-91 -64 -202 -94q-39 -119 -39 -199q176 47 194 51q35 6 66 6q76 0 123 -39q38 -32 61 -79.5t23 -98.5q0 -45 -21 -88q-56 -117 -194 -117q-89 0 -182.5 45t-135.5 99q-8 9 -25 24.5t-24 22.5q-8 -7 -28 -23.5t-29 -25.5 q-17 -19 -35.5 -40.5t-41 -48t-34.5 -40.5q-13 -16 -23 -24t-15 -10t-21.5 -4.5t-26.5 -4.5q3 0 7.5 -25t4.5 -37q0 -10 -8 -24.5t-21 -31t-16 -22.5q-48 -91 -75 -168q-21 -58 -21 -116q0 -79 34.5 -150t92.5 -123q190 -166 412 -166q8 0 75 5q109 11 179 53 q76 44 138 140.5t62 180.5q0 21 -2 31q-9 52 -51 93.5t-96 47.5h-12q-36 0 -70 -19.5t-45 -51.5q-8 -19 -8 -39q0 -10 2 -22t4.5 -20t7 -22t6.5 -20q-12 -9 -26.5 -7t-22.5 11q-14 14 -14 57q0 77 53 133q60 60 125 60q59 0 115 -43t89 -107t33 -125q0 -22 -6 -43 q-31 -121 -150.5 -211t-248.5 -108q-82 -10 -150 -10q-255 0 -385 125q-7 7 -28.5 26t-32 29t-27 26.5t-28.5 32t-23 31.5q-85 126 -92 231q-2 18 -2 58zM444 2052q0 43 19 74q15 18 47 18q47 0 68 -24q14 -17 14 -39q0 -30 -20.5 -58t-43.5 -34q-2 0 -6 -1t-6 -1 q-26 0 -49 21t-23 44zM524 905q0 -31 19 -53q75 -81 196 -84q9 0 18 1l9 1q53 3 99.5 34.5t66.5 78.5q14 32 14 63q0 65 -57 107q-40 30 -98 30q-84 0 -211 -79q-26 -15 -41 -42.5t-15 -56.5zM604 1323q8 -2 25 -2q25 0 61 16q16 7 31 15t31 18.5t28 17.5t29.5 21t26 20.5 t28 23t25.5 21.5t27.5 24t25.5 22q58 51 111 151q24 50 24 88q0 34 -18 64q-15 24 -37 24q-12 0 -35 -10q-51 -23 -86 -61q-123 -132 -219 -306q-13 -23 -38.5 -72t-39.5 -75zM748 2056q0 44 18 70q15 18 47 18q47 0 68 -24q14 -17 14 -39q0 -30 -20.5 -58t-43.5 -34 q-2 0 -6 -1t-6 -1q-27 0 -49 22.5t-22 46.5z" />
<glyph unicode="&#xcc;" horiz-adv-x="1456" d="M72 281q0 117 42 230.5t115 203.5q150 186 334 205q12 2 37 2q97 0 166 -54q47 -35 85 -110t38 -150q0 -63 -33 -116q-44 -68 -115 -68q-16 0 -24 2q-31 7 -45 27q-6 10 -3 24.5t13 18.5q3 4 19.5 2.5t21.5 -0.5q30 0 55 47q39 76 39 127v12q0 90 -115 162 q-57 33 -102 33h-14q-22 0 -45.5 -12t-38 -24.5t-35.5 -33.5q-144 -144 -213 -377q-4 -12 -7 -17.5t-4.5 -7t-9.5 -5.5l-14 -7q-12 -6 -12 -14t11.5 -23t12.5 -18q1 -10 -3.5 -31.5t-4.5 -23.5q-9 -56 -12 -113q-4 -54 -4 -82q0 -94 37 -151q30 -51 102 -86q109 -56 232 -56 q85 0 170 29q185 68 296 307q148 324 170 379q95 238 203 616q-20 -4 -58 -13t-56 -11q-12 -2 -39 -2q-115 0 -170 63q-37 40 -37 97q0 46 26 104q13 26 32 51.5t47 56.5t40 46q46 56 140 162t135 155q14 19 42.5 55t43.5 54q7 9 24.5 39.5t34 45.5t39.5 15q12 0 27 -6 q18 -7 28 -17q13 -13 13 -43q0 -27 -12.5 -80.5t-12.5 -54.5q-7 -40 -17.5 -112t-20.5 -130.5t-21 -109.5q-15 -78 -19 -92q-1 -3 -4 -14.5t-6 -16.5q-2 -3 -13 -7t-14 -11q-2 -9 -2 -12t2.5 -10t3.5 -11q0 -19 -3.5 -40t-7.5 -34.5t-12 -36.5t-11 -34q-97 -314 -213 -623 q-111 -300 -306 -553q-186 -237 -436 -256q-12 -2 -39 -2q-122 0 -228 60t-175 169q-90 140 -90 312zM1182 1300q0 -67 59 -143q4 -7 17 -12.5t22 -3.5q71 8 116.5 38t61.5 95q14 48 17 63q37 178 65 334q2 10 6.5 34.5t7 42t2.5 34.5q0 18 -2 28q-6 2 -18 2 q-6 0 -11.5 -1.5t-9.5 -3t-9 -5.5t-7 -5.5t-7.5 -7.5t-6.5 -7q-20 -23 -81 -95t-95 -110q-16 -17 -29.5 -36.5t-26 -45t-19.5 -40t-20.5 -47.5t-17.5 -42q-14 -32 -14 -66zM1313 2384v2q4 10 23 21.5t30 11.5q16 0 38 -29.5t40.5 -65t38 -67.5t30.5 -35q-6 -6 -12 -6 q-24 0 -106 73.5t-82 94.5z" />
<glyph unicode="&#xcd;" horiz-adv-x="1456" d="M72 281q0 117 42 230.5t115 203.5q150 186 334 205q12 2 37 2q97 0 166 -54q47 -35 85 -110t38 -150q0 -66 -33 -116q-44 -68 -115 -68q-16 0 -24 2q-31 7 -45 27q-6 10 -3 24.5t13 18.5q3 4 19.5 2.5t21.5 -0.5q30 0 55 47q39 76 39 127v12q0 90 -115 162 q-57 33 -102 33h-14q-22 0 -45.5 -12t-38 -24.5t-35.5 -33.5q-144 -144 -213 -377q-4 -12 -7 -17.5t-4.5 -7t-9.5 -5.5l-14 -7q-12 -6 -12 -14t11.5 -22.5t12.5 -18.5q1 -10 -3.5 -31.5t-4.5 -23.5q-9 -56 -12 -113q-4 -54 -4 -82q0 -94 37 -151q30 -51 102 -86 q109 -56 232 -56q85 0 170 29q185 68 296 307q148 324 170 379q95 238 203 616q-20 -4 -58 -13t-56 -11q-12 -2 -39 -2q-115 0 -170 63q-37 40 -37 97q0 46 26 104q13 26 32 51.5t47 56.5t40 46q46 56 140 162t135 155q14 19 42.5 55t43.5 54q7 9 24.5 39.5t34 45.5t39.5 15 q12 0 27 -6q18 -7 28 -17q13 -13 13 -43q0 -27 -12.5 -80.5t-12.5 -54.5q-7 -40 -17.5 -112t-20.5 -130.5t-21 -109.5q-15 -78 -19 -92q-1 -3 -4 -14.5t-6 -16.5q-2 -3 -13 -7t-14 -11q-2 -9 -2 -12t2.5 -10t3.5 -11q0 -5 1 -13t0.5 -14t-3.5 -14q-84 -291 -245 -727 q-111 -300 -306 -553q-186 -237 -436 -256q-12 -2 -39 -2q-122 0 -228 60t-175 169q-90 140 -90 312zM1182 1300q0 -67 59 -143q4 -7 17 -12.5t22 -3.5q71 8 116.5 38t61.5 95q14 48 17 63q37 178 65 334q2 10 6.5 34.5t7 42t2.5 34.5q0 18 -2 28q-6 2 -18 2 q-6 0 -11.5 -1.5t-9.5 -3t-9 -5.5t-7 -5.5t-7.5 -7.5t-6.5 -7q-20 -23 -81 -95t-95 -110q-16 -17 -29.5 -36.5t-26 -45t-19.5 -40t-20.5 -47.5t-17.5 -42q-14 -32 -14 -66zM1397 2107q11 3 32 33t41 64.5t44 63t40 28.5q12 0 30.5 -14t21.5 -23v-2q0 -19 -86 -88.5 t-111 -69.5q-8 4 -12 8z" />
<glyph unicode="&#xce;" horiz-adv-x="1456" d="M72 281q0 117 42 230.5t115 203.5q150 186 334 205q12 2 37 2q97 0 166 -54q47 -35 85 -110t38 -150q0 -63 -33 -116q-44 -68 -115 -68q-16 0 -24 2q-31 7 -45 27q-6 10 -3 24.5t13 18.5q3 4 19.5 2.5t21.5 -0.5q30 0 55 47q39 76 39 127v12q0 90 -115 162 q-57 33 -102 33h-14q-22 0 -45.5 -12t-38 -24.5t-35.5 -33.5q-144 -144 -213 -377q-4 -12 -7 -17.5t-4.5 -7t-9.5 -5.5l-14 -7q-12 -6 -12 -14t11.5 -23t12.5 -18q1 -10 -3.5 -31.5t-4.5 -23.5q-9 -56 -12 -113q-4 -54 -4 -82q0 -94 37 -151q30 -51 102 -86q109 -56 232 -56 q85 0 170 29q185 68 296 307q148 324 170 379q95 238 203 616q-20 -4 -58 -13t-56 -11q-12 -2 -39 -2q-115 0 -170 63q-37 40 -37 97q0 46 26 104q13 26 32 51.5t47 56.5t40 46q46 56 140 162t135 155q14 19 42.5 55t43.5 54q7 9 24.5 39.5t34 45.5t39.5 15q12 0 27 -6 q18 -7 28 -17q13 -13 13 -43q0 -27 -12.5 -80.5t-12.5 -54.5q-7 -40 -17.5 -112t-20.5 -130.5t-21 -109.5q-15 -78 -19 -92q-1 -3 -4 -14.5t-6 -16.5q-2 -3 -13 -7t-14 -11q-2 -9 -2 -12t2.5 -10t3.5 -11q0 -19 -3.5 -40t-7.5 -34.5t-12 -36.5t-11 -34q-97 -314 -213 -623 q-111 -300 -306 -553q-186 -237 -436 -256q-12 -2 -39 -2q-122 0 -228 60t-175 169q-90 140 -90 312zM1182 1300q0 -67 59 -143q4 -7 17 -12.5t22 -3.5q71 8 116.5 38t61.5 95q14 48 17 63q37 178 65 334q2 10 6.5 34.5t7 42t2.5 34.5q0 18 -2 28q-6 2 -18 2 q-6 0 -11.5 -1.5t-9.5 -3t-9 -5.5t-7 -5.5t-7.5 -7.5t-6.5 -7q-20 -23 -81 -95t-95 -110q-16 -17 -29.5 -36.5t-26 -45t-19.5 -40t-20.5 -47.5t-17.5 -42q-14 -32 -14 -66zM1319 2243l211 137l199 -133l-93 -25l-108 78l-135 -88z" />
<glyph unicode="&#xcf;" horiz-adv-x="1456" d="M72 281q0 117 42 230.5t115 203.5q150 186 334 205q12 2 37 2q97 0 166 -54q47 -35 85 -110t38 -150q0 -66 -33 -116q-44 -68 -115 -68q-16 0 -24 2q-31 7 -45 27q-6 10 -3 24.5t13 18.5q3 4 19.5 2.5t21.5 -0.5q30 0 55 47q39 76 39 127v12q0 90 -115 162 q-57 33 -102 33h-14q-22 0 -45.5 -12t-38 -24.5t-35.5 -33.5q-144 -144 -213 -377q-4 -12 -7 -17.5t-4.5 -7t-9.5 -5.5l-14 -7q-12 -6 -12 -14t11.5 -22.5t12.5 -18.5q1 -10 -3.5 -31.5t-4.5 -23.5q-9 -56 -12 -113q-4 -54 -4 -82q0 -94 37 -151q30 -51 102 -86 q109 -56 232 -56q85 0 170 29q185 68 296 307q148 324 170 379q95 238 203 616q-20 -4 -58 -13t-56 -11q-12 -2 -39 -2q-115 0 -170 63q-37 40 -37 97q0 46 26 104q13 26 32 51.5t47 56.5t40 46q46 56 140 162t135 155q14 19 42.5 55t43.5 54q7 9 24.5 39.5t34 45.5t39.5 15 q12 0 27 -6q18 -7 28 -17q13 -13 13 -43q0 -27 -12.5 -80.5t-12.5 -54.5q-7 -40 -17.5 -112t-20.5 -130.5t-21 -109.5q-15 -78 -19 -92q-1 -3 -4 -14.5t-6 -16.5q-2 -3 -13 -7t-14 -11q-2 -9 -2 -12t2.5 -10t3.5 -11q0 -5 1 -13t0.5 -14t-3.5 -14q-84 -291 -245 -727 q-111 -300 -306 -553q-186 -237 -436 -256q-12 -2 -39 -2q-122 0 -228 60t-175 169q-90 140 -90 312zM1182 1300q0 -67 59 -143q4 -7 17 -12.5t22 -3.5q71 8 116.5 38t61.5 95q14 48 17 63q37 178 65 334q2 10 6.5 34.5t7 42t2.5 34.5q0 18 -2 28q-6 2 -18 2 q-6 0 -11.5 -1.5t-9.5 -3t-9 -5.5t-7 -5.5t-7.5 -7.5t-6.5 -7q-20 -23 -81 -95t-95 -110q-16 -17 -29.5 -36.5t-26 -45t-19.5 -40t-20.5 -47.5t-17.5 -42q-14 -32 -14 -66zM1305 2277q0 44 18 74q16 19 47 19q47 0 68 -25q14 -17 14 -39q0 -30 -20 -58t-43 -34q-2 0 -6.5 -1 t-6.5 -1q-26 0 -48.5 21t-22.5 44zM1608 2281q0 44 18 70q16 19 47 19q47 0 68 -25q14 -17 14 -39q0 -30 -20 -58t-43 -34q-2 0 -6.5 -1t-6.5 -1q-27 0 -49 22.5t-22 46.5z" />
<glyph unicode="&#xd1;" horiz-adv-x="1734" d="M-221 -319q2 0 2 2q10 15 27.5 21t47 8.5t38.5 4.5q33 6 64 28t48.5 42.5t44.5 56.5q169 236 304 514.5t266 620.5q31 82 65 186q14 47 14 76q0 39 -16 82q-29 83 -29 178q0 37 2 55q4 38 11 56q15 46 39 64t71 18q42 0 103 -11q41 -8 41 -81q0 -46 -16.5 -118 t-35 -127.5t-38.5 -113t-21 -59.5q-12 -27 -12 -58q0 -30 10 -53q28 -71 52 -149t52 -185.5t41 -152.5q6 -22 31 -94.5t33 -112.5q18 -94 68.5 -263t66.5 -239q2 -6 8 -23t10 -32q5 9 11 18.5t9.5 15.5t4.5 11q22 131 27 178q21 172 47 242q25 69 66 187.5t69.5 200.5 t73 200t82 204t92 193.5t106.5 188t121.5 168.5t142 153.5t162.5 124t189 98.5q62 25 141 35q10 2 33 2q89 0 153.5 -64t91.5 -159q13 -47 13 -86q0 -159 -133 -303q-20 -20 -39 -31q-34 -17 -64 -17q-49 0 -85 35.5t-36 93.5q0 4 2.5 13.5t2.5 13.5q2 1 5 4.5t5.5 5.5 t5.5 2q42 11 51 11q13 0 18 -7.5t5 -25.5q0 -25 -2 -41q-1 -3 2 -23q5 1 16 0.5t20 0.5t15 5q72 44 112.5 117t40.5 156q0 89 -47 166q-43 71 -114 71q-43 0 -93 -24q-430 -202 -628 -578q-235 -448 -477 -1169q-33 -96 -70 -283.5t-43 -214.5q-17 -77 -88 -135 q-13 6 -17.5 15.5t-3 18t-0.5 17.5q-2 14 -10 47l-141 510q-12 44 -83.5 314.5t-115.5 412.5q-6 17 -19 46.5t-18 41.5q-25 -9 -37 -26t-24 -47q-22 -48 -139.5 -327.5t-194.5 -420.5q-32 -58 -66 -113t-91 -132.5t-112 -133t-124.5 -95.5t-132.5 -40q-42 0 -80 17z M696 1511q0 -25 5 -50.5t15.5 -61.5t14.5 -56q5 4 10 8.5t7.5 6.5t4.5 4t3 4q33 141 35 238q0 8 -9 18.5t-18 13.5q-14 7 -26 -0.5t-17 -21.5q-25 -69 -25 -103zM1081 1911q27 31 43 47q70 70 107 70q8 0 15 -2t13.5 -6t11.5 -7.5t11 -10t9 -10t9 -11t7 -9.5l12 -16 q12 -16 20 -25t22.5 -22.5t30 -20t31.5 -6.5q21 0 50.5 6t48.5 12l20 5q-14 -23 -70 -64t-90 -41q-13 0 -26 4.5t-22.5 11t-19.5 16t-15.5 16t-11.5 15t-7 9.5t-9 12t-15.5 19.5t-18 19.5t-22.5 17t-23 6q-19 0 -41.5 -14.5t-35.5 -29.5l-13 -14h-4z" />
<glyph unicode="&#xd2;" horiz-adv-x="1304" d="M2 397q0 75 6 142q17 161 77 329.5t157 322t241.5 271.5t311.5 164q18 6 32 6q24 0 39 -14t15 -41q0 -17 -17 -27q-9 0 -14.5 3.5t-11 11.5t-7.5 10q-18 18 -47 18q-19 0 -34 -6q-13 -4 -27 -10t-30 -16.5t-25 -16.5t-28 -19.5t-24 -17.5q-112 -77 -202 -207t-143 -275.5 t-81 -290.5t-28 -271v-127q0 -140 22.5 -231.5t98.5 -165.5q48 -45 135 -45q106 0 235.5 56.5t200.5 129.5q153 153 269 406.5t116 455.5q0 42 -6 80q-17 112 -72 178q-63 72 -149 72q-80 0 -157 -56.5t-118 -146.5q-57 -128 -57 -233q0 -25 2 -37q4 -41 25 -80t55 -39 q23 0 47 18q-12 -32 -44 -52.5t-67 -20.5q-3 0 -8.5 1t-7.5 1q-68 14 -104 88q-35 63 -35 151q0 102 45 191q41 83 112.5 150t159.5 106q82 37 158 37q5 0 14.5 -1t14.5 -1q67 -9 120.5 -51.5t87.5 -106.5q60 -111 60 -256q0 -140 -49 -289q-40 -127 -138.5 -298 t-191.5 -271q-119 -127 -268 -216t-285 -89q-95 0 -168 47q-77 47 -126.5 145.5t-68 205.5t-18.5 228zM657 1954v2q4 10 23.5 21.5t30.5 11.5q16 0 38 -29.5t40.5 -65t38 -67.5t30.5 -35q-6 -6 -12 -6q-24 0 -106.5 73.5t-82.5 94.5z" />
<glyph unicode="&#xd3;" horiz-adv-x="1304" d="M2 397q0 75 6 142q17 161 77 329.5t157 322t241.5 271.5t311.5 164q18 6 32 6q24 0 39 -14t15 -41q0 -17 -17 -27q-9 0 -14.5 3.5t-11 11.5t-7.5 10q-18 18 -47 18q-19 0 -34 -6q-13 -4 -27 -10t-30 -16.5t-25 -16.5t-28 -19.5t-24 -17.5q-112 -77 -202 -207t-143 -275.5 t-81 -290.5t-28 -271v-127q0 -140 22.5 -231.5t98.5 -165.5q48 -45 135 -45q106 0 235.5 56.5t200.5 129.5q153 153 269 406.5t116 455.5q0 42 -6 80q-17 112 -72 178q-63 72 -149 72q-80 0 -157 -56.5t-118 -146.5q-57 -128 -57 -233q0 -25 2 -37q4 -41 25 -80t55 -39 q23 0 47 18q-12 -32 -44 -52.5t-67 -20.5q-3 0 -8.5 1t-7.5 1q-68 14 -104 88q-35 63 -35 151q0 102 45 191q41 83 112.5 150t159.5 106q82 37 158 37q5 0 14.5 -1t14.5 -1q67 -9 120.5 -51.5t87.5 -106.5q60 -111 60 -256q0 -140 -49 -289q-40 -127 -138.5 -298 t-191.5 -271q-119 -127 -268 -216t-285 -89q-95 0 -168 47q-77 47 -126.5 145.5t-68 205.5t-18.5 228zM885 1903q13 3 43 50.5t62 92.5t52 45q12 0 30.5 -14t21.5 -23v-2q0 -19 -86 -88.5t-111 -69.5q-6 3 -12 9z" />
<glyph unicode="&#xd4;" horiz-adv-x="1304" d="M2 397q0 75 6 142q17 161 77 329.5t157 322t241.5 271.5t311.5 164q18 6 32 6q24 0 39 -14t15 -41q0 -17 -17 -27q-9 0 -14.5 3.5t-11 11.5t-7.5 10q-18 18 -47 18q-19 0 -34 -6q-13 -4 -27 -10t-30 -16.5t-25 -16.5t-28 -19.5t-24 -17.5q-112 -77 -202 -206.5t-143 -275 t-81 -290.5t-28 -272v-127q0 -140 22.5 -231.5t98.5 -165.5q48 -45 135 -45q106 0 235.5 56.5t200.5 129.5q153 153 269 406.5t116 455.5q0 42 -6 80q-17 112 -72 178q-63 72 -149 72q-80 0 -157 -56.5t-118 -146.5q-57 -128 -57 -233q0 -25 2 -37q4 -41 25 -80t55 -39 q23 0 47 18q-12 -32 -44 -52.5t-67 -20.5q-3 0 -8.5 1t-7.5 1q-68 14 -104 88q-35 63 -35 151q0 102 45 191q41 83 112.5 150t159.5 106q82 37 158 37q5 0 14.5 -1t14.5 -1q67 -9 120.5 -51.5t87.5 -106.5q60 -111 60 -256q0 -140 -49 -289q-40 -127 -138.5 -298 t-191.5 -271q-119 -127 -268 -216t-285 -89q-95 0 -168 47q-77 47 -126.5 145.5t-68 205.5t-18.5 228zM676 1776q0 24 12 38t35 29q6 5 18 9t15 6q2 1 15.5 10.5t21.5 9.5q28 0 69 -29q43 -30 43 -59q0 -51 -34.5 -77.5t-79.5 -26.5q-46 0 -80.5 24t-34.5 66zM725 1782 q0 -26 18 -44t52 -18q7 0 14 3t15.5 9t9.5 7q30 18 30 45q0 18 -19 35.5t-52 17.5q-35 0 -60 -25q-8 -8 -8 -30z" />
<glyph unicode="&#xd5;" horiz-adv-x="1304" d="M2 397q0 75 6 142q17 161 77 329.5t157 322t241.5 271.5t311.5 164q18 6 32 6q24 0 39 -14t15 -41q0 -17 -17 -27q-9 0 -14.5 3.5t-11 11.5t-7.5 10q-18 18 -47 18q-19 0 -34 -6q-13 -4 -27 -10t-30 -16.5t-25 -16.5t-28 -19.5t-24 -17.5q-112 -77 -202 -207t-143 -275.5 t-81 -290.5t-28 -271v-127q0 -140 22.5 -231.5t98.5 -165.5q48 -45 135 -45q106 0 235.5 56.5t200.5 129.5q153 153 269 406.5t116 455.5q0 42 -6 80q-17 112 -72 178q-63 72 -149 72q-80 0 -157 -56.5t-118 -146.5q-57 -128 -57 -233q0 -25 2 -37q4 -41 25 -80t55 -39 q23 0 47 18q-12 -32 -44 -52.5t-67 -20.5q-3 0 -8.5 1t-7.5 1q-68 14 -104 88q-35 63 -35 151q0 102 45 191q41 83 112.5 150t159.5 106q82 37 158 37q5 0 14.5 -1t14.5 -1q67 -9 120.5 -51.5t87.5 -106.5q60 -111 60 -256q0 -140 -49 -289q-40 -127 -138.5 -298 t-191.5 -271q-119 -127 -268 -216t-285 -89q-95 0 -168 47q-77 47 -126.5 145.5t-68 205.5t-18.5 228zM672 1829q27 31 43 47q70 70 106 70q8 0 15 -2t13.5 -6t11.5 -7.5t11 -10t9 -10t9 -11t7 -9.5t10 -13.5t15 -19t18 -19.5t22 -19.5t24 -13t28 -5.5q21 0 50.5 6t49.5 12 l19 5q-14 -23 -70 -64t-90 -41q-13 0 -26 4.5t-22.5 11t-20 16t-15.5 16t-11.5 15t-7.5 9.5t-9 12t-15.5 19.5t-18 19.5t-22.5 17t-23 6q-19 0 -41.5 -14.5t-35.5 -29.5l-13 -14h-4z" />
<glyph unicode="&#xd6;" horiz-adv-x="1304" d="M2 397q0 75 6 142q17 161 77 329.5t157 322t241.5 271.5t311.5 164q18 6 32 6q24 0 39 -14t15 -41q0 -17 -17 -27q-9 0 -14.5 3.5t-11 11.5t-7.5 10q-18 18 -47 18q-19 0 -34 -6q-13 -4 -27 -10t-30 -16.5t-25 -16.5t-28 -19.5t-24 -17.5q-112 -77 -202 -207t-143 -275.5 t-81 -290.5t-28 -271v-127q0 -140 22.5 -231.5t98.5 -165.5q48 -45 135 -45q106 0 235.5 56.5t200.5 129.5q153 153 269 406.5t116 455.5q0 42 -6 80q-17 112 -72 178q-63 72 -149 72q-80 0 -157 -56.5t-118 -146.5q-57 -128 -57 -233q0 -25 2 -37q4 -41 25 -80t55 -39 q23 0 47 18q-12 -32 -44 -52.5t-67 -20.5q-3 0 -8.5 1t-7.5 1q-68 14 -104 88q-35 63 -35 151q0 102 45 191q41 83 112.5 150t159.5 106q82 37 158 37q5 0 14.5 -1t14.5 -1q67 -9 120.5 -51.5t87.5 -106.5q60 -111 60 -256q0 -140 -49 -289q-40 -127 -138.5 -298 t-191.5 -271q-119 -127 -268 -216t-285 -89q-95 0 -168 47q-77 47 -126.5 145.5t-68 205.5t-18.5 228zM608 1806q0 43 19 74q15 18 47 18q46 0 67 -24q15 -18 15 -39q0 -30 -20.5 -58t-43.5 -34q-2 0 -6 -1t-6 -1q-26 0 -49 21t-23 44zM911 1810q0 43 19 70q15 18 47 18 q46 0 67 -24q15 -18 15 -39q0 -30 -20.5 -58t-43.5 -34q-2 0 -6 -1t-6 -1q-27 0 -49.5 22.5t-22.5 46.5z" />
<glyph unicode="&#xd7;" />
<glyph unicode="&#xd8;" horiz-adv-x="1642" d="M49 88q0 68 10 150q54 373 251 677.5t474 440.5q54 24 78 24q3 0 8.5 -1t8.5 -1q26 -3 45 -23t22 -50q-30 6 -59 6q-85 0 -169 -48t-151 -128q-70 -83 -123.5 -190.5t-105.5 -248.5q-72 -199 -113 -374t-41 -347q0 -61 6 -122q5 -46 16 -89t30 -85t49 -68.5t67 -28.5 q30 -3 37 31q52 145 302 850.5t384 1082.5q31 87 58 127q44 58 92 58h10q16 -2 30 -13.5t17 -29.5q3 -27 -12 -56q-35 -82 -105.5 -245.5t-105.5 -245.5q27 12 55 12q57 0 111 -41q64 -46 123 -156q84 -157 84 -301q0 -46 -13 -96q-12 -46 -12 -65q0 -11 4 -27 q14 -37 59 -37q29 0 63.5 14.5t55.5 30.5q14 13 27 29t28.5 37t24.5 32q7 7 8 7q4 1 8.5 -3.5t6.5 -9.5q2 -4 2 -14q0 -26 -23 -57q-82 -119 -239 -123q-30 0 -43 -11q-14 -10 -27 -49q-50 -149 -139.5 -274.5t-225.5 -271.5q-63 -68 -115 -116.5t-117.5 -96.5t-133.5 -73.5 t-135 -25.5h-21q-33 4 -47 -6q-13 -11 -25 -43q-16 -41 -43 -117t-32 -88q-13 -38 -33 -55q-15 -12 -25 -12q-18 0 -18 35q0 26 10 61q68 188 84 240q1 4 -4 36q-99 38 -167 131t-97 206.5t-29 244.5zM461 -465q23 -18 53 -18l39 4q208 20 410 307q168 235 282 549 q4 10 4 33q-17 17 -55.5 54.5t-67 66.5t-53.5 57q-79 97 -98 276q-6 -10 -19 -26t-16 -25q-46 -109 -211 -508q-3 -8 -8 -26.5t-8 -26.5q-60 -176 -246 -676q-6 -12 -6 -41zM1022 911q0 -116 119 -282q33 -47 63.5 -77t73.5 -42q47 84 47 195q0 60 -16 126q-8 36 -21 74 t-33 81t-48.5 70t-59.5 27q-29 0 -57 -22q-43 -34 -56 -76q-12 -37 -12 -74z" />
<glyph unicode="&#xd9;" horiz-adv-x="1957" d="M-61 967q0 51 34 92.5t84 50.5q31 5 31 -12q-2 -1 -11.5 -6.5t-12 -7.5t-10.5 -7t-12 -8t-10 -8t-10 -10t-8 -11q-16 -26 -16 -53q0 -31 17 -57.5t44 -36.5q21 -8 47 -8q34 0 73.5 19.5t64.5 40.5t65 58t53 48q89 74 139.5 118t122.5 113t126 131q5 6 26.5 31t32.5 36.5 t30 30t37 30.5t37 20q19 7 35 2q23 -10 23 -45q0 -24 -15 -64q-28 -66 -55.5 -143.5t-59 -170.5t-50.5 -145q-85 -233 -127 -393q-5 -19 -36 -132.5t-51 -196t-26 -134.5q-10 -82 -10 -149q0 -40 2 -60q9 -124 61 -155q27 -15 58 -15q78 0 176 72q39 27 82 69.5t63.5 66.5 t67.5 81q77 92 242 336.5t173 255.5q58 81 139 243t192.5 411t115.5 257q29 61 112 68q1 0 2.5 -1t4 -2.5t4.5 -2.5q6 -6 6 -15q0 -8 -4 -18t-12 -23l-7 -14q-92 -192 -200.5 -465t-124.5 -401q-32 -84 -51 -250t-19 -303q0 -40 4 -90q2 -18 6.5 -83.5t7 -93.5t12 -83.5 t21 -87t32 -68t48.5 -61.5q51 -46 119.5 -70.5t138.5 -24.5q118 0 191 58q116 89 116 229v12q0 25 -18 44.5t-41 19.5q-24 0 -41 -25q-17 -34 -29 -34q-7 0 -12 16q-9 25 19 53q28 31 73 31q9 0 29 -4q45 -12 74.5 -55t29.5 -89q0 -27 -8 -43q-30 -75 -73.5 -126 t-98.5 -77.5t-111.5 -37t-127.5 -10.5h-13q-151 0 -291 133q-91 85 -123 251.5t-32 391.5q0 98 2 145l45 326q-27 -30 -109 -152.5t-114 -163.5q-30 -38 -90 -117t-101 -131.5t-105 -123.5t-118.5 -118t-125 -88.5t-140.5 -58.5q-24 -6 -45 -6q-55 0 -98.5 37t-65.5 89.5 t-27 111.5q-4 31 -4 94q0 318 188 868q37 109 63 180.5t68.5 167.5t86.5 171q2 2 6 20q-3 -1 -8 -1t-8 -0.5t-5 -2.5q-42 -38 -53 -51q-21 -27 -48.5 -56.5t-46 -48t-55.5 -53.5t-51 -49q-145 -145 -213 -201q-16 -13 -48 -40.5t-52 -43.5t-50.5 -35.5t-58.5 -31.5 q-33 -13 -61 -13q-59 0 -101.5 39t-43.5 103zM1272 1810v2q4 10 23 21.5t30 11.5q20 0 50 -46.5t57.5 -96t40.5 -53.5q-7 -7 -13 -7q-24 0 -106 73.5t-82 94.5z" />
<glyph unicode="&#xda;" horiz-adv-x="1957" d="M-61 967q0 51 34 92.5t84 50.5q31 5 31 -12q-2 -1 -11.5 -6.5t-12 -7.5t-10.5 -7t-12 -8t-10 -8t-10 -10t-8 -11q-16 -26 -16 -53q0 -31 17 -57.5t44 -36.5q21 -8 47 -8q34 0 73.5 19.5t64.5 40.5t65 58t53 48q89 74 139.5 118t122.5 113t126 131q5 6 26.5 31t32.5 36.5 t30 30t37 30.5t37 20q19 7 35 2q23 -10 23 -45q0 -24 -15 -64q-28 -66 -55.5 -143.5t-59 -170.5t-50.5 -145q-85 -233 -127 -393q-5 -19 -36 -132.5t-51 -196t-26 -134.5q-10 -82 -10 -149q0 -40 2 -60q9 -124 61 -155q27 -15 58 -15q78 0 176 72q39 27 82 69.5t63.5 66.5 t67.5 81q77 92 242 336.5t173 255.5q58 81 139 243t192.5 411t115.5 257q29 61 112 68q5 0 10 -5t5 -11q0 -13 -21 -60q-88 -180 -198 -458.5t-127 -407.5q-32 -84 -51 -250t-19 -303q0 -40 4 -90q2 -18 6.5 -83.5t7 -93.5t12 -83.5t21 -87t32 -68t48.5 -61.5 q51 -46 119.5 -70.5t138.5 -24.5q118 0 191 58q116 89 116 229v12q0 25 -18 44.5t-41 19.5q-24 0 -41 -25q-17 -34 -29 -34q-7 0 -12 16q-9 25 19 53q28 31 73 31q9 0 29 -4q45 -12 74.5 -55t29.5 -89q0 -27 -8 -43q-30 -75 -73.5 -126t-98.5 -77.5t-111.5 -37t-127.5 -10.5 h-13q-151 0 -291 133q-91 85 -123 251.5t-32 391.5q0 98 2 145l45 326q-27 -30 -109 -152.5t-114 -163.5q-30 -38 -90 -117t-101 -131.5t-105 -123.5t-118.5 -118t-125 -88.5t-140.5 -58.5q-24 -6 -45 -6q-55 0 -98.5 37t-65.5 89.5t-27 111.5q-4 31 -4 94q0 318 188 868 q37 109 63 180.5t68.5 167.5t86.5 171q2 2 6 20q-3 -1 -8 -1t-8 -0.5t-5 -2.5q-42 -38 -53 -51q-21 -27 -48.5 -56.5t-46 -48t-55.5 -53.5t-51 -49q-145 -145 -213 -201q-16 -13 -48 -40.5t-52 -43.5t-50.5 -35.5t-58.5 -31.5q-33 -13 -61 -13q-59 0 -101.5 39t-43.5 103z M1294 1698q13 3 43 50.5t62.5 92.5t52.5 45q11 0 29.5 -13.5t21.5 -23.5v-2q0 -19 -85.5 -88t-110.5 -69q-10 5 -13 8z" />
<glyph unicode="&#xdb;" horiz-adv-x="1957" d="M-61 967q0 51 34 92.5t84 50.5q31 5 31 -12q-2 -1 -11.5 -6.5t-12 -7.5t-10.5 -7t-12 -8t-10 -8t-10 -10t-8 -11q-16 -26 -16 -53q0 -31 17 -57.5t44 -36.5q21 -8 47 -8q34 0 73.5 19.5t64.5 40.5t65 58t53 48q89 74 139.5 118t122.5 113t126 131q5 6 26.5 31t32.5 36.5 t30 30t37 30.5t37 20q19 7 35 2q23 -10 23 -45q0 -24 -15 -64q-28 -66 -55.5 -143.5t-59 -170.5t-50.5 -145q-85 -233 -127 -393q-5 -19 -36 -132.5t-51 -196t-26 -134.5q-10 -82 -10 -149q0 -40 2 -60q9 -124 61 -155q27 -15 58 -15q78 0 176 72q39 27 82 69.5t63.5 66.5 t67.5 81q77 92 242 336.5t173 255.5q58 81 139 243t192.5 411t115.5 257q29 61 112 68q1 0 2.5 -1t4 -2.5t4.5 -2.5q6 -6 6 -15q0 -8 -4 -18t-12 -23l-7 -14q-92 -192 -200.5 -465t-124.5 -401q-32 -84 -51 -250t-19 -303q0 -40 4 -90q2 -18 6.5 -83.5t7 -93.5t12 -83.5 t21 -87t32 -68t48.5 -61.5q51 -46 119.5 -70.5t138.5 -24.5q118 0 191 58q116 89 116 229v12q0 25 -18 44.5t-41 19.5q-24 0 -41 -25q-17 -34 -29 -34q-7 0 -12 16q-9 25 19 53q28 31 73 31q9 0 29 -4q45 -12 74.5 -55t29.5 -89q0 -27 -8 -43q-30 -75 -73.5 -126 t-98.5 -77.5t-111.5 -37t-127.5 -10.5h-13q-151 0 -291 133q-91 85 -123 251.5t-32 391.5q0 98 2 145l45 326q-27 -30 -109 -152.5t-114 -163.5q-30 -38 -90 -117t-101 -131.5t-105 -123.5t-118.5 -118t-125 -88.5t-140.5 -58.5q-24 -6 -45 -6q-55 0 -98.5 37t-65.5 89.5 t-27 111.5q-4 31 -4 94q0 318 188 868q37 109 63 180.5t68.5 167.5t86.5 171q2 2 6 20q-3 -1 -8 -1t-8 -0.5t-5 -2.5q-42 -38 -53 -51q-21 -27 -48.5 -56.5t-46 -48t-55.5 -53.5t-51 -49q-145 -145 -213 -201q-16 -13 -48 -40.5t-52 -43.5t-50.5 -35.5t-58.5 -31.5 q-33 -13 -61 -13q-59 0 -101.5 39t-43.5 103zM1196 1751l211 137l199 -133l-93 -24l-108 77l-135 -88z" />
<glyph unicode="&#xdc;" horiz-adv-x="1957" d="M-61 967q0 51 34 92.5t84 50.5q31 5 31 -12q-2 -1 -11.5 -6.5t-12 -7.5t-10.5 -7t-12 -8t-10 -8t-10 -10t-8 -11q-16 -26 -16 -53q0 -31 17 -57.5t44 -36.5q21 -8 47 -8q34 0 73.5 19.5t64.5 40.5t65 58t53 48q89 74 139.5 118t122.5 113t126 131q5 6 26.5 31t32.5 36.5 t30 30t37 30.5t37 20q19 7 35 2q23 -10 23 -45q0 -24 -15 -64q-28 -66 -55.5 -143.5t-59 -170.5t-50.5 -145q-85 -233 -127 -393q-5 -19 -36 -132.5t-51 -196t-26 -134.5q-10 -82 -10 -149q0 -40 2 -60q9 -124 61 -155q27 -15 58 -15q78 0 176 72q14 9 27 19t27 23t24 22 t25 25.5t22.5 24t23.5 26.5t21 25l22.5 27t20.5 25q77 92 242 336.5t173 255.5q58 81 139 243t192.5 411t115.5 257q29 61 112 68q5 0 10 -5t5 -11q0 -13 -21 -60q-88 -180 -198 -458.5t-127 -407.5q-32 -84 -51 -250t-19 -303q0 -40 4 -90q2 -18 6.5 -83.5t7 -93.5 t12 -83.5t21 -87t32 -68t48.5 -61.5q51 -46 119.5 -70.5t138.5 -24.5q118 0 191 58q116 89 116 229v12q0 25 -18 44.5t-41 19.5q-24 0 -41 -25q-17 -34 -29 -34q-7 0 -12 16q-9 25 19 53q28 31 73 31q9 0 29 -4q45 -12 74.5 -55t29.5 -89q0 -27 -8 -43q-30 -75 -73.5 -126 t-98.5 -77.5t-111.5 -37t-127.5 -10.5h-13q-151 0 -291 133q-91 85 -123 251.5t-32 391.5q0 98 2 145l45 326q-27 -30 -109 -152.5t-114 -163.5q-30 -38 -90 -117t-101 -131.5t-105 -123.5t-118.5 -118t-125 -88.5t-140.5 -58.5q-24 -6 -45 -6q-55 0 -98.5 37t-65.5 89.5 t-27 111.5q-4 31 -4 94q0 318 188 868q37 109 63 180.5t68.5 167.5t86.5 171q2 2 6 20q-3 -1 -8 -1t-8 -0.5t-5 -2.5q-42 -38 -53 -51q-21 -27 -48.5 -56.5t-46 -48t-55.5 -53.5t-51 -49q-145 -145 -213 -201q-16 -13 -48 -40.5t-52 -43.5t-50.5 -35.5t-58.5 -31.5 q-33 -13 -61 -13q-59 0 -101.5 39t-43.5 103zM1161 1806q0 43 19 74q15 18 47 18q46 0 67 -24q15 -18 15 -39q0 -30 -20.5 -58t-43.5 -34q-2 0 -6 -1t-6 -1q-26 0 -49 21t-23 44zM1464 1810q0 43 19 70q15 18 47 18q46 0 67 -24q15 -18 15 -39q0 -30 -20.5 -58t-43.5 -34 q-2 0 -6 -1t-6 -1q-27 0 -49.5 22.5t-22.5 46.5z" />
<glyph unicode="&#xdf;" />
<glyph unicode="&#xe0;" horiz-adv-x="888" d="M-84 137q0 15 4 47q22 127 70 209q64 109 111 165t126 101q49 26 109 33h6q25 0 54.5 -15.5t29.5 -39.5q-21 8 -47 8q-78 0 -144.5 -69t-107.5 -164q-59 -134 -59 -236q0 -65 22 -113q12 -6 23 -6q20 0 43 23q97 90 192 213q20 26 88.5 105t106.5 137q15 10 30 10 q23 0 23 -35q0 -19 -6 -46t-15 -56.5t-10 -34.5q-30 -128 -30 -205v-14q0 -4 6 -52q18 -12 34 -12q25 0 48 23q88 88 227 260q20 25 54 59.5t46 34.5q4 0 4 -6q0 -10 -15.5 -35.5t-42 -62t-48 -64t-49.5 -62t-29 -36.5q-75 -96 -137 -142q-38 -30 -101 -30h-4 q-47 0 -79.5 51.5t-32.5 112.5q0 30 6 74.5t6 58.5q-32 -35 -98 -123.5t-92 -116.5q-69 -71 -166 -90q-20 -4 -31 -4q-57 0 -91 39.5t-34 105.5zM248 991v2q4 10 23 21.5t30 11.5q20 0 50 -47t57.5 -96.5t40.5 -53.5q-6 -6 -13 -6q-24 0 -106 73.5t-82 94.5z" />
<glyph unicode="&#xe1;" horiz-adv-x="888" d="M-84 137q0 15 4 47q22 127 70 209q64 109 111 165t126 101q49 26 109 33h6q25 0 54.5 -15.5t29.5 -39.5q-21 8 -47 8q-78 0 -144.5 -69t-107.5 -164q-59 -134 -59 -236q0 -65 22 -113q12 -6 23 -6q20 0 43 23q97 90 192 213q20 26 88.5 105t106.5 137q15 10 30 10 q23 0 23 -35q0 -19 -6 -45.5t-16 -58.5l-9 -33q-30 -128 -30 -205v-14q0 -4 6 -52q18 -12 34 -12q25 0 48 23q88 88 227 260q20 25 54 59.5t46 34.5q4 0 4 -6q0 -10 -15.5 -35.5t-42 -62t-48 -64t-49.5 -62t-29 -36.5q-75 -96 -137 -142q-38 -30 -101 -30h-4 q-47 0 -79.5 51.5t-32.5 112.5q0 30 6 74.5t6 58.5q-32 -35 -98 -123.5t-92 -116.5q-69 -71 -166 -90q-20 -4 -31 -4q-57 0 -91 39.5t-34 105.5zM250 858q13 3 43 50.5t62.5 93t52.5 45.5q11 0 29.5 -13.5t21.5 -23.5v-2q0 -19 -86 -88.5t-111 -69.5q-8 4 -12 8z" />
<glyph unicode="&#xe2;" horiz-adv-x="888" d="M-84 137q0 15 4 47q22 127 70 209q64 109 111 165t126 101q49 26 109 33h6q25 0 54.5 -15.5t29.5 -39.5q-21 8 -47 8q-78 0 -144.5 -69t-107.5 -164q-59 -134 -59 -236q0 -65 22 -113q12 -6 23 -6q20 0 43 23q97 90 192 213q20 26 88.5 105t106.5 137q15 10 30 10 q23 0 23 -35q0 -19 -6 -46t-15 -56.5t-10 -34.5q-30 -128 -30 -205v-14q0 -4 6 -52q18 -12 34 -12q25 0 48 23q88 88 227 260q20 25 54 59.5t46 34.5q4 0 4 -6q0 -10 -15.5 -35.5t-42 -62t-48 -64t-49.5 -62t-29 -36.5q-75 -96 -137 -142q-38 -30 -101 -30h-4 q-47 0 -79.5 51.5t-32.5 112.5q0 30 6 74.5t6 58.5q-32 -35 -98 -123.5t-92 -116.5q-69 -71 -166 -90q-20 -4 -31 -4q-57 0 -91 39.5t-34 105.5zM172 911l211 138l199 -134l-93 -24l-108 78l-135 -88z" />
<glyph unicode="&#xe3;" horiz-adv-x="888" d="M-84 137q0 15 4 47q22 127 70 209q64 109 111 165t126 101q49 26 109 33h6q25 0 54.5 -15.5t29.5 -39.5q-21 8 -47 8q-78 0 -144.5 -69t-107.5 -164q-59 -134 -59 -236q0 -65 22 -113q12 -6 23 -6q20 0 43 23q97 90 192 213q20 26 88.5 105t106.5 137q15 10 30 10 q23 0 23 -35q0 -19 -6 -46t-15 -56.5t-10 -34.5q-30 -128 -30 -205v-14q0 -4 6 -52q18 -12 34 -12q25 0 48 23q88 88 227 260q20 25 54 59.5t46 34.5q4 0 4 -6q0 -10 -15.5 -35.5t-42 -62t-48 -64t-49.5 -62t-29 -36.5q-75 -96 -137 -142q-38 -30 -101 -30h-4 q-47 0 -79.5 51.5t-32.5 112.5q0 30 6 74.5t6 58.5q-32 -35 -98 -123.5t-92 -116.5q-69 -71 -166 -90q-20 -4 -31 -4q-57 0 -91 39.5t-34 105.5zM242 1030q27 31 43 47q70 70 106 70q8 0 15 -1.5t13.5 -6t11.5 -7.5t11.5 -10t9 -10t8.5 -11t7 -9l12 -16q12 -17 20.5 -25.5 t23 -22.5t30 -20.5t31.5 -6.5q21 0 50.5 5.5t48.5 11.5l19 6q-14 -23 -69.5 -63.5t-89.5 -40.5q-13 0 -26 4.5t-22.5 11t-20 16t-15.5 15.5t-12 15l-7 9q-1 1 -9 12t-15.5 19.5t-18 19.5t-22.5 17t-23 6q-19 0 -41.5 -14.5t-35.5 -28.5l-13 -14h-4z" />
<glyph unicode="&#xe4;" horiz-adv-x="888" d="M-84 137q0 15 4 47q22 127 70 209q64 109 111 165t126 101q49 26 109 33h6q25 0 54.5 -15.5t29.5 -39.5q-21 8 -47 8q-78 0 -144.5 -69t-107.5 -164q-59 -134 -59 -236q0 -65 22 -113q12 -6 23 -6q20 0 43 23q97 90 192 213q20 26 88.5 105t106.5 137q15 10 30 10 q23 0 23 -35q0 -19 -6 -45.5t-16 -58.5l-9 -33q-30 -128 -30 -205v-14q0 -4 6 -52q18 -12 34 -12q25 0 48 23q88 88 227 260q20 25 54 59.5t46 34.5q4 0 4 -6q0 -10 -15.5 -35.5t-42 -62t-48 -64t-49.5 -62t-29 -36.5q-75 -96 -137 -142q-38 -30 -101 -30h-4 q-47 0 -79.5 51.5t-32.5 112.5q0 30 6 74.5t6 58.5q-32 -35 -98 -123.5t-92 -116.5q-69 -71 -166 -90q-20 -4 -31 -4q-57 0 -91 39.5t-34 105.5zM117 946q0 44 18 74q15 18 47 18q47 0 68 -24q14 -17 14 -39q0 -30 -20 -58t-43 -34q-2 0 -6.5 -1t-6.5 -1q-26 0 -48.5 21 t-22.5 44zM420 950q0 44 18 70q15 18 47 18q47 0 68 -24q14 -17 14 -39q0 -30 -20 -58t-43 -34q-2 0 -6 -1t-6 -1q-27 0 -49.5 22.5t-22.5 46.5z" />
<glyph unicode="&#xe5;" horiz-adv-x="888" d="M-84 137q0 15 4 47q22 127 70 209q64 109 111 165t126 101q49 26 109 33h6q25 0 54.5 -15.5t29.5 -39.5q-21 8 -47 8q-78 0 -144.5 -69t-107.5 -164q-59 -134 -59 -236q0 -65 22 -113q12 -6 23 -6q20 0 43 23q97 90 192 213q20 26 88.5 105t106.5 137q15 10 30 10 q23 0 23 -35q0 -19 -6 -46t-15 -56.5t-10 -34.5q-30 -128 -30 -205v-14q0 -4 6 -52q18 -12 34 -12q25 0 48 23q88 88 227 260q20 25 54 59.5t46 34.5q4 0 4 -6q0 -10 -15.5 -35.5t-42 -62t-48 -64t-49.5 -62t-29 -36.5q-75 -96 -137 -142q-38 -30 -101 -30h-4 q-47 0 -79.5 51.5t-32.5 112.5q0 30 6 74.5t6 58.5q-32 -35 -98 -123.5t-92 -116.5q-69 -71 -166 -90q-20 -4 -31 -4q-57 0 -91 39.5t-34 105.5zM225 874q0 38 47 68q6 5 17.5 8.5t15.5 5.5q2 1 15.5 11t21.5 10q29 0 70 -29q43 -30 43 -59q0 -51 -35 -78t-80 -27 q-46 0 -80.5 24t-34.5 66zM274 881q0 -26 18 -44t52 -18q7 0 14 3t15.5 9t9.5 7q31 19 31 45q0 18 -19.5 35.5t-52.5 17.5q-34 0 -59 -25q-9 -9 -9 -30z" />
<glyph unicode="&#xe6;" />
<glyph unicode="&#xe7;" />
<glyph unicode="&#xe8;" horiz-adv-x="688" d="M-57 283q0 142 87.5 252t215.5 133q6 2 22 2q29 0 49.5 -15t20.5 -45v-10q-18 -117 -64 -186q-9 -13 -22.5 -41.5t-22.5 -42.5q-61 -91 -123 -127q-26 -13 -14 -49q8 -21 8 -50q0 -25 -6 -49q3 5 21 3.5t24 -5.5q7 -3 21 -17t20 -18q34 -22 76 -22q13 0 37 4q32 7 68 35 t53.5 47.5t52.5 62.5q34 42 51 60.5t57 68.5q3 4 55 71t83.5 102.5t42.5 35.5h2q4 -2 4 -10q0 -15 -23.5 -49.5t-54 -71t-35.5 -45.5q-12 -18 -33 -50.5t-28 -43.5t-22.5 -33.5t-25.5 -33.5t-27 -31t-36 -38.5t-45 -43.5q-42 -42 -96 -69t-109 -27q-23 0 -47 6 q-113 30 -160 92q-36 49 -56.5 115.5t-20.5 132.5zM43 991v2q4 10 23 21.5t30 11.5q20 0 50 -47t57.5 -96.5t40.5 -53.5q-6 -6 -13 -6q-24 0 -106 73.5t-82 94.5zM68 283q0 -9 3.5 -22t4.5 -19q15 0 28.5 6.5t19.5 12.5t19 20q52 59 69.5 86t49.5 100q2 4 10 22.5t10.5 26.5 t7.5 23.5t7 28.5t2 26q-3 31 -27 31q-10 0 -28 -11q-176 -115 -176 -331z" />
<glyph unicode="&#xe9;" horiz-adv-x="688" d="M-57 283q0 142 87.5 252t215.5 133q6 2 22 2q29 0 49.5 -15t20.5 -45v-10q-18 -117 -64 -186q-9 -13 -22.5 -41.5t-22.5 -42.5q-61 -91 -123 -127q-26 -13 -14 -49q8 -21 8 -50q0 -25 -6 -49q3 5 21 3.5t24 -5.5q7 -3 21 -17t20 -18q34 -22 76 -22q13 0 37 4q32 7 68 35 t53.5 47.5t52.5 62.5q34 42 51 60.5t57 68.5q3 4 55 71t83.5 102.5t42.5 35.5h2q4 -2 4 -10q0 -15 -23.5 -49.5t-54 -71t-35.5 -45.5q-12 -18 -33 -50.5t-28 -43.5t-22.5 -33.5t-25.5 -33.5t-27 -31t-36 -38.5t-45 -43.5q-42 -42 -96 -69t-109 -27q-23 0 -47 6 q-113 30 -160 92q-36 49 -56.5 115.5t-20.5 132.5zM68 283q0 -9 3.5 -22t4.5 -19q15 0 28.5 6.5t19.5 12.5t19 20q52 59 69.5 86t49.5 100q2 4 10 22.5t10.5 26.5t7.5 23.5t7 28.5t2 26q-3 31 -27 31q-10 0 -28 -11q-176 -115 -176 -331zM168 838q13 3 43 50.5t62.5 92.5 t52.5 45q11 0 29.5 -13.5t21.5 -23.5v-2q0 -19 -86 -88.5t-111 -69.5q-6 3 -12 9z" />
<glyph unicode="&#xea;" horiz-adv-x="688" d="M-57 283q0 142 87.5 252t215.5 133q6 2 22 2q29 0 49.5 -15t20.5 -45v-10q-18 -117 -64 -186q-9 -13 -22.5 -41.5t-22.5 -42.5q-61 -91 -123 -127q-26 -13 -14 -49q8 -21 8 -50q0 -25 -6 -49q3 5 21 3.5t24 -5.5q7 -3 21 -17t20 -18q34 -22 76 -22q13 0 37 4q32 7 68 35 t53.5 47.5t52.5 62.5q34 42 51 60.5t57 68.5q3 4 55 71t83.5 102.5t42.5 35.5h2q4 -2 4 -10q0 -15 -23.5 -49.5t-54 -71t-35.5 -45.5q-12 -18 -33 -50.5t-28 -43.5t-22.5 -33.5t-25.5 -33.5t-27 -31t-36 -38.5t-45 -43.5q-42 -42 -96 -69t-109 -27q-23 0 -47 6 q-113 30 -160 92q-36 49 -56.5 115.5t-20.5 132.5zM68 283q0 -9 3.5 -22t4.5 -19q15 0 28.5 6.5t19.5 12.5t19 20q52 59 69.5 86t49.5 100q2 4 10 22.5t10.5 26.5t7.5 23.5t7 28.5t2 26q-3 31 -27 31q-10 0 -28 -11q-176 -115 -176 -331zM70 911l211 138l198 -134l-92 -24 l-108 78l-136 -88z" />
<glyph unicode="&#xeb;" horiz-adv-x="688" d="M-57 283q0 142 87.5 252t215.5 133q6 2 22 2q29 0 49.5 -15t20.5 -45v-10q-18 -117 -64 -186q-9 -13 -22.5 -41.5t-22.5 -42.5q-61 -91 -123 -127q-26 -13 -14 -49q8 -21 8 -50q0 -25 -6 -49q3 5 21 3.5t24 -5.5q7 -3 21 -17t20 -18q34 -22 76 -22q13 0 37 4q32 7 68 35 t53.5 47.5t52.5 62.5q34 42 51 60.5t57 68.5q3 4 55 71t83.5 102.5t42.5 35.5h2q4 -2 4 -10q0 -15 -23.5 -49.5t-54 -71t-35.5 -45.5q-12 -18 -33 -50.5t-28 -43.5t-22.5 -33.5t-25.5 -33.5t-27 -31t-36 -38.5t-45 -43.5q-42 -42 -96 -69t-109 -27q-23 0 -47 6 q-113 30 -160 92q-36 49 -56.5 115.5t-20.5 132.5zM68 283q0 -9 3.5 -22t4.5 -19q15 0 28.5 6.5t19.5 12.5t19 20q52 59 69.5 86t49.5 100q2 4 10 22.5t10.5 26.5t7.5 23.5t7 28.5t2 26q-3 31 -27 31q-10 0 -28 -11q-176 -115 -176 -331zM96 946q0 43 19 74q15 18 47 18 q46 0 67 -24q15 -18 15 -39q0 -30 -20.5 -58t-43.5 -34q-2 0 -6 -1t-6 -1q-26 0 -49 21t-23 44zM399 950q0 43 19 70q15 18 47 18q46 0 67 -24q15 -18 15 -39q0 -30 -20.5 -58t-43.5 -34q-2 0 -6 -1t-6 -1q-27 0 -49.5 22.5t-22.5 46.5z" />
<glyph unicode="&#xec;" horiz-adv-x="542" d="M-84 168q0 46 16 103.5t27 84t39 88.5q15 30 41 88t37 82q17 38 33 52q16 16 38 16q19 0 31 -13t12 -34q0 -28 -18 -64q-78 -157 -115 -278q-1 -5 -12 -41t-15 -51t-9 -43t-5 -49q0 -53 25 -91q17 -20 37 -20q6 0 22 4q66 20 120 63t110 107q113 127 190 231 q74 103 90 103q2 0 4 -2q1 0 4 -6t3 -9q0 -8 -9.5 -24.5t-19.5 -30.5t-25 -33t-18 -24q-45 -55 -70 -88q-66 -72 -71 -78q-3 -3 -17.5 -23.5t-28.5 -37.5t-18 -17q-31 -37 -54 -62t-59 -56t-74 -47.5t-77 -16.5h-14q-36 0 -66 24t-49 60q-35 60 -35 133zM23 991v2 q4 10 23 21.5t30 11.5q16 0 38 -29.5t40.5 -65t38 -67.5t30.5 -35q-6 -6 -12 -6q-24 0 -106 73.5t-82 94.5z" />
<glyph unicode="&#xed;" horiz-adv-x="542" d="M-80 174q0 34 6 68q13 77 72 202q60 132 78 170q10 25 29 47.5t42 22.5q7 0 19 -4q13 -6 19.5 -20.5t4.5 -30.5q0 -17 -18 -58q-78 -157 -115 -278q-1 -5 -12 -41t-15 -51t-9 -43t-5 -49q0 -53 25 -91q17 -20 37 -20q6 0 22 4q66 20 120 63t110 107q126 142 190 231 q1 2 11.5 16.5t20 27t21.5 27.5t21.5 23.5t15.5 8.5q2 0 4 -2q1 0 4 -6t3 -9q0 -8 -9.5 -24.5t-19.5 -30.5t-25 -33t-18 -24q-45 -55 -70 -88q-66 -72 -71 -78q-3 -3 -17.5 -23.5t-28.5 -37.5t-18 -17q-31 -37 -54 -62t-59 -56t-74 -47.5t-77 -16.5h-14q-69 0 -107.5 67.5 t-38.5 155.5zM168 838q13 3 43 50.5t62.5 92.5t52.5 45q11 0 29.5 -13.5t21.5 -23.5v-2q0 -19 -86 -88.5t-111 -69.5q-6 3 -12 9z" />
<glyph unicode="&#xee;" horiz-adv-x="542" d="M-84 168q0 46 16 103.5t27 84t39 88.5q15 30 41 88t37 82q17 38 33 52q16 16 38 16q19 0 31 -13t12 -34q0 -28 -18 -64q-78 -157 -115 -278q-1 -5 -12 -41t-15 -51t-9 -43t-5 -49q0 -53 25 -91q17 -20 37 -20q6 0 22 4q66 20 120 63t110 107q113 127 190 231 q74 103 90 103q2 0 4 -2q1 0 4 -6t3 -9q0 -8 -9.5 -24.5t-19.5 -30.5t-25 -33t-18 -24q-45 -55 -70 -88q-66 -72 -71 -78q-3 -3 -17.5 -23.5t-28.5 -37.5t-18 -17q-31 -37 -54 -62t-59 -56t-74 -47.5t-77 -16.5h-14q-36 0 -66 24t-49 60q-35 60 -35 133zM-33 911l211 138 l199 -134l-92 -24l-109 78l-135 -88z" />
<glyph unicode="&#xef;" horiz-adv-x="542" d="M-80 174q0 34 6 68q13 77 72 202q60 132 78 170q10 25 29 47.5t42 22.5q7 0 19 -4q13 -6 19.5 -20.5t4.5 -30.5q0 -17 -18 -58q-78 -157 -115 -278q-1 -5 -12 -41t-15 -51t-9 -43t-5 -49q0 -53 25 -91q17 -20 37 -20q6 0 22 4q66 20 120 63t110 107q126 142 190 231 q1 2 11.5 16.5t20 27t21.5 27.5t21.5 23.5t15.5 8.5q2 0 4 -2q1 0 4 -6t3 -9q0 -8 -9.5 -24.5t-19.5 -30.5t-25 -33t-18 -24q-45 -55 -70 -88q-66 -72 -71 -78q-3 -3 -17.5 -23.5t-28.5 -37.5t-18 -17q-31 -37 -54 -62t-59 -56t-74 -47.5t-77 -16.5h-14q-69 0 -107.5 67.5 t-38.5 155.5zM-27 946q0 43 19 74q15 18 47 18q46 0 67 -24q15 -18 15 -39q0 -30 -20.5 -58t-43.5 -34q-2 0 -6 -1t-6 -1q-26 0 -49 21t-23 44zM276 950q0 43 19 70q15 18 47 18q47 0 68 -24q14 -17 14 -39q0 -30 -20.5 -58t-43.5 -34q-2 0 -6 -1t-6 -1q-27 0 -49.5 22.5 t-22.5 46.5z" />
<glyph unicode="&#xf1;" horiz-adv-x="1112" d="M-92 -47q0 8 14.5 73.5t18.5 73.5q25 67 55.5 230t54.5 233q12 33 47.5 58.5t65.5 25.5q37 0 37 -74q0 -36 -27 -117t-51 -91l-4 -9q10 -10 10 -20q0 -18 -12.5 -53.5t-12.5 -55.5q0 -6 9 -6q13 0 79 60t141 131.5t160 131.5t132 60q69 0 69 -149q0 -69 -41 -199 t-41 -197q0 -41 6 -59q50 6 103 32t95.5 58.5t89.5 81t77.5 84.5t67.5 84q11 13 32 44t40 53t40 36h8q5 0 5 -10q0 -16 -13 -33q-122 -189 -224.5 -293t-285.5 -215q-61 -37 -86 -37q-48 0 -69 43t-21 97q0 182 53 321q24 54 25 57v9q0 7 -2 7q-4 7 -4 9q0 8 6 24t6 25 q0 25 -20 25q-23 0 -109 -66.5t-137 -111.5q-77 -68 -197.5 -212.5t-167.5 -193.5q-22 15 -22 35zM242 948q27 31 43 47q70 70 106 70q8 0 15 -1.5t13.5 -6t11.5 -7.5t11.5 -10t9 -10t8.5 -11t7 -9q1 -2 10 -13.5t15 -19t18 -19.5t22 -19.5t24 -13t28 -5.5q21 0 50.5 5.5 t48.5 10.5l19 6q-14 -23 -69.5 -63.5t-89.5 -40.5q-13 0 -26 4.5t-22.5 11t-20 16t-15.5 15.5t-12 15l-7 9q-1 1 -9 12t-15.5 19.5t-18 19.5t-22.5 17t-23 6q-19 0 -41.5 -14.5t-35.5 -28.5l-13 -14h-4z" />
<glyph unicode="&#xf2;" horiz-adv-x="954" d="M-33 264q0 142 94 293q91 151 211 223q41 25 74 25q19 0 27 -4q50 -18 67 -103q2 -4 2 -16q0 -35 -20 -35q-10 0 -19 6q-11 8 -23 35t-20 35q-19 16 -36 16q-27 0 -54 -23t-41 -50q-29 -52 -63 -181q-49 -179 -49 -274q0 -87 33 -154q15 -32 79 -32q37 0 58 8 q110 35 168 106q30 37 28 47q0 5 -6.5 13.5t-15.5 18t-12 13.5q-33 53 -33 125q0 106 73 164q25 19 54 19q51 0 63 -54q6 -21 6 -39q0 -28 -14 -82t-14 -81q0 -41 25 -70t63 -29h12q35 4 86 45q56 44 138.5 143t119.5 134q16 16 29 16q2 -4 2 -7t-3 -8.5t-5.5 -9t-6.5 -8.5 t-6 -8q-25 -37 -54.5 -74.5t-69 -84t-58.5 -70.5q-39 -45 -105 -81t-128 -36q-35 0 -62 12q-7 3 -45 13q-11 -10 -31.5 -32t-31.5 -32q-118 -102 -242 -102q-95 0 -162 67q-82 79 -82 203zM248 1094v2q4 10 23 21t30 11q20 0 50 -46.5t57.5 -96t40.5 -53.5q-6 -6 -13 -6 q-24 0 -106 73.5t-82 94.5zM508 436q0 -55 37 -98q19 39 22 65q4 16 4 37q0 49 -24 52h-6q-12 0 -21.5 -15t-11.5 -28v-13z" />
<glyph unicode="&#xf3;" horiz-adv-x="954" d="M-33 264q0 142 94 293q91 151 211 223q41 25 74 25q19 0 27 -4q50 -18 67 -103q2 -4 2 -16q0 -35 -20 -35q-10 0 -19 6q-11 8 -23 35t-20 35q-19 16 -36 16q-27 0 -54 -23t-41 -50q-29 -52 -63 -181q-49 -179 -49 -274q0 -87 33 -154q15 -32 79 -32q37 0 58 8 q110 35 168 106q30 37 28 47q0 5 -6.5 13.5t-15.5 18t-12 13.5q-33 53 -33 125q0 106 73 164q25 19 54 19q51 0 63 -54q6 -21 6 -39q0 -28 -14 -82t-14 -81q0 -41 25 -70t63 -29h12q35 4 86 45q56 44 138.5 143t119.5 134q16 16 29 16q2 -4 2 -7t-3 -8.5t-5.5 -9t-6.5 -8.5 t-6 -8q-25 -37 -54.5 -74.5t-69 -84t-58.5 -70.5q-39 -45 -105 -81t-128 -36q-35 0 -62 12q-7 3 -45 13q-11 -10 -31.5 -32t-31.5 -32q-118 -102 -242 -102q-95 0 -162 67q-82 79 -82 203zM229 940q13 3 43 50.5t62.5 92.5t52.5 45q12 0 30 -13.5t21 -22.5v-2 q0 -19 -86 -88.5t-110 -69.5q-10 5 -13 8zM506 436q0 -48 39 -98q19 39 22 65q4 16 4 37q0 49 -24 52q-9 3 -17 -5q-24 -16 -24 -51z" />
<glyph unicode="&#xf4;" horiz-adv-x="954" d="M-33 264q0 142 94 293q91 151 211 223q41 25 74 25q19 0 27 -4q50 -18 67 -103q2 -4 2 -16q0 -35 -20 -35q-10 0 -19 6q-11 8 -23 35t-20 35q-19 16 -36 16q-27 0 -54 -23t-41 -50q-29 -52 -63 -181q-49 -179 -49 -274q0 -87 33 -154q15 -32 79 -32q37 0 58 8 q110 35 168 106q30 37 28 47q0 5 -6.5 13.5t-15.5 18t-12 13.5q-33 53 -33 125q0 106 73 164q25 19 54 19q51 0 63 -54q6 -21 6 -39q0 -28 -14 -82t-14 -81q0 -41 25 -70t63 -29h12q35 4 86 45q56 44 138.5 143t119.5 134q16 16 29 16q2 -4 2 -7t-3 -8.5t-5.5 -9t-6.5 -8.5 t-6 -8q-25 -37 -54.5 -74.5t-69 -84t-58.5 -70.5q-39 -45 -105 -81t-128 -36q-35 0 -62 12q-7 3 -45 13q-11 -10 -31.5 -32t-31.5 -32q-118 -102 -242 -102q-95 0 -162 67q-82 79 -82 203zM172 911l211 138l199 -134l-93 -24l-108 78l-135 -88zM508 436q0 -55 37 -98 q19 39 22 65q4 16 4 37q0 49 -24 52h-6q-12 0 -21.5 -15t-11.5 -28v-13z" />
<glyph unicode="&#xf5;" horiz-adv-x="954" d="M-33 264q0 142 94 293q91 151 211 223q41 25 74 25q19 0 27 -4q50 -18 67 -103q2 -4 2 -16q0 -35 -20 -35q-10 0 -19 6q-11 8 -23 35t-20 35q-19 16 -36 16q-27 0 -54 -23t-41 -50q-29 -52 -63 -181q-49 -179 -49 -274q0 -87 33 -154q15 -32 79 -32q37 0 58 8 q110 35 168 106q30 37 28 47q0 5 -6.5 13.5t-15.5 18t-12 13.5q-33 53 -33 125q0 106 73 164q25 19 54 19q51 0 63 -54q6 -21 6 -39q0 -28 -14 -82t-14 -81q0 -41 25 -70t63 -29h12q35 4 86 45q56 44 138.5 143t119.5 134q16 16 29 16q2 -4 2 -7t-3 -8.5t-5.5 -9t-6.5 -8.5 t-6 -8q-25 -37 -54.5 -74.5t-69 -84t-58.5 -70.5q-39 -45 -105 -81t-128 -36q-35 0 -62 12q-7 3 -45 13q-11 -10 -31.5 -32t-31.5 -32q-118 -102 -242 -102q-95 0 -162 67q-82 79 -82 203zM242 1030q27 31 43 47q70 70 106 70q8 0 15 -1.5t13.5 -6t11.5 -7.5t11.5 -10t9 -10 t8.5 -11t7 -9l12 -16q12 -17 20.5 -25.5t23 -22.5t30 -20.5t31.5 -6.5q21 0 50.5 5.5t48.5 11.5l19 6q-14 -23 -69.5 -63.5t-89.5 -40.5q-13 0 -26 4.5t-22.5 11t-20 16t-15.5 15.5t-12 15l-7 9q-1 1 -9 12t-15.5 19.5t-18 19.5t-22.5 17t-23 6q-19 0 -41.5 -14.5 t-35.5 -28.5l-13 -14h-4zM508 436q0 -55 37 -98q19 39 22 65q4 16 4 37q0 49 -24 52h-6q-12 0 -21.5 -15t-11.5 -28v-13z" />
<glyph unicode="&#xf6;" horiz-adv-x="954" d="M-33 264q0 142 94 293q91 151 211 223q41 25 74 25q19 0 27 -4q50 -18 67 -103q2 -4 2 -16q0 -35 -20 -35q-10 0 -19 6q-11 8 -23 35t-20 35q-19 16 -36 16q-27 0 -54 -23t-41 -50q-29 -52 -63 -181q-49 -179 -49 -274q0 -87 33 -154q15 -32 79 -32q37 0 58 8 q110 35 168 106q30 37 28 47q0 5 -6.5 13.5t-15.5 18t-12 13.5q-33 53 -33 125q0 106 73 164q25 19 54 19q51 0 63 -54q6 -21 6 -39q0 -28 -14 -82t-14 -81q0 -41 25 -70t63 -29h12q35 4 86 45q56 44 138.5 143t119.5 134q16 16 29 16q2 -4 2 -7t-3 -8.5t-5.5 -9t-6.5 -8.5 t-6 -8q-25 -37 -54.5 -74.5t-69 -84t-58.5 -70.5q-39 -45 -105 -81t-128 -36q-35 0 -62 12q-7 3 -45 13q-11 -10 -31.5 -32t-31.5 -32q-118 -102 -242 -102q-95 0 -162 67q-82 79 -82 203zM117 987q0 44 18 74q15 18 47 18q47 0 68 -24q14 -17 14 -39q0 -30 -20 -58t-43 -34 q-2 0 -6.5 -1t-6.5 -1q-26 0 -48.5 21t-22.5 44zM420 991q0 44 18 70q15 18 47 18q47 0 68 -24q14 -17 14 -39q0 -30 -20 -58t-43 -34q-2 0 -6 -1t-6 -1q-27 0 -49.5 22.5t-22.5 46.5zM506 436q0 -48 39 -98q19 39 22 65q4 16 4 37q0 49 -24 52q-9 3 -17 -5q-24 -16 -24 -51 z" />
<glyph unicode="&#xf7;" />
<glyph unicode="&#xf8;" />
<glyph unicode="&#xf9;" horiz-adv-x="1036" d="M-33 135v21q0 80 26 168.5t52.5 143.5t71.5 134q4 6 12.5 21t12.5 22.5t12.5 20.5t15 21t15.5 18t18 18q12 6 14 6q1 0 4 1t4 1q16 0 26.5 -14.5t10.5 -30.5q0 -8 -2 -12q-14 -54 -47 -137q-81 -208 -121 -351q-14 -58 -14 -88q0 -67 53 -67h10q57 0 105.5 30.5 t99.5 83.5q106 118 168 217q9 15 30.5 40t28.5 34q60 78 78 103q15 22 40 63.5t28 46.5q19 30 45 25q22 -3 22 -33q0 -20 -9.5 -50.5t-22 -60.5t-13.5 -34q-8 -24 -15 -50t-15.5 -60l-12.5 -50q-3 -13 -9.5 -39t-10 -42t-7 -39t-3.5 -42q0 -25 6 -49q4 -17 10 -23t14 -6 q34 0 105 62q51 43 104 110q14 20 46.5 56t47.5 55q12 19 51 65.5t40 47.5h8q10 3 15.5 -0.5t2.5 -14.5q-3 -13 -33 -49q-12 -19 -40 -53t-35 -43q-139 -196 -265 -279q-49 -33 -92 -33q-34 0 -57 23q-47 44 -47 143q0 28 10 82t10 82q-31 -22 -71 -90q-123 -192 -273 -266 q-44 -23 -86 -23q-56 0 -112 37q-60 43 -60 127zM248 991v2q4 10 23 21.5t30 11.5q20 0 50 -47t57.5 -96.5t40.5 -53.5q-6 -6 -13 -6q-24 0 -106 73.5t-82 94.5z" />
<glyph unicode="&#xfa;" horiz-adv-x="1036" d="M-33 135v21q0 80 26 168.5t52.5 143.5t71.5 134q4 6 12.5 21t12.5 22.5t12.5 20.5t15 21t15.5 18t18 18q12 6 14 6q1 0 4 1t4 1q16 0 26.5 -14.5t10.5 -30.5q0 -8 -2 -12q-14 -54 -47 -137q-81 -208 -121 -351q-16 -67 -16 -88q0 -67 55 -67h10q57 0 105.5 30.5 t99.5 83.5q106 118 168 217q9 15 30.5 40t28.5 34q60 78 78 103q15 22 40 63.5t28 46.5q19 30 45 25q22 -3 22 -33q0 -20 -9.5 -50.5t-22 -60.5t-13.5 -34q-8 -24 -15 -50t-15.5 -60l-12.5 -50q-3 -13 -9.5 -39t-10 -42t-7 -39t-3.5 -42q0 -25 6 -49q4 -17 10 -23t14 -6 q34 0 105 62q51 43 104 110q14 20 46.5 56t47.5 55q12 19 51 65.5t40 47.5h8q10 3 15.5 -0.5t2.5 -14.5q-3 -13 -33 -49q-12 -19 -40 -53t-35 -43q-139 -196 -265 -279q-49 -33 -92 -33q-34 0 -57 23q-47 44 -47 143q0 28 10 82t10 82q-31 -22 -71 -90q-123 -192 -273 -266 q-44 -23 -86 -23q-56 0 -112 37q-60 43 -60 127zM434 879q13 3 43 50.5t62.5 92.5t52.5 45q11 0 29.5 -13.5t21.5 -23.5v-2q0 -19 -86 -88.5t-111 -69.5q-6 3 -12 9z" />
<glyph unicode="&#xfb;" horiz-adv-x="1036" d="M-33 135v21q0 80 26 168.5t52.5 143.5t71.5 134q4 6 12.5 21t12.5 22.5t12.5 20.5t15 21t15.5 18t18 18q12 6 14 6q1 0 4 1t4 1q16 0 26.5 -14.5t10.5 -30.5q0 -8 -2 -12q-14 -54 -47 -137q-81 -208 -121 -351q-14 -58 -14 -88q0 -67 53 -67h10q57 0 105.5 30.5 t99.5 83.5q106 118 168 217q9 15 30.5 40t28.5 34q60 78 78 103q15 22 40 63.5t28 46.5q19 30 45 25q22 -3 22 -33q0 -20 -9.5 -50.5t-22 -60.5t-13.5 -34q-8 -24 -15 -50t-15.5 -60l-12.5 -50q-3 -13 -9.5 -39t-10 -42t-7 -39t-3.5 -42q0 -25 6 -49q4 -17 10 -23t14 -6 q34 0 105 62q51 43 104 110q14 20 46.5 56t47.5 55q12 19 51 65.5t40 47.5h8q10 3 15.5 -0.5t2.5 -14.5q-3 -13 -33 -49q-12 -19 -40 -53t-35 -43q-139 -196 -265 -279q-49 -33 -92 -33q-34 0 -57 23q-47 44 -47 143q0 28 10 82t10 82q-31 -22 -71 -90q-123 -192 -273 -266 q-44 -23 -86 -23q-56 0 -112 37q-60 43 -60 127zM315 911l211 138l199 -134l-92 -24l-109 78l-135 -88z" />
<glyph unicode="&#xfc;" horiz-adv-x="1036" d="M-33 135v21q0 80 26 168.5t52.5 143.5t71.5 134q4 6 12.5 21t12.5 22.5t12.5 20.5t15 21t15.5 18t18 18q12 6 14 6q1 0 4 1t4 1q16 0 26.5 -14.5t10.5 -30.5q0 -8 -2 -12q-14 -54 -47 -137q-81 -208 -121 -351q-16 -67 -16 -88q0 -67 55 -67h10q57 0 105.5 30.5 t99.5 83.5q106 118 168 217q9 15 30.5 40t28.5 34q60 78 78 103q15 22 40 63.5t28 46.5q19 30 45 25q22 -3 22 -33q0 -20 -9.5 -50.5t-22 -60.5t-13.5 -34q-8 -24 -15 -50t-15.5 -60l-12.5 -50q-3 -13 -9.5 -39t-10 -42t-7 -39t-3.5 -42q0 -25 6 -49q4 -17 10 -23t14 -6 q34 0 105 62q51 43 104 110q14 20 46.5 56t47.5 55q12 19 51 65.5t40 47.5h8q10 3 15.5 -0.5t2.5 -14.5q-3 -13 -33 -49q-12 -19 -40 -53t-35 -43q-139 -196 -265 -279q-49 -33 -92 -33q-34 0 -57 23q-47 44 -47 143q0 28 10 82t10 82q-31 -22 -71 -90q-123 -192 -273 -266 q-44 -23 -86 -23q-56 0 -112 37q-60 43 -60 127zM301 946q0 44 18 74q15 18 48 18q46 0 67 -24q15 -18 15 -39q0 -30 -20.5 -58t-43.5 -34q-2 0 -6 -1t-6 -1q-26 0 -49 21t-23 44zM604 950q0 43 19 70q15 18 47 18q46 0 67 -24q15 -18 15 -39q0 -30 -20.5 -58t-43.5 -34 q-2 0 -6 -1t-6 -1q-27 0 -49.5 22.5t-22.5 46.5z" />
<glyph unicode="&#xff;" horiz-adv-x="1050" d="M-336 -1497q0 85 57 197q111 215 244 401q35 49 99 145t94 138q6 8 28.5 35t32.5 44q8 9 27 25q61 61 69 102q11 48 26 144.5t26 144.5q20 79 73 318q-24 -8 -43 -22t-27 -23.5t-22 -28.5q-9 -12 -21.5 -24t-21.5 -20.5t-25.5 -20t-24 -16.5t-27.5 -18t-25 -16 q-47 -31 -121 -31q-47 0 -80 18.5t-33 55.5v64q0 178 37 313q6 21 16 95.5t28.5 125t55.5 74.5q12 6 21 6q16 0 28 -15t15 -34q4 -36 4 -53q0 -61 -16 -117q-2 -4 -2 -12q0 -28 -6 -33h-9q-16 -8 -22 -35q0 -2 -0.5 -7t-0.5 -8.5t0.5 -7.5t2.5 -6t6 -2q6 -26 6 -28 q-9 -61 -24 -115q0 -3 -1.5 -7.5t-1.5 -6.5q-16 -71 -20 -181q21 -18 45 -18q22 0 68 20q29 13 51 35q110 98 160 148q6 6 18 17.5t19.5 19t16.5 17.5t15 19q16 23 35 88t37 87q14 20 41 20q25 0 43 -18q12 -12 12 -29q0 -16 -13.5 -47t-15.5 -37q-8 -26 -52.5 -170.5 t-69.5 -214.5q-9 -25 -20 -80.5t-15 -69.5q-10 -40 -10 -69h4q8 0 19.5 6t19 12t18.5 16t12 11q73 82 157.5 179t166 193t113.5 132q14 15 47.5 55.5t54.5 62.5q2 2 17 18.5t26.5 26t21.5 13.5q12 4 15 4q6 0 6 -4t-4.5 -12t-13 -19.5t-9.5 -13.5q-19 -30 -54 -74.5 t-84.5 -104t-59.5 -71.5q-63 -74 -101 -123q-17 -22 -45 -57q-19 -24 -40 -46t-57 -57t-44 -43q-29 -32 -150 -172q-48 -55 -71 -147q-16 -62 -53 -174.5t-50 -157.5q-14 -49 -41.5 -158t-44.5 -166q-40 -147 -65 -196q-8 -18 -29.5 -71t-40 -86t-43.5 -58 q-27 -28 -46.5 -45.5t-55 -44.5t-71 -41.5t-69.5 -14.5q-60 0 -104 47q-39 39 -39 105zM-199 -1384q0 -83 49 -109q15 -10 39 -10q44 0 93.5 39.5t80.5 83.5q58 85 93 215q56 196 100 475q6 48 6 51q0 25 -10 43q-22 -9 -40.5 -26t-27 -28.5t-24.5 -35.5 q-26 -39 -73.5 -112.5t-55.5 -86.5q-26 -42 -80.5 -126t-81.5 -126q-6 -10 -13 -30.5t-10 -26.5q-45 -112 -45 -190zM199 946q0 44 18 74q15 18 47 18q47 0 68 -24q14 -17 14 -39q0 -30 -20 -58t-43 -34q-2 0 -6.5 -1t-6.5 -1q-26 0 -48.5 21t-22.5 44zM502 950q0 44 18 70 q15 18 47 18q47 0 68 -24q14 -17 14 -39q0 -30 -20 -58t-43 -34q-2 0 -6.5 -1t-6.5 -1q-27 0 -49 22.5t-22 46.5z" />
<glyph unicode="&#x152;" horiz-adv-x="2160" d="M78 385q0 47 2 70q10 175 68.5 346t167.5 322t253 243q119 78 246 78h23q45 0 80 -27q24 -21 24 -51q0 -16 -8 -27q0 1 1 2t1 2q0 13 -54 35.5t-69 22.5h-4q-61 0 -131 -66q-244 -222 -328 -620q-51 -236 -51 -488q0 -45 4 -127q5 -105 15 -141q16 -58 59 -98 q83 -80 211 -80h6q73 0 140 32.5t116 88.5q98 105 145 192q78 145 116.5 305t62.5 371q4 50 4 78q0 37 -9 147q-11 93 -51 135q-13 13 -33 13q-34 -4 -61.5 -31.5t-42.5 -64.5q-18 -47 -18 -95q0 -60 32 -170q0 -12 -6 -12q-3 0 -8 -1t-8 -1q-82 0 -82 133q0 68 18 129 q30 106 119 148q36 16 76 16q52 0 94.5 -30t67.5 -83q39 -85 43 -127q0 -3 12 -47q5 5 15.5 15t16.5 16.5t11 13.5q22 39 55.5 77t78.5 74.5t77.5 60t83.5 57.5q79 57 162 57q32 0 59 -12q70 -32 70 -119q0 -37 -19 -96q-24 -69 -70.5 -122t-117.5 -108q-188 -144 -340 -205 q-64 -25 -88 -47q3 -17 11 -20.5t17 0.5q52 10 91 10l94 -16q56 -20 98.5 -63.5t42.5 -88.5q0 -50 -57 -90q-38 -25 -82 -25q-32 0 -68.5 14t-60.5 28t-60 38q-9 6 -77 64q-76 -46 -97 -152q-10 -49 -10 -118q0 -226 139 -431q79 -116 198.5 -189t244.5 -73q139 0 256 97 q104 85 104 219q0 85 -43 164q-19 33 -26.5 45.5t-27 37.5t-40 35.5t-45.5 10.5h-6q-42 0 -88 -37q-12 -12 -31.5 -38t-32.5 -38q-10 35 -10 55q0 28 41 64q72 59 154 59h6q61 0 127 -31t110 -77q51 -54 51 -134q0 -100 -73 -211.5t-156 -166.5q-12 -8 -39.5 -27t-49.5 -32 t-44 -21q-83 -35 -184 -35q-156 0 -305.5 79t-231.5 187q-70 89 -102 283q-3 19 -9 41q0 5 -12 41q-41 -32 -104 -111q-123 -158 -340 -190q-6 -2 -19 -2q-1 0 -49 6q-131 31 -229.5 115t-151.5 208q-61 141 -61 332zM1309 678q0 -25 4 -37q31 0 35 2q199 66 309 164 q67 58 116.5 135t49.5 152q0 22 -2 32q-7 30 -26 54t-48 24h-8q-15 -1 -34 -10.5t-28.5 -16t-33.5 -25t-25 -19.5q-74 -59 -117 -105q-75 -81 -133 -184q-59 -104 -59 -166zM1341 471q35 -46 84.5 -83t87.5 -46q4 -2 15 -2q22 0 34.5 21t12.5 49q0 50 -31 65q-51 26 -100 29 q-10 2 -33 2q-46 0 -70 -35z" />
<glyph unicode="&#x153;" horiz-adv-x="1574" d="M-20 315q0 9 14 24t14 23q0 7 -2 9q-1 1 -5.5 4t-6.5 7t-2 11q-9 41 2 56q1 2 5 5t5 5q13 32 27 92t58.5 120t98.5 87q1 1 23 12.5t42.5 21t54 18.5t65.5 9q61 0 114 -31q2 -2 2 -4q0 -6 -14 -11t-35 -5q-8 0 -32 4q-2 0 -6.5 1t-6.5 1q-34 0 -86 -28.5t-73 -53.5 q-105 -132 -105 -321q0 -51 4 -78q4 -42 17.5 -88.5t38 -97.5t67.5 -84t96 -33h4q17 0 33 8q21 9 56.5 26.5t79.5 45t44 39.5q0 2 -2 4q-22 21 -68 57.5t-75 67t-49 71.5q-33 65 -33 133q0 52 18 99q30 72 96 131t144 69q12 2 33 2q115 0 139 -122q85 88 203 106q6 2 22 2 q37 0 65 -19.5t28 -58.5q0 -133 -56 -223q-9 -16 -21.5 -49.5t-21.5 -48.5q-62 -108 -131 -146q-20 -11 -20 -28q0 -9 8 -29q16 -36 16 -74q0 -15 -4 -43q3 7 24.5 4t28.5 -8q10 -3 28 -20t24 -21q49 -28 102 -28q64 0 122.5 39t102.5 96q33 43 73 86.5t85 105.5 q171 232 205 232h2q6 -3 6 -13q0 -18 -28 -54.5t-62 -75t-41 -50.5q-17 -30 -34.5 -57t-30.5 -47t-34 -44.5t-32 -37.5t-37.5 -40t-37 -37.5t-45.5 -44t-48 -46.5q-85 -82 -195 -82q-34 0 -65 8q-136 39 -197 113q-27 35 -59 96q-15 -6 -55 -6q-19 0 -27 2h-8q-10 0 -22 -4 t-25 -12.5t-21 -14t-21.5 -17t-15.5 -12.5q-112 -96 -223 -96q-98 0 -178 80q-12 12 -31 27.5t-31 28.5t-22 34q-36 77 -49 164l-6 37q-5 16 -4 20zM416 438q0 -52 24 -104q56 -112 187 -156q25 42 37 76q0 3 -1 9t-1 9q-3 24 -3 52q0 111 48 202q-10 87 -52 148q-4 4 -10 4 q-27 0 -99.5 -48t-86.5 -65q-43 -56 -43 -127zM803 332q0 -20 4 -60q1 -6 6.5 -20.5t7.5 -22.5q18 0 33 7t22.5 14.5t20.5 23.5q55 67 72.5 98.5t46.5 116.5q2 6 10.5 29.5t12 34t7 29.5t3.5 36q0 3 -1 10.5t-1 10.5q-6 37 -35 37q-9 0 -13 -2q-2 -1 -9.5 -4t-10.5 -6 q-176 -118 -176 -332z" />
<glyph unicode="&#x178;" horiz-adv-x="1802" d="M23 991q0 16 22 45q61 77 155 166.5t171.5 156t163 159t139.5 182.5q47 76 106 76l27 -4q24 -27 24 -74q0 -108 -30.5 -235.5t-69 -228t-86 -232t-70.5 -224.5q-19 -80 -71.5 -215.5t-63.5 -167.5q-22 -70 -22 -127q0 -41 12 -82t12 -45q79 19 159 63.5t148 102 t138 135.5t125 152t112.5 164t97.5 159.5t83 149.5q30 57 68 118.5t87.5 139t73.5 115.5q2 4 17.5 29t29 45.5t30.5 45t32 38.5t24 14h14q21 -18 21 -47q0 -31 -19 -78q-35 -96 -67 -164q-28 -62 -54 -129.5t-58.5 -162.5t-45.5 -132q-128 -353 -151 -424 q-49 -146 -117 -432q-9 -35 -32 -123.5t-38.5 -152.5t-25.5 -125q5 -2 11 -0.5t8.5 1.5t7 4t6 5.5t5 6.5t5.5 7q87 102 255.5 259.5t235.5 228.5q51 54 124.5 153.5t96.5 128.5q13 17 35 17q16 0 41 -31l-10 -16q-69 -58 -118 -112.5t-101 -122t-92 -112.5 q-79 -88 -232 -229t-225 -219q-96 -106 -109 -232q-6 -70 -37 -131q-5 -9 -20 -79q-46 -208 -127 -377q-5 -10 -20 -60q-41 -152 -160 -315q-25 -34 -48.5 -46.5t-64.5 -12.5h-33h-10q-55 0 -77.5 19.5t-43.5 78.5q-28 86 -28 149q0 124 88 240q29 38 90.5 119.5t98 129 t92 113t104.5 117.5q1 1 13 14t14.5 15.5t13 14.5t13.5 17t12 16.5t12.5 18t9.5 17.5t9 20l6.5 19.5t4.5 21.5q14 93 34 174t55.5 199t50.5 170q20 74 73 287.5t98 358t105 278.5q18 39 55 165q-26 -14 -61 -67t-77.5 -129.5t-95.5 -169.5t-126.5 -193.5t-159.5 -194.5 t-205 -181t-252 -144q-4 -2 -14 -2q-20 0 -62.5 18t-45.5 19q-64 23 -64 90q0 8 1 24t1 21q0 137 64 307q61 158 153 454t137 421q46 122 50 190l-19 -24q-67 -69 -178 -176t-204 -201.5t-169 -185.5q-3 -3 -9.5 -12t-11 -15t-12.5 -11t-16 -5q-2 0 -6 1t-6 1q-10 7 -10 26z M434 -1393q0 -31 3.5 -59.5t13.5 -59t31.5 -49t52.5 -18.5q71 0 98 39q35 46 67 106t52.5 109.5t45 128t36 119.5t34 130.5t29.5 117.5q21 73 21 104q0 21 -7 45q-35 -26 -99 -101t-110 -136t-122.5 -165.5t-83.5 -113.5q-62 -86 -62 -197zM1079 1909q0 42 19 73 q16 19 47 19q46 0 67 -25q15 -18 15 -39q0 -30 -20.5 -58t-43.5 -34q-2 0 -6 -1t-6 -1q-26 0 -49 21.5t-23 44.5zM1382 1913q0 42 19 69q16 19 47 19q47 0 68 -25q14 -17 14 -39q0 -30 -20.5 -58t-43.5 -34q-2 0 -6 -1t-6 -1q-27 0 -49.5 23t-22.5 47z" />
<glyph unicode="&#x2c6;" horiz-adv-x="542" d="M-33 911l211 138l199 -134l-92 -24l-109 78l-135 -88z" />
<glyph unicode="&#x2dc;" horiz-adv-x="1112" d="M242 948q27 31 43 47q70 70 106 70q8 0 15 -1.5t13.5 -6t11.5 -7.5t11.5 -10t9 -10t8.5 -11t7 -9q1 -2 10 -13.5t15 -19t18 -19.5t22 -19.5t24 -13t28 -5.5q21 0 50.5 5.5t48.5 10.5l19 6q-14 -23 -69.5 -63.5t-89.5 -40.5q-13 0 -26 4.5t-22.5 11t-20 16t-15.5 15.5 t-12 15l-7 9q-1 1 -9 12t-15.5 19.5t-18 19.5t-22.5 17t-23 6q-19 0 -41.5 -14.5t-35.5 -28.5l-13 -14h-4z" />
<glyph unicode="&#x2000;" horiz-adv-x="1322" />
<glyph unicode="&#x2001;" horiz-adv-x="2644" />
<glyph unicode="&#x2002;" horiz-adv-x="1322" />
<glyph unicode="&#x2003;" horiz-adv-x="2644" />
<glyph unicode="&#x2004;" horiz-adv-x="881" />
<glyph unicode="&#x2005;" horiz-adv-x="661" />
<glyph unicode="&#x2006;" horiz-adv-x="440" />
<glyph unicode="&#x2007;" horiz-adv-x="440" />
<glyph unicode="&#x2008;" horiz-adv-x="330" />
<glyph unicode="&#x2009;" horiz-adv-x="528" />
<glyph unicode="&#x200a;" horiz-adv-x="146" />
<glyph unicode="&#x2010;" horiz-adv-x="575" d="M55 330l4 59l4 4l189 -4l276 4l9 -8v-57l-9 -9q-149 7 -198 7l-273 -7z" />
<glyph unicode="&#x2011;" horiz-adv-x="575" d="M55 330l4 59l4 4l189 -4l276 4l9 -8v-57l-9 -9q-149 7 -198 7l-273 -7z" />
<glyph unicode="&#x2012;" horiz-adv-x="575" d="M55 330l4 59l4 4l189 -4l276 4l9 -8v-57l-9 -9q-149 7 -198 7l-273 -7z" />
<glyph unicode="&#x2013;" />
<glyph unicode="&#x2014;" />
<glyph unicode="&#x2018;" />
<glyph unicode="&#x2019;" />
<glyph unicode="&#x201a;" />
<glyph unicode="&#x201c;" />
<glyph unicode="&#x201d;" />
<glyph unicode="&#x201e;" />
<glyph unicode="&#x2022;" />
<glyph unicode="&#x2026;" />
<glyph unicode="&#x202f;" horiz-adv-x="528" />
<glyph unicode="&#x2039;" />
<glyph unicode="&#x203a;" />
<glyph unicode="&#x205f;" horiz-adv-x="661" />
<glyph unicode="&#x20ac;" />
<glyph unicode="&#x2122;" horiz-adv-x="3299" d="M887 397q0 34 18 52q10 10 70 40q21 9 47 9q23 0 59 -4q26 -1 80 -11t80 -10q47 0 84 23q42 27 109 41q8 2 28 2q38 0 75.5 -15t53.5 -43q5 -9 2 -14q0 -9 -13 -16t-26 -9q-6 0 -10 2q-1 0 -2 1.5l-2 3t-2 2.5q-30 43 -80 43q-59 0 -100 -58q-54 -76 -76 -180 q-45 -191 -102 -336q-33 -78 -105 -141q-55 -47 -100 -47q-23 0 -45 16q-25 16 -25 47q0 11 2 17q7 14 17 14q5 0 8.5 -3t6.5 -11l3 -9q13 -26 45 -22q37 4 82 67q11 14 20 29.5t17 35t13.5 34t13 39.5t10.5 36.5t10.5 41.5l9.5 38q37 138 72 273v37l-25 10q-76 13 -170 27 q-6 2 -26 2q-64 0 -72 -25q-3 -13 3.5 -20t18 -12t15.5 -9q6 -8 4 -17.5t-10 -15.5q-12 -6 -25 -6q-30 0 -49 19q-12 12 -12 32zM1268 -129q0 11 4 27q38 179 135 399q8 24 25 35q9 7 21.5 5.5t16.5 -11.5q2 -8 -2 -27q-4 -17 -13 -49.5t-13 -48.5q0 2 10.5 7.5t22.5 11.5 l14 7q19 13 39 37q17 17 49 45q2 2 10.5 9.5t14 12t14 9t14.5 4.5q12 -2 12 -31q0 -19 -5 -49.5t-11 -55t-12.5 -50t-7.5 -27.5q56 42 142 150.5t140 150.5q12 8 19 8q19 5 32 -16q11 -22 11 -35q0 -25 -17 -63q-61 -161 -90 -322q-2 -10 -2 -31q0 -29 12 -41q14 -14 41 -14 q11 0 31 4q86 25 133 105q37 60 37 116t-45 78q-2 -5 -4 -16t-5.5 -19t-10.5 -12q-13 -8 -30.5 -2t-21.5 21q-6 20 13 43q28 38 100 38q17 0 25 -2q35 -7 53 -34.5t18 -63.5q0 -21 -6 -39q-20 -67 -90 -145q-104 -113 -209 -113q-11 0 -35 4q-28 6 -49 21q-31 31 -31 78v16 q0 67 44.5 187.5t50.5 176.5q-51 -41 -129 -147q-46 -63 -70 -96.5t-56.5 -90.5t-50.5 -108q0 -1 -3.5 -9.5t-4.5 -10.5t-4 -10t-5 -10.5t-5.5 -9t-6.5 -9t-7.5 -7t-9 -6t-10 -3t-11.5 -1.5q-7 0 -11.5 5.5t-0.5 13.5q30 130 71 262q21 65 21 88q0 14 -2 20 q-87 -46 -145.5 -138t-82.5 -210q-1 -4 -3.5 -12t-4 -12.5t-4.5 -10.5t-6.5 -9.5t-9 -6t-11.5 -2.5h-6q-26 6 -26 41z" />
<glyph unicode="&#x25fc;" horiz-adv-x="768" d="M0 0v768h768v-768h-768z" />
<glyph unicode="&#xfb01;" />
<glyph unicode="&#xfb02;" />
</font>
</defs>
</svg>
